<?xml version="1.0" encoding="UTF-8"?>
<svg xmlns="http://www.w3.org/2000/svg" width="1200" height="675" viewBox="0 0 1200 675" role="img" aria-label="Nature fallback 1" data-scene="alpine-lake">

  <defs>
    <linearGradient id="sky-1" x1="0" y1="0" x2="0" y2="1">
      <stop offset="0%" stop-color="#87b2ff"/>
      <stop offset="55%" stop-color="#5f88d7"/>
      <stop offset="100%" stop-color="#315a8f"/>
    </linearGradient>
    <filter id="grain-1" x="0%" y="0%" width="100%" height="100%">
      <feTurbulence type="fractalNoise" baseFrequency="0.8" numOctaves="2" seed="37" stitchTiles="stitch"/>
      <feColorMatrix type="saturate" values="0"/>
      <feComponentTransfer>
        <feFuncA type="table" tableValues="0 0.045"/>
      </feComponentTransfer>
    </filter>
  </defs>
<rect x="0" y="0" width="1200" height="675" fill="url(#sky-1)"/>

      <path d="M0 320 L160 220 L300 300 L430 205 L580 295 L760 210 L920 280 L1080 225 L1200 290 L1200 675 L0 675 Z" fill="#2d486a"/>
      <path d="M0 390 L220 330 L380 390 L560 315 L740 380 L940 320 L1200 380 L1200 675 L0 675 Z" fill="#3f5f81"/>
      <rect x="0" y="390" width="1200" height="285" fill="#3d7ea6" opacity="0.72"/>
      <ellipse cx="620" cy="510" rx="340" ry="92" fill="#8bc6df" opacity="0.28"/>
    
<rect x="0" y="0" width="1200" height="675" filter="url(#grain-1)"/>
</svg>