<svg xmlns="http://www.w3.org/2000/svg" width="1200" height="675" viewBox="0 0 1200 675" role="img" aria-label="Vibe Coding semantic cover">
  <defs>
    <linearGradient id="bgc" x1="0" y1="0" x2="1" y2="1">
      <stop offset="0%" stop-color="#020617"/>
      <stop offset="100%" stop-color="#0f172a"/>
    </linearGradient>
    <linearGradient id="code" x1="0" y1="0" x2="1" y2="0">
      <stop offset="0%" stop-color="#0ea5e9"/>
      <stop offset="100%" stop-color="#8b5cf6"/>
    </linearGradient>
  </defs>
  <rect width="1200" height="675" fill="url(#bgc)"/>
  <rect x="90" y="90" width="1020" height="495" rx="28" fill="#0b1220" stroke="#334155" stroke-width="4"/>
  <rect x="120" y="120" width="1020" height="44" rx="10" fill="#111827"/>
  <circle cx="150" cy="142" r="8" fill="#ef4444"/>
  <circle cx="178" cy="142" r="8" fill="#f59e0b"/>
  <circle cx="206" cy="142" r="8" fill="#22c55e"/>
  <rect x="150" y="190" width="680" height="360" rx="14" fill="#020617" stroke="#1e293b"/>
  <text x="180" y="245" fill="#38bdf8" font-size="24" font-family="Courier New, monospace">const workflow = agent.plan(task)</text>
  <text x="180" y="290" fill="#c4b5fd" font-size="24" font-family="Courier New, monospace">if (tests.fail) debug.systematically()</text>
  <text x="180" y="335" fill="#34d399" font-size="24" font-family="Courier New, monospace">commit("feat: shipping fast safely")</text>
  <text x="180" y="380" fill="#e2e8f0" font-size="24" font-family="Courier New, monospace">&gt; npm run build</text>
  <text x="180" y="425" fill="#a7f3d0" font-size="24" font-family="Courier New, monospace">PASS  all checks</text>
  <rect x="860" y="190" width="230" height="360" rx="14" fill="#111827" stroke="#334155"/>
  <text x="892" y="248" fill="#93c5fd" font-size="24" font-family="Arial, sans-serif">Vibe Coding</text>
  <rect x="892" y="278" width="160" height="28" rx="10" fill="url(#code)"/>
  <rect x="892" y="328" width="160" height="28" rx="10" fill="url(#code)" opacity="0.85"/>
  <rect x="892" y="378" width="160" height="28" rx="10" fill="url(#code)" opacity="0.7"/>
</svg>
