<?xml version="1.0" encoding="UTF-8"?>
<svg xmlns="http://www.w3.org/2000/svg" width="1200" height="675" viewBox="0 0 1200 675" role="img" aria-label="AIGC fallback cover 29" data-scene="scene-9">
  <defs>
    <linearGradient id="bg-29" x1="0" y1="0" x2="1" y2="1">
      <stop offset="0%" stop-color="hsl(124, 82%, 16%)"/>
      <stop offset="52%" stop-color="hsl(161, 84%, 23%)"/>
      <stop offset="100%" stop-color="hsl(253, 78%, 12%)"/>
    </linearGradient>
    <filter id="blur-29" x="-25%" y="-25%" width="150%" height="150%">
      <feGaussianBlur stdDeviation="26"/>
    </filter>
    <filter id="soft-29" x="-25%" y="-25%" width="150%" height="150%">
      <feGaussianBlur stdDeviation="10"/>
    </filter>
    <filter id="grain-29" x="0%" y="0%" width="100%" height="100%">
      <feTurbulence type="fractalNoise" baseFrequency="0.9" numOctaves="2" seed="377" stitchTiles="stitch"/>
      <feColorMatrix type="saturate" values="0"/>
      <feComponentTransfer>
        <feFuncA type="table" tableValues="0 0.05"/>
      </feComponentTransfer>
    </filter>
    <radialGradient id="vignette-29" cx="50%" cy="45%" r="70%">
      <stop offset="60%" stop-color="rgba(0,0,0,0)"/>
      <stop offset="100%" stop-color="rgba(0,0,0,0.45)"/>
    </radialGradient>
  </defs>

  <rect width="1200" height="675" fill="url(#bg-29)"/>
  <circle cx="390" cy="181" r="162" fill="hsl(124, 92%, 62%)" opacity="0.11" filter="url(#blur-29)"/><circle cx="803" cy="269" r="122" fill="hsl(150, 92%, 62%)" opacity="0.10" filter="url(#blur-29)"/><circle cx="523" cy="199" r="147" fill="hsl(176, 92%, 62%)" opacity="0.09" filter="url(#blur-29)"/>
  <circle cx="245" cy="343" r="32" fill="rgba(210,240,255,0.15)" filter="url(#soft-29)"/><circle cx="962" cy="294" r="33" fill="rgba(210,240,255,0.09)" filter="url(#soft-29)"/><circle cx="91" cy="102" r="24" fill="rgba(210,240,255,0.14)" filter="url(#soft-29)"/><circle cx="414" cy="414" r="54" fill="rgba(210,240,255,0.12)" filter="url(#soft-29)"/><circle cx="555" cy="47" r="56" fill="rgba(210,240,255,0.09)" filter="url(#soft-29)"/><circle cx="1077" cy="117" r="62" fill="rgba(210,240,255,0.14)" filter="url(#soft-29)"/><circle cx="134" cy="428" r="54" fill="rgba(210,240,255,0.06)" filter="url(#soft-29)"/><circle cx="709" cy="109" r="32" fill="rgba(210,240,255,0.06)" filter="url(#soft-29)"/><circle cx="813" cy="459" r="42" fill="rgba(210,240,255,0.11)" filter="url(#soft-29)"/><circle cx="602" cy="123" r="46" fill="rgba(210,240,255,0.10)" filter="url(#soft-29)"/>
  <polygon points="0,675 1200,675 1247,438 -47,438" fill="rgba(8,16,28,0.35)"/>
  <g id="scene-drone-swarm"><g transform="translate(1016,218) scale(0.86)"><rect x="-10" y="-5" width="20" height="10" rx="3" fill="rgba(180,240,255,0.58)"/><line x1="-20" y1="0" x2="20" y2="0" stroke="rgba(150,230,255,0.6)" stroke-width="2"/><line x1="0" y1="-16" x2="0" y2="16" stroke="rgba(150,230,255,0.6)" stroke-width="2"/></g><g transform="translate(885,263) scale(1.16)"><rect x="-10" y="-5" width="20" height="10" rx="3" fill="rgba(180,240,255,0.58)"/><line x1="-20" y1="0" x2="20" y2="0" stroke="rgba(150,230,255,0.6)" stroke-width="2"/><line x1="0" y1="-16" x2="0" y2="16" stroke="rgba(150,230,255,0.6)" stroke-width="2"/></g><g transform="translate(675,206) scale(0.82)"><rect x="-10" y="-5" width="20" height="10" rx="3" fill="rgba(180,240,255,0.58)"/><line x1="-20" y1="0" x2="20" y2="0" stroke="rgba(150,230,255,0.6)" stroke-width="2"/><line x1="0" y1="-16" x2="0" y2="16" stroke="rgba(150,230,255,0.6)" stroke-width="2"/></g><g transform="translate(182,123) scale(1.05)"><rect x="-10" y="-5" width="20" height="10" rx="3" fill="rgba(180,240,255,0.58)"/><line x1="-20" y1="0" x2="20" y2="0" stroke="rgba(150,230,255,0.6)" stroke-width="2"/><line x1="0" y1="-16" x2="0" y2="16" stroke="rgba(150,230,255,0.6)" stroke-width="2"/></g><g transform="translate(804,210) scale(1.00)"><rect x="-10" y="-5" width="20" height="10" rx="3" fill="rgba(180,240,255,0.58)"/><line x1="-20" y1="0" x2="20" y2="0" stroke="rgba(150,230,255,0.6)" stroke-width="2"/><line x1="0" y1="-16" x2="0" y2="16" stroke="rgba(150,230,255,0.6)" stroke-width="2"/></g><g transform="translate(969,220) scale(1.27)"><rect x="-10" y="-5" width="20" height="10" rx="3" fill="rgba(180,240,255,0.58)"/><line x1="-20" y1="0" x2="20" y2="0" stroke="rgba(150,230,255,0.6)" stroke-width="2"/><line x1="0" y1="-16" x2="0" y2="16" stroke="rgba(150,230,255,0.6)" stroke-width="2"/></g><g transform="translate(926,201) scale(0.88)"><rect x="-10" y="-5" width="20" height="10" rx="3" fill="rgba(180,240,255,0.58)"/><line x1="-20" y1="0" x2="20" y2="0" stroke="rgba(150,230,255,0.6)" stroke-width="2"/><line x1="0" y1="-16" x2="0" y2="16" stroke="rgba(150,230,255,0.6)" stroke-width="2"/></g><g transform="translate(439,238) scale(0.98)"><rect x="-10" y="-5" width="20" height="10" rx="3" fill="rgba(180,240,255,0.58)"/><line x1="-20" y1="0" x2="20" y2="0" stroke="rgba(150,230,255,0.6)" stroke-width="2"/><line x1="0" y1="-16" x2="0" y2="16" stroke="rgba(150,230,255,0.6)" stroke-width="2"/></g></g>
  <g id="scene-sparkles"><circle cx="796" cy="400" r="3.35" fill="rgba(180,240,255,0.25)"/><circle cx="912" cy="642" r="1.14" fill="rgba(180,240,255,0.39)"/><circle cx="631" cy="587" r="2.79" fill="rgba(180,240,255,0.24)"/><circle cx="703" cy="286" r="2.70" fill="rgba(180,240,255,0.32)"/><circle cx="922" cy="561" r="2.86" fill="rgba(180,240,255,0.36)"/><circle cx="557" cy="528" r="3.21" fill="rgba(180,240,255,0.36)"/><circle cx="1015" cy="389" r="2.26" fill="rgba(180,240,255,0.18)"/><circle cx="966" cy="72" r="2.68" fill="rgba(180,240,255,0.15)"/><circle cx="981" cy="339" r="1.25" fill="rgba(180,240,255,0.33)"/><circle cx="963" cy="606" r="1.89" fill="rgba(180,240,255,0.29)"/><circle cx="907" cy="575" r="1.76" fill="rgba(180,240,255,0.43)"/><circle cx="851" cy="279" r="1.70" fill="rgba(180,240,255,0.22)"/><circle cx="171" cy="563" r="2.05" fill="rgba(180,240,255,0.20)"/><circle cx="44" cy="123" r="3.09" fill="rgba(180,240,255,0.28)"/><circle cx="1119" cy="197" r="3.02" fill="rgba(180,240,255,0.20)"/><circle cx="130" cy="252" r="3.06" fill="rgba(180,240,255,0.36)"/><circle cx="563" cy="250" r="2.62" fill="rgba(180,240,255,0.32)"/><circle cx="433" cy="442" r="2.74" fill="rgba(180,240,255,0.27)"/><circle cx="544" cy="394" r="2.03" fill="rgba(180,240,255,0.23)"/><circle cx="764" cy="428" r="1.78" fill="rgba(180,240,255,0.22)"/><circle cx="327" cy="152" r="1.37" fill="rgba(180,240,255,0.17)"/><circle cx="903" cy="284" r="2.20" fill="rgba(180,240,255,0.16)"/><circle cx="487" cy="569" r="2.14" fill="rgba(180,240,255,0.42)"/><circle cx="490" cy="427" r="2.84" fill="rgba(180,240,255,0.28)"/><circle cx="569" cy="138" r="2.85" fill="rgba(180,240,255,0.18)"/><circle cx="1172" cy="320" r="1.88" fill="rgba(180,240,255,0.23)"/><circle cx="1020" cy="98" r="2.99" fill="rgba(180,240,255,0.41)"/></g>
  <rect width="1200" height="675" fill="rgba(190,220,255,0.06)"/>
  <rect width="1200" height="675" filter="url(#grain-29)"/>
  <rect width="1200" height="675" fill="url(#vignette-29)"/>
  <rect x="20" y="20" width="1160" height="635" rx="32" fill="none" stroke="rgba(155,220,255,0.24)"/>
</svg>