<?xml version="1.0" encoding="UTF-8"?>
<svg xmlns="http://www.w3.org/2000/svg" width="1200" height="675" viewBox="0 0 1200 675" role="img" aria-label="AIGC fallback cover 47" data-scene="scene-7">
  <defs>
    <linearGradient id="bg-47" x1="0" y1="0" x2="1" y2="1">
      <stop offset="0%" stop-color="hsl(137, 82%, 16%)"/>
      <stop offset="52%" stop-color="hsl(180, 84%, 23%)"/>
      <stop offset="100%" stop-color="hsl(277, 78%, 12%)"/>
    </linearGradient>
    <filter id="blur-47" x="-25%" y="-25%" width="150%" height="150%">
      <feGaussianBlur stdDeviation="26"/>
    </filter>
    <filter id="soft-47" x="-25%" y="-25%" width="150%" height="150%">
      <feGaussianBlur stdDeviation="10"/>
    </filter>
    <filter id="grain-47" x="0%" y="0%" width="100%" height="100%">
      <feTurbulence type="fractalNoise" baseFrequency="0.9" numOctaves="2" seed="611" stitchTiles="stitch"/>
      <feColorMatrix type="saturate" values="0"/>
      <feComponentTransfer>
        <feFuncA type="table" tableValues="0 0.05"/>
      </feComponentTransfer>
    </filter>
    <radialGradient id="vignette-47" cx="50%" cy="45%" r="70%">
      <stop offset="60%" stop-color="rgba(0,0,0,0)"/>
      <stop offset="100%" stop-color="rgba(0,0,0,0.45)"/>
    </radialGradient>
  </defs>

  <rect width="1200" height="675" fill="url(#bg-47)"/>
  <circle cx="535" cy="573" r="118" fill="hsl(137, 92%, 62%)" opacity="0.08" filter="url(#blur-47)"/><circle cx="616" cy="407" r="92" fill="hsl(163, 92%, 62%)" opacity="0.11" filter="url(#blur-47)"/><circle cx="643" cy="115" r="93" fill="hsl(189, 92%, 62%)" opacity="0.11" filter="url(#blur-47)"/>
  <circle cx="242" cy="75" r="51" fill="rgba(210,240,255,0.08)" filter="url(#soft-47)"/><circle cx="979" cy="433" r="29" fill="rgba(210,240,255,0.13)" filter="url(#soft-47)"/><circle cx="579" cy="386" r="48" fill="rgba(210,240,255,0.16)" filter="url(#soft-47)"/><circle cx="134" cy="406" r="61" fill="rgba(210,240,255,0.10)" filter="url(#soft-47)"/><circle cx="919" cy="334" r="36" fill="rgba(210,240,255,0.14)" filter="url(#soft-47)"/><circle cx="707" cy="282" r="36" fill="rgba(210,240,255,0.08)" filter="url(#soft-47)"/><circle cx="999" cy="452" r="62" fill="rgba(210,240,255,0.11)" filter="url(#soft-47)"/><circle cx="887" cy="317" r="25" fill="rgba(210,240,255,0.07)" filter="url(#soft-47)"/><circle cx="86" cy="177" r="52" fill="rgba(210,240,255,0.06)" filter="url(#soft-47)"/><circle cx="298" cy="262" r="28" fill="rgba(210,240,255,0.08)" filter="url(#soft-47)"/>
  <polygon points="0,675 1200,675 1244,387 -44,387" fill="rgba(8,16,28,0.35)"/>
  <g id="scene-orbits"><ellipse cx="598" cy="341" rx="151" ry="70" fill="none" stroke="rgba(140,230,255,0.28)" stroke-width="2" transform="rotate(-17 598 341)"/><ellipse cx="598" cy="341" rx="174" ry="109" fill="none" stroke="rgba(140,230,255,0.28)" stroke-width="2" transform="rotate(-10 598 341)"/><ellipse cx="598" cy="341" rx="210" ry="105" fill="none" stroke="rgba(140,230,255,0.28)" stroke-width="2" transform="rotate(-5 598 341)"/><ellipse cx="598" cy="341" rx="277" ry="136" fill="none" stroke="rgba(140,230,255,0.28)" stroke-width="2" transform="rotate(-12 598 341)"/><circle cx="766" cy="335" r="8" fill="hsl(137, 88%, 72%)" opacity="0.85"/><circle cx="827" cy="380" r="8" fill="hsl(149, 88%, 72%)" opacity="0.85"/><circle cx="874" cy="385" r="7" fill="hsl(161, 88%, 72%)" opacity="0.85"/><circle cx="478" cy="227" r="6" fill="hsl(173, 88%, 72%)" opacity="0.85"/><circle cx="596" cy="227" r="9" fill="hsl(185, 88%, 72%)" opacity="0.85"/><circle cx="461" cy="429" r="12" fill="hsl(197, 88%, 72%)" opacity="0.85"/><circle cx="558" cy="258" r="12" fill="hsl(209, 88%, 72%)" opacity="0.85"/><circle cx="683" cy="404" r="6" fill="hsl(221, 88%, 72%)" opacity="0.85"/><circle cx="797" cy="234" r="9" fill="hsl(233, 88%, 72%)" opacity="0.85"/></g>
  <g id="scene-sparkles"><circle cx="916" cy="183" r="2.99" fill="rgba(180,240,255,0.43)"/><circle cx="199" cy="567" r="1.88" fill="rgba(180,240,255,0.40)"/><circle cx="1068" cy="654" r="1.52" fill="rgba(180,240,255,0.18)"/><circle cx="1086" cy="277" r="2.46" fill="rgba(180,240,255,0.16)"/><circle cx="497" cy="214" r="1.66" fill="rgba(180,240,255,0.29)"/><circle cx="855" cy="443" r="1.77" fill="rgba(180,240,255,0.42)"/><circle cx="955" cy="291" r="2.95" fill="rgba(180,240,255,0.33)"/><circle cx="717" cy="49" r="2.08" fill="rgba(180,240,255,0.18)"/><circle cx="253" cy="199" r="3.22" fill="rgba(180,240,255,0.41)"/><circle cx="259" cy="28" r="2.34" fill="rgba(180,240,255,0.26)"/><circle cx="238" cy="90" r="2.43" fill="rgba(180,240,255,0.21)"/><circle cx="184" cy="70" r="2.08" fill="rgba(180,240,255,0.19)"/><circle cx="294" cy="548" r="2.23" fill="rgba(180,240,255,0.22)"/><circle cx="1109" cy="646" r="2.82" fill="rgba(180,240,255,0.40)"/><circle cx="873" cy="188" r="1.98" fill="rgba(180,240,255,0.18)"/><circle cx="1038" cy="551" r="2.66" fill="rgba(180,240,255,0.26)"/><circle cx="734" cy="58" r="2.78" fill="rgba(180,240,255,0.38)"/><circle cx="189" cy="626" r="3.13" fill="rgba(180,240,255,0.26)"/><circle cx="1131" cy="488" r="2.18" fill="rgba(180,240,255,0.30)"/><circle cx="1023" cy="421" r="2.54" fill="rgba(180,240,255,0.26)"/><circle cx="811" cy="592" r="2.26" fill="rgba(180,240,255,0.37)"/><circle cx="866" cy="149" r="1.30" fill="rgba(180,240,255,0.38)"/><circle cx="879" cy="420" r="1.89" fill="rgba(180,240,255,0.43)"/><circle cx="1124" cy="563" r="1.16" fill="rgba(180,240,255,0.16)"/><circle cx="894" cy="341" r="2.22" fill="rgba(180,240,255,0.42)"/><circle cx="687" cy="40" r="2.00" fill="rgba(180,240,255,0.34)"/><circle cx="43" cy="115" r="2.71" fill="rgba(180,240,255,0.44)"/></g>
  <rect width="1200" height="675" fill="rgba(190,220,255,0.06)"/>
  <rect width="1200" height="675" filter="url(#grain-47)"/>
  <rect width="1200" height="675" fill="url(#vignette-47)"/>
  <rect x="20" y="20" width="1160" height="635" rx="32" fill="none" stroke="rgba(155,220,255,0.24)"/>
</svg>