<?xml version="1.0" encoding="UTF-8"?>
<svg xmlns="http://www.w3.org/2000/svg" width="1200" height="675" viewBox="0 0 1200 675" role="img" aria-label="AIGC fallback cover 90" data-scene="scene-10">
  <defs>
    <linearGradient id="bg-90" x1="0" y1="0" x2="1" y2="1">
      <stop offset="0%" stop-color="hsl(97, 82%, 16%)"/>
      <stop offset="52%" stop-color="hsl(150, 84%, 23%)"/>
      <stop offset="100%" stop-color="hsl(250, 78%, 12%)"/>
    </linearGradient>
    <filter id="blur-90" x="-25%" y="-25%" width="150%" height="150%">
      <feGaussianBlur stdDeviation="26"/>
    </filter>
    <filter id="soft-90" x="-25%" y="-25%" width="150%" height="150%">
      <feGaussianBlur stdDeviation="10"/>
    </filter>
    <filter id="grain-90" x="0%" y="0%" width="100%" height="100%">
      <feTurbulence type="fractalNoise" baseFrequency="0.9" numOctaves="2" seed="1170" stitchTiles="stitch"/>
      <feColorMatrix type="saturate" values="0"/>
      <feComponentTransfer>
        <feFuncA type="table" tableValues="0 0.05"/>
      </feComponentTransfer>
    </filter>
    <radialGradient id="vignette-90" cx="50%" cy="45%" r="70%">
      <stop offset="60%" stop-color="rgba(0,0,0,0)"/>
      <stop offset="100%" stop-color="rgba(0,0,0,0.45)"/>
    </radialGradient>
  </defs>

  <rect width="1200" height="675" fill="url(#bg-90)"/>
  <circle cx="965" cy="275" r="109" fill="hsl(97, 92%, 62%)" opacity="0.08" filter="url(#blur-90)"/><circle cx="698" cy="292" r="106" fill="hsl(123, 92%, 62%)" opacity="0.13" filter="url(#blur-90)"/><circle cx="821" cy="420" r="210" fill="hsl(149, 92%, 62%)" opacity="0.18" filter="url(#blur-90)"/>
  <circle cx="555" cy="377" r="27" fill="rgba(210,240,255,0.15)" filter="url(#soft-90)"/><circle cx="54" cy="243" r="62" fill="rgba(210,240,255,0.13)" filter="url(#soft-90)"/><circle cx="96" cy="264" r="42" fill="rgba(210,240,255,0.09)" filter="url(#soft-90)"/><circle cx="847" cy="117" r="23" fill="rgba(210,240,255,0.06)" filter="url(#soft-90)"/><circle cx="386" cy="449" r="51" fill="rgba(210,240,255,0.11)" filter="url(#soft-90)"/><circle cx="1157" cy="331" r="31" fill="rgba(210,240,255,0.12)" filter="url(#soft-90)"/><circle cx="821" cy="54" r="26" fill="rgba(210,240,255,0.09)" filter="url(#soft-90)"/><circle cx="621" cy="443" r="20" fill="rgba(210,240,255,0.16)" filter="url(#soft-90)"/>
  <polygon points="0,675 1200,675 1079,421 121,421" fill="rgba(8,16,28,0.35)"/>
  <g id="scene-robot-arms"><g><circle cx="411" cy="498" r="16" fill="rgba(120,215,255,0.75)"/><line x1="411" y1="498" x2="253" y2="338" stroke="rgba(145,235,255,0.62)" stroke-width="12" stroke-linecap="round"/><line x1="253" y1="338" x2="220" y2="178" stroke="rgba(120,255,220,0.6)" stroke-width="8" stroke-linecap="round"/><circle cx="253" cy="338" r="10" fill="rgba(150,245,255,0.8)"/><circle cx="220" cy="178" r="8" fill="rgba(120,255,220,0.86)"/></g><g><circle cx="678" cy="516" r="16" fill="rgba(120,215,255,0.75)"/><line x1="678" y1="516" x2="696" y2="287" stroke="rgba(145,235,255,0.62)" stroke-width="8" stroke-linecap="round"/><line x1="696" y1="287" x2="753" y2="169" stroke="rgba(120,255,220,0.6)" stroke-width="6" stroke-linecap="round"/><circle cx="696" cy="287" r="10" fill="rgba(150,245,255,0.8)"/><circle cx="753" cy="169" r="8" fill="rgba(120,255,220,0.86)"/></g><g><circle cx="875" cy="597" r="16" fill="rgba(120,215,255,0.75)"/><line x1="875" y1="597" x2="750" y2="393" stroke="rgba(145,235,255,0.62)" stroke-width="11" stroke-linecap="round"/><line x1="750" y1="393" x2="763" y2="312" stroke="rgba(120,255,220,0.6)" stroke-width="10" stroke-linecap="round"/><circle cx="750" cy="393" r="10" fill="rgba(150,245,255,0.8)"/><circle cx="763" cy="312" r="8" fill="rgba(120,255,220,0.86)"/></g><g><circle cx="957" cy="412" r="16" fill="rgba(120,215,255,0.75)"/><line x1="957" y1="412" x2="874" y2="213" stroke="rgba(145,235,255,0.62)" stroke-width="12" stroke-linecap="round"/><line x1="874" y1="213" x2="965" y2="150" stroke="rgba(120,255,220,0.6)" stroke-width="7" stroke-linecap="round"/><circle cx="874" cy="213" r="10" fill="rgba(150,245,255,0.8)"/><circle cx="965" cy="150" r="8" fill="rgba(120,255,220,0.86)"/></g></g>
  <g id="scene-sparkles"><circle cx="767" cy="352" r="2.18" fill="rgba(180,240,255,0.21)"/><circle cx="679" cy="482" r="3.35" fill="rgba(180,240,255,0.41)"/><circle cx="934" cy="150" r="1.39" fill="rgba(180,240,255,0.44)"/><circle cx="1084" cy="301" r="2.69" fill="rgba(180,240,255,0.24)"/><circle cx="897" cy="483" r="2.19" fill="rgba(180,240,255,0.26)"/><circle cx="657" cy="104" r="2.73" fill="rgba(180,240,255,0.15)"/><circle cx="369" cy="307" r="2.26" fill="rgba(180,240,255,0.28)"/><circle cx="427" cy="608" r="3.35" fill="rgba(180,240,255,0.27)"/><circle cx="903" cy="328" r="2.45" fill="rgba(180,240,255,0.36)"/><circle cx="948" cy="228" r="2.56" fill="rgba(180,240,255,0.26)"/><circle cx="1102" cy="111" r="2.53" fill="rgba(180,240,255,0.32)"/><circle cx="1117" cy="163" r="2.85" fill="rgba(180,240,255,0.21)"/><circle cx="240" cy="246" r="2.42" fill="rgba(180,240,255,0.34)"/><circle cx="250" cy="359" r="3.30" fill="rgba(180,240,255,0.34)"/><circle cx="607" cy="630" r="2.76" fill="rgba(180,240,255,0.33)"/><circle cx="389" cy="595" r="1.24" fill="rgba(180,240,255,0.29)"/><circle cx="862" cy="254" r="1.58" fill="rgba(180,240,255,0.44)"/><circle cx="700" cy="183" r="3.09" fill="rgba(180,240,255,0.32)"/></g>
  <rect width="1200" height="675" fill="rgba(190,220,255,0.06)"/>
  <rect width="1200" height="675" filter="url(#grain-90)"/>
  <rect width="1200" height="675" fill="url(#vignette-90)"/>
  <rect x="20" y="20" width="1160" height="635" rx="32" fill="none" stroke="rgba(155,220,255,0.24)"/>
</svg>