<?xml version="1.0" encoding="UTF-8"?>
<svg xmlns="http://www.w3.org/2000/svg" width="1200" height="675" viewBox="0 0 1200 675" role="img" aria-label="AIGC fallback cover 75" data-scene="scene-5">
  <defs>
    <linearGradient id="bg-75" x1="0" y1="0" x2="1" y2="1">
      <stop offset="0%" stop-color="hsl(220, 82%, 16%)"/>
      <stop offset="52%" stop-color="hsl(300, 84%, 23%)"/>
      <stop offset="100%" stop-color="hsl(44, 78%, 12%)"/>
    </linearGradient>
    <filter id="blur-75" x="-25%" y="-25%" width="150%" height="150%">
      <feGaussianBlur stdDeviation="26"/>
    </filter>
    <filter id="soft-75" x="-25%" y="-25%" width="150%" height="150%">
      <feGaussianBlur stdDeviation="10"/>
    </filter>
    <filter id="grain-75" x="0%" y="0%" width="100%" height="100%">
      <feTurbulence type="fractalNoise" baseFrequency="0.9" numOctaves="2" seed="975" stitchTiles="stitch"/>
      <feColorMatrix type="saturate" values="0"/>
      <feComponentTransfer>
        <feFuncA type="table" tableValues="0 0.05"/>
      </feComponentTransfer>
    </filter>
    <radialGradient id="vignette-75" cx="50%" cy="45%" r="70%">
      <stop offset="60%" stop-color="rgba(0,0,0,0)"/>
      <stop offset="100%" stop-color="rgba(0,0,0,0.45)"/>
    </radialGradient>
  </defs>

  <rect width="1200" height="675" fill="url(#bg-75)"/>
  <circle cx="478" cy="483" r="163" fill="hsl(220, 92%, 62%)" opacity="0.17" filter="url(#blur-75)"/><circle cx="375" cy="526" r="129" fill="hsl(246, 92%, 62%)" opacity="0.12" filter="url(#blur-75)"/><circle cx="232" cy="552" r="183" fill="hsl(272, 92%, 62%)" opacity="0.13" filter="url(#blur-75)"/>
  <circle cx="499" cy="401" r="26" fill="rgba(210,240,255,0.09)" filter="url(#soft-75)"/><circle cx="467" cy="140" r="37" fill="rgba(210,240,255,0.15)" filter="url(#soft-75)"/><circle cx="528" cy="82" r="57" fill="rgba(210,240,255,0.11)" filter="url(#soft-75)"/><circle cx="472" cy="118" r="44" fill="rgba(210,240,255,0.14)" filter="url(#soft-75)"/><circle cx="292" cy="49" r="46" fill="rgba(210,240,255,0.06)" filter="url(#soft-75)"/><circle cx="832" cy="155" r="25" fill="rgba(210,240,255,0.14)" filter="url(#soft-75)"/><circle cx="546" cy="210" r="29" fill="rgba(210,240,255,0.12)" filter="url(#soft-75)"/><circle cx="250" cy="47" r="22" fill="rgba(210,240,255,0.15)" filter="url(#soft-75)"/>
  <polygon points="0,675 1200,675 1125,386 75,386" fill="rgba(8,16,28,0.35)"/>
  <g id="scene-wave"><path d="M 0 405 C 83.75 363, 251.25 447, 335 405 S 586.25 363, 670 405" transform="translate(68,0) scale(2.213040201365948,1)" fill="none" stroke="rgba(132,236,255,0.25)" stroke-width="6"/><path d="M 0 350 C 51 319, 153 381, 204 350 S 357 319, 408 350" transform="translate(168,0) scale(1.2298128467286005,1)" fill="none" stroke="rgba(132,236,255,0.31)" stroke-width="3"/><path d="M 0 494 C 83 458, 249 530, 332 494 S 581 458, 664 494" transform="translate(30,0) scale(2.4277757889358327,1)" fill="none" stroke="rgba(132,236,255,0.19)" stroke-width="6"/><path d="M 0 171 C 65 125, 195 217, 260 171 S 455 125, 520 171" transform="translate(209,0) scale(1.4823861204553395,1)" fill="none" stroke="rgba(132,236,255,0.38)" stroke-width="5"/></g>
  <g id="scene-sparkles"><circle cx="635" cy="580" r="2.02" fill="rgba(180,240,255,0.22)"/><circle cx="856" cy="500" r="1.90" fill="rgba(180,240,255,0.29)"/><circle cx="630" cy="399" r="1.11" fill="rgba(180,240,255,0.21)"/><circle cx="623" cy="460" r="2.49" fill="rgba(180,240,255,0.18)"/><circle cx="872" cy="400" r="3.38" fill="rgba(180,240,255,0.35)"/><circle cx="728" cy="371" r="1.87" fill="rgba(180,240,255,0.31)"/><circle cx="284" cy="601" r="3.13" fill="rgba(180,240,255,0.44)"/><circle cx="115" cy="158" r="1.64" fill="rgba(180,240,255,0.22)"/><circle cx="297" cy="277" r="2.89" fill="rgba(180,240,255,0.26)"/><circle cx="28" cy="307" r="2.50" fill="rgba(180,240,255,0.28)"/><circle cx="38" cy="586" r="1.68" fill="rgba(180,240,255,0.43)"/><circle cx="204" cy="127" r="3.36" fill="rgba(180,240,255,0.16)"/><circle cx="520" cy="331" r="1.22" fill="rgba(180,240,255,0.28)"/><circle cx="1136" cy="83" r="3.10" fill="rgba(180,240,255,0.41)"/><circle cx="112" cy="429" r="1.84" fill="rgba(180,240,255,0.28)"/><circle cx="203" cy="170" r="2.70" fill="rgba(180,240,255,0.18)"/><circle cx="1151" cy="62" r="2.22" fill="rgba(180,240,255,0.37)"/><circle cx="338" cy="362" r="2.94" fill="rgba(180,240,255,0.20)"/><circle cx="177" cy="596" r="2.84" fill="rgba(180,240,255,0.40)"/><circle cx="1144" cy="415" r="3.10" fill="rgba(180,240,255,0.42)"/><circle cx="60" cy="147" r="1.44" fill="rgba(180,240,255,0.32)"/></g>
  <rect width="1200" height="675" fill="rgba(190,220,255,0.06)"/>
  <rect width="1200" height="675" filter="url(#grain-75)"/>
  <rect width="1200" height="675" fill="url(#vignette-75)"/>
  <rect x="20" y="20" width="1160" height="635" rx="32" fill="none" stroke="rgba(155,220,255,0.24)"/>
</svg>