<?xml version="1.0" encoding="UTF-8"?>
<svg xmlns="http://www.w3.org/2000/svg" width="1200" height="675" viewBox="0 0 1200 675" role="img" aria-label="AIGC fallback cover 40" data-scene="scene-10">
  <defs>
    <linearGradient id="bg-40" x1="0" y1="0" x2="1" y2="1">
      <stop offset="0%" stop-color="hsl(214, 82%, 16%)"/>
      <stop offset="52%" stop-color="hsl(285, 84%, 23%)"/>
      <stop offset="100%" stop-color="hsl(330, 78%, 12%)"/>
    </linearGradient>
    <filter id="blur-40" x="-25%" y="-25%" width="150%" height="150%">
      <feGaussianBlur stdDeviation="26"/>
    </filter>
    <filter id="soft-40" x="-25%" y="-25%" width="150%" height="150%">
      <feGaussianBlur stdDeviation="10"/>
    </filter>
    <filter id="grain-40" x="0%" y="0%" width="100%" height="100%">
      <feTurbulence type="fractalNoise" baseFrequency="0.9" numOctaves="2" seed="520" stitchTiles="stitch"/>
      <feColorMatrix type="saturate" values="0"/>
      <feComponentTransfer>
        <feFuncA type="table" tableValues="0 0.05"/>
      </feComponentTransfer>
    </filter>
    <radialGradient id="vignette-40" cx="50%" cy="45%" r="70%">
      <stop offset="60%" stop-color="rgba(0,0,0,0)"/>
      <stop offset="100%" stop-color="rgba(0,0,0,0.45)"/>
    </radialGradient>
  </defs>

  <rect width="1200" height="675" fill="url(#bg-40)"/>
  <circle cx="538" cy="418" r="160" fill="hsl(214, 92%, 62%)" opacity="0.12" filter="url(#blur-40)"/><circle cx="804" cy="115" r="190" fill="hsl(240, 92%, 62%)" opacity="0.16" filter="url(#blur-40)"/><circle cx="463" cy="283" r="112" fill="hsl(266, 92%, 62%)" opacity="0.15" filter="url(#blur-40)"/>
  <circle cx="337" cy="98" r="39" fill="rgba(210,240,255,0.15)" filter="url(#soft-40)"/><circle cx="187" cy="422" r="46" fill="rgba(210,240,255,0.16)" filter="url(#soft-40)"/><circle cx="48" cy="392" r="54" fill="rgba(210,240,255,0.16)" filter="url(#soft-40)"/><circle cx="596" cy="397" r="54" fill="rgba(210,240,255,0.10)" filter="url(#soft-40)"/><circle cx="471" cy="53" r="45" fill="rgba(210,240,255,0.14)" filter="url(#soft-40)"/><circle cx="291" cy="400" r="48" fill="rgba(210,240,255,0.14)" filter="url(#soft-40)"/><circle cx="585" cy="241" r="21" fill="rgba(210,240,255,0.11)" filter="url(#soft-40)"/><circle cx="225" cy="309" r="49" fill="rgba(210,240,255,0.12)" filter="url(#soft-40)"/><circle cx="219" cy="74" r="22" fill="rgba(210,240,255,0.09)" filter="url(#soft-40)"/>
  <polygon points="0,675 1200,675 1407,417 -207,417" fill="rgba(8,16,28,0.35)"/>
  <g id="scene-robot-arms"><g><circle cx="556" cy="392" r="16" fill="rgba(120,215,255,0.75)"/><line x1="556" y1="392" x2="474" y2="198" stroke="rgba(145,235,255,0.62)" stroke-width="9" stroke-linecap="round"/><line x1="474" y1="198" x2="484" y2="135" stroke="rgba(120,255,220,0.6)" stroke-width="9" stroke-linecap="round"/><circle cx="474" cy="198" r="10" fill="rgba(150,245,255,0.8)"/><circle cx="484" cy="135" r="8" fill="rgba(120,255,220,0.86)"/></g><g><circle cx="630" cy="528" r="16" fill="rgba(120,215,255,0.75)"/><line x1="630" y1="528" x2="533" y2="319" stroke="rgba(145,235,255,0.62)" stroke-width="9" stroke-linecap="round"/><line x1="533" y1="319" x2="610" y2="246" stroke="rgba(120,255,220,0.6)" stroke-width="7" stroke-linecap="round"/><circle cx="533" cy="319" r="10" fill="rgba(150,245,255,0.8)"/><circle cx="610" cy="246" r="8" fill="rgba(120,255,220,0.86)"/></g><g><circle cx="171" cy="528" r="16" fill="rgba(120,215,255,0.75)"/><line x1="171" y1="528" x2="287" y2="380" stroke="rgba(145,235,255,0.62)" stroke-width="13" stroke-linecap="round"/><line x1="287" y1="380" x2="308" y2="271" stroke="rgba(120,255,220,0.6)" stroke-width="7" stroke-linecap="round"/><circle cx="287" cy="380" r="10" fill="rgba(150,245,255,0.8)"/><circle cx="308" cy="271" r="8" fill="rgba(120,255,220,0.86)"/></g><g><circle cx="993" cy="448" r="16" fill="rgba(120,215,255,0.75)"/><line x1="993" y1="448" x2="1000" y2="277" stroke="rgba(145,235,255,0.62)" stroke-width="14" stroke-linecap="round"/><line x1="1000" y1="277" x2="1076" y2="211" stroke="rgba(120,255,220,0.6)" stroke-width="6" stroke-linecap="round"/><circle cx="1000" cy="277" r="10" fill="rgba(150,245,255,0.8)"/><circle cx="1076" cy="211" r="8" fill="rgba(120,255,220,0.86)"/></g></g>
  <g id="scene-sparkles"><circle cx="253" cy="609" r="2.77" fill="rgba(180,240,255,0.39)"/><circle cx="752" cy="508" r="2.82" fill="rgba(180,240,255,0.26)"/><circle cx="35" cy="490" r="2.05" fill="rgba(180,240,255,0.35)"/><circle cx="588" cy="269" r="1.73" fill="rgba(180,240,255,0.45)"/><circle cx="220" cy="99" r="1.25" fill="rgba(180,240,255,0.33)"/><circle cx="560" cy="528" r="2.22" fill="rgba(180,240,255,0.44)"/><circle cx="34" cy="140" r="2.40" fill="rgba(180,240,255,0.38)"/><circle cx="662" cy="506" r="2.12" fill="rgba(180,240,255,0.23)"/><circle cx="1164" cy="265" r="2.71" fill="rgba(180,240,255,0.28)"/><circle cx="1145" cy="651" r="3.30" fill="rgba(180,240,255,0.36)"/><circle cx="648" cy="320" r="1.75" fill="rgba(180,240,255,0.44)"/><circle cx="440" cy="208" r="2.06" fill="rgba(180,240,255,0.45)"/><circle cx="48" cy="599" r="3.25" fill="rgba(180,240,255,0.28)"/><circle cx="692" cy="233" r="1.93" fill="rgba(180,240,255,0.43)"/><circle cx="790" cy="80" r="1.25" fill="rgba(180,240,255,0.36)"/><circle cx="906" cy="128" r="1.29" fill="rgba(180,240,255,0.27)"/><circle cx="950" cy="118" r="2.30" fill="rgba(180,240,255,0.31)"/><circle cx="30" cy="619" r="1.85" fill="rgba(180,240,255,0.44)"/><circle cx="682" cy="524" r="3.18" fill="rgba(180,240,255,0.26)"/></g>
  <rect width="1200" height="675" fill="rgba(190,220,255,0.06)"/>
  <rect width="1200" height="675" filter="url(#grain-40)"/>
  <rect width="1200" height="675" fill="url(#vignette-40)"/>
  <rect x="20" y="20" width="1160" height="635" rx="32" fill="none" stroke="rgba(155,220,255,0.24)"/>
</svg>