<?xml version="1.0" encoding="UTF-8"?>
<svg xmlns="http://www.w3.org/2000/svg" width="1200" height="675" viewBox="0 0 1200 675" role="img" aria-label="AIGC fallback cover 63" data-scene="scene-3">
  <defs>
    <linearGradient id="bg-63" x1="0" y1="0" x2="1" y2="1">
      <stop offset="0%" stop-color="hsl(67, 82%, 16%)"/>
      <stop offset="52%" stop-color="hsl(105, 84%, 23%)"/>
      <stop offset="100%" stop-color="hsl(256, 78%, 12%)"/>
    </linearGradient>
    <filter id="blur-63" x="-25%" y="-25%" width="150%" height="150%">
      <feGaussianBlur stdDeviation="26"/>
    </filter>
    <filter id="soft-63" x="-25%" y="-25%" width="150%" height="150%">
      <feGaussianBlur stdDeviation="10"/>
    </filter>
    <filter id="grain-63" x="0%" y="0%" width="100%" height="100%">
      <feTurbulence type="fractalNoise" baseFrequency="0.9" numOctaves="2" seed="819" stitchTiles="stitch"/>
      <feColorMatrix type="saturate" values="0"/>
      <feComponentTransfer>
        <feFuncA type="table" tableValues="0 0.05"/>
      </feComponentTransfer>
    </filter>
    <radialGradient id="vignette-63" cx="50%" cy="45%" r="70%">
      <stop offset="60%" stop-color="rgba(0,0,0,0)"/>
      <stop offset="100%" stop-color="rgba(0,0,0,0.45)"/>
    </radialGradient>
  </defs>

  <rect width="1200" height="675" fill="url(#bg-63)"/>
  <circle cx="633" cy="147" r="121" fill="hsl(67, 92%, 62%)" opacity="0.13" filter="url(#blur-63)"/><circle cx="766" cy="286" r="183" fill="hsl(93, 92%, 62%)" opacity="0.15" filter="url(#blur-63)"/><circle cx="173" cy="426" r="116" fill="hsl(119, 92%, 62%)" opacity="0.13" filter="url(#blur-63)"/>
  <circle cx="120" cy="74" r="45" fill="rgba(210,240,255,0.07)" filter="url(#soft-63)"/><circle cx="758" cy="150" r="46" fill="rgba(210,240,255,0.10)" filter="url(#soft-63)"/><circle cx="1019" cy="273" r="23" fill="rgba(210,240,255,0.11)" filter="url(#soft-63)"/><circle cx="119" cy="368" r="54" fill="rgba(210,240,255,0.11)" filter="url(#soft-63)"/><circle cx="1001" cy="317" r="36" fill="rgba(210,240,255,0.09)" filter="url(#soft-63)"/><circle cx="328" cy="58" r="53" fill="rgba(210,240,255,0.11)" filter="url(#soft-63)"/><circle cx="88" cy="166" r="32" fill="rgba(210,240,255,0.14)" filter="url(#soft-63)"/><circle cx="355" cy="134" r="67" fill="rgba(210,240,255,0.11)" filter="url(#soft-63)"/><circle cx="267" cy="203" r="36" fill="rgba(210,240,255,0.13)" filter="url(#soft-63)"/><circle cx="837" cy="252" r="70" fill="rgba(210,240,255,0.10)" filter="url(#soft-63)"/>
  <polygon points="0,675 1200,675 1298,362 -98,362" fill="rgba(8,16,28,0.35)"/>
  <g id="scene-datacenter"><g><rect x="70" y="193" width="121" height="454" rx="10" fill="rgba(10,20,42,0.58)" stroke="rgba(130,190,255,0.45)"/><rect x="99" y="564" width="21" height="6" rx="3" fill="rgba(102,245,220,0.8)"/><rect x="160" y="277" width="23" height="6" rx="3" fill="rgba(102,245,220,0.8)"/><rect x="172" y="411" width="16" height="6" rx="3" fill="rgba(102,245,220,0.8)"/><rect x="130" y="438" width="24" height="6" rx="3" fill="rgba(102,245,220,0.8)"/><rect x="135" y="267" width="34" height="6" rx="3" fill="rgba(102,245,220,0.8)"/><rect x="91" y="454" width="23" height="6" rx="3" fill="rgba(102,245,220,0.8)"/><rect x="149" y="303" width="20" height="6" rx="3" fill="rgba(102,245,220,0.8)"/></g><g><rect x="213" y="311" width="88" height="334" rx="10" fill="rgba(10,20,42,0.58)" stroke="rgba(130,190,255,0.45)"/><rect x="272" y="422" width="16" height="6" rx="3" fill="rgba(102,245,220,0.8)"/><rect x="235" y="605" width="25" height="6" rx="3" fill="rgba(102,245,220,0.8)"/><rect x="254" y="358" width="28" height="6" rx="3" fill="rgba(102,245,220,0.8)"/><rect x="276" y="482" width="28" height="6" rx="3" fill="rgba(102,245,220,0.8)"/><rect x="282" y="343" width="16" height="6" rx="3" fill="rgba(102,245,220,0.8)"/><rect x="240" y="439" width="27" height="6" rx="3" fill="rgba(102,245,220,0.8)"/><rect x="239" y="465" width="17" height="6" rx="3" fill="rgba(102,245,220,0.8)"/><rect x="267" y="473" width="25" height="6" rx="3" fill="rgba(102,245,220,0.8)"/><rect x="245" y="377" width="32" height="6" rx="3" fill="rgba(102,245,220,0.8)"/></g><g><rect x="316" y="262" width="93" height="372" rx="10" fill="rgba(10,20,42,0.58)" stroke="rgba(130,190,255,0.45)"/><rect x="378" y="416" width="18" height="6" rx="3" fill="rgba(102,245,220,0.8)"/><rect x="350" y="554" width="33" height="6" rx="3" fill="rgba(102,245,220,0.8)"/><rect x="384" y="465" width="28" height="6" rx="3" fill="rgba(102,245,220,0.8)"/><rect x="373" y="519" width="25" height="6" rx="3" fill="rgba(102,245,220,0.8)"/><rect x="386" y="554" width="18" height="6" rx="3" fill="rgba(102,245,220,0.8)"/><rect x="343" y="479" width="30" height="6" rx="3" fill="rgba(102,245,220,0.8)"/></g><g><rect x="556" y="317" width="130" height="329" rx="10" fill="rgba(10,20,42,0.58)" stroke="rgba(130,190,255,0.45)"/><rect x="646" y="515" width="26" height="6" rx="3" fill="rgba(102,245,220,0.8)"/><rect x="607" y="501" width="25" height="6" rx="3" fill="rgba(102,245,220,0.8)"/><rect x="611" y="557" width="32" height="6" rx="3" fill="rgba(102,245,220,0.8)"/><rect x="625" y="570" width="20" height="6" rx="3" fill="rgba(102,245,220,0.8)"/><rect x="587" y="548" width="21" height="6" rx="3" fill="rgba(102,245,220,0.8)"/><rect x="592" y="398" width="33" height="6" rx="3" fill="rgba(102,245,220,0.8)"/><rect x="665" y="376" width="24" height="6" rx="3" fill="rgba(102,245,220,0.8)"/><rect x="627" y="610" width="31" height="6" rx="3" fill="rgba(102,245,220,0.8)"/><rect x="656" y="549" width="16" height="6" rx="3" fill="rgba(102,245,220,0.8)"/><rect x="653" y="523" width="24" height="6" rx="3" fill="rgba(102,245,220,0.8)"/><rect x="636" y="577" width="25" height="6" rx="3" fill="rgba(102,245,220,0.8)"/></g><g><rect x="678" y="345" width="108" height="301" rx="10" fill="rgba(10,20,42,0.58)" stroke="rgba(130,190,255,0.45)"/><rect x="744" y="440" width="20" height="6" rx="3" fill="rgba(102,245,220,0.8)"/><rect x="724" y="463" width="31" height="6" rx="3" fill="rgba(102,245,220,0.8)"/><rect x="700" y="469" width="25" height="6" rx="3" fill="rgba(102,245,220,0.8)"/><rect x="710" y="385" width="23" height="6" rx="3" fill="rgba(102,245,220,0.8)"/><rect x="746" y="598" width="27" height="6" rx="3" fill="rgba(102,245,220,0.8)"/></g><g><rect x="700" y="341" width="121" height="301" rx="10" fill="rgba(10,20,42,0.58)" stroke="rgba(130,190,255,0.45)"/><rect x="746" y="583" width="30" height="6" rx="3" fill="rgba(102,245,220,0.8)"/><rect x="742" y="504" width="33" height="6" rx="3" fill="rgba(102,245,220,0.8)"/><rect x="733" y="484" width="28" height="6" rx="3" fill="rgba(102,245,220,0.8)"/><rect x="798" y="536" width="32" height="6" rx="3" fill="rgba(102,245,220,0.8)"/><rect x="720" y="480" width="23" height="6" rx="3" fill="rgba(102,245,220,0.8)"/></g></g>
  <g id="scene-sparkles"><circle cx="1083" cy="586" r="1.52" fill="rgba(180,240,255,0.39)"/><circle cx="770" cy="563" r="1.24" fill="rgba(180,240,255,0.42)"/><circle cx="240" cy="162" r="1.75" fill="rgba(180,240,255,0.23)"/><circle cx="434" cy="225" r="1.64" fill="rgba(180,240,255,0.16)"/><circle cx="1120" cy="554" r="2.30" fill="rgba(180,240,255,0.15)"/><circle cx="395" cy="345" r="2.44" fill="rgba(180,240,255,0.17)"/><circle cx="694" cy="87" r="2.19" fill="rgba(180,240,255,0.42)"/><circle cx="462" cy="371" r="2.18" fill="rgba(180,240,255,0.19)"/><circle cx="926" cy="464" r="1.49" fill="rgba(180,240,255,0.34)"/><circle cx="1096" cy="134" r="1.69" fill="rgba(180,240,255,0.29)"/><circle cx="542" cy="210" r="1.57" fill="rgba(180,240,255,0.28)"/><circle cx="904" cy="201" r="1.12" fill="rgba(180,240,255,0.18)"/><circle cx="557" cy="333" r="2.79" fill="rgba(180,240,255,0.34)"/><circle cx="1102" cy="223" r="1.31" fill="rgba(180,240,255,0.19)"/><circle cx="460" cy="640" r="2.92" fill="rgba(180,240,255,0.33)"/><circle cx="695" cy="524" r="3.05" fill="rgba(180,240,255,0.41)"/><circle cx="638" cy="216" r="2.69" fill="rgba(180,240,255,0.18)"/><circle cx="1143" cy="525" r="1.68" fill="rgba(180,240,255,0.33)"/><circle cx="534" cy="382" r="1.81" fill="rgba(180,240,255,0.31)"/><circle cx="134" cy="188" r="3.19" fill="rgba(180,240,255,0.22)"/><circle cx="649" cy="570" r="2.17" fill="rgba(180,240,255,0.38)"/></g>
  <rect width="1200" height="675" fill="rgba(190,220,255,0.06)"/>
  <rect width="1200" height="675" filter="url(#grain-63)"/>
  <rect width="1200" height="675" fill="url(#vignette-63)"/>
  <rect x="20" y="20" width="1160" height="635" rx="32" fill="none" stroke="rgba(155,220,255,0.24)"/>
</svg>