<?xml version="1.0" encoding="UTF-8"?>
<svg xmlns="http://www.w3.org/2000/svg" width="1200" height="675" viewBox="0 0 1200 675" role="img" aria-label="AIGC fallback cover 96" data-scene="scene-6">
  <defs>
    <linearGradient id="bg-96" x1="0" y1="0" x2="1" y2="1">
      <stop offset="0%" stop-color="hsl(343, 82%, 16%)"/>
      <stop offset="52%" stop-color="hsl(37, 84%, 23%)"/>
      <stop offset="100%" stop-color="hsl(116, 78%, 12%)"/>
    </linearGradient>
    <filter id="blur-96" x="-25%" y="-25%" width="150%" height="150%">
      <feGaussianBlur stdDeviation="26"/>
    </filter>
    <filter id="soft-96" x="-25%" y="-25%" width="150%" height="150%">
      <feGaussianBlur stdDeviation="10"/>
    </filter>
    <filter id="grain-96" x="0%" y="0%" width="100%" height="100%">
      <feTurbulence type="fractalNoise" baseFrequency="0.9" numOctaves="2" seed="1248" stitchTiles="stitch"/>
      <feColorMatrix type="saturate" values="0"/>
      <feComponentTransfer>
        <feFuncA type="table" tableValues="0 0.05"/>
      </feComponentTransfer>
    </filter>
    <radialGradient id="vignette-96" cx="50%" cy="45%" r="70%">
      <stop offset="60%" stop-color="rgba(0,0,0,0)"/>
      <stop offset="100%" stop-color="rgba(0,0,0,0.45)"/>
    </radialGradient>
  </defs>

  <rect width="1200" height="675" fill="url(#bg-96)"/>
  <circle cx="323" cy="488" r="122" fill="hsl(343, 92%, 62%)" opacity="0.10" filter="url(#blur-96)"/><circle cx="309" cy="119" r="162" fill="hsl(369, 92%, 62%)" opacity="0.09" filter="url(#blur-96)"/><circle cx="306" cy="579" r="155" fill="hsl(395, 92%, 62%)" opacity="0.12" filter="url(#blur-96)"/>
  <circle cx="1158" cy="121" r="49" fill="rgba(210,240,255,0.08)" filter="url(#soft-96)"/><circle cx="655" cy="219" r="63" fill="rgba(210,240,255,0.15)" filter="url(#soft-96)"/><circle cx="436" cy="280" r="62" fill="rgba(210,240,255,0.11)" filter="url(#soft-96)"/><circle cx="1029" cy="255" r="68" fill="rgba(210,240,255,0.07)" filter="url(#soft-96)"/><circle cx="854" cy="209" r="43" fill="rgba(210,240,255,0.15)" filter="url(#soft-96)"/><circle cx="856" cy="397" r="59" fill="rgba(210,240,255,0.14)" filter="url(#soft-96)"/><circle cx="209" cy="402" r="45" fill="rgba(210,240,255,0.09)" filter="url(#soft-96)"/><circle cx="1153" cy="240" r="22" fill="rgba(210,240,255,0.11)" filter="url(#soft-96)"/>
  <polygon points="0,675 1200,675 1297,361 -97,361" fill="rgba(8,16,28,0.35)"/>
  <g id="scene-cloud-pipeline"><g><circle cx="911" cy="195" r="35" fill="rgba(180,220,255,0.42)"/><circle cx="939" cy="192" r="25" fill="rgba(180,220,255,0.36)"/><rect x="889" y="203" width="76" height="22" rx="11" fill="rgba(170,220,255,0.3)"/></g><g><circle cx="963" cy="223" r="28" fill="rgba(180,220,255,0.42)"/><circle cx="993" cy="216" r="29" fill="rgba(180,220,255,0.36)"/><rect x="941" y="231" width="110" height="22" rx="11" fill="rgba(170,220,255,0.3)"/></g><g><circle cx="711" cy="90" r="29" fill="rgba(180,220,255,0.42)"/><circle cx="742" cy="90" r="31" fill="rgba(180,220,255,0.36)"/><rect x="689" y="98" width="77" height="22" rx="11" fill="rgba(170,220,255,0.3)"/></g><g><circle cx="934" cy="124" r="31" fill="rgba(180,220,255,0.42)"/><circle cx="970" cy="121" r="32" fill="rgba(180,220,255,0.36)"/><rect x="912" y="132" width="100" height="22" rx="11" fill="rgba(170,220,255,0.3)"/></g><path d="M 123 166 h 78 v 25 h 79" fill="none" stroke="rgba(120,255,210,0.34)" stroke-width="5" stroke-linecap="round"/><path d="M 654 331 h 33 v 62 h 109" fill="none" stroke="rgba(120,255,210,0.34)" stroke-width="7" stroke-linecap="round"/><path d="M 544 539 h 90 v 89 h 70" fill="none" stroke="rgba(120,255,210,0.34)" stroke-width="5" stroke-linecap="round"/><path d="M 250 420 h 42 v 97 h -129" fill="none" stroke="rgba(120,255,210,0.34)" stroke-width="8" stroke-linecap="round"/><path d="M 279 302 h 94 v 30 h -27" fill="none" stroke="rgba(120,255,210,0.34)" stroke-width="6" stroke-linecap="round"/><path d="M 1076 410 h 114 v 22 h 103" fill="none" stroke="rgba(120,255,210,0.34)" stroke-width="5" stroke-linecap="round"/><path d="M 1050 317 h 39 v 66 h -63" fill="none" stroke="rgba(120,255,210,0.34)" stroke-width="4" stroke-linecap="round"/><path d="M 723 453 h 73 v 68 h -130" fill="none" stroke="rgba(120,255,210,0.34)" stroke-width="5" stroke-linecap="round"/><path d="M 367 471 h 130 v 93 h -53" fill="none" stroke="rgba(120,255,210,0.34)" stroke-width="4" stroke-linecap="round"/><path d="M 846 468 h 78 v 74 h 112" fill="none" stroke="rgba(120,255,210,0.34)" stroke-width="4" stroke-linecap="round"/><path d="M 524 333 h 95 v 61 h -22" fill="none" stroke="rgba(120,255,210,0.34)" stroke-width="8" stroke-linecap="round"/></g>
  <g id="scene-sparkles"><circle cx="57" cy="93" r="2.31" fill="rgba(180,240,255,0.21)"/><circle cx="293" cy="647" r="1.12" fill="rgba(180,240,255,0.26)"/><circle cx="704" cy="300" r="2.43" fill="rgba(180,240,255,0.30)"/><circle cx="352" cy="573" r="2.48" fill="rgba(180,240,255,0.45)"/><circle cx="337" cy="168" r="1.65" fill="rgba(180,240,255,0.20)"/><circle cx="928" cy="171" r="1.91" fill="rgba(180,240,255,0.36)"/><circle cx="361" cy="442" r="2.83" fill="rgba(180,240,255,0.18)"/><circle cx="191" cy="376" r="1.71" fill="rgba(180,240,255,0.38)"/><circle cx="547" cy="369" r="1.33" fill="rgba(180,240,255,0.32)"/><circle cx="374" cy="333" r="1.10" fill="rgba(180,240,255,0.26)"/><circle cx="47" cy="642" r="2.67" fill="rgba(180,240,255,0.23)"/><circle cx="792" cy="177" r="3.06" fill="rgba(180,240,255,0.19)"/><circle cx="349" cy="129" r="1.80" fill="rgba(180,240,255,0.22)"/><circle cx="863" cy="42" r="2.12" fill="rgba(180,240,255,0.40)"/><circle cx="33" cy="147" r="1.40" fill="rgba(180,240,255,0.21)"/><circle cx="508" cy="635" r="1.64" fill="rgba(180,240,255,0.38)"/><circle cx="788" cy="466" r="3.03" fill="rgba(180,240,255,0.28)"/><circle cx="973" cy="182" r="3.00" fill="rgba(180,240,255,0.39)"/><circle cx="214" cy="587" r="3.37" fill="rgba(180,240,255,0.39)"/><circle cx="21" cy="476" r="2.24" fill="rgba(180,240,255,0.31)"/></g>
  <rect width="1200" height="675" fill="rgba(190,220,255,0.06)"/>
  <rect width="1200" height="675" filter="url(#grain-96)"/>
  <rect width="1200" height="675" fill="url(#vignette-96)"/>
  <rect x="20" y="20" width="1160" height="635" rx="32" fill="none" stroke="rgba(155,220,255,0.24)"/>
</svg>