<?xml version="1.0" encoding="UTF-8"?>
<svg xmlns="http://www.w3.org/2000/svg" width="1200" height="675" viewBox="0 0 1200 675" role="img" aria-label="AIGC fallback cover 13" data-scene="scene-3">
  <defs>
    <linearGradient id="bg-13" x1="0" y1="0" x2="1" y2="1">
      <stop offset="0%" stop-color="hsl(205, 82%, 16%)"/>
      <stop offset="52%" stop-color="hsl(271, 84%, 23%)"/>
      <stop offset="100%" stop-color="hsl(31, 78%, 12%)"/>
    </linearGradient>
    <filter id="blur-13" x="-25%" y="-25%" width="150%" height="150%">
      <feGaussianBlur stdDeviation="26"/>
    </filter>
    <filter id="soft-13" x="-25%" y="-25%" width="150%" height="150%">
      <feGaussianBlur stdDeviation="10"/>
    </filter>
    <filter id="grain-13" x="0%" y="0%" width="100%" height="100%">
      <feTurbulence type="fractalNoise" baseFrequency="0.9" numOctaves="2" seed="169" stitchTiles="stitch"/>
      <feColorMatrix type="saturate" values="0"/>
      <feComponentTransfer>
        <feFuncA type="table" tableValues="0 0.05"/>
      </feComponentTransfer>
    </filter>
    <radialGradient id="vignette-13" cx="50%" cy="45%" r="70%">
      <stop offset="60%" stop-color="rgba(0,0,0,0)"/>
      <stop offset="100%" stop-color="rgba(0,0,0,0.45)"/>
    </radialGradient>
  </defs>

  <rect width="1200" height="675" fill="url(#bg-13)"/>
  <circle cx="688" cy="384" r="182" fill="hsl(205, 92%, 62%)" opacity="0.09" filter="url(#blur-13)"/><circle cx="106" cy="536" r="116" fill="hsl(231, 92%, 62%)" opacity="0.17" filter="url(#blur-13)"/><circle cx="830" cy="403" r="134" fill="hsl(257, 92%, 62%)" opacity="0.11" filter="url(#blur-13)"/>
  <circle cx="354" cy="229" r="35" fill="rgba(210,240,255,0.13)" filter="url(#soft-13)"/><circle cx="283" cy="269" r="70" fill="rgba(210,240,255,0.15)" filter="url(#soft-13)"/><circle cx="1040" cy="307" r="67" fill="rgba(210,240,255,0.07)" filter="url(#soft-13)"/><circle cx="594" cy="282" r="39" fill="rgba(210,240,255,0.09)" filter="url(#soft-13)"/><circle cx="88" cy="179" r="24" fill="rgba(210,240,255,0.09)" filter="url(#soft-13)"/><circle cx="435" cy="440" r="30" fill="rgba(210,240,255,0.14)" filter="url(#soft-13)"/><circle cx="1157" cy="436" r="22" fill="rgba(210,240,255,0.06)" filter="url(#soft-13)"/><circle cx="125" cy="86" r="40" fill="rgba(210,240,255,0.14)" filter="url(#soft-13)"/><circle cx="483" cy="262" r="50" fill="rgba(210,240,255,0.08)" filter="url(#soft-13)"/><circle cx="488" cy="407" r="58" fill="rgba(210,240,255,0.10)" filter="url(#soft-13)"/>
  <polygon points="0,675 1200,675 1030,433 170,433" fill="rgba(8,16,28,0.35)"/>
  <g id="scene-datacenter"><g><rect x="70" y="246" width="99" height="388" rx="10" fill="rgba(10,20,42,0.58)" stroke="rgba(130,190,255,0.45)"/><rect x="108" y="496" width="27" height="6" rx="3" fill="rgba(102,245,220,0.8)"/><rect x="96" y="579" width="20" height="6" rx="3" fill="rgba(102,245,220,0.8)"/><rect x="131" y="503" width="27" height="6" rx="3" fill="rgba(102,245,220,0.8)"/><rect x="136" y="582" width="24" height="6" rx="3" fill="rgba(102,245,220,0.8)"/><rect x="114" y="459" width="33" height="6" rx="3" fill="rgba(102,245,220,0.8)"/><rect x="117" y="403" width="16" height="6" rx="3" fill="rgba(102,245,220,0.8)"/><rect x="91" y="306" width="19" height="6" rx="3" fill="rgba(102,245,220,0.8)"/><rect x="147" y="546" width="23" height="6" rx="3" fill="rgba(102,245,220,0.8)"/></g><g><rect x="200" y="303" width="104" height="338" rx="10" fill="rgba(10,20,42,0.58)" stroke="rgba(130,190,255,0.45)"/><rect x="230" y="386" width="27" height="6" rx="3" fill="rgba(102,245,220,0.8)"/><rect x="239" y="340" width="29" height="6" rx="3" fill="rgba(102,245,220,0.8)"/><rect x="282" y="446" width="20" height="6" rx="3" fill="rgba(102,245,220,0.8)"/><rect x="231" y="386" width="33" height="6" rx="3" fill="rgba(102,245,220,0.8)"/><rect x="267" y="428" width="23" height="6" rx="3" fill="rgba(102,245,220,0.8)"/><rect x="227" y="538" width="28" height="6" rx="3" fill="rgba(102,245,220,0.8)"/></g><g><rect x="378" y="177" width="128" height="459" rx="10" fill="rgba(10,20,42,0.58)" stroke="rgba(130,190,255,0.45)"/><rect x="433" y="208" width="21" height="6" rx="3" fill="rgba(102,245,220,0.8)"/><rect x="419" y="225" width="26" height="6" rx="3" fill="rgba(102,245,220,0.8)"/><rect x="442" y="345" width="16" height="6" rx="3" fill="rgba(102,245,220,0.8)"/><rect x="443" y="297" width="16" height="6" rx="3" fill="rgba(102,245,220,0.8)"/><rect x="398" y="235" width="23" height="6" rx="3" fill="rgba(102,245,220,0.8)"/><rect x="482" y="366" width="22" height="6" rx="3" fill="rgba(102,245,220,0.8)"/><rect x="450" y="605" width="17" height="6" rx="3" fill="rgba(102,245,220,0.8)"/></g><g><rect x="544" y="297" width="96" height="328" rx="10" fill="rgba(10,20,42,0.58)" stroke="rgba(130,190,255,0.45)"/><rect x="564" y="598" width="20" height="6" rx="3" fill="rgba(102,245,220,0.8)"/><rect x="621" y="438" width="29" height="6" rx="3" fill="rgba(102,245,220,0.8)"/><rect x="586" y="544" width="28" height="6" rx="3" fill="rgba(102,245,220,0.8)"/><rect x="571" y="534" width="25" height="6" rx="3" fill="rgba(102,245,220,0.8)"/><rect x="615" y="458" width="29" height="6" rx="3" fill="rgba(102,245,220,0.8)"/></g><g><rect x="574" y="290" width="125" height="354" rx="10" fill="rgba(10,20,42,0.58)" stroke="rgba(130,190,255,0.45)"/><rect x="661" y="556" width="26" height="6" rx="3" fill="rgba(102,245,220,0.8)"/><rect x="678" y="440" width="30" height="6" rx="3" fill="rgba(102,245,220,0.8)"/><rect x="602" y="573" width="23" height="6" rx="3" fill="rgba(102,245,220,0.8)"/><rect x="635" y="344" width="24" height="6" rx="3" fill="rgba(102,245,220,0.8)"/><rect x="639" y="612" width="26" height="6" rx="3" fill="rgba(102,245,220,0.8)"/><rect x="601" y="342" width="31" height="6" rx="3" fill="rgba(102,245,220,0.8)"/><rect x="644" y="383" width="28" height="6" rx="3" fill="rgba(102,245,220,0.8)"/><rect x="681" y="406" width="31" height="6" rx="3" fill="rgba(102,245,220,0.8)"/><rect x="675" y="346" width="31" height="6" rx="3" fill="rgba(102,245,220,0.8)"/></g><g><rect x="715" y="285" width="112" height="355" rx="10" fill="rgba(10,20,42,0.58)" stroke="rgba(130,190,255,0.45)"/><rect x="790" y="400" width="18" height="6" rx="3" fill="rgba(102,245,220,0.8)"/><rect x="803" y="507" width="20" height="6" rx="3" fill="rgba(102,245,220,0.8)"/><rect x="803" y="462" width="25" height="6" rx="3" fill="rgba(102,245,220,0.8)"/><rect x="751" y="591" width="24" height="6" rx="3" fill="rgba(102,245,220,0.8)"/><rect x="780" y="599" width="34" height="6" rx="3" fill="rgba(102,245,220,0.8)"/><rect x="803" y="411" width="20" height="6" rx="3" fill="rgba(102,245,220,0.8)"/><rect x="751" y="368" width="24" height="6" rx="3" fill="rgba(102,245,220,0.8)"/><rect x="809" y="549" width="17" height="6" rx="3" fill="rgba(102,245,220,0.8)"/><rect x="766" y="498" width="30" height="6" rx="3" fill="rgba(102,245,220,0.8)"/><rect x="758" y="364" width="25" height="6" rx="3" fill="rgba(102,245,220,0.8)"/><rect x="799" y="409" width="27" height="6" rx="3" fill="rgba(102,245,220,0.8)"/></g><g><rect x="868" y="181" width="91" height="463" rx="10" fill="rgba(10,20,42,0.58)" stroke="rgba(130,190,255,0.45)"/><rect x="941" y="427" width="28" height="6" rx="3" fill="rgba(102,245,220,0.8)"/><rect x="932" y="242" width="31" height="6" rx="3" fill="rgba(102,245,220,0.8)"/><rect x="911" y="408" width="26" height="6" rx="3" fill="rgba(102,245,220,0.8)"/><rect x="923" y="598" width="23" height="6" rx="3" fill="rgba(102,245,220,0.8)"/><rect x="909" y="371" width="29" height="6" rx="3" fill="rgba(102,245,220,0.8)"/><rect x="891" y="436" width="25" height="6" rx="3" fill="rgba(102,245,220,0.8)"/><rect x="927" y="305" width="23" height="6" rx="3" fill="rgba(102,245,220,0.8)"/><rect x="898" y="481" width="24" height="6" rx="3" fill="rgba(102,245,220,0.8)"/><rect x="921" y="308" width="20" height="6" rx="3" fill="rgba(102,245,220,0.8)"/><rect x="886" y="282" width="26" height="6" rx="3" fill="rgba(102,245,220,0.8)"/><rect x="934" y="437" width="30" height="6" rx="3" fill="rgba(102,245,220,0.8)"/></g><g><rect x="1057" y="228" width="105" height="418" rx="10" fill="rgba(10,20,42,0.58)" stroke="rgba(130,190,255,0.45)"/><rect x="1111" y="389" width="30" height="6" rx="3" fill="rgba(102,245,220,0.8)"/><rect x="1118" y="263" width="22" height="6" rx="3" fill="rgba(102,245,220,0.8)"/><rect x="1090" y="400" width="32" height="6" rx="3" fill="rgba(102,245,220,0.8)"/><rect x="1082" y="559" width="29" height="6" rx="3" fill="rgba(102,245,220,0.8)"/><rect x="1090" y="393" width="31" height="6" rx="3" fill="rgba(102,245,220,0.8)"/><rect x="1093" y="264" width="24" height="6" rx="3" fill="rgba(102,245,220,0.8)"/></g></g>
  <g id="scene-sparkles"><circle cx="1035" cy="336" r="2.66" fill="rgba(180,240,255,0.44)"/><circle cx="342" cy="422" r="2.12" fill="rgba(180,240,255,0.19)"/><circle cx="258" cy="304" r="1.20" fill="rgba(180,240,255,0.30)"/><circle cx="218" cy="389" r="3.18" fill="rgba(180,240,255,0.32)"/><circle cx="862" cy="117" r="2.89" fill="rgba(180,240,255,0.35)"/><circle cx="930" cy="587" r="2.56" fill="rgba(180,240,255,0.29)"/><circle cx="628" cy="450" r="1.13" fill="rgba(180,240,255,0.21)"/><circle cx="637" cy="519" r="2.21" fill="rgba(180,240,255,0.31)"/><circle cx="371" cy="441" r="1.75" fill="rgba(180,240,255,0.26)"/><circle cx="1094" cy="204" r="1.13" fill="rgba(180,240,255,0.44)"/><circle cx="816" cy="553" r="1.13" fill="rgba(180,240,255,0.17)"/><circle cx="452" cy="46" r="2.14" fill="rgba(180,240,255,0.25)"/><circle cx="704" cy="262" r="2.91" fill="rgba(180,240,255,0.24)"/><circle cx="191" cy="161" r="3.22" fill="rgba(180,240,255,0.30)"/><circle cx="375" cy="114" r="2.21" fill="rgba(180,240,255,0.16)"/><circle cx="616" cy="243" r="2.87" fill="rgba(180,240,255,0.30)"/><circle cx="370" cy="373" r="1.29" fill="rgba(180,240,255,0.43)"/><circle cx="774" cy="530" r="1.50" fill="rgba(180,240,255,0.38)"/><circle cx="676" cy="473" r="3.03" fill="rgba(180,240,255,0.17)"/><circle cx="825" cy="276" r="1.29" fill="rgba(180,240,255,0.28)"/><circle cx="741" cy="188" r="1.89" fill="rgba(180,240,255,0.41)"/></g>
  <rect width="1200" height="675" fill="rgba(190,220,255,0.06)"/>
  <rect width="1200" height="675" filter="url(#grain-13)"/>
  <rect width="1200" height="675" fill="url(#vignette-13)"/>
  <rect x="20" y="20" width="1160" height="635" rx="32" fill="none" stroke="rgba(155,220,255,0.24)"/>
</svg>