<?xml version="1.0" encoding="UTF-8"?>
<svg xmlns="http://www.w3.org/2000/svg" width="1200" height="675" viewBox="0 0 1200 675" role="img" aria-label="AIGC fallback cover 73" data-scene="scene-3">
  <defs>
    <linearGradient id="bg-73" x1="0" y1="0" x2="1" y2="1">
      <stop offset="0%" stop-color="hsl(125, 82%, 16%)"/>
      <stop offset="52%" stop-color="hsl(162, 84%, 23%)"/>
      <stop offset="100%" stop-color="hsl(257, 78%, 12%)"/>
    </linearGradient>
    <filter id="blur-73" x="-25%" y="-25%" width="150%" height="150%">
      <feGaussianBlur stdDeviation="26"/>
    </filter>
    <filter id="soft-73" x="-25%" y="-25%" width="150%" height="150%">
      <feGaussianBlur stdDeviation="10"/>
    </filter>
    <filter id="grain-73" x="0%" y="0%" width="100%" height="100%">
      <feTurbulence type="fractalNoise" baseFrequency="0.9" numOctaves="2" seed="949" stitchTiles="stitch"/>
      <feColorMatrix type="saturate" values="0"/>
      <feComponentTransfer>
        <feFuncA type="table" tableValues="0 0.05"/>
      </feComponentTransfer>
    </filter>
    <radialGradient id="vignette-73" cx="50%" cy="45%" r="70%">
      <stop offset="60%" stop-color="rgba(0,0,0,0)"/>
      <stop offset="100%" stop-color="rgba(0,0,0,0.45)"/>
    </radialGradient>
  </defs>

  <rect width="1200" height="675" fill="url(#bg-73)"/>
  <circle cx="884" cy="243" r="168" fill="hsl(125, 92%, 62%)" opacity="0.12" filter="url(#blur-73)"/><circle cx="992" cy="517" r="185" fill="hsl(151, 92%, 62%)" opacity="0.12" filter="url(#blur-73)"/><circle cx="325" cy="397" r="109" fill="hsl(177, 92%, 62%)" opacity="0.13" filter="url(#blur-73)"/>
  <circle cx="145" cy="387" r="65" fill="rgba(210,240,255,0.06)" filter="url(#soft-73)"/><circle cx="321" cy="100" r="46" fill="rgba(210,240,255,0.14)" filter="url(#soft-73)"/><circle cx="556" cy="102" r="56" fill="rgba(210,240,255,0.14)" filter="url(#soft-73)"/><circle cx="305" cy="214" r="54" fill="rgba(210,240,255,0.08)" filter="url(#soft-73)"/><circle cx="1134" cy="70" r="37" fill="rgba(210,240,255,0.15)" filter="url(#soft-73)"/><circle cx="176" cy="269" r="53" fill="rgba(210,240,255,0.10)" filter="url(#soft-73)"/><circle cx="165" cy="306" r="63" fill="rgba(210,240,255,0.12)" filter="url(#soft-73)"/><circle cx="1087" cy="211" r="60" fill="rgba(210,240,255,0.13)" filter="url(#soft-73)"/><circle cx="738" cy="446" r="66" fill="rgba(210,240,255,0.15)" filter="url(#soft-73)"/><circle cx="692" cy="418" r="65" fill="rgba(210,240,255,0.11)" filter="url(#soft-73)"/>
  <polygon points="0,675 1200,675 1337,371 -137,371" fill="rgba(8,16,28,0.35)"/>
  <g id="scene-datacenter"><g><rect x="70" y="217" width="97" height="408" rx="10" fill="rgba(10,20,42,0.58)" stroke="rgba(130,190,255,0.45)"/><rect x="102" y="508" width="27" height="6" rx="3" fill="rgba(102,245,220,0.8)"/><rect x="140" y="331" width="20" height="6" rx="3" fill="rgba(102,245,220,0.8)"/><rect x="108" y="457" width="18" height="6" rx="3" fill="rgba(102,245,220,0.8)"/><rect x="105" y="451" width="18" height="6" rx="3" fill="rgba(102,245,220,0.8)"/><rect x="139" y="344" width="31" height="6" rx="3" fill="rgba(102,245,220,0.8)"/><rect x="94" y="476" width="20" height="6" rx="3" fill="rgba(102,245,220,0.8)"/><rect x="112" y="300" width="34" height="6" rx="3" fill="rgba(102,245,220,0.8)"/><rect x="142" y="544" width="31" height="6" rx="3" fill="rgba(102,245,220,0.8)"/><rect x="120" y="429" width="21" height="6" rx="3" fill="rgba(102,245,220,0.8)"/><rect x="125" y="342" width="21" height="6" rx="3" fill="rgba(102,245,220,0.8)"/></g><g><rect x="218" y="234" width="129" height="402" rx="10" fill="rgba(10,20,42,0.58)" stroke="rgba(130,190,255,0.45)"/><rect x="296" y="369" width="27" height="6" rx="3" fill="rgba(102,245,220,0.8)"/><rect x="308" y="461" width="24" height="6" rx="3" fill="rgba(102,245,220,0.8)"/><rect x="308" y="544" width="30" height="6" rx="3" fill="rgba(102,245,220,0.8)"/><rect x="274" y="564" width="27" height="6" rx="3" fill="rgba(102,245,220,0.8)"/><rect x="264" y="305" width="34" height="6" rx="3" fill="rgba(102,245,220,0.8)"/><rect x="236" y="513" width="23" height="6" rx="3" fill="rgba(102,245,220,0.8)"/><rect x="293" y="608" width="19" height="6" rx="3" fill="rgba(102,245,220,0.8)"/><rect x="259" y="594" width="17" height="6" rx="3" fill="rgba(102,245,220,0.8)"/><rect x="265" y="382" width="31" height="6" rx="3" fill="rgba(102,245,220,0.8)"/><rect x="320" y="344" width="27" height="6" rx="3" fill="rgba(102,245,220,0.8)"/></g><g><rect x="382" y="163" width="119" height="465" rx="10" fill="rgba(10,20,42,0.58)" stroke="rgba(130,190,255,0.45)"/><rect x="463" y="345" width="22" height="6" rx="3" fill="rgba(102,245,220,0.8)"/><rect x="457" y="542" width="30" height="6" rx="3" fill="rgba(102,245,220,0.8)"/><rect x="409" y="393" width="34" height="6" rx="3" fill="rgba(102,245,220,0.8)"/><rect x="448" y="469" width="18" height="6" rx="3" fill="rgba(102,245,220,0.8)"/><rect x="466" y="525" width="26" height="6" rx="3" fill="rgba(102,245,220,0.8)"/><rect x="444" y="519" width="33" height="6" rx="3" fill="rgba(102,245,220,0.8)"/><rect x="472" y="229" width="34" height="6" rx="3" fill="rgba(102,245,220,0.8)"/><rect x="414" y="475" width="31" height="6" rx="3" fill="rgba(102,245,220,0.8)"/></g><g><rect x="448" y="204" width="90" height="438" rx="10" fill="rgba(10,20,42,0.58)" stroke="rgba(130,190,255,0.45)"/><rect x="514" y="410" width="32" height="6" rx="3" fill="rgba(102,245,220,0.8)"/><rect x="504" y="585" width="21" height="6" rx="3" fill="rgba(102,245,220,0.8)"/><rect x="515" y="242" width="24" height="6" rx="3" fill="rgba(102,245,220,0.8)"/><rect x="492" y="575" width="29" height="6" rx="3" fill="rgba(102,245,220,0.8)"/><rect x="499" y="321" width="29" height="6" rx="3" fill="rgba(102,245,220,0.8)"/><rect x="512" y="352" width="31" height="6" rx="3" fill="rgba(102,245,220,0.8)"/><rect x="504" y="336" width="34" height="6" rx="3" fill="rgba(102,245,220,0.8)"/><rect x="503" y="533" width="22" height="6" rx="3" fill="rgba(102,245,220,0.8)"/><rect x="491" y="317" width="20" height="6" rx="3" fill="rgba(102,245,220,0.8)"/></g><g><rect x="558" y="215" width="103" height="434" rx="10" fill="rgba(10,20,42,0.58)" stroke="rgba(130,190,255,0.45)"/><rect x="578" y="601" width="31" height="6" rx="3" fill="rgba(102,245,220,0.8)"/><rect x="637" y="319" width="33" height="6" rx="3" fill="rgba(102,245,220,0.8)"/><rect x="621" y="274" width="29" height="6" rx="3" fill="rgba(102,245,220,0.8)"/><rect x="622" y="612" width="34" height="6" rx="3" fill="rgba(102,245,220,0.8)"/><rect x="625" y="343" width="31" height="6" rx="3" fill="rgba(102,245,220,0.8)"/><rect x="598" y="355" width="26" height="6" rx="3" fill="rgba(102,245,220,0.8)"/><rect x="600" y="560" width="33" height="6" rx="3" fill="rgba(102,245,220,0.8)"/><rect x="630" y="328" width="19" height="6" rx="3" fill="rgba(102,245,220,0.8)"/></g><g><rect x="890" y="163" width="129" height="468" rx="10" fill="rgba(10,20,42,0.58)" stroke="rgba(130,190,255,0.45)"/><rect x="938" y="278" width="27" height="6" rx="3" fill="rgba(102,245,220,0.8)"/><rect x="986" y="262" width="20" height="6" rx="3" fill="rgba(102,245,220,0.8)"/><rect x="983" y="197" width="24" height="6" rx="3" fill="rgba(102,245,220,0.8)"/><rect x="923" y="401" width="20" height="6" rx="3" fill="rgba(102,245,220,0.8)"/><rect x="960" y="365" width="21" height="6" rx="3" fill="rgba(102,245,220,0.8)"/><rect x="987" y="251" width="25" height="6" rx="3" fill="rgba(102,245,220,0.8)"/><rect x="957" y="262" width="22" height="6" rx="3" fill="rgba(102,245,220,0.8)"/></g><g><rect x="1060" y="341" width="123" height="307" rx="10" fill="rgba(10,20,42,0.58)" stroke="rgba(130,190,255,0.45)"/><rect x="1092" y="552" width="27" height="6" rx="3" fill="rgba(102,245,220,0.8)"/><rect x="1134" y="444" width="34" height="6" rx="3" fill="rgba(102,245,220,0.8)"/><rect x="1121" y="599" width="28" height="6" rx="3" fill="rgba(102,245,220,0.8)"/><rect x="1115" y="460" width="31" height="6" rx="3" fill="rgba(102,245,220,0.8)"/><rect x="1093" y="390" width="20" height="6" rx="3" fill="rgba(102,245,220,0.8)"/><rect x="1091" y="418" width="29" height="6" rx="3" fill="rgba(102,245,220,0.8)"/><rect x="1085" y="428" width="32" height="6" rx="3" fill="rgba(102,245,220,0.8)"/><rect x="1107" y="445" width="33" height="6" rx="3" fill="rgba(102,245,220,0.8)"/></g><g><rect x="952" y="292" width="114" height="338" rx="10" fill="rgba(10,20,42,0.58)" stroke="rgba(130,190,255,0.45)"/><rect x="1018" y="586" width="32" height="6" rx="3" fill="rgba(102,245,220,0.8)"/><rect x="1005" y="524" width="24" height="6" rx="3" fill="rgba(102,245,220,0.8)"/><rect x="978" y="340" width="20" height="6" rx="3" fill="rgba(102,245,220,0.8)"/><rect x="1025" y="549" width="34" height="6" rx="3" fill="rgba(102,245,220,0.8)"/><rect x="1020" y="397" width="16" height="6" rx="3" fill="rgba(102,245,220,0.8)"/></g></g>
  <g id="scene-sparkles"><circle cx="598" cy="482" r="1.52" fill="rgba(180,240,255,0.26)"/><circle cx="279" cy="384" r="1.46" fill="rgba(180,240,255,0.35)"/><circle cx="241" cy="154" r="1.23" fill="rgba(180,240,255,0.30)"/><circle cx="1130" cy="137" r="2.70" fill="rgba(180,240,255,0.20)"/><circle cx="112" cy="218" r="1.42" fill="rgba(180,240,255,0.32)"/><circle cx="56" cy="500" r="1.82" fill="rgba(180,240,255,0.37)"/><circle cx="759" cy="176" r="2.70" fill="rgba(180,240,255,0.36)"/><circle cx="1024" cy="75" r="1.80" fill="rgba(180,240,255,0.20)"/><circle cx="1125" cy="512" r="3.25" fill="rgba(180,240,255,0.44)"/><circle cx="292" cy="588" r="1.98" fill="rgba(180,240,255,0.15)"/><circle cx="160" cy="20" r="1.12" fill="rgba(180,240,255,0.37)"/><circle cx="1071" cy="74" r="2.90" fill="rgba(180,240,255,0.40)"/><circle cx="556" cy="544" r="1.25" fill="rgba(180,240,255,0.31)"/><circle cx="420" cy="542" r="2.96" fill="rgba(180,240,255,0.38)"/><circle cx="90" cy="328" r="2.39" fill="rgba(180,240,255,0.30)"/><circle cx="809" cy="246" r="1.19" fill="rgba(180,240,255,0.38)"/><circle cx="74" cy="400" r="2.37" fill="rgba(180,240,255,0.26)"/></g>
  <rect width="1200" height="675" fill="rgba(190,220,255,0.06)"/>
  <rect width="1200" height="675" filter="url(#grain-73)"/>
  <rect width="1200" height="675" fill="url(#vignette-73)"/>
  <rect x="20" y="20" width="1160" height="635" rx="32" fill="none" stroke="rgba(155,220,255,0.24)"/>
</svg>