<?xml version="1.0" encoding="UTF-8"?>
<svg xmlns="http://www.w3.org/2000/svg" width="1200" height="675" viewBox="0 0 1200 675" role="img" aria-label="AIGC fallback cover 48" data-scene="scene-8">
  <defs>
    <linearGradient id="bg-48" x1="0" y1="0" x2="1" y2="1">
      <stop offset="0%" stop-color="hsl(205, 82%, 16%)"/>
      <stop offset="52%" stop-color="hsl(242, 84%, 23%)"/>
      <stop offset="100%" stop-color="hsl(35, 78%, 12%)"/>
    </linearGradient>
    <filter id="blur-48" x="-25%" y="-25%" width="150%" height="150%">
      <feGaussianBlur stdDeviation="26"/>
    </filter>
    <filter id="soft-48" x="-25%" y="-25%" width="150%" height="150%">
      <feGaussianBlur stdDeviation="10"/>
    </filter>
    <filter id="grain-48" x="0%" y="0%" width="100%" height="100%">
      <feTurbulence type="fractalNoise" baseFrequency="0.9" numOctaves="2" seed="624" stitchTiles="stitch"/>
      <feColorMatrix type="saturate" values="0"/>
      <feComponentTransfer>
        <feFuncA type="table" tableValues="0 0.05"/>
      </feComponentTransfer>
    </filter>
    <radialGradient id="vignette-48" cx="50%" cy="45%" r="70%">
      <stop offset="60%" stop-color="rgba(0,0,0,0)"/>
      <stop offset="100%" stop-color="rgba(0,0,0,0.45)"/>
    </radialGradient>
  </defs>

  <rect width="1200" height="675" fill="url(#bg-48)"/>
  <circle cx="1013" cy="324" r="99" fill="hsl(205, 92%, 62%)" opacity="0.12" filter="url(#blur-48)"/><circle cx="119" cy="255" r="119" fill="hsl(231, 92%, 62%)" opacity="0.12" filter="url(#blur-48)"/><circle cx="639" cy="257" r="100" fill="hsl(257, 92%, 62%)" opacity="0.16" filter="url(#blur-48)"/>
  <circle cx="962" cy="449" r="51" fill="rgba(210,240,255,0.07)" filter="url(#soft-48)"/><circle cx="1001" cy="120" r="60" fill="rgba(210,240,255,0.09)" filter="url(#soft-48)"/><circle cx="1101" cy="314" r="36" fill="rgba(210,240,255,0.15)" filter="url(#soft-48)"/><circle cx="254" cy="300" r="49" fill="rgba(210,240,255,0.14)" filter="url(#soft-48)"/><circle cx="1015" cy="344" r="61" fill="rgba(210,240,255,0.09)" filter="url(#soft-48)"/><circle cx="1079" cy="203" r="50" fill="rgba(210,240,255,0.10)" filter="url(#soft-48)"/><circle cx="1153" cy="421" r="59" fill="rgba(210,240,255,0.11)" filter="url(#soft-48)"/><circle cx="641" cy="347" r="69" fill="rgba(210,240,255,0.06)" filter="url(#soft-48)"/><circle cx="1048" cy="75" r="59" fill="rgba(210,240,255,0.13)" filter="url(#soft-48)"/>
  <polygon points="0,675 1200,675 1021,369 179,369" fill="rgba(8,16,28,0.35)"/>
  <g id="scene-code-panels"><g><rect x="964" y="59" width="183" height="155" rx="14" fill="rgba(11,24,48,0.55)" stroke="rgba(120,190,255,0.45)"/><rect x="984" y="77" width="70" height="8" rx="4" fill="rgba(120,220,255,0.25)"/><rect x="984" y="99" width="143" height="8" rx="4" fill="rgba(120,220,255,0.34)"/><rect x="984" y="121" width="143" height="8" rx="4" fill="rgba(120,220,255,0.43)"/><rect x="984" y="143" width="140" height="8" rx="4" fill="rgba(120,220,255,0.52)"/><circle cx="1129" cy="77" r="4" fill="rgba(160,240,255,0.7)"/></g><g><rect x="537" y="445" width="241" height="168" rx="14" fill="rgba(11,24,48,0.55)" stroke="rgba(120,190,255,0.45)"/><rect x="557" y="463" width="85" height="8" rx="4" fill="rgba(120,220,255,0.25)"/><rect x="557" y="485" width="138" height="8" rx="4" fill="rgba(120,220,255,0.34)"/><rect x="557" y="507" width="127" height="8" rx="4" fill="rgba(120,220,255,0.43)"/><rect x="557" y="529" width="172" height="8" rx="4" fill="rgba(120,220,255,0.52)"/><rect x="557" y="551" width="191" height="8" rx="4" fill="rgba(120,220,255,0.61)"/><rect x="557" y="573" width="115" height="8" rx="4" fill="rgba(120,220,255,0.70)"/><circle cx="760" cy="463" r="4" fill="rgba(160,240,255,0.7)"/></g><g><rect x="503" y="498" width="183" height="110" rx="14" fill="rgba(11,24,48,0.55)" stroke="rgba(120,190,255,0.45)"/><rect x="523" y="516" width="106" height="8" rx="4" fill="rgba(120,220,255,0.25)"/><rect x="523" y="538" width="135" height="8" rx="4" fill="rgba(120,220,255,0.34)"/><rect x="523" y="560" width="139" height="8" rx="4" fill="rgba(120,220,255,0.43)"/><rect x="523" y="582" width="78" height="8" rx="4" fill="rgba(120,220,255,0.52)"/><circle cx="668" cy="516" r="4" fill="rgba(160,240,255,0.7)"/></g><g><rect x="856" y="345" width="299" height="116" rx="14" fill="rgba(11,24,48,0.55)" stroke="rgba(120,190,255,0.45)"/><rect x="876" y="363" width="153" height="8" rx="4" fill="rgba(120,220,255,0.25)"/><rect x="876" y="385" width="220" height="8" rx="4" fill="rgba(120,220,255,0.34)"/><rect x="876" y="407" width="145" height="8" rx="4" fill="rgba(120,220,255,0.43)"/><rect x="876" y="429" width="187" height="8" rx="4" fill="rgba(120,220,255,0.52)"/><circle cx="1137" cy="363" r="4" fill="rgba(160,240,255,0.7)"/></g><g><rect x="735" y="295" width="290" height="119" rx="14" fill="rgba(11,24,48,0.55)" stroke="rgba(120,190,255,0.45)"/><rect x="755" y="313" width="102" height="8" rx="4" fill="rgba(120,220,255,0.25)"/><rect x="755" y="335" width="122" height="8" rx="4" fill="rgba(120,220,255,0.34)"/><rect x="755" y="357" width="180" height="8" rx="4" fill="rgba(120,220,255,0.43)"/><circle cx="1007" cy="313" r="4" fill="rgba(160,240,255,0.7)"/></g><g><rect x="51" y="375" width="222" height="187" rx="14" fill="rgba(11,24,48,0.55)" stroke="rgba(120,190,255,0.45)"/><rect x="71" y="393" width="154" height="8" rx="4" fill="rgba(120,220,255,0.25)"/><rect x="71" y="415" width="123" height="8" rx="4" fill="rgba(120,220,255,0.34)"/><rect x="71" y="437" width="88" height="8" rx="4" fill="rgba(120,220,255,0.43)"/><circle cx="255" cy="393" r="4" fill="rgba(160,240,255,0.7)"/></g><g><rect x="728" y="308" width="288" height="136" rx="14" fill="rgba(11,24,48,0.55)" stroke="rgba(120,190,255,0.45)"/><rect x="748" y="326" width="161" height="8" rx="4" fill="rgba(120,220,255,0.25)"/><rect x="748" y="348" width="237" height="8" rx="4" fill="rgba(120,220,255,0.34)"/><rect x="748" y="370" width="177" height="8" rx="4" fill="rgba(120,220,255,0.43)"/><rect x="748" y="392" width="166" height="8" rx="4" fill="rgba(120,220,255,0.52)"/><rect x="748" y="414" width="223" height="8" rx="4" fill="rgba(120,220,255,0.61)"/><circle cx="998" cy="326" r="4" fill="rgba(160,240,255,0.7)"/></g><g><rect x="185" y="538" width="304" height="103" rx="14" fill="rgba(11,24,48,0.55)" stroke="rgba(120,190,255,0.45)"/><rect x="205" y="556" width="163" height="8" rx="4" fill="rgba(120,220,255,0.25)"/><rect x="205" y="578" width="169" height="8" rx="4" fill="rgba(120,220,255,0.34)"/><rect x="205" y="600" width="142" height="8" rx="4" fill="rgba(120,220,255,0.43)"/><rect x="205" y="622" width="199" height="8" rx="4" fill="rgba(120,220,255,0.52)"/><rect x="205" y="644" width="113" height="8" rx="4" fill="rgba(120,220,255,0.61)"/><rect x="205" y="666" width="163" height="8" rx="4" fill="rgba(120,220,255,0.70)"/><circle cx="471" cy="556" r="4" fill="rgba(160,240,255,0.7)"/></g></g>
  <g id="scene-sparkles"><circle cx="1111" cy="20" r="1.99" fill="rgba(180,240,255,0.35)"/><circle cx="639" cy="133" r="1.16" fill="rgba(180,240,255,0.24)"/><circle cx="627" cy="196" r="3.06" fill="rgba(180,240,255,0.38)"/><circle cx="894" cy="401" r="1.92" fill="rgba(180,240,255,0.16)"/><circle cx="990" cy="398" r="2.39" fill="rgba(180,240,255,0.22)"/><circle cx="639" cy="54" r="3.14" fill="rgba(180,240,255,0.39)"/><circle cx="882" cy="56" r="3.31" fill="rgba(180,240,255,0.30)"/><circle cx="243" cy="46" r="1.84" fill="rgba(180,240,255,0.35)"/><circle cx="115" cy="35" r="1.92" fill="rgba(180,240,255,0.43)"/><circle cx="525" cy="586" r="1.75" fill="rgba(180,240,255,0.21)"/><circle cx="744" cy="520" r="3.35" fill="rgba(180,240,255,0.33)"/><circle cx="822" cy="75" r="1.84" fill="rgba(180,240,255,0.21)"/><circle cx="338" cy="370" r="3.07" fill="rgba(180,240,255,0.33)"/><circle cx="391" cy="382" r="2.30" fill="rgba(180,240,255,0.21)"/><circle cx="110" cy="538" r="2.74" fill="rgba(180,240,255,0.15)"/><circle cx="846" cy="82" r="2.32" fill="rgba(180,240,255,0.27)"/><circle cx="675" cy="590" r="2.88" fill="rgba(180,240,255,0.26)"/><circle cx="327" cy="592" r="2.57" fill="rgba(180,240,255,0.32)"/><circle cx="45" cy="565" r="2.59" fill="rgba(180,240,255,0.22)"/><circle cx="184" cy="583" r="2.39" fill="rgba(180,240,255,0.41)"/><circle cx="503" cy="296" r="1.67" fill="rgba(180,240,255,0.20)"/><circle cx="447" cy="360" r="3.33" fill="rgba(180,240,255,0.22)"/></g>
  <rect width="1200" height="675" fill="rgba(190,220,255,0.06)"/>
  <rect width="1200" height="675" filter="url(#grain-48)"/>
  <rect width="1200" height="675" fill="url(#vignette-48)"/>
  <rect x="20" y="20" width="1160" height="635" rx="32" fill="none" stroke="rgba(155,220,255,0.24)"/>
</svg>