<?xml version="1.0" encoding="UTF-8"?>
<svg xmlns="http://www.w3.org/2000/svg" width="1200" height="675" viewBox="0 0 1200 675" role="img" aria-label="AIGC fallback cover 41" data-scene="scene-1">
  <defs>
    <linearGradient id="bg-41" x1="0" y1="0" x2="1" y2="1">
      <stop offset="0%" stop-color="hsl(279, 82%, 16%)"/>
      <stop offset="52%" stop-color="hsl(342, 84%, 23%)"/>
      <stop offset="100%" stop-color="hsl(89, 78%, 12%)"/>
    </linearGradient>
    <filter id="blur-41" x="-25%" y="-25%" width="150%" height="150%">
      <feGaussianBlur stdDeviation="26"/>
    </filter>
    <filter id="soft-41" x="-25%" y="-25%" width="150%" height="150%">
      <feGaussianBlur stdDeviation="10"/>
    </filter>
    <filter id="grain-41" x="0%" y="0%" width="100%" height="100%">
      <feTurbulence type="fractalNoise" baseFrequency="0.9" numOctaves="2" seed="533" stitchTiles="stitch"/>
      <feColorMatrix type="saturate" values="0"/>
      <feComponentTransfer>
        <feFuncA type="table" tableValues="0 0.05"/>
      </feComponentTransfer>
    </filter>
    <radialGradient id="vignette-41" cx="50%" cy="45%" r="70%">
      <stop offset="60%" stop-color="rgba(0,0,0,0)"/>
      <stop offset="100%" stop-color="rgba(0,0,0,0.45)"/>
    </radialGradient>
  </defs>

  <rect width="1200" height="675" fill="url(#bg-41)"/>
  <circle cx="401" cy="478" r="119" fill="hsl(279, 92%, 62%)" opacity="0.16" filter="url(#blur-41)"/><circle cx="105" cy="113" r="159" fill="hsl(305, 92%, 62%)" opacity="0.16" filter="url(#blur-41)"/><circle cx="451" cy="295" r="166" fill="hsl(331, 92%, 62%)" opacity="0.14" filter="url(#blur-41)"/>
  <circle cx="633" cy="134" r="47" fill="rgba(210,240,255,0.14)" filter="url(#soft-41)"/><circle cx="1146" cy="33" r="69" fill="rgba(210,240,255,0.12)" filter="url(#soft-41)"/><circle cx="650" cy="427" r="35" fill="rgba(210,240,255,0.07)" filter="url(#soft-41)"/><circle cx="322" cy="329" r="26" fill="rgba(210,240,255,0.09)" filter="url(#soft-41)"/><circle cx="312" cy="445" r="68" fill="rgba(210,240,255,0.07)" filter="url(#soft-41)"/><circle cx="919" cy="401" r="48" fill="rgba(210,240,255,0.09)" filter="url(#soft-41)"/>
  <polygon points="0,675 1200,675 1409,391 -209,391" fill="rgba(8,16,28,0.35)"/>
  <g id="scene-nodes"><line x1="925" y1="327" x2="909" y2="145" stroke="rgba(145,245,255,0.64)" stroke-width="3"/><line x1="909" y1="145" x2="776" y2="301" stroke="rgba(145,245,255,0.64)" stroke-width="4"/><line x1="776" y1="301" x2="810" y2="271" stroke="rgba(145,245,255,0.64)" stroke-width="2"/><line x1="925" y1="327" x2="1058" y2="115" stroke="rgba(145,245,255,0.64)" stroke-width="4"/><line x1="1058" y1="115" x2="688" y2="318" stroke="rgba(145,245,255,0.64)" stroke-width="4"/><line x1="1058" y1="115" x2="1014" y2="308" stroke="rgba(145,245,255,0.64)" stroke-width="2"/><line x1="776" y1="301" x2="902" y2="170" stroke="rgba(145,245,255,0.64)" stroke-width="2"/><circle cx="925" cy="327" r="15" fill="hsl(279, 88%, 72%)" opacity="0.86"/><circle cx="909" cy="145" r="18" fill="hsl(288, 88%, 72%)" opacity="0.86"/><circle cx="776" cy="301" r="10" fill="hsl(297, 88%, 72%)" opacity="0.86"/><circle cx="810" cy="271" r="13" fill="hsl(306, 88%, 72%)" opacity="0.86"/><circle cx="1058" cy="115" r="15" fill="hsl(315, 88%, 72%)" opacity="0.86"/><circle cx="688" cy="318" r="15" fill="hsl(324, 88%, 72%)" opacity="0.86"/><circle cx="1014" cy="308" r="14" fill="hsl(333, 88%, 72%)" opacity="0.86"/><circle cx="902" cy="170" r="8" fill="hsl(342, 88%, 72%)" opacity="0.86"/></g>
  <g id="scene-sparkles"><circle cx="392" cy="131" r="1.39" fill="rgba(180,240,255,0.41)"/><circle cx="980" cy="198" r="1.77" fill="rgba(180,240,255,0.34)"/><circle cx="1078" cy="603" r="2.54" fill="rgba(180,240,255,0.25)"/><circle cx="1147" cy="126" r="3.21" fill="rgba(180,240,255,0.43)"/><circle cx="1019" cy="131" r="2.42" fill="rgba(180,240,255,0.17)"/><circle cx="110" cy="240" r="3.33" fill="rgba(180,240,255,0.40)"/><circle cx="266" cy="174" r="1.88" fill="rgba(180,240,255,0.22)"/><circle cx="545" cy="73" r="3.10" fill="rgba(180,240,255,0.16)"/><circle cx="352" cy="20" r="1.66" fill="rgba(180,240,255,0.33)"/><circle cx="242" cy="567" r="1.59" fill="rgba(180,240,255,0.18)"/><circle cx="164" cy="262" r="1.82" fill="rgba(180,240,255,0.36)"/><circle cx="589" cy="402" r="1.47" fill="rgba(180,240,255,0.39)"/><circle cx="1155" cy="413" r="1.46" fill="rgba(180,240,255,0.20)"/><circle cx="214" cy="187" r="2.84" fill="rgba(180,240,255,0.22)"/><circle cx="1126" cy="127" r="1.88" fill="rgba(180,240,255,0.40)"/><circle cx="916" cy="359" r="3.26" fill="rgba(180,240,255,0.15)"/><circle cx="944" cy="511" r="1.71" fill="rgba(180,240,255,0.36)"/></g>
  <rect width="1200" height="675" fill="rgba(190,220,255,0.06)"/>
  <rect width="1200" height="675" filter="url(#grain-41)"/>
  <rect width="1200" height="675" fill="url(#vignette-41)"/>
  <rect x="20" y="20" width="1160" height="635" rx="32" fill="none" stroke="rgba(155,220,255,0.24)"/>
</svg>