<?xml version="1.0" encoding="UTF-8"?>
<svg xmlns="http://www.w3.org/2000/svg" width="1200" height="675" viewBox="0 0 1200 675" role="img" aria-label="AIGC fallback cover 71" data-scene="scene-1">
  <defs>
    <linearGradient id="bg-71" x1="0" y1="0" x2="1" y2="1">
      <stop offset="0%" stop-color="hsl(32, 82%, 16%)"/>
      <stop offset="52%" stop-color="hsl(91, 84%, 23%)"/>
      <stop offset="100%" stop-color="hsl(193, 78%, 12%)"/>
    </linearGradient>
    <filter id="blur-71" x="-25%" y="-25%" width="150%" height="150%">
      <feGaussianBlur stdDeviation="26"/>
    </filter>
    <filter id="soft-71" x="-25%" y="-25%" width="150%" height="150%">
      <feGaussianBlur stdDeviation="10"/>
    </filter>
    <filter id="grain-71" x="0%" y="0%" width="100%" height="100%">
      <feTurbulence type="fractalNoise" baseFrequency="0.9" numOctaves="2" seed="923" stitchTiles="stitch"/>
      <feColorMatrix type="saturate" values="0"/>
      <feComponentTransfer>
        <feFuncA type="table" tableValues="0 0.05"/>
      </feComponentTransfer>
    </filter>
    <radialGradient id="vignette-71" cx="50%" cy="45%" r="70%">
      <stop offset="60%" stop-color="rgba(0,0,0,0)"/>
      <stop offset="100%" stop-color="rgba(0,0,0,0.45)"/>
    </radialGradient>
  </defs>

  <rect width="1200" height="675" fill="url(#bg-71)"/>
  <circle cx="508" cy="318" r="101" fill="hsl(32, 92%, 62%)" opacity="0.18" filter="url(#blur-71)"/><circle cx="456" cy="305" r="135" fill="hsl(58, 92%, 62%)" opacity="0.11" filter="url(#blur-71)"/><circle cx="750" cy="413" r="194" fill="hsl(84, 92%, 62%)" opacity="0.16" filter="url(#blur-71)"/>
  <circle cx="1099" cy="357" r="40" fill="rgba(210,240,255,0.09)" filter="url(#soft-71)"/><circle cx="411" cy="52" r="57" fill="rgba(210,240,255,0.13)" filter="url(#soft-71)"/><circle cx="928" cy="307" r="53" fill="rgba(210,240,255,0.13)" filter="url(#soft-71)"/><circle cx="227" cy="132" r="23" fill="rgba(210,240,255,0.11)" filter="url(#soft-71)"/><circle cx="496" cy="321" r="37" fill="rgba(210,240,255,0.06)" filter="url(#soft-71)"/><circle cx="639" cy="309" r="25" fill="rgba(210,240,255,0.15)" filter="url(#soft-71)"/><circle cx="396" cy="349" r="63" fill="rgba(210,240,255,0.11)" filter="url(#soft-71)"/><circle cx="591" cy="326" r="40" fill="rgba(210,240,255,0.12)" filter="url(#soft-71)"/><circle cx="1024" cy="331" r="63" fill="rgba(210,240,255,0.14)" filter="url(#soft-71)"/>
  <polygon points="0,675 1200,675 1327,365 -127,365" fill="rgba(8,16,28,0.35)"/>
  <g id="scene-nodes"><line x1="836" y1="131" x2="1076" y2="97" stroke="rgba(145,245,255,0.64)" stroke-width="3"/><line x1="1076" y1="97" x2="716" y2="171" stroke="rgba(145,245,255,0.64)" stroke-width="3"/><line x1="716" y1="171" x2="685" y2="157" stroke="rgba(145,245,255,0.64)" stroke-width="4"/><line x1="836" y1="131" x2="872" y2="277" stroke="rgba(145,245,255,0.64)" stroke-width="4"/><line x1="836" y1="131" x2="997" y2="217" stroke="rgba(145,245,255,0.64)" stroke-width="2"/><line x1="1076" y1="97" x2="674" y2="103" stroke="rgba(145,245,255,0.64)" stroke-width="2"/><circle cx="836" cy="131" r="18" fill="hsl(32, 88%, 72%)" opacity="0.86"/><circle cx="1076" cy="97" r="9" fill="hsl(41, 88%, 72%)" opacity="0.86"/><circle cx="716" cy="171" r="16" fill="hsl(50, 88%, 72%)" opacity="0.86"/><circle cx="685" cy="157" r="17" fill="hsl(59, 88%, 72%)" opacity="0.86"/><circle cx="872" cy="277" r="8" fill="hsl(68, 88%, 72%)" opacity="0.86"/><circle cx="997" cy="217" r="10" fill="hsl(77, 88%, 72%)" opacity="0.86"/><circle cx="674" cy="103" r="9" fill="hsl(86, 88%, 72%)" opacity="0.86"/></g>
  <g id="scene-sparkles"><circle cx="162" cy="639" r="2.22" fill="rgba(180,240,255,0.40)"/><circle cx="993" cy="145" r="2.27" fill="rgba(180,240,255,0.15)"/><circle cx="622" cy="216" r="1.56" fill="rgba(180,240,255,0.38)"/><circle cx="822" cy="543" r="1.80" fill="rgba(180,240,255,0.29)"/><circle cx="608" cy="157" r="1.58" fill="rgba(180,240,255,0.28)"/><circle cx="965" cy="431" r="1.23" fill="rgba(180,240,255,0.45)"/><circle cx="173" cy="165" r="1.15" fill="rgba(180,240,255,0.29)"/><circle cx="496" cy="472" r="1.25" fill="rgba(180,240,255,0.39)"/><circle cx="321" cy="206" r="2.79" fill="rgba(180,240,255,0.32)"/><circle cx="239" cy="630" r="1.19" fill="rgba(180,240,255,0.25)"/><circle cx="989" cy="228" r="2.78" fill="rgba(180,240,255,0.21)"/><circle cx="218" cy="362" r="1.66" fill="rgba(180,240,255,0.37)"/><circle cx="876" cy="637" r="3.24" fill="rgba(180,240,255,0.21)"/><circle cx="969" cy="292" r="1.95" fill="rgba(180,240,255,0.18)"/><circle cx="70" cy="91" r="1.96" fill="rgba(180,240,255,0.25)"/><circle cx="139" cy="427" r="2.64" fill="rgba(180,240,255,0.38)"/><circle cx="554" cy="197" r="2.88" fill="rgba(180,240,255,0.39)"/><circle cx="493" cy="273" r="3.14" fill="rgba(180,240,255,0.27)"/><circle cx="938" cy="74" r="2.99" fill="rgba(180,240,255,0.18)"/><circle cx="845" cy="132" r="2.14" fill="rgba(180,240,255,0.22)"/><circle cx="385" cy="468" r="2.03" fill="rgba(180,240,255,0.17)"/><circle cx="875" cy="319" r="1.46" fill="rgba(180,240,255,0.21)"/><circle cx="624" cy="585" r="2.54" fill="rgba(180,240,255,0.40)"/><circle cx="149" cy="139" r="3.26" fill="rgba(180,240,255,0.38)"/><circle cx="426" cy="261" r="2.06" fill="rgba(180,240,255,0.17)"/><circle cx="580" cy="68" r="2.49" fill="rgba(180,240,255,0.33)"/><circle cx="789" cy="528" r="2.26" fill="rgba(180,240,255,0.19)"/><circle cx="1143" cy="214" r="1.49" fill="rgba(180,240,255,0.21)"/></g>
  <rect width="1200" height="675" fill="rgba(190,220,255,0.06)"/>
  <rect width="1200" height="675" filter="url(#grain-71)"/>
  <rect width="1200" height="675" fill="url(#vignette-71)"/>
  <rect x="20" y="20" width="1160" height="635" rx="32" fill="none" stroke="rgba(155,220,255,0.24)"/>
</svg>