<?xml version="1.0" encoding="UTF-8"?>
<svg xmlns="http://www.w3.org/2000/svg" width="1200" height="675" viewBox="0 0 1200 675" role="img" aria-label="AIGC fallback cover 42" data-scene="scene-2">
  <defs>
    <linearGradient id="bg-42" x1="0" y1="0" x2="1" y2="1">
      <stop offset="0%" stop-color="hsl(307, 82%, 16%)"/>
      <stop offset="52%" stop-color="hsl(18, 84%, 23%)"/>
      <stop offset="100%" stop-color="hsl(81, 78%, 12%)"/>
    </linearGradient>
    <filter id="blur-42" x="-25%" y="-25%" width="150%" height="150%">
      <feGaussianBlur stdDeviation="26"/>
    </filter>
    <filter id="soft-42" x="-25%" y="-25%" width="150%" height="150%">
      <feGaussianBlur stdDeviation="10"/>
    </filter>
    <filter id="grain-42" x="0%" y="0%" width="100%" height="100%">
      <feTurbulence type="fractalNoise" baseFrequency="0.9" numOctaves="2" seed="546" stitchTiles="stitch"/>
      <feColorMatrix type="saturate" values="0"/>
      <feComponentTransfer>
        <feFuncA type="table" tableValues="0 0.05"/>
      </feComponentTransfer>
    </filter>
    <radialGradient id="vignette-42" cx="50%" cy="45%" r="70%">
      <stop offset="60%" stop-color="rgba(0,0,0,0)"/>
      <stop offset="100%" stop-color="rgba(0,0,0,0.45)"/>
    </radialGradient>
  </defs>

  <rect width="1200" height="675" fill="url(#bg-42)"/>
  <circle cx="915" cy="103" r="215" fill="hsl(307, 92%, 62%)" opacity="0.09" filter="url(#blur-42)"/><circle cx="1063" cy="447" r="135" fill="hsl(333, 92%, 62%)" opacity="0.18" filter="url(#blur-42)"/><circle cx="607" cy="75" r="199" fill="hsl(359, 92%, 62%)" opacity="0.15" filter="url(#blur-42)"/>
  <circle cx="347" cy="450" r="28" fill="rgba(210,240,255,0.12)" filter="url(#soft-42)"/><circle cx="195" cy="128" r="69" fill="rgba(210,240,255,0.16)" filter="url(#soft-42)"/><circle cx="322" cy="418" r="21" fill="rgba(210,240,255,0.15)" filter="url(#soft-42)"/><circle cx="665" cy="124" r="48" fill="rgba(210,240,255,0.07)" filter="url(#soft-42)"/><circle cx="1010" cy="45" r="69" fill="rgba(210,240,255,0.15)" filter="url(#soft-42)"/><circle cx="845" cy="118" r="64" fill="rgba(210,240,255,0.14)" filter="url(#soft-42)"/><circle cx="379" cy="192" r="26" fill="rgba(210,240,255,0.07)" filter="url(#soft-42)"/><circle cx="879" cy="232" r="50" fill="rgba(210,240,255,0.08)" filter="url(#soft-42)"/><circle cx="1087" cy="277" r="33" fill="rgba(210,240,255,0.13)" filter="url(#soft-42)"/><circle cx="338" cy="208" r="60" fill="rgba(210,240,255,0.07)" filter="url(#soft-42)"/>
  <polygon points="0,675 1200,675 1192,435 8,435" fill="rgba(8,16,28,0.35)"/>
  <g id="scene-circuit"><line x1="723" y1="470" x2="723" y2="636" stroke="rgba(135,220,255,0.28)" stroke-width="4" stroke-linecap="round"/><line x1="863" y1="362" x2="936" y2="362" stroke="rgba(135,220,255,0.28)" stroke-width="5" stroke-linecap="round"/><line x1="113" y1="265" x2="252" y2="265" stroke="rgba(135,220,255,0.28)" stroke-width="6" stroke-linecap="round"/><line x1="525" y1="85" x2="525" y2="259" stroke="rgba(135,220,255,0.28)" stroke-width="6" stroke-linecap="round"/><line x1="227" y1="418" x2="227" y2="541" stroke="rgba(135,220,255,0.28)" stroke-width="5" stroke-linecap="round"/><line x1="329" y1="411" x2="329" y2="567" stroke="rgba(135,220,255,0.28)" stroke-width="2" stroke-linecap="round"/><line x1="986" y1="179" x2="1140" y2="179" stroke="rgba(135,220,255,0.28)" stroke-width="5" stroke-linecap="round"/><line x1="1024" y1="590" x2="1024" y2="640" stroke="rgba(135,220,255,0.28)" stroke-width="2" stroke-linecap="round"/><line x1="729" y1="201" x2="729" y2="395" stroke="rgba(135,220,255,0.28)" stroke-width="2" stroke-linecap="round"/><line x1="644" y1="133" x2="644" y2="339" stroke="rgba(135,220,255,0.28)" stroke-width="3" stroke-linecap="round"/><line x1="1109" y1="583" x2="1109" y2="640" stroke="rgba(135,220,255,0.28)" stroke-width="3" stroke-linecap="round"/><line x1="114" y1="381" x2="249" y2="381" stroke="rgba(135,220,255,0.28)" stroke-width="3" stroke-linecap="round"/><line x1="109" y1="257" x2="109" y2="340" stroke="rgba(135,220,255,0.28)" stroke-width="4" stroke-linecap="round"/><line x1="686" y1="258" x2="686" y2="342" stroke="rgba(135,220,255,0.28)" stroke-width="3" stroke-linecap="round"/><line x1="925" y1="95" x2="1003" y2="95" stroke="rgba(135,220,255,0.28)" stroke-width="3" stroke-linecap="round"/><line x1="838" y1="225" x2="934" y2="225" stroke="rgba(135,220,255,0.28)" stroke-width="6" stroke-linecap="round"/><line x1="802" y1="520" x2="802" y2="640" stroke="rgba(135,220,255,0.28)" stroke-width="4" stroke-linecap="round"/><line x1="295" y1="551" x2="295" y2="632" stroke="rgba(135,220,255,0.28)" stroke-width="2" stroke-linecap="round"/><line x1="1056" y1="235" x2="1056" y2="374" stroke="rgba(135,220,255,0.28)" stroke-width="4" stroke-linecap="round"/><line x1="320" y1="382" x2="320" y2="539" stroke="rgba(135,220,255,0.28)" stroke-width="6" stroke-linecap="round"/><rect x="182" y="340" width="105" height="119" rx="12" fill="rgba(12,28,60,0.48)" stroke="hsl(307, 90%, 70%)" opacity="0.78"/><rect x="653" y="419" width="187" height="78" rx="12" fill="rgba(12,28,60,0.48)" stroke="hsl(318, 90%, 70%)" opacity="0.78"/><rect x="290" y="493" width="130" height="84" rx="12" fill="rgba(12,28,60,0.48)" stroke="hsl(329, 90%, 70%)" opacity="0.78"/><rect x="141" y="105" width="84" height="104" rx="12" fill="rgba(12,28,60,0.48)" stroke="hsl(340, 90%, 70%)" opacity="0.78"/><rect x="254" y="477" width="96" height="82" rx="12" fill="rgba(12,28,60,0.48)" stroke="hsl(351, 90%, 70%)" opacity="0.78"/><rect x="544" y="157" width="141" height="58" rx="12" fill="rgba(12,28,60,0.48)" stroke="hsl(362, 90%, 70%)" opacity="0.78"/><rect x="435" y="260" width="189" height="88" rx="12" fill="rgba(12,28,60,0.48)" stroke="hsl(373, 90%, 70%)" opacity="0.78"/></g>
  <g id="scene-sparkles"><circle cx="901" cy="620" r="2.74" fill="rgba(180,240,255,0.27)"/><circle cx="599" cy="287" r="2.51" fill="rgba(180,240,255,0.40)"/><circle cx="1156" cy="72" r="1.91" fill="rgba(180,240,255,0.38)"/><circle cx="189" cy="526" r="2.44" fill="rgba(180,240,255,0.28)"/><circle cx="560" cy="61" r="3.09" fill="rgba(180,240,255,0.41)"/><circle cx="1048" cy="333" r="1.56" fill="rgba(180,240,255,0.36)"/><circle cx="1004" cy="46" r="2.29" fill="rgba(180,240,255,0.21)"/><circle cx="692" cy="74" r="2.00" fill="rgba(180,240,255,0.29)"/><circle cx="1142" cy="26" r="1.13" fill="rgba(180,240,255,0.18)"/><circle cx="340" cy="291" r="2.82" fill="rgba(180,240,255,0.38)"/><circle cx="732" cy="195" r="1.16" fill="rgba(180,240,255,0.28)"/><circle cx="265" cy="154" r="1.92" fill="rgba(180,240,255,0.26)"/><circle cx="587" cy="205" r="2.75" fill="rgba(180,240,255,0.18)"/><circle cx="900" cy="185" r="3.35" fill="rgba(180,240,255,0.36)"/><circle cx="341" cy="421" r="1.97" fill="rgba(180,240,255,0.25)"/><circle cx="964" cy="245" r="2.34" fill="rgba(180,240,255,0.15)"/><circle cx="668" cy="40" r="2.77" fill="rgba(180,240,255,0.25)"/><circle cx="126" cy="487" r="1.57" fill="rgba(180,240,255,0.36)"/><circle cx="873" cy="414" r="2.82" fill="rgba(180,240,255,0.27)"/><circle cx="129" cy="577" r="2.69" fill="rgba(180,240,255,0.19)"/><circle cx="1032" cy="447" r="2.99" fill="rgba(180,240,255,0.25)"/><circle cx="86" cy="216" r="2.39" fill="rgba(180,240,255,0.38)"/><circle cx="1062" cy="541" r="1.60" fill="rgba(180,240,255,0.15)"/><circle cx="452" cy="181" r="3.19" fill="rgba(180,240,255,0.43)"/><circle cx="893" cy="288" r="3.37" fill="rgba(180,240,255,0.40)"/><circle cx="365" cy="621" r="2.90" fill="rgba(180,240,255,0.23)"/></g>
  <rect width="1200" height="675" fill="rgba(190,220,255,0.06)"/>
  <rect width="1200" height="675" filter="url(#grain-42)"/>
  <rect width="1200" height="675" fill="url(#vignette-42)"/>
  <rect x="20" y="20" width="1160" height="635" rx="32" fill="none" stroke="rgba(155,220,255,0.24)"/>
</svg>