<?xml version="1.0" encoding="UTF-8"?>
<svg xmlns="http://www.w3.org/2000/svg" width="1200" height="675" viewBox="0 0 1200 675" role="img" aria-label="AIGC fallback cover 16" data-scene="scene-6">
  <defs>
    <linearGradient id="bg-16" x1="0" y1="0" x2="1" y2="1">
      <stop offset="0%" stop-color="hsl(330, 82%, 16%)"/>
      <stop offset="52%" stop-color="hsl(28, 84%, 23%)"/>
      <stop offset="100%" stop-color="hsl(133, 78%, 12%)"/>
    </linearGradient>
    <filter id="blur-16" x="-25%" y="-25%" width="150%" height="150%">
      <feGaussianBlur stdDeviation="26"/>
    </filter>
    <filter id="soft-16" x="-25%" y="-25%" width="150%" height="150%">
      <feGaussianBlur stdDeviation="10"/>
    </filter>
    <filter id="grain-16" x="0%" y="0%" width="100%" height="100%">
      <feTurbulence type="fractalNoise" baseFrequency="0.9" numOctaves="2" seed="208" stitchTiles="stitch"/>
      <feColorMatrix type="saturate" values="0"/>
      <feComponentTransfer>
        <feFuncA type="table" tableValues="0 0.05"/>
      </feComponentTransfer>
    </filter>
    <radialGradient id="vignette-16" cx="50%" cy="45%" r="70%">
      <stop offset="60%" stop-color="rgba(0,0,0,0)"/>
      <stop offset="100%" stop-color="rgba(0,0,0,0.45)"/>
    </radialGradient>
  </defs>

  <rect width="1200" height="675" fill="url(#bg-16)"/>
  <circle cx="480" cy="447" r="111" fill="hsl(330, 92%, 62%)" opacity="0.09" filter="url(#blur-16)"/><circle cx="540" cy="598" r="108" fill="hsl(356, 92%, 62%)" opacity="0.12" filter="url(#blur-16)"/><circle cx="513" cy="572" r="216" fill="hsl(382, 92%, 62%)" opacity="0.12" filter="url(#blur-16)"/>
  <circle cx="328" cy="275" r="39" fill="rgba(210,240,255,0.16)" filter="url(#soft-16)"/><circle cx="1144" cy="243" r="50" fill="rgba(210,240,255,0.08)" filter="url(#soft-16)"/><circle cx="937" cy="447" r="24" fill="rgba(210,240,255,0.13)" filter="url(#soft-16)"/><circle cx="531" cy="127" r="51" fill="rgba(210,240,255,0.07)" filter="url(#soft-16)"/><circle cx="400" cy="196" r="55" fill="rgba(210,240,255,0.12)" filter="url(#soft-16)"/><circle cx="464" cy="164" r="57" fill="rgba(210,240,255,0.15)" filter="url(#soft-16)"/><circle cx="1108" cy="377" r="31" fill="rgba(210,240,255,0.11)" filter="url(#soft-16)"/>
  <polygon points="0,675 1200,675 1082,418 118,418" fill="rgba(8,16,28,0.35)"/>
  <g id="scene-cloud-pipeline"><g><circle cx="857" cy="224" r="35" fill="rgba(180,220,255,0.42)"/><circle cx="882" cy="228" r="32" fill="rgba(180,220,255,0.36)"/><rect x="835" y="232" width="76" height="22" rx="11" fill="rgba(170,220,255,0.3)"/></g><g><circle cx="303" cy="127" r="37" fill="rgba(180,220,255,0.42)"/><circle cx="335" cy="127" r="33" fill="rgba(180,220,255,0.36)"/><rect x="281" y="135" width="72" height="22" rx="11" fill="rgba(170,220,255,0.3)"/></g><g><circle cx="388" cy="118" r="27" fill="rgba(180,220,255,0.42)"/><circle cx="424" cy="124" r="25" fill="rgba(180,220,255,0.36)"/><rect x="366" y="126" width="74" height="22" rx="11" fill="rgba(170,220,255,0.3)"/></g><g><circle cx="783" cy="133" r="35" fill="rgba(180,220,255,0.42)"/><circle cx="808" cy="135" r="30" fill="rgba(180,220,255,0.36)"/><rect x="761" y="141" width="109" height="22" rx="11" fill="rgba(170,220,255,0.3)"/></g><g><circle cx="479" cy="125" r="32" fill="rgba(180,220,255,0.42)"/><circle cx="505" cy="122" r="20" fill="rgba(180,220,255,0.36)"/><rect x="457" y="133" width="100" height="22" rx="11" fill="rgba(170,220,255,0.3)"/></g><path d="M 491 229 h 60 v 54 h 90" fill="none" stroke="rgba(120,255,210,0.34)" stroke-width="4" stroke-linecap="round"/><path d="M 884 455 h 56 v 76 h 59" fill="none" stroke="rgba(120,255,210,0.34)" stroke-width="5" stroke-linecap="round"/><path d="M 577 267 h 101 v 79 h -113" fill="none" stroke="rgba(120,255,210,0.34)" stroke-width="7" stroke-linecap="round"/><path d="M 899 480 h 69 v 48 h -115" fill="none" stroke="rgba(120,255,210,0.34)" stroke-width="7" stroke-linecap="round"/><path d="M 531 332 h 62 v 60 h -12" fill="none" stroke="rgba(120,255,210,0.34)" stroke-width="6" stroke-linecap="round"/><path d="M 416 458 h 59 v 68 h -18" fill="none" stroke="rgba(120,255,210,0.34)" stroke-width="7" stroke-linecap="round"/><path d="M 487 272 h 92 v 62 h 88" fill="none" stroke="rgba(120,255,210,0.34)" stroke-width="8" stroke-linecap="round"/><path d="M 490 357 h 39 v 96 h 36" fill="none" stroke="rgba(120,255,210,0.34)" stroke-width="8" stroke-linecap="round"/><path d="M 318 197 h 111 v 72 h 49" fill="none" stroke="rgba(120,255,210,0.34)" stroke-width="8" stroke-linecap="round"/><path d="M 883 374 h 115 v 75 h -112" fill="none" stroke="rgba(120,255,210,0.34)" stroke-width="5" stroke-linecap="round"/><path d="M 821 274 h 71 v 29 h -113" fill="none" stroke="rgba(120,255,210,0.34)" stroke-width="5" stroke-linecap="round"/><path d="M 810 192 h 49 v 71 h -74" fill="none" stroke="rgba(120,255,210,0.34)" stroke-width="4" stroke-linecap="round"/></g>
  <g id="scene-sparkles"><circle cx="400" cy="118" r="2.93" fill="rgba(180,240,255,0.22)"/><circle cx="569" cy="172" r="3.19" fill="rgba(180,240,255,0.42)"/><circle cx="45" cy="349" r="3.10" fill="rgba(180,240,255,0.22)"/><circle cx="144" cy="467" r="3.06" fill="rgba(180,240,255,0.38)"/><circle cx="405" cy="501" r="3.16" fill="rgba(180,240,255,0.25)"/><circle cx="890" cy="172" r="3.03" fill="rgba(180,240,255,0.16)"/><circle cx="512" cy="516" r="2.96" fill="rgba(180,240,255,0.36)"/><circle cx="1107" cy="142" r="2.31" fill="rgba(180,240,255,0.23)"/><circle cx="819" cy="584" r="2.77" fill="rgba(180,240,255,0.22)"/><circle cx="347" cy="643" r="3.07" fill="rgba(180,240,255,0.25)"/><circle cx="571" cy="356" r="1.64" fill="rgba(180,240,255,0.18)"/><circle cx="699" cy="444" r="1.22" fill="rgba(180,240,255,0.20)"/><circle cx="563" cy="49" r="2.00" fill="rgba(180,240,255,0.42)"/><circle cx="242" cy="356" r="2.83" fill="rgba(180,240,255,0.29)"/><circle cx="721" cy="414" r="2.98" fill="rgba(180,240,255,0.24)"/><circle cx="906" cy="549" r="3.10" fill="rgba(180,240,255,0.44)"/><circle cx="308" cy="98" r="1.57" fill="rgba(180,240,255,0.28)"/><circle cx="273" cy="513" r="2.47" fill="rgba(180,240,255,0.44)"/><circle cx="671" cy="551" r="1.66" fill="rgba(180,240,255,0.27)"/><circle cx="223" cy="162" r="1.91" fill="rgba(180,240,255,0.20)"/><circle cx="711" cy="48" r="1.56" fill="rgba(180,240,255,0.30)"/><circle cx="488" cy="119" r="3.16" fill="rgba(180,240,255,0.36)"/><circle cx="665" cy="76" r="2.40" fill="rgba(180,240,255,0.21)"/><circle cx="800" cy="373" r="1.34" fill="rgba(180,240,255,0.39)"/><circle cx="260" cy="76" r="1.83" fill="rgba(180,240,255,0.21)"/></g>
  <rect width="1200" height="675" fill="rgba(190,220,255,0.06)"/>
  <rect width="1200" height="675" filter="url(#grain-16)"/>
  <rect width="1200" height="675" fill="url(#vignette-16)"/>
  <rect x="20" y="20" width="1160" height="635" rx="32" fill="none" stroke="rgba(155,220,255,0.24)"/>
</svg>