<?xml version="1.0" encoding="UTF-8"?>
<svg xmlns="http://www.w3.org/2000/svg" width="1200" height="675" viewBox="0 0 1200 675" role="img" aria-label="AIGC fallback cover 4" data-scene="scene-4">
  <defs>
    <linearGradient id="bg-4" x1="0" y1="0" x2="1" y2="1">
      <stop offset="0%" stop-color="hsl(204, 82%, 16%)"/>
      <stop offset="52%" stop-color="hsl(282, 84%, 23%)"/>
      <stop offset="100%" stop-color="hsl(30, 78%, 12%)"/>
    </linearGradient>
    <filter id="blur-4" x="-25%" y="-25%" width="150%" height="150%">
      <feGaussianBlur stdDeviation="26"/>
    </filter>
    <filter id="soft-4" x="-25%" y="-25%" width="150%" height="150%">
      <feGaussianBlur stdDeviation="10"/>
    </filter>
    <filter id="grain-4" x="0%" y="0%" width="100%" height="100%">
      <feTurbulence type="fractalNoise" baseFrequency="0.9" numOctaves="2" seed="52" stitchTiles="stitch"/>
      <feColorMatrix type="saturate" values="0"/>
      <feComponentTransfer>
        <feFuncA type="table" tableValues="0 0.05"/>
      </feComponentTransfer>
    </filter>
    <radialGradient id="vignette-4" cx="50%" cy="45%" r="70%">
      <stop offset="60%" stop-color="rgba(0,0,0,0)"/>
      <stop offset="100%" stop-color="rgba(0,0,0,0.45)"/>
    </radialGradient>
  </defs>

  <rect width="1200" height="675" fill="url(#bg-4)"/>
  <circle cx="934" cy="543" r="146" fill="hsl(204, 92%, 62%)" opacity="0.09" filter="url(#blur-4)"/><circle cx="730" cy="377" r="209" fill="hsl(230, 92%, 62%)" opacity="0.09" filter="url(#blur-4)"/><circle cx="280" cy="583" r="216" fill="hsl(256, 92%, 62%)" opacity="0.17" filter="url(#blur-4)"/>
  <circle cx="312" cy="223" r="66" fill="rgba(210,240,255,0.08)" filter="url(#soft-4)"/><circle cx="662" cy="182" r="56" fill="rgba(210,240,255,0.14)" filter="url(#soft-4)"/><circle cx="827" cy="178" r="46" fill="rgba(210,240,255,0.10)" filter="url(#soft-4)"/><circle cx="784" cy="272" r="27" fill="rgba(210,240,255,0.08)" filter="url(#soft-4)"/><circle cx="395" cy="109" r="62" fill="rgba(210,240,255,0.14)" filter="url(#soft-4)"/><circle cx="990" cy="239" r="51" fill="rgba(210,240,255,0.08)" filter="url(#soft-4)"/><circle cx="605" cy="63" r="43" fill="rgba(210,240,255,0.16)" filter="url(#soft-4)"/><circle cx="126" cy="311" r="55" fill="rgba(210,240,255,0.15)" filter="url(#soft-4)"/><circle cx="985" cy="226" r="26" fill="rgba(210,240,255,0.15)" filter="url(#soft-4)"/>
  <polygon points="0,675 1200,675 1376,442 -176,442" fill="rgba(8,16,28,0.35)"/>
  <g id="scene-city"><g><rect x="540" y="524" width="115" height="151" rx="8" fill="rgba(8,18,38,0.58)" stroke="hsl(204, 70%, 52%)" opacity="0.72"/><rect x="551" y="544" width="98" height="5" rx="2" fill="rgba(120,240,255,0.22)"/><rect x="556" y="568" width="92" height="5" rx="2" fill="rgba(120,240,255,0.22)"/><rect x="556" y="586" width="93" height="5" rx="2" fill="rgba(120,240,255,0.22)"/><rect x="553" y="625" width="96" height="5" rx="2" fill="rgba(120,240,255,0.22)"/><rect x="553" y="628" width="97" height="5" rx="2" fill="rgba(120,240,255,0.22)"/><rect x="556" y="654" width="87" height="5" rx="2" fill="rgba(120,240,255,0.22)"/><rect x="556" y="712" width="90" height="5" rx="2" fill="rgba(120,240,255,0.22)"/><rect x="550" y="684" width="93" height="5" rx="2" fill="rgba(120,240,255,0.22)"/><rect x="551" y="760" width="91" height="5" rx="2" fill="rgba(120,240,255,0.22)"/><rect x="548" y="796" width="93" height="5" rx="2" fill="rgba(120,240,255,0.22)"/></g><g><rect x="426" y="329" width="82" height="346" rx="8" fill="rgba(8,18,38,0.58)" stroke="hsl(209, 70%, 52%)" opacity="0.72"/><rect x="439" y="349" width="62" height="5" rx="2" fill="rgba(120,240,255,0.22)"/><rect x="439" y="376" width="64" height="5" rx="2" fill="rgba(120,240,255,0.22)"/><rect x="441" y="389" width="64" height="5" rx="2" fill="rgba(120,240,255,0.22)"/><rect x="440" y="403" width="66" height="5" rx="2" fill="rgba(120,240,255,0.22)"/><rect x="439" y="445" width="63" height="5" rx="2" fill="rgba(120,240,255,0.22)"/><rect x="435" y="449" width="57" height="5" rx="2" fill="rgba(120,240,255,0.22)"/></g><g><rect x="418" y="518" width="102" height="157" rx="8" fill="rgba(8,18,38,0.58)" stroke="hsl(214, 70%, 52%)" opacity="0.72"/><rect x="431" y="538" width="74" height="5" rx="2" fill="rgba(120,240,255,0.22)"/><rect x="426" y="563" width="85" height="5" rx="2" fill="rgba(120,240,255,0.22)"/><rect x="434" y="590" width="80" height="5" rx="2" fill="rgba(120,240,255,0.22)"/><rect x="428" y="601" width="78" height="5" rx="2" fill="rgba(120,240,255,0.22)"/><rect x="427" y="610" width="79" height="5" rx="2" fill="rgba(120,240,255,0.22)"/><rect x="427" y="663" width="84" height="5" rx="2" fill="rgba(120,240,255,0.22)"/><rect x="426" y="700" width="85" height="5" rx="2" fill="rgba(120,240,255,0.22)"/></g><g><rect x="189" y="377" width="102" height="298" rx="8" fill="rgba(8,18,38,0.58)" stroke="hsl(219, 70%, 52%)" opacity="0.72"/><rect x="205" y="397" width="78" height="5" rx="2" fill="rgba(120,240,255,0.22)"/><rect x="200" y="425" width="82" height="5" rx="2" fill="rgba(120,240,255,0.22)"/><rect x="204" y="445" width="81" height="5" rx="2" fill="rgba(120,240,255,0.22)"/><rect x="201" y="460" width="78" height="5" rx="2" fill="rgba(120,240,255,0.22)"/><rect x="203" y="505" width="79" height="5" rx="2" fill="rgba(120,240,255,0.22)"/><rect x="199" y="507" width="80" height="5" rx="2" fill="rgba(120,240,255,0.22)"/><rect x="205" y="535" width="79" height="5" rx="2" fill="rgba(120,240,255,0.22)"/><rect x="201" y="579" width="74" height="5" rx="2" fill="rgba(120,240,255,0.22)"/></g><g><rect x="169" y="465" width="62" height="210" rx="8" fill="rgba(8,18,38,0.58)" stroke="hsl(224, 70%, 52%)" opacity="0.72"/><rect x="177" y="485" width="41" height="5" rx="2" fill="rgba(120,240,255,0.22)"/><rect x="185" y="511" width="40" height="5" rx="2" fill="rgba(120,240,255,0.22)"/><rect x="183" y="529" width="45" height="5" rx="2" fill="rgba(120,240,255,0.22)"/><rect x="182" y="551" width="46" height="5" rx="2" fill="rgba(120,240,255,0.22)"/><rect x="180" y="589" width="46" height="5" rx="2" fill="rgba(120,240,255,0.22)"/><rect x="183" y="585" width="39" height="5" rx="2" fill="rgba(120,240,255,0.22)"/><rect x="178" y="623" width="39" height="5" rx="2" fill="rgba(120,240,255,0.22)"/></g><g><rect x="786" y="432" width="43" height="243" rx="8" fill="rgba(8,18,38,0.58)" stroke="hsl(229, 70%, 52%)" opacity="0.72"/><rect x="797" y="452" width="16" height="5" rx="2" fill="rgba(120,240,255,0.22)"/><rect x="800" y="478" width="22" height="5" rx="2" fill="rgba(120,240,255,0.22)"/><rect x="801" y="496" width="22" height="5" rx="2" fill="rgba(120,240,255,0.22)"/><rect x="794" y="506" width="23" height="5" rx="2" fill="rgba(120,240,255,0.22)"/><rect x="800" y="560" width="15" height="5" rx="2" fill="rgba(120,240,255,0.22)"/><rect x="797" y="572" width="15" height="5" rx="2" fill="rgba(120,240,255,0.22)"/></g><g><rect x="616" y="479" width="56" height="196" rx="8" fill="rgba(8,18,38,0.58)" stroke="hsl(234, 70%, 52%)" opacity="0.72"/><rect x="627" y="499" width="35" height="5" rx="2" fill="rgba(120,240,255,0.22)"/><rect x="630" y="526" width="37" height="5" rx="2" fill="rgba(120,240,255,0.22)"/><rect x="624" y="551" width="38" height="5" rx="2" fill="rgba(120,240,255,0.22)"/><rect x="627" y="583" width="30" height="5" rx="2" fill="rgba(120,240,255,0.22)"/><rect x="629" y="579" width="28" height="5" rx="2" fill="rgba(120,240,255,0.22)"/><rect x="627" y="624" width="31" height="5" rx="2" fill="rgba(120,240,255,0.22)"/><rect x="626" y="667" width="37" height="5" rx="2" fill="rgba(120,240,255,0.22)"/><rect x="627" y="681" width="37" height="5" rx="2" fill="rgba(120,240,255,0.22)"/><rect x="624" y="651" width="31" height="5" rx="2" fill="rgba(120,240,255,0.22)"/><rect x="626" y="715" width="34" height="5" rx="2" fill="rgba(120,240,255,0.22)"/></g><g><rect x="592" y="531" width="43" height="144" rx="8" fill="rgba(8,18,38,0.58)" stroke="hsl(239, 70%, 52%)" opacity="0.72"/><rect x="603" y="551" width="19" height="5" rx="2" fill="rgba(120,240,255,0.22)"/><rect x="608" y="569" width="22" height="5" rx="2" fill="rgba(120,240,255,0.22)"/><rect x="604" y="597" width="24" height="5" rx="2" fill="rgba(120,240,255,0.22)"/><rect x="603" y="635" width="26" height="5" rx="2" fill="rgba(120,240,255,0.22)"/><rect x="601" y="635" width="21" height="5" rx="2" fill="rgba(120,240,255,0.22)"/><rect x="604" y="681" width="17" height="5" rx="2" fill="rgba(120,240,255,0.22)"/><rect x="604" y="659" width="20" height="5" rx="2" fill="rgba(120,240,255,0.22)"/><rect x="603" y="733" width="24" height="5" rx="2" fill="rgba(120,240,255,0.22)"/><rect x="600" y="759" width="22" height="5" rx="2" fill="rgba(120,240,255,0.22)"/></g><g><rect x="744" y="345" width="118" height="330" rx="8" fill="rgba(8,18,38,0.58)" stroke="hsl(244, 70%, 52%)" opacity="0.72"/><rect x="760" y="365" width="91" height="5" rx="2" fill="rgba(120,240,255,0.22)"/><rect x="755" y="388" width="95" height="5" rx="2" fill="rgba(120,240,255,0.22)"/><rect x="754" y="407" width="94" height="5" rx="2" fill="rgba(120,240,255,0.22)"/><rect x="753" y="431" width="102" height="5" rx="2" fill="rgba(120,240,255,0.22)"/><rect x="753" y="461" width="96" height="5" rx="2" fill="rgba(120,240,255,0.22)"/><rect x="754" y="470" width="94" height="5" rx="2" fill="rgba(120,240,255,0.22)"/><rect x="755" y="491" width="102" height="5" rx="2" fill="rgba(120,240,255,0.22)"/></g><g><rect x="838" y="426" width="99" height="249" rx="8" fill="rgba(8,18,38,0.58)" stroke="hsl(249, 70%, 52%)" opacity="0.72"/><rect x="849" y="446" width="81" height="5" rx="2" fill="rgba(120,240,255,0.22)"/><rect x="851" y="466" width="82" height="5" rx="2" fill="rgba(120,240,255,0.22)"/><rect x="850" y="500" width="82" height="5" rx="2" fill="rgba(120,240,255,0.22)"/><rect x="854" y="509" width="80" height="5" rx="2" fill="rgba(120,240,255,0.22)"/><rect x="850" y="534" width="81" height="5" rx="2" fill="rgba(120,240,255,0.22)"/><rect x="850" y="566" width="76" height="5" rx="2" fill="rgba(120,240,255,0.22)"/><rect x="851" y="596" width="77" height="5" rx="2" fill="rgba(120,240,255,0.22)"/><rect x="847" y="642" width="76" height="5" rx="2" fill="rgba(120,240,255,0.22)"/><rect x="846" y="614" width="72" height="5" rx="2" fill="rgba(120,240,255,0.22)"/></g><g><rect x="236" y="475" width="62" height="200" rx="8" fill="rgba(8,18,38,0.58)" stroke="hsl(254, 70%, 52%)" opacity="0.72"/><rect x="246" y="495" width="40" height="5" rx="2" fill="rgba(120,240,255,0.22)"/><rect x="249" y="519" width="37" height="5" rx="2" fill="rgba(120,240,255,0.22)"/><rect x="249" y="551" width="38" height="5" rx="2" fill="rgba(120,240,255,0.22)"/><rect x="245" y="579" width="44" height="5" rx="2" fill="rgba(120,240,255,0.22)"/><rect x="244" y="583" width="36" height="5" rx="2" fill="rgba(120,240,255,0.22)"/><rect x="248" y="620" width="43" height="5" rx="2" fill="rgba(120,240,255,0.22)"/></g><g><rect x="68" y="555" width="71" height="120" rx="8" fill="rgba(8,18,38,0.58)" stroke="hsl(259, 70%, 52%)" opacity="0.72"/><rect x="76" y="575" width="47" height="5" rx="2" fill="rgba(120,240,255,0.22)"/><rect x="81" y="601" width="51" height="5" rx="2" fill="rgba(120,240,255,0.22)"/><rect x="77" y="631" width="47" height="5" rx="2" fill="rgba(120,240,255,0.22)"/><rect x="84" y="650" width="49" height="5" rx="2" fill="rgba(120,240,255,0.22)"/><rect x="84" y="663" width="49" height="5" rx="2" fill="rgba(120,240,255,0.22)"/><rect x="79" y="700" width="54" height="5" rx="2" fill="rgba(120,240,255,0.22)"/><rect x="77" y="713" width="47" height="5" rx="2" fill="rgba(120,240,255,0.22)"/><rect x="84" y="729" width="49" height="5" rx="2" fill="rgba(120,240,255,0.22)"/><rect x="82" y="719" width="54" height="5" rx="2" fill="rgba(120,240,255,0.22)"/><rect x="82" y="773" width="44" height="5" rx="2" fill="rgba(120,240,255,0.22)"/></g><g><rect x="456" y="506" width="40" height="169" rx="8" fill="rgba(8,18,38,0.58)" stroke="hsl(264, 70%, 52%)" opacity="0.72"/><rect x="468" y="526" width="23" height="5" rx="2" fill="rgba(120,240,255,0.22)"/><rect x="467" y="548" width="19" height="5" rx="2" fill="rgba(120,240,255,0.22)"/><rect x="472" y="578" width="16" height="5" rx="2" fill="rgba(120,240,255,0.22)"/><rect x="472" y="598" width="24" height="5" rx="2" fill="rgba(120,240,255,0.22)"/><rect x="465" y="602" width="17" height="5" rx="2" fill="rgba(120,240,255,0.22)"/></g><g><rect x="126" y="333" width="92" height="342" rx="8" fill="rgba(8,18,38,0.58)" stroke="hsl(269, 70%, 52%)" opacity="0.72"/><rect x="134" y="353" width="75" height="5" rx="2" fill="rgba(120,240,255,0.22)"/><rect x="139" y="379" width="74" height="5" rx="2" fill="rgba(120,240,255,0.22)"/><rect x="137" y="399" width="67" height="5" rx="2" fill="rgba(120,240,255,0.22)"/><rect x="135" y="416" width="70" height="5" rx="2" fill="rgba(120,240,255,0.22)"/><rect x="139" y="453" width="65" height="5" rx="2" fill="rgba(120,240,255,0.22)"/></g></g>
  <g id="scene-sparkles"><circle cx="1176" cy="612" r="3.06" fill="rgba(180,240,255,0.25)"/><circle cx="373" cy="166" r="3.10" fill="rgba(180,240,255,0.21)"/><circle cx="761" cy="434" r="1.93" fill="rgba(180,240,255,0.39)"/><circle cx="962" cy="342" r="2.04" fill="rgba(180,240,255,0.21)"/><circle cx="997" cy="164" r="2.54" fill="rgba(180,240,255,0.28)"/><circle cx="918" cy="579" r="1.28" fill="rgba(180,240,255,0.36)"/><circle cx="599" cy="382" r="1.60" fill="rgba(180,240,255,0.41)"/><circle cx="706" cy="373" r="1.51" fill="rgba(180,240,255,0.30)"/><circle cx="546" cy="639" r="2.94" fill="rgba(180,240,255,0.28)"/><circle cx="568" cy="601" r="3.21" fill="rgba(180,240,255,0.23)"/><circle cx="603" cy="163" r="2.17" fill="rgba(180,240,255,0.36)"/><circle cx="180" cy="598" r="2.95" fill="rgba(180,240,255,0.15)"/><circle cx="772" cy="224" r="2.33" fill="rgba(180,240,255,0.15)"/><circle cx="609" cy="539" r="3.38" fill="rgba(180,240,255,0.41)"/><circle cx="935" cy="276" r="1.22" fill="rgba(180,240,255,0.35)"/><circle cx="681" cy="289" r="1.47" fill="rgba(180,240,255,0.32)"/><circle cx="216" cy="353" r="3.28" fill="rgba(180,240,255,0.26)"/><circle cx="1137" cy="496" r="3.00" fill="rgba(180,240,255,0.19)"/><circle cx="400" cy="106" r="2.81" fill="rgba(180,240,255,0.25)"/><circle cx="703" cy="624" r="3.20" fill="rgba(180,240,255,0.29)"/><circle cx="425" cy="241" r="2.82" fill="rgba(180,240,255,0.33)"/><circle cx="205" cy="499" r="1.38" fill="rgba(180,240,255,0.17)"/></g>
  <rect width="1200" height="675" fill="rgba(190,220,255,0.06)"/>
  <rect width="1200" height="675" filter="url(#grain-4)"/>
  <rect width="1200" height="675" fill="url(#vignette-4)"/>
  <rect x="20" y="20" width="1160" height="635" rx="32" fill="none" stroke="rgba(155,220,255,0.24)"/>
</svg>