<?xml version="1.0" encoding="UTF-8"?>
<svg xmlns="http://www.w3.org/2000/svg" width="1200" height="675" viewBox="0 0 1200 675" role="img" aria-label="AIGC fallback cover 65" data-scene="scene-5">
  <defs>
    <linearGradient id="bg-65" x1="0" y1="0" x2="1" y2="1">
      <stop offset="0%" stop-color="hsl(146, 82%, 16%)"/>
      <stop offset="52%" stop-color="hsl(214, 84%, 23%)"/>
      <stop offset="100%" stop-color="hsl(325, 78%, 12%)"/>
    </linearGradient>
    <filter id="blur-65" x="-25%" y="-25%" width="150%" height="150%">
      <feGaussianBlur stdDeviation="26"/>
    </filter>
    <filter id="soft-65" x="-25%" y="-25%" width="150%" height="150%">
      <feGaussianBlur stdDeviation="10"/>
    </filter>
    <filter id="grain-65" x="0%" y="0%" width="100%" height="100%">
      <feTurbulence type="fractalNoise" baseFrequency="0.9" numOctaves="2" seed="845" stitchTiles="stitch"/>
      <feColorMatrix type="saturate" values="0"/>
      <feComponentTransfer>
        <feFuncA type="table" tableValues="0 0.05"/>
      </feComponentTransfer>
    </filter>
    <radialGradient id="vignette-65" cx="50%" cy="45%" r="70%">
      <stop offset="60%" stop-color="rgba(0,0,0,0)"/>
      <stop offset="100%" stop-color="rgba(0,0,0,0.45)"/>
    </radialGradient>
  </defs>

  <rect width="1200" height="675" fill="url(#bg-65)"/>
  <circle cx="516" cy="132" r="156" fill="hsl(146, 92%, 62%)" opacity="0.09" filter="url(#blur-65)"/><circle cx="757" cy="378" r="178" fill="hsl(172, 92%, 62%)" opacity="0.15" filter="url(#blur-65)"/><circle cx="641" cy="92" r="118" fill="hsl(198, 92%, 62%)" opacity="0.08" filter="url(#blur-65)"/>
  <circle cx="471" cy="155" r="50" fill="rgba(210,240,255,0.11)" filter="url(#soft-65)"/><circle cx="407" cy="377" r="31" fill="rgba(210,240,255,0.15)" filter="url(#soft-65)"/><circle cx="99" cy="65" r="40" fill="rgba(210,240,255,0.11)" filter="url(#soft-65)"/><circle cx="461" cy="198" r="44" fill="rgba(210,240,255,0.06)" filter="url(#soft-65)"/><circle cx="395" cy="374" r="59" fill="rgba(210,240,255,0.07)" filter="url(#soft-65)"/><circle cx="1104" cy="169" r="48" fill="rgba(210,240,255,0.09)" filter="url(#soft-65)"/>
  <polygon points="0,675 1200,675 1159,388 41,388" fill="rgba(8,16,28,0.35)"/>
  <g id="scene-wave"><path d="M 0 293 C 65 272, 195 314, 260 293 S 455 272, 520 293" transform="translate(86,0) scale(2.4595859460532665,1)" fill="none" stroke="rgba(132,236,255,0.42)" stroke-width="6"/><path d="M 0 505 C 75.75 447, 227.25 563, 303 505 S 530.25 447, 606 505" transform="translate(128,0) scale(1.2728382382774726,1)" fill="none" stroke="rgba(132,236,255,0.24)" stroke-width="3"/><path d="M 0 271 C 121 207, 363 335, 484 271 S 847 207, 968 271" transform="translate(202,0) scale(2.0342578697716815,1)" fill="none" stroke="rgba(132,236,255,0.35)" stroke-width="5"/><path d="M 0 470 C 126.75 430, 380.25 510, 507 470 S 887.25 430, 1014 470" transform="translate(146,0) scale(1.6196749948896467,1)" fill="none" stroke="rgba(132,236,255,0.38)" stroke-width="7"/><path d="M 0 518 C 124.75 490, 374.25 546, 499 518 S 873.25 490, 998 518" transform="translate(45,0) scale(1.558680212427862,1)" fill="none" stroke="rgba(132,236,255,0.31)" stroke-width="3"/></g>
  <g id="scene-sparkles"><circle cx="256" cy="567" r="1.42" fill="rgba(180,240,255,0.30)"/><circle cx="923" cy="243" r="3.33" fill="rgba(180,240,255,0.22)"/><circle cx="84" cy="68" r="2.25" fill="rgba(180,240,255,0.43)"/><circle cx="537" cy="31" r="2.96" fill="rgba(180,240,255,0.29)"/><circle cx="482" cy="42" r="2.71" fill="rgba(180,240,255,0.38)"/><circle cx="608" cy="553" r="1.13" fill="rgba(180,240,255,0.19)"/><circle cx="650" cy="642" r="1.73" fill="rgba(180,240,255,0.30)"/><circle cx="732" cy="478" r="2.49" fill="rgba(180,240,255,0.42)"/><circle cx="390" cy="385" r="1.66" fill="rgba(180,240,255,0.24)"/><circle cx="66" cy="196" r="1.29" fill="rgba(180,240,255,0.36)"/><circle cx="838" cy="466" r="1.25" fill="rgba(180,240,255,0.43)"/><circle cx="806" cy="607" r="2.01" fill="rgba(180,240,255,0.40)"/><circle cx="353" cy="349" r="2.53" fill="rgba(180,240,255,0.42)"/><circle cx="519" cy="347" r="2.32" fill="rgba(180,240,255,0.17)"/><circle cx="881" cy="579" r="1.64" fill="rgba(180,240,255,0.36)"/><circle cx="934" cy="250" r="2.96" fill="rgba(180,240,255,0.29)"/><circle cx="788" cy="53" r="1.25" fill="rgba(180,240,255,0.19)"/><circle cx="427" cy="589" r="2.04" fill="rgba(180,240,255,0.32)"/><circle cx="166" cy="526" r="3.11" fill="rgba(180,240,255,0.17)"/><circle cx="1111" cy="326" r="3.09" fill="rgba(180,240,255,0.34)"/></g>
  <rect width="1200" height="675" fill="rgba(190,220,255,0.06)"/>
  <rect width="1200" height="675" filter="url(#grain-65)"/>
  <rect width="1200" height="675" fill="url(#vignette-65)"/>
  <rect x="20" y="20" width="1160" height="635" rx="32" fill="none" stroke="rgba(155,220,255,0.24)"/>
</svg>