<?xml version="1.0" encoding="UTF-8"?>
<svg xmlns="http://www.w3.org/2000/svg" width="1200" height="675" viewBox="0 0 1200 675" role="img" aria-label="AIGC fallback cover 30" data-scene="scene-10">
  <defs>
    <linearGradient id="bg-30" x1="0" y1="0" x2="1" y2="1">
      <stop offset="0%" stop-color="hsl(170, 82%, 16%)"/>
      <stop offset="52%" stop-color="hsl(221, 84%, 23%)"/>
      <stop offset="100%" stop-color="hsl(287, 78%, 12%)"/>
    </linearGradient>
    <filter id="blur-30" x="-25%" y="-25%" width="150%" height="150%">
      <feGaussianBlur stdDeviation="26"/>
    </filter>
    <filter id="soft-30" x="-25%" y="-25%" width="150%" height="150%">
      <feGaussianBlur stdDeviation="10"/>
    </filter>
    <filter id="grain-30" x="0%" y="0%" width="100%" height="100%">
      <feTurbulence type="fractalNoise" baseFrequency="0.9" numOctaves="2" seed="390" stitchTiles="stitch"/>
      <feColorMatrix type="saturate" values="0"/>
      <feComponentTransfer>
        <feFuncA type="table" tableValues="0 0.05"/>
      </feComponentTransfer>
    </filter>
    <radialGradient id="vignette-30" cx="50%" cy="45%" r="70%">
      <stop offset="60%" stop-color="rgba(0,0,0,0)"/>
      <stop offset="100%" stop-color="rgba(0,0,0,0.45)"/>
    </radialGradient>
  </defs>

  <rect width="1200" height="675" fill="url(#bg-30)"/>
  <circle cx="697" cy="117" r="176" fill="hsl(170, 92%, 62%)" opacity="0.12" filter="url(#blur-30)"/><circle cx="671" cy="458" r="139" fill="hsl(196, 92%, 62%)" opacity="0.10" filter="url(#blur-30)"/><circle cx="1079" cy="351" r="214" fill="hsl(222, 92%, 62%)" opacity="0.16" filter="url(#blur-30)"/>
  <circle cx="607" cy="157" r="59" fill="rgba(210,240,255,0.11)" filter="url(#soft-30)"/><circle cx="185" cy="217" r="61" fill="rgba(210,240,255,0.15)" filter="url(#soft-30)"/><circle cx="1091" cy="37" r="36" fill="rgba(210,240,255,0.08)" filter="url(#soft-30)"/><circle cx="688" cy="234" r="46" fill="rgba(210,240,255,0.13)" filter="url(#soft-30)"/><circle cx="86" cy="253" r="48" fill="rgba(210,240,255,0.13)" filter="url(#soft-30)"/><circle cx="331" cy="140" r="30" fill="rgba(210,240,255,0.08)" filter="url(#soft-30)"/><circle cx="395" cy="313" r="63" fill="rgba(210,240,255,0.15)" filter="url(#soft-30)"/><circle cx="1150" cy="210" r="22" fill="rgba(210,240,255,0.07)" filter="url(#soft-30)"/>
  <polygon points="0,675 1200,675 1107,372 93,372" fill="rgba(8,16,28,0.35)"/>
  <g id="scene-robot-arms"><g><circle cx="185" cy="501" r="16" fill="rgba(120,215,255,0.75)"/><line x1="185" y1="501" x2="290" y2="278" stroke="rgba(145,235,255,0.62)" stroke-width="9" stroke-linecap="round"/><line x1="290" y1="278" x2="366" y2="125" stroke="rgba(120,255,220,0.6)" stroke-width="8" stroke-linecap="round"/><circle cx="290" cy="278" r="10" fill="rgba(150,245,255,0.8)"/><circle cx="366" cy="125" r="8" fill="rgba(120,255,220,0.86)"/></g><g><circle cx="646" cy="452" r="16" fill="rgba(120,215,255,0.75)"/><line x1="646" y1="452" x2="710" y2="261" stroke="rgba(145,235,255,0.62)" stroke-width="8" stroke-linecap="round"/><line x1="710" y1="261" x2="671" y2="138" stroke="rgba(120,255,220,0.6)" stroke-width="8" stroke-linecap="round"/><circle cx="710" cy="261" r="10" fill="rgba(150,245,255,0.8)"/><circle cx="671" cy="138" r="8" fill="rgba(120,255,220,0.86)"/></g><g><circle cx="625" cy="390" r="16" fill="rgba(120,215,255,0.75)"/><line x1="625" y1="390" x2="512" y2="224" stroke="rgba(145,235,255,0.62)" stroke-width="8" stroke-linecap="round"/><line x1="512" y1="224" x2="443" y2="85" stroke="rgba(120,255,220,0.6)" stroke-width="8" stroke-linecap="round"/><circle cx="512" cy="224" r="10" fill="rgba(150,245,255,0.8)"/><circle cx="443" cy="85" r="8" fill="rgba(120,255,220,0.86)"/></g><g><circle cx="122" cy="589" r="16" fill="rgba(120,215,255,0.75)"/><line x1="122" y1="589" x2="78" y2="465" stroke="rgba(145,235,255,0.62)" stroke-width="10" stroke-linecap="round"/><line x1="78" y1="465" x2="103" y2="388" stroke="rgba(120,255,220,0.6)" stroke-width="9" stroke-linecap="round"/><circle cx="78" cy="465" r="10" fill="rgba(150,245,255,0.8)"/><circle cx="103" cy="388" r="8" fill="rgba(120,255,220,0.86)"/></g></g>
  <g id="scene-sparkles"><circle cx="254" cy="191" r="3.25" fill="rgba(180,240,255,0.39)"/><circle cx="1117" cy="325" r="1.76" fill="rgba(180,240,255,0.31)"/><circle cx="587" cy="410" r="1.79" fill="rgba(180,240,255,0.19)"/><circle cx="433" cy="428" r="1.94" fill="rgba(180,240,255,0.40)"/><circle cx="255" cy="204" r="1.74" fill="rgba(180,240,255,0.43)"/><circle cx="652" cy="123" r="3.08" fill="rgba(180,240,255,0.25)"/><circle cx="536" cy="437" r="2.99" fill="rgba(180,240,255,0.18)"/><circle cx="967" cy="21" r="1.38" fill="rgba(180,240,255,0.24)"/><circle cx="276" cy="22" r="3.21" fill="rgba(180,240,255,0.19)"/><circle cx="350" cy="437" r="2.40" fill="rgba(180,240,255,0.31)"/><circle cx="308" cy="625" r="1.16" fill="rgba(180,240,255,0.43)"/><circle cx="318" cy="442" r="3.19" fill="rgba(180,240,255,0.34)"/><circle cx="485" cy="539" r="2.67" fill="rgba(180,240,255,0.27)"/><circle cx="857" cy="353" r="2.87" fill="rgba(180,240,255,0.23)"/><circle cx="61" cy="349" r="1.36" fill="rgba(180,240,255,0.15)"/><circle cx="755" cy="344" r="2.19" fill="rgba(180,240,255,0.16)"/><circle cx="799" cy="604" r="3.29" fill="rgba(180,240,255,0.41)"/><circle cx="814" cy="625" r="2.22" fill="rgba(180,240,255,0.33)"/><circle cx="461" cy="91" r="1.54" fill="rgba(180,240,255,0.30)"/><circle cx="151" cy="544" r="2.48" fill="rgba(180,240,255,0.43)"/><circle cx="963" cy="36" r="2.54" fill="rgba(180,240,255,0.40)"/><circle cx="882" cy="651" r="2.72" fill="rgba(180,240,255,0.20)"/><circle cx="162" cy="285" r="2.56" fill="rgba(180,240,255,0.17)"/><circle cx="804" cy="151" r="2.70" fill="rgba(180,240,255,0.29)"/><circle cx="319" cy="206" r="3.25" fill="rgba(180,240,255,0.43)"/><circle cx="80" cy="173" r="1.28" fill="rgba(180,240,255,0.26)"/></g>
  <rect width="1200" height="675" fill="rgba(190,220,255,0.06)"/>
  <rect width="1200" height="675" filter="url(#grain-30)"/>
  <rect width="1200" height="675" fill="url(#vignette-30)"/>
  <rect x="20" y="20" width="1160" height="635" rx="32" fill="none" stroke="rgba(155,220,255,0.24)"/>
</svg>