<?xml version="1.0" encoding="UTF-8"?>
<svg xmlns="http://www.w3.org/2000/svg" width="1200" height="675" viewBox="0 0 1200 675" role="img" aria-label="AIGC fallback cover 98" data-scene="scene-8">
  <defs>
    <linearGradient id="bg-98" x1="0" y1="0" x2="1" y2="1">
      <stop offset="0%" stop-color="hsl(95, 82%, 16%)"/>
      <stop offset="52%" stop-color="hsl(139, 84%, 23%)"/>
      <stop offset="100%" stop-color="hsl(220, 78%, 12%)"/>
    </linearGradient>
    <filter id="blur-98" x="-25%" y="-25%" width="150%" height="150%">
      <feGaussianBlur stdDeviation="26"/>
    </filter>
    <filter id="soft-98" x="-25%" y="-25%" width="150%" height="150%">
      <feGaussianBlur stdDeviation="10"/>
    </filter>
    <filter id="grain-98" x="0%" y="0%" width="100%" height="100%">
      <feTurbulence type="fractalNoise" baseFrequency="0.9" numOctaves="2" seed="1274" stitchTiles="stitch"/>
      <feColorMatrix type="saturate" values="0"/>
      <feComponentTransfer>
        <feFuncA type="table" tableValues="0 0.05"/>
      </feComponentTransfer>
    </filter>
    <radialGradient id="vignette-98" cx="50%" cy="45%" r="70%">
      <stop offset="60%" stop-color="rgba(0,0,0,0)"/>
      <stop offset="100%" stop-color="rgba(0,0,0,0.45)"/>
    </radialGradient>
  </defs>

  <rect width="1200" height="675" fill="url(#bg-98)"/>
  <circle cx="872" cy="428" r="95" fill="hsl(95, 92%, 62%)" opacity="0.18" filter="url(#blur-98)"/><circle cx="702" cy="405" r="145" fill="hsl(121, 92%, 62%)" opacity="0.15" filter="url(#blur-98)"/><circle cx="208" cy="428" r="95" fill="hsl(147, 92%, 62%)" opacity="0.12" filter="url(#blur-98)"/>
  <circle cx="1070" cy="214" r="36" fill="rgba(210,240,255,0.12)" filter="url(#soft-98)"/><circle cx="90" cy="102" r="47" fill="rgba(210,240,255,0.13)" filter="url(#soft-98)"/><circle cx="116" cy="338" r="70" fill="rgba(210,240,255,0.06)" filter="url(#soft-98)"/><circle cx="518" cy="68" r="27" fill="rgba(210,240,255,0.06)" filter="url(#soft-98)"/><circle cx="604" cy="192" r="25" fill="rgba(210,240,255,0.14)" filter="url(#soft-98)"/><circle cx="425" cy="406" r="53" fill="rgba(210,240,255,0.11)" filter="url(#soft-98)"/><circle cx="274" cy="241" r="45" fill="rgba(210,240,255,0.16)" filter="url(#soft-98)"/>
  <polygon points="0,675 1200,675 1279,411 -79,411" fill="rgba(8,16,28,0.35)"/>
  <g id="scene-code-panels"><g><rect x="577" y="357" width="273" height="105" rx="14" fill="rgba(11,24,48,0.55)" stroke="rgba(120,190,255,0.45)"/><rect x="597" y="375" width="159" height="8" rx="4" fill="rgba(120,220,255,0.25)"/><rect x="597" y="397" width="180" height="8" rx="4" fill="rgba(120,220,255,0.34)"/><rect x="597" y="419" width="152" height="8" rx="4" fill="rgba(120,220,255,0.43)"/><circle cx="832" cy="375" r="4" fill="rgba(160,240,255,0.7)"/></g><g><rect x="608" y="346" width="297" height="146" rx="14" fill="rgba(11,24,48,0.55)" stroke="rgba(120,190,255,0.45)"/><rect x="628" y="364" width="223" height="8" rx="4" fill="rgba(120,220,255,0.25)"/><rect x="628" y="386" width="174" height="8" rx="4" fill="rgba(120,220,255,0.34)"/><rect x="628" y="408" width="191" height="8" rx="4" fill="rgba(120,220,255,0.43)"/><circle cx="887" cy="364" r="4" fill="rgba(160,240,255,0.7)"/></g><g><rect x="690" y="268" width="196" height="136" rx="14" fill="rgba(11,24,48,0.55)" stroke="rgba(120,190,255,0.45)"/><rect x="710" y="286" width="153" height="8" rx="4" fill="rgba(120,220,255,0.25)"/><rect x="710" y="308" width="126" height="8" rx="4" fill="rgba(120,220,255,0.34)"/><rect x="710" y="330" width="90" height="8" rx="4" fill="rgba(120,220,255,0.43)"/><circle cx="868" cy="286" r="4" fill="rgba(160,240,255,0.7)"/></g><g><rect x="159" y="69" width="279" height="172" rx="14" fill="rgba(11,24,48,0.55)" stroke="rgba(120,190,255,0.45)"/><rect x="179" y="87" width="225" height="8" rx="4" fill="rgba(120,220,255,0.25)"/><rect x="179" y="109" width="209" height="8" rx="4" fill="rgba(120,220,255,0.34)"/><rect x="179" y="131" width="97" height="8" rx="4" fill="rgba(120,220,255,0.43)"/><rect x="179" y="153" width="168" height="8" rx="4" fill="rgba(120,220,255,0.52)"/><circle cx="420" cy="87" r="4" fill="rgba(160,240,255,0.7)"/></g><g><rect x="80" y="94" width="264" height="187" rx="14" fill="rgba(11,24,48,0.55)" stroke="rgba(120,190,255,0.45)"/><rect x="100" y="112" width="209" height="8" rx="4" fill="rgba(120,220,255,0.25)"/><rect x="100" y="134" width="176" height="8" rx="4" fill="rgba(120,220,255,0.34)"/><rect x="100" y="156" width="169" height="8" rx="4" fill="rgba(120,220,255,0.43)"/><rect x="100" y="178" width="215" height="8" rx="4" fill="rgba(120,220,255,0.52)"/><rect x="100" y="200" width="188" height="8" rx="4" fill="rgba(120,220,255,0.61)"/><rect x="100" y="222" width="162" height="8" rx="4" fill="rgba(120,220,255,0.70)"/><circle cx="326" cy="112" r="4" fill="rgba(160,240,255,0.7)"/></g><g><rect x="185" y="318" width="218" height="114" rx="14" fill="rgba(11,24,48,0.55)" stroke="rgba(120,190,255,0.45)"/><rect x="205" y="336" width="101" height="8" rx="4" fill="rgba(120,220,255,0.25)"/><rect x="205" y="358" width="83" height="8" rx="4" fill="rgba(120,220,255,0.34)"/><rect x="205" y="380" width="111" height="8" rx="4" fill="rgba(120,220,255,0.43)"/><rect x="205" y="402" width="151" height="8" rx="4" fill="rgba(120,220,255,0.52)"/><rect x="205" y="424" width="162" height="8" rx="4" fill="rgba(120,220,255,0.61)"/><circle cx="385" cy="336" r="4" fill="rgba(160,240,255,0.7)"/></g><g><rect x="686" y="49" width="339" height="145" rx="14" fill="rgba(11,24,48,0.55)" stroke="rgba(120,190,255,0.45)"/><rect x="706" y="67" width="282" height="8" rx="4" fill="rgba(120,220,255,0.25)"/><rect x="706" y="89" width="263" height="8" rx="4" fill="rgba(120,220,255,0.34)"/><rect x="706" y="111" width="262" height="8" rx="4" fill="rgba(120,220,255,0.43)"/><rect x="706" y="133" width="199" height="8" rx="4" fill="rgba(120,220,255,0.52)"/><circle cx="1007" cy="67" r="4" fill="rgba(160,240,255,0.7)"/></g></g>
  <g id="scene-sparkles"><circle cx="71" cy="238" r="2.92" fill="rgba(180,240,255,0.30)"/><circle cx="473" cy="188" r="2.38" fill="rgba(180,240,255,0.24)"/><circle cx="496" cy="600" r="1.46" fill="rgba(180,240,255,0.42)"/><circle cx="1152" cy="520" r="1.88" fill="rgba(180,240,255,0.30)"/><circle cx="1150" cy="369" r="1.27" fill="rgba(180,240,255,0.30)"/><circle cx="516" cy="346" r="2.09" fill="rgba(180,240,255,0.19)"/><circle cx="398" cy="297" r="2.16" fill="rgba(180,240,255,0.26)"/><circle cx="149" cy="78" r="2.53" fill="rgba(180,240,255,0.20)"/><circle cx="1133" cy="586" r="2.84" fill="rgba(180,240,255,0.34)"/><circle cx="1141" cy="527" r="2.88" fill="rgba(180,240,255,0.22)"/><circle cx="692" cy="475" r="1.32" fill="rgba(180,240,255,0.44)"/><circle cx="985" cy="415" r="1.87" fill="rgba(180,240,255,0.41)"/><circle cx="1079" cy="71" r="1.63" fill="rgba(180,240,255,0.16)"/><circle cx="909" cy="118" r="1.42" fill="rgba(180,240,255,0.25)"/><circle cx="590" cy="23" r="2.63" fill="rgba(180,240,255,0.28)"/><circle cx="25" cy="218" r="3.08" fill="rgba(180,240,255,0.33)"/><circle cx="199" cy="359" r="2.04" fill="rgba(180,240,255,0.38)"/><circle cx="755" cy="96" r="3.30" fill="rgba(180,240,255,0.39)"/><circle cx="1016" cy="594" r="1.79" fill="rgba(180,240,255,0.36)"/><circle cx="522" cy="475" r="1.22" fill="rgba(180,240,255,0.22)"/><circle cx="426" cy="37" r="1.91" fill="rgba(180,240,255,0.35)"/><circle cx="302" cy="526" r="1.37" fill="rgba(180,240,255,0.38)"/><circle cx="474" cy="170" r="1.84" fill="rgba(180,240,255,0.26)"/><circle cx="952" cy="458" r="3.04" fill="rgba(180,240,255,0.43)"/></g>
  <rect width="1200" height="675" fill="rgba(190,220,255,0.06)"/>
  <rect width="1200" height="675" filter="url(#grain-98)"/>
  <rect width="1200" height="675" fill="url(#vignette-98)"/>
  <rect x="20" y="20" width="1160" height="635" rx="32" fill="none" stroke="rgba(155,220,255,0.24)"/>
</svg>