<?xml version="1.0" encoding="UTF-8"?>
<svg xmlns="http://www.w3.org/2000/svg" width="1200" height="675" viewBox="0 0 1200 675" role="img" aria-label="AIGC fallback cover 24" data-scene="scene-4">
  <defs>
    <linearGradient id="bg-24" x1="0" y1="0" x2="1" y2="1">
      <stop offset="0%" stop-color="hsl(283, 82%, 16%)"/>
      <stop offset="52%" stop-color="hsl(330, 84%, 23%)"/>
      <stop offset="100%" stop-color="hsl(96, 78%, 12%)"/>
    </linearGradient>
    <filter id="blur-24" x="-25%" y="-25%" width="150%" height="150%">
      <feGaussianBlur stdDeviation="26"/>
    </filter>
    <filter id="soft-24" x="-25%" y="-25%" width="150%" height="150%">
      <feGaussianBlur stdDeviation="10"/>
    </filter>
    <filter id="grain-24" x="0%" y="0%" width="100%" height="100%">
      <feTurbulence type="fractalNoise" baseFrequency="0.9" numOctaves="2" seed="312" stitchTiles="stitch"/>
      <feColorMatrix type="saturate" values="0"/>
      <feComponentTransfer>
        <feFuncA type="table" tableValues="0 0.05"/>
      </feComponentTransfer>
    </filter>
    <radialGradient id="vignette-24" cx="50%" cy="45%" r="70%">
      <stop offset="60%" stop-color="rgba(0,0,0,0)"/>
      <stop offset="100%" stop-color="rgba(0,0,0,0.45)"/>
    </radialGradient>
  </defs>

  <rect width="1200" height="675" fill="url(#bg-24)"/>
  <circle cx="247" cy="183" r="107" fill="hsl(283, 92%, 62%)" opacity="0.11" filter="url(#blur-24)"/><circle cx="304" cy="449" r="146" fill="hsl(309, 92%, 62%)" opacity="0.10" filter="url(#blur-24)"/><circle cx="506" cy="165" r="110" fill="hsl(335, 92%, 62%)" opacity="0.09" filter="url(#blur-24)"/>
  <circle cx="642" cy="216" r="53" fill="rgba(210,240,255,0.15)" filter="url(#soft-24)"/><circle cx="841" cy="204" r="41" fill="rgba(210,240,255,0.14)" filter="url(#soft-24)"/><circle cx="233" cy="223" r="64" fill="rgba(210,240,255,0.11)" filter="url(#soft-24)"/><circle cx="834" cy="408" r="20" fill="rgba(210,240,255,0.15)" filter="url(#soft-24)"/><circle cx="189" cy="327" r="60" fill="rgba(210,240,255,0.15)" filter="url(#soft-24)"/><circle cx="948" cy="363" r="43" fill="rgba(210,240,255,0.11)" filter="url(#soft-24)"/><circle cx="613" cy="323" r="26" fill="rgba(210,240,255,0.06)" filter="url(#soft-24)"/><circle cx="267" cy="254" r="55" fill="rgba(210,240,255,0.08)" filter="url(#soft-24)"/><circle cx="226" cy="358" r="28" fill="rgba(210,240,255,0.14)" filter="url(#soft-24)"/>
  <polygon points="0,675 1200,675 1159,450 41,450" fill="rgba(8,16,28,0.35)"/>
  <g id="scene-city"><g><rect x="581" y="547" width="117" height="128" rx="8" fill="rgba(8,18,38,0.58)" stroke="hsl(283, 70%, 52%)" opacity="0.72"/><rect x="589" y="567" width="96" height="5" rx="2" fill="rgba(120,240,255,0.22)"/><rect x="589" y="589" width="89" height="5" rx="2" fill="rgba(120,240,255,0.22)"/><rect x="590" y="621" width="94" height="5" rx="2" fill="rgba(120,240,255,0.22)"/><rect x="593" y="642" width="90" height="5" rx="2" fill="rgba(120,240,255,0.22)"/><rect x="591" y="639" width="100" height="5" rx="2" fill="rgba(120,240,255,0.22)"/><rect x="597" y="657" width="97" height="5" rx="2" fill="rgba(120,240,255,0.22)"/><rect x="596" y="735" width="91" height="5" rx="2" fill="rgba(120,240,255,0.22)"/><rect x="591" y="728" width="93" height="5" rx="2" fill="rgba(120,240,255,0.22)"/></g><g><rect x="302" y="371" width="88" height="304" rx="8" fill="rgba(8,18,38,0.58)" stroke="hsl(288, 70%, 52%)" opacity="0.72"/><rect x="310" y="391" width="68" height="5" rx="2" fill="rgba(120,240,255,0.22)"/><rect x="318" y="419" width="71" height="5" rx="2" fill="rgba(120,240,255,0.22)"/><rect x="316" y="429" width="63" height="5" rx="2" fill="rgba(120,240,255,0.22)"/><rect x="312" y="454" width="67" height="5" rx="2" fill="rgba(120,240,255,0.22)"/><rect x="311" y="503" width="64" height="5" rx="2" fill="rgba(120,240,255,0.22)"/><rect x="314" y="526" width="72" height="5" rx="2" fill="rgba(120,240,255,0.22)"/><rect x="313" y="559" width="66" height="5" rx="2" fill="rgba(120,240,255,0.22)"/></g><g><rect x="716" y="327" width="90" height="348" rx="8" fill="rgba(8,18,38,0.58)" stroke="hsl(293, 70%, 52%)" opacity="0.72"/><rect x="724" y="347" width="63" height="5" rx="2" fill="rgba(120,240,255,0.22)"/><rect x="728" y="367" width="68" height="5" rx="2" fill="rgba(120,240,255,0.22)"/><rect x="724" y="399" width="64" height="5" rx="2" fill="rgba(120,240,255,0.22)"/><rect x="727" y="404" width="73" height="5" rx="2" fill="rgba(120,240,255,0.22)"/><rect x="731" y="427" width="67" height="5" rx="2" fill="rgba(120,240,255,0.22)"/></g><g><rect x="648" y="404" width="117" height="271" rx="8" fill="rgba(8,18,38,0.58)" stroke="hsl(298, 70%, 52%)" opacity="0.72"/><rect x="657" y="424" width="89" height="5" rx="2" fill="rgba(120,240,255,0.22)"/><rect x="663" y="452" width="95" height="5" rx="2" fill="rgba(120,240,255,0.22)"/><rect x="659" y="460" width="93" height="5" rx="2" fill="rgba(120,240,255,0.22)"/><rect x="664" y="499" width="95" height="5" rx="2" fill="rgba(120,240,255,0.22)"/><rect x="664" y="516" width="90" height="5" rx="2" fill="rgba(120,240,255,0.22)"/><rect x="663" y="524" width="93" height="5" rx="2" fill="rgba(120,240,255,0.22)"/><rect x="657" y="586" width="98" height="5" rx="2" fill="rgba(120,240,255,0.22)"/></g><g><rect x="786" y="350" width="80" height="325" rx="8" fill="rgba(8,18,38,0.58)" stroke="hsl(303, 70%, 52%)" opacity="0.72"/><rect x="795" y="370" width="59" height="5" rx="2" fill="rgba(120,240,255,0.22)"/><rect x="801" y="391" width="62" height="5" rx="2" fill="rgba(120,240,255,0.22)"/><rect x="801" y="406" width="57" height="5" rx="2" fill="rgba(120,240,255,0.22)"/><rect x="800" y="454" width="60" height="5" rx="2" fill="rgba(120,240,255,0.22)"/></g><g><rect x="838" y="492" width="88" height="183" rx="8" fill="rgba(8,18,38,0.58)" stroke="hsl(308, 70%, 52%)" opacity="0.72"/><rect x="851" y="512" width="65" height="5" rx="2" fill="rgba(120,240,255,0.22)"/><rect x="853" y="535" width="68" height="5" rx="2" fill="rgba(120,240,255,0.22)"/><rect x="850" y="558" width="61" height="5" rx="2" fill="rgba(120,240,255,0.22)"/><rect x="853" y="596" width="60" height="5" rx="2" fill="rgba(120,240,255,0.22)"/></g><g><rect x="92" y="458" width="45" height="217" rx="8" fill="rgba(8,18,38,0.58)" stroke="hsl(313, 70%, 52%)" opacity="0.72"/><rect x="107" y="478" width="22" height="5" rx="2" fill="rgba(120,240,255,0.22)"/><rect x="105" y="501" width="25" height="5" rx="2" fill="rgba(120,240,255,0.22)"/><rect x="104" y="526" width="18" height="5" rx="2" fill="rgba(120,240,255,0.22)"/><rect x="105" y="544" width="19" height="5" rx="2" fill="rgba(120,240,255,0.22)"/><rect x="108" y="570" width="24" height="5" rx="2" fill="rgba(120,240,255,0.22)"/></g><g><rect x="1083" y="403" width="80" height="272" rx="8" fill="rgba(8,18,38,0.58)" stroke="hsl(318, 70%, 52%)" opacity="0.72"/><rect x="1091" y="423" width="58" height="5" rx="2" fill="rgba(120,240,255,0.22)"/><rect x="1097" y="446" width="57" height="5" rx="2" fill="rgba(120,240,255,0.22)"/><rect x="1095" y="469" width="59" height="5" rx="2" fill="rgba(120,240,255,0.22)"/><rect x="1099" y="477" width="52" height="5" rx="2" fill="rgba(120,240,255,0.22)"/></g><g><rect x="412" y="398" width="59" height="277" rx="8" fill="rgba(8,18,38,0.58)" stroke="hsl(323, 70%, 52%)" opacity="0.72"/><rect x="420" y="418" width="36" height="5" rx="2" fill="rgba(120,240,255,0.22)"/><rect x="423" y="436" width="35" height="5" rx="2" fill="rgba(120,240,255,0.22)"/><rect x="428" y="462" width="39" height="5" rx="2" fill="rgba(120,240,255,0.22)"/><rect x="421" y="472" width="41" height="5" rx="2" fill="rgba(120,240,255,0.22)"/><rect x="426" y="506" width="35" height="5" rx="2" fill="rgba(120,240,255,0.22)"/></g><g><rect x="479" y="338" width="63" height="337" rx="8" fill="rgba(8,18,38,0.58)" stroke="hsl(328, 70%, 52%)" opacity="0.72"/><rect x="487" y="358" width="41" height="5" rx="2" fill="rgba(120,240,255,0.22)"/><rect x="492" y="379" width="36" height="5" rx="2" fill="rgba(120,240,255,0.22)"/><rect x="492" y="408" width="45" height="5" rx="2" fill="rgba(120,240,255,0.22)"/><rect x="491" y="421" width="44" height="5" rx="2" fill="rgba(120,240,255,0.22)"/><rect x="495" y="454" width="47" height="5" rx="2" fill="rgba(120,240,255,0.22)"/><rect x="492" y="463" width="46" height="5" rx="2" fill="rgba(120,240,255,0.22)"/><rect x="492" y="484" width="47" height="5" rx="2" fill="rgba(120,240,255,0.22)"/><rect x="494" y="547" width="44" height="5" rx="2" fill="rgba(120,240,255,0.22)"/></g><g><rect x="413" y="332" width="62" height="343" rx="8" fill="rgba(8,18,38,0.58)" stroke="hsl(333, 70%, 52%)" opacity="0.72"/><rect x="426" y="352" width="46" height="5" rx="2" fill="rgba(120,240,255,0.22)"/><rect x="424" y="371" width="45" height="5" rx="2" fill="rgba(120,240,255,0.22)"/><rect x="422" y="394" width="34" height="5" rx="2" fill="rgba(120,240,255,0.22)"/><rect x="428" y="427" width="34" height="5" rx="2" fill="rgba(120,240,255,0.22)"/><rect x="429" y="452" width="37" height="5" rx="2" fill="rgba(120,240,255,0.22)"/><rect x="425" y="472" width="38" height="5" rx="2" fill="rgba(120,240,255,0.22)"/><rect x="422" y="466" width="40" height="5" rx="2" fill="rgba(120,240,255,0.22)"/><rect x="425" y="513" width="46" height="5" rx="2" fill="rgba(120,240,255,0.22)"/><rect x="427" y="504" width="42" height="5" rx="2" fill="rgba(120,240,255,0.22)"/><rect x="424" y="604" width="46" height="5" rx="2" fill="rgba(120,240,255,0.22)"/></g><g><rect x="971" y="391" width="73" height="284" rx="8" fill="rgba(8,18,38,0.58)" stroke="hsl(338, 70%, 52%)" opacity="0.72"/><rect x="982" y="411" width="53" height="5" rx="2" fill="rgba(120,240,255,0.22)"/><rect x="980" y="435" width="46" height="5" rx="2" fill="rgba(120,240,255,0.22)"/><rect x="984" y="455" width="55" height="5" rx="2" fill="rgba(120,240,255,0.22)"/><rect x="980" y="480" width="47" height="5" rx="2" fill="rgba(120,240,255,0.22)"/></g><g><rect x="158" y="398" width="65" height="277" rx="8" fill="rgba(8,18,38,0.58)" stroke="hsl(343, 70%, 52%)" opacity="0.72"/><rect x="166" y="418" width="40" height="5" rx="2" fill="rgba(120,240,255,0.22)"/><rect x="170" y="444" width="48" height="5" rx="2" fill="rgba(120,240,255,0.22)"/><rect x="168" y="464" width="47" height="5" rx="2" fill="rgba(120,240,255,0.22)"/><rect x="172" y="484" width="40" height="5" rx="2" fill="rgba(120,240,255,0.22)"/><rect x="166" y="514" width="49" height="5" rx="2" fill="rgba(120,240,255,0.22)"/><rect x="172" y="553" width="47" height="5" rx="2" fill="rgba(120,240,255,0.22)"/></g><g><rect x="614" y="437" width="44" height="238" rx="8" fill="rgba(8,18,38,0.58)" stroke="hsl(348, 70%, 52%)" opacity="0.72"/><rect x="629" y="457" width="28" height="5" rx="2" fill="rgba(120,240,255,0.22)"/><rect x="629" y="481" width="26" height="5" rx="2" fill="rgba(120,240,255,0.22)"/><rect x="628" y="493" width="23" height="5" rx="2" fill="rgba(120,240,255,0.22)"/><rect x="625" y="532" width="22" height="5" rx="2" fill="rgba(120,240,255,0.22)"/><rect x="622" y="569" width="18" height="5" rx="2" fill="rgba(120,240,255,0.22)"/><rect x="628" y="597" width="26" height="5" rx="2" fill="rgba(120,240,255,0.22)"/><rect x="630" y="589" width="23" height="5" rx="2" fill="rgba(120,240,255,0.22)"/></g></g>
  <g id="scene-sparkles"><circle cx="319" cy="480" r="2.82" fill="rgba(180,240,255,0.43)"/><circle cx="1084" cy="451" r="2.72" fill="rgba(180,240,255,0.37)"/><circle cx="345" cy="372" r="2.00" fill="rgba(180,240,255,0.44)"/><circle cx="1053" cy="108" r="2.73" fill="rgba(180,240,255,0.22)"/><circle cx="555" cy="390" r="2.66" fill="rgba(180,240,255,0.32)"/><circle cx="972" cy="270" r="1.96" fill="rgba(180,240,255,0.28)"/><circle cx="430" cy="422" r="2.74" fill="rgba(180,240,255,0.19)"/><circle cx="434" cy="209" r="1.20" fill="rgba(180,240,255,0.27)"/><circle cx="21" cy="53" r="2.51" fill="rgba(180,240,255,0.41)"/><circle cx="881" cy="55" r="2.26" fill="rgba(180,240,255,0.43)"/><circle cx="315" cy="643" r="1.68" fill="rgba(180,240,255,0.37)"/><circle cx="619" cy="174" r="1.53" fill="rgba(180,240,255,0.30)"/><circle cx="1175" cy="572" r="2.07" fill="rgba(180,240,255,0.31)"/><circle cx="1166" cy="328" r="3.37" fill="rgba(180,240,255,0.29)"/><circle cx="956" cy="327" r="1.88" fill="rgba(180,240,255,0.41)"/><circle cx="614" cy="610" r="1.13" fill="rgba(180,240,255,0.31)"/><circle cx="386" cy="324" r="1.89" fill="rgba(180,240,255,0.38)"/><circle cx="219" cy="190" r="1.59" fill="rgba(180,240,255,0.36)"/><circle cx="673" cy="355" r="2.73" fill="rgba(180,240,255,0.31)"/><circle cx="832" cy="626" r="1.14" fill="rgba(180,240,255,0.21)"/><circle cx="691" cy="122" r="2.66" fill="rgba(180,240,255,0.19)"/></g>
  <rect width="1200" height="675" fill="rgba(190,220,255,0.06)"/>
  <rect width="1200" height="675" filter="url(#grain-24)"/>
  <rect width="1200" height="675" fill="url(#vignette-24)"/>
  <rect x="20" y="20" width="1160" height="635" rx="32" fill="none" stroke="rgba(155,220,255,0.24)"/>
</svg>