<?xml version="1.0" encoding="UTF-8"?>
<svg xmlns="http://www.w3.org/2000/svg" width="1200" height="675" viewBox="0 0 1200 675" role="img" aria-label="AIGC fallback cover 51" data-scene="scene-1">
  <defs>
    <linearGradient id="bg-51" x1="0" y1="0" x2="1" y2="1">
      <stop offset="0%" stop-color="hsl(315, 82%, 16%)"/>
      <stop offset="52%" stop-color="hsl(357, 84%, 23%)"/>
      <stop offset="100%" stop-color="hsl(126, 78%, 12%)"/>
    </linearGradient>
    <filter id="blur-51" x="-25%" y="-25%" width="150%" height="150%">
      <feGaussianBlur stdDeviation="26"/>
    </filter>
    <filter id="soft-51" x="-25%" y="-25%" width="150%" height="150%">
      <feGaussianBlur stdDeviation="10"/>
    </filter>
    <filter id="grain-51" x="0%" y="0%" width="100%" height="100%">
      <feTurbulence type="fractalNoise" baseFrequency="0.9" numOctaves="2" seed="663" stitchTiles="stitch"/>
      <feColorMatrix type="saturate" values="0"/>
      <feComponentTransfer>
        <feFuncA type="table" tableValues="0 0.05"/>
      </feComponentTransfer>
    </filter>
    <radialGradient id="vignette-51" cx="50%" cy="45%" r="70%">
      <stop offset="60%" stop-color="rgba(0,0,0,0)"/>
      <stop offset="100%" stop-color="rgba(0,0,0,0.45)"/>
    </radialGradient>
  </defs>

  <rect width="1200" height="675" fill="url(#bg-51)"/>
  <circle cx="481" cy="148" r="98" fill="hsl(315, 92%, 62%)" opacity="0.09" filter="url(#blur-51)"/><circle cx="975" cy="591" r="149" fill="hsl(341, 92%, 62%)" opacity="0.10" filter="url(#blur-51)"/><circle cx="913" cy="357" r="161" fill="hsl(367, 92%, 62%)" opacity="0.08" filter="url(#blur-51)"/>
  <circle cx="1122" cy="109" r="51" fill="rgba(210,240,255,0.12)" filter="url(#soft-51)"/><circle cx="992" cy="239" r="62" fill="rgba(210,240,255,0.09)" filter="url(#soft-51)"/><circle cx="749" cy="205" r="48" fill="rgba(210,240,255,0.07)" filter="url(#soft-51)"/><circle cx="747" cy="293" r="64" fill="rgba(210,240,255,0.09)" filter="url(#soft-51)"/><circle cx="425" cy="439" r="60" fill="rgba(210,240,255,0.07)" filter="url(#soft-51)"/><circle cx="227" cy="34" r="41" fill="rgba(210,240,255,0.08)" filter="url(#soft-51)"/><circle cx="111" cy="449" r="24" fill="rgba(210,240,255,0.08)" filter="url(#soft-51)"/><circle cx="521" cy="313" r="33" fill="rgba(210,240,255,0.09)" filter="url(#soft-51)"/><circle cx="803" cy="458" r="42" fill="rgba(210,240,255,0.06)" filter="url(#soft-51)"/>
  <polygon points="0,675 1200,675 1329,418 -129,418" fill="rgba(8,16,28,0.35)"/>
  <g id="scene-nodes"><line x1="731" y1="250" x2="1027" y2="213" stroke="rgba(145,245,255,0.64)" stroke-width="4"/><line x1="1027" y1="213" x2="1078" y2="294" stroke="rgba(145,245,255,0.64)" stroke-width="2"/><line x1="731" y1="250" x2="1003" y2="215" stroke="rgba(145,245,255,0.64)" stroke-width="3"/><line x1="1003" y1="215" x2="1015" y2="263" stroke="rgba(145,245,255,0.64)" stroke-width="2"/><circle cx="731" cy="250" r="18" fill="hsl(315, 88%, 72%)" opacity="0.86"/><circle cx="1027" cy="213" r="16" fill="hsl(324, 88%, 72%)" opacity="0.86"/><circle cx="1078" cy="294" r="9" fill="hsl(333, 88%, 72%)" opacity="0.86"/><circle cx="1003" cy="215" r="18" fill="hsl(342, 88%, 72%)" opacity="0.86"/><circle cx="1015" cy="263" r="16" fill="hsl(351, 88%, 72%)" opacity="0.86"/></g>
  <g id="scene-sparkles"><circle cx="874" cy="280" r="2.51" fill="rgba(180,240,255,0.39)"/><circle cx="286" cy="267" r="1.48" fill="rgba(180,240,255,0.30)"/><circle cx="987" cy="393" r="2.74" fill="rgba(180,240,255,0.39)"/><circle cx="241" cy="443" r="3.18" fill="rgba(180,240,255,0.32)"/><circle cx="884" cy="497" r="3.10" fill="rgba(180,240,255,0.18)"/><circle cx="765" cy="335" r="1.94" fill="rgba(180,240,255,0.31)"/><circle cx="430" cy="162" r="1.42" fill="rgba(180,240,255,0.43)"/><circle cx="98" cy="53" r="2.33" fill="rgba(180,240,255,0.29)"/><circle cx="715" cy="194" r="1.14" fill="rgba(180,240,255,0.18)"/><circle cx="1134" cy="358" r="1.17" fill="rgba(180,240,255,0.42)"/><circle cx="796" cy="20" r="1.87" fill="rgba(180,240,255,0.32)"/><circle cx="121" cy="482" r="1.63" fill="rgba(180,240,255,0.31)"/><circle cx="322" cy="58" r="1.71" fill="rgba(180,240,255,0.42)"/><circle cx="73" cy="54" r="1.15" fill="rgba(180,240,255,0.21)"/><circle cx="331" cy="383" r="1.41" fill="rgba(180,240,255,0.45)"/><circle cx="734" cy="100" r="1.78" fill="rgba(180,240,255,0.19)"/><circle cx="801" cy="403" r="3.22" fill="rgba(180,240,255,0.38)"/><circle cx="138" cy="438" r="3.28" fill="rgba(180,240,255,0.26)"/><circle cx="544" cy="405" r="1.70" fill="rgba(180,240,255,0.19)"/><circle cx="205" cy="537" r="2.25" fill="rgba(180,240,255,0.15)"/><circle cx="923" cy="404" r="2.57" fill="rgba(180,240,255,0.28)"/><circle cx="503" cy="631" r="2.72" fill="rgba(180,240,255,0.40)"/><circle cx="804" cy="615" r="2.40" fill="rgba(180,240,255,0.38)"/><circle cx="893" cy="180" r="2.39" fill="rgba(180,240,255,0.16)"/><circle cx="533" cy="328" r="2.69" fill="rgba(180,240,255,0.24)"/><circle cx="1094" cy="471" r="2.68" fill="rgba(180,240,255,0.26)"/><circle cx="467" cy="115" r="1.37" fill="rgba(180,240,255,0.16)"/><circle cx="882" cy="102" r="2.88" fill="rgba(180,240,255,0.34)"/></g>
  <rect width="1200" height="675" fill="rgba(190,220,255,0.06)"/>
  <rect width="1200" height="675" filter="url(#grain-51)"/>
  <rect width="1200" height="675" fill="url(#vignette-51)"/>
  <rect x="20" y="20" width="1160" height="635" rx="32" fill="none" stroke="rgba(155,220,255,0.24)"/>
</svg>