<?xml version="1.0" encoding="UTF-8"?>
<svg xmlns="http://www.w3.org/2000/svg" width="1200" height="675" viewBox="0 0 1200 675" role="img" aria-label="AIGC fallback cover 55" data-scene="scene-5">
  <defs>
    <linearGradient id="bg-55" x1="0" y1="0" x2="1" y2="1">
      <stop offset="0%" stop-color="hsl(117, 82%, 16%)"/>
      <stop offset="52%" stop-color="hsl(164, 84%, 23%)"/>
      <stop offset="100%" stop-color="hsl(248, 78%, 12%)"/>
    </linearGradient>
    <filter id="blur-55" x="-25%" y="-25%" width="150%" height="150%">
      <feGaussianBlur stdDeviation="26"/>
    </filter>
    <filter id="soft-55" x="-25%" y="-25%" width="150%" height="150%">
      <feGaussianBlur stdDeviation="10"/>
    </filter>
    <filter id="grain-55" x="0%" y="0%" width="100%" height="100%">
      <feTurbulence type="fractalNoise" baseFrequency="0.9" numOctaves="2" seed="715" stitchTiles="stitch"/>
      <feColorMatrix type="saturate" values="0"/>
      <feComponentTransfer>
        <feFuncA type="table" tableValues="0 0.05"/>
      </feComponentTransfer>
    </filter>
    <radialGradient id="vignette-55" cx="50%" cy="45%" r="70%">
      <stop offset="60%" stop-color="rgba(0,0,0,0)"/>
      <stop offset="100%" stop-color="rgba(0,0,0,0.45)"/>
    </radialGradient>
  </defs>

  <rect width="1200" height="675" fill="url(#bg-55)"/>
  <circle cx="203" cy="583" r="173" fill="hsl(117, 92%, 62%)" opacity="0.11" filter="url(#blur-55)"/><circle cx="142" cy="454" r="149" fill="hsl(143, 92%, 62%)" opacity="0.18" filter="url(#blur-55)"/><circle cx="857" cy="225" r="203" fill="hsl(169, 92%, 62%)" opacity="0.13" filter="url(#blur-55)"/>
  <circle cx="771" cy="327" r="52" fill="rgba(210,240,255,0.16)" filter="url(#soft-55)"/><circle cx="684" cy="251" r="50" fill="rgba(210,240,255,0.14)" filter="url(#soft-55)"/><circle cx="567" cy="335" r="54" fill="rgba(210,240,255,0.15)" filter="url(#soft-55)"/><circle cx="1060" cy="91" r="57" fill="rgba(210,240,255,0.14)" filter="url(#soft-55)"/><circle cx="422" cy="162" r="34" fill="rgba(210,240,255,0.16)" filter="url(#soft-55)"/><circle cx="192" cy="306" r="66" fill="rgba(210,240,255,0.11)" filter="url(#soft-55)"/>
  <polygon points="0,675 1200,675 1373,373 -173,373" fill="rgba(8,16,28,0.35)"/>
  <g id="scene-wave"><path d="M 0 240 C 113.5 177, 340.5 303, 454 240 S 794.5 177, 908 240" transform="translate(200,0) scale(2.1598899679956958,1)" fill="none" stroke="rgba(132,236,255,0.22)" stroke-width="4"/><path d="M 0 222 C 116 161, 348 283, 464 222 S 812 161, 928 222" transform="translate(210,0) scale(1.272909204591997,1)" fill="none" stroke="rgba(132,236,255,0.30)" stroke-width="3"/><path d="M 0 212 C 119 157, 357 267, 476 212 S 833 157, 952 212" transform="translate(-17,0) scale(1.933691016631201,1)" fill="none" stroke="rgba(132,236,255,0.39)" stroke-width="4"/><path d="M 0 224 C 58.75 180, 176.25 268, 235 224 S 411.25 180, 470 224" transform="translate(108,0) scale(1.7321818281430752,1)" fill="none" stroke="rgba(132,236,255,0.24)" stroke-width="7"/><path d="M 0 489 C 50 448, 150 530, 200 489 S 350 448, 400 489" transform="translate(162,0) scale(1.6841950040543452,1)" fill="none" stroke="rgba(132,236,255,0.29)" stroke-width="5"/><path d="M 0 407 C 91.25 371, 273.75 443, 365 407 S 638.75 371, 730 407" transform="translate(10,0) scale(2.036939095845446,1)" fill="none" stroke="rgba(132,236,255,0.37)" stroke-width="3"/></g>
  <g id="scene-sparkles"><circle cx="398" cy="368" r="2.47" fill="rgba(180,240,255,0.43)"/><circle cx="919" cy="489" r="1.14" fill="rgba(180,240,255,0.24)"/><circle cx="442" cy="596" r="3.14" fill="rgba(180,240,255,0.38)"/><circle cx="1078" cy="542" r="2.48" fill="rgba(180,240,255,0.31)"/><circle cx="428" cy="307" r="1.76" fill="rgba(180,240,255,0.29)"/><circle cx="818" cy="194" r="1.73" fill="rgba(180,240,255,0.33)"/><circle cx="677" cy="608" r="2.28" fill="rgba(180,240,255,0.43)"/><circle cx="663" cy="398" r="2.52" fill="rgba(180,240,255,0.44)"/><circle cx="847" cy="610" r="3.36" fill="rgba(180,240,255,0.32)"/><circle cx="81" cy="95" r="2.64" fill="rgba(180,240,255,0.27)"/><circle cx="894" cy="166" r="2.19" fill="rgba(180,240,255,0.27)"/><circle cx="857" cy="645" r="2.55" fill="rgba(180,240,255,0.33)"/><circle cx="482" cy="469" r="1.17" fill="rgba(180,240,255,0.29)"/><circle cx="92" cy="587" r="1.30" fill="rgba(180,240,255,0.45)"/><circle cx="380" cy="296" r="3.11" fill="rgba(180,240,255,0.26)"/><circle cx="318" cy="72" r="2.01" fill="rgba(180,240,255,0.15)"/><circle cx="1172" cy="448" r="1.14" fill="rgba(180,240,255,0.39)"/><circle cx="594" cy="189" r="1.78" fill="rgba(180,240,255,0.41)"/><circle cx="114" cy="62" r="3.26" fill="rgba(180,240,255,0.18)"/><circle cx="159" cy="496" r="3.17" fill="rgba(180,240,255,0.33)"/><circle cx="97" cy="87" r="2.10" fill="rgba(180,240,255,0.43)"/><circle cx="863" cy="554" r="2.98" fill="rgba(180,240,255,0.23)"/><circle cx="348" cy="390" r="3.01" fill="rgba(180,240,255,0.44)"/><circle cx="601" cy="57" r="3.28" fill="rgba(180,240,255,0.44)"/><circle cx="462" cy="91" r="1.26" fill="rgba(180,240,255,0.28)"/><circle cx="368" cy="414" r="1.19" fill="rgba(180,240,255,0.17)"/><circle cx="570" cy="72" r="1.46" fill="rgba(180,240,255,0.28)"/></g>
  <rect width="1200" height="675" fill="rgba(190,220,255,0.06)"/>
  <rect width="1200" height="675" filter="url(#grain-55)"/>
  <rect width="1200" height="675" fill="url(#vignette-55)"/>
  <rect x="20" y="20" width="1160" height="635" rx="32" fill="none" stroke="rgba(155,220,255,0.24)"/>
</svg>