<?xml version="1.0" encoding="UTF-8"?>
<svg xmlns="http://www.w3.org/2000/svg" width="1200" height="675" viewBox="0 0 1200 675" role="img" aria-label="AIGC fallback cover 50" data-scene="scene-10">
  <defs>
    <linearGradient id="bg-50" x1="0" y1="0" x2="1" y2="1">
      <stop offset="0%" stop-color="hsl(257, 82%, 16%)"/>
      <stop offset="52%" stop-color="hsl(331, 84%, 23%)"/>
      <stop offset="100%" stop-color="hsl(73, 78%, 12%)"/>
    </linearGradient>
    <filter id="blur-50" x="-25%" y="-25%" width="150%" height="150%">
      <feGaussianBlur stdDeviation="26"/>
    </filter>
    <filter id="soft-50" x="-25%" y="-25%" width="150%" height="150%">
      <feGaussianBlur stdDeviation="10"/>
    </filter>
    <filter id="grain-50" x="0%" y="0%" width="100%" height="100%">
      <feTurbulence type="fractalNoise" baseFrequency="0.9" numOctaves="2" seed="650" stitchTiles="stitch"/>
      <feColorMatrix type="saturate" values="0"/>
      <feComponentTransfer>
        <feFuncA type="table" tableValues="0 0.05"/>
      </feComponentTransfer>
    </filter>
    <radialGradient id="vignette-50" cx="50%" cy="45%" r="70%">
      <stop offset="60%" stop-color="rgba(0,0,0,0)"/>
      <stop offset="100%" stop-color="rgba(0,0,0,0.45)"/>
    </radialGradient>
  </defs>

  <rect width="1200" height="675" fill="url(#bg-50)"/>
  <circle cx="320" cy="120" r="95" fill="hsl(257, 92%, 62%)" opacity="0.13" filter="url(#blur-50)"/><circle cx="596" cy="340" r="151" fill="hsl(283, 92%, 62%)" opacity="0.15" filter="url(#blur-50)"/><circle cx="683" cy="140" r="150" fill="hsl(309, 92%, 62%)" opacity="0.17" filter="url(#blur-50)"/>
  <circle cx="909" cy="56" r="31" fill="rgba(210,240,255,0.16)" filter="url(#soft-50)"/><circle cx="617" cy="96" r="47" fill="rgba(210,240,255,0.13)" filter="url(#soft-50)"/><circle cx="1018" cy="234" r="30" fill="rgba(210,240,255,0.16)" filter="url(#soft-50)"/><circle cx="689" cy="208" r="30" fill="rgba(210,240,255,0.14)" filter="url(#soft-50)"/><circle cx="646" cy="371" r="36" fill="rgba(210,240,255,0.06)" filter="url(#soft-50)"/><circle cx="1116" cy="340" r="31" fill="rgba(210,240,255,0.07)" filter="url(#soft-50)"/><circle cx="893" cy="227" r="58" fill="rgba(210,240,255,0.10)" filter="url(#soft-50)"/><circle cx="1038" cy="446" r="69" fill="rgba(210,240,255,0.14)" filter="url(#soft-50)"/>
  <polygon points="0,675 1200,675 1121,395 79,395" fill="rgba(8,16,28,0.35)"/>
  <g id="scene-robot-arms"><g><circle cx="480" cy="386" r="16" fill="rgba(120,215,255,0.75)"/><line x1="480" y1="386" x2="304" y2="268" stroke="rgba(145,235,255,0.62)" stroke-width="9" stroke-linecap="round"/><line x1="304" y1="268" x2="245" y2="155" stroke="rgba(120,255,220,0.6)" stroke-width="7" stroke-linecap="round"/><circle cx="304" cy="268" r="10" fill="rgba(150,245,255,0.8)"/><circle cx="245" cy="155" r="8" fill="rgba(120,255,220,0.86)"/></g><g><circle cx="601" cy="475" r="16" fill="rgba(120,215,255,0.75)"/><line x1="601" y1="475" x2="432" y2="290" stroke="rgba(145,235,255,0.62)" stroke-width="8" stroke-linecap="round"/><line x1="432" y1="290" x2="457" y2="163" stroke="rgba(120,255,220,0.6)" stroke-width="7" stroke-linecap="round"/><circle cx="432" cy="290" r="10" fill="rgba(150,245,255,0.8)"/><circle cx="457" cy="163" r="8" fill="rgba(120,255,220,0.86)"/></g><g><circle cx="497" cy="434" r="16" fill="rgba(120,215,255,0.75)"/><line x1="497" y1="434" x2="389" y2="283" stroke="rgba(145,235,255,0.62)" stroke-width="13" stroke-linecap="round"/><line x1="389" y1="283" x2="308" y2="205" stroke="rgba(120,255,220,0.6)" stroke-width="6" stroke-linecap="round"/><circle cx="389" cy="283" r="10" fill="rgba(150,245,255,0.8)"/><circle cx="308" cy="205" r="8" fill="rgba(120,255,220,0.86)"/></g></g>
  <g id="scene-sparkles"><circle cx="305" cy="174" r="2.97" fill="rgba(180,240,255,0.42)"/><circle cx="1013" cy="76" r="2.45" fill="rgba(180,240,255,0.22)"/><circle cx="418" cy="620" r="1.97" fill="rgba(180,240,255,0.34)"/><circle cx="405" cy="73" r="1.15" fill="rgba(180,240,255,0.24)"/><circle cx="144" cy="83" r="2.16" fill="rgba(180,240,255,0.40)"/><circle cx="906" cy="222" r="2.14" fill="rgba(180,240,255,0.41)"/><circle cx="673" cy="298" r="1.89" fill="rgba(180,240,255,0.33)"/><circle cx="1089" cy="475" r="1.73" fill="rgba(180,240,255,0.17)"/><circle cx="612" cy="378" r="2.26" fill="rgba(180,240,255,0.36)"/><circle cx="1022" cy="242" r="2.10" fill="rgba(180,240,255,0.37)"/><circle cx="751" cy="412" r="1.67" fill="rgba(180,240,255,0.39)"/><circle cx="866" cy="371" r="2.13" fill="rgba(180,240,255,0.43)"/><circle cx="499" cy="624" r="2.05" fill="rgba(180,240,255,0.33)"/><circle cx="423" cy="535" r="2.00" fill="rgba(180,240,255,0.24)"/><circle cx="926" cy="211" r="2.76" fill="rgba(180,240,255,0.25)"/><circle cx="903" cy="350" r="2.91" fill="rgba(180,240,255,0.31)"/><circle cx="54" cy="287" r="2.30" fill="rgba(180,240,255,0.37)"/><circle cx="436" cy="435" r="2.15" fill="rgba(180,240,255,0.21)"/><circle cx="663" cy="399" r="1.73" fill="rgba(180,240,255,0.25)"/><circle cx="446" cy="562" r="1.20" fill="rgba(180,240,255,0.38)"/></g>
  <rect width="1200" height="675" fill="rgba(190,220,255,0.06)"/>
  <rect width="1200" height="675" filter="url(#grain-50)"/>
  <rect width="1200" height="675" fill="url(#vignette-50)"/>
  <rect x="20" y="20" width="1160" height="635" rx="32" fill="none" stroke="rgba(155,220,255,0.24)"/>
</svg>