<?xml version="1.0" encoding="UTF-8"?>
<svg xmlns="http://www.w3.org/2000/svg" width="1200" height="675" viewBox="0 0 1200 675" role="img" aria-label="AIGC fallback cover 87" data-scene="scene-7">
  <defs>
    <linearGradient id="bg-87" x1="0" y1="0" x2="1" y2="1">
      <stop offset="0%" stop-color="hsl(359, 82%, 16%)"/>
      <stop offset="52%" stop-color="hsl(70, 84%, 23%)"/>
      <stop offset="100%" stop-color="hsl(183, 78%, 12%)"/>
    </linearGradient>
    <filter id="blur-87" x="-25%" y="-25%" width="150%" height="150%">
      <feGaussianBlur stdDeviation="26"/>
    </filter>
    <filter id="soft-87" x="-25%" y="-25%" width="150%" height="150%">
      <feGaussianBlur stdDeviation="10"/>
    </filter>
    <filter id="grain-87" x="0%" y="0%" width="100%" height="100%">
      <feTurbulence type="fractalNoise" baseFrequency="0.9" numOctaves="2" seed="1131" stitchTiles="stitch"/>
      <feColorMatrix type="saturate" values="0"/>
      <feComponentTransfer>
        <feFuncA type="table" tableValues="0 0.05"/>
      </feComponentTransfer>
    </filter>
    <radialGradient id="vignette-87" cx="50%" cy="45%" r="70%">
      <stop offset="60%" stop-color="rgba(0,0,0,0)"/>
      <stop offset="100%" stop-color="rgba(0,0,0,0.45)"/>
    </radialGradient>
  </defs>

  <rect width="1200" height="675" fill="url(#bg-87)"/>
  <circle cx="908" cy="466" r="147" fill="hsl(359, 92%, 62%)" opacity="0.10" filter="url(#blur-87)"/><circle cx="773" cy="295" r="215" fill="hsl(385, 92%, 62%)" opacity="0.14" filter="url(#blur-87)"/><circle cx="125" cy="95" r="179" fill="hsl(411, 92%, 62%)" opacity="0.15" filter="url(#blur-87)"/>
  <circle cx="372" cy="333" r="60" fill="rgba(210,240,255,0.07)" filter="url(#soft-87)"/><circle cx="685" cy="133" r="23" fill="rgba(210,240,255,0.07)" filter="url(#soft-87)"/><circle cx="1111" cy="65" r="29" fill="rgba(210,240,255,0.08)" filter="url(#soft-87)"/><circle cx="670" cy="254" r="40" fill="rgba(210,240,255,0.06)" filter="url(#soft-87)"/><circle cx="141" cy="112" r="63" fill="rgba(210,240,255,0.15)" filter="url(#soft-87)"/><circle cx="677" cy="266" r="52" fill="rgba(210,240,255,0.13)" filter="url(#soft-87)"/><circle cx="215" cy="246" r="20" fill="rgba(210,240,255,0.13)" filter="url(#soft-87)"/><circle cx="684" cy="81" r="23" fill="rgba(210,240,255,0.07)" filter="url(#soft-87)"/><circle cx="983" cy="414" r="23" fill="rgba(210,240,255,0.13)" filter="url(#soft-87)"/><circle cx="900" cy="239" r="49" fill="rgba(210,240,255,0.09)" filter="url(#soft-87)"/>
  <polygon points="0,675 1200,675 1220,406 -20,406" fill="rgba(8,16,28,0.35)"/>
  <g id="scene-orbits"><ellipse cx="596" cy="277" rx="142" ry="71" fill="none" stroke="rgba(140,230,255,0.28)" stroke-width="2" transform="rotate(4 596 277)"/><ellipse cx="596" cy="277" rx="184" ry="79" fill="none" stroke="rgba(140,230,255,0.28)" stroke-width="2" transform="rotate(3 596 277)"/><ellipse cx="596" cy="277" rx="220" ry="138" fill="none" stroke="rgba(140,230,255,0.28)" stroke-width="2" transform="rotate(-11 596 277)"/><ellipse cx="596" cy="277" rx="307" ry="144" fill="none" stroke="rgba(140,230,255,0.28)" stroke-width="2" transform="rotate(-6 596 277)"/><circle cx="463" cy="372" r="7" fill="hsl(359, 88%, 72%)" opacity="0.85"/><circle cx="591" cy="398" r="7" fill="hsl(371, 88%, 72%)" opacity="0.85"/><circle cx="742" cy="275" r="9" fill="hsl(383, 88%, 72%)" opacity="0.85"/><circle cx="545" cy="372" r="6" fill="hsl(395, 88%, 72%)" opacity="0.85"/><circle cx="336" cy="297" r="12" fill="hsl(407, 88%, 72%)" opacity="0.85"/><circle cx="356" cy="307" r="7" fill="hsl(419, 88%, 72%)" opacity="0.85"/><circle cx="635" cy="359" r="7" fill="hsl(431, 88%, 72%)" opacity="0.85"/></g>
  <g id="scene-sparkles"><circle cx="855" cy="113" r="2.53" fill="rgba(180,240,255,0.15)"/><circle cx="662" cy="41" r="2.48" fill="rgba(180,240,255,0.39)"/><circle cx="315" cy="378" r="1.57" fill="rgba(180,240,255,0.32)"/><circle cx="819" cy="612" r="1.93" fill="rgba(180,240,255,0.18)"/><circle cx="727" cy="108" r="3.38" fill="rgba(180,240,255,0.36)"/><circle cx="601" cy="50" r="1.46" fill="rgba(180,240,255,0.35)"/><circle cx="121" cy="332" r="2.45" fill="rgba(180,240,255,0.37)"/><circle cx="543" cy="208" r="2.82" fill="rgba(180,240,255,0.22)"/><circle cx="351" cy="438" r="2.12" fill="rgba(180,240,255,0.44)"/><circle cx="1119" cy="56" r="3.29" fill="rgba(180,240,255,0.15)"/><circle cx="293" cy="390" r="2.35" fill="rgba(180,240,255,0.45)"/><circle cx="51" cy="169" r="1.14" fill="rgba(180,240,255,0.17)"/><circle cx="433" cy="523" r="1.76" fill="rgba(180,240,255,0.26)"/><circle cx="555" cy="247" r="2.10" fill="rgba(180,240,255,0.21)"/><circle cx="937" cy="113" r="1.50" fill="rgba(180,240,255,0.44)"/><circle cx="73" cy="531" r="2.10" fill="rgba(180,240,255,0.29)"/><circle cx="927" cy="451" r="3.01" fill="rgba(180,240,255,0.41)"/><circle cx="467" cy="511" r="2.18" fill="rgba(180,240,255,0.16)"/><circle cx="724" cy="274" r="2.12" fill="rgba(180,240,255,0.37)"/><circle cx="474" cy="150" r="1.85" fill="rgba(180,240,255,0.31)"/><circle cx="619" cy="70" r="3.39" fill="rgba(180,240,255,0.17)"/><circle cx="88" cy="641" r="1.71" fill="rgba(180,240,255,0.18)"/><circle cx="389" cy="567" r="3.40" fill="rgba(180,240,255,0.25)"/><circle cx="845" cy="288" r="3.11" fill="rgba(180,240,255,0.23)"/><circle cx="480" cy="77" r="1.85" fill="rgba(180,240,255,0.32)"/><circle cx="532" cy="118" r="3.20" fill="rgba(180,240,255,0.30)"/><circle cx="297" cy="410" r="2.53" fill="rgba(180,240,255,0.16)"/></g>
  <rect width="1200" height="675" fill="rgba(190,220,255,0.06)"/>
  <rect width="1200" height="675" filter="url(#grain-87)"/>
  <rect width="1200" height="675" fill="url(#vignette-87)"/>
  <rect x="20" y="20" width="1160" height="635" rx="32" fill="none" stroke="rgba(155,220,255,0.24)"/>
</svg>