<?xml version="1.0" encoding="UTF-8"?>
<svg xmlns="http://www.w3.org/2000/svg" width="1200" height="675" viewBox="0 0 1200 675" role="img" aria-label="AIGC fallback cover 23" data-scene="scene-3">
  <defs>
    <linearGradient id="bg-23" x1="0" y1="0" x2="1" y2="1">
      <stop offset="0%" stop-color="hsl(232, 82%, 16%)"/>
      <stop offset="52%" stop-color="hsl(302, 84%, 23%)"/>
      <stop offset="100%" stop-color="hsl(346, 78%, 12%)"/>
    </linearGradient>
    <filter id="blur-23" x="-25%" y="-25%" width="150%" height="150%">
      <feGaussianBlur stdDeviation="26"/>
    </filter>
    <filter id="soft-23" x="-25%" y="-25%" width="150%" height="150%">
      <feGaussianBlur stdDeviation="10"/>
    </filter>
    <filter id="grain-23" x="0%" y="0%" width="100%" height="100%">
      <feTurbulence type="fractalNoise" baseFrequency="0.9" numOctaves="2" seed="299" stitchTiles="stitch"/>
      <feColorMatrix type="saturate" values="0"/>
      <feComponentTransfer>
        <feFuncA type="table" tableValues="0 0.05"/>
      </feComponentTransfer>
    </filter>
    <radialGradient id="vignette-23" cx="50%" cy="45%" r="70%">
      <stop offset="60%" stop-color="rgba(0,0,0,0)"/>
      <stop offset="100%" stop-color="rgba(0,0,0,0.45)"/>
    </radialGradient>
  </defs>

  <rect width="1200" height="675" fill="url(#bg-23)"/>
  <circle cx="729" cy="350" r="98" fill="hsl(232, 92%, 62%)" opacity="0.09" filter="url(#blur-23)"/><circle cx="401" cy="599" r="95" fill="hsl(258, 92%, 62%)" opacity="0.12" filter="url(#blur-23)"/><circle cx="1004" cy="100" r="130" fill="hsl(284, 92%, 62%)" opacity="0.14" filter="url(#blur-23)"/>
  <circle cx="653" cy="166" r="51" fill="rgba(210,240,255,0.15)" filter="url(#soft-23)"/><circle cx="148" cy="178" r="65" fill="rgba(210,240,255,0.14)" filter="url(#soft-23)"/><circle cx="964" cy="415" r="68" fill="rgba(210,240,255,0.13)" filter="url(#soft-23)"/><circle cx="1032" cy="219" r="21" fill="rgba(210,240,255,0.09)" filter="url(#soft-23)"/><circle cx="907" cy="310" r="66" fill="rgba(210,240,255,0.08)" filter="url(#soft-23)"/><circle cx="1081" cy="199" r="42" fill="rgba(210,240,255,0.08)" filter="url(#soft-23)"/><circle cx="615" cy="423" r="42" fill="rgba(210,240,255,0.11)" filter="url(#soft-23)"/><circle cx="546" cy="109" r="67" fill="rgba(210,240,255,0.08)" filter="url(#soft-23)"/>
  <polygon points="0,675 1200,675 1249,386 -49,386" fill="rgba(8,16,28,0.35)"/>
  <g id="scene-datacenter"><g><rect x="70" y="200" width="112" height="433" rx="10" fill="rgba(10,20,42,0.58)" stroke="rgba(130,190,255,0.45)"/><rect x="141" y="236" width="28" height="6" rx="3" fill="rgba(102,245,220,0.8)"/><rect x="139" y="425" width="31" height="6" rx="3" fill="rgba(102,245,220,0.8)"/><rect x="109" y="254" width="29" height="6" rx="3" fill="rgba(102,245,220,0.8)"/><rect x="126" y="265" width="17" height="6" rx="3" fill="rgba(102,245,220,0.8)"/><rect x="136" y="263" width="24" height="6" rx="3" fill="rgba(102,245,220,0.8)"/><rect x="90" y="544" width="33" height="6" rx="3" fill="rgba(102,245,220,0.8)"/><rect x="145" y="523" width="22" height="6" rx="3" fill="rgba(102,245,220,0.8)"/></g><g><rect x="191" y="248" width="129" height="378" rx="10" fill="rgba(10,20,42,0.58)" stroke="rgba(130,190,255,0.45)"/><rect x="225" y="552" width="32" height="6" rx="3" fill="rgba(102,245,220,0.8)"/><rect x="268" y="522" width="22" height="6" rx="3" fill="rgba(102,245,220,0.8)"/><rect x="242" y="389" width="25" height="6" rx="3" fill="rgba(102,245,220,0.8)"/><rect x="269" y="548" width="17" height="6" rx="3" fill="rgba(102,245,220,0.8)"/><rect x="243" y="423" width="16" height="6" rx="3" fill="rgba(102,245,220,0.8)"/><rect x="275" y="530" width="26" height="6" rx="3" fill="rgba(102,245,220,0.8)"/></g><g><rect x="320" y="261" width="96" height="376" rx="10" fill="rgba(10,20,42,0.58)" stroke="rgba(130,190,255,0.45)"/><rect x="354" y="596" width="31" height="6" rx="3" fill="rgba(102,245,220,0.8)"/><rect x="361" y="460" width="26" height="6" rx="3" fill="rgba(102,245,220,0.8)"/><rect x="376" y="603" width="26" height="6" rx="3" fill="rgba(102,245,220,0.8)"/><rect x="379" y="564" width="27" height="6" rx="3" fill="rgba(102,245,220,0.8)"/><rect x="338" y="612" width="22" height="6" rx="3" fill="rgba(102,245,220,0.8)"/></g><g><rect x="514" y="166" width="111" height="461" rx="10" fill="rgba(10,20,42,0.58)" stroke="rgba(130,190,255,0.45)"/><rect x="592" y="518" width="30" height="6" rx="3" fill="rgba(102,245,220,0.8)"/><rect x="589" y="330" width="17" height="6" rx="3" fill="rgba(102,245,220,0.8)"/><rect x="539" y="519" width="27" height="6" rx="3" fill="rgba(102,245,220,0.8)"/><rect x="548" y="582" width="23" height="6" rx="3" fill="rgba(102,245,220,0.8)"/><rect x="603" y="497" width="21" height="6" rx="3" fill="rgba(102,245,220,0.8)"/><rect x="602" y="286" width="33" height="6" rx="3" fill="rgba(102,245,220,0.8)"/><rect x="581" y="330" width="33" height="6" rx="3" fill="rgba(102,245,220,0.8)"/><rect x="602" y="255" width="19" height="6" rx="3" fill="rgba(102,245,220,0.8)"/><rect x="589" y="435" width="27" height="6" rx="3" fill="rgba(102,245,220,0.8)"/><rect x="585" y="512" width="30" height="6" rx="3" fill="rgba(102,245,220,0.8)"/><rect x="540" y="276" width="30" height="6" rx="3" fill="rgba(102,245,220,0.8)"/></g><g><rect x="654" y="191" width="118" height="455" rx="10" fill="rgba(10,20,42,0.58)" stroke="rgba(130,190,255,0.45)"/><rect x="753" y="345" width="31" height="6" rx="3" fill="rgba(102,245,220,0.8)"/><rect x="718" y="551" width="34" height="6" rx="3" fill="rgba(102,245,220,0.8)"/><rect x="686" y="339" width="30" height="6" rx="3" fill="rgba(102,245,220,0.8)"/><rect x="716" y="221" width="24" height="6" rx="3" fill="rgba(102,245,220,0.8)"/><rect x="707" y="587" width="28" height="6" rx="3" fill="rgba(102,245,220,0.8)"/><rect x="715" y="322" width="28" height="6" rx="3" fill="rgba(102,245,220,0.8)"/><rect x="682" y="539" width="19" height="6" rx="3" fill="rgba(102,245,220,0.8)"/><rect x="697" y="401" width="33" height="6" rx="3" fill="rgba(102,245,220,0.8)"/><rect x="729" y="381" width="34" height="6" rx="3" fill="rgba(102,245,220,0.8)"/></g><g><rect x="705" y="281" width="93" height="364" rx="10" fill="rgba(10,20,42,0.58)" stroke="rgba(130,190,255,0.45)"/><rect x="762" y="540" width="28" height="6" rx="3" fill="rgba(102,245,220,0.8)"/><rect x="769" y="465" width="33" height="6" rx="3" fill="rgba(102,245,220,0.8)"/><rect x="773" y="593" width="22" height="6" rx="3" fill="rgba(102,245,220,0.8)"/><rect x="773" y="509" width="34" height="6" rx="3" fill="rgba(102,245,220,0.8)"/><rect x="740" y="607" width="33" height="6" rx="3" fill="rgba(102,245,220,0.8)"/><rect x="758" y="356" width="21" height="6" rx="3" fill="rgba(102,245,220,0.8)"/><rect x="747" y="336" width="21" height="6" rx="3" fill="rgba(102,245,220,0.8)"/><rect x="734" y="445" width="31" height="6" rx="3" fill="rgba(102,245,220,0.8)"/><rect x="734" y="386" width="27" height="6" rx="3" fill="rgba(102,245,220,0.8)"/><rect x="750" y="578" width="26" height="6" rx="3" fill="rgba(102,245,220,0.8)"/><rect x="755" y="486" width="28" height="6" rx="3" fill="rgba(102,245,220,0.8)"/></g></g>
  <g id="scene-sparkles"><circle cx="155" cy="336" r="1.61" fill="rgba(180,240,255,0.39)"/><circle cx="569" cy="504" r="3.01" fill="rgba(180,240,255,0.38)"/><circle cx="1070" cy="144" r="2.77" fill="rgba(180,240,255,0.30)"/><circle cx="657" cy="318" r="2.18" fill="rgba(180,240,255,0.23)"/><circle cx="1145" cy="407" r="2.43" fill="rgba(180,240,255,0.19)"/><circle cx="838" cy="315" r="2.16" fill="rgba(180,240,255,0.42)"/><circle cx="847" cy="56" r="1.83" fill="rgba(180,240,255,0.18)"/><circle cx="336" cy="613" r="2.78" fill="rgba(180,240,255,0.20)"/><circle cx="150" cy="510" r="2.18" fill="rgba(180,240,255,0.35)"/><circle cx="919" cy="623" r="2.18" fill="rgba(180,240,255,0.45)"/><circle cx="1132" cy="122" r="2.67" fill="rgba(180,240,255,0.42)"/><circle cx="338" cy="540" r="1.36" fill="rgba(180,240,255,0.28)"/><circle cx="195" cy="275" r="3.31" fill="rgba(180,240,255,0.38)"/><circle cx="66" cy="85" r="3.29" fill="rgba(180,240,255,0.41)"/><circle cx="1057" cy="374" r="2.00" fill="rgba(180,240,255,0.34)"/><circle cx="831" cy="197" r="2.16" fill="rgba(180,240,255,0.41)"/><circle cx="814" cy="489" r="1.87" fill="rgba(180,240,255,0.34)"/><circle cx="611" cy="612" r="1.57" fill="rgba(180,240,255,0.36)"/><circle cx="792" cy="160" r="1.16" fill="rgba(180,240,255,0.19)"/></g>
  <rect width="1200" height="675" fill="rgba(190,220,255,0.06)"/>
  <rect width="1200" height="675" filter="url(#grain-23)"/>
  <rect width="1200" height="675" fill="url(#vignette-23)"/>
  <rect x="20" y="20" width="1160" height="635" rx="32" fill="none" stroke="rgba(155,220,255,0.24)"/>
</svg>