<?xml version="1.0" encoding="UTF-8"?>
<svg xmlns="http://www.w3.org/2000/svg" width="1200" height="675" viewBox="0 0 1200 675" role="img" aria-label="AIGC fallback cover 79" data-scene="scene-9">
  <defs>
    <linearGradient id="bg-79" x1="0" y1="0" x2="1" y2="1">
      <stop offset="0%" stop-color="hsl(24, 82%, 16%)"/>
      <stop offset="52%" stop-color="hsl(73, 84%, 23%)"/>
      <stop offset="100%" stop-color="hsl(199, 78%, 12%)"/>
    </linearGradient>
    <filter id="blur-79" x="-25%" y="-25%" width="150%" height="150%">
      <feGaussianBlur stdDeviation="26"/>
    </filter>
    <filter id="soft-79" x="-25%" y="-25%" width="150%" height="150%">
      <feGaussianBlur stdDeviation="10"/>
    </filter>
    <filter id="grain-79" x="0%" y="0%" width="100%" height="100%">
      <feTurbulence type="fractalNoise" baseFrequency="0.9" numOctaves="2" seed="1027" stitchTiles="stitch"/>
      <feColorMatrix type="saturate" values="0"/>
      <feComponentTransfer>
        <feFuncA type="table" tableValues="0 0.05"/>
      </feComponentTransfer>
    </filter>
    <radialGradient id="vignette-79" cx="50%" cy="45%" r="70%">
      <stop offset="60%" stop-color="rgba(0,0,0,0)"/>
      <stop offset="100%" stop-color="rgba(0,0,0,0.45)"/>
    </radialGradient>
  </defs>

  <rect width="1200" height="675" fill="url(#bg-79)"/>
  <circle cx="889" cy="452" r="148" fill="hsl(24, 92%, 62%)" opacity="0.17" filter="url(#blur-79)"/><circle cx="446" cy="396" r="103" fill="hsl(50, 92%, 62%)" opacity="0.09" filter="url(#blur-79)"/><circle cx="740" cy="115" r="116" fill="hsl(76, 92%, 62%)" opacity="0.11" filter="url(#blur-79)"/>
  <circle cx="343" cy="405" r="36" fill="rgba(210,240,255,0.10)" filter="url(#soft-79)"/><circle cx="665" cy="38" r="56" fill="rgba(210,240,255,0.10)" filter="url(#soft-79)"/><circle cx="253" cy="237" r="26" fill="rgba(210,240,255,0.08)" filter="url(#soft-79)"/><circle cx="995" cy="329" r="42" fill="rgba(210,240,255,0.06)" filter="url(#soft-79)"/><circle cx="1146" cy="227" r="65" fill="rgba(210,240,255,0.14)" filter="url(#soft-79)"/><circle cx="276" cy="67" r="68" fill="rgba(210,240,255,0.14)" filter="url(#soft-79)"/><circle cx="829" cy="286" r="24" fill="rgba(210,240,255,0.07)" filter="url(#soft-79)"/><circle cx="801" cy="219" r="59" fill="rgba(210,240,255,0.09)" filter="url(#soft-79)"/><circle cx="683" cy="51" r="25" fill="rgba(210,240,255,0.08)" filter="url(#soft-79)"/>
  <polygon points="0,675 1200,675 1028,419 172,419" fill="rgba(8,16,28,0.35)"/>
  <g id="scene-drone-swarm"><g transform="translate(785,305) scale(1.07)"><rect x="-10" y="-5" width="20" height="10" rx="3" fill="rgba(180,240,255,0.58)"/><line x1="-20" y1="0" x2="20" y2="0" stroke="rgba(150,230,255,0.6)" stroke-width="2"/><line x1="0" y1="-16" x2="0" y2="16" stroke="rgba(150,230,255,0.6)" stroke-width="2"/></g><g transform="translate(473,247) scale(1.03)"><rect x="-10" y="-5" width="20" height="10" rx="3" fill="rgba(180,240,255,0.58)"/><line x1="-20" y1="0" x2="20" y2="0" stroke="rgba(150,230,255,0.6)" stroke-width="2"/><line x1="0" y1="-16" x2="0" y2="16" stroke="rgba(150,230,255,0.6)" stroke-width="2"/></g><g transform="translate(330,286) scale(1.18)"><rect x="-10" y="-5" width="20" height="10" rx="3" fill="rgba(180,240,255,0.58)"/><line x1="-20" y1="0" x2="20" y2="0" stroke="rgba(150,230,255,0.6)" stroke-width="2"/><line x1="0" y1="-16" x2="0" y2="16" stroke="rgba(150,230,255,0.6)" stroke-width="2"/></g><g transform="translate(640,345) scale(1.16)"><rect x="-10" y="-5" width="20" height="10" rx="3" fill="rgba(180,240,255,0.58)"/><line x1="-20" y1="0" x2="20" y2="0" stroke="rgba(150,230,255,0.6)" stroke-width="2"/><line x1="0" y1="-16" x2="0" y2="16" stroke="rgba(150,230,255,0.6)" stroke-width="2"/></g><g transform="translate(419,100) scale(0.90)"><rect x="-10" y="-5" width="20" height="10" rx="3" fill="rgba(180,240,255,0.58)"/><line x1="-20" y1="0" x2="20" y2="0" stroke="rgba(150,230,255,0.6)" stroke-width="2"/><line x1="0" y1="-16" x2="0" y2="16" stroke="rgba(150,230,255,0.6)" stroke-width="2"/></g><g transform="translate(140,129) scale(1.34)"><rect x="-10" y="-5" width="20" height="10" rx="3" fill="rgba(180,240,255,0.58)"/><line x1="-20" y1="0" x2="20" y2="0" stroke="rgba(150,230,255,0.6)" stroke-width="2"/><line x1="0" y1="-16" x2="0" y2="16" stroke="rgba(150,230,255,0.6)" stroke-width="2"/></g><g transform="translate(549,263) scale(1.10)"><rect x="-10" y="-5" width="20" height="10" rx="3" fill="rgba(180,240,255,0.58)"/><line x1="-20" y1="0" x2="20" y2="0" stroke="rgba(150,230,255,0.6)" stroke-width="2"/><line x1="0" y1="-16" x2="0" y2="16" stroke="rgba(150,230,255,0.6)" stroke-width="2"/></g><g transform="translate(204,189) scale(1.01)"><rect x="-10" y="-5" width="20" height="10" rx="3" fill="rgba(180,240,255,0.58)"/><line x1="-20" y1="0" x2="20" y2="0" stroke="rgba(150,230,255,0.6)" stroke-width="2"/><line x1="0" y1="-16" x2="0" y2="16" stroke="rgba(150,230,255,0.6)" stroke-width="2"/></g><g transform="translate(780,114) scale(1.23)"><rect x="-10" y="-5" width="20" height="10" rx="3" fill="rgba(180,240,255,0.58)"/><line x1="-20" y1="0" x2="20" y2="0" stroke="rgba(150,230,255,0.6)" stroke-width="2"/><line x1="0" y1="-16" x2="0" y2="16" stroke="rgba(150,230,255,0.6)" stroke-width="2"/></g></g>
  <g id="scene-sparkles"><circle cx="864" cy="481" r="1.60" fill="rgba(180,240,255,0.33)"/><circle cx="704" cy="119" r="3.36" fill="rgba(180,240,255,0.30)"/><circle cx="1034" cy="209" r="2.88" fill="rgba(180,240,255,0.35)"/><circle cx="698" cy="95" r="3.21" fill="rgba(180,240,255,0.39)"/><circle cx="399" cy="378" r="2.38" fill="rgba(180,240,255,0.28)"/><circle cx="446" cy="462" r="2.21" fill="rgba(180,240,255,0.30)"/><circle cx="872" cy="353" r="1.25" fill="rgba(180,240,255,0.44)"/><circle cx="714" cy="615" r="1.27" fill="rgba(180,240,255,0.30)"/><circle cx="457" cy="450" r="2.27" fill="rgba(180,240,255,0.43)"/><circle cx="73" cy="215" r="1.91" fill="rgba(180,240,255,0.29)"/><circle cx="864" cy="615" r="3.01" fill="rgba(180,240,255,0.44)"/><circle cx="299" cy="484" r="2.47" fill="rgba(180,240,255,0.17)"/><circle cx="642" cy="32" r="1.75" fill="rgba(180,240,255,0.15)"/><circle cx="640" cy="229" r="1.99" fill="rgba(180,240,255,0.32)"/><circle cx="830" cy="129" r="1.28" fill="rgba(180,240,255,0.18)"/><circle cx="892" cy="210" r="1.27" fill="rgba(180,240,255,0.43)"/><circle cx="1137" cy="41" r="1.49" fill="rgba(180,240,255,0.39)"/><circle cx="20" cy="306" r="1.36" fill="rgba(180,240,255,0.19)"/><circle cx="650" cy="40" r="2.12" fill="rgba(180,240,255,0.35)"/><circle cx="1106" cy="345" r="2.05" fill="rgba(180,240,255,0.28)"/><circle cx="1004" cy="173" r="1.55" fill="rgba(180,240,255,0.40)"/><circle cx="881" cy="629" r="2.78" fill="rgba(180,240,255,0.17)"/><circle cx="1031" cy="166" r="2.27" fill="rgba(180,240,255,0.43)"/><circle cx="1018" cy="28" r="3.17" fill="rgba(180,240,255,0.36)"/><circle cx="360" cy="312" r="1.10" fill="rgba(180,240,255,0.16)"/><circle cx="1150" cy="576" r="1.87" fill="rgba(180,240,255,0.20)"/><circle cx="392" cy="580" r="2.26" fill="rgba(180,240,255,0.44)"/><circle cx="232" cy="452" r="3.23" fill="rgba(180,240,255,0.43)"/></g>
  <rect width="1200" height="675" fill="rgba(190,220,255,0.06)"/>
  <rect width="1200" height="675" filter="url(#grain-79)"/>
  <rect width="1200" height="675" fill="url(#vignette-79)"/>
  <rect x="20" y="20" width="1160" height="635" rx="32" fill="none" stroke="rgba(155,220,255,0.24)"/>
</svg>