<?xml version="1.0" encoding="UTF-8"?>
<svg xmlns="http://www.w3.org/2000/svg" width="1200" height="675" viewBox="0 0 1200 675" role="img" aria-label="Fallback cover 10" data-scene="landscape-10">
  
  <defs>
    <linearGradient id="sky-10" x1="0" y1="0" x2="0" y2="1">
      <stop offset="0%" stop-color="hsl(241, 70%, 74%)"/>
      <stop offset="55%" stop-color="hsl(282, 64%, 56%)"/>
      <stop offset="100%" stop-color="hsl(330, 46%, 34%)"/>
    </linearGradient>
    <filter id="grain-10" x="0%" y="0%" width="100%" height="100%">
      <feTurbulence type="fractalNoise" baseFrequency="0.85" numOctaves="2" seed="170" stitchTiles="stitch"/>
      <feColorMatrix type="saturate" values="0"/>
      <feComponentTransfer><feFuncA type="table" tableValues="0 0.05"/></feComponentTransfer>
    </filter>
    <filter id="soft-10" x="-30%" y="-30%" width="160%" height="160%">
      <feGaussianBlur stdDeviation="12"/>
    </filter>
    <radialGradient id="vignette-10" cx="50%" cy="45%" r="72%">
      <stop offset="60%" stop-color="rgba(0,0,0,0)"/>
      <stop offset="100%" stop-color="rgba(0,0,0,0.42)"/>
    </radialGradient>
  </defs>
  <rect width="1200" height="675" fill="url(#sky-10)"/>
  <path d="M -30 120 C 240 42, 760 152, 1230 86" fill="none" stroke="hsl(241, 70%, 68%)" stroke-width="20" opacity="0.22"/><path d="M -30 180 C 240 125, 760 225, 1230 146" fill="none" stroke="hsl(253, 70%, 68%)" stroke-width="24" opacity="0.22"/><path d="M -30 240 C 240 186, 760 298, 1230 189" fill="none" stroke="hsl(265, 70%, 68%)" stroke-width="28" opacity="0.22"/><path d="M -30 300 C 240 221, 760 348, 1230 260" fill="none" stroke="hsl(277, 70%, 68%)" stroke-width="24" opacity="0.22"/><rect y="450" width="1200" height="675" fill="rgba(20,40,50,0.65)"/>
  <g id="scene-sparkles"><circle cx="318" cy="252" r="2.03" fill="rgba(245,250,255,0.20)"/><circle cx="750" cy="202" r="1.79" fill="rgba(245,250,255,0.29)"/><circle cx="683" cy="221" r="0.89" fill="rgba(245,250,255,0.27)"/><circle cx="859" cy="287" r="2.13" fill="rgba(245,250,255,0.18)"/><circle cx="453" cy="606" r="1.38" fill="rgba(245,250,255,0.20)"/><circle cx="943" cy="375" r="2.09" fill="rgba(245,250,255,0.33)"/><circle cx="202" cy="426" r="1.29" fill="rgba(245,250,255,0.34)"/><circle cx="143" cy="321" r="2.22" fill="rgba(245,250,255,0.35)"/><circle cx="1176" cy="576" r="1.80" fill="rgba(245,250,255,0.19)"/><circle cx="1115" cy="397" r="1.56" fill="rgba(245,250,255,0.29)"/><circle cx="758" cy="555" r="2.09" fill="rgba(245,250,255,0.21)"/><circle cx="392" cy="210" r="2.00" fill="rgba(245,250,255,0.18)"/><circle cx="107" cy="75" r="0.81" fill="rgba(245,250,255,0.39)"/><circle cx="643" cy="398" r="1.29" fill="rgba(245,250,255,0.32)"/><circle cx="1138" cy="258" r="1.98" fill="rgba(245,250,255,0.33)"/><circle cx="922" cy="637" r="2.10" fill="rgba(245,250,255,0.32)"/><circle cx="784" cy="29" r="1.12" fill="rgba(245,250,255,0.31)"/><circle cx="631" cy="149" r="0.81" fill="rgba(245,250,255,0.32)"/><circle cx="356" cy="356" r="2.28" fill="rgba(245,250,255,0.17)"/><circle cx="159" cy="602" r="1.03" fill="rgba(245,250,255,0.22)"/><circle cx="544" cy="215" r="2.79" fill="rgba(245,250,255,0.35)"/><circle cx="106" cy="392" r="2.43" fill="rgba(245,250,255,0.31)"/><circle cx="1137" cy="262" r="0.92" fill="rgba(245,250,255,0.20)"/><circle cx="632" cy="391" r="1.02" fill="rgba(245,250,255,0.37)"/><circle cx="1009" cy="345" r="1.30" fill="rgba(245,250,255,0.18)"/><circle cx="285" cy="121" r="1.27" fill="rgba(245,250,255,0.16)"/></g>
  <rect width="1200" height="675" filter="url(#grain-10)"/>
  <rect width="1200" height="675" fill="url(#vignette-10)"/>
</svg>