<?xml version="1.0" encoding="UTF-8"?>
<svg xmlns="http://www.w3.org/2000/svg" width="1200" height="675" viewBox="0 0 1200 675" role="img" aria-label="AIGC fallback cover 81" data-scene="scene-1">
  <defs>
    <linearGradient id="bg-81" x1="0" y1="0" x2="1" y2="1">
      <stop offset="0%" stop-color="hsl(104, 82%, 16%)"/>
      <stop offset="52%" stop-color="hsl(172, 84%, 23%)"/>
      <stop offset="100%" stop-color="hsl(283, 78%, 12%)"/>
    </linearGradient>
    <filter id="blur-81" x="-25%" y="-25%" width="150%" height="150%">
      <feGaussianBlur stdDeviation="26"/>
    </filter>
    <filter id="soft-81" x="-25%" y="-25%" width="150%" height="150%">
      <feGaussianBlur stdDeviation="10"/>
    </filter>
    <filter id="grain-81" x="0%" y="0%" width="100%" height="100%">
      <feTurbulence type="fractalNoise" baseFrequency="0.9" numOctaves="2" seed="1053" stitchTiles="stitch"/>
      <feColorMatrix type="saturate" values="0"/>
      <feComponentTransfer>
        <feFuncA type="table" tableValues="0 0.05"/>
      </feComponentTransfer>
    </filter>
    <radialGradient id="vignette-81" cx="50%" cy="45%" r="70%">
      <stop offset="60%" stop-color="rgba(0,0,0,0)"/>
      <stop offset="100%" stop-color="rgba(0,0,0,0.45)"/>
    </radialGradient>
  </defs>

  <rect width="1200" height="675" fill="url(#bg-81)"/>
  <circle cx="560" cy="272" r="133" fill="hsl(104, 92%, 62%)" opacity="0.17" filter="url(#blur-81)"/><circle cx="654" cy="130" r="178" fill="hsl(130, 92%, 62%)" opacity="0.12" filter="url(#blur-81)"/><circle cx="198" cy="80" r="132" fill="hsl(156, 92%, 62%)" opacity="0.14" filter="url(#blur-81)"/>
  <circle cx="170" cy="148" r="32" fill="rgba(210,240,255,0.07)" filter="url(#soft-81)"/><circle cx="496" cy="280" r="25" fill="rgba(210,240,255,0.12)" filter="url(#soft-81)"/><circle cx="754" cy="66" r="61" fill="rgba(210,240,255,0.12)" filter="url(#soft-81)"/><circle cx="607" cy="135" r="26" fill="rgba(210,240,255,0.07)" filter="url(#soft-81)"/><circle cx="1128" cy="440" r="68" fill="rgba(210,240,255,0.16)" filter="url(#soft-81)"/><circle cx="788" cy="374" r="59" fill="rgba(210,240,255,0.15)" filter="url(#soft-81)"/>
  <polygon points="0,675 1200,675 1128,452 72,452" fill="rgba(8,16,28,0.35)"/>
  <g id="scene-nodes"><line x1="928" y1="236" x2="652" y2="143" stroke="rgba(145,245,255,0.64)" stroke-width="2"/><line x1="652" y1="143" x2="800" y2="293" stroke="rgba(145,245,255,0.64)" stroke-width="4"/><line x1="652" y1="143" x2="732" y2="185" stroke="rgba(145,245,255,0.64)" stroke-width="3"/><line x1="732" y1="185" x2="1065" y2="314" stroke="rgba(145,245,255,0.64)" stroke-width="4"/><line x1="800" y1="293" x2="692" y2="263" stroke="rgba(145,245,255,0.64)" stroke-width="3"/><line x1="732" y1="185" x2="724" y2="113" stroke="rgba(145,245,255,0.64)" stroke-width="4"/><line x1="732" y1="185" x2="1072" y2="174" stroke="rgba(145,245,255,0.64)" stroke-width="4"/><circle cx="928" cy="236" r="11" fill="hsl(104, 88%, 72%)" opacity="0.86"/><circle cx="652" cy="143" r="18" fill="hsl(113, 88%, 72%)" opacity="0.86"/><circle cx="800" cy="293" r="11" fill="hsl(122, 88%, 72%)" opacity="0.86"/><circle cx="732" cy="185" r="13" fill="hsl(131, 88%, 72%)" opacity="0.86"/><circle cx="1065" cy="314" r="13" fill="hsl(140, 88%, 72%)" opacity="0.86"/><circle cx="692" cy="263" r="9" fill="hsl(149, 88%, 72%)" opacity="0.86"/><circle cx="724" cy="113" r="11" fill="hsl(158, 88%, 72%)" opacity="0.86"/><circle cx="1072" cy="174" r="8" fill="hsl(167, 88%, 72%)" opacity="0.86"/></g>
  <g id="scene-sparkles"><circle cx="776" cy="20" r="1.71" fill="rgba(180,240,255,0.25)"/><circle cx="172" cy="277" r="2.47" fill="rgba(180,240,255,0.34)"/><circle cx="627" cy="491" r="3.23" fill="rgba(180,240,255,0.33)"/><circle cx="1120" cy="444" r="1.87" fill="rgba(180,240,255,0.38)"/><circle cx="175" cy="381" r="1.79" fill="rgba(180,240,255,0.19)"/><circle cx="697" cy="358" r="1.81" fill="rgba(180,240,255,0.31)"/><circle cx="575" cy="54" r="2.22" fill="rgba(180,240,255,0.16)"/><circle cx="429" cy="493" r="1.87" fill="rgba(180,240,255,0.43)"/><circle cx="1046" cy="490" r="2.23" fill="rgba(180,240,255,0.19)"/><circle cx="594" cy="41" r="1.25" fill="rgba(180,240,255,0.28)"/><circle cx="855" cy="370" r="3.37" fill="rgba(180,240,255,0.29)"/><circle cx="878" cy="431" r="2.41" fill="rgba(180,240,255,0.16)"/><circle cx="639" cy="454" r="2.49" fill="rgba(180,240,255,0.40)"/><circle cx="558" cy="224" r="2.08" fill="rgba(180,240,255,0.19)"/><circle cx="893" cy="435" r="1.75" fill="rgba(180,240,255,0.24)"/><circle cx="1064" cy="206" r="1.19" fill="rgba(180,240,255,0.33)"/><circle cx="521" cy="332" r="3.27" fill="rgba(180,240,255,0.23)"/><circle cx="747" cy="405" r="2.40" fill="rgba(180,240,255,0.33)"/><circle cx="1086" cy="485" r="3.11" fill="rgba(180,240,255,0.45)"/><circle cx="699" cy="582" r="2.78" fill="rgba(180,240,255,0.26)"/><circle cx="94" cy="376" r="3.23" fill="rgba(180,240,255,0.16)"/><circle cx="235" cy="332" r="1.49" fill="rgba(180,240,255,0.39)"/><circle cx="637" cy="566" r="3.30" fill="rgba(180,240,255,0.27)"/><circle cx="742" cy="650" r="3.01" fill="rgba(180,240,255,0.23)"/><circle cx="435" cy="132" r="3.29" fill="rgba(180,240,255,0.26)"/><circle cx="456" cy="149" r="3.21" fill="rgba(180,240,255,0.40)"/><circle cx="1147" cy="215" r="1.62" fill="rgba(180,240,255,0.28)"/><circle cx="256" cy="451" r="3.24" fill="rgba(180,240,255,0.41)"/></g>
  <rect width="1200" height="675" fill="rgba(190,220,255,0.06)"/>
  <rect width="1200" height="675" filter="url(#grain-81)"/>
  <rect width="1200" height="675" fill="url(#vignette-81)"/>
  <rect x="20" y="20" width="1160" height="635" rx="32" fill="none" stroke="rgba(155,220,255,0.24)"/>
</svg>