<?xml version="1.0" encoding="UTF-8"?>
<svg xmlns="http://www.w3.org/2000/svg" width="1200" height="675" viewBox="0 0 1200 675" role="img" aria-label="AIGC fallback cover 67" data-scene="scene-7">
  <defs>
    <linearGradient id="bg-67" x1="0" y1="0" x2="1" y2="1">
      <stop offset="0%" stop-color="hsl(235, 82%, 16%)"/>
      <stop offset="52%" stop-color="hsl(300, 84%, 23%)"/>
      <stop offset="100%" stop-color="hsl(36, 78%, 12%)"/>
    </linearGradient>
    <filter id="blur-67" x="-25%" y="-25%" width="150%" height="150%">
      <feGaussianBlur stdDeviation="26"/>
    </filter>
    <filter id="soft-67" x="-25%" y="-25%" width="150%" height="150%">
      <feGaussianBlur stdDeviation="10"/>
    </filter>
    <filter id="grain-67" x="0%" y="0%" width="100%" height="100%">
      <feTurbulence type="fractalNoise" baseFrequency="0.9" numOctaves="2" seed="871" stitchTiles="stitch"/>
      <feColorMatrix type="saturate" values="0"/>
      <feComponentTransfer>
        <feFuncA type="table" tableValues="0 0.05"/>
      </feComponentTransfer>
    </filter>
    <radialGradient id="vignette-67" cx="50%" cy="45%" r="70%">
      <stop offset="60%" stop-color="rgba(0,0,0,0)"/>
      <stop offset="100%" stop-color="rgba(0,0,0,0.45)"/>
    </radialGradient>
  </defs>

  <rect width="1200" height="675" fill="url(#bg-67)"/>
  <circle cx="245" cy="262" r="167" fill="hsl(235, 92%, 62%)" opacity="0.11" filter="url(#blur-67)"/><circle cx="1097" cy="474" r="178" fill="hsl(261, 92%, 62%)" opacity="0.08" filter="url(#blur-67)"/><circle cx="699" cy="289" r="158" fill="hsl(287, 92%, 62%)" opacity="0.10" filter="url(#blur-67)"/>
  <circle cx="198" cy="73" r="33" fill="rgba(210,240,255,0.07)" filter="url(#soft-67)"/><circle cx="671" cy="136" r="58" fill="rgba(210,240,255,0.12)" filter="url(#soft-67)"/><circle cx="194" cy="350" r="42" fill="rgba(210,240,255,0.14)" filter="url(#soft-67)"/><circle cx="625" cy="104" r="23" fill="rgba(210,240,255,0.13)" filter="url(#soft-67)"/><circle cx="317" cy="294" r="35" fill="rgba(210,240,255,0.13)" filter="url(#soft-67)"/><circle cx="283" cy="157" r="20" fill="rgba(210,240,255,0.10)" filter="url(#soft-67)"/><circle cx="787" cy="312" r="47" fill="rgba(210,240,255,0.15)" filter="url(#soft-67)"/><circle cx="78" cy="406" r="64" fill="rgba(210,240,255,0.09)" filter="url(#soft-67)"/>
  <polygon points="0,675 1200,675 1314,409 -114,409" fill="rgba(8,16,28,0.35)"/>
  <g id="scene-orbits"><ellipse cx="638" cy="261" rx="152" ry="87" fill="none" stroke="rgba(140,230,255,0.28)" stroke-width="2" transform="rotate(-30 638 261)"/><ellipse cx="638" cy="261" rx="177" ry="105" fill="none" stroke="rgba(140,230,255,0.28)" stroke-width="2" transform="rotate(20 638 261)"/><ellipse cx="638" cy="261" rx="249" ry="147" fill="none" stroke="rgba(140,230,255,0.28)" stroke-width="2" transform="rotate(28 638 261)"/><ellipse cx="638" cy="261" rx="291" ry="138" fill="none" stroke="rgba(140,230,255,0.28)" stroke-width="2" transform="rotate(2 638 261)"/><circle cx="440" cy="315" r="6" fill="hsl(235, 88%, 72%)" opacity="0.85"/><circle cx="432" cy="293" r="6" fill="hsl(247, 88%, 72%)" opacity="0.85"/><circle cx="753" cy="184" r="9" fill="hsl(259, 88%, 72%)" opacity="0.85"/><circle cx="856" cy="168" r="11" fill="hsl(271, 88%, 72%)" opacity="0.85"/><circle cx="816" cy="203" r="7" fill="hsl(283, 88%, 72%)" opacity="0.85"/><circle cx="372" cy="208" r="7" fill="hsl(295, 88%, 72%)" opacity="0.85"/><circle cx="855" cy="314" r="10" fill="hsl(307, 88%, 72%)" opacity="0.85"/><circle cx="605" cy="106" r="10" fill="hsl(319, 88%, 72%)" opacity="0.85"/></g>
  <g id="scene-sparkles"><circle cx="454" cy="162" r="2.24" fill="rgba(180,240,255,0.35)"/><circle cx="502" cy="315" r="1.99" fill="rgba(180,240,255,0.21)"/><circle cx="916" cy="123" r="1.85" fill="rgba(180,240,255,0.45)"/><circle cx="433" cy="519" r="2.45" fill="rgba(180,240,255,0.31)"/><circle cx="1135" cy="564" r="1.65" fill="rgba(180,240,255,0.37)"/><circle cx="65" cy="53" r="1.76" fill="rgba(180,240,255,0.38)"/><circle cx="737" cy="127" r="1.61" fill="rgba(180,240,255,0.44)"/><circle cx="506" cy="186" r="2.52" fill="rgba(180,240,255,0.28)"/><circle cx="618" cy="372" r="1.91" fill="rgba(180,240,255,0.24)"/><circle cx="218" cy="356" r="2.19" fill="rgba(180,240,255,0.24)"/><circle cx="420" cy="238" r="2.43" fill="rgba(180,240,255,0.40)"/><circle cx="946" cy="619" r="1.63" fill="rgba(180,240,255,0.21)"/><circle cx="347" cy="351" r="2.97" fill="rgba(180,240,255,0.30)"/><circle cx="1073" cy="488" r="1.60" fill="rgba(180,240,255,0.27)"/><circle cx="1075" cy="533" r="1.48" fill="rgba(180,240,255,0.23)"/><circle cx="327" cy="231" r="1.12" fill="rgba(180,240,255,0.30)"/><circle cx="443" cy="504" r="1.28" fill="rgba(180,240,255,0.22)"/><circle cx="420" cy="261" r="2.61" fill="rgba(180,240,255,0.32)"/><circle cx="813" cy="186" r="2.67" fill="rgba(180,240,255,0.29)"/></g>
  <rect width="1200" height="675" fill="rgba(190,220,255,0.06)"/>
  <rect width="1200" height="675" filter="url(#grain-67)"/>
  <rect width="1200" height="675" fill="url(#vignette-67)"/>
  <rect x="20" y="20" width="1160" height="635" rx="32" fill="none" stroke="rgba(155,220,255,0.24)"/>
</svg>