<?xml version="1.0" encoding="UTF-8"?>
<svg xmlns="http://www.w3.org/2000/svg" width="1200" height="675" viewBox="0 0 1200 675" role="img" aria-label="AIGC fallback cover 44" data-scene="scene-4">
  <defs>
    <linearGradient id="bg-44" x1="0" y1="0" x2="1" y2="1">
      <stop offset="0%" stop-color="hsl(14, 82%, 16%)"/>
      <stop offset="52%" stop-color="hsl(88, 84%, 23%)"/>
      <stop offset="100%" stop-color="hsl(187, 78%, 12%)"/>
    </linearGradient>
    <filter id="blur-44" x="-25%" y="-25%" width="150%" height="150%">
      <feGaussianBlur stdDeviation="26"/>
    </filter>
    <filter id="soft-44" x="-25%" y="-25%" width="150%" height="150%">
      <feGaussianBlur stdDeviation="10"/>
    </filter>
    <filter id="grain-44" x="0%" y="0%" width="100%" height="100%">
      <feTurbulence type="fractalNoise" baseFrequency="0.9" numOctaves="2" seed="572" stitchTiles="stitch"/>
      <feColorMatrix type="saturate" values="0"/>
      <feComponentTransfer>
        <feFuncA type="table" tableValues="0 0.05"/>
      </feComponentTransfer>
    </filter>
    <radialGradient id="vignette-44" cx="50%" cy="45%" r="70%">
      <stop offset="60%" stop-color="rgba(0,0,0,0)"/>
      <stop offset="100%" stop-color="rgba(0,0,0,0.45)"/>
    </radialGradient>
  </defs>

  <rect width="1200" height="675" fill="url(#bg-44)"/>
  <circle cx="320" cy="447" r="164" fill="hsl(14, 92%, 62%)" opacity="0.14" filter="url(#blur-44)"/><circle cx="682" cy="552" r="203" fill="hsl(40, 92%, 62%)" opacity="0.18" filter="url(#blur-44)"/><circle cx="222" cy="575" r="124" fill="hsl(66, 92%, 62%)" opacity="0.17" filter="url(#blur-44)"/>
  <circle cx="682" cy="33" r="30" fill="rgba(210,240,255,0.13)" filter="url(#soft-44)"/><circle cx="431" cy="115" r="39" fill="rgba(210,240,255,0.11)" filter="url(#soft-44)"/><circle cx="217" cy="449" r="49" fill="rgba(210,240,255,0.06)" filter="url(#soft-44)"/><circle cx="612" cy="292" r="62" fill="rgba(210,240,255,0.07)" filter="url(#soft-44)"/><circle cx="404" cy="125" r="70" fill="rgba(210,240,255,0.10)" filter="url(#soft-44)"/><circle cx="716" cy="270" r="60" fill="rgba(210,240,255,0.09)" filter="url(#soft-44)"/><circle cx="604" cy="174" r="30" fill="rgba(210,240,255,0.16)" filter="url(#soft-44)"/><circle cx="994" cy="448" r="20" fill="rgba(210,240,255,0.12)" filter="url(#soft-44)"/><circle cx="71" cy="300" r="26" fill="rgba(210,240,255,0.09)" filter="url(#soft-44)"/><circle cx="882" cy="263" r="24" fill="rgba(210,240,255,0.09)" filter="url(#soft-44)"/>
  <polygon points="0,675 1200,675 1176,454 24,454" fill="rgba(8,16,28,0.35)"/>
  <g id="scene-city"><g><rect x="611" y="364" width="71" height="311" rx="8" fill="rgba(8,18,38,0.58)" stroke="hsl(14, 70%, 52%)" opacity="0.72"/><rect x="622" y="384" width="47" height="5" rx="2" fill="rgba(120,240,255,0.22)"/><rect x="624" y="410" width="55" height="5" rx="2" fill="rgba(120,240,255,0.22)"/><rect x="623" y="424" width="43" height="5" rx="2" fill="rgba(120,240,255,0.22)"/><rect x="627" y="453" width="54" height="5" rx="2" fill="rgba(120,240,255,0.22)"/><rect x="625" y="496" width="52" height="5" rx="2" fill="rgba(120,240,255,0.22)"/><rect x="619" y="499" width="46" height="5" rx="2" fill="rgba(120,240,255,0.22)"/></g><g><rect x="400" y="480" width="109" height="195" rx="8" fill="rgba(8,18,38,0.58)" stroke="hsl(19, 70%, 52%)" opacity="0.72"/><rect x="410" y="500" width="93" height="5" rx="2" fill="rgba(120,240,255,0.22)"/><rect x="409" y="519" width="91" height="5" rx="2" fill="rgba(120,240,255,0.22)"/><rect x="409" y="550" width="91" height="5" rx="2" fill="rgba(120,240,255,0.22)"/><rect x="416" y="557" width="88" height="5" rx="2" fill="rgba(120,240,255,0.22)"/><rect x="411" y="604" width="88" height="5" rx="2" fill="rgba(120,240,255,0.22)"/></g><g><rect x="81" y="461" width="46" height="214" rx="8" fill="rgba(8,18,38,0.58)" stroke="hsl(24, 70%, 52%)" opacity="0.72"/><rect x="90" y="481" width="24" height="5" rx="2" fill="rgba(120,240,255,0.22)"/><rect x="89" y="506" width="22" height="5" rx="2" fill="rgba(120,240,255,0.22)"/><rect x="97" y="519" width="18" height="5" rx="2" fill="rgba(120,240,255,0.22)"/><rect x="96" y="556" width="28" height="5" rx="2" fill="rgba(120,240,255,0.22)"/><rect x="96" y="593" width="27" height="5" rx="2" fill="rgba(120,240,255,0.22)"/><rect x="89" y="611" width="30" height="5" rx="2" fill="rgba(120,240,255,0.22)"/><rect x="95" y="589" width="25" height="5" rx="2" fill="rgba(120,240,255,0.22)"/><rect x="94" y="670" width="24" height="5" rx="2" fill="rgba(120,240,255,0.22)"/></g><g><rect x="95" y="341" width="107" height="334" rx="8" fill="rgba(8,18,38,0.58)" stroke="hsl(29, 70%, 52%)" opacity="0.72"/><rect x="109" y="361" width="80" height="5" rx="2" fill="rgba(120,240,255,0.22)"/><rect x="107" y="387" width="81" height="5" rx="2" fill="rgba(120,240,255,0.22)"/><rect x="108" y="403" width="89" height="5" rx="2" fill="rgba(120,240,255,0.22)"/><rect x="109" y="430" width="87" height="5" rx="2" fill="rgba(120,240,255,0.22)"/></g><g><rect x="218" y="463" width="104" height="212" rx="8" fill="rgba(8,18,38,0.58)" stroke="hsl(34, 70%, 52%)" opacity="0.72"/><rect x="227" y="483" width="76" height="5" rx="2" fill="rgba(120,240,255,0.22)"/><rect x="232" y="506" width="77" height="5" rx="2" fill="rgba(120,240,255,0.22)"/><rect x="229" y="527" width="82" height="5" rx="2" fill="rgba(120,240,255,0.22)"/><rect x="232" y="555" width="85" height="5" rx="2" fill="rgba(120,240,255,0.22)"/><rect x="234" y="555" width="77" height="5" rx="2" fill="rgba(120,240,255,0.22)"/><rect x="230" y="608" width="76" height="5" rx="2" fill="rgba(120,240,255,0.22)"/><rect x="232" y="615" width="87" height="5" rx="2" fill="rgba(120,240,255,0.22)"/></g><g><rect x="824" y="401" width="43" height="274" rx="8" fill="rgba(8,18,38,0.58)" stroke="hsl(39, 70%, 52%)" opacity="0.72"/><rect x="834" y="421" width="15" height="5" rx="2" fill="rgba(120,240,255,0.22)"/><rect x="834" y="447" width="24" height="5" rx="2" fill="rgba(120,240,255,0.22)"/><rect x="840" y="465" width="27" height="5" rx="2" fill="rgba(120,240,255,0.22)"/><rect x="838" y="475" width="25" height="5" rx="2" fill="rgba(120,240,255,0.22)"/><rect x="835" y="525" width="22" height="5" rx="2" fill="rgba(120,240,255,0.22)"/><rect x="836" y="546" width="17" height="5" rx="2" fill="rgba(120,240,255,0.22)"/><rect x="834" y="571" width="20" height="5" rx="2" fill="rgba(120,240,255,0.22)"/><rect x="832" y="582" width="27" height="5" rx="2" fill="rgba(120,240,255,0.22)"/><rect x="836" y="597" width="15" height="5" rx="2" fill="rgba(120,240,255,0.22)"/></g><g><rect x="594" y="330" width="112" height="345" rx="8" fill="rgba(8,18,38,0.58)" stroke="hsl(44, 70%, 52%)" opacity="0.72"/><rect x="608" y="350" width="94" height="5" rx="2" fill="rgba(120,240,255,0.22)"/><rect x="605" y="375" width="87" height="5" rx="2" fill="rgba(120,240,255,0.22)"/><rect x="607" y="386" width="92" height="5" rx="2" fill="rgba(120,240,255,0.22)"/><rect x="604" y="431" width="87" height="5" rx="2" fill="rgba(120,240,255,0.22)"/><rect x="609" y="422" width="91" height="5" rx="2" fill="rgba(120,240,255,0.22)"/></g><g><rect x="898" y="538" width="92" height="137" rx="8" fill="rgba(8,18,38,0.58)" stroke="hsl(49, 70%, 52%)" opacity="0.72"/><rect x="908" y="558" width="70" height="5" rx="2" fill="rgba(120,240,255,0.22)"/><rect x="911" y="580" width="66" height="5" rx="2" fill="rgba(120,240,255,0.22)"/><rect x="908" y="596" width="74" height="5" rx="2" fill="rgba(120,240,255,0.22)"/><rect x="909" y="627" width="66" height="5" rx="2" fill="rgba(120,240,255,0.22)"/><rect x="908" y="662" width="73" height="5" rx="2" fill="rgba(120,240,255,0.22)"/><rect x="912" y="688" width="70" height="5" rx="2" fill="rgba(120,240,255,0.22)"/><rect x="910" y="678" width="76" height="5" rx="2" fill="rgba(120,240,255,0.22)"/><rect x="908" y="712" width="64" height="5" rx="2" fill="rgba(120,240,255,0.22)"/><rect x="909" y="710" width="70" height="5" rx="2" fill="rgba(120,240,255,0.22)"/><rect x="914" y="729" width="74" height="5" rx="2" fill="rgba(120,240,255,0.22)"/></g><g><rect x="468" y="476" width="48" height="199" rx="8" fill="rgba(8,18,38,0.58)" stroke="hsl(54, 70%, 52%)" opacity="0.72"/><rect x="480" y="496" width="22" height="5" rx="2" fill="rgba(120,240,255,0.22)"/><rect x="478" y="517" width="29" height="5" rx="2" fill="rgba(120,240,255,0.22)"/><rect x="480" y="550" width="23" height="5" rx="2" fill="rgba(120,240,255,0.22)"/><rect x="481" y="556" width="28" height="5" rx="2" fill="rgba(120,240,255,0.22)"/><rect x="480" y="588" width="31" height="5" rx="2" fill="rgba(120,240,255,0.22)"/><rect x="480" y="616" width="25" height="5" rx="2" fill="rgba(120,240,255,0.22)"/><rect x="482" y="610" width="20" height="5" rx="2" fill="rgba(120,240,255,0.22)"/><rect x="484" y="692" width="28" height="5" rx="2" fill="rgba(120,240,255,0.22)"/></g><g><rect x="801" y="426" width="68" height="249" rx="8" fill="rgba(8,18,38,0.58)" stroke="hsl(59, 70%, 52%)" opacity="0.72"/><rect x="809" y="446" width="42" height="5" rx="2" fill="rgba(120,240,255,0.22)"/><rect x="817" y="467" width="46" height="5" rx="2" fill="rgba(120,240,255,0.22)"/><rect x="812" y="490" width="51" height="5" rx="2" fill="rgba(120,240,255,0.22)"/><rect x="812" y="500" width="49" height="5" rx="2" fill="rgba(120,240,255,0.22)"/><rect x="810" y="522" width="48" height="5" rx="2" fill="rgba(120,240,255,0.22)"/><rect x="813" y="546" width="46" height="5" rx="2" fill="rgba(120,240,255,0.22)"/><rect x="810" y="596" width="46" height="5" rx="2" fill="rgba(120,240,255,0.22)"/><rect x="812" y="628" width="48" height="5" rx="2" fill="rgba(120,240,255,0.22)"/><rect x="817" y="598" width="50" height="5" rx="2" fill="rgba(120,240,255,0.22)"/><rect x="817" y="635" width="49" height="5" rx="2" fill="rgba(120,240,255,0.22)"/></g><g><rect x="729" y="341" width="86" height="334" rx="8" fill="rgba(8,18,38,0.58)" stroke="hsl(64, 70%, 52%)" opacity="0.72"/><rect x="745" y="361" width="67" height="5" rx="2" fill="rgba(120,240,255,0.22)"/><rect x="737" y="381" width="61" height="5" rx="2" fill="rgba(120,240,255,0.22)"/><rect x="741" y="415" width="68" height="5" rx="2" fill="rgba(120,240,255,0.22)"/><rect x="744" y="430" width="63" height="5" rx="2" fill="rgba(120,240,255,0.22)"/><rect x="739" y="453" width="60" height="5" rx="2" fill="rgba(120,240,255,0.22)"/><rect x="737" y="476" width="69" height="5" rx="2" fill="rgba(120,240,255,0.22)"/><rect x="742" y="499" width="60" height="5" rx="2" fill="rgba(120,240,255,0.22)"/><rect x="743" y="487" width="59" height="5" rx="2" fill="rgba(120,240,255,0.22)"/><rect x="741" y="569" width="60" height="5" rx="2" fill="rgba(120,240,255,0.22)"/></g><g><rect x="420" y="511" width="70" height="164" rx="8" fill="rgba(8,18,38,0.58)" stroke="hsl(69, 70%, 52%)" opacity="0.72"/><rect x="429" y="531" width="47" height="5" rx="2" fill="rgba(120,240,255,0.22)"/><rect x="429" y="552" width="47" height="5" rx="2" fill="rgba(120,240,255,0.22)"/><rect x="434" y="587" width="52" height="5" rx="2" fill="rgba(120,240,255,0.22)"/><rect x="433" y="591" width="44" height="5" rx="2" fill="rgba(120,240,255,0.22)"/><rect x="432" y="607" width="44" height="5" rx="2" fill="rgba(120,240,255,0.22)"/><rect x="435" y="671" width="51" height="5" rx="2" fill="rgba(120,240,255,0.22)"/><rect x="433" y="639" width="50" height="5" rx="2" fill="rgba(120,240,255,0.22)"/><rect x="434" y="685" width="42" height="5" rx="2" fill="rgba(120,240,255,0.22)"/><rect x="428" y="691" width="48" height="5" rx="2" fill="rgba(120,240,255,0.22)"/></g><g><rect x="641" y="465" width="110" height="210" rx="8" fill="rgba(8,18,38,0.58)" stroke="hsl(74, 70%, 52%)" opacity="0.72"/><rect x="654" y="485" width="91" height="5" rx="2" fill="rgba(120,240,255,0.22)"/><rect x="649" y="507" width="89" height="5" rx="2" fill="rgba(120,240,255,0.22)"/><rect x="649" y="527" width="89" height="5" rx="2" fill="rgba(120,240,255,0.22)"/><rect x="656" y="554" width="83" height="5" rx="2" fill="rgba(120,240,255,0.22)"/><rect x="657" y="557" width="84" height="5" rx="2" fill="rgba(120,240,255,0.22)"/><rect x="656" y="600" width="91" height="5" rx="2" fill="rgba(120,240,255,0.22)"/><rect x="653" y="611" width="91" height="5" rx="2" fill="rgba(120,240,255,0.22)"/></g><g><rect x="131" y="454" width="82" height="221" rx="8" fill="rgba(8,18,38,0.58)" stroke="hsl(79, 70%, 52%)" opacity="0.72"/><rect x="143" y="474" width="54" height="5" rx="2" fill="rgba(120,240,255,0.22)"/><rect x="139" y="495" width="54" height="5" rx="2" fill="rgba(120,240,255,0.22)"/><rect x="140" y="524" width="59" height="5" rx="2" fill="rgba(120,240,255,0.22)"/><rect x="139" y="543" width="60" height="5" rx="2" fill="rgba(120,240,255,0.22)"/><rect x="140" y="586" width="59" height="5" rx="2" fill="rgba(120,240,255,0.22)"/><rect x="139" y="579" width="63" height="5" rx="2" fill="rgba(120,240,255,0.22)"/><rect x="145" y="582" width="66" height="5" rx="2" fill="rgba(120,240,255,0.22)"/></g></g>
  <g id="scene-sparkles"><circle cx="639" cy="92" r="2.25" fill="rgba(180,240,255,0.28)"/><circle cx="917" cy="218" r="2.12" fill="rgba(180,240,255,0.38)"/><circle cx="1097" cy="266" r="3.19" fill="rgba(180,240,255,0.26)"/><circle cx="959" cy="111" r="3.31" fill="rgba(180,240,255,0.36)"/><circle cx="149" cy="217" r="2.46" fill="rgba(180,240,255,0.24)"/><circle cx="559" cy="218" r="1.37" fill="rgba(180,240,255,0.40)"/><circle cx="563" cy="22" r="1.15" fill="rgba(180,240,255,0.40)"/><circle cx="831" cy="211" r="1.45" fill="rgba(180,240,255,0.40)"/><circle cx="822" cy="402" r="1.53" fill="rgba(180,240,255,0.24)"/><circle cx="312" cy="256" r="1.56" fill="rgba(180,240,255,0.43)"/><circle cx="583" cy="532" r="3.35" fill="rgba(180,240,255,0.44)"/><circle cx="1163" cy="608" r="1.83" fill="rgba(180,240,255,0.37)"/><circle cx="495" cy="508" r="2.73" fill="rgba(180,240,255,0.23)"/><circle cx="969" cy="353" r="2.08" fill="rgba(180,240,255,0.27)"/><circle cx="412" cy="520" r="2.51" fill="rgba(180,240,255,0.22)"/><circle cx="334" cy="293" r="2.56" fill="rgba(180,240,255,0.24)"/><circle cx="547" cy="314" r="1.26" fill="rgba(180,240,255,0.19)"/><circle cx="47" cy="528" r="3.03" fill="rgba(180,240,255,0.33)"/><circle cx="36" cy="105" r="1.52" fill="rgba(180,240,255,0.29)"/></g>
  <rect width="1200" height="675" fill="rgba(190,220,255,0.06)"/>
  <rect width="1200" height="675" filter="url(#grain-44)"/>
  <rect width="1200" height="675" fill="url(#vignette-44)"/>
  <rect x="20" y="20" width="1160" height="635" rx="32" fill="none" stroke="rgba(155,220,255,0.24)"/>
</svg>