<?xml version="1.0" encoding="UTF-8"?>
<svg xmlns="http://www.w3.org/2000/svg" width="1200" height="675" viewBox="0 0 1200 675" role="img" aria-label="AIGC fallback cover 72" data-scene="scene-2">
  <defs>
    <linearGradient id="bg-72" x1="0" y1="0" x2="1" y2="1">
      <stop offset="0%" stop-color="hsl(107, 82%, 16%)"/>
      <stop offset="52%" stop-color="hsl(164, 84%, 23%)"/>
      <stop offset="100%" stop-color="hsl(260, 78%, 12%)"/>
    </linearGradient>
    <filter id="blur-72" x="-25%" y="-25%" width="150%" height="150%">
      <feGaussianBlur stdDeviation="26"/>
    </filter>
    <filter id="soft-72" x="-25%" y="-25%" width="150%" height="150%">
      <feGaussianBlur stdDeviation="10"/>
    </filter>
    <filter id="grain-72" x="0%" y="0%" width="100%" height="100%">
      <feTurbulence type="fractalNoise" baseFrequency="0.9" numOctaves="2" seed="936" stitchTiles="stitch"/>
      <feColorMatrix type="saturate" values="0"/>
      <feComponentTransfer>
        <feFuncA type="table" tableValues="0 0.05"/>
      </feComponentTransfer>
    </filter>
    <radialGradient id="vignette-72" cx="50%" cy="45%" r="70%">
      <stop offset="60%" stop-color="rgba(0,0,0,0)"/>
      <stop offset="100%" stop-color="rgba(0,0,0,0.45)"/>
    </radialGradient>
  </defs>

  <rect width="1200" height="675" fill="url(#bg-72)"/>
  <circle cx="226" cy="272" r="151" fill="hsl(107, 92%, 62%)" opacity="0.16" filter="url(#blur-72)"/><circle cx="704" cy="148" r="130" fill="hsl(133, 92%, 62%)" opacity="0.16" filter="url(#blur-72)"/><circle cx="1071" cy="349" r="117" fill="hsl(159, 92%, 62%)" opacity="0.17" filter="url(#blur-72)"/>
  <circle cx="642" cy="48" r="62" fill="rgba(210,240,255,0.16)" filter="url(#soft-72)"/><circle cx="844" cy="457" r="41" fill="rgba(210,240,255,0.08)" filter="url(#soft-72)"/><circle cx="117" cy="205" r="25" fill="rgba(210,240,255,0.09)" filter="url(#soft-72)"/><circle cx="507" cy="121" r="44" fill="rgba(210,240,255,0.12)" filter="url(#soft-72)"/><circle cx="280" cy="169" r="48" fill="rgba(210,240,255,0.07)" filter="url(#soft-72)"/><circle cx="1069" cy="44" r="25" fill="rgba(210,240,255,0.06)" filter="url(#soft-72)"/><circle cx="879" cy="429" r="50" fill="rgba(210,240,255,0.09)" filter="url(#soft-72)"/><circle cx="109" cy="320" r="62" fill="rgba(210,240,255,0.15)" filter="url(#soft-72)"/><circle cx="798" cy="241" r="54" fill="rgba(210,240,255,0.14)" filter="url(#soft-72)"/><circle cx="265" cy="430" r="33" fill="rgba(210,240,255,0.08)" filter="url(#soft-72)"/>
  <polygon points="0,675 1200,675 982,402 218,402" fill="rgba(8,16,28,0.35)"/>
  <g id="scene-circuit"><line x1="779" y1="195" x2="872" y2="195" stroke="rgba(135,220,255,0.28)" stroke-width="5" stroke-linecap="round"/><line x1="823" y1="523" x2="823" y2="640" stroke="rgba(135,220,255,0.28)" stroke-width="2" stroke-linecap="round"/><line x1="811" y1="504" x2="811" y2="640" stroke="rgba(135,220,255,0.28)" stroke-width="3" stroke-linecap="round"/><line x1="425" y1="556" x2="425" y2="640" stroke="rgba(135,220,255,0.28)" stroke-width="6" stroke-linecap="round"/><line x1="847" y1="597" x2="847" y2="640" stroke="rgba(135,220,255,0.28)" stroke-width="2" stroke-linecap="round"/><line x1="265" y1="195" x2="265" y2="396" stroke="rgba(135,220,255,0.28)" stroke-width="2" stroke-linecap="round"/><line x1="235" y1="452" x2="235" y2="640" stroke="rgba(135,220,255,0.28)" stroke-width="4" stroke-linecap="round"/><line x1="634" y1="268" x2="740" y2="268" stroke="rgba(135,220,255,0.28)" stroke-width="5" stroke-linecap="round"/><line x1="1011" y1="107" x2="1140" y2="107" stroke="rgba(135,220,255,0.28)" stroke-width="4" stroke-linecap="round"/><line x1="292" y1="560" x2="438" y2="560" stroke="rgba(135,220,255,0.28)" stroke-width="2" stroke-linecap="round"/><line x1="499" y1="235" x2="499" y2="308" stroke="rgba(135,220,255,0.28)" stroke-width="4" stroke-linecap="round"/><line x1="229" y1="89" x2="335" y2="89" stroke="rgba(135,220,255,0.28)" stroke-width="2" stroke-linecap="round"/><line x1="390" y1="110" x2="390" y2="269" stroke="rgba(135,220,255,0.28)" stroke-width="5" stroke-linecap="round"/><line x1="692" y1="409" x2="771" y2="409" stroke="rgba(135,220,255,0.28)" stroke-width="2" stroke-linecap="round"/><line x1="564" y1="123" x2="564" y2="294" stroke="rgba(135,220,255,0.28)" stroke-width="4" stroke-linecap="round"/><line x1="719" y1="554" x2="886" y2="554" stroke="rgba(135,220,255,0.28)" stroke-width="2" stroke-linecap="round"/><line x1="628" y1="220" x2="628" y2="297" stroke="rgba(135,220,255,0.28)" stroke-width="2" stroke-linecap="round"/><line x1="700" y1="373" x2="800" y2="373" stroke="rgba(135,220,255,0.28)" stroke-width="4" stroke-linecap="round"/><line x1="365" y1="377" x2="517" y2="377" stroke="rgba(135,220,255,0.28)" stroke-width="4" stroke-linecap="round"/><line x1="278" y1="464" x2="470" y2="464" stroke="rgba(135,220,255,0.28)" stroke-width="4" stroke-linecap="round"/><line x1="459" y1="528" x2="459" y2="640" stroke="rgba(135,220,255,0.28)" stroke-width="6" stroke-linecap="round"/><line x1="251" y1="211" x2="349" y2="211" stroke="rgba(135,220,255,0.28)" stroke-width="4" stroke-linecap="round"/><line x1="840" y1="348" x2="840" y2="544" stroke="rgba(135,220,255,0.28)" stroke-width="3" stroke-linecap="round"/><rect x="173" y="124" width="200" height="112" rx="12" fill="rgba(12,28,60,0.48)" stroke="hsl(107, 90%, 70%)" opacity="0.78"/><rect x="529" y="423" width="108" height="52" rx="12" fill="rgba(12,28,60,0.48)" stroke="hsl(118, 90%, 70%)" opacity="0.78"/><rect x="603" y="373" width="177" height="77" rx="12" fill="rgba(12,28,60,0.48)" stroke="hsl(129, 90%, 70%)" opacity="0.78"/><rect x="548" y="185" width="141" height="58" rx="12" fill="rgba(12,28,60,0.48)" stroke="hsl(140, 90%, 70%)" opacity="0.78"/><rect x="423" y="405" width="87" height="107" rx="12" fill="rgba(12,28,60,0.48)" stroke="hsl(151, 90%, 70%)" opacity="0.78"/></g>
  <g id="scene-sparkles"><circle cx="110" cy="226" r="1.58" fill="rgba(180,240,255,0.19)"/><circle cx="151" cy="654" r="1.83" fill="rgba(180,240,255,0.21)"/><circle cx="130" cy="58" r="2.71" fill="rgba(180,240,255,0.17)"/><circle cx="1165" cy="333" r="2.77" fill="rgba(180,240,255,0.24)"/><circle cx="930" cy="552" r="2.33" fill="rgba(180,240,255,0.34)"/><circle cx="1173" cy="608" r="2.38" fill="rgba(180,240,255,0.37)"/><circle cx="758" cy="582" r="2.08" fill="rgba(180,240,255,0.34)"/><circle cx="1007" cy="23" r="2.81" fill="rgba(180,240,255,0.15)"/><circle cx="294" cy="153" r="1.14" fill="rgba(180,240,255,0.17)"/><circle cx="228" cy="157" r="1.39" fill="rgba(180,240,255,0.27)"/><circle cx="886" cy="27" r="2.04" fill="rgba(180,240,255,0.39)"/><circle cx="1124" cy="399" r="2.59" fill="rgba(180,240,255,0.38)"/><circle cx="550" cy="445" r="1.28" fill="rgba(180,240,255,0.29)"/><circle cx="251" cy="463" r="2.12" fill="rgba(180,240,255,0.27)"/><circle cx="458" cy="226" r="2.78" fill="rgba(180,240,255,0.41)"/><circle cx="130" cy="624" r="3.03" fill="rgba(180,240,255,0.30)"/><circle cx="1009" cy="279" r="2.22" fill="rgba(180,240,255,0.15)"/><circle cx="230" cy="511" r="2.61" fill="rgba(180,240,255,0.36)"/><circle cx="780" cy="227" r="1.16" fill="rgba(180,240,255,0.28)"/><circle cx="229" cy="522" r="3.03" fill="rgba(180,240,255,0.18)"/><circle cx="862" cy="184" r="2.80" fill="rgba(180,240,255,0.19)"/><circle cx="75" cy="277" r="3.25" fill="rgba(180,240,255,0.30)"/><circle cx="440" cy="552" r="2.13" fill="rgba(180,240,255,0.16)"/><circle cx="1018" cy="366" r="2.48" fill="rgba(180,240,255,0.40)"/><circle cx="498" cy="588" r="1.39" fill="rgba(180,240,255,0.30)"/><circle cx="596" cy="166" r="3.38" fill="rgba(180,240,255,0.21)"/><circle cx="422" cy="270" r="1.69" fill="rgba(180,240,255,0.40)"/><circle cx="932" cy="317" r="2.44" fill="rgba(180,240,255,0.22)"/></g>
  <rect width="1200" height="675" fill="rgba(190,220,255,0.06)"/>
  <rect width="1200" height="675" filter="url(#grain-72)"/>
  <rect width="1200" height="675" fill="url(#vignette-72)"/>
  <rect x="20" y="20" width="1160" height="635" rx="32" fill="none" stroke="rgba(155,220,255,0.24)"/>
</svg>