<?xml version="1.0" encoding="UTF-8"?>
<svg xmlns="http://www.w3.org/2000/svg" width="1200" height="675" viewBox="0 0 1200 675" role="img" aria-label="AIGC fallback cover 43" data-scene="scene-3">
  <defs>
    <linearGradient id="bg-43" x1="0" y1="0" x2="1" y2="1">
      <stop offset="0%" stop-color="hsl(2, 82%, 16%)"/>
      <stop offset="52%" stop-color="hsl(59, 84%, 23%)"/>
      <stop offset="100%" stop-color="hsl(119, 78%, 12%)"/>
    </linearGradient>
    <filter id="blur-43" x="-25%" y="-25%" width="150%" height="150%">
      <feGaussianBlur stdDeviation="26"/>
    </filter>
    <filter id="soft-43" x="-25%" y="-25%" width="150%" height="150%">
      <feGaussianBlur stdDeviation="10"/>
    </filter>
    <filter id="grain-43" x="0%" y="0%" width="100%" height="100%">
      <feTurbulence type="fractalNoise" baseFrequency="0.9" numOctaves="2" seed="559" stitchTiles="stitch"/>
      <feColorMatrix type="saturate" values="0"/>
      <feComponentTransfer>
        <feFuncA type="table" tableValues="0 0.05"/>
      </feComponentTransfer>
    </filter>
    <radialGradient id="vignette-43" cx="50%" cy="45%" r="70%">
      <stop offset="60%" stop-color="rgba(0,0,0,0)"/>
      <stop offset="100%" stop-color="rgba(0,0,0,0.45)"/>
    </radialGradient>
  </defs>

  <rect width="1200" height="675" fill="url(#bg-43)"/>
  <circle cx="341" cy="260" r="142" fill="hsl(2, 92%, 62%)" opacity="0.14" filter="url(#blur-43)"/><circle cx="1083" cy="243" r="201" fill="hsl(28, 92%, 62%)" opacity="0.11" filter="url(#blur-43)"/><circle cx="264" cy="278" r="153" fill="hsl(54, 92%, 62%)" opacity="0.17" filter="url(#blur-43)"/>
  <circle cx="88" cy="151" r="31" fill="rgba(210,240,255,0.11)" filter="url(#soft-43)"/><circle cx="1011" cy="412" r="70" fill="rgba(210,240,255,0.11)" filter="url(#soft-43)"/><circle cx="468" cy="150" r="25" fill="rgba(210,240,255,0.10)" filter="url(#soft-43)"/><circle cx="852" cy="352" r="43" fill="rgba(210,240,255,0.08)" filter="url(#soft-43)"/><circle cx="566" cy="284" r="27" fill="rgba(210,240,255,0.11)" filter="url(#soft-43)"/><circle cx="962" cy="284" r="40" fill="rgba(210,240,255,0.15)" filter="url(#soft-43)"/><circle cx="942" cy="121" r="35" fill="rgba(210,240,255,0.13)" filter="url(#soft-43)"/><circle cx="540" cy="272" r="66" fill="rgba(210,240,255,0.15)" filter="url(#soft-43)"/><circle cx="1158" cy="420" r="52" fill="rgba(210,240,255,0.13)" filter="url(#soft-43)"/><circle cx="917" cy="263" r="50" fill="rgba(210,240,255,0.08)" filter="url(#soft-43)"/>
  <polygon points="0,675 1200,675 1121,430 79,430" fill="rgba(8,16,28,0.35)"/>
  <g id="scene-datacenter"><g><rect x="70" y="237" width="110" height="402" rx="10" fill="rgba(10,20,42,0.58)" stroke="rgba(130,190,255,0.45)"/><rect x="111" y="309" width="28" height="6" rx="3" fill="rgba(102,245,220,0.8)"/><rect x="102" y="563" width="25" height="6" rx="3" fill="rgba(102,245,220,0.8)"/><rect x="162" y="318" width="31" height="6" rx="3" fill="rgba(102,245,220,0.8)"/><rect x="88" y="322" width="20" height="6" rx="3" fill="rgba(102,245,220,0.8)"/><rect x="133" y="331" width="32" height="6" rx="3" fill="rgba(102,245,220,0.8)"/><rect x="132" y="485" width="16" height="6" rx="3" fill="rgba(102,245,220,0.8)"/><rect x="157" y="341" width="25" height="6" rx="3" fill="rgba(102,245,220,0.8)"/><rect x="110" y="597" width="32" height="6" rx="3" fill="rgba(102,245,220,0.8)"/><rect x="162" y="519" width="30" height="6" rx="3" fill="rgba(102,245,220,0.8)"/><rect x="143" y="603" width="30" height="6" rx="3" fill="rgba(102,245,220,0.8)"/></g><g><rect x="220" y="315" width="113" height="330" rx="10" fill="rgba(10,20,42,0.58)" stroke="rgba(130,190,255,0.45)"/><rect x="294" y="379" width="23" height="6" rx="3" fill="rgba(102,245,220,0.8)"/><rect x="315" y="528" width="21" height="6" rx="3" fill="rgba(102,245,220,0.8)"/><rect x="304" y="550" width="23" height="6" rx="3" fill="rgba(102,245,220,0.8)"/><rect x="292" y="382" width="25" height="6" rx="3" fill="rgba(102,245,220,0.8)"/><rect x="269" y="559" width="30" height="6" rx="3" fill="rgba(102,245,220,0.8)"/></g><g><rect x="372" y="193" width="101" height="450" rx="10" fill="rgba(10,20,42,0.58)" stroke="rgba(130,190,255,0.45)"/><rect x="417" y="302" width="17" height="6" rx="3" fill="rgba(102,245,220,0.8)"/><rect x="420" y="268" width="20" height="6" rx="3" fill="rgba(102,245,220,0.8)"/><rect x="428" y="252" width="17" height="6" rx="3" fill="rgba(102,245,220,0.8)"/><rect x="406" y="546" width="33" height="6" rx="3" fill="rgba(102,245,220,0.8)"/><rect x="411" y="296" width="28" height="6" rx="3" fill="rgba(102,245,220,0.8)"/><rect x="431" y="421" width="28" height="6" rx="3" fill="rgba(102,245,220,0.8)"/><rect x="448" y="228" width="22" height="6" rx="3" fill="rgba(102,245,220,0.8)"/><rect x="424" y="313" width="32" height="6" rx="3" fill="rgba(102,245,220,0.8)"/><rect x="437" y="378" width="24" height="6" rx="3" fill="rgba(102,245,220,0.8)"/><rect x="451" y="451" width="30" height="6" rx="3" fill="rgba(102,245,220,0.8)"/></g><g><rect x="469" y="302" width="116" height="348" rx="10" fill="rgba(10,20,42,0.58)" stroke="rgba(130,190,255,0.45)"/><rect x="517" y="411" width="17" height="6" rx="3" fill="rgba(102,245,220,0.8)"/><rect x="489" y="418" width="33" height="6" rx="3" fill="rgba(102,245,220,0.8)"/><rect x="514" y="485" width="17" height="6" rx="3" fill="rgba(102,245,220,0.8)"/><rect x="517" y="559" width="22" height="6" rx="3" fill="rgba(102,245,220,0.8)"/><rect x="523" y="457" width="18" height="6" rx="3" fill="rgba(102,245,220,0.8)"/><rect x="564" y="402" width="22" height="6" rx="3" fill="rgba(102,245,220,0.8)"/><rect x="524" y="381" width="30" height="6" rx="3" fill="rgba(102,245,220,0.8)"/><rect x="493" y="612" width="33" height="6" rx="3" fill="rgba(102,245,220,0.8)"/><rect x="567" y="453" width="19" height="6" rx="3" fill="rgba(102,245,220,0.8)"/><rect x="546" y="420" width="17" height="6" rx="3" fill="rgba(102,245,220,0.8)"/></g><g><rect x="670" y="311" width="107" height="323" rx="10" fill="rgba(10,20,42,0.58)" stroke="rgba(130,190,255,0.45)"/><rect x="735" y="508" width="22" height="6" rx="3" fill="rgba(102,245,220,0.8)"/><rect x="722" y="579" width="29" height="6" rx="3" fill="rgba(102,245,220,0.8)"/><rect x="727" y="402" width="19" height="6" rx="3" fill="rgba(102,245,220,0.8)"/><rect x="746" y="341" width="19" height="6" rx="3" fill="rgba(102,245,220,0.8)"/><rect x="698" y="347" width="28" height="6" rx="3" fill="rgba(102,245,220,0.8)"/><rect x="707" y="468" width="24" height="6" rx="3" fill="rgba(102,245,220,0.8)"/><rect x="713" y="382" width="34" height="6" rx="3" fill="rgba(102,245,220,0.8)"/><rect x="748" y="460" width="21" height="6" rx="3" fill="rgba(102,245,220,0.8)"/></g><g><rect x="710" y="206" width="125" height="433" rx="10" fill="rgba(10,20,42,0.58)" stroke="rgba(130,190,255,0.45)"/><rect x="808" y="508" width="23" height="6" rx="3" fill="rgba(102,245,220,0.8)"/><rect x="802" y="243" width="25" height="6" rx="3" fill="rgba(102,245,220,0.8)"/><rect x="749" y="487" width="32" height="6" rx="3" fill="rgba(102,245,220,0.8)"/><rect x="774" y="449" width="25" height="6" rx="3" fill="rgba(102,245,220,0.8)"/><rect x="742" y="532" width="33" height="6" rx="3" fill="rgba(102,245,220,0.8)"/></g><g><rect x="1042" y="280" width="114" height="355" rx="10" fill="rgba(10,20,42,0.58)" stroke="rgba(130,190,255,0.45)"/><rect x="1086" y="504" width="34" height="6" rx="3" fill="rgba(102,245,220,0.8)"/><rect x="1111" y="352" width="28" height="6" rx="3" fill="rgba(102,245,220,0.8)"/><rect x="1096" y="475" width="18" height="6" rx="3" fill="rgba(102,245,220,0.8)"/><rect x="1074" y="468" width="18" height="6" rx="3" fill="rgba(102,245,220,0.8)"/><rect x="1119" y="311" width="31" height="6" rx="3" fill="rgba(102,245,220,0.8)"/><rect x="1075" y="530" width="22" height="6" rx="3" fill="rgba(102,245,220,0.8)"/><rect x="1116" y="348" width="19" height="6" rx="3" fill="rgba(102,245,220,0.8)"/><rect x="1067" y="353" width="16" height="6" rx="3" fill="rgba(102,245,220,0.8)"/></g><g><rect x="952" y="198" width="105" height="444" rx="10" fill="rgba(10,20,42,0.58)" stroke="rgba(130,190,255,0.45)"/><rect x="1012" y="510" width="28" height="6" rx="3" fill="rgba(102,245,220,0.8)"/><rect x="995" y="571" width="30" height="6" rx="3" fill="rgba(102,245,220,0.8)"/><rect x="1017" y="461" width="33" height="6" rx="3" fill="rgba(102,245,220,0.8)"/><rect x="983" y="262" width="18" height="6" rx="3" fill="rgba(102,245,220,0.8)"/><rect x="995" y="482" width="23" height="6" rx="3" fill="rgba(102,245,220,0.8)"/></g></g>
  <g id="scene-sparkles"><circle cx="471" cy="301" r="3.14" fill="rgba(180,240,255,0.40)"/><circle cx="255" cy="287" r="1.39" fill="rgba(180,240,255,0.42)"/><circle cx="394" cy="447" r="3.28" fill="rgba(180,240,255,0.26)"/><circle cx="299" cy="494" r="2.92" fill="rgba(180,240,255,0.31)"/><circle cx="1046" cy="57" r="3.13" fill="rgba(180,240,255,0.29)"/><circle cx="1141" cy="62" r="1.67" fill="rgba(180,240,255,0.27)"/><circle cx="879" cy="346" r="1.15" fill="rgba(180,240,255,0.40)"/><circle cx="107" cy="623" r="2.18" fill="rgba(180,240,255,0.29)"/><circle cx="78" cy="568" r="3.23" fill="rgba(180,240,255,0.37)"/><circle cx="584" cy="207" r="1.75" fill="rgba(180,240,255,0.38)"/><circle cx="978" cy="432" r="2.25" fill="rgba(180,240,255,0.36)"/><circle cx="198" cy="159" r="2.62" fill="rgba(180,240,255,0.44)"/><circle cx="591" cy="605" r="2.24" fill="rgba(180,240,255,0.36)"/><circle cx="719" cy="611" r="2.75" fill="rgba(180,240,255,0.21)"/><circle cx="200" cy="200" r="1.35" fill="rgba(180,240,255,0.16)"/><circle cx="307" cy="474" r="2.71" fill="rgba(180,240,255,0.15)"/><circle cx="255" cy="283" r="3.38" fill="rgba(180,240,255,0.37)"/></g>
  <rect width="1200" height="675" fill="rgba(190,220,255,0.06)"/>
  <rect width="1200" height="675" filter="url(#grain-43)"/>
  <rect width="1200" height="675" fill="url(#vignette-43)"/>
  <rect x="20" y="20" width="1160" height="635" rx="32" fill="none" stroke="rgba(155,220,255,0.24)"/>
</svg>