<?xml version="1.0" encoding="UTF-8"?>
<svg xmlns="http://www.w3.org/2000/svg" width="1200" height="675" viewBox="0 0 1200 675" role="img" aria-label="AIGC fallback cover 54" data-scene="scene-4">
  <defs>
    <linearGradient id="bg-54" x1="0" y1="0" x2="1" y2="1">
      <stop offset="0%" stop-color="hsl(86, 82%, 16%)"/>
      <stop offset="52%" stop-color="hsl(155, 84%, 23%)"/>
      <stop offset="100%" stop-color="hsl(208, 78%, 12%)"/>
    </linearGradient>
    <filter id="blur-54" x="-25%" y="-25%" width="150%" height="150%">
      <feGaussianBlur stdDeviation="26"/>
    </filter>
    <filter id="soft-54" x="-25%" y="-25%" width="150%" height="150%">
      <feGaussianBlur stdDeviation="10"/>
    </filter>
    <filter id="grain-54" x="0%" y="0%" width="100%" height="100%">
      <feTurbulence type="fractalNoise" baseFrequency="0.9" numOctaves="2" seed="702" stitchTiles="stitch"/>
      <feColorMatrix type="saturate" values="0"/>
      <feComponentTransfer>
        <feFuncA type="table" tableValues="0 0.05"/>
      </feComponentTransfer>
    </filter>
    <radialGradient id="vignette-54" cx="50%" cy="45%" r="70%">
      <stop offset="60%" stop-color="rgba(0,0,0,0)"/>
      <stop offset="100%" stop-color="rgba(0,0,0,0.45)"/>
    </radialGradient>
  </defs>

  <rect width="1200" height="675" fill="url(#bg-54)"/>
  <circle cx="934" cy="413" r="177" fill="hsl(86, 92%, 62%)" opacity="0.10" filter="url(#blur-54)"/><circle cx="736" cy="516" r="139" fill="hsl(112, 92%, 62%)" opacity="0.13" filter="url(#blur-54)"/><circle cx="642" cy="463" r="139" fill="hsl(138, 92%, 62%)" opacity="0.14" filter="url(#blur-54)"/>
  <circle cx="319" cy="73" r="57" fill="rgba(210,240,255,0.08)" filter="url(#soft-54)"/><circle cx="723" cy="254" r="35" fill="rgba(210,240,255,0.14)" filter="url(#soft-54)"/><circle cx="846" cy="322" r="45" fill="rgba(210,240,255,0.11)" filter="url(#soft-54)"/><circle cx="433" cy="395" r="51" fill="rgba(210,240,255,0.14)" filter="url(#soft-54)"/><circle cx="91" cy="110" r="66" fill="rgba(210,240,255,0.10)" filter="url(#soft-54)"/><circle cx="719" cy="136" r="45" fill="rgba(210,240,255,0.11)" filter="url(#soft-54)"/><circle cx="487" cy="349" r="37" fill="rgba(210,240,255,0.14)" filter="url(#soft-54)"/><circle cx="323" cy="112" r="36" fill="rgba(210,240,255,0.07)" filter="url(#soft-54)"/><circle cx="137" cy="219" r="46" fill="rgba(210,240,255,0.09)" filter="url(#soft-54)"/>
  <polygon points="0,675 1200,675 1279,447 -79,447" fill="rgba(8,16,28,0.35)"/>
  <g id="scene-city"><g><rect x="148" y="497" width="104" height="178" rx="8" fill="rgba(8,18,38,0.58)" stroke="hsl(86, 70%, 52%)" opacity="0.72"/><rect x="156" y="517" width="84" height="5" rx="2" fill="rgba(120,240,255,0.22)"/><rect x="160" y="535" width="85" height="5" rx="2" fill="rgba(120,240,255,0.22)"/><rect x="160" y="565" width="87" height="5" rx="2" fill="rgba(120,240,255,0.22)"/><rect x="159" y="583" width="76" height="5" rx="2" fill="rgba(120,240,255,0.22)"/><rect x="158" y="605" width="86" height="5" rx="2" fill="rgba(120,240,255,0.22)"/><rect x="157" y="622" width="77" height="5" rx="2" fill="rgba(120,240,255,0.22)"/></g><g><rect x="98" y="426" width="51" height="249" rx="8" fill="rgba(8,18,38,0.58)" stroke="hsl(91, 70%, 52%)" opacity="0.72"/><rect x="109" y="446" width="34" height="5" rx="2" fill="rgba(120,240,255,0.22)"/><rect x="106" y="474" width="31" height="5" rx="2" fill="rgba(120,240,255,0.22)"/><rect x="112" y="488" width="32" height="5" rx="2" fill="rgba(120,240,255,0.22)"/><rect x="106" y="521" width="29" height="5" rx="2" fill="rgba(120,240,255,0.22)"/><rect x="106" y="550" width="31" height="5" rx="2" fill="rgba(120,240,255,0.22)"/><rect x="107" y="586" width="28" height="5" rx="2" fill="rgba(120,240,255,0.22)"/></g><g><rect x="128" y="447" width="111" height="228" rx="8" fill="rgba(8,18,38,0.58)" stroke="hsl(96, 70%, 52%)" opacity="0.72"/><rect x="144" y="467" width="92" height="5" rx="2" fill="rgba(120,240,255,0.22)"/><rect x="137" y="493" width="93" height="5" rx="2" fill="rgba(120,240,255,0.22)"/><rect x="137" y="521" width="93" height="5" rx="2" fill="rgba(120,240,255,0.22)"/><rect x="138" y="530" width="91" height="5" rx="2" fill="rgba(120,240,255,0.22)"/><rect x="141" y="551" width="83" height="5" rx="2" fill="rgba(120,240,255,0.22)"/><rect x="139" y="597" width="91" height="5" rx="2" fill="rgba(120,240,255,0.22)"/><rect x="140" y="629" width="85" height="5" rx="2" fill="rgba(120,240,255,0.22)"/></g><g><rect x="682" y="507" width="63" height="168" rx="8" fill="rgba(8,18,38,0.58)" stroke="hsl(101, 70%, 52%)" opacity="0.72"/><rect x="695" y="527" width="44" height="5" rx="2" fill="rgba(120,240,255,0.22)"/><rect x="693" y="551" width="37" height="5" rx="2" fill="rgba(120,240,255,0.22)"/><rect x="694" y="571" width="44" height="5" rx="2" fill="rgba(120,240,255,0.22)"/><rect x="694" y="587" width="42" height="5" rx="2" fill="rgba(120,240,255,0.22)"/><rect x="694" y="599" width="43" height="5" rx="2" fill="rgba(120,240,255,0.22)"/><rect x="698" y="667" width="40" height="5" rx="2" fill="rgba(120,240,255,0.22)"/><rect x="692" y="653" width="40" height="5" rx="2" fill="rgba(120,240,255,0.22)"/><rect x="696" y="723" width="46" height="5" rx="2" fill="rgba(120,240,255,0.22)"/><rect x="695" y="743" width="40" height="5" rx="2" fill="rgba(120,240,255,0.22)"/><rect x="697" y="752" width="46" height="5" rx="2" fill="rgba(120,240,255,0.22)"/></g><g><rect x="505" y="316" width="114" height="359" rx="8" fill="rgba(8,18,38,0.58)" stroke="hsl(106, 70%, 52%)" opacity="0.72"/><rect x="513" y="336" width="91" height="5" rx="2" fill="rgba(120,240,255,0.22)"/><rect x="515" y="357" width="87" height="5" rx="2" fill="rgba(120,240,255,0.22)"/><rect x="519" y="390" width="95" height="5" rx="2" fill="rgba(120,240,255,0.22)"/><rect x="521" y="408" width="87" height="5" rx="2" fill="rgba(120,240,255,0.22)"/><rect x="520" y="440" width="94" height="5" rx="2" fill="rgba(120,240,255,0.22)"/></g><g><rect x="490" y="535" width="40" height="140" rx="8" fill="rgba(8,18,38,0.58)" stroke="hsl(111, 70%, 52%)" opacity="0.72"/><rect x="500" y="555" width="18" height="5" rx="2" fill="rgba(120,240,255,0.22)"/><rect x="504" y="581" width="21" height="5" rx="2" fill="rgba(120,240,255,0.22)"/><rect x="506" y="609" width="13" height="5" rx="2" fill="rgba(120,240,255,0.22)"/><rect x="503" y="633" width="15" height="5" rx="2" fill="rgba(120,240,255,0.22)"/><rect x="502" y="663" width="20" height="5" rx="2" fill="rgba(120,240,255,0.22)"/><rect x="506" y="660" width="16" height="5" rx="2" fill="rgba(120,240,255,0.22)"/><rect x="498" y="699" width="16" height="5" rx="2" fill="rgba(120,240,255,0.22)"/><rect x="501" y="709" width="20" height="5" rx="2" fill="rgba(120,240,255,0.22)"/></g><g><rect x="92" y="502" width="93" height="173" rx="8" fill="rgba(8,18,38,0.58)" stroke="hsl(116, 70%, 52%)" opacity="0.72"/><rect x="104" y="522" width="67" height="5" rx="2" fill="rgba(120,240,255,0.22)"/><rect x="108" y="550" width="65" height="5" rx="2" fill="rgba(120,240,255,0.22)"/><rect x="108" y="568" width="72" height="5" rx="2" fill="rgba(120,240,255,0.22)"/><rect x="103" y="603" width="75" height="5" rx="2" fill="rgba(120,240,255,0.22)"/><rect x="106" y="630" width="77" height="5" rx="2" fill="rgba(120,240,255,0.22)"/><rect x="100" y="637" width="72" height="5" rx="2" fill="rgba(120,240,255,0.22)"/><rect x="107" y="654" width="70" height="5" rx="2" fill="rgba(120,240,255,0.22)"/><rect x="106" y="655" width="74" height="5" rx="2" fill="rgba(120,240,255,0.22)"/><rect x="102" y="706" width="69" height="5" rx="2" fill="rgba(120,240,255,0.22)"/></g><g><rect x="554" y="474" width="44" height="201" rx="8" fill="rgba(8,18,38,0.58)" stroke="hsl(121, 70%, 52%)" opacity="0.72"/><rect x="563" y="494" width="18" height="5" rx="2" fill="rgba(120,240,255,0.22)"/><rect x="569" y="518" width="22" height="5" rx="2" fill="rgba(120,240,255,0.22)"/><rect x="563" y="530" width="18" height="5" rx="2" fill="rgba(120,240,255,0.22)"/><rect x="567" y="575" width="27" height="5" rx="2" fill="rgba(120,240,255,0.22)"/><rect x="564" y="574" width="22" height="5" rx="2" fill="rgba(120,240,255,0.22)"/><rect x="562" y="584" width="16" height="5" rx="2" fill="rgba(120,240,255,0.22)"/><rect x="569" y="638" width="24" height="5" rx="2" fill="rgba(120,240,255,0.22)"/><rect x="570" y="669" width="16" height="5" rx="2" fill="rgba(120,240,255,0.22)"/></g><g><rect x="206" y="353" width="86" height="322" rx="8" fill="rgba(8,18,38,0.58)" stroke="hsl(126, 70%, 52%)" opacity="0.72"/><rect x="217" y="373" width="66" height="5" rx="2" fill="rgba(120,240,255,0.22)"/><rect x="220" y="395" width="59" height="5" rx="2" fill="rgba(120,240,255,0.22)"/><rect x="219" y="429" width="68" height="5" rx="2" fill="rgba(120,240,255,0.22)"/><rect x="216" y="445" width="58" height="5" rx="2" fill="rgba(120,240,255,0.22)"/><rect x="214" y="477" width="69" height="5" rx="2" fill="rgba(120,240,255,0.22)"/><rect x="216" y="513" width="67" height="5" rx="2" fill="rgba(120,240,255,0.22)"/><rect x="221" y="535" width="70" height="5" rx="2" fill="rgba(120,240,255,0.22)"/><rect x="217" y="499" width="66" height="5" rx="2" fill="rgba(120,240,255,0.22)"/></g><g><rect x="672" y="358" width="59" height="317" rx="8" fill="rgba(8,18,38,0.58)" stroke="hsl(131, 70%, 52%)" opacity="0.72"/><rect x="688" y="378" width="37" height="5" rx="2" fill="rgba(120,240,255,0.22)"/><rect x="685" y="405" width="42" height="5" rx="2" fill="rgba(120,240,255,0.22)"/><rect x="686" y="428" width="42" height="5" rx="2" fill="rgba(120,240,255,0.22)"/><rect x="688" y="444" width="41" height="5" rx="2" fill="rgba(120,240,255,0.22)"/><rect x="683" y="474" width="35" height="5" rx="2" fill="rgba(120,240,255,0.22)"/><rect x="683" y="498" width="35" height="5" rx="2" fill="rgba(120,240,255,0.22)"/><rect x="687" y="528" width="41" height="5" rx="2" fill="rgba(120,240,255,0.22)"/><rect x="687" y="546" width="38" height="5" rx="2" fill="rgba(120,240,255,0.22)"/></g><g><rect x="1021" y="494" width="70" height="181" rx="8" fill="rgba(8,18,38,0.58)" stroke="hsl(136, 70%, 52%)" opacity="0.72"/><rect x="1035" y="514" width="48" height="5" rx="2" fill="rgba(120,240,255,0.22)"/><rect x="1036" y="539" width="53" height="5" rx="2" fill="rgba(120,240,255,0.22)"/><rect x="1029" y="570" width="44" height="5" rx="2" fill="rgba(120,240,255,0.22)"/><rect x="1030" y="589" width="47" height="5" rx="2" fill="rgba(120,240,255,0.22)"/><rect x="1033" y="594" width="43" height="5" rx="2" fill="rgba(120,240,255,0.22)"/><rect x="1029" y="639" width="53" height="5" rx="2" fill="rgba(120,240,255,0.22)"/><rect x="1037" y="664" width="48" height="5" rx="2" fill="rgba(120,240,255,0.22)"/><rect x="1036" y="703" width="46" height="5" rx="2" fill="rgba(120,240,255,0.22)"/></g><g><rect x="918" y="462" width="40" height="213" rx="8" fill="rgba(8,18,38,0.58)" stroke="hsl(141, 70%, 52%)" opacity="0.72"/><rect x="927" y="482" width="17" height="5" rx="2" fill="rgba(120,240,255,0.22)"/><rect x="928" y="503" width="12" height="5" rx="2" fill="rgba(120,240,255,0.22)"/><rect x="928" y="538" width="22" height="5" rx="2" fill="rgba(120,240,255,0.22)"/><rect x="926" y="566" width="14" height="5" rx="2" fill="rgba(120,240,255,0.22)"/><rect x="929" y="566" width="23" height="5" rx="2" fill="rgba(120,240,255,0.22)"/></g></g>
  <g id="scene-sparkles"><circle cx="489" cy="210" r="3.32" fill="rgba(180,240,255,0.41)"/><circle cx="618" cy="128" r="2.07" fill="rgba(180,240,255,0.45)"/><circle cx="95" cy="330" r="1.76" fill="rgba(180,240,255,0.20)"/><circle cx="71" cy="274" r="2.22" fill="rgba(180,240,255,0.31)"/><circle cx="264" cy="655" r="3.27" fill="rgba(180,240,255,0.37)"/><circle cx="102" cy="84" r="1.34" fill="rgba(180,240,255,0.31)"/><circle cx="1044" cy="286" r="1.53" fill="rgba(180,240,255,0.18)"/><circle cx="1112" cy="402" r="1.16" fill="rgba(180,240,255,0.29)"/><circle cx="497" cy="490" r="1.51" fill="rgba(180,240,255,0.27)"/><circle cx="1065" cy="424" r="2.66" fill="rgba(180,240,255,0.36)"/><circle cx="274" cy="401" r="2.30" fill="rgba(180,240,255,0.44)"/><circle cx="1175" cy="82" r="1.15" fill="rgba(180,240,255,0.25)"/><circle cx="500" cy="519" r="2.82" fill="rgba(180,240,255,0.31)"/><circle cx="874" cy="99" r="2.99" fill="rgba(180,240,255,0.39)"/><circle cx="182" cy="386" r="1.14" fill="rgba(180,240,255,0.22)"/><circle cx="209" cy="611" r="1.48" fill="rgba(180,240,255,0.30)"/><circle cx="771" cy="51" r="1.13" fill="rgba(180,240,255,0.25)"/><circle cx="89" cy="86" r="2.84" fill="rgba(180,240,255,0.43)"/><circle cx="1052" cy="534" r="1.58" fill="rgba(180,240,255,0.42)"/><circle cx="302" cy="22" r="3.36" fill="rgba(180,240,255,0.21)"/></g>
  <rect width="1200" height="675" fill="rgba(190,220,255,0.06)"/>
  <rect width="1200" height="675" filter="url(#grain-54)"/>
  <rect width="1200" height="675" fill="url(#vignette-54)"/>
  <rect x="20" y="20" width="1160" height="635" rx="32" fill="none" stroke="rgba(155,220,255,0.24)"/>
</svg>