<?xml version="1.0" encoding="UTF-8"?>
<svg xmlns="http://www.w3.org/2000/svg" width="1200" height="675" viewBox="0 0 1200 675" role="img" aria-label="AIGC fallback cover 26" data-scene="scene-6">
  <defs>
    <linearGradient id="bg-26" x1="0" y1="0" x2="1" y2="1">
      <stop offset="0%" stop-color="hsl(353, 82%, 16%)"/>
      <stop offset="52%" stop-color="hsl(39, 84%, 23%)"/>
      <stop offset="100%" stop-color="hsl(153, 78%, 12%)"/>
    </linearGradient>
    <filter id="blur-26" x="-25%" y="-25%" width="150%" height="150%">
      <feGaussianBlur stdDeviation="26"/>
    </filter>
    <filter id="soft-26" x="-25%" y="-25%" width="150%" height="150%">
      <feGaussianBlur stdDeviation="10"/>
    </filter>
    <filter id="grain-26" x="0%" y="0%" width="100%" height="100%">
      <feTurbulence type="fractalNoise" baseFrequency="0.9" numOctaves="2" seed="338" stitchTiles="stitch"/>
      <feColorMatrix type="saturate" values="0"/>
      <feComponentTransfer>
        <feFuncA type="table" tableValues="0 0.05"/>
      </feComponentTransfer>
    </filter>
    <radialGradient id="vignette-26" cx="50%" cy="45%" r="70%">
      <stop offset="60%" stop-color="rgba(0,0,0,0)"/>
      <stop offset="100%" stop-color="rgba(0,0,0,0.45)"/>
    </radialGradient>
  </defs>

  <rect width="1200" height="675" fill="url(#bg-26)"/>
  <circle cx="314" cy="364" r="134" fill="hsl(353, 92%, 62%)" opacity="0.18" filter="url(#blur-26)"/><circle cx="315" cy="100" r="125" fill="hsl(379, 92%, 62%)" opacity="0.13" filter="url(#blur-26)"/><circle cx="770" cy="333" r="203" fill="hsl(405, 92%, 62%)" opacity="0.18" filter="url(#blur-26)"/>
  <circle cx="529" cy="409" r="49" fill="rgba(210,240,255,0.11)" filter="url(#soft-26)"/><circle cx="515" cy="358" r="47" fill="rgba(210,240,255,0.11)" filter="url(#soft-26)"/><circle cx="1074" cy="419" r="65" fill="rgba(210,240,255,0.07)" filter="url(#soft-26)"/><circle cx="1144" cy="242" r="32" fill="rgba(210,240,255,0.08)" filter="url(#soft-26)"/><circle cx="573" cy="171" r="54" fill="rgba(210,240,255,0.08)" filter="url(#soft-26)"/><circle cx="1097" cy="67" r="50" fill="rgba(210,240,255,0.13)" filter="url(#soft-26)"/><circle cx="304" cy="441" r="33" fill="rgba(210,240,255,0.10)" filter="url(#soft-26)"/><circle cx="307" cy="31" r="69" fill="rgba(210,240,255,0.09)" filter="url(#soft-26)"/><circle cx="756" cy="238" r="47" fill="rgba(210,240,255,0.15)" filter="url(#soft-26)"/><circle cx="785" cy="175" r="65" fill="rgba(210,240,255,0.08)" filter="url(#soft-26)"/>
  <polygon points="0,675 1200,675 997,453 203,453" fill="rgba(8,16,28,0.35)"/>
  <g id="scene-cloud-pipeline"><g><circle cx="393" cy="204" r="38" fill="rgba(180,220,255,0.42)"/><circle cx="419" cy="212" r="33" fill="rgba(180,220,255,0.36)"/><rect x="371" y="212" width="94" height="22" rx="11" fill="rgba(170,220,255,0.3)"/></g><g><circle cx="582" cy="197" r="36" fill="rgba(180,220,255,0.42)"/><circle cx="625" cy="200" r="20" fill="rgba(180,220,255,0.36)"/><rect x="560" y="205" width="107" height="22" rx="11" fill="rgba(170,220,255,0.3)"/></g><g><circle cx="713" cy="190" r="36" fill="rgba(180,220,255,0.42)"/><circle cx="741" cy="194" r="22" fill="rgba(180,220,255,0.36)"/><rect x="691" y="198" width="99" height="22" rx="11" fill="rgba(170,220,255,0.3)"/></g><g><circle cx="163" cy="125" r="30" fill="rgba(180,220,255,0.42)"/><circle cx="199" cy="126" r="20" fill="rgba(180,220,255,0.36)"/><rect x="141" y="133" width="103" height="22" rx="11" fill="rgba(170,220,255,0.3)"/></g><g><circle cx="833" cy="159" r="29" fill="rgba(180,220,255,0.42)"/><circle cx="875" cy="160" r="30" fill="rgba(180,220,255,0.36)"/><rect x="811" y="167" width="102" height="22" rx="11" fill="rgba(170,220,255,0.3)"/></g><path d="M 721 224 h 122 v 95 h 134" fill="none" stroke="rgba(120,255,210,0.34)" stroke-width="8" stroke-linecap="round"/><path d="M 1007 392 h 116 v 37 h -42" fill="none" stroke="rgba(120,255,210,0.34)" stroke-width="8" stroke-linecap="round"/><path d="M 303 254 h 51 v 78 h 117" fill="none" stroke="rgba(120,255,210,0.34)" stroke-width="6" stroke-linecap="round"/><path d="M 704 314 h 134 v 51 h 16" fill="none" stroke="rgba(120,255,210,0.34)" stroke-width="6" stroke-linecap="round"/><path d="M 311 193 h 77 v 55 h 116" fill="none" stroke="rgba(120,255,210,0.34)" stroke-width="7" stroke-linecap="round"/><path d="M 783 330 h 113 v 66 h 114" fill="none" stroke="rgba(120,255,210,0.34)" stroke-width="8" stroke-linecap="round"/><path d="M 584 313 h 124 v 27 h 72" fill="none" stroke="rgba(120,255,210,0.34)" stroke-width="5" stroke-linecap="round"/><path d="M 701 278 h 115 v 47 h 20" fill="none" stroke="rgba(120,255,210,0.34)" stroke-width="7" stroke-linecap="round"/><path d="M 376 321 h 110 v 88 h -63" fill="none" stroke="rgba(120,255,210,0.34)" stroke-width="7" stroke-linecap="round"/></g>
  <g id="scene-sparkles"><circle cx="404" cy="368" r="1.15" fill="rgba(180,240,255,0.30)"/><circle cx="1146" cy="525" r="3.03" fill="rgba(180,240,255,0.43)"/><circle cx="75" cy="231" r="1.75" fill="rgba(180,240,255,0.38)"/><circle cx="234" cy="516" r="3.08" fill="rgba(180,240,255,0.29)"/><circle cx="235" cy="24" r="3.26" fill="rgba(180,240,255,0.21)"/><circle cx="763" cy="620" r="1.51" fill="rgba(180,240,255,0.17)"/><circle cx="824" cy="580" r="1.58" fill="rgba(180,240,255,0.31)"/><circle cx="1127" cy="90" r="2.99" fill="rgba(180,240,255,0.43)"/><circle cx="47" cy="460" r="3.32" fill="rgba(180,240,255,0.44)"/><circle cx="1160" cy="433" r="3.31" fill="rgba(180,240,255,0.33)"/><circle cx="313" cy="311" r="1.19" fill="rgba(180,240,255,0.28)"/><circle cx="741" cy="238" r="3.06" fill="rgba(180,240,255,0.37)"/><circle cx="371" cy="199" r="2.57" fill="rgba(180,240,255,0.22)"/><circle cx="910" cy="39" r="2.17" fill="rgba(180,240,255,0.32)"/><circle cx="511" cy="470" r="2.75" fill="rgba(180,240,255,0.29)"/><circle cx="1100" cy="230" r="1.49" fill="rgba(180,240,255,0.15)"/><circle cx="202" cy="600" r="1.79" fill="rgba(180,240,255,0.18)"/><circle cx="281" cy="554" r="2.64" fill="rgba(180,240,255,0.33)"/><circle cx="277" cy="419" r="1.83" fill="rgba(180,240,255,0.27)"/><circle cx="1111" cy="173" r="2.70" fill="rgba(180,240,255,0.41)"/><circle cx="218" cy="223" r="2.10" fill="rgba(180,240,255,0.18)"/></g>
  <rect width="1200" height="675" fill="rgba(190,220,255,0.06)"/>
  <rect width="1200" height="675" filter="url(#grain-26)"/>
  <rect width="1200" height="675" fill="url(#vignette-26)"/>
  <rect x="20" y="20" width="1160" height="635" rx="32" fill="none" stroke="rgba(155,220,255,0.24)"/>
</svg>