<?xml version="1.0" encoding="UTF-8"?>
<svg xmlns="http://www.w3.org/2000/svg" width="1200" height="675" viewBox="0 0 1200 675" role="img" aria-label="AIGC fallback cover 100" data-scene="scene-10">
  <defs>
    <linearGradient id="bg-100" x1="0" y1="0" x2="1" y2="1">
      <stop offset="0%" stop-color="hsl(168, 82%, 16%)"/>
      <stop offset="52%" stop-color="hsl(237, 84%, 23%)"/>
      <stop offset="100%" stop-color="hsl(310, 78%, 12%)"/>
    </linearGradient>
    <filter id="blur-100" x="-25%" y="-25%" width="150%" height="150%">
      <feGaussianBlur stdDeviation="26"/>
    </filter>
    <filter id="soft-100" x="-25%" y="-25%" width="150%" height="150%">
      <feGaussianBlur stdDeviation="10"/>
    </filter>
    <filter id="grain-100" x="0%" y="0%" width="100%" height="100%">
      <feTurbulence type="fractalNoise" baseFrequency="0.9" numOctaves="2" seed="1300" stitchTiles="stitch"/>
      <feColorMatrix type="saturate" values="0"/>
      <feComponentTransfer>
        <feFuncA type="table" tableValues="0 0.05"/>
      </feComponentTransfer>
    </filter>
    <radialGradient id="vignette-100" cx="50%" cy="45%" r="70%">
      <stop offset="60%" stop-color="rgba(0,0,0,0)"/>
      <stop offset="100%" stop-color="rgba(0,0,0,0.45)"/>
    </radialGradient>
  </defs>

  <rect width="1200" height="675" fill="url(#bg-100)"/>
  <circle cx="551" cy="182" r="123" fill="hsl(168, 92%, 62%)" opacity="0.15" filter="url(#blur-100)"/><circle cx="273" cy="468" r="113" fill="hsl(194, 92%, 62%)" opacity="0.16" filter="url(#blur-100)"/><circle cx="1105" cy="211" r="125" fill="hsl(220, 92%, 62%)" opacity="0.15" filter="url(#blur-100)"/>
  <circle cx="647" cy="332" r="22" fill="rgba(210,240,255,0.09)" filter="url(#soft-100)"/><circle cx="844" cy="262" r="38" fill="rgba(210,240,255,0.07)" filter="url(#soft-100)"/><circle cx="810" cy="53" r="24" fill="rgba(210,240,255,0.07)" filter="url(#soft-100)"/><circle cx="927" cy="120" r="20" fill="rgba(210,240,255,0.11)" filter="url(#soft-100)"/><circle cx="1129" cy="352" r="69" fill="rgba(210,240,255,0.11)" filter="url(#soft-100)"/><circle cx="207" cy="194" r="56" fill="rgba(210,240,255,0.07)" filter="url(#soft-100)"/><circle cx="490" cy="207" r="20" fill="rgba(210,240,255,0.09)" filter="url(#soft-100)"/><circle cx="1118" cy="113" r="62" fill="rgba(210,240,255,0.09)" filter="url(#soft-100)"/><circle cx="166" cy="453" r="67" fill="rgba(210,240,255,0.09)" filter="url(#soft-100)"/><circle cx="236" cy="342" r="37" fill="rgba(210,240,255,0.10)" filter="url(#soft-100)"/>
  <polygon points="0,675 1200,675 1185,415 15,415" fill="rgba(8,16,28,0.35)"/>
  <g id="scene-robot-arms"><g><circle cx="600" cy="453" r="16" fill="rgba(120,215,255,0.75)"/><line x1="600" y1="453" x2="594" y2="252" stroke="rgba(145,235,255,0.62)" stroke-width="12" stroke-linecap="round"/><line x1="594" y1="252" x2="695" y2="162" stroke="rgba(120,255,220,0.6)" stroke-width="7" stroke-linecap="round"/><circle cx="594" cy="252" r="10" fill="rgba(150,245,255,0.8)"/><circle cx="695" cy="162" r="8" fill="rgba(120,255,220,0.86)"/></g><g><circle cx="641" cy="594" r="16" fill="rgba(120,215,255,0.75)"/><line x1="641" y1="594" x2="708" y2="430" stroke="rgba(145,235,255,0.62)" stroke-width="8" stroke-linecap="round"/><line x1="708" y1="430" x2="755" y2="288" stroke="rgba(120,255,220,0.6)" stroke-width="6" stroke-linecap="round"/><circle cx="708" cy="430" r="10" fill="rgba(150,245,255,0.8)"/><circle cx="755" cy="288" r="8" fill="rgba(120,255,220,0.86)"/></g><g><circle cx="502" cy="588" r="16" fill="rgba(120,215,255,0.75)"/><line x1="502" y1="588" x2="626" y2="450" stroke="rgba(145,235,255,0.62)" stroke-width="8" stroke-linecap="round"/><line x1="626" y1="450" x2="701" y2="302" stroke="rgba(120,255,220,0.6)" stroke-width="8" stroke-linecap="round"/><circle cx="626" cy="450" r="10" fill="rgba(150,245,255,0.8)"/><circle cx="701" cy="302" r="8" fill="rgba(120,255,220,0.86)"/></g><g><circle cx="669" cy="493" r="16" fill="rgba(120,215,255,0.75)"/><line x1="669" y1="493" x2="789" y2="313" stroke="rgba(145,235,255,0.62)" stroke-width="12" stroke-linecap="round"/><line x1="789" y1="313" x2="767" y2="214" stroke="rgba(120,255,220,0.6)" stroke-width="8" stroke-linecap="round"/><circle cx="789" cy="313" r="10" fill="rgba(150,245,255,0.8)"/><circle cx="767" cy="214" r="8" fill="rgba(120,255,220,0.86)"/></g><g><circle cx="326" cy="436" r="16" fill="rgba(120,215,255,0.75)"/><line x1="326" y1="436" x2="407" y2="245" stroke="rgba(145,235,255,0.62)" stroke-width="9" stroke-linecap="round"/><line x1="407" y1="245" x2="349" y2="141" stroke="rgba(120,255,220,0.6)" stroke-width="9" stroke-linecap="round"/><circle cx="407" cy="245" r="10" fill="rgba(150,245,255,0.8)"/><circle cx="349" cy="141" r="8" fill="rgba(120,255,220,0.86)"/></g></g>
  <g id="scene-sparkles"><circle cx="904" cy="629" r="1.12" fill="rgba(180,240,255,0.42)"/><circle cx="492" cy="49" r="2.41" fill="rgba(180,240,255,0.23)"/><circle cx="473" cy="364" r="1.36" fill="rgba(180,240,255,0.18)"/><circle cx="861" cy="477" r="2.33" fill="rgba(180,240,255,0.17)"/><circle cx="221" cy="474" r="3.39" fill="rgba(180,240,255,0.42)"/><circle cx="1039" cy="79" r="1.54" fill="rgba(180,240,255,0.21)"/><circle cx="947" cy="152" r="1.39" fill="rgba(180,240,255,0.21)"/><circle cx="561" cy="250" r="3.02" fill="rgba(180,240,255,0.28)"/><circle cx="424" cy="410" r="1.88" fill="rgba(180,240,255,0.16)"/><circle cx="716" cy="599" r="2.50" fill="rgba(180,240,255,0.22)"/><circle cx="827" cy="374" r="1.42" fill="rgba(180,240,255,0.29)"/><circle cx="494" cy="411" r="1.14" fill="rgba(180,240,255,0.23)"/><circle cx="1020" cy="536" r="3.23" fill="rgba(180,240,255,0.38)"/><circle cx="161" cy="489" r="2.52" fill="rgba(180,240,255,0.40)"/><circle cx="212" cy="188" r="1.58" fill="rgba(180,240,255,0.35)"/><circle cx="1028" cy="293" r="2.76" fill="rgba(180,240,255,0.21)"/><circle cx="28" cy="432" r="2.12" fill="rgba(180,240,255,0.26)"/><circle cx="998" cy="397" r="1.49" fill="rgba(180,240,255,0.22)"/><circle cx="295" cy="468" r="1.22" fill="rgba(180,240,255,0.21)"/><circle cx="216" cy="379" r="1.37" fill="rgba(180,240,255,0.42)"/><circle cx="211" cy="156" r="3.40" fill="rgba(180,240,255,0.15)"/><circle cx="523" cy="124" r="1.58" fill="rgba(180,240,255,0.36)"/><circle cx="204" cy="237" r="3.35" fill="rgba(180,240,255,0.18)"/><circle cx="459" cy="309" r="2.05" fill="rgba(180,240,255,0.16)"/><circle cx="57" cy="551" r="3.02" fill="rgba(180,240,255,0.18)"/><circle cx="618" cy="193" r="2.59" fill="rgba(180,240,255,0.24)"/></g>
  <rect width="1200" height="675" fill="rgba(190,220,255,0.06)"/>
  <rect width="1200" height="675" filter="url(#grain-100)"/>
  <rect width="1200" height="675" fill="url(#vignette-100)"/>
  <rect x="20" y="20" width="1160" height="635" rx="32" fill="none" stroke="rgba(155,220,255,0.24)"/>
</svg>