<?xml version="1.0" encoding="UTF-8"?>
<svg xmlns="http://www.w3.org/2000/svg" width="1200" height="675" viewBox="0 0 1200 675" role="img" aria-label="Fallback cover 8" data-scene="landscape-8">
  
  <defs>
    <linearGradient id="sky-8" x1="0" y1="0" x2="0" y2="1">
      <stop offset="0%" stop-color="hsl(198, 70%, 74%)"/>
      <stop offset="55%" stop-color="hsl(226, 64%, 56%)"/>
      <stop offset="100%" stop-color="hsl(310, 46%, 34%)"/>
    </linearGradient>
    <filter id="grain-8" x="0%" y="0%" width="100%" height="100%">
      <feTurbulence type="fractalNoise" baseFrequency="0.85" numOctaves="2" seed="136" stitchTiles="stitch"/>
      <feColorMatrix type="saturate" values="0"/>
      <feComponentTransfer><feFuncA type="table" tableValues="0 0.05"/></feComponentTransfer>
    </filter>
    <filter id="soft-8" x="-30%" y="-30%" width="160%" height="160%">
      <feGaussianBlur stdDeviation="12"/>
    </filter>
    <radialGradient id="vignette-8" cx="50%" cy="45%" r="72%">
      <stop offset="60%" stop-color="rgba(0,0,0,0)"/>
      <stop offset="100%" stop-color="rgba(0,0,0,0.42)"/>
    </radialGradient>
  </defs>
  <rect width="1200" height="675" fill="url(#sky-8)"/>
  <path d="M 0 282 L 0 172 L 120 199 L 240 230 L 360 233 L 480 179 L 600 198 L 720 172 L 840 175 L 960 223 L 1080 239 L 1200 200 L 1320 213 L 1200 675 L 0 675 Z" fill="hsl(178, 28%, 24%)" opacity="0.85"/><path d="M 0 318 L 0 260 L 120 251 L 240 209 L 360 213 L 480 224 L 600 251 L 720 232 L 840 244 L 960 265 L 1080 273 L 1200 278 L 1320 221 L 1200 675 L 0 675 Z" fill="hsl(186, 34%, 32%)" opacity="0.67"/><path d="M 0 354 L 0 300 L 120 287 L 240 289 L 360 259 L 480 286 L 600 263 L 720 292 L 840 288 L 960 294 L 1080 259 L 1200 275 L 1320 284 L 1200 675 L 0 675 Z" fill="hsl(194, 40%, 40%)" opacity="0.49"/><path d="M 0 430 C 260 380, 640 500, 1200 420 L 1200 700 L 0 700 Z" fill="rgba(225,238,248,0.8)"/>
  <g id="scene-sparkles"><circle cx="795" cy="55" r="1.58" fill="rgba(245,250,255,0.23)"/><circle cx="737" cy="55" r="1.78" fill="rgba(245,250,255,0.37)"/><circle cx="770" cy="484" r="1.06" fill="rgba(245,250,255,0.29)"/><circle cx="822" cy="327" r="2.51" fill="rgba(245,250,255,0.31)"/><circle cx="21" cy="461" r="2.57" fill="rgba(245,250,255,0.29)"/><circle cx="518" cy="634" r="2.76" fill="rgba(245,250,255,0.35)"/><circle cx="1044" cy="159" r="2.71" fill="rgba(245,250,255,0.16)"/><circle cx="366" cy="377" r="1.83" fill="rgba(245,250,255,0.15)"/><circle cx="660" cy="282" r="1.65" fill="rgba(245,250,255,0.31)"/><circle cx="218" cy="327" r="0.94" fill="rgba(245,250,255,0.17)"/><circle cx="823" cy="622" r="1.74" fill="rgba(245,250,255,0.29)"/><circle cx="659" cy="212" r="2.31" fill="rgba(245,250,255,0.27)"/><circle cx="1021" cy="151" r="1.35" fill="rgba(245,250,255,0.28)"/><circle cx="307" cy="101" r="2.21" fill="rgba(245,250,255,0.22)"/><circle cx="188" cy="38" r="1.29" fill="rgba(245,250,255,0.37)"/><circle cx="879" cy="485" r="1.47" fill="rgba(245,250,255,0.29)"/><circle cx="527" cy="182" r="2.19" fill="rgba(245,250,255,0.40)"/><circle cx="336" cy="653" r="0.90" fill="rgba(245,250,255,0.21)"/><circle cx="987" cy="339" r="2.18" fill="rgba(245,250,255,0.17)"/><circle cx="841" cy="442" r="1.79" fill="rgba(245,250,255,0.24)"/><circle cx="67" cy="449" r="1.67" fill="rgba(245,250,255,0.39)"/><circle cx="321" cy="48" r="1.82" fill="rgba(245,250,255,0.25)"/><circle cx="222" cy="553" r="2.09" fill="rgba(245,250,255,0.27)"/><circle cx="858" cy="540" r="2.50" fill="rgba(245,250,255,0.35)"/><circle cx="1137" cy="171" r="1.67" fill="rgba(245,250,255,0.23)"/><circle cx="388" cy="449" r="1.74" fill="rgba(245,250,255,0.40)"/><circle cx="983" cy="67" r="1.25" fill="rgba(245,250,255,0.23)"/></g>
  <rect width="1200" height="675" filter="url(#grain-8)"/>
  <rect width="1200" height="675" fill="url(#vignette-8)"/>
</svg>