<?xml version="1.0" encoding="UTF-8"?>
<svg xmlns="http://www.w3.org/2000/svg" width="1200" height="675" viewBox="0 0 1200 675" role="img" aria-label="Fallback cover 3" data-scene="landscape-3">
  
  <defs>
    <linearGradient id="sky-3" x1="0" y1="0" x2="0" y2="1">
      <stop offset="0%" stop-color="hsl(90, 70%, 74%)"/>
      <stop offset="55%" stop-color="hsl(127, 64%, 56%)"/>
      <stop offset="100%" stop-color="hsl(195, 46%, 34%)"/>
    </linearGradient>
    <filter id="grain-3" x="0%" y="0%" width="100%" height="100%">
      <feTurbulence type="fractalNoise" baseFrequency="0.85" numOctaves="2" seed="51" stitchTiles="stitch"/>
      <feColorMatrix type="saturate" values="0"/>
      <feComponentTransfer><feFuncA type="table" tableValues="0 0.05"/></feComponentTransfer>
    </filter>
    <filter id="soft-3" x="-30%" y="-30%" width="160%" height="160%">
      <feGaussianBlur stdDeviation="12"/>
    </filter>
    <radialGradient id="vignette-3" cx="50%" cy="45%" r="72%">
      <stop offset="60%" stop-color="rgba(0,0,0,0)"/>
      <stop offset="100%" stop-color="rgba(0,0,0,0.42)"/>
    </radialGradient>
  </defs>
  <rect width="1200" height="675" fill="url(#sky-3)"/>
  <path d="M -40 350 C 220 308, 520 388, 1240 293 L 1240 700 L -40 700 Z" fill="hsl(90, 54%, 56%)" opacity="0.9"/><path d="M -40 405 C 220 359, 520 421, 1240 362 L 1240 700 L -40 700 Z" fill="hsl(94, 54%, 50%)" opacity="0.9"/><path d="M -40 460 C 220 432, 520 484, 1240 425 L 1240 700 L -40 700 Z" fill="hsl(98, 54%, 44%)" opacity="0.9"/><path d="M -40 515 C 220 475, 520 579, 1240 492 L 1240 700 L -40 700 Z" fill="hsl(102, 54%, 38%)" opacity="0.9"/><path d="M -40 570 C 220 503, 520 626, 1240 512 L 1240 700 L -40 700 Z" fill="hsl(106, 54%, 32%)" opacity="0.9"/>
  <g id="scene-sparkles"><circle cx="1057" cy="371" r="2.13" fill="rgba(245,250,255,0.35)"/><circle cx="73" cy="92" r="2.07" fill="rgba(245,250,255,0.17)"/><circle cx="734" cy="81" r="1.86" fill="rgba(245,250,255,0.32)"/><circle cx="754" cy="494" r="1.58" fill="rgba(245,250,255,0.23)"/><circle cx="1132" cy="325" r="2.73" fill="rgba(245,250,255,0.39)"/><circle cx="119" cy="306" r="2.39" fill="rgba(245,250,255,0.21)"/><circle cx="1002" cy="163" r="1.60" fill="rgba(245,250,255,0.18)"/><circle cx="417" cy="548" r="2.08" fill="rgba(245,250,255,0.29)"/><circle cx="122" cy="85" r="1.81" fill="rgba(245,250,255,0.38)"/><circle cx="784" cy="215" r="1.49" fill="rgba(245,250,255,0.21)"/><circle cx="745" cy="353" r="2.67" fill="rgba(245,250,255,0.24)"/><circle cx="1163" cy="34" r="1.64" fill="rgba(245,250,255,0.31)"/><circle cx="245" cy="449" r="1.83" fill="rgba(245,250,255,0.19)"/><circle cx="104" cy="235" r="2.51" fill="rgba(245,250,255,0.32)"/><circle cx="814" cy="519" r="2.18" fill="rgba(245,250,255,0.37)"/><circle cx="413" cy="623" r="2.24" fill="rgba(245,250,255,0.40)"/><circle cx="531" cy="627" r="1.31" fill="rgba(245,250,255,0.18)"/><circle cx="371" cy="114" r="1.37" fill="rgba(245,250,255,0.19)"/><circle cx="249" cy="595" r="1.81" fill="rgba(245,250,255,0.37)"/><circle cx="738" cy="253" r="2.73" fill="rgba(245,250,255,0.24)"/><circle cx="1113" cy="244" r="2.31" fill="rgba(245,250,255,0.29)"/><circle cx="609" cy="436" r="0.85" fill="rgba(245,250,255,0.22)"/><circle cx="725" cy="289" r="1.97" fill="rgba(245,250,255,0.27)"/></g>
  <rect width="1200" height="675" filter="url(#grain-3)"/>
  <rect width="1200" height="675" fill="url(#vignette-3)"/>
</svg>