<?xml version="1.0" encoding="UTF-8"?>
<svg xmlns="http://www.w3.org/2000/svg" width="1200" height="675" viewBox="0 0 1200 675" role="img" aria-label="AIGC fallback cover 34" data-scene="scene-4">
  <defs>
    <linearGradient id="bg-34" x1="0" y1="0" x2="1" y2="1">
      <stop offset="0%" stop-color="hsl(317, 82%, 16%)"/>
      <stop offset="52%" stop-color="hsl(35, 84%, 23%)"/>
      <stop offset="100%" stop-color="hsl(127, 78%, 12%)"/>
    </linearGradient>
    <filter id="blur-34" x="-25%" y="-25%" width="150%" height="150%">
      <feGaussianBlur stdDeviation="26"/>
    </filter>
    <filter id="soft-34" x="-25%" y="-25%" width="150%" height="150%">
      <feGaussianBlur stdDeviation="10"/>
    </filter>
    <filter id="grain-34" x="0%" y="0%" width="100%" height="100%">
      <feTurbulence type="fractalNoise" baseFrequency="0.9" numOctaves="2" seed="442" stitchTiles="stitch"/>
      <feColorMatrix type="saturate" values="0"/>
      <feComponentTransfer>
        <feFuncA type="table" tableValues="0 0.05"/>
      </feComponentTransfer>
    </filter>
    <radialGradient id="vignette-34" cx="50%" cy="45%" r="70%">
      <stop offset="60%" stop-color="rgba(0,0,0,0)"/>
      <stop offset="100%" stop-color="rgba(0,0,0,0.45)"/>
    </radialGradient>
  </defs>

  <rect width="1200" height="675" fill="url(#bg-34)"/>
  <circle cx="107" cy="75" r="208" fill="hsl(317, 92%, 62%)" opacity="0.10" filter="url(#blur-34)"/><circle cx="657" cy="86" r="215" fill="hsl(343, 92%, 62%)" opacity="0.10" filter="url(#blur-34)"/><circle cx="641" cy="383" r="130" fill="hsl(369, 92%, 62%)" opacity="0.18" filter="url(#blur-34)"/>
  <circle cx="764" cy="447" r="59" fill="rgba(210,240,255,0.11)" filter="url(#soft-34)"/><circle cx="335" cy="334" r="36" fill="rgba(210,240,255,0.08)" filter="url(#soft-34)"/><circle cx="600" cy="189" r="58" fill="rgba(210,240,255,0.14)" filter="url(#soft-34)"/><circle cx="58" cy="374" r="39" fill="rgba(210,240,255,0.08)" filter="url(#soft-34)"/><circle cx="816" cy="388" r="56" fill="rgba(210,240,255,0.07)" filter="url(#soft-34)"/><circle cx="1002" cy="104" r="30" fill="rgba(210,240,255,0.13)" filter="url(#soft-34)"/>
  <polygon points="0,675 1200,675 990,394 210,394" fill="rgba(8,16,28,0.35)"/>
  <g id="scene-city"><g><rect x="346" y="478" width="63" height="197" rx="8" fill="rgba(8,18,38,0.58)" stroke="hsl(317, 70%, 52%)" opacity="0.72"/><rect x="362" y="498" width="38" height="5" rx="2" fill="rgba(120,240,255,0.22)"/><rect x="362" y="520" width="45" height="5" rx="2" fill="rgba(120,240,255,0.22)"/><rect x="357" y="534" width="44" height="5" rx="2" fill="rgba(120,240,255,0.22)"/><rect x="359" y="570" width="39" height="5" rx="2" fill="rgba(120,240,255,0.22)"/><rect x="354" y="610" width="45" height="5" rx="2" fill="rgba(120,240,255,0.22)"/><rect x="362" y="598" width="36" height="5" rx="2" fill="rgba(120,240,255,0.22)"/><rect x="356" y="606" width="46" height="5" rx="2" fill="rgba(120,240,255,0.22)"/></g><g><rect x="824" y="486" width="120" height="189" rx="8" fill="rgba(8,18,38,0.58)" stroke="hsl(322, 70%, 52%)" opacity="0.72"/><rect x="832" y="506" width="95" height="5" rx="2" fill="rgba(120,240,255,0.22)"/><rect x="839" y="534" width="101" height="5" rx="2" fill="rgba(120,240,255,0.22)"/><rect x="838" y="550" width="96" height="5" rx="2" fill="rgba(120,240,255,0.22)"/><rect x="832" y="584" width="101" height="5" rx="2" fill="rgba(120,240,255,0.22)"/><rect x="837" y="610" width="93" height="5" rx="2" fill="rgba(120,240,255,0.22)"/></g><g><rect x="228" y="384" width="77" height="291" rx="8" fill="rgba(8,18,38,0.58)" stroke="hsl(327, 70%, 52%)" opacity="0.72"/><rect x="241" y="404" width="59" height="5" rx="2" fill="rgba(120,240,255,0.22)"/><rect x="236" y="423" width="56" height="5" rx="2" fill="rgba(120,240,255,0.22)"/><rect x="236" y="448" width="49" height="5" rx="2" fill="rgba(120,240,255,0.22)"/><rect x="239" y="467" width="57" height="5" rx="2" fill="rgba(120,240,255,0.22)"/><rect x="242" y="496" width="55" height="5" rx="2" fill="rgba(120,240,255,0.22)"/><rect x="238" y="504" width="60" height="5" rx="2" fill="rgba(120,240,255,0.22)"/><rect x="238" y="518" width="54" height="5" rx="2" fill="rgba(120,240,255,0.22)"/><rect x="236" y="579" width="49" height="5" rx="2" fill="rgba(120,240,255,0.22)"/><rect x="240" y="572" width="51" height="5" rx="2" fill="rgba(120,240,255,0.22)"/><rect x="243" y="584" width="54" height="5" rx="2" fill="rgba(120,240,255,0.22)"/></g><g><rect x="744" y="329" width="99" height="346" rx="8" fill="rgba(8,18,38,0.58)" stroke="hsl(332, 70%, 52%)" opacity="0.72"/><rect x="756" y="349" width="73" height="5" rx="2" fill="rgba(120,240,255,0.22)"/><rect x="753" y="373" width="81" height="5" rx="2" fill="rgba(120,240,255,0.22)"/><rect x="752" y="385" width="77" height="5" rx="2" fill="rgba(120,240,255,0.22)"/><rect x="752" y="415" width="76" height="5" rx="2" fill="rgba(120,240,255,0.22)"/><rect x="759" y="457" width="78" height="5" rx="2" fill="rgba(120,240,255,0.22)"/><rect x="752" y="479" width="75" height="5" rx="2" fill="rgba(120,240,255,0.22)"/></g><g><rect x="762" y="448" width="90" height="227" rx="8" fill="rgba(8,18,38,0.58)" stroke="hsl(337, 70%, 52%)" opacity="0.72"/><rect x="770" y="468" width="71" height="5" rx="2" fill="rgba(120,240,255,0.22)"/><rect x="772" y="486" width="74" height="5" rx="2" fill="rgba(120,240,255,0.22)"/><rect x="778" y="510" width="73" height="5" rx="2" fill="rgba(120,240,255,0.22)"/><rect x="773" y="540" width="67" height="5" rx="2" fill="rgba(120,240,255,0.22)"/><rect x="770" y="576" width="73" height="5" rx="2" fill="rgba(120,240,255,0.22)"/><rect x="774" y="563" width="73" height="5" rx="2" fill="rgba(120,240,255,0.22)"/><rect x="777" y="588" width="67" height="5" rx="2" fill="rgba(120,240,255,0.22)"/><rect x="770" y="650" width="63" height="5" rx="2" fill="rgba(120,240,255,0.22)"/><rect x="778" y="628" width="64" height="5" rx="2" fill="rgba(120,240,255,0.22)"/><rect x="776" y="639" width="69" height="5" rx="2" fill="rgba(120,240,255,0.22)"/></g><g><rect x="943" y="349" width="42" height="326" rx="8" fill="rgba(8,18,38,0.58)" stroke="hsl(342, 70%, 52%)" opacity="0.72"/><rect x="953" y="369" width="17" height="5" rx="2" fill="rgba(120,240,255,0.22)"/><rect x="955" y="393" width="20" height="5" rx="2" fill="rgba(120,240,255,0.22)"/><rect x="951" y="409" width="25" height="5" rx="2" fill="rgba(120,240,255,0.22)"/><rect x="955" y="453" width="23" height="5" rx="2" fill="rgba(120,240,255,0.22)"/><rect x="951" y="477" width="14" height="5" rx="2" fill="rgba(120,240,255,0.22)"/></g><g><rect x="1015" y="549" width="118" height="126" rx="8" fill="rgba(8,18,38,0.58)" stroke="hsl(347, 70%, 52%)" opacity="0.72"/><rect x="1030" y="569" width="102" height="5" rx="2" fill="rgba(120,240,255,0.22)"/><rect x="1031" y="590" width="99" height="5" rx="2" fill="rgba(120,240,255,0.22)"/><rect x="1028" y="623" width="92" height="5" rx="2" fill="rgba(120,240,255,0.22)"/><rect x="1024" y="626" width="100" height="5" rx="2" fill="rgba(120,240,255,0.22)"/><rect x="1023" y="677" width="93" height="5" rx="2" fill="rgba(120,240,255,0.22)"/><rect x="1026" y="669" width="102" height="5" rx="2" fill="rgba(120,240,255,0.22)"/><rect x="1028" y="737" width="102" height="5" rx="2" fill="rgba(120,240,255,0.22)"/></g><g><rect x="314" y="399" width="71" height="276" rx="8" fill="rgba(8,18,38,0.58)" stroke="hsl(352, 70%, 52%)" opacity="0.72"/><rect x="328" y="419" width="49" height="5" rx="2" fill="rgba(120,240,255,0.22)"/><rect x="325" y="445" width="48" height="5" rx="2" fill="rgba(120,240,255,0.22)"/><rect x="329" y="463" width="51" height="5" rx="2" fill="rgba(120,240,255,0.22)"/><rect x="326" y="503" width="43" height="5" rx="2" fill="rgba(120,240,255,0.22)"/></g><g><rect x="186" y="554" width="92" height="121" rx="8" fill="rgba(8,18,38,0.58)" stroke="hsl(357, 70%, 52%)" opacity="0.72"/><rect x="196" y="574" width="75" height="5" rx="2" fill="rgba(120,240,255,0.22)"/><rect x="196" y="601" width="69" height="5" rx="2" fill="rgba(120,240,255,0.22)"/><rect x="194" y="614" width="72" height="5" rx="2" fill="rgba(120,240,255,0.22)"/><rect x="197" y="643" width="75" height="5" rx="2" fill="rgba(120,240,255,0.22)"/><rect x="201" y="678" width="72" height="5" rx="2" fill="rgba(120,240,255,0.22)"/><rect x="201" y="704" width="73" height="5" rx="2" fill="rgba(120,240,255,0.22)"/><rect x="201" y="742" width="73" height="5" rx="2" fill="rgba(120,240,255,0.22)"/></g><g><rect x="739" y="419" width="70" height="256" rx="8" fill="rgba(8,18,38,0.58)" stroke="hsl(362, 70%, 52%)" opacity="0.72"/><rect x="747" y="439" width="47" height="5" rx="2" fill="rgba(120,240,255,0.22)"/><rect x="748" y="463" width="48" height="5" rx="2" fill="rgba(120,240,255,0.22)"/><rect x="755" y="475" width="53" height="5" rx="2" fill="rgba(120,240,255,0.22)"/><rect x="751" y="517" width="44" height="5" rx="2" fill="rgba(120,240,255,0.22)"/><rect x="747" y="531" width="52" height="5" rx="2" fill="rgba(120,240,255,0.22)"/><rect x="753" y="574" width="43" height="5" rx="2" fill="rgba(120,240,255,0.22)"/><rect x="749" y="565" width="42" height="5" rx="2" fill="rgba(120,240,255,0.22)"/><rect x="752" y="628" width="45" height="5" rx="2" fill="rgba(120,240,255,0.22)"/><rect x="748" y="631" width="42" height="5" rx="2" fill="rgba(120,240,255,0.22)"/><rect x="751" y="655" width="52" height="5" rx="2" fill="rgba(120,240,255,0.22)"/></g><g><rect x="1020" y="406" width="48" height="269" rx="8" fill="rgba(8,18,38,0.58)" stroke="hsl(367, 70%, 52%)" opacity="0.72"/><rect x="1030" y="426" width="27" height="5" rx="2" fill="rgba(120,240,255,0.22)"/><rect x="1034" y="445" width="29" height="5" rx="2" fill="rgba(120,240,255,0.22)"/><rect x="1031" y="468" width="25" height="5" rx="2" fill="rgba(120,240,255,0.22)"/><rect x="1032" y="495" width="30" height="5" rx="2" fill="rgba(120,240,255,0.22)"/><rect x="1033" y="510" width="29" height="5" rx="2" fill="rgba(120,240,255,0.22)"/><rect x="1030" y="521" width="31" height="5" rx="2" fill="rgba(120,240,255,0.22)"/><rect x="1035" y="534" width="28" height="5" rx="2" fill="rgba(120,240,255,0.22)"/></g><g><rect x="53" y="531" width="61" height="144" rx="8" fill="rgba(8,18,38,0.58)" stroke="hsl(372, 70%, 52%)" opacity="0.72"/><rect x="65" y="551" width="45" height="5" rx="2" fill="rgba(120,240,255,0.22)"/><rect x="63" y="576" width="36" height="5" rx="2" fill="rgba(120,240,255,0.22)"/><rect x="67" y="593" width="42" height="5" rx="2" fill="rgba(120,240,255,0.22)"/><rect x="68" y="605" width="45" height="5" rx="2" fill="rgba(120,240,255,0.22)"/><rect x="63" y="643" width="35" height="5" rx="2" fill="rgba(120,240,255,0.22)"/><rect x="62" y="691" width="45" height="5" rx="2" fill="rgba(120,240,255,0.22)"/><rect x="64" y="701" width="43" height="5" rx="2" fill="rgba(120,240,255,0.22)"/><rect x="63" y="712" width="39" height="5" rx="2" fill="rgba(120,240,255,0.22)"/></g></g>
  <g id="scene-sparkles"><circle cx="623" cy="384" r="1.94" fill="rgba(180,240,255,0.35)"/><circle cx="348" cy="493" r="2.31" fill="rgba(180,240,255,0.43)"/><circle cx="918" cy="511" r="2.72" fill="rgba(180,240,255,0.37)"/><circle cx="845" cy="178" r="2.96" fill="rgba(180,240,255,0.27)"/><circle cx="322" cy="170" r="2.32" fill="rgba(180,240,255,0.22)"/><circle cx="410" cy="26" r="2.17" fill="rgba(180,240,255,0.22)"/><circle cx="1013" cy="329" r="2.65" fill="rgba(180,240,255,0.31)"/><circle cx="947" cy="261" r="3.30" fill="rgba(180,240,255,0.36)"/><circle cx="348" cy="365" r="3.27" fill="rgba(180,240,255,0.34)"/><circle cx="413" cy="156" r="2.92" fill="rgba(180,240,255,0.23)"/><circle cx="527" cy="194" r="3.32" fill="rgba(180,240,255,0.35)"/><circle cx="551" cy="439" r="2.78" fill="rgba(180,240,255,0.19)"/><circle cx="150" cy="620" r="1.87" fill="rgba(180,240,255,0.32)"/><circle cx="405" cy="337" r="3.30" fill="rgba(180,240,255,0.44)"/><circle cx="528" cy="116" r="2.37" fill="rgba(180,240,255,0.16)"/><circle cx="929" cy="322" r="1.68" fill="rgba(180,240,255,0.16)"/><circle cx="345" cy="110" r="2.56" fill="rgba(180,240,255,0.24)"/><circle cx="702" cy="212" r="2.69" fill="rgba(180,240,255,0.21)"/><circle cx="830" cy="54" r="2.61" fill="rgba(180,240,255,0.19)"/><circle cx="359" cy="554" r="1.19" fill="rgba(180,240,255,0.39)"/><circle cx="722" cy="488" r="1.31" fill="rgba(180,240,255,0.16)"/><circle cx="120" cy="299" r="3.07" fill="rgba(180,240,255,0.36)"/><circle cx="1020" cy="584" r="2.51" fill="rgba(180,240,255,0.16)"/><circle cx="926" cy="135" r="2.94" fill="rgba(180,240,255,0.42)"/><circle cx="428" cy="122" r="1.78" fill="rgba(180,240,255,0.33)"/><circle cx="729" cy="495" r="3.13" fill="rgba(180,240,255,0.24)"/><circle cx="584" cy="33" r="3.24" fill="rgba(180,240,255,0.17)"/><circle cx="1104" cy="316" r="3.38" fill="rgba(180,240,255,0.23)"/></g>
  <rect width="1200" height="675" fill="rgba(190,220,255,0.06)"/>
  <rect width="1200" height="675" filter="url(#grain-34)"/>
  <rect width="1200" height="675" fill="url(#vignette-34)"/>
  <rect x="20" y="20" width="1160" height="635" rx="32" fill="none" stroke="rgba(155,220,255,0.24)"/>
</svg>