<?xml version="1.0" encoding="UTF-8"?>
<svg xmlns="http://www.w3.org/2000/svg" width="1200" height="675" viewBox="0 0 1200 675" role="img" aria-label="AIGC fallback cover 68" data-scene="scene-8">
  <defs>
    <linearGradient id="bg-68" x1="0" y1="0" x2="1" y2="1">
      <stop offset="0%" stop-color="hsl(270, 82%, 16%)"/>
      <stop offset="52%" stop-color="hsl(336, 84%, 23%)"/>
      <stop offset="100%" stop-color="hsl(89, 78%, 12%)"/>
    </linearGradient>
    <filter id="blur-68" x="-25%" y="-25%" width="150%" height="150%">
      <feGaussianBlur stdDeviation="26"/>
    </filter>
    <filter id="soft-68" x="-25%" y="-25%" width="150%" height="150%">
      <feGaussianBlur stdDeviation="10"/>
    </filter>
    <filter id="grain-68" x="0%" y="0%" width="100%" height="100%">
      <feTurbulence type="fractalNoise" baseFrequency="0.9" numOctaves="2" seed="884" stitchTiles="stitch"/>
      <feColorMatrix type="saturate" values="0"/>
      <feComponentTransfer>
        <feFuncA type="table" tableValues="0 0.05"/>
      </feComponentTransfer>
    </filter>
    <radialGradient id="vignette-68" cx="50%" cy="45%" r="70%">
      <stop offset="60%" stop-color="rgba(0,0,0,0)"/>
      <stop offset="100%" stop-color="rgba(0,0,0,0.45)"/>
    </radialGradient>
  </defs>

  <rect width="1200" height="675" fill="url(#bg-68)"/>
  <circle cx="547" cy="105" r="165" fill="hsl(270, 92%, 62%)" opacity="0.15" filter="url(#blur-68)"/><circle cx="544" cy="470" r="151" fill="hsl(296, 92%, 62%)" opacity="0.12" filter="url(#blur-68)"/><circle cx="706" cy="187" r="113" fill="hsl(322, 92%, 62%)" opacity="0.17" filter="url(#blur-68)"/>
  <circle cx="413" cy="155" r="68" fill="rgba(210,240,255,0.14)" filter="url(#soft-68)"/><circle cx="323" cy="440" r="36" fill="rgba(210,240,255,0.11)" filter="url(#soft-68)"/><circle cx="813" cy="32" r="70" fill="rgba(210,240,255,0.14)" filter="url(#soft-68)"/><circle cx="607" cy="71" r="64" fill="rgba(210,240,255,0.09)" filter="url(#soft-68)"/><circle cx="682" cy="334" r="22" fill="rgba(210,240,255,0.12)" filter="url(#soft-68)"/><circle cx="756" cy="269" r="30" fill="rgba(210,240,255,0.15)" filter="url(#soft-68)"/><circle cx="306" cy="82" r="55" fill="rgba(210,240,255,0.12)" filter="url(#soft-68)"/><circle cx="798" cy="336" r="20" fill="rgba(210,240,255,0.10)" filter="url(#soft-68)"/><circle cx="733" cy="195" r="26" fill="rgba(210,240,255,0.10)" filter="url(#soft-68)"/><circle cx="1041" cy="332" r="46" fill="rgba(210,240,255,0.12)" filter="url(#soft-68)"/>
  <polygon points="0,675 1200,675 1053,413 147,413" fill="rgba(8,16,28,0.35)"/>
  <g id="scene-code-panels"><g><rect x="495" y="45" width="328" height="108" rx="14" fill="rgba(11,24,48,0.55)" stroke="rgba(120,190,255,0.45)"/><rect x="515" y="63" width="117" height="8" rx="4" fill="rgba(120,220,255,0.25)"/><rect x="515" y="85" width="273" height="8" rx="4" fill="rgba(120,220,255,0.34)"/><rect x="515" y="107" width="229" height="8" rx="4" fill="rgba(120,220,255,0.43)"/><rect x="515" y="129" width="241" height="8" rx="4" fill="rgba(120,220,255,0.52)"/><circle cx="805" cy="63" r="4" fill="rgba(160,240,255,0.7)"/></g><g><rect x="290" y="372" width="319" height="119" rx="14" fill="rgba(11,24,48,0.55)" stroke="rgba(120,190,255,0.45)"/><rect x="310" y="390" width="235" height="8" rx="4" fill="rgba(120,220,255,0.25)"/><rect x="310" y="412" width="268" height="8" rx="4" fill="rgba(120,220,255,0.34)"/><rect x="310" y="434" width="138" height="8" rx="4" fill="rgba(120,220,255,0.43)"/><circle cx="591" cy="390" r="4" fill="rgba(160,240,255,0.7)"/></g><g><rect x="472" y="440" width="334" height="182" rx="14" fill="rgba(11,24,48,0.55)" stroke="rgba(120,190,255,0.45)"/><rect x="492" y="458" width="129" height="8" rx="4" fill="rgba(120,220,255,0.25)"/><rect x="492" y="480" width="144" height="8" rx="4" fill="rgba(120,220,255,0.34)"/><rect x="492" y="502" width="229" height="8" rx="4" fill="rgba(120,220,255,0.43)"/><rect x="492" y="524" width="154" height="8" rx="4" fill="rgba(120,220,255,0.52)"/><rect x="492" y="546" width="232" height="8" rx="4" fill="rgba(120,220,255,0.61)"/><circle cx="788" cy="458" r="4" fill="rgba(160,240,255,0.7)"/></g><g><rect x="426" y="410" width="194" height="130" rx="14" fill="rgba(11,24,48,0.55)" stroke="rgba(120,190,255,0.45)"/><rect x="446" y="428" width="150" height="8" rx="4" fill="rgba(120,220,255,0.25)"/><rect x="446" y="450" width="111" height="8" rx="4" fill="rgba(120,220,255,0.34)"/><rect x="446" y="472" width="115" height="8" rx="4" fill="rgba(120,220,255,0.43)"/><rect x="446" y="494" width="160" height="8" rx="4" fill="rgba(120,220,255,0.52)"/><rect x="446" y="516" width="133" height="8" rx="4" fill="rgba(120,220,255,0.61)"/><circle cx="602" cy="428" r="4" fill="rgba(160,240,255,0.7)"/></g><g><rect x="830" y="398" width="273" height="148" rx="14" fill="rgba(11,24,48,0.55)" stroke="rgba(120,190,255,0.45)"/><rect x="850" y="416" width="96" height="8" rx="4" fill="rgba(120,220,255,0.25)"/><rect x="850" y="438" width="181" height="8" rx="4" fill="rgba(120,220,255,0.34)"/><rect x="850" y="460" width="161" height="8" rx="4" fill="rgba(120,220,255,0.43)"/><rect x="850" y="482" width="139" height="8" rx="4" fill="rgba(120,220,255,0.52)"/><rect x="850" y="504" width="232" height="8" rx="4" fill="rgba(120,220,255,0.61)"/><rect x="850" y="526" width="200" height="8" rx="4" fill="rgba(120,220,255,0.70)"/><circle cx="1085" cy="416" r="4" fill="rgba(160,240,255,0.7)"/></g><g><rect x="649" y="168" width="287" height="163" rx="14" fill="rgba(11,24,48,0.55)" stroke="rgba(120,190,255,0.45)"/><rect x="669" y="186" width="223" height="8" rx="4" fill="rgba(120,220,255,0.25)"/><rect x="669" y="208" width="236" height="8" rx="4" fill="rgba(120,220,255,0.34)"/><rect x="669" y="230" width="128" height="8" rx="4" fill="rgba(120,220,255,0.43)"/><rect x="669" y="252" width="240" height="8" rx="4" fill="rgba(120,220,255,0.52)"/><circle cx="918" cy="186" r="4" fill="rgba(160,240,255,0.7)"/></g><g><rect x="197" y="293" width="283" height="141" rx="14" fill="rgba(11,24,48,0.55)" stroke="rgba(120,190,255,0.45)"/><rect x="217" y="311" width="185" height="8" rx="4" fill="rgba(120,220,255,0.25)"/><rect x="217" y="333" width="163" height="8" rx="4" fill="rgba(120,220,255,0.34)"/><rect x="217" y="355" width="133" height="8" rx="4" fill="rgba(120,220,255,0.43)"/><circle cx="462" cy="311" r="4" fill="rgba(160,240,255,0.7)"/></g><g><rect x="299" y="226" width="298" height="119" rx="14" fill="rgba(11,24,48,0.55)" stroke="rgba(120,190,255,0.45)"/><rect x="319" y="244" width="147" height="8" rx="4" fill="rgba(120,220,255,0.25)"/><rect x="319" y="266" width="183" height="8" rx="4" fill="rgba(120,220,255,0.34)"/><rect x="319" y="288" width="157" height="8" rx="4" fill="rgba(120,220,255,0.43)"/><rect x="319" y="310" width="109" height="8" rx="4" fill="rgba(120,220,255,0.52)"/><circle cx="579" cy="244" r="4" fill="rgba(160,240,255,0.7)"/></g></g>
  <g id="scene-sparkles"><circle cx="525" cy="511" r="1.85" fill="rgba(180,240,255,0.17)"/><circle cx="244" cy="66" r="2.66" fill="rgba(180,240,255,0.39)"/><circle cx="461" cy="329" r="2.42" fill="rgba(180,240,255,0.34)"/><circle cx="292" cy="279" r="1.56" fill="rgba(180,240,255,0.36)"/><circle cx="199" cy="424" r="1.42" fill="rgba(180,240,255,0.28)"/><circle cx="881" cy="178" r="1.34" fill="rgba(180,240,255,0.26)"/><circle cx="812" cy="343" r="2.01" fill="rgba(180,240,255,0.30)"/><circle cx="926" cy="225" r="1.74" fill="rgba(180,240,255,0.21)"/><circle cx="760" cy="647" r="1.23" fill="rgba(180,240,255,0.45)"/><circle cx="899" cy="493" r="2.38" fill="rgba(180,240,255,0.18)"/><circle cx="369" cy="139" r="2.15" fill="rgba(180,240,255,0.37)"/><circle cx="856" cy="567" r="1.19" fill="rgba(180,240,255,0.26)"/><circle cx="1077" cy="592" r="3.12" fill="rgba(180,240,255,0.17)"/><circle cx="236" cy="442" r="3.06" fill="rgba(180,240,255,0.15)"/><circle cx="1041" cy="91" r="2.10" fill="rgba(180,240,255,0.40)"/><circle cx="246" cy="618" r="1.31" fill="rgba(180,240,255,0.32)"/><circle cx="880" cy="261" r="2.81" fill="rgba(180,240,255,0.31)"/><circle cx="800" cy="612" r="1.47" fill="rgba(180,240,255,0.43)"/><circle cx="202" cy="632" r="2.37" fill="rgba(180,240,255,0.19)"/></g>
  <rect width="1200" height="675" fill="rgba(190,220,255,0.06)"/>
  <rect width="1200" height="675" filter="url(#grain-68)"/>
  <rect width="1200" height="675" fill="url(#vignette-68)"/>
  <rect x="20" y="20" width="1160" height="635" rx="32" fill="none" stroke="rgba(155,220,255,0.24)"/>
</svg>