<?xml version="1.0" encoding="UTF-8"?>
<svg xmlns="http://www.w3.org/2000/svg" width="1200" height="675" viewBox="0 0 1200 675" role="img" aria-label="AIGC fallback cover 37" data-scene="scene-7">
  <defs>
    <linearGradient id="bg-37" x1="0" y1="0" x2="1" y2="1">
      <stop offset="0%" stop-color="hsl(100, 82%, 16%)"/>
      <stop offset="52%" stop-color="hsl(166, 84%, 23%)"/>
      <stop offset="100%" stop-color="hsl(252, 78%, 12%)"/>
    </linearGradient>
    <filter id="blur-37" x="-25%" y="-25%" width="150%" height="150%">
      <feGaussianBlur stdDeviation="26"/>
    </filter>
    <filter id="soft-37" x="-25%" y="-25%" width="150%" height="150%">
      <feGaussianBlur stdDeviation="10"/>
    </filter>
    <filter id="grain-37" x="0%" y="0%" width="100%" height="100%">
      <feTurbulence type="fractalNoise" baseFrequency="0.9" numOctaves="2" seed="481" stitchTiles="stitch"/>
      <feColorMatrix type="saturate" values="0"/>
      <feComponentTransfer>
        <feFuncA type="table" tableValues="0 0.05"/>
      </feComponentTransfer>
    </filter>
    <radialGradient id="vignette-37" cx="50%" cy="45%" r="70%">
      <stop offset="60%" stop-color="rgba(0,0,0,0)"/>
      <stop offset="100%" stop-color="rgba(0,0,0,0.45)"/>
    </radialGradient>
  </defs>

  <rect width="1200" height="675" fill="url(#bg-37)"/>
  <circle cx="443" cy="287" r="185" fill="hsl(100, 92%, 62%)" opacity="0.09" filter="url(#blur-37)"/><circle cx="283" cy="492" r="157" fill="hsl(126, 92%, 62%)" opacity="0.14" filter="url(#blur-37)"/><circle cx="571" cy="228" r="194" fill="hsl(152, 92%, 62%)" opacity="0.17" filter="url(#blur-37)"/>
  <circle cx="168" cy="239" r="33" fill="rgba(210,240,255,0.11)" filter="url(#soft-37)"/><circle cx="1045" cy="209" r="51" fill="rgba(210,240,255,0.13)" filter="url(#soft-37)"/><circle cx="741" cy="152" r="32" fill="rgba(210,240,255,0.13)" filter="url(#soft-37)"/><circle cx="471" cy="164" r="20" fill="rgba(210,240,255,0.08)" filter="url(#soft-37)"/><circle cx="102" cy="341" r="32" fill="rgba(210,240,255,0.11)" filter="url(#soft-37)"/><circle cx="308" cy="302" r="53" fill="rgba(210,240,255,0.08)" filter="url(#soft-37)"/><circle cx="1026" cy="309" r="40" fill="rgba(210,240,255,0.13)" filter="url(#soft-37)"/><circle cx="445" cy="101" r="68" fill="rgba(210,240,255,0.16)" filter="url(#soft-37)"/><circle cx="681" cy="64" r="46" fill="rgba(210,240,255,0.15)" filter="url(#soft-37)"/>
  <polygon points="0,675 1200,675 1169,413 31,413" fill="rgba(8,16,28,0.35)"/>
  <g id="scene-orbits"><ellipse cx="576" cy="275" rx="155" ry="60" fill="none" stroke="rgba(140,230,255,0.28)" stroke-width="2" transform="rotate(9 576 275)"/><ellipse cx="576" cy="275" rx="181" ry="119" fill="none" stroke="rgba(140,230,255,0.28)" stroke-width="2" transform="rotate(-15 576 275)"/><ellipse cx="576" cy="275" rx="247" ry="119" fill="none" stroke="rgba(140,230,255,0.28)" stroke-width="2" transform="rotate(4 576 275)"/><ellipse cx="576" cy="275" rx="270" ry="147" fill="none" stroke="rgba(140,230,255,0.28)" stroke-width="2" transform="rotate(16 576 275)"/><circle cx="377" cy="360" r="12" fill="hsl(100, 88%, 72%)" opacity="0.85"/><circle cx="393" cy="289" r="11" fill="hsl(112, 88%, 72%)" opacity="0.85"/><circle cx="518" cy="372" r="7" fill="hsl(124, 88%, 72%)" opacity="0.85"/><circle cx="621" cy="430" r="12" fill="hsl(136, 88%, 72%)" opacity="0.85"/><circle cx="705" cy="134" r="12" fill="hsl(148, 88%, 72%)" opacity="0.85"/><circle cx="646" cy="416" r="12" fill="hsl(160, 88%, 72%)" opacity="0.85"/><circle cx="737" cy="231" r="8" fill="hsl(172, 88%, 72%)" opacity="0.85"/><circle cx="390" cy="218" r="9" fill="hsl(184, 88%, 72%)" opacity="0.85"/><circle cx="396" cy="213" r="10" fill="hsl(196, 88%, 72%)" opacity="0.85"/><circle cx="390" cy="210" r="8" fill="hsl(208, 88%, 72%)" opacity="0.85"/><circle cx="610" cy="355" r="12" fill="hsl(220, 88%, 72%)" opacity="0.85"/></g>
  <g id="scene-sparkles"><circle cx="304" cy="368" r="2.80" fill="rgba(180,240,255,0.19)"/><circle cx="656" cy="179" r="1.28" fill="rgba(180,240,255,0.22)"/><circle cx="988" cy="594" r="3.05" fill="rgba(180,240,255,0.30)"/><circle cx="978" cy="270" r="2.95" fill="rgba(180,240,255,0.43)"/><circle cx="854" cy="637" r="2.83" fill="rgba(180,240,255,0.37)"/><circle cx="853" cy="95" r="2.58" fill="rgba(180,240,255,0.23)"/><circle cx="818" cy="179" r="1.82" fill="rgba(180,240,255,0.44)"/><circle cx="481" cy="564" r="2.88" fill="rgba(180,240,255,0.31)"/><circle cx="920" cy="472" r="2.12" fill="rgba(180,240,255,0.43)"/><circle cx="296" cy="80" r="1.72" fill="rgba(180,240,255,0.25)"/><circle cx="387" cy="427" r="3.01" fill="rgba(180,240,255,0.20)"/><circle cx="584" cy="98" r="2.90" fill="rgba(180,240,255,0.43)"/><circle cx="621" cy="582" r="1.10" fill="rgba(180,240,255,0.24)"/><circle cx="535" cy="82" r="2.65" fill="rgba(180,240,255,0.29)"/><circle cx="923" cy="582" r="3.02" fill="rgba(180,240,255,0.41)"/><circle cx="212" cy="383" r="1.69" fill="rgba(180,240,255,0.29)"/><circle cx="705" cy="297" r="2.59" fill="rgba(180,240,255,0.44)"/><circle cx="1069" cy="201" r="1.47" fill="rgba(180,240,255,0.41)"/><circle cx="544" cy="158" r="2.90" fill="rgba(180,240,255,0.21)"/><circle cx="128" cy="456" r="3.09" fill="rgba(180,240,255,0.42)"/><circle cx="543" cy="441" r="1.40" fill="rgba(180,240,255,0.35)"/><circle cx="68" cy="167" r="1.72" fill="rgba(180,240,255,0.32)"/><circle cx="774" cy="401" r="3.29" fill="rgba(180,240,255,0.36)"/><circle cx="1102" cy="61" r="2.11" fill="rgba(180,240,255,0.40)"/><circle cx="995" cy="229" r="2.24" fill="rgba(180,240,255,0.33)"/><circle cx="711" cy="400" r="2.65" fill="rgba(180,240,255,0.16)"/><circle cx="959" cy="633" r="2.06" fill="rgba(180,240,255,0.36)"/><circle cx="1071" cy="246" r="2.67" fill="rgba(180,240,255,0.26)"/></g>
  <rect width="1200" height="675" fill="rgba(190,220,255,0.06)"/>
  <rect width="1200" height="675" filter="url(#grain-37)"/>
  <rect width="1200" height="675" fill="url(#vignette-37)"/>
  <rect x="20" y="20" width="1160" height="635" rx="32" fill="none" stroke="rgba(155,220,255,0.24)"/>
</svg>