<?xml version="1.0" encoding="UTF-8"?>
<svg xmlns="http://www.w3.org/2000/svg" width="1200" height="675" viewBox="0 0 1200 675" role="img" aria-label="AIGC fallback cover 15" data-scene="scene-5">
  <defs>
    <linearGradient id="bg-15" x1="0" y1="0" x2="1" y2="1">
      <stop offset="0%" stop-color="hsl(261, 82%, 16%)"/>
      <stop offset="52%" stop-color="hsl(316, 84%, 23%)"/>
      <stop offset="100%" stop-color="hsl(89, 78%, 12%)"/>
    </linearGradient>
    <filter id="blur-15" x="-25%" y="-25%" width="150%" height="150%">
      <feGaussianBlur stdDeviation="26"/>
    </filter>
    <filter id="soft-15" x="-25%" y="-25%" width="150%" height="150%">
      <feGaussianBlur stdDeviation="10"/>
    </filter>
    <filter id="grain-15" x="0%" y="0%" width="100%" height="100%">
      <feTurbulence type="fractalNoise" baseFrequency="0.9" numOctaves="2" seed="195" stitchTiles="stitch"/>
      <feColorMatrix type="saturate" values="0"/>
      <feComponentTransfer>
        <feFuncA type="table" tableValues="0 0.05"/>
      </feComponentTransfer>
    </filter>
    <radialGradient id="vignette-15" cx="50%" cy="45%" r="70%">
      <stop offset="60%" stop-color="rgba(0,0,0,0)"/>
      <stop offset="100%" stop-color="rgba(0,0,0,0.45)"/>
    </radialGradient>
  </defs>

  <rect width="1200" height="675" fill="url(#bg-15)"/>
  <circle cx="925" cy="345" r="213" fill="hsl(261, 92%, 62%)" opacity="0.12" filter="url(#blur-15)"/><circle cx="792" cy="219" r="191" fill="hsl(287, 92%, 62%)" opacity="0.13" filter="url(#blur-15)"/><circle cx="166" cy="200" r="122" fill="hsl(313, 92%, 62%)" opacity="0.13" filter="url(#blur-15)"/>
  <circle cx="49" cy="84" r="26" fill="rgba(210,240,255,0.07)" filter="url(#soft-15)"/><circle cx="537" cy="409" r="23" fill="rgba(210,240,255,0.16)" filter="url(#soft-15)"/><circle cx="277" cy="396" r="52" fill="rgba(210,240,255,0.16)" filter="url(#soft-15)"/><circle cx="1100" cy="55" r="63" fill="rgba(210,240,255,0.15)" filter="url(#soft-15)"/><circle cx="1126" cy="408" r="48" fill="rgba(210,240,255,0.10)" filter="url(#soft-15)"/><circle cx="150" cy="224" r="21" fill="rgba(210,240,255,0.15)" filter="url(#soft-15)"/>
  <polygon points="0,675 1200,675 1010,386 190,386" fill="rgba(8,16,28,0.35)"/>
  <g id="scene-wave"><path d="M 0 255 C 88.5 220, 265.5 290, 354 255 S 619.5 220, 708 255" transform="translate(217,0) scale(2.111162522970699,1)" fill="none" stroke="rgba(132,236,255,0.29)" stroke-width="3"/><path d="M 0 420 C 109.75 361, 329.25 479, 439 420 S 768.25 361, 878 420" transform="translate(217,0) scale(1.79327313429676,1)" fill="none" stroke="rgba(132,236,255,0.22)" stroke-width="5"/><path d="M 0 506 C 119.5 436, 358.5 576, 478 506 S 836.5 436, 956 506" transform="translate(172,0) scale(1.6086407993221656,1)" fill="none" stroke="rgba(132,236,255,0.37)" stroke-width="7"/><path d="M 0 345 C 70 290, 210 400, 280 345 S 490 290, 560 345" transform="translate(198,0) scale(1.8622838295530526,1)" fill="none" stroke="rgba(132,236,255,0.35)" stroke-width="4"/></g>
  <g id="scene-sparkles"><circle cx="253" cy="503" r="3.08" fill="rgba(180,240,255,0.16)"/><circle cx="38" cy="225" r="1.41" fill="rgba(180,240,255,0.29)"/><circle cx="687" cy="521" r="2.30" fill="rgba(180,240,255,0.41)"/><circle cx="328" cy="429" r="2.40" fill="rgba(180,240,255,0.28)"/><circle cx="812" cy="268" r="1.78" fill="rgba(180,240,255,0.39)"/><circle cx="972" cy="635" r="2.99" fill="rgba(180,240,255,0.19)"/><circle cx="240" cy="555" r="2.08" fill="rgba(180,240,255,0.27)"/><circle cx="170" cy="653" r="2.63" fill="rgba(180,240,255,0.18)"/><circle cx="420" cy="450" r="2.38" fill="rgba(180,240,255,0.22)"/><circle cx="142" cy="90" r="2.36" fill="rgba(180,240,255,0.43)"/><circle cx="475" cy="307" r="1.52" fill="rgba(180,240,255,0.34)"/><circle cx="343" cy="594" r="2.90" fill="rgba(180,240,255,0.43)"/><circle cx="1059" cy="470" r="1.50" fill="rgba(180,240,255,0.23)"/><circle cx="803" cy="106" r="2.68" fill="rgba(180,240,255,0.33)"/><circle cx="520" cy="24" r="1.48" fill="rgba(180,240,255,0.40)"/><circle cx="1011" cy="650" r="2.08" fill="rgba(180,240,255,0.44)"/><circle cx="806" cy="530" r="1.97" fill="rgba(180,240,255,0.19)"/><circle cx="1029" cy="551" r="1.44" fill="rgba(180,240,255,0.21)"/><circle cx="961" cy="26" r="1.89" fill="rgba(180,240,255,0.16)"/><circle cx="450" cy="120" r="1.68" fill="rgba(180,240,255,0.16)"/><circle cx="719" cy="140" r="2.46" fill="rgba(180,240,255,0.29)"/><circle cx="993" cy="498" r="2.41" fill="rgba(180,240,255,0.25)"/><circle cx="661" cy="596" r="1.80" fill="rgba(180,240,255,0.23)"/><circle cx="1022" cy="547" r="2.68" fill="rgba(180,240,255,0.42)"/><circle cx="1117" cy="353" r="2.71" fill="rgba(180,240,255,0.22)"/><circle cx="705" cy="608" r="1.59" fill="rgba(180,240,255,0.32)"/><circle cx="386" cy="612" r="2.19" fill="rgba(180,240,255,0.31)"/></g>
  <rect width="1200" height="675" fill="rgba(190,220,255,0.06)"/>
  <rect width="1200" height="675" filter="url(#grain-15)"/>
  <rect width="1200" height="675" fill="url(#vignette-15)"/>
  <rect x="20" y="20" width="1160" height="635" rx="32" fill="none" stroke="rgba(155,220,255,0.24)"/>
</svg>