<?xml version="1.0" encoding="UTF-8"?>
<svg xmlns="http://www.w3.org/2000/svg" width="1200" height="675" viewBox="0 0 1200 675" role="img" aria-label="AIGC fallback cover 52" data-scene="scene-2">
  <defs>
    <linearGradient id="bg-52" x1="0" y1="0" x2="1" y2="1">
      <stop offset="0%" stop-color="hsl(345, 82%, 16%)"/>
      <stop offset="52%" stop-color="hsl(32, 84%, 23%)"/>
      <stop offset="100%" stop-color="hsl(147, 78%, 12%)"/>
    </linearGradient>
    <filter id="blur-52" x="-25%" y="-25%" width="150%" height="150%">
      <feGaussianBlur stdDeviation="26"/>
    </filter>
    <filter id="soft-52" x="-25%" y="-25%" width="150%" height="150%">
      <feGaussianBlur stdDeviation="10"/>
    </filter>
    <filter id="grain-52" x="0%" y="0%" width="100%" height="100%">
      <feTurbulence type="fractalNoise" baseFrequency="0.9" numOctaves="2" seed="676" stitchTiles="stitch"/>
      <feColorMatrix type="saturate" values="0"/>
      <feComponentTransfer>
        <feFuncA type="table" tableValues="0 0.05"/>
      </feComponentTransfer>
    </filter>
    <radialGradient id="vignette-52" cx="50%" cy="45%" r="70%">
      <stop offset="60%" stop-color="rgba(0,0,0,0)"/>
      <stop offset="100%" stop-color="rgba(0,0,0,0.45)"/>
    </radialGradient>
  </defs>

  <rect width="1200" height="675" fill="url(#bg-52)"/>
  <circle cx="105" cy="559" r="160" fill="hsl(345, 92%, 62%)" opacity="0.09" filter="url(#blur-52)"/><circle cx="792" cy="517" r="115" fill="hsl(371, 92%, 62%)" opacity="0.08" filter="url(#blur-52)"/><circle cx="282" cy="464" r="167" fill="hsl(397, 92%, 62%)" opacity="0.09" filter="url(#blur-52)"/>
  <circle cx="1028" cy="398" r="53" fill="rgba(210,240,255,0.13)" filter="url(#soft-52)"/><circle cx="361" cy="214" r="27" fill="rgba(210,240,255,0.09)" filter="url(#soft-52)"/><circle cx="727" cy="319" r="36" fill="rgba(210,240,255,0.14)" filter="url(#soft-52)"/><circle cx="1155" cy="78" r="21" fill="rgba(210,240,255,0.13)" filter="url(#soft-52)"/><circle cx="1081" cy="252" r="26" fill="rgba(210,240,255,0.10)" filter="url(#soft-52)"/><circle cx="882" cy="341" r="64" fill="rgba(210,240,255,0.16)" filter="url(#soft-52)"/><circle cx="841" cy="305" r="36" fill="rgba(210,240,255,0.09)" filter="url(#soft-52)"/>
  <polygon points="0,675 1200,675 1219,391 -19,391" fill="rgba(8,16,28,0.35)"/>
  <g id="scene-circuit"><line x1="620" y1="349" x2="780" y2="349" stroke="rgba(135,220,255,0.28)" stroke-width="6" stroke-linecap="round"/><line x1="387" y1="497" x2="464" y2="497" stroke="rgba(135,220,255,0.28)" stroke-width="5" stroke-linecap="round"/><line x1="879" y1="212" x2="879" y2="358" stroke="rgba(135,220,255,0.28)" stroke-width="5" stroke-linecap="round"/><line x1="1088" y1="413" x2="1140" y2="413" stroke="rgba(135,220,255,0.28)" stroke-width="2" stroke-linecap="round"/><line x1="348" y1="206" x2="348" y2="282" stroke="rgba(135,220,255,0.28)" stroke-width="5" stroke-linecap="round"/><line x1="1008" y1="234" x2="1123" y2="234" stroke="rgba(135,220,255,0.28)" stroke-width="2" stroke-linecap="round"/><line x1="618" y1="582" x2="714" y2="582" stroke="rgba(135,220,255,0.28)" stroke-width="5" stroke-linecap="round"/><line x1="529" y1="491" x2="529" y2="640" stroke="rgba(135,220,255,0.28)" stroke-width="2" stroke-linecap="round"/><line x1="721" y1="158" x2="721" y2="246" stroke="rgba(135,220,255,0.28)" stroke-width="4" stroke-linecap="round"/><line x1="392" y1="306" x2="534" y2="306" stroke="rgba(135,220,255,0.28)" stroke-width="2" stroke-linecap="round"/><line x1="869" y1="237" x2="869" y2="350" stroke="rgba(135,220,255,0.28)" stroke-width="5" stroke-linecap="round"/><line x1="564" y1="339" x2="647" y2="339" stroke="rgba(135,220,255,0.28)" stroke-width="5" stroke-linecap="round"/><line x1="562" y1="306" x2="638" y2="306" stroke="rgba(135,220,255,0.28)" stroke-width="2" stroke-linecap="round"/><line x1="148" y1="236" x2="148" y2="421" stroke="rgba(135,220,255,0.28)" stroke-width="3" stroke-linecap="round"/><line x1="284" y1="613" x2="441" y2="613" stroke="rgba(135,220,255,0.28)" stroke-width="2" stroke-linecap="round"/><line x1="451" y1="140" x2="451" y2="357" stroke="rgba(135,220,255,0.28)" stroke-width="2" stroke-linecap="round"/><line x1="519" y1="432" x2="519" y2="583" stroke="rgba(135,220,255,0.28)" stroke-width="4" stroke-linecap="round"/><line x1="584" y1="294" x2="584" y2="460" stroke="rgba(135,220,255,0.28)" stroke-width="6" stroke-linecap="round"/><line x1="408" y1="460" x2="484" y2="460" stroke="rgba(135,220,255,0.28)" stroke-width="4" stroke-linecap="round"/><line x1="868" y1="260" x2="868" y2="345" stroke="rgba(135,220,255,0.28)" stroke-width="2" stroke-linecap="round"/><line x1="436" y1="128" x2="436" y2="222" stroke="rgba(135,220,255,0.28)" stroke-width="5" stroke-linecap="round"/><rect x="644" y="82" width="81" height="62" rx="12" fill="rgba(12,28,60,0.48)" stroke="hsl(345, 90%, 70%)" opacity="0.78"/><rect x="901" y="519" width="123" height="53" rx="12" fill="rgba(12,28,60,0.48)" stroke="hsl(356, 90%, 70%)" opacity="0.78"/><rect x="124" y="359" width="153" height="74" rx="12" fill="rgba(12,28,60,0.48)" stroke="hsl(367, 90%, 70%)" opacity="0.78"/><rect x="237" y="292" width="198" height="90" rx="12" fill="rgba(12,28,60,0.48)" stroke="hsl(378, 90%, 70%)" opacity="0.78"/></g>
  <g id="scene-sparkles"><circle cx="170" cy="648" r="1.84" fill="rgba(180,240,255,0.31)"/><circle cx="49" cy="353" r="2.94" fill="rgba(180,240,255,0.39)"/><circle cx="663" cy="392" r="1.97" fill="rgba(180,240,255,0.41)"/><circle cx="176" cy="560" r="1.88" fill="rgba(180,240,255,0.30)"/><circle cx="388" cy="515" r="2.22" fill="rgba(180,240,255,0.20)"/><circle cx="976" cy="632" r="1.81" fill="rgba(180,240,255,0.27)"/><circle cx="465" cy="408" r="2.14" fill="rgba(180,240,255,0.41)"/><circle cx="612" cy="591" r="3.24" fill="rgba(180,240,255,0.33)"/><circle cx="396" cy="300" r="1.25" fill="rgba(180,240,255,0.23)"/><circle cx="1110" cy="542" r="2.71" fill="rgba(180,240,255,0.33)"/><circle cx="909" cy="37" r="2.83" fill="rgba(180,240,255,0.23)"/><circle cx="379" cy="655" r="3.02" fill="rgba(180,240,255,0.43)"/><circle cx="466" cy="437" r="1.88" fill="rgba(180,240,255,0.23)"/><circle cx="269" cy="442" r="2.28" fill="rgba(180,240,255,0.23)"/><circle cx="799" cy="491" r="2.60" fill="rgba(180,240,255,0.38)"/><circle cx="444" cy="353" r="2.39" fill="rgba(180,240,255,0.28)"/><circle cx="505" cy="425" r="2.00" fill="rgba(180,240,255,0.34)"/></g>
  <rect width="1200" height="675" fill="rgba(190,220,255,0.06)"/>
  <rect width="1200" height="675" filter="url(#grain-52)"/>
  <rect width="1200" height="675" fill="url(#vignette-52)"/>
  <rect x="20" y="20" width="1160" height="635" rx="32" fill="none" stroke="rgba(155,220,255,0.24)"/>
</svg>