<?xml version="1.0" encoding="UTF-8"?>
<svg xmlns="http://www.w3.org/2000/svg" width="1200" height="675" viewBox="0 0 1200 675" role="img" aria-label="Fallback cover 5" data-scene="landscape-5">
  
  <defs>
    <linearGradient id="sky-5" x1="0" y1="0" x2="0" y2="1">
      <stop offset="0%" stop-color="hsl(116, 70%, 74%)"/>
      <stop offset="55%" stop-color="hsl(163, 64%, 56%)"/>
      <stop offset="100%" stop-color="hsl(235, 46%, 34%)"/>
    </linearGradient>
    <filter id="grain-5" x="0%" y="0%" width="100%" height="100%">
      <feTurbulence type="fractalNoise" baseFrequency="0.85" numOctaves="2" seed="85" stitchTiles="stitch"/>
      <feColorMatrix type="saturate" values="0"/>
      <feComponentTransfer><feFuncA type="table" tableValues="0 0.05"/></feComponentTransfer>
    </filter>
    <filter id="soft-5" x="-30%" y="-30%" width="160%" height="160%">
      <feGaussianBlur stdDeviation="12"/>
    </filter>
    <radialGradient id="vignette-5" cx="50%" cy="45%" r="72%">
      <stop offset="60%" stop-color="rgba(0,0,0,0)"/>
      <stop offset="100%" stop-color="rgba(0,0,0,0.42)"/>
    </radialGradient>
  </defs>
  <rect width="1200" height="675" fill="url(#sky-5)"/>
  <rect x="485" y="197" width="181" height="369" rx="14" fill="hsl(116, 20%, 28%)"/><rect x="496" y="142" width="80" height="453" fill="rgba(190,235,255,0.6)" /><ellipse cx="595" cy="599" rx="311" ry="58" fill="rgba(125,200,240,0.5)"/>
  <g id="scene-sparkles"><circle cx="561" cy="73" r="2.73" fill="rgba(245,250,255,0.16)"/><circle cx="935" cy="278" r="1.62" fill="rgba(245,250,255,0.37)"/><circle cx="315" cy="437" r="2.34" fill="rgba(245,250,255,0.29)"/><circle cx="196" cy="478" r="1.77" fill="rgba(245,250,255,0.29)"/><circle cx="481" cy="544" r="2.01" fill="rgba(245,250,255,0.34)"/><circle cx="125" cy="148" r="2.48" fill="rgba(245,250,255,0.16)"/><circle cx="968" cy="319" r="2.80" fill="rgba(245,250,255,0.31)"/><circle cx="506" cy="420" r="2.61" fill="rgba(245,250,255,0.33)"/><circle cx="381" cy="472" r="2.30" fill="rgba(245,250,255,0.25)"/><circle cx="228" cy="509" r="1.87" fill="rgba(245,250,255,0.35)"/><circle cx="822" cy="510" r="1.99" fill="rgba(245,250,255,0.23)"/><circle cx="498" cy="110" r="1.43" fill="rgba(245,250,255,0.19)"/><circle cx="437" cy="624" r="2.15" fill="rgba(245,250,255,0.20)"/><circle cx="1005" cy="167" r="1.02" fill="rgba(245,250,255,0.24)"/><circle cx="885" cy="589" r="2.21" fill="rgba(245,250,255,0.15)"/><circle cx="852" cy="521" r="1.23" fill="rgba(245,250,255,0.30)"/><circle cx="754" cy="112" r="1.81" fill="rgba(245,250,255,0.28)"/><circle cx="495" cy="572" r="1.31" fill="rgba(245,250,255,0.27)"/><circle cx="284" cy="323" r="1.36" fill="rgba(245,250,255,0.37)"/></g>
  <rect width="1200" height="675" filter="url(#grain-5)"/>
  <rect width="1200" height="675" fill="url(#vignette-5)"/>
</svg>