<?xml version="1.0" encoding="UTF-8"?>
<svg xmlns="http://www.w3.org/2000/svg" width="1200" height="675" viewBox="0 0 1200 675" role="img" aria-label="AIGC fallback cover 14" data-scene="scene-4">
  <defs>
    <linearGradient id="bg-14" x1="0" y1="0" x2="1" y2="1">
      <stop offset="0%" stop-color="hsl(253, 82%, 16%)"/>
      <stop offset="52%" stop-color="hsl(327, 84%, 23%)"/>
      <stop offset="100%" stop-color="hsl(31, 78%, 12%)"/>
    </linearGradient>
    <filter id="blur-14" x="-25%" y="-25%" width="150%" height="150%">
      <feGaussianBlur stdDeviation="26"/>
    </filter>
    <filter id="soft-14" x="-25%" y="-25%" width="150%" height="150%">
      <feGaussianBlur stdDeviation="10"/>
    </filter>
    <filter id="grain-14" x="0%" y="0%" width="100%" height="100%">
      <feTurbulence type="fractalNoise" baseFrequency="0.9" numOctaves="2" seed="182" stitchTiles="stitch"/>
      <feColorMatrix type="saturate" values="0"/>
      <feComponentTransfer>
        <feFuncA type="table" tableValues="0 0.05"/>
      </feComponentTransfer>
    </filter>
    <radialGradient id="vignette-14" cx="50%" cy="45%" r="70%">
      <stop offset="60%" stop-color="rgba(0,0,0,0)"/>
      <stop offset="100%" stop-color="rgba(0,0,0,0.45)"/>
    </radialGradient>
  </defs>

  <rect width="1200" height="675" fill="url(#bg-14)"/>
  <circle cx="533" cy="471" r="216" fill="hsl(253, 92%, 62%)" opacity="0.17" filter="url(#blur-14)"/><circle cx="1062" cy="161" r="213" fill="hsl(279, 92%, 62%)" opacity="0.12" filter="url(#blur-14)"/><circle cx="254" cy="610" r="179" fill="hsl(305, 92%, 62%)" opacity="0.14" filter="url(#blur-14)"/>
  <circle cx="546" cy="323" r="27" fill="rgba(210,240,255,0.12)" filter="url(#soft-14)"/><circle cx="532" cy="371" r="52" fill="rgba(210,240,255,0.06)" filter="url(#soft-14)"/><circle cx="540" cy="196" r="23" fill="rgba(210,240,255,0.13)" filter="url(#soft-14)"/><circle cx="821" cy="257" r="70" fill="rgba(210,240,255,0.10)" filter="url(#soft-14)"/><circle cx="145" cy="124" r="36" fill="rgba(210,240,255,0.11)" filter="url(#soft-14)"/><circle cx="294" cy="243" r="65" fill="rgba(210,240,255,0.13)" filter="url(#soft-14)"/><circle cx="56" cy="87" r="23" fill="rgba(210,240,255,0.07)" filter="url(#soft-14)"/><circle cx="719" cy="242" r="30" fill="rgba(210,240,255,0.12)" filter="url(#soft-14)"/><circle cx="492" cy="444" r="31" fill="rgba(210,240,255,0.12)" filter="url(#soft-14)"/>
  <polygon points="0,675 1200,675 980,404 220,404" fill="rgba(8,16,28,0.35)"/>
  <g id="scene-city"><g><rect x="302" y="327" width="82" height="348" rx="8" fill="rgba(8,18,38,0.58)" stroke="hsl(253, 70%, 52%)" opacity="0.72"/><rect x="312" y="347" width="54" height="5" rx="2" fill="rgba(120,240,255,0.22)"/><rect x="316" y="375" width="61" height="5" rx="2" fill="rgba(120,240,255,0.22)"/><rect x="312" y="387" width="59" height="5" rx="2" fill="rgba(120,240,255,0.22)"/><rect x="315" y="422" width="57" height="5" rx="2" fill="rgba(120,240,255,0.22)"/><rect x="318" y="431" width="63" height="5" rx="2" fill="rgba(120,240,255,0.22)"/><rect x="313" y="437" width="55" height="5" rx="2" fill="rgba(120,240,255,0.22)"/><rect x="317" y="479" width="54" height="5" rx="2" fill="rgba(120,240,255,0.22)"/><rect x="316" y="529" width="59" height="5" rx="2" fill="rgba(120,240,255,0.22)"/><rect x="311" y="539" width="61" height="5" rx="2" fill="rgba(120,240,255,0.22)"/></g><g><rect x="624" y="387" width="46" height="288" rx="8" fill="rgba(8,18,38,0.58)" stroke="hsl(258, 70%, 52%)" opacity="0.72"/><rect x="632" y="407" width="23" height="5" rx="2" fill="rgba(120,240,255,0.22)"/><rect x="638" y="431" width="26" height="5" rx="2" fill="rgba(120,240,255,0.22)"/><rect x="637" y="443" width="28" height="5" rx="2" fill="rgba(120,240,255,0.22)"/><rect x="633" y="488" width="29" height="5" rx="2" fill="rgba(120,240,255,0.22)"/><rect x="637" y="495" width="28" height="5" rx="2" fill="rgba(120,240,255,0.22)"/><rect x="632" y="532" width="18" height="5" rx="2" fill="rgba(120,240,255,0.22)"/></g><g><rect x="64" y="519" width="56" height="156" rx="8" fill="rgba(8,18,38,0.58)" stroke="hsl(263, 70%, 52%)" opacity="0.72"/><rect x="80" y="539" width="31" height="5" rx="2" fill="rgba(120,240,255,0.22)"/><rect x="74" y="559" width="34" height="5" rx="2" fill="rgba(120,240,255,0.22)"/><rect x="79" y="583" width="31" height="5" rx="2" fill="rgba(120,240,255,0.22)"/><rect x="79" y="623" width="40" height="5" rx="2" fill="rgba(120,240,255,0.22)"/><rect x="78" y="619" width="38" height="5" rx="2" fill="rgba(120,240,255,0.22)"/><rect x="74" y="649" width="40" height="5" rx="2" fill="rgba(120,240,255,0.22)"/><rect x="80" y="701" width="33" height="5" rx="2" fill="rgba(120,240,255,0.22)"/></g><g><rect x="911" y="367" width="104" height="308" rx="8" fill="rgba(8,18,38,0.58)" stroke="hsl(268, 70%, 52%)" opacity="0.72"/><rect x="922" y="387" width="78" height="5" rx="2" fill="rgba(120,240,255,0.22)"/><rect x="927" y="413" width="82" height="5" rx="2" fill="rgba(120,240,255,0.22)"/><rect x="925" y="423" width="87" height="5" rx="2" fill="rgba(120,240,255,0.22)"/><rect x="925" y="459" width="83" height="5" rx="2" fill="rgba(120,240,255,0.22)"/><rect x="922" y="479" width="81" height="5" rx="2" fill="rgba(120,240,255,0.22)"/><rect x="927" y="482" width="77" height="5" rx="2" fill="rgba(120,240,255,0.22)"/><rect x="926" y="513" width="78" height="5" rx="2" fill="rgba(120,240,255,0.22)"/><rect x="922" y="562" width="88" height="5" rx="2" fill="rgba(120,240,255,0.22)"/><rect x="920" y="571" width="83" height="5" rx="2" fill="rgba(120,240,255,0.22)"/></g><g><rect x="601" y="426" width="80" height="249" rx="8" fill="rgba(8,18,38,0.58)" stroke="hsl(273, 70%, 52%)" opacity="0.72"/><rect x="616" y="446" width="64" height="5" rx="2" fill="rgba(120,240,255,0.22)"/><rect x="612" y="472" width="57" height="5" rx="2" fill="rgba(120,240,255,0.22)"/><rect x="610" y="486" width="53" height="5" rx="2" fill="rgba(120,240,255,0.22)"/><rect x="616" y="503" width="59" height="5" rx="2" fill="rgba(120,240,255,0.22)"/></g><g><rect x="719" y="430" width="70" height="245" rx="8" fill="rgba(8,18,38,0.58)" stroke="hsl(278, 70%, 52%)" opacity="0.72"/><rect x="732" y="450" width="51" height="5" rx="2" fill="rgba(120,240,255,0.22)"/><rect x="730" y="470" width="48" height="5" rx="2" fill="rgba(120,240,255,0.22)"/><rect x="731" y="494" width="42" height="5" rx="2" fill="rgba(120,240,255,0.22)"/><rect x="730" y="522" width="43" height="5" rx="2" fill="rgba(120,240,255,0.22)"/><rect x="732" y="546" width="51" height="5" rx="2" fill="rgba(120,240,255,0.22)"/></g><g><rect x="308" y="464" width="115" height="211" rx="8" fill="rgba(8,18,38,0.58)" stroke="hsl(283, 70%, 52%)" opacity="0.72"/><rect x="324" y="484" width="98" height="5" rx="2" fill="rgba(120,240,255,0.22)"/><rect x="323" y="507" width="87" height="5" rx="2" fill="rgba(120,240,255,0.22)"/><rect x="321" y="528" width="91" height="5" rx="2" fill="rgba(120,240,255,0.22)"/><rect x="322" y="568" width="91" height="5" rx="2" fill="rgba(120,240,255,0.22)"/><rect x="322" y="592" width="91" height="5" rx="2" fill="rgba(120,240,255,0.22)"/><rect x="321" y="574" width="88" height="5" rx="2" fill="rgba(120,240,255,0.22)"/><rect x="317" y="646" width="97" height="5" rx="2" fill="rgba(120,240,255,0.22)"/><rect x="323" y="666" width="96" height="5" rx="2" fill="rgba(120,240,255,0.22)"/><rect x="322" y="676" width="97" height="5" rx="2" fill="rgba(120,240,255,0.22)"/><rect x="316" y="718" width="98" height="5" rx="2" fill="rgba(120,240,255,0.22)"/></g><g><rect x="70" y="508" width="46" height="167" rx="8" fill="rgba(8,18,38,0.58)" stroke="hsl(288, 70%, 52%)" opacity="0.72"/><rect x="79" y="528" width="26" height="5" rx="2" fill="rgba(120,240,255,0.22)"/><rect x="78" y="551" width="20" height="5" rx="2" fill="rgba(120,240,255,0.22)"/><rect x="80" y="568" width="22" height="5" rx="2" fill="rgba(120,240,255,0.22)"/><rect x="82" y="585" width="23" height="5" rx="2" fill="rgba(120,240,255,0.22)"/><rect x="82" y="604" width="25" height="5" rx="2" fill="rgba(120,240,255,0.22)"/></g><g><rect x="957" y="464" width="91" height="211" rx="8" fill="rgba(8,18,38,0.58)" stroke="hsl(293, 70%, 52%)" opacity="0.72"/><rect x="973" y="484" width="73" height="5" rx="2" fill="rgba(120,240,255,0.22)"/><rect x="967" y="509" width="74" height="5" rx="2" fill="rgba(120,240,255,0.22)"/><rect x="971" y="538" width="71" height="5" rx="2" fill="rgba(120,240,255,0.22)"/><rect x="968" y="562" width="70" height="5" rx="2" fill="rgba(120,240,255,0.22)"/><rect x="971" y="564" width="75" height="5" rx="2" fill="rgba(120,240,255,0.22)"/><rect x="965" y="609" width="67" height="5" rx="2" fill="rgba(120,240,255,0.22)"/><rect x="971" y="622" width="64" height="5" rx="2" fill="rgba(120,240,255,0.22)"/></g><g><rect x="155" y="463" width="91" height="212" rx="8" fill="rgba(8,18,38,0.58)" stroke="hsl(298, 70%, 52%)" opacity="0.72"/><rect x="167" y="483" width="75" height="5" rx="2" fill="rgba(120,240,255,0.22)"/><rect x="165" y="508" width="67" height="5" rx="2" fill="rgba(120,240,255,0.22)"/><rect x="169" y="539" width="66" height="5" rx="2" fill="rgba(120,240,255,0.22)"/><rect x="169" y="564" width="70" height="5" rx="2" fill="rgba(120,240,255,0.22)"/><rect x="170" y="583" width="63" height="5" rx="2" fill="rgba(120,240,255,0.22)"/><rect x="164" y="583" width="67" height="5" rx="2" fill="rgba(120,240,255,0.22)"/><rect x="171" y="627" width="74" height="5" rx="2" fill="rgba(120,240,255,0.22)"/><rect x="164" y="658" width="72" height="5" rx="2" fill="rgba(120,240,255,0.22)"/><rect x="163" y="651" width="65" height="5" rx="2" fill="rgba(120,240,255,0.22)"/><rect x="169" y="645" width="72" height="5" rx="2" fill="rgba(120,240,255,0.22)"/></g><g><rect x="885" y="415" width="54" height="260" rx="8" fill="rgba(8,18,38,0.58)" stroke="hsl(303, 70%, 52%)" opacity="0.72"/><rect x="895" y="435" width="37" height="5" rx="2" fill="rgba(120,240,255,0.22)"/><rect x="893" y="463" width="30" height="5" rx="2" fill="rgba(120,240,255,0.22)"/><rect x="898" y="473" width="28" height="5" rx="2" fill="rgba(120,240,255,0.22)"/><rect x="894" y="510" width="29" height="5" rx="2" fill="rgba(120,240,255,0.22)"/><rect x="899" y="543" width="36" height="5" rx="2" fill="rgba(120,240,255,0.22)"/><rect x="899" y="565" width="34" height="5" rx="2" fill="rgba(120,240,255,0.22)"/><rect x="894" y="567" width="36" height="5" rx="2" fill="rgba(120,240,255,0.22)"/><rect x="896" y="589" width="33" height="5" rx="2" fill="rgba(120,240,255,0.22)"/><rect x="896" y="587" width="33" height="5" rx="2" fill="rgba(120,240,255,0.22)"/><rect x="900" y="660" width="29" height="5" rx="2" fill="rgba(120,240,255,0.22)"/></g></g>
  <g id="scene-sparkles"><circle cx="1103" cy="314" r="2.17" fill="rgba(180,240,255,0.32)"/><circle cx="1027" cy="115" r="2.72" fill="rgba(180,240,255,0.40)"/><circle cx="760" cy="159" r="2.82" fill="rgba(180,240,255,0.44)"/><circle cx="146" cy="135" r="1.34" fill="rgba(180,240,255,0.26)"/><circle cx="982" cy="196" r="2.50" fill="rgba(180,240,255,0.41)"/><circle cx="493" cy="597" r="1.77" fill="rgba(180,240,255,0.24)"/><circle cx="928" cy="209" r="1.61" fill="rgba(180,240,255,0.20)"/><circle cx="111" cy="171" r="3.11" fill="rgba(180,240,255,0.16)"/><circle cx="565" cy="182" r="2.52" fill="rgba(180,240,255,0.17)"/><circle cx="1130" cy="595" r="2.18" fill="rgba(180,240,255,0.19)"/><circle cx="754" cy="338" r="3.39" fill="rgba(180,240,255,0.23)"/><circle cx="1041" cy="265" r="1.31" fill="rgba(180,240,255,0.22)"/><circle cx="564" cy="246" r="1.80" fill="rgba(180,240,255,0.36)"/><circle cx="82" cy="437" r="2.63" fill="rgba(180,240,255,0.34)"/><circle cx="281" cy="443" r="2.55" fill="rgba(180,240,255,0.27)"/><circle cx="619" cy="534" r="1.58" fill="rgba(180,240,255,0.40)"/><circle cx="910" cy="406" r="1.40" fill="rgba(180,240,255,0.18)"/><circle cx="46" cy="250" r="3.20" fill="rgba(180,240,255,0.31)"/><circle cx="768" cy="293" r="2.63" fill="rgba(180,240,255,0.20)"/><circle cx="955" cy="156" r="2.30" fill="rgba(180,240,255,0.17)"/><circle cx="153" cy="220" r="2.25" fill="rgba(180,240,255,0.24)"/><circle cx="904" cy="259" r="1.48" fill="rgba(180,240,255,0.41)"/></g>
  <rect width="1200" height="675" fill="rgba(190,220,255,0.06)"/>
  <rect width="1200" height="675" filter="url(#grain-14)"/>
  <rect width="1200" height="675" fill="url(#vignette-14)"/>
  <rect x="20" y="20" width="1160" height="635" rx="32" fill="none" stroke="rgba(155,220,255,0.24)"/>
</svg>