<?xml version="1.0" encoding="UTF-8"?>
<svg xmlns="http://www.w3.org/2000/svg" width="1200" height="675" viewBox="0 0 1200 675" role="img" aria-label="AIGC fallback cover 64" data-scene="scene-4">
  <defs>
    <linearGradient id="bg-64" x1="0" y1="0" x2="1" y2="1">
      <stop offset="0%" stop-color="hsl(137, 82%, 16%)"/>
      <stop offset="52%" stop-color="hsl(184, 84%, 23%)"/>
      <stop offset="100%" stop-color="hsl(265, 78%, 12%)"/>
    </linearGradient>
    <filter id="blur-64" x="-25%" y="-25%" width="150%" height="150%">
      <feGaussianBlur stdDeviation="26"/>
    </filter>
    <filter id="soft-64" x="-25%" y="-25%" width="150%" height="150%">
      <feGaussianBlur stdDeviation="10"/>
    </filter>
    <filter id="grain-64" x="0%" y="0%" width="100%" height="100%">
      <feTurbulence type="fractalNoise" baseFrequency="0.9" numOctaves="2" seed="832" stitchTiles="stitch"/>
      <feColorMatrix type="saturate" values="0"/>
      <feComponentTransfer>
        <feFuncA type="table" tableValues="0 0.05"/>
      </feComponentTransfer>
    </filter>
    <radialGradient id="vignette-64" cx="50%" cy="45%" r="70%">
      <stop offset="60%" stop-color="rgba(0,0,0,0)"/>
      <stop offset="100%" stop-color="rgba(0,0,0,0.45)"/>
    </radialGradient>
  </defs>

  <rect width="1200" height="675" fill="url(#bg-64)"/>
  <circle cx="567" cy="302" r="201" fill="hsl(137, 92%, 62%)" opacity="0.17" filter="url(#blur-64)"/><circle cx="550" cy="428" r="178" fill="hsl(163, 92%, 62%)" opacity="0.10" filter="url(#blur-64)"/><circle cx="1056" cy="501" r="206" fill="hsl(189, 92%, 62%)" opacity="0.14" filter="url(#blur-64)"/>
  <circle cx="258" cy="78" r="20" fill="rgba(210,240,255,0.11)" filter="url(#soft-64)"/><circle cx="845" cy="193" r="27" fill="rgba(210,240,255,0.07)" filter="url(#soft-64)"/><circle cx="724" cy="243" r="20" fill="rgba(210,240,255,0.14)" filter="url(#soft-64)"/><circle cx="828" cy="140" r="58" fill="rgba(210,240,255,0.12)" filter="url(#soft-64)"/><circle cx="80" cy="379" r="69" fill="rgba(210,240,255,0.13)" filter="url(#soft-64)"/><circle cx="591" cy="328" r="61" fill="rgba(210,240,255,0.10)" filter="url(#soft-64)"/><circle cx="980" cy="180" r="30" fill="rgba(210,240,255,0.07)" filter="url(#soft-64)"/><circle cx="454" cy="273" r="68" fill="rgba(210,240,255,0.10)" filter="url(#soft-64)"/><circle cx="71" cy="296" r="45" fill="rgba(210,240,255,0.11)" filter="url(#soft-64)"/><circle cx="985" cy="135" r="67" fill="rgba(210,240,255,0.09)" filter="url(#soft-64)"/>
  <polygon points="0,675 1200,675 1209,384 -9,384" fill="rgba(8,16,28,0.35)"/>
  <g id="scene-city"><g><rect x="82" y="498" width="70" height="177" rx="8" fill="rgba(8,18,38,0.58)" stroke="hsl(137, 70%, 52%)" opacity="0.72"/><rect x="92" y="518" width="44" height="5" rx="2" fill="rgba(120,240,255,0.22)"/><rect x="92" y="537" width="46" height="5" rx="2" fill="rgba(120,240,255,0.22)"/><rect x="98" y="560" width="45" height="5" rx="2" fill="rgba(120,240,255,0.22)"/><rect x="90" y="593" width="46" height="5" rx="2" fill="rgba(120,240,255,0.22)"/><rect x="92" y="594" width="45" height="5" rx="2" fill="rgba(120,240,255,0.22)"/><rect x="91" y="658" width="44" height="5" rx="2" fill="rgba(120,240,255,0.22)"/><rect x="96" y="656" width="52" height="5" rx="2" fill="rgba(120,240,255,0.22)"/><rect x="95" y="686" width="46" height="5" rx="2" fill="rgba(120,240,255,0.22)"/><rect x="98" y="742" width="42" height="5" rx="2" fill="rgba(120,240,255,0.22)"/></g><g><rect x="318" y="504" width="72" height="171" rx="8" fill="rgba(8,18,38,0.58)" stroke="hsl(142, 70%, 52%)" opacity="0.72"/><rect x="330" y="524" width="46" height="5" rx="2" fill="rgba(120,240,255,0.22)"/><rect x="326" y="543" width="47" height="5" rx="2" fill="rgba(120,240,255,0.22)"/><rect x="331" y="562" width="49" height="5" rx="2" fill="rgba(120,240,255,0.22)"/><rect x="329" y="596" width="50" height="5" rx="2" fill="rgba(120,240,255,0.22)"/><rect x="328" y="628" width="50" height="5" rx="2" fill="rgba(120,240,255,0.22)"/><rect x="332" y="629" width="51" height="5" rx="2" fill="rgba(120,240,255,0.22)"/><rect x="334" y="644" width="44" height="5" rx="2" fill="rgba(120,240,255,0.22)"/><rect x="329" y="699" width="54" height="5" rx="2" fill="rgba(120,240,255,0.22)"/><rect x="331" y="716" width="56" height="5" rx="2" fill="rgba(120,240,255,0.22)"/></g><g><rect x="384" y="490" width="106" height="185" rx="8" fill="rgba(8,18,38,0.58)" stroke="hsl(147, 70%, 52%)" opacity="0.72"/><rect x="395" y="510" width="82" height="5" rx="2" fill="rgba(120,240,255,0.22)"/><rect x="394" y="538" width="80" height="5" rx="2" fill="rgba(120,240,255,0.22)"/><rect x="393" y="546" width="85" height="5" rx="2" fill="rgba(120,240,255,0.22)"/><rect x="393" y="573" width="85" height="5" rx="2" fill="rgba(120,240,255,0.22)"/><rect x="392" y="590" width="83" height="5" rx="2" fill="rgba(120,240,255,0.22)"/><rect x="400" y="625" width="78" height="5" rx="2" fill="rgba(120,240,255,0.22)"/><rect x="397" y="678" width="83" height="5" rx="2" fill="rgba(120,240,255,0.22)"/><rect x="392" y="706" width="90" height="5" rx="2" fill="rgba(120,240,255,0.22)"/><rect x="393" y="670" width="87" height="5" rx="2" fill="rgba(120,240,255,0.22)"/></g><g><rect x="784" y="552" width="113" height="123" rx="8" fill="rgba(8,18,38,0.58)" stroke="hsl(152, 70%, 52%)" opacity="0.72"/><rect x="793" y="572" width="93" height="5" rx="2" fill="rgba(120,240,255,0.22)"/><rect x="796" y="596" width="89" height="5" rx="2" fill="rgba(120,240,255,0.22)"/><rect x="797" y="620" width="93" height="5" rx="2" fill="rgba(120,240,255,0.22)"/><rect x="798" y="644" width="92" height="5" rx="2" fill="rgba(120,240,255,0.22)"/><rect x="799" y="652" width="91" height="5" rx="2" fill="rgba(120,240,255,0.22)"/><rect x="797" y="687" width="93" height="5" rx="2" fill="rgba(120,240,255,0.22)"/></g><g><rect x="96" y="413" width="100" height="262" rx="8" fill="rgba(8,18,38,0.58)" stroke="hsl(157, 70%, 52%)" opacity="0.72"/><rect x="109" y="433" width="77" height="5" rx="2" fill="rgba(120,240,255,0.22)"/><rect x="109" y="461" width="74" height="5" rx="2" fill="rgba(120,240,255,0.22)"/><rect x="112" y="475" width="75" height="5" rx="2" fill="rgba(120,240,255,0.22)"/><rect x="108" y="517" width="81" height="5" rx="2" fill="rgba(120,240,255,0.22)"/><rect x="107" y="533" width="74" height="5" rx="2" fill="rgba(120,240,255,0.22)"/><rect x="112" y="533" width="75" height="5" rx="2" fill="rgba(120,240,255,0.22)"/><rect x="104" y="559" width="72" height="5" rx="2" fill="rgba(120,240,255,0.22)"/></g><g><rect x="680" y="354" width="90" height="321" rx="8" fill="rgba(8,18,38,0.58)" stroke="hsl(162, 70%, 52%)" opacity="0.72"/><rect x="692" y="374" width="68" height="5" rx="2" fill="rgba(120,240,255,0.22)"/><rect x="693" y="396" width="70" height="5" rx="2" fill="rgba(120,240,255,0.22)"/><rect x="696" y="416" width="74" height="5" rx="2" fill="rgba(120,240,255,0.22)"/><rect x="688" y="437" width="74" height="5" rx="2" fill="rgba(120,240,255,0.22)"/><rect x="693" y="446" width="63" height="5" rx="2" fill="rgba(120,240,255,0.22)"/><rect x="691" y="499" width="64" height="5" rx="2" fill="rgba(120,240,255,0.22)"/><rect x="691" y="494" width="72" height="5" rx="2" fill="rgba(120,240,255,0.22)"/><rect x="693" y="542" width="70" height="5" rx="2" fill="rgba(120,240,255,0.22)"/></g><g><rect x="662" y="529" width="49" height="146" rx="8" fill="rgba(8,18,38,0.58)" stroke="hsl(167, 70%, 52%)" opacity="0.72"/><rect x="672" y="549" width="26" height="5" rx="2" fill="rgba(120,240,255,0.22)"/><rect x="676" y="571" width="32" height="5" rx="2" fill="rgba(120,240,255,0.22)"/><rect x="676" y="593" width="23" height="5" rx="2" fill="rgba(120,240,255,0.22)"/><rect x="673" y="603" width="32" height="5" rx="2" fill="rgba(120,240,255,0.22)"/></g><g><rect x="693" y="489" width="77" height="186" rx="8" fill="rgba(8,18,38,0.58)" stroke="hsl(172, 70%, 52%)" opacity="0.72"/><rect x="704" y="509" width="59" height="5" rx="2" fill="rgba(120,240,255,0.22)"/><rect x="709" y="534" width="56" height="5" rx="2" fill="rgba(120,240,255,0.22)"/><rect x="703" y="549" width="51" height="5" rx="2" fill="rgba(120,240,255,0.22)"/><rect x="706" y="584" width="52" height="5" rx="2" fill="rgba(120,240,255,0.22)"/><rect x="701" y="585" width="51" height="5" rx="2" fill="rgba(120,240,255,0.22)"/></g><g><rect x="107" y="380" width="94" height="295" rx="8" fill="rgba(8,18,38,0.58)" stroke="hsl(177, 70%, 52%)" opacity="0.72"/><rect x="119" y="400" width="78" height="5" rx="2" fill="rgba(120,240,255,0.22)"/><rect x="121" y="428" width="66" height="5" rx="2" fill="rgba(120,240,255,0.22)"/><rect x="121" y="438" width="73" height="5" rx="2" fill="rgba(120,240,255,0.22)"/><rect x="120" y="469" width="78" height="5" rx="2" fill="rgba(120,240,255,0.22)"/><rect x="120" y="508" width="71" height="5" rx="2" fill="rgba(120,240,255,0.22)"/><rect x="120" y="520" width="74" height="5" rx="2" fill="rgba(120,240,255,0.22)"/><rect x="122" y="556" width="77" height="5" rx="2" fill="rgba(120,240,255,0.22)"/></g><g><rect x="149" y="507" width="83" height="168" rx="8" fill="rgba(8,18,38,0.58)" stroke="hsl(182, 70%, 52%)" opacity="0.72"/><rect x="164" y="527" width="64" height="5" rx="2" fill="rgba(120,240,255,0.22)"/><rect x="157" y="555" width="61" height="5" rx="2" fill="rgba(120,240,255,0.22)"/><rect x="161" y="581" width="63" height="5" rx="2" fill="rgba(120,240,255,0.22)"/><rect x="160" y="590" width="55" height="5" rx="2" fill="rgba(120,240,255,0.22)"/><rect x="161" y="599" width="67" height="5" rx="2" fill="rgba(120,240,255,0.22)"/><rect x="157" y="632" width="60" height="5" rx="2" fill="rgba(120,240,255,0.22)"/></g><g><rect x="851" y="489" width="72" height="186" rx="8" fill="rgba(8,18,38,0.58)" stroke="hsl(187, 70%, 52%)" opacity="0.72"/><rect x="860" y="509" width="49" height="5" rx="2" fill="rgba(120,240,255,0.22)"/><rect x="861" y="536" width="56" height="5" rx="2" fill="rgba(120,240,255,0.22)"/><rect x="864" y="547" width="49" height="5" rx="2" fill="rgba(120,240,255,0.22)"/><rect x="864" y="590" width="47" height="5" rx="2" fill="rgba(120,240,255,0.22)"/><rect x="862" y="605" width="53" height="5" rx="2" fill="rgba(120,240,255,0.22)"/><rect x="867" y="634" width="53" height="5" rx="2" fill="rgba(120,240,255,0.22)"/><rect x="861" y="623" width="44" height="5" rx="2" fill="rgba(120,240,255,0.22)"/></g><g><rect x="302" y="428" width="114" height="247" rx="8" fill="rgba(8,18,38,0.58)" stroke="hsl(192, 70%, 52%)" opacity="0.72"/><rect x="317" y="448" width="86" height="5" rx="2" fill="rgba(120,240,255,0.22)"/><rect x="317" y="473" width="86" height="5" rx="2" fill="rgba(120,240,255,0.22)"/><rect x="315" y="496" width="88" height="5" rx="2" fill="rgba(120,240,255,0.22)"/><rect x="316" y="505" width="92" height="5" rx="2" fill="rgba(120,240,255,0.22)"/><rect x="310" y="540" width="89" height="5" rx="2" fill="rgba(120,240,255,0.22)"/><rect x="314" y="588" width="88" height="5" rx="2" fill="rgba(120,240,255,0.22)"/><rect x="315" y="598" width="89" height="5" rx="2" fill="rgba(120,240,255,0.22)"/><rect x="316" y="574" width="87" height="5" rx="2" fill="rgba(120,240,255,0.22)"/></g><g><rect x="314" y="448" width="50" height="227" rx="8" fill="rgba(8,18,38,0.58)" stroke="hsl(197, 70%, 52%)" opacity="0.72"/><rect x="322" y="468" width="32" height="5" rx="2" fill="rgba(120,240,255,0.22)"/><rect x="324" y="495" width="28" height="5" rx="2" fill="rgba(120,240,255,0.22)"/><rect x="330" y="520" width="23" height="5" rx="2" fill="rgba(120,240,255,0.22)"/><rect x="327" y="534" width="23" height="5" rx="2" fill="rgba(120,240,255,0.22)"/><rect x="327" y="576" width="30" height="5" rx="2" fill="rgba(120,240,255,0.22)"/><rect x="328" y="568" width="23" height="5" rx="2" fill="rgba(120,240,255,0.22)"/><rect x="328" y="618" width="24" height="5" rx="2" fill="rgba(120,240,255,0.22)"/><rect x="326" y="601" width="30" height="5" rx="2" fill="rgba(120,240,255,0.22)"/><rect x="323" y="628" width="24" height="5" rx="2" fill="rgba(120,240,255,0.22)"/></g><g><rect x="971" y="348" width="42" height="327" rx="8" fill="rgba(8,18,38,0.58)" stroke="hsl(202, 70%, 52%)" opacity="0.72"/><rect x="980" y="368" width="14" height="5" rx="2" fill="rgba(120,240,255,0.22)"/><rect x="985" y="391" width="20" height="5" rx="2" fill="rgba(120,240,255,0.22)"/><rect x="981" y="418" width="15" height="5" rx="2" fill="rgba(120,240,255,0.22)"/><rect x="982" y="440" width="25" height="5" rx="2" fill="rgba(120,240,255,0.22)"/><rect x="982" y="476" width="19" height="5" rx="2" fill="rgba(120,240,255,0.22)"/><rect x="983" y="458" width="25" height="5" rx="2" fill="rgba(120,240,255,0.22)"/><rect x="987" y="476" width="15" height="5" rx="2" fill="rgba(120,240,255,0.22)"/><rect x="982" y="557" width="18" height="5" rx="2" fill="rgba(120,240,255,0.22)"/><rect x="987" y="512" width="17" height="5" rx="2" fill="rgba(120,240,255,0.22)"/><rect x="986" y="584" width="19" height="5" rx="2" fill="rgba(120,240,255,0.22)"/></g><g><rect x="212" y="476" width="55" height="199" rx="8" fill="rgba(8,18,38,0.58)" stroke="hsl(207, 70%, 52%)" opacity="0.72"/><rect x="223" y="496" width="27" height="5" rx="2" fill="rgba(120,240,255,0.22)"/><rect x="222" y="522" width="31" height="5" rx="2" fill="rgba(120,240,255,0.22)"/><rect x="224" y="536" width="35" height="5" rx="2" fill="rgba(120,240,255,0.22)"/><rect x="222" y="571" width="31" height="5" rx="2" fill="rgba(120,240,255,0.22)"/></g><g><rect x="198" y="384" width="45" height="291" rx="8" fill="rgba(8,18,38,0.58)" stroke="hsl(212, 70%, 52%)" opacity="0.72"/><rect x="210" y="404" width="18" height="5" rx="2" fill="rgba(120,240,255,0.22)"/><rect x="213" y="432" width="27" height="5" rx="2" fill="rgba(120,240,255,0.22)"/><rect x="207" y="456" width="19" height="5" rx="2" fill="rgba(120,240,255,0.22)"/><rect x="213" y="476" width="28" height="5" rx="2" fill="rgba(120,240,255,0.22)"/><rect x="214" y="496" width="18" height="5" rx="2" fill="rgba(120,240,255,0.22)"/><rect x="213" y="534" width="29" height="5" rx="2" fill="rgba(120,240,255,0.22)"/><rect x="206" y="572" width="28" height="5" rx="2" fill="rgba(120,240,255,0.22)"/></g></g>
  <g id="scene-sparkles"><circle cx="441" cy="251" r="2.38" fill="rgba(180,240,255,0.19)"/><circle cx="871" cy="483" r="3.25" fill="rgba(180,240,255,0.18)"/><circle cx="879" cy="324" r="2.42" fill="rgba(180,240,255,0.27)"/><circle cx="1122" cy="103" r="1.96" fill="rgba(180,240,255,0.30)"/><circle cx="1097" cy="626" r="2.92" fill="rgba(180,240,255,0.32)"/><circle cx="643" cy="399" r="1.41" fill="rgba(180,240,255,0.27)"/><circle cx="542" cy="312" r="1.79" fill="rgba(180,240,255,0.24)"/><circle cx="868" cy="210" r="2.72" fill="rgba(180,240,255,0.44)"/><circle cx="237" cy="131" r="2.72" fill="rgba(180,240,255,0.20)"/><circle cx="298" cy="134" r="1.71" fill="rgba(180,240,255,0.26)"/><circle cx="550" cy="371" r="2.91" fill="rgba(180,240,255,0.44)"/><circle cx="1115" cy="186" r="1.72" fill="rgba(180,240,255,0.16)"/><circle cx="1040" cy="532" r="2.95" fill="rgba(180,240,255,0.44)"/><circle cx="775" cy="549" r="2.98" fill="rgba(180,240,255,0.26)"/><circle cx="384" cy="613" r="2.84" fill="rgba(180,240,255,0.30)"/><circle cx="319" cy="191" r="2.55" fill="rgba(180,240,255,0.42)"/><circle cx="1144" cy="419" r="2.66" fill="rgba(180,240,255,0.38)"/><circle cx="435" cy="366" r="2.69" fill="rgba(180,240,255,0.25)"/><circle cx="1058" cy="544" r="2.73" fill="rgba(180,240,255,0.33)"/><circle cx="886" cy="248" r="1.20" fill="rgba(180,240,255,0.23)"/><circle cx="615" cy="456" r="1.92" fill="rgba(180,240,255,0.26)"/><circle cx="1052" cy="525" r="3.12" fill="rgba(180,240,255,0.19)"/></g>
  <rect width="1200" height="675" fill="rgba(190,220,255,0.06)"/>
  <rect width="1200" height="675" filter="url(#grain-64)"/>
  <rect width="1200" height="675" fill="url(#vignette-64)"/>
  <rect x="20" y="20" width="1160" height="635" rx="32" fill="none" stroke="rgba(155,220,255,0.24)"/>
</svg>