<?xml version="1.0" encoding="UTF-8"?>
<svg xmlns="http://www.w3.org/2000/svg" width="1200" height="675" viewBox="0 0 1200 675" role="img" aria-label="AIGC fallback cover 61" data-scene="scene-1">
  <defs>
    <linearGradient id="bg-61" x1="0" y1="0" x2="1" y2="1">
      <stop offset="0%" stop-color="hsl(349, 82%, 16%)"/>
      <stop offset="52%" stop-color="hsl(52, 84%, 23%)"/>
      <stop offset="100%" stop-color="hsl(114, 78%, 12%)"/>
    </linearGradient>
    <filter id="blur-61" x="-25%" y="-25%" width="150%" height="150%">
      <feGaussianBlur stdDeviation="26"/>
    </filter>
    <filter id="soft-61" x="-25%" y="-25%" width="150%" height="150%">
      <feGaussianBlur stdDeviation="10"/>
    </filter>
    <filter id="grain-61" x="0%" y="0%" width="100%" height="100%">
      <feTurbulence type="fractalNoise" baseFrequency="0.9" numOctaves="2" seed="793" stitchTiles="stitch"/>
      <feColorMatrix type="saturate" values="0"/>
      <feComponentTransfer>
        <feFuncA type="table" tableValues="0 0.05"/>
      </feComponentTransfer>
    </filter>
    <radialGradient id="vignette-61" cx="50%" cy="45%" r="70%">
      <stop offset="60%" stop-color="rgba(0,0,0,0)"/>
      <stop offset="100%" stop-color="rgba(0,0,0,0.45)"/>
    </radialGradient>
  </defs>

  <rect width="1200" height="675" fill="url(#bg-61)"/>
  <circle cx="484" cy="516" r="96" fill="hsl(349, 92%, 62%)" opacity="0.12" filter="url(#blur-61)"/><circle cx="430" cy="302" r="131" fill="hsl(375, 92%, 62%)" opacity="0.12" filter="url(#blur-61)"/><circle cx="267" cy="549" r="200" fill="hsl(401, 92%, 62%)" opacity="0.15" filter="url(#blur-61)"/>
  <circle cx="553" cy="348" r="66" fill="rgba(210,240,255,0.16)" filter="url(#soft-61)"/><circle cx="717" cy="219" r="61" fill="rgba(210,240,255,0.15)" filter="url(#soft-61)"/><circle cx="745" cy="231" r="34" fill="rgba(210,240,255,0.10)" filter="url(#soft-61)"/><circle cx="289" cy="60" r="20" fill="rgba(210,240,255,0.10)" filter="url(#soft-61)"/><circle cx="164" cy="285" r="54" fill="rgba(210,240,255,0.11)" filter="url(#soft-61)"/><circle cx="273" cy="291" r="52" fill="rgba(210,240,255,0.10)" filter="url(#soft-61)"/><circle cx="769" cy="401" r="54" fill="rgba(210,240,255,0.12)" filter="url(#soft-61)"/><circle cx="849" cy="261" r="67" fill="rgba(210,240,255,0.10)" filter="url(#soft-61)"/>
  <polygon points="0,675 1200,675 1371,367 -171,367" fill="rgba(8,16,28,0.35)"/>
  <g id="scene-nodes"><line x1="763" y1="191" x2="778" y2="183" stroke="rgba(145,245,255,0.64)" stroke-width="4"/><line x1="763" y1="191" x2="823" y2="213" stroke="rgba(145,245,255,0.64)" stroke-width="2"/><line x1="778" y1="183" x2="992" y2="330" stroke="rgba(145,245,255,0.64)" stroke-width="4"/><line x1="823" y1="213" x2="950" y2="289" stroke="rgba(145,245,255,0.64)" stroke-width="3"/><line x1="992" y1="330" x2="665" y2="167" stroke="rgba(145,245,255,0.64)" stroke-width="4"/><circle cx="763" cy="191" r="12" fill="hsl(349, 88%, 72%)" opacity="0.86"/><circle cx="778" cy="183" r="13" fill="hsl(358, 88%, 72%)" opacity="0.86"/><circle cx="823" cy="213" r="10" fill="hsl(367, 88%, 72%)" opacity="0.86"/><circle cx="992" cy="330" r="11" fill="hsl(376, 88%, 72%)" opacity="0.86"/><circle cx="950" cy="289" r="13" fill="hsl(385, 88%, 72%)" opacity="0.86"/><circle cx="665" cy="167" r="14" fill="hsl(394, 88%, 72%)" opacity="0.86"/></g>
  <g id="scene-sparkles"><circle cx="825" cy="159" r="3.30" fill="rgba(180,240,255,0.40)"/><circle cx="886" cy="626" r="1.37" fill="rgba(180,240,255,0.31)"/><circle cx="909" cy="396" r="1.84" fill="rgba(180,240,255,0.15)"/><circle cx="172" cy="261" r="1.86" fill="rgba(180,240,255,0.24)"/><circle cx="472" cy="414" r="1.23" fill="rgba(180,240,255,0.36)"/><circle cx="586" cy="234" r="1.29" fill="rgba(180,240,255,0.19)"/><circle cx="853" cy="424" r="1.30" fill="rgba(180,240,255,0.29)"/><circle cx="791" cy="139" r="1.33" fill="rgba(180,240,255,0.29)"/><circle cx="709" cy="611" r="3.35" fill="rgba(180,240,255,0.32)"/><circle cx="641" cy="263" r="2.10" fill="rgba(180,240,255,0.44)"/><circle cx="251" cy="556" r="2.68" fill="rgba(180,240,255,0.38)"/><circle cx="222" cy="268" r="2.01" fill="rgba(180,240,255,0.31)"/><circle cx="1049" cy="254" r="1.57" fill="rgba(180,240,255,0.44)"/><circle cx="199" cy="428" r="3.00" fill="rgba(180,240,255,0.31)"/><circle cx="794" cy="449" r="1.11" fill="rgba(180,240,255,0.27)"/><circle cx="954" cy="68" r="1.60" fill="rgba(180,240,255,0.30)"/></g>
  <rect width="1200" height="675" fill="rgba(190,220,255,0.06)"/>
  <rect width="1200" height="675" filter="url(#grain-61)"/>
  <rect width="1200" height="675" fill="url(#vignette-61)"/>
  <rect x="20" y="20" width="1160" height="635" rx="32" fill="none" stroke="rgba(155,220,255,0.24)"/>
</svg>