<?xml version="1.0" encoding="UTF-8"?>
<svg xmlns="http://www.w3.org/2000/svg" width="1200" height="675" viewBox="0 0 1200 675" role="img" aria-label="Fallback cover 9" data-scene="landscape-9">
  
  <defs>
    <linearGradient id="sky-9" x1="0" y1="0" x2="0" y2="1">
      <stop offset="0%" stop-color="hsl(236, 70%, 74%)"/>
      <stop offset="55%" stop-color="hsl(275, 64%, 56%)"/>
      <stop offset="100%" stop-color="hsl(346, 46%, 34%)"/>
    </linearGradient>
    <filter id="grain-9" x="0%" y="0%" width="100%" height="100%">
      <feTurbulence type="fractalNoise" baseFrequency="0.85" numOctaves="2" seed="153" stitchTiles="stitch"/>
      <feColorMatrix type="saturate" values="0"/>
      <feComponentTransfer><feFuncA type="table" tableValues="0 0.05"/></feComponentTransfer>
    </filter>
    <filter id="soft-9" x="-30%" y="-30%" width="160%" height="160%">
      <feGaussianBlur stdDeviation="12"/>
    </filter>
    <radialGradient id="vignette-9" cx="50%" cy="45%" r="72%">
      <stop offset="60%" stop-color="rgba(0,0,0,0)"/>
      <stop offset="100%" stop-color="rgba(0,0,0,0.42)"/>
    </radialGradient>
  </defs>
  <rect width="1200" height="675" fill="url(#sky-9)"/>
  <path d="M 532 640 L 732 640 L 623 262 Z" fill="hsl(240, 36%, 24%)"/><circle cx="657" cy="251" r="53" fill="rgba(255,140,80,0.35)" />
  <g id="scene-sparkles"><circle cx="836" cy="116" r="2.43" fill="rgba(245,250,255,0.29)"/><circle cx="944" cy="578" r="0.91" fill="rgba(245,250,255,0.31)"/><circle cx="1012" cy="390" r="1.32" fill="rgba(245,250,255,0.16)"/><circle cx="58" cy="478" r="1.60" fill="rgba(245,250,255,0.38)"/><circle cx="864" cy="279" r="2.69" fill="rgba(245,250,255,0.31)"/><circle cx="1118" cy="438" r="1.22" fill="rgba(245,250,255,0.23)"/><circle cx="56" cy="377" r="2.32" fill="rgba(245,250,255,0.18)"/><circle cx="1092" cy="195" r="0.81" fill="rgba(245,250,255,0.36)"/><circle cx="778" cy="602" r="1.50" fill="rgba(245,250,255,0.33)"/><circle cx="851" cy="601" r="2.57" fill="rgba(245,250,255,0.37)"/><circle cx="71" cy="615" r="2.58" fill="rgba(245,250,255,0.25)"/><circle cx="412" cy="24" r="2.49" fill="rgba(245,250,255,0.38)"/><circle cx="1087" cy="472" r="1.61" fill="rgba(245,250,255,0.26)"/><circle cx="50" cy="464" r="2.11" fill="rgba(245,250,255,0.40)"/><circle cx="1141" cy="615" r="1.42" fill="rgba(245,250,255,0.22)"/><circle cx="839" cy="490" r="1.29" fill="rgba(245,250,255,0.32)"/><circle cx="154" cy="451" r="2.64" fill="rgba(245,250,255,0.33)"/><circle cx="1050" cy="299" r="2.56" fill="rgba(245,250,255,0.27)"/><circle cx="772" cy="186" r="1.53" fill="rgba(245,250,255,0.19)"/><circle cx="215" cy="587" r="2.23" fill="rgba(245,250,255,0.30)"/></g>
  <rect width="1200" height="675" filter="url(#grain-9)"/>
  <rect width="1200" height="675" fill="url(#vignette-9)"/>
</svg>