<?xml version="1.0" encoding="UTF-8"?>
<svg xmlns="http://www.w3.org/2000/svg" width="1200" height="675" viewBox="0 0 1200 675" role="img" aria-label="AIGC fallback cover 17" data-scene="scene-7">
  <defs>
    <linearGradient id="bg-17" x1="0" y1="0" x2="1" y2="1">
      <stop offset="0%" stop-color="hsl(3, 82%, 16%)"/>
      <stop offset="52%" stop-color="hsl(54, 84%, 23%)"/>
      <stop offset="100%" stop-color="hsl(116, 78%, 12%)"/>
    </linearGradient>
    <filter id="blur-17" x="-25%" y="-25%" width="150%" height="150%">
      <feGaussianBlur stdDeviation="26"/>
    </filter>
    <filter id="soft-17" x="-25%" y="-25%" width="150%" height="150%">
      <feGaussianBlur stdDeviation="10"/>
    </filter>
    <filter id="grain-17" x="0%" y="0%" width="100%" height="100%">
      <feTurbulence type="fractalNoise" baseFrequency="0.9" numOctaves="2" seed="221" stitchTiles="stitch"/>
      <feColorMatrix type="saturate" values="0"/>
      <feComponentTransfer>
        <feFuncA type="table" tableValues="0 0.05"/>
      </feComponentTransfer>
    </filter>
    <radialGradient id="vignette-17" cx="50%" cy="45%" r="70%">
      <stop offset="60%" stop-color="rgba(0,0,0,0)"/>
      <stop offset="100%" stop-color="rgba(0,0,0,0.45)"/>
    </radialGradient>
  </defs>

  <rect width="1200" height="675" fill="url(#bg-17)"/>
  <circle cx="444" cy="432" r="201" fill="hsl(3, 92%, 62%)" opacity="0.14" filter="url(#blur-17)"/><circle cx="927" cy="480" r="204" fill="hsl(29, 92%, 62%)" opacity="0.16" filter="url(#blur-17)"/><circle cx="597" cy="312" r="98" fill="hsl(55, 92%, 62%)" opacity="0.10" filter="url(#blur-17)"/>
  <circle cx="953" cy="345" r="31" fill="rgba(210,240,255,0.09)" filter="url(#soft-17)"/><circle cx="806" cy="280" r="58" fill="rgba(210,240,255,0.07)" filter="url(#soft-17)"/><circle cx="275" cy="153" r="43" fill="rgba(210,240,255,0.11)" filter="url(#soft-17)"/><circle cx="827" cy="182" r="51" fill="rgba(210,240,255,0.14)" filter="url(#soft-17)"/><circle cx="610" cy="353" r="41" fill="rgba(210,240,255,0.15)" filter="url(#soft-17)"/><circle cx="96" cy="399" r="47" fill="rgba(210,240,255,0.09)" filter="url(#soft-17)"/><circle cx="1071" cy="459" r="22" fill="rgba(210,240,255,0.13)" filter="url(#soft-17)"/><circle cx="921" cy="263" r="57" fill="rgba(210,240,255,0.10)" filter="url(#soft-17)"/><circle cx="365" cy="112" r="26" fill="rgba(210,240,255,0.14)" filter="url(#soft-17)"/>
  <polygon points="0,675 1200,675 1258,373 -58,373" fill="rgba(8,16,28,0.35)"/>
  <g id="scene-orbits"><ellipse cx="667" cy="341" rx="138" ry="71" fill="none" stroke="rgba(140,230,255,0.28)" stroke-width="2" transform="rotate(-18 667 341)"/><ellipse cx="667" cy="341" rx="201" ry="108" fill="none" stroke="rgba(140,230,255,0.28)" stroke-width="2" transform="rotate(-24 667 341)"/><ellipse cx="667" cy="341" rx="233" ry="142" fill="none" stroke="rgba(140,230,255,0.28)" stroke-width="2" transform="rotate(9 667 341)"/><ellipse cx="667" cy="341" rx="269" ry="137" fill="none" stroke="rgba(140,230,255,0.28)" stroke-width="2" transform="rotate(-16 667 341)"/><circle cx="823" cy="352" r="7" fill="hsl(3, 88%, 72%)" opacity="0.85"/><circle cx="558" cy="237" r="11" fill="hsl(15, 88%, 72%)" opacity="0.85"/><circle cx="521" cy="430" r="6" fill="hsl(27, 88%, 72%)" opacity="0.85"/><circle cx="506" cy="390" r="6" fill="hsl(39, 88%, 72%)" opacity="0.85"/><circle cx="542" cy="252" r="6" fill="hsl(51, 88%, 72%)" opacity="0.85"/><circle cx="450" cy="426" r="11" fill="hsl(63, 88%, 72%)" opacity="0.85"/><circle cx="662" cy="448" r="9" fill="hsl(75, 88%, 72%)" opacity="0.85"/><circle cx="528" cy="375" r="9" fill="hsl(87, 88%, 72%)" opacity="0.85"/><circle cx="539" cy="269" r="10" fill="hsl(99, 88%, 72%)" opacity="0.85"/><circle cx="519" cy="367" r="7" fill="hsl(111, 88%, 72%)" opacity="0.85"/></g>
  <g id="scene-sparkles"><circle cx="64" cy="202" r="2.47" fill="rgba(180,240,255,0.35)"/><circle cx="243" cy="202" r="2.26" fill="rgba(180,240,255,0.21)"/><circle cx="505" cy="205" r="3.17" fill="rgba(180,240,255,0.31)"/><circle cx="893" cy="174" r="2.15" fill="rgba(180,240,255,0.30)"/><circle cx="480" cy="333" r="2.77" fill="rgba(180,240,255,0.36)"/><circle cx="181" cy="422" r="3.17" fill="rgba(180,240,255,0.31)"/><circle cx="171" cy="214" r="1.38" fill="rgba(180,240,255,0.43)"/><circle cx="268" cy="542" r="1.39" fill="rgba(180,240,255,0.41)"/><circle cx="709" cy="383" r="3.06" fill="rgba(180,240,255,0.24)"/><circle cx="54" cy="333" r="1.88" fill="rgba(180,240,255,0.31)"/><circle cx="42" cy="251" r="2.00" fill="rgba(180,240,255,0.35)"/><circle cx="492" cy="335" r="2.62" fill="rgba(180,240,255,0.34)"/><circle cx="1084" cy="247" r="1.58" fill="rgba(180,240,255,0.30)"/><circle cx="472" cy="97" r="3.38" fill="rgba(180,240,255,0.30)"/><circle cx="725" cy="346" r="1.59" fill="rgba(180,240,255,0.45)"/><circle cx="1011" cy="594" r="2.88" fill="rgba(180,240,255,0.33)"/><circle cx="452" cy="87" r="1.22" fill="rgba(180,240,255,0.17)"/><circle cx="246" cy="612" r="2.08" fill="rgba(180,240,255,0.28)"/><circle cx="843" cy="36" r="3.02" fill="rgba(180,240,255,0.35)"/><circle cx="1001" cy="476" r="1.60" fill="rgba(180,240,255,0.34)"/><circle cx="515" cy="482" r="1.34" fill="rgba(180,240,255,0.44)"/><circle cx="639" cy="426" r="2.70" fill="rgba(180,240,255,0.18)"/><circle cx="840" cy="208" r="2.79" fill="rgba(180,240,255,0.18)"/><circle cx="1123" cy="501" r="2.47" fill="rgba(180,240,255,0.36)"/></g>
  <rect width="1200" height="675" fill="rgba(190,220,255,0.06)"/>
  <rect width="1200" height="675" filter="url(#grain-17)"/>
  <rect width="1200" height="675" fill="url(#vignette-17)"/>
  <rect x="20" y="20" width="1160" height="635" rx="32" fill="none" stroke="rgba(155,220,255,0.24)"/>
</svg>