<?xml version="1.0" encoding="UTF-8"?>
<svg xmlns="http://www.w3.org/2000/svg" width="1200" height="675" viewBox="0 0 1200 675" role="img" aria-label="AIGC fallback cover 86" data-scene="scene-6">
  <defs>
    <linearGradient id="bg-86" x1="0" y1="0" x2="1" y2="1">
      <stop offset="0%" stop-color="hsl(314, 82%, 16%)"/>
      <stop offset="52%" stop-color="hsl(358, 84%, 23%)"/>
      <stop offset="100%" stop-color="hsl(119, 78%, 12%)"/>
    </linearGradient>
    <filter id="blur-86" x="-25%" y="-25%" width="150%" height="150%">
      <feGaussianBlur stdDeviation="26"/>
    </filter>
    <filter id="soft-86" x="-25%" y="-25%" width="150%" height="150%">
      <feGaussianBlur stdDeviation="10"/>
    </filter>
    <filter id="grain-86" x="0%" y="0%" width="100%" height="100%">
      <feTurbulence type="fractalNoise" baseFrequency="0.9" numOctaves="2" seed="1118" stitchTiles="stitch"/>
      <feColorMatrix type="saturate" values="0"/>
      <feComponentTransfer>
        <feFuncA type="table" tableValues="0 0.05"/>
      </feComponentTransfer>
    </filter>
    <radialGradient id="vignette-86" cx="50%" cy="45%" r="70%">
      <stop offset="60%" stop-color="rgba(0,0,0,0)"/>
      <stop offset="100%" stop-color="rgba(0,0,0,0.45)"/>
    </radialGradient>
  </defs>

  <rect width="1200" height="675" fill="url(#bg-86)"/>
  <circle cx="229" cy="502" r="161" fill="hsl(314, 92%, 62%)" opacity="0.09" filter="url(#blur-86)"/><circle cx="917" cy="175" r="209" fill="hsl(340, 92%, 62%)" opacity="0.08" filter="url(#blur-86)"/><circle cx="172" cy="214" r="137" fill="hsl(366, 92%, 62%)" opacity="0.14" filter="url(#blur-86)"/>
  <circle cx="661" cy="377" r="20" fill="rgba(210,240,255,0.07)" filter="url(#soft-86)"/><circle cx="505" cy="258" r="52" fill="rgba(210,240,255,0.11)" filter="url(#soft-86)"/><circle cx="1084" cy="343" r="59" fill="rgba(210,240,255,0.15)" filter="url(#soft-86)"/><circle cx="75" cy="112" r="21" fill="rgba(210,240,255,0.11)" filter="url(#soft-86)"/><circle cx="122" cy="301" r="40" fill="rgba(210,240,255,0.07)" filter="url(#soft-86)"/><circle cx="87" cy="119" r="28" fill="rgba(210,240,255,0.07)" filter="url(#soft-86)"/><circle cx="744" cy="404" r="61" fill="rgba(210,240,255,0.07)" filter="url(#soft-86)"/><circle cx="732" cy="110" r="53" fill="rgba(210,240,255,0.14)" filter="url(#soft-86)"/><circle cx="526" cy="242" r="23" fill="rgba(210,240,255,0.16)" filter="url(#soft-86)"/>
  <polygon points="0,675 1200,675 1185,384 15,384" fill="rgba(8,16,28,0.35)"/>
  <g id="scene-cloud-pipeline"><g><circle cx="468" cy="117" r="31" fill="rgba(180,220,255,0.42)"/><circle cx="513" cy="118" r="23" fill="rgba(180,220,255,0.36)"/><rect x="446" y="125" width="100" height="22" rx="11" fill="rgba(170,220,255,0.3)"/></g><g><circle cx="802" cy="183" r="35" fill="rgba(180,220,255,0.42)"/><circle cx="835" cy="180" r="31" fill="rgba(180,220,255,0.36)"/><rect x="780" y="191" width="76" height="22" rx="11" fill="rgba(170,220,255,0.3)"/></g><g><circle cx="328" cy="155" r="27" fill="rgba(180,220,255,0.42)"/><circle cx="377" cy="157" r="28" fill="rgba(180,220,255,0.36)"/><rect x="306" y="163" width="73" height="22" rx="11" fill="rgba(170,220,255,0.3)"/></g><g><circle cx="282" cy="258" r="37" fill="rgba(180,220,255,0.42)"/><circle cx="325" cy="254" r="30" fill="rgba(180,220,255,0.36)"/><rect x="260" y="266" width="99" height="22" rx="11" fill="rgba(170,220,255,0.3)"/></g><g><circle cx="184" cy="105" r="28" fill="rgba(180,220,255,0.42)"/><circle cx="211" cy="106" r="26" fill="rgba(180,220,255,0.36)"/><rect x="162" y="113" width="103" height="22" rx="11" fill="rgba(170,220,255,0.3)"/></g><path d="M 1047 532 h 133 v 69 h -89" fill="none" stroke="rgba(120,255,210,0.34)" stroke-width="5" stroke-linecap="round"/><path d="M 811 352 h 55 v 61 h -107" fill="none" stroke="rgba(120,255,210,0.34)" stroke-width="8" stroke-linecap="round"/><path d="M 911 259 h 30 v 88 h 18" fill="none" stroke="rgba(120,255,210,0.34)" stroke-width="4" stroke-linecap="round"/><path d="M 569 126 h 95 v 63 h 35" fill="none" stroke="rgba(120,255,210,0.34)" stroke-width="4" stroke-linecap="round"/><path d="M 445 370 h 40 v 66 h 72" fill="none" stroke="rgba(120,255,210,0.34)" stroke-width="4" stroke-linecap="round"/><path d="M 908 304 h 137 v 93 h -16" fill="none" stroke="rgba(120,255,210,0.34)" stroke-width="4" stroke-linecap="round"/><path d="M 328 524 h 103 v 47 h 66" fill="none" stroke="rgba(120,255,210,0.34)" stroke-width="4" stroke-linecap="round"/><path d="M 243 293 h 97 v 94 h -75" fill="none" stroke="rgba(120,255,210,0.34)" stroke-width="8" stroke-linecap="round"/><path d="M 646 380 h 90 v 65 h -56" fill="none" stroke="rgba(120,255,210,0.34)" stroke-width="8" stroke-linecap="round"/></g>
  <g id="scene-sparkles"><circle cx="602" cy="35" r="2.96" fill="rgba(180,240,255,0.37)"/><circle cx="191" cy="290" r="3.34" fill="rgba(180,240,255,0.34)"/><circle cx="260" cy="347" r="3.30" fill="rgba(180,240,255,0.28)"/><circle cx="116" cy="442" r="2.13" fill="rgba(180,240,255,0.37)"/><circle cx="77" cy="621" r="1.92" fill="rgba(180,240,255,0.15)"/><circle cx="835" cy="280" r="2.92" fill="rgba(180,240,255,0.25)"/><circle cx="422" cy="634" r="1.64" fill="rgba(180,240,255,0.40)"/><circle cx="328" cy="246" r="1.18" fill="rgba(180,240,255,0.16)"/><circle cx="403" cy="28" r="1.58" fill="rgba(180,240,255,0.40)"/><circle cx="1065" cy="421" r="1.28" fill="rgba(180,240,255,0.27)"/><circle cx="846" cy="323" r="1.86" fill="rgba(180,240,255,0.35)"/><circle cx="383" cy="36" r="2.00" fill="rgba(180,240,255,0.29)"/><circle cx="362" cy="526" r="2.09" fill="rgba(180,240,255,0.28)"/><circle cx="987" cy="459" r="3.35" fill="rgba(180,240,255,0.28)"/><circle cx="88" cy="326" r="2.99" fill="rgba(180,240,255,0.26)"/><circle cx="1047" cy="280" r="3.25" fill="rgba(180,240,255,0.33)"/><circle cx="711" cy="116" r="1.71" fill="rgba(180,240,255,0.28)"/><circle cx="1148" cy="448" r="3.32" fill="rgba(180,240,255,0.24)"/><circle cx="680" cy="557" r="1.15" fill="rgba(180,240,255,0.21)"/><circle cx="635" cy="279" r="1.50" fill="rgba(180,240,255,0.18)"/><circle cx="334" cy="253" r="1.67" fill="rgba(180,240,255,0.37)"/><circle cx="600" cy="126" r="1.58" fill="rgba(180,240,255,0.38)"/><circle cx="272" cy="610" r="3.34" fill="rgba(180,240,255,0.28)"/><circle cx="556" cy="612" r="3.19" fill="rgba(180,240,255,0.31)"/><circle cx="941" cy="285" r="2.07" fill="rgba(180,240,255,0.31)"/><circle cx="792" cy="370" r="1.19" fill="rgba(180,240,255,0.43)"/></g>
  <rect width="1200" height="675" fill="rgba(190,220,255,0.06)"/>
  <rect width="1200" height="675" filter="url(#grain-86)"/>
  <rect width="1200" height="675" fill="url(#vignette-86)"/>
  <rect x="20" y="20" width="1160" height="635" rx="32" fill="none" stroke="rgba(155,220,255,0.24)"/>
</svg>