<?xml version="1.0" encoding="UTF-8"?>
<svg xmlns="http://www.w3.org/2000/svg" width="1200" height="675" viewBox="0 0 1200 675" role="img" aria-label="AIGC fallback cover 6" data-scene="scene-6">
  <defs>
    <linearGradient id="bg-6" x1="0" y1="0" x2="1" y2="1">
      <stop offset="0%" stop-color="hsl(283, 82%, 16%)"/>
      <stop offset="52%" stop-color="hsl(343, 84%, 23%)"/>
      <stop offset="100%" stop-color="hsl(90, 78%, 12%)"/>
    </linearGradient>
    <filter id="blur-6" x="-25%" y="-25%" width="150%" height="150%">
      <feGaussianBlur stdDeviation="26"/>
    </filter>
    <filter id="soft-6" x="-25%" y="-25%" width="150%" height="150%">
      <feGaussianBlur stdDeviation="10"/>
    </filter>
    <filter id="grain-6" x="0%" y="0%" width="100%" height="100%">
      <feTurbulence type="fractalNoise" baseFrequency="0.9" numOctaves="2" seed="78" stitchTiles="stitch"/>
      <feColorMatrix type="saturate" values="0"/>
      <feComponentTransfer>
        <feFuncA type="table" tableValues="0 0.05"/>
      </feComponentTransfer>
    </filter>
    <radialGradient id="vignette-6" cx="50%" cy="45%" r="70%">
      <stop offset="60%" stop-color="rgba(0,0,0,0)"/>
      <stop offset="100%" stop-color="rgba(0,0,0,0.45)"/>
    </radialGradient>
  </defs>

  <rect width="1200" height="675" fill="url(#bg-6)"/>
  <circle cx="874" cy="92" r="198" fill="hsl(283, 92%, 62%)" opacity="0.13" filter="url(#blur-6)"/><circle cx="495" cy="361" r="176" fill="hsl(309, 92%, 62%)" opacity="0.10" filter="url(#blur-6)"/><circle cx="1044" cy="164" r="176" fill="hsl(335, 92%, 62%)" opacity="0.08" filter="url(#blur-6)"/>
  <circle cx="439" cy="406" r="30" fill="rgba(210,240,255,0.06)" filter="url(#soft-6)"/><circle cx="373" cy="82" r="69" fill="rgba(210,240,255,0.07)" filter="url(#soft-6)"/><circle cx="348" cy="153" r="38" fill="rgba(210,240,255,0.15)" filter="url(#soft-6)"/><circle cx="672" cy="79" r="20" fill="rgba(210,240,255,0.15)" filter="url(#soft-6)"/><circle cx="991" cy="155" r="67" fill="rgba(210,240,255,0.15)" filter="url(#soft-6)"/><circle cx="1108" cy="424" r="35" fill="rgba(210,240,255,0.14)" filter="url(#soft-6)"/><circle cx="569" cy="214" r="53" fill="rgba(210,240,255,0.08)" filter="url(#soft-6)"/>
  <polygon points="0,675 1200,675 1038,413 162,413" fill="rgba(8,16,28,0.35)"/>
  <g id="scene-cloud-pipeline"><g><circle cx="767" cy="129" r="33" fill="rgba(180,220,255,0.42)"/><circle cx="793" cy="127" r="28" fill="rgba(180,220,255,0.36)"/><rect x="745" y="137" width="105" height="22" rx="11" fill="rgba(170,220,255,0.3)"/></g><g><circle cx="454" cy="181" r="30" fill="rgba(180,220,255,0.42)"/><circle cx="493" cy="176" r="28" fill="rgba(180,220,255,0.36)"/><rect x="432" y="189" width="92" height="22" rx="11" fill="rgba(170,220,255,0.3)"/></g><g><circle cx="705" cy="248" r="31" fill="rgba(180,220,255,0.42)"/><circle cx="730" cy="244" r="29" fill="rgba(180,220,255,0.36)"/><rect x="683" y="256" width="70" height="22" rx="11" fill="rgba(170,220,255,0.3)"/></g><g><circle cx="838" cy="139" r="33" fill="rgba(180,220,255,0.42)"/><circle cx="871" cy="143" r="31" fill="rgba(180,220,255,0.36)"/><rect x="816" y="147" width="78" height="22" rx="11" fill="rgba(170,220,255,0.3)"/></g><path d="M 923 515 h 127 v 66 h -95" fill="none" stroke="rgba(120,255,210,0.34)" stroke-width="5" stroke-linecap="round"/><path d="M 143 156 h 100 v 50 h -41" fill="none" stroke="rgba(120,255,210,0.34)" stroke-width="7" stroke-linecap="round"/><path d="M 274 286 h 131 v 30 h 39" fill="none" stroke="rgba(120,255,210,0.34)" stroke-width="8" stroke-linecap="round"/><path d="M 283 539 h 93 v 57 h 46" fill="none" stroke="rgba(120,255,210,0.34)" stroke-width="5" stroke-linecap="round"/><path d="M 347 525 h 129 v 87 h -112" fill="none" stroke="rgba(120,255,210,0.34)" stroke-width="7" stroke-linecap="round"/><path d="M 657 523 h 57 v 56 h -61" fill="none" stroke="rgba(120,255,210,0.34)" stroke-width="5" stroke-linecap="round"/><path d="M 1014 471 h 123 v 21 h 42" fill="none" stroke="rgba(120,255,210,0.34)" stroke-width="4" stroke-linecap="round"/><path d="M 175 499 h 78 v 55 h -5" fill="none" stroke="rgba(120,255,210,0.34)" stroke-width="4" stroke-linecap="round"/><path d="M 735 439 h 105 v 59 h 31" fill="none" stroke="rgba(120,255,210,0.34)" stroke-width="8" stroke-linecap="round"/><path d="M 141 126 h 58 v 88 h 3" fill="none" stroke="rgba(120,255,210,0.34)" stroke-width="7" stroke-linecap="round"/><path d="M 259 451 h 96 v 26 h 112" fill="none" stroke="rgba(120,255,210,0.34)" stroke-width="5" stroke-linecap="round"/><path d="M 349 215 h 44 v 46 h -7" fill="none" stroke="rgba(120,255,210,0.34)" stroke-width="7" stroke-linecap="round"/></g>
  <g id="scene-sparkles"><circle cx="721" cy="514" r="2.97" fill="rgba(180,240,255,0.33)"/><circle cx="1003" cy="64" r="2.98" fill="rgba(180,240,255,0.24)"/><circle cx="945" cy="155" r="3.00" fill="rgba(180,240,255,0.17)"/><circle cx="438" cy="144" r="3.40" fill="rgba(180,240,255,0.24)"/><circle cx="1100" cy="607" r="1.53" fill="rgba(180,240,255,0.27)"/><circle cx="231" cy="355" r="1.19" fill="rgba(180,240,255,0.19)"/><circle cx="774" cy="89" r="1.85" fill="rgba(180,240,255,0.32)"/><circle cx="471" cy="258" r="2.80" fill="rgba(180,240,255,0.24)"/><circle cx="679" cy="248" r="1.94" fill="rgba(180,240,255,0.22)"/><circle cx="945" cy="462" r="2.98" fill="rgba(180,240,255,0.19)"/><circle cx="879" cy="478" r="1.76" fill="rgba(180,240,255,0.36)"/><circle cx="683" cy="112" r="1.64" fill="rgba(180,240,255,0.18)"/><circle cx="342" cy="339" r="2.89" fill="rgba(180,240,255,0.34)"/><circle cx="709" cy="364" r="2.60" fill="rgba(180,240,255,0.33)"/><circle cx="939" cy="458" r="3.39" fill="rgba(180,240,255,0.19)"/><circle cx="780" cy="81" r="2.29" fill="rgba(180,240,255,0.34)"/></g>
  <rect width="1200" height="675" fill="rgba(190,220,255,0.06)"/>
  <rect width="1200" height="675" filter="url(#grain-6)"/>
  <rect width="1200" height="675" fill="url(#vignette-6)"/>
  <rect x="20" y="20" width="1160" height="635" rx="32" fill="none" stroke="rgba(155,220,255,0.24)"/>
</svg>