<?xml version="1.0" encoding="UTF-8"?>
<svg xmlns="http://www.w3.org/2000/svg" width="1200" height="675" viewBox="0 0 1200 675" role="img" aria-label="AIGC fallback cover 83" data-scene="scene-3">
  <defs>
    <linearGradient id="bg-83" x1="0" y1="0" x2="1" y2="1">
      <stop offset="0%" stop-color="hsl(177, 82%, 16%)"/>
      <stop offset="52%" stop-color="hsl(223, 84%, 23%)"/>
      <stop offset="100%" stop-color="hsl(5, 78%, 12%)"/>
    </linearGradient>
    <filter id="blur-83" x="-25%" y="-25%" width="150%" height="150%">
      <feGaussianBlur stdDeviation="26"/>
    </filter>
    <filter id="soft-83" x="-25%" y="-25%" width="150%" height="150%">
      <feGaussianBlur stdDeviation="10"/>
    </filter>
    <filter id="grain-83" x="0%" y="0%" width="100%" height="100%">
      <feTurbulence type="fractalNoise" baseFrequency="0.9" numOctaves="2" seed="1079" stitchTiles="stitch"/>
      <feColorMatrix type="saturate" values="0"/>
      <feComponentTransfer>
        <feFuncA type="table" tableValues="0 0.05"/>
      </feComponentTransfer>
    </filter>
    <radialGradient id="vignette-83" cx="50%" cy="45%" r="70%">
      <stop offset="60%" stop-color="rgba(0,0,0,0)"/>
      <stop offset="100%" stop-color="rgba(0,0,0,0.45)"/>
    </radialGradient>
  </defs>

  <rect width="1200" height="675" fill="url(#bg-83)"/>
  <circle cx="542" cy="490" r="204" fill="hsl(177, 92%, 62%)" opacity="0.09" filter="url(#blur-83)"/><circle cx="867" cy="478" r="193" fill="hsl(203, 92%, 62%)" opacity="0.10" filter="url(#blur-83)"/><circle cx="871" cy="437" r="211" fill="hsl(229, 92%, 62%)" opacity="0.11" filter="url(#blur-83)"/>
  <circle cx="602" cy="414" r="59" fill="rgba(210,240,255,0.12)" filter="url(#soft-83)"/><circle cx="144" cy="392" r="38" fill="rgba(210,240,255,0.09)" filter="url(#soft-83)"/><circle cx="968" cy="453" r="21" fill="rgba(210,240,255,0.07)" filter="url(#soft-83)"/><circle cx="588" cy="200" r="35" fill="rgba(210,240,255,0.15)" filter="url(#soft-83)"/><circle cx="555" cy="62" r="42" fill="rgba(210,240,255,0.11)" filter="url(#soft-83)"/><circle cx="646" cy="391" r="52" fill="rgba(210,240,255,0.09)" filter="url(#soft-83)"/><circle cx="683" cy="190" r="69" fill="rgba(210,240,255,0.11)" filter="url(#soft-83)"/><circle cx="237" cy="251" r="56" fill="rgba(210,240,255,0.07)" filter="url(#soft-83)"/><circle cx="174" cy="421" r="48" fill="rgba(210,240,255,0.15)" filter="url(#soft-83)"/>
  <polygon points="0,675 1200,675 1308,393 -108,393" fill="rgba(8,16,28,0.35)"/>
  <g id="scene-datacenter"><g><rect x="70" y="347" width="90" height="302" rx="10" fill="rgba(10,20,42,0.58)" stroke="rgba(130,190,255,0.45)"/><rect x="132" y="499" width="21" height="6" rx="3" fill="rgba(102,245,220,0.8)"/><rect x="110" y="483" width="18" height="6" rx="3" fill="rgba(102,245,220,0.8)"/><rect x="118" y="448" width="21" height="6" rx="3" fill="rgba(102,245,220,0.8)"/><rect x="108" y="409" width="30" height="6" rx="3" fill="rgba(102,245,220,0.8)"/><rect x="121" y="495" width="21" height="6" rx="3" fill="rgba(102,245,220,0.8)"/><rect x="111" y="440" width="29" height="6" rx="3" fill="rgba(102,245,220,0.8)"/><rect x="90" y="521" width="21" height="6" rx="3" fill="rgba(102,245,220,0.8)"/><rect x="103" y="561" width="18" height="6" rx="3" fill="rgba(102,245,220,0.8)"/><rect x="96" y="499" width="31" height="6" rx="3" fill="rgba(102,245,220,0.8)"/><rect x="109" y="501" width="23" height="6" rx="3" fill="rgba(102,245,220,0.8)"/></g><g><rect x="205" y="338" width="89" height="302" rx="10" fill="rgba(10,20,42,0.58)" stroke="rgba(130,190,255,0.45)"/><rect x="233" y="467" width="30" height="6" rx="3" fill="rgba(102,245,220,0.8)"/><rect x="234" y="398" width="18" height="6" rx="3" fill="rgba(102,245,220,0.8)"/><rect x="235" y="418" width="23" height="6" rx="3" fill="rgba(102,245,220,0.8)"/><rect x="245" y="418" width="33" height="6" rx="3" fill="rgba(102,245,220,0.8)"/><rect x="246" y="469" width="19" height="6" rx="3" fill="rgba(102,245,220,0.8)"/><rect x="252" y="534" width="33" height="6" rx="3" fill="rgba(102,245,220,0.8)"/></g><g><rect x="328" y="323" width="92" height="314" rx="10" fill="rgba(10,20,42,0.58)" stroke="rgba(130,190,255,0.45)"/><rect x="365" y="486" width="24" height="6" rx="3" fill="rgba(102,245,220,0.8)"/><rect x="355" y="600" width="17" height="6" rx="3" fill="rgba(102,245,220,0.8)"/><rect x="348" y="506" width="27" height="6" rx="3" fill="rgba(102,245,220,0.8)"/><rect x="397" y="525" width="30" height="6" rx="3" fill="rgba(102,245,220,0.8)"/><rect x="392" y="531" width="31" height="6" rx="3" fill="rgba(102,245,220,0.8)"/><rect x="398" y="581" width="28" height="6" rx="3" fill="rgba(102,245,220,0.8)"/><rect x="359" y="462" width="30" height="6" rx="3" fill="rgba(102,245,220,0.8)"/><rect x="384" y="353" width="16" height="6" rx="3" fill="rgba(102,245,220,0.8)"/><rect x="349" y="589" width="33" height="6" rx="3" fill="rgba(102,245,220,0.8)"/></g><g><rect x="451" y="298" width="109" height="352" rx="10" fill="rgba(10,20,42,0.58)" stroke="rgba(130,190,255,0.45)"/><rect x="484" y="526" width="25" height="6" rx="3" fill="rgba(102,245,220,0.8)"/><rect x="505" y="502" width="26" height="6" rx="3" fill="rgba(102,245,220,0.8)"/><rect x="511" y="489" width="29" height="6" rx="3" fill="rgba(102,245,220,0.8)"/><rect x="511" y="435" width="27" height="6" rx="3" fill="rgba(102,245,220,0.8)"/><rect x="538" y="402" width="27" height="6" rx="3" fill="rgba(102,245,220,0.8)"/><rect x="513" y="364" width="34" height="6" rx="3" fill="rgba(102,245,220,0.8)"/></g><g><rect x="582" y="341" width="118" height="306" rx="10" fill="rgba(10,20,42,0.58)" stroke="rgba(130,190,255,0.45)"/><rect x="673" y="502" width="32" height="6" rx="3" fill="rgba(102,245,220,0.8)"/><rect x="620" y="424" width="30" height="6" rx="3" fill="rgba(102,245,220,0.8)"/><rect x="666" y="529" width="17" height="6" rx="3" fill="rgba(102,245,220,0.8)"/><rect x="669" y="405" width="20" height="6" rx="3" fill="rgba(102,245,220,0.8)"/><rect x="607" y="544" width="27" height="6" rx="3" fill="rgba(102,245,220,0.8)"/><rect x="670" y="621" width="31" height="6" rx="3" fill="rgba(102,245,220,0.8)"/><rect x="654" y="379" width="31" height="6" rx="3" fill="rgba(102,245,220,0.8)"/><rect x="670" y="377" width="21" height="6" rx="3" fill="rgba(102,245,220,0.8)"/><rect x="602" y="537" width="32" height="6" rx="3" fill="rgba(102,245,220,0.8)"/><rect x="675" y="479" width="30" height="6" rx="3" fill="rgba(102,245,220,0.8)"/></g><g><rect x="830" y="236" width="118" height="395" rx="10" fill="rgba(10,20,42,0.58)" stroke="rgba(130,190,255,0.45)"/><rect x="874" y="359" width="22" height="6" rx="3" fill="rgba(102,245,220,0.8)"/><rect x="879" y="302" width="19" height="6" rx="3" fill="rgba(102,245,220,0.8)"/><rect x="892" y="386" width="33" height="6" rx="3" fill="rgba(102,245,220,0.8)"/><rect x="897" y="286" width="24" height="6" rx="3" fill="rgba(102,245,220,0.8)"/><rect x="914" y="476" width="18" height="6" rx="3" fill="rgba(102,245,220,0.8)"/><rect x="917" y="402" width="25" height="6" rx="3" fill="rgba(102,245,220,0.8)"/><rect x="882" y="559" width="18" height="6" rx="3" fill="rgba(102,245,220,0.8)"/><rect x="895" y="605" width="20" height="6" rx="3" fill="rgba(102,245,220,0.8)"/><rect x="919" y="566" width="19" height="6" rx="3" fill="rgba(102,245,220,0.8)"/><rect x="901" y="568" width="27" height="6" rx="3" fill="rgba(102,245,220,0.8)"/><rect x="890" y="493" width="25" height="6" rx="3" fill="rgba(102,245,220,0.8)"/></g><g><rect x="802" y="295" width="119" height="340" rx="10" fill="rgba(10,20,42,0.58)" stroke="rgba(130,190,255,0.45)"/><rect x="901" y="547" width="23" height="6" rx="3" fill="rgba(102,245,220,0.8)"/><rect x="896" y="516" width="24" height="6" rx="3" fill="rgba(102,245,220,0.8)"/><rect x="877" y="591" width="33" height="6" rx="3" fill="rgba(102,245,220,0.8)"/><rect x="893" y="438" width="32" height="6" rx="3" fill="rgba(102,245,220,0.8)"/><rect x="859" y="368" width="20" height="6" rx="3" fill="rgba(102,245,220,0.8)"/><rect x="830" y="375" width="34" height="6" rx="3" fill="rgba(102,245,220,0.8)"/><rect x="883" y="510" width="16" height="6" rx="3" fill="rgba(102,245,220,0.8)"/></g><g><rect x="945" y="290" width="115" height="360" rx="10" fill="rgba(10,20,42,0.58)" stroke="rgba(130,190,255,0.45)"/><rect x="977" y="545" width="16" height="6" rx="3" fill="rgba(102,245,220,0.8)"/><rect x="1011" y="353" width="32" height="6" rx="3" fill="rgba(102,245,220,0.8)"/><rect x="964" y="504" width="22" height="6" rx="3" fill="rgba(102,245,220,0.8)"/><rect x="1001" y="335" width="19" height="6" rx="3" fill="rgba(102,245,220,0.8)"/><rect x="990" y="492" width="28" height="6" rx="3" fill="rgba(102,245,220,0.8)"/><rect x="994" y="381" width="16" height="6" rx="3" fill="rgba(102,245,220,0.8)"/><rect x="1011" y="597" width="26" height="6" rx="3" fill="rgba(102,245,220,0.8)"/><rect x="967" y="489" width="22" height="6" rx="3" fill="rgba(102,245,220,0.8)"/><rect x="986" y="583" width="23" height="6" rx="3" fill="rgba(102,245,220,0.8)"/></g><g><rect x="1294" y="184" width="108" height="441" rx="10" fill="rgba(10,20,42,0.58)" stroke="rgba(130,190,255,0.45)"/><rect x="1374" y="354" width="22" height="6" rx="3" fill="rgba(102,245,220,0.8)"/><rect x="1315" y="308" width="16" height="6" rx="3" fill="rgba(102,245,220,0.8)"/><rect x="1369" y="322" width="20" height="6" rx="3" fill="rgba(102,245,220,0.8)"/><rect x="1349" y="336" width="17" height="6" rx="3" fill="rgba(102,245,220,0.8)"/><rect x="1361" y="468" width="26" height="6" rx="3" fill="rgba(102,245,220,0.8)"/><rect x="1343" y="489" width="29" height="6" rx="3" fill="rgba(102,245,220,0.8)"/><rect x="1312" y="306" width="29" height="6" rx="3" fill="rgba(102,245,220,0.8)"/><rect x="1349" y="473" width="31" height="6" rx="3" fill="rgba(102,245,220,0.8)"/><rect x="1353" y="536" width="29" height="6" rx="3" fill="rgba(102,245,220,0.8)"/><rect x="1377" y="557" width="20" height="6" rx="3" fill="rgba(102,245,220,0.8)"/></g></g>
  <g id="scene-sparkles"><circle cx="897" cy="235" r="2.16" fill="rgba(180,240,255,0.38)"/><circle cx="166" cy="285" r="2.66" fill="rgba(180,240,255,0.36)"/><circle cx="331" cy="547" r="2.68" fill="rgba(180,240,255,0.42)"/><circle cx="1133" cy="383" r="2.58" fill="rgba(180,240,255,0.35)"/><circle cx="867" cy="120" r="1.20" fill="rgba(180,240,255,0.37)"/><circle cx="459" cy="563" r="2.58" fill="rgba(180,240,255,0.35)"/><circle cx="1097" cy="241" r="2.49" fill="rgba(180,240,255,0.18)"/><circle cx="193" cy="332" r="3.33" fill="rgba(180,240,255,0.37)"/><circle cx="1044" cy="392" r="2.02" fill="rgba(180,240,255,0.29)"/><circle cx="1032" cy="415" r="2.38" fill="rgba(180,240,255,0.27)"/><circle cx="1030" cy="384" r="1.60" fill="rgba(180,240,255,0.22)"/><circle cx="132" cy="217" r="2.03" fill="rgba(180,240,255,0.44)"/><circle cx="1028" cy="97" r="2.89" fill="rgba(180,240,255,0.37)"/><circle cx="866" cy="247" r="3.38" fill="rgba(180,240,255,0.28)"/><circle cx="51" cy="558" r="3.06" fill="rgba(180,240,255,0.28)"/><circle cx="327" cy="278" r="1.29" fill="rgba(180,240,255,0.20)"/><circle cx="308" cy="253" r="2.10" fill="rgba(180,240,255,0.22)"/><circle cx="919" cy="204" r="2.84" fill="rgba(180,240,255,0.34)"/><circle cx="1016" cy="254" r="1.98" fill="rgba(180,240,255,0.29)"/><circle cx="675" cy="29" r="1.70" fill="rgba(180,240,255,0.19)"/><circle cx="575" cy="167" r="1.67" fill="rgba(180,240,255,0.43)"/><circle cx="485" cy="326" r="2.46" fill="rgba(180,240,255,0.27)"/><circle cx="879" cy="533" r="1.56" fill="rgba(180,240,255,0.22)"/><circle cx="156" cy="142" r="2.03" fill="rgba(180,240,255,0.43)"/><circle cx="344" cy="384" r="2.79" fill="rgba(180,240,255,0.35)"/><circle cx="22" cy="655" r="1.84" fill="rgba(180,240,255,0.42)"/><circle cx="1167" cy="162" r="3.21" fill="rgba(180,240,255,0.33)"/></g>
  <rect width="1200" height="675" fill="rgba(190,220,255,0.06)"/>
  <rect width="1200" height="675" filter="url(#grain-83)"/>
  <rect width="1200" height="675" fill="url(#vignette-83)"/>
  <rect x="20" y="20" width="1160" height="635" rx="32" fill="none" stroke="rgba(155,220,255,0.24)"/>
</svg>