<?xml version="1.0" encoding="UTF-8"?>
<svg xmlns="http://www.w3.org/2000/svg" width="1200" height="675" viewBox="0 0 1200 675" role="img" aria-label="AIGC fallback cover 56" data-scene="scene-6">
  <defs>
    <linearGradient id="bg-56" x1="0" y1="0" x2="1" y2="1">
      <stop offset="0%" stop-color="hsl(169, 82%, 16%)"/>
      <stop offset="52%" stop-color="hsl(234, 84%, 23%)"/>
      <stop offset="100%" stop-color="hsl(334, 78%, 12%)"/>
    </linearGradient>
    <filter id="blur-56" x="-25%" y="-25%" width="150%" height="150%">
      <feGaussianBlur stdDeviation="26"/>
    </filter>
    <filter id="soft-56" x="-25%" y="-25%" width="150%" height="150%">
      <feGaussianBlur stdDeviation="10"/>
    </filter>
    <filter id="grain-56" x="0%" y="0%" width="100%" height="100%">
      <feTurbulence type="fractalNoise" baseFrequency="0.9" numOctaves="2" seed="728" stitchTiles="stitch"/>
      <feColorMatrix type="saturate" values="0"/>
      <feComponentTransfer>
        <feFuncA type="table" tableValues="0 0.05"/>
      </feComponentTransfer>
    </filter>
    <radialGradient id="vignette-56" cx="50%" cy="45%" r="70%">
      <stop offset="60%" stop-color="rgba(0,0,0,0)"/>
      <stop offset="100%" stop-color="rgba(0,0,0,0.45)"/>
    </radialGradient>
  </defs>

  <rect width="1200" height="675" fill="url(#bg-56)"/>
  <circle cx="302" cy="321" r="190" fill="hsl(169, 92%, 62%)" opacity="0.13" filter="url(#blur-56)"/><circle cx="486" cy="597" r="148" fill="hsl(195, 92%, 62%)" opacity="0.12" filter="url(#blur-56)"/><circle cx="791" cy="225" r="99" fill="hsl(221, 92%, 62%)" opacity="0.14" filter="url(#blur-56)"/>
  <circle cx="360" cy="306" r="30" fill="rgba(210,240,255,0.06)" filter="url(#soft-56)"/><circle cx="605" cy="80" r="68" fill="rgba(210,240,255,0.08)" filter="url(#soft-56)"/><circle cx="936" cy="31" r="54" fill="rgba(210,240,255,0.08)" filter="url(#soft-56)"/><circle cx="149" cy="323" r="67" fill="rgba(210,240,255,0.10)" filter="url(#soft-56)"/><circle cx="927" cy="177" r="44" fill="rgba(210,240,255,0.09)" filter="url(#soft-56)"/><circle cx="897" cy="97" r="63" fill="rgba(210,240,255,0.15)" filter="url(#soft-56)"/><circle cx="190" cy="68" r="61" fill="rgba(210,240,255,0.07)" filter="url(#soft-56)"/><circle cx="572" cy="333" r="46" fill="rgba(210,240,255,0.12)" filter="url(#soft-56)"/>
  <polygon points="0,675 1200,675 1105,459 95,459" fill="rgba(8,16,28,0.35)"/>
  <g id="scene-cloud-pipeline"><g><circle cx="396" cy="204" r="32" fill="rgba(180,220,255,0.42)"/><circle cx="445" cy="201" r="23" fill="rgba(180,220,255,0.36)"/><rect x="374" y="212" width="85" height="22" rx="11" fill="rgba(170,220,255,0.3)"/></g><g><circle cx="297" cy="225" r="36" fill="rgba(180,220,255,0.42)"/><circle cx="347" cy="232" r="22" fill="rgba(180,220,255,0.36)"/><rect x="275" y="233" width="106" height="22" rx="11" fill="rgba(170,220,255,0.3)"/></g><g><circle cx="543" cy="126" r="30" fill="rgba(180,220,255,0.42)"/><circle cx="577" cy="132" r="23" fill="rgba(180,220,255,0.36)"/><rect x="521" y="134" width="91" height="22" rx="11" fill="rgba(170,220,255,0.3)"/></g><path d="M 276 236 h 124 v 71 h 55" fill="none" stroke="rgba(120,255,210,0.34)" stroke-width="7" stroke-linecap="round"/><path d="M 481 425 h 98 v 84 h 94" fill="none" stroke="rgba(120,255,210,0.34)" stroke-width="8" stroke-linecap="round"/><path d="M 685 521 h 46 v 74 h 76" fill="none" stroke="rgba(120,255,210,0.34)" stroke-width="4" stroke-linecap="round"/><path d="M 1015 269 h 127 v 23 h -124" fill="none" stroke="rgba(120,255,210,0.34)" stroke-width="5" stroke-linecap="round"/><path d="M 701 305 h 83 v 34 h 71" fill="none" stroke="rgba(120,255,210,0.34)" stroke-width="6" stroke-linecap="round"/><path d="M 808 535 h 109 v 65 h -136" fill="none" stroke="rgba(120,255,210,0.34)" stroke-width="7" stroke-linecap="round"/><path d="M 175 129 h 72 v 74 h -33" fill="none" stroke="rgba(120,255,210,0.34)" stroke-width="6" stroke-linecap="round"/><path d="M 688 172 h 136 v 92 h -72" fill="none" stroke="rgba(120,255,210,0.34)" stroke-width="6" stroke-linecap="round"/><path d="M 458 264 h 86 v 98 h 108" fill="none" stroke="rgba(120,255,210,0.34)" stroke-width="5" stroke-linecap="round"/><path d="M 1067 482 h 80 v 32 h -22" fill="none" stroke="rgba(120,255,210,0.34)" stroke-width="7" stroke-linecap="round"/></g>
  <g id="scene-sparkles"><circle cx="173" cy="184" r="2.41" fill="rgba(180,240,255,0.24)"/><circle cx="1142" cy="572" r="1.99" fill="rgba(180,240,255,0.28)"/><circle cx="832" cy="497" r="3.19" fill="rgba(180,240,255,0.30)"/><circle cx="478" cy="430" r="3.10" fill="rgba(180,240,255,0.23)"/><circle cx="574" cy="411" r="3.01" fill="rgba(180,240,255,0.18)"/><circle cx="854" cy="264" r="2.82" fill="rgba(180,240,255,0.17)"/><circle cx="574" cy="283" r="1.17" fill="rgba(180,240,255,0.15)"/><circle cx="504" cy="131" r="1.74" fill="rgba(180,240,255,0.31)"/><circle cx="567" cy="311" r="3.16" fill="rgba(180,240,255,0.34)"/><circle cx="545" cy="69" r="2.46" fill="rgba(180,240,255,0.15)"/><circle cx="1120" cy="614" r="2.54" fill="rgba(180,240,255,0.28)"/><circle cx="886" cy="149" r="2.41" fill="rgba(180,240,255,0.19)"/><circle cx="932" cy="576" r="2.71" fill="rgba(180,240,255,0.32)"/><circle cx="348" cy="581" r="3.39" fill="rgba(180,240,255,0.36)"/><circle cx="386" cy="261" r="2.15" fill="rgba(180,240,255,0.29)"/><circle cx="64" cy="541" r="2.99" fill="rgba(180,240,255,0.39)"/><circle cx="838" cy="40" r="1.55" fill="rgba(180,240,255,0.28)"/><circle cx="161" cy="127" r="1.98" fill="rgba(180,240,255,0.28)"/><circle cx="269" cy="140" r="3.11" fill="rgba(180,240,255,0.21)"/><circle cx="49" cy="447" r="3.36" fill="rgba(180,240,255,0.28)"/><circle cx="226" cy="230" r="1.84" fill="rgba(180,240,255,0.32)"/></g>
  <rect width="1200" height="675" fill="rgba(190,220,255,0.06)"/>
  <rect width="1200" height="675" filter="url(#grain-56)"/>
  <rect width="1200" height="675" fill="url(#vignette-56)"/>
  <rect x="20" y="20" width="1160" height="635" rx="32" fill="none" stroke="rgba(155,220,255,0.24)"/>
</svg>