<?xml version="1.0" encoding="UTF-8"?>
<svg xmlns="http://www.w3.org/2000/svg" width="1200" height="675" viewBox="0 0 1200 675" role="img" aria-label="AIGC fallback cover 27" data-scene="scene-7">
  <defs>
    <linearGradient id="bg-27" x1="0" y1="0" x2="1" y2="1">
      <stop offset="0%" stop-color="hsl(46, 82%, 16%)"/>
      <stop offset="52%" stop-color="hsl(105, 84%, 23%)"/>
      <stop offset="100%" stop-color="hsl(235, 78%, 12%)"/>
    </linearGradient>
    <filter id="blur-27" x="-25%" y="-25%" width="150%" height="150%">
      <feGaussianBlur stdDeviation="26"/>
    </filter>
    <filter id="soft-27" x="-25%" y="-25%" width="150%" height="150%">
      <feGaussianBlur stdDeviation="10"/>
    </filter>
    <filter id="grain-27" x="0%" y="0%" width="100%" height="100%">
      <feTurbulence type="fractalNoise" baseFrequency="0.9" numOctaves="2" seed="351" stitchTiles="stitch"/>
      <feColorMatrix type="saturate" values="0"/>
      <feComponentTransfer>
        <feFuncA type="table" tableValues="0 0.05"/>
      </feComponentTransfer>
    </filter>
    <radialGradient id="vignette-27" cx="50%" cy="45%" r="70%">
      <stop offset="60%" stop-color="rgba(0,0,0,0)"/>
      <stop offset="100%" stop-color="rgba(0,0,0,0.45)"/>
    </radialGradient>
  </defs>

  <rect width="1200" height="675" fill="url(#bg-27)"/>
  <circle cx="1108" cy="196" r="160" fill="hsl(46, 92%, 62%)" opacity="0.08" filter="url(#blur-27)"/><circle cx="787" cy="519" r="133" fill="hsl(72, 92%, 62%)" opacity="0.17" filter="url(#blur-27)"/><circle cx="673" cy="508" r="144" fill="hsl(98, 92%, 62%)" opacity="0.10" filter="url(#blur-27)"/>
  <circle cx="231" cy="268" r="44" fill="rgba(210,240,255,0.13)" filter="url(#soft-27)"/><circle cx="537" cy="196" r="51" fill="rgba(210,240,255,0.10)" filter="url(#soft-27)"/><circle cx="895" cy="197" r="22" fill="rgba(210,240,255,0.07)" filter="url(#soft-27)"/><circle cx="127" cy="98" r="26" fill="rgba(210,240,255,0.14)" filter="url(#soft-27)"/><circle cx="549" cy="211" r="57" fill="rgba(210,240,255,0.08)" filter="url(#soft-27)"/><circle cx="1063" cy="280" r="20" fill="rgba(210,240,255,0.14)" filter="url(#soft-27)"/><circle cx="410" cy="130" r="64" fill="rgba(210,240,255,0.14)" filter="url(#soft-27)"/><circle cx="822" cy="59" r="35" fill="rgba(210,240,255,0.11)" filter="url(#soft-27)"/><circle cx="678" cy="256" r="42" fill="rgba(210,240,255,0.16)" filter="url(#soft-27)"/><circle cx="1001" cy="33" r="24" fill="rgba(210,240,255,0.12)" filter="url(#soft-27)"/>
  <polygon points="0,675 1200,675 1212,447 -12,447" fill="rgba(8,16,28,0.35)"/>
  <g id="scene-orbits"><ellipse cx="520" cy="334" rx="139" ry="85" fill="none" stroke="rgba(140,230,255,0.28)" stroke-width="2" transform="rotate(23 520 334)"/><ellipse cx="520" cy="334" rx="164" ry="96" fill="none" stroke="rgba(140,230,255,0.28)" stroke-width="2" transform="rotate(7 520 334)"/><ellipse cx="520" cy="334" rx="229" ry="104" fill="none" stroke="rgba(140,230,255,0.28)" stroke-width="2" transform="rotate(25 520 334)"/><ellipse cx="520" cy="334" rx="266" ry="177" fill="none" stroke="rgba(140,230,255,0.28)" stroke-width="2" transform="rotate(23 520 334)"/><circle cx="650" cy="390" r="10" fill="hsl(46, 88%, 72%)" opacity="0.85"/><circle cx="680" cy="350" r="12" fill="hsl(58, 88%, 72%)" opacity="0.85"/><circle cx="664" cy="456" r="12" fill="hsl(70, 88%, 72%)" opacity="0.85"/><circle cx="495" cy="487" r="9" fill="hsl(82, 88%, 72%)" opacity="0.85"/><circle cx="696" cy="304" r="9" fill="hsl(94, 88%, 72%)" opacity="0.85"/><circle cx="731" cy="388" r="6" fill="hsl(106, 88%, 72%)" opacity="0.85"/><circle cx="384" cy="222" r="9" fill="hsl(118, 88%, 72%)" opacity="0.85"/><circle cx="606" cy="189" r="7" fill="hsl(130, 88%, 72%)" opacity="0.85"/></g>
  <g id="scene-sparkles"><circle cx="430" cy="298" r="3.20" fill="rgba(180,240,255,0.32)"/><circle cx="671" cy="515" r="3.18" fill="rgba(180,240,255,0.43)"/><circle cx="858" cy="516" r="2.21" fill="rgba(180,240,255,0.41)"/><circle cx="497" cy="136" r="1.38" fill="rgba(180,240,255,0.29)"/><circle cx="589" cy="156" r="1.20" fill="rgba(180,240,255,0.40)"/><circle cx="629" cy="138" r="3.01" fill="rgba(180,240,255,0.27)"/><circle cx="497" cy="285" r="1.47" fill="rgba(180,240,255,0.20)"/><circle cx="1077" cy="60" r="2.98" fill="rgba(180,240,255,0.17)"/><circle cx="187" cy="85" r="1.11" fill="rgba(180,240,255,0.39)"/><circle cx="312" cy="392" r="2.34" fill="rgba(180,240,255,0.22)"/><circle cx="887" cy="30" r="2.72" fill="rgba(180,240,255,0.31)"/><circle cx="815" cy="79" r="1.72" fill="rgba(180,240,255,0.15)"/><circle cx="653" cy="66" r="2.03" fill="rgba(180,240,255,0.30)"/><circle cx="744" cy="452" r="1.53" fill="rgba(180,240,255,0.41)"/><circle cx="876" cy="22" r="3.21" fill="rgba(180,240,255,0.27)"/><circle cx="786" cy="190" r="1.94" fill="rgba(180,240,255,0.26)"/></g>
  <rect width="1200" height="675" fill="rgba(190,220,255,0.06)"/>
  <rect width="1200" height="675" filter="url(#grain-27)"/>
  <rect width="1200" height="675" fill="url(#vignette-27)"/>
  <rect x="20" y="20" width="1160" height="635" rx="32" fill="none" stroke="rgba(155,220,255,0.24)"/>
</svg>