<?xml version="1.0" encoding="UTF-8"?>
<svg xmlns="http://www.w3.org/2000/svg" width="1200" height="675" viewBox="0 0 1200 675" role="img" aria-label="AIGC fallback cover 33" data-scene="scene-3">
  <defs>
    <linearGradient id="bg-33" x1="0" y1="0" x2="1" y2="1">
      <stop offset="0%" stop-color="hsl(307, 82%, 16%)"/>
      <stop offset="52%" stop-color="hsl(344, 84%, 23%)"/>
      <stop offset="100%" stop-color="hsl(90, 78%, 12%)"/>
    </linearGradient>
    <filter id="blur-33" x="-25%" y="-25%" width="150%" height="150%">
      <feGaussianBlur stdDeviation="26"/>
    </filter>
    <filter id="soft-33" x="-25%" y="-25%" width="150%" height="150%">
      <feGaussianBlur stdDeviation="10"/>
    </filter>
    <filter id="grain-33" x="0%" y="0%" width="100%" height="100%">
      <feTurbulence type="fractalNoise" baseFrequency="0.9" numOctaves="2" seed="429" stitchTiles="stitch"/>
      <feColorMatrix type="saturate" values="0"/>
      <feComponentTransfer>
        <feFuncA type="table" tableValues="0 0.05"/>
      </feComponentTransfer>
    </filter>
    <radialGradient id="vignette-33" cx="50%" cy="45%" r="70%">
      <stop offset="60%" stop-color="rgba(0,0,0,0)"/>
      <stop offset="100%" stop-color="rgba(0,0,0,0.45)"/>
    </radialGradient>
  </defs>

  <rect width="1200" height="675" fill="url(#bg-33)"/>
  <circle cx="227" cy="401" r="125" fill="hsl(307, 92%, 62%)" opacity="0.13" filter="url(#blur-33)"/><circle cx="384" cy="242" r="139" fill="hsl(333, 92%, 62%)" opacity="0.17" filter="url(#blur-33)"/><circle cx="721" cy="382" r="125" fill="hsl(359, 92%, 62%)" opacity="0.15" filter="url(#blur-33)"/>
  <circle cx="444" cy="260" r="61" fill="rgba(210,240,255,0.14)" filter="url(#soft-33)"/><circle cx="1069" cy="89" r="68" fill="rgba(210,240,255,0.13)" filter="url(#soft-33)"/><circle cx="99" cy="326" r="61" fill="rgba(210,240,255,0.12)" filter="url(#soft-33)"/><circle cx="1079" cy="54" r="69" fill="rgba(210,240,255,0.12)" filter="url(#soft-33)"/><circle cx="612" cy="282" r="70" fill="rgba(210,240,255,0.09)" filter="url(#soft-33)"/><circle cx="116" cy="203" r="46" fill="rgba(210,240,255,0.16)" filter="url(#soft-33)"/><circle cx="546" cy="389" r="42" fill="rgba(210,240,255,0.14)" filter="url(#soft-33)"/><circle cx="902" cy="299" r="61" fill="rgba(210,240,255,0.06)" filter="url(#soft-33)"/>
  <polygon points="0,675 1200,675 1237,369 -37,369" fill="rgba(8,16,28,0.35)"/>
  <g id="scene-datacenter"><g><rect x="70" y="192" width="101" height="447" rx="10" fill="rgba(10,20,42,0.58)" stroke="rgba(130,190,255,0.45)"/><rect x="98" y="271" width="23" height="6" rx="3" fill="rgba(102,245,220,0.8)"/><rect x="131" y="479" width="23" height="6" rx="3" fill="rgba(102,245,220,0.8)"/><rect x="137" y="480" width="33" height="6" rx="3" fill="rgba(102,245,220,0.8)"/><rect x="107" y="467" width="30" height="6" rx="3" fill="rgba(102,245,220,0.8)"/><rect x="131" y="270" width="30" height="6" rx="3" fill="rgba(102,245,220,0.8)"/><rect x="93" y="294" width="17" height="6" rx="3" fill="rgba(102,245,220,0.8)"/></g><g><rect x="204" y="312" width="120" height="337" rx="10" fill="rgba(10,20,42,0.58)" stroke="rgba(130,190,255,0.45)"/><rect x="255" y="498" width="32" height="6" rx="3" fill="rgba(102,245,220,0.8)"/><rect x="301" y="406" width="21" height="6" rx="3" fill="rgba(102,245,220,0.8)"/><rect x="245" y="546" width="31" height="6" rx="3" fill="rgba(102,245,220,0.8)"/><rect x="297" y="462" width="19" height="6" rx="3" fill="rgba(102,245,220,0.8)"/><rect x="303" y="420" width="34" height="6" rx="3" fill="rgba(102,245,220,0.8)"/><rect x="271" y="482" width="22" height="6" rx="3" fill="rgba(102,245,220,0.8)"/><rect x="264" y="576" width="27" height="6" rx="3" fill="rgba(102,245,220,0.8)"/></g><g><rect x="328" y="308" width="109" height="327" rx="10" fill="rgba(10,20,42,0.58)" stroke="rgba(130,190,255,0.45)"/><rect x="387" y="558" width="34" height="6" rx="3" fill="rgba(102,245,220,0.8)"/><rect x="383" y="588" width="28" height="6" rx="3" fill="rgba(102,245,220,0.8)"/><rect x="388" y="527" width="25" height="6" rx="3" fill="rgba(102,245,220,0.8)"/><rect x="358" y="428" width="18" height="6" rx="3" fill="rgba(102,245,220,0.8)"/><rect x="351" y="343" width="32" height="6" rx="3" fill="rgba(102,245,220,0.8)"/></g><g><rect x="493" y="238" width="97" height="405" rx="10" fill="rgba(10,20,42,0.58)" stroke="rgba(130,190,255,0.45)"/><rect x="572" y="289" width="29" height="6" rx="3" fill="rgba(102,245,220,0.8)"/><rect x="527" y="533" width="22" height="6" rx="3" fill="rgba(102,245,220,0.8)"/><rect x="518" y="500" width="23" height="6" rx="3" fill="rgba(102,245,220,0.8)"/><rect x="549" y="613" width="21" height="6" rx="3" fill="rgba(102,245,220,0.8)"/><rect x="555" y="465" width="21" height="6" rx="3" fill="rgba(102,245,220,0.8)"/><rect x="517" y="385" width="33" height="6" rx="3" fill="rgba(102,245,220,0.8)"/><rect x="517" y="610" width="24" height="6" rx="3" fill="rgba(102,245,220,0.8)"/><rect x="562" y="488" width="31" height="6" rx="3" fill="rgba(102,245,220,0.8)"/><rect x="541" y="293" width="21" height="6" rx="3" fill="rgba(102,245,220,0.8)"/><rect x="567" y="319" width="23" height="6" rx="3" fill="rgba(102,245,220,0.8)"/></g><g><rect x="690" y="213" width="124" height="415" rx="10" fill="rgba(10,20,42,0.58)" stroke="rgba(130,190,255,0.45)"/><rect x="752" y="513" width="33" height="6" rx="3" fill="rgba(102,245,220,0.8)"/><rect x="709" y="362" width="30" height="6" rx="3" fill="rgba(102,245,220,0.8)"/><rect x="749" y="578" width="30" height="6" rx="3" fill="rgba(102,245,220,0.8)"/><rect x="724" y="450" width="34" height="6" rx="3" fill="rgba(102,245,220,0.8)"/><rect x="769" y="272" width="34" height="6" rx="3" fill="rgba(102,245,220,0.8)"/><rect x="755" y="449" width="34" height="6" rx="3" fill="rgba(102,245,220,0.8)"/><rect x="779" y="515" width="24" height="6" rx="3" fill="rgba(102,245,220,0.8)"/><rect x="740" y="584" width="31" height="6" rx="3" fill="rgba(102,245,220,0.8)"/><rect x="726" y="525" width="17" height="6" rx="3" fill="rgba(102,245,220,0.8)"/><rect x="749" y="295" width="18" height="6" rx="3" fill="rgba(102,245,220,0.8)"/><rect x="758" y="289" width="26" height="6" rx="3" fill="rgba(102,245,220,0.8)"/></g><g><rect x="730" y="235" width="125" height="402" rx="10" fill="rgba(10,20,42,0.58)" stroke="rgba(130,190,255,0.45)"/><rect x="761" y="310" width="32" height="6" rx="3" fill="rgba(102,245,220,0.8)"/><rect x="816" y="458" width="26" height="6" rx="3" fill="rgba(102,245,220,0.8)"/><rect x="748" y="358" width="28" height="6" rx="3" fill="rgba(102,245,220,0.8)"/><rect x="775" y="425" width="27" height="6" rx="3" fill="rgba(102,245,220,0.8)"/><rect x="779" y="327" width="33" height="6" rx="3" fill="rgba(102,245,220,0.8)"/><rect x="833" y="367" width="34" height="6" rx="3" fill="rgba(102,245,220,0.8)"/></g><g><rect x="1054" y="235" width="125" height="399" rx="10" fill="rgba(10,20,42,0.58)" stroke="rgba(130,190,255,0.45)"/><rect x="1072" y="383" width="29" height="6" rx="3" fill="rgba(102,245,220,0.8)"/><rect x="1074" y="290" width="17" height="6" rx="3" fill="rgba(102,245,220,0.8)"/><rect x="1108" y="491" width="31" height="6" rx="3" fill="rgba(102,245,220,0.8)"/><rect x="1146" y="307" width="32" height="6" rx="3" fill="rgba(102,245,220,0.8)"/><rect x="1078" y="413" width="25" height="6" rx="3" fill="rgba(102,245,220,0.8)"/><rect x="1116" y="379" width="27" height="6" rx="3" fill="rgba(102,245,220,0.8)"/><rect x="1135" y="425" width="20" height="6" rx="3" fill="rgba(102,245,220,0.8)"/><rect x="1109" y="375" width="18" height="6" rx="3" fill="rgba(102,245,220,0.8)"/><rect x="1098" y="551" width="34" height="6" rx="3" fill="rgba(102,245,220,0.8)"/><rect x="1079" y="444" width="17" height="6" rx="3" fill="rgba(102,245,220,0.8)"/><rect x="1140" y="457" width="33" height="6" rx="3" fill="rgba(102,245,220,0.8)"/></g><g><rect x="1064" y="182" width="106" height="447" rx="10" fill="rgba(10,20,42,0.58)" stroke="rgba(130,190,255,0.45)"/><rect x="1147" y="557" width="19" height="6" rx="3" fill="rgba(102,245,220,0.8)"/><rect x="1138" y="298" width="27" height="6" rx="3" fill="rgba(102,245,220,0.8)"/><rect x="1082" y="508" width="31" height="6" rx="3" fill="rgba(102,245,220,0.8)"/><rect x="1123" y="281" width="28" height="6" rx="3" fill="rgba(102,245,220,0.8)"/><rect x="1130" y="230" width="26" height="6" rx="3" fill="rgba(102,245,220,0.8)"/><rect x="1140" y="233" width="17" height="6" rx="3" fill="rgba(102,245,220,0.8)"/><rect x="1135" y="299" width="31" height="6" rx="3" fill="rgba(102,245,220,0.8)"/><rect x="1109" y="445" width="20" height="6" rx="3" fill="rgba(102,245,220,0.8)"/><rect x="1101" y="384" width="27" height="6" rx="3" fill="rgba(102,245,220,0.8)"/></g></g>
  <g id="scene-sparkles"><circle cx="186" cy="140" r="2.75" fill="rgba(180,240,255,0.26)"/><circle cx="769" cy="493" r="1.11" fill="rgba(180,240,255,0.34)"/><circle cx="51" cy="371" r="2.81" fill="rgba(180,240,255,0.21)"/><circle cx="718" cy="114" r="3.35" fill="rgba(180,240,255,0.41)"/><circle cx="592" cy="315" r="1.53" fill="rgba(180,240,255,0.37)"/><circle cx="722" cy="325" r="1.98" fill="rgba(180,240,255,0.17)"/><circle cx="971" cy="22" r="3.36" fill="rgba(180,240,255,0.33)"/><circle cx="1051" cy="386" r="2.82" fill="rgba(180,240,255,0.30)"/><circle cx="459" cy="180" r="1.26" fill="rgba(180,240,255,0.38)"/><circle cx="103" cy="447" r="2.90" fill="rgba(180,240,255,0.40)"/><circle cx="839" cy="124" r="1.78" fill="rgba(180,240,255,0.36)"/><circle cx="1003" cy="450" r="2.36" fill="rgba(180,240,255,0.35)"/><circle cx="516" cy="425" r="3.26" fill="rgba(180,240,255,0.16)"/><circle cx="172" cy="90" r="1.83" fill="rgba(180,240,255,0.35)"/><circle cx="744" cy="364" r="1.69" fill="rgba(180,240,255,0.44)"/><circle cx="729" cy="538" r="2.49" fill="rgba(180,240,255,0.41)"/><circle cx="692" cy="585" r="2.04" fill="rgba(180,240,255,0.36)"/><circle cx="668" cy="607" r="1.66" fill="rgba(180,240,255,0.17)"/><circle cx="865" cy="355" r="2.12" fill="rgba(180,240,255,0.20)"/><circle cx="485" cy="230" r="2.98" fill="rgba(180,240,255,0.35)"/><circle cx="318" cy="558" r="1.94" fill="rgba(180,240,255,0.23)"/><circle cx="705" cy="144" r="1.10" fill="rgba(180,240,255,0.27)"/><circle cx="691" cy="190" r="1.95" fill="rgba(180,240,255,0.34)"/><circle cx="924" cy="400" r="2.76" fill="rgba(180,240,255,0.45)"/></g>
  <rect width="1200" height="675" fill="rgba(190,220,255,0.06)"/>
  <rect width="1200" height="675" filter="url(#grain-33)"/>
  <rect width="1200" height="675" fill="url(#vignette-33)"/>
  <rect x="20" y="20" width="1160" height="635" rx="32" fill="none" stroke="rgba(155,220,255,0.24)"/>
</svg>