<?xml version="1.0" encoding="UTF-8"?>
<svg xmlns="http://www.w3.org/2000/svg" width="1200" height="675" viewBox="0 0 1200 675" role="img" aria-label="AIGC fallback cover 53" data-scene="scene-3">
  <defs>
    <linearGradient id="bg-53" x1="0" y1="0" x2="1" y2="1">
      <stop offset="0%" stop-color="hsl(49, 82%, 16%)"/>
      <stop offset="52%" stop-color="hsl(113, 84%, 23%)"/>
      <stop offset="100%" stop-color="hsl(185, 78%, 12%)"/>
    </linearGradient>
    <filter id="blur-53" x="-25%" y="-25%" width="150%" height="150%">
      <feGaussianBlur stdDeviation="26"/>
    </filter>
    <filter id="soft-53" x="-25%" y="-25%" width="150%" height="150%">
      <feGaussianBlur stdDeviation="10"/>
    </filter>
    <filter id="grain-53" x="0%" y="0%" width="100%" height="100%">
      <feTurbulence type="fractalNoise" baseFrequency="0.9" numOctaves="2" seed="689" stitchTiles="stitch"/>
      <feColorMatrix type="saturate" values="0"/>
      <feComponentTransfer>
        <feFuncA type="table" tableValues="0 0.05"/>
      </feComponentTransfer>
    </filter>
    <radialGradient id="vignette-53" cx="50%" cy="45%" r="70%">
      <stop offset="60%" stop-color="rgba(0,0,0,0)"/>
      <stop offset="100%" stop-color="rgba(0,0,0,0.45)"/>
    </radialGradient>
  </defs>

  <rect width="1200" height="675" fill="url(#bg-53)"/>
  <circle cx="1039" cy="208" r="122" fill="hsl(49, 92%, 62%)" opacity="0.09" filter="url(#blur-53)"/><circle cx="861" cy="142" r="188" fill="hsl(75, 92%, 62%)" opacity="0.09" filter="url(#blur-53)"/><circle cx="501" cy="99" r="93" fill="hsl(101, 92%, 62%)" opacity="0.08" filter="url(#blur-53)"/>
  <circle cx="946" cy="289" r="37" fill="rgba(210,240,255,0.13)" filter="url(#soft-53)"/><circle cx="76" cy="165" r="34" fill="rgba(210,240,255,0.15)" filter="url(#soft-53)"/><circle cx="591" cy="459" r="52" fill="rgba(210,240,255,0.08)" filter="url(#soft-53)"/><circle cx="519" cy="59" r="66" fill="rgba(210,240,255,0.08)" filter="url(#soft-53)"/><circle cx="360" cy="416" r="24" fill="rgba(210,240,255,0.09)" filter="url(#soft-53)"/><circle cx="1034" cy="135" r="34" fill="rgba(210,240,255,0.07)" filter="url(#soft-53)"/><circle cx="1031" cy="442" r="47" fill="rgba(210,240,255,0.10)" filter="url(#soft-53)"/><circle cx="187" cy="351" r="45" fill="rgba(210,240,255,0.13)" filter="url(#soft-53)"/><circle cx="385" cy="141" r="22" fill="rgba(210,240,255,0.16)" filter="url(#soft-53)"/>
  <polygon points="0,675 1200,675 1082,377 118,377" fill="rgba(8,16,28,0.35)"/>
  <g id="scene-datacenter"><g><rect x="70" y="271" width="91" height="377" rx="10" fill="rgba(10,20,42,0.58)" stroke="rgba(130,190,255,0.45)"/><rect x="95" y="431" width="24" height="6" rx="3" fill="rgba(102,245,220,0.8)"/><rect x="115" y="439" width="28" height="6" rx="3" fill="rgba(102,245,220,0.8)"/><rect x="112" y="554" width="28" height="6" rx="3" fill="rgba(102,245,220,0.8)"/><rect x="131" y="558" width="31" height="6" rx="3" fill="rgba(102,245,220,0.8)"/><rect x="114" y="534" width="21" height="6" rx="3" fill="rgba(102,245,220,0.8)"/><rect x="117" y="365" width="20" height="6" rx="3" fill="rgba(102,245,220,0.8)"/><rect x="100" y="423" width="26" height="6" rx="3" fill="rgba(102,245,220,0.8)"/><rect x="137" y="437" width="33" height="6" rx="3" fill="rgba(102,245,220,0.8)"/><rect x="109" y="472" width="17" height="6" rx="3" fill="rgba(102,245,220,0.8)"/></g><g><rect x="204" y="196" width="90" height="440" rx="10" fill="rgba(10,20,42,0.58)" stroke="rgba(130,190,255,0.45)"/><rect x="261" y="323" width="33" height="6" rx="3" fill="rgba(102,245,220,0.8)"/><rect x="267" y="521" width="32" height="6" rx="3" fill="rgba(102,245,220,0.8)"/><rect x="226" y="588" width="31" height="6" rx="3" fill="rgba(102,245,220,0.8)"/><rect x="267" y="550" width="21" height="6" rx="3" fill="rgba(102,245,220,0.8)"/><rect x="270" y="264" width="27" height="6" rx="3" fill="rgba(102,245,220,0.8)"/><rect x="231" y="574" width="19" height="6" rx="3" fill="rgba(102,245,220,0.8)"/><rect x="229" y="496" width="17" height="6" rx="3" fill="rgba(102,245,220,0.8)"/><rect x="223" y="382" width="20" height="6" rx="3" fill="rgba(102,245,220,0.8)"/><rect x="229" y="568" width="16" height="6" rx="3" fill="rgba(102,245,220,0.8)"/></g><g><rect x="332" y="318" width="102" height="311" rx="10" fill="rgba(10,20,42,0.58)" stroke="rgba(130,190,255,0.45)"/><rect x="355" y="487" width="29" height="6" rx="3" fill="rgba(102,245,220,0.8)"/><rect x="386" y="409" width="19" height="6" rx="3" fill="rgba(102,245,220,0.8)"/><rect x="405" y="602" width="28" height="6" rx="3" fill="rgba(102,245,220,0.8)"/><rect x="359" y="371" width="32" height="6" rx="3" fill="rgba(102,245,220,0.8)"/><rect x="402" y="445" width="27" height="6" rx="3" fill="rgba(102,245,220,0.8)"/><rect x="350" y="458" width="23" height="6" rx="3" fill="rgba(102,245,220,0.8)"/><rect x="355" y="574" width="18" height="6" rx="3" fill="rgba(102,245,220,0.8)"/><rect x="387" y="372" width="20" height="6" rx="3" fill="rgba(102,245,220,0.8)"/><rect x="391" y="565" width="34" height="6" rx="3" fill="rgba(102,245,220,0.8)"/></g><g><rect x="544" y="320" width="98" height="325" rx="10" fill="rgba(10,20,42,0.58)" stroke="rgba(130,190,255,0.45)"/><rect x="591" y="465" width="17" height="6" rx="3" fill="rgba(102,245,220,0.8)"/><rect x="597" y="398" width="24" height="6" rx="3" fill="rgba(102,245,220,0.8)"/><rect x="566" y="556" width="19" height="6" rx="3" fill="rgba(102,245,220,0.8)"/><rect x="565" y="350" width="31" height="6" rx="3" fill="rgba(102,245,220,0.8)"/><rect x="619" y="584" width="28" height="6" rx="3" fill="rgba(102,245,220,0.8)"/></g><g><rect x="610" y="249" width="90" height="380" rx="10" fill="rgba(10,20,42,0.58)" stroke="rgba(130,190,255,0.45)"/><rect x="635" y="287" width="29" height="6" rx="3" fill="rgba(102,245,220,0.8)"/><rect x="660" y="323" width="22" height="6" rx="3" fill="rgba(102,245,220,0.8)"/><rect x="659" y="397" width="34" height="6" rx="3" fill="rgba(102,245,220,0.8)"/><rect x="653" y="452" width="25" height="6" rx="3" fill="rgba(102,245,220,0.8)"/><rect x="665" y="516" width="21" height="6" rx="3" fill="rgba(102,245,220,0.8)"/><rect x="639" y="566" width="21" height="6" rx="3" fill="rgba(102,245,220,0.8)"/><rect x="676" y="509" width="23" height="6" rx="3" fill="rgba(102,245,220,0.8)"/><rect x="650" y="288" width="33" height="6" rx="3" fill="rgba(102,245,220,0.8)"/><rect x="669" y="551" width="16" height="6" rx="3" fill="rgba(102,245,220,0.8)"/><rect x="648" y="557" width="22" height="6" rx="3" fill="rgba(102,245,220,0.8)"/><rect x="680" y="440" width="23" height="6" rx="3" fill="rgba(102,245,220,0.8)"/></g><g><rect x="895" y="162" width="98" height="467" rx="10" fill="rgba(10,20,42,0.58)" stroke="rgba(130,190,255,0.45)"/><rect x="915" y="444" width="19" height="6" rx="3" fill="rgba(102,245,220,0.8)"/><rect x="930" y="278" width="29" height="6" rx="3" fill="rgba(102,245,220,0.8)"/><rect x="919" y="525" width="34" height="6" rx="3" fill="rgba(102,245,220,0.8)"/><rect x="921" y="455" width="29" height="6" rx="3" fill="rgba(102,245,220,0.8)"/><rect x="973" y="393" width="25" height="6" rx="3" fill="rgba(102,245,220,0.8)"/></g><g><rect x="1042" y="174" width="104" height="464" rx="10" fill="rgba(10,20,42,0.58)" stroke="rgba(130,190,255,0.45)"/><rect x="1095" y="216" width="28" height="6" rx="3" fill="rgba(102,245,220,0.8)"/><rect x="1105" y="269" width="25" height="6" rx="3" fill="rgba(102,245,220,0.8)"/><rect x="1083" y="471" width="31" height="6" rx="3" fill="rgba(102,245,220,0.8)"/><rect x="1111" y="368" width="29" height="6" rx="3" fill="rgba(102,245,220,0.8)"/><rect x="1070" y="385" width="27" height="6" rx="3" fill="rgba(102,245,220,0.8)"/><rect x="1085" y="501" width="23" height="6" rx="3" fill="rgba(102,245,220,0.8)"/><rect x="1079" y="302" width="23" height="6" rx="3" fill="rgba(102,245,220,0.8)"/><rect x="1063" y="541" width="23" height="6" rx="3" fill="rgba(102,245,220,0.8)"/><rect x="1061" y="396" width="23" height="6" rx="3" fill="rgba(102,245,220,0.8)"/></g></g>
  <g id="scene-sparkles"><circle cx="566" cy="366" r="1.55" fill="rgba(180,240,255,0.27)"/><circle cx="245" cy="583" r="3.31" fill="rgba(180,240,255,0.20)"/><circle cx="491" cy="241" r="1.78" fill="rgba(180,240,255,0.34)"/><circle cx="774" cy="124" r="1.79" fill="rgba(180,240,255,0.32)"/><circle cx="1179" cy="404" r="2.14" fill="rgba(180,240,255,0.33)"/><circle cx="427" cy="268" r="1.82" fill="rgba(180,240,255,0.42)"/><circle cx="718" cy="409" r="3.22" fill="rgba(180,240,255,0.44)"/><circle cx="282" cy="293" r="2.36" fill="rgba(180,240,255,0.30)"/><circle cx="96" cy="573" r="2.18" fill="rgba(180,240,255,0.32)"/><circle cx="91" cy="469" r="3.20" fill="rgba(180,240,255,0.37)"/><circle cx="187" cy="146" r="2.60" fill="rgba(180,240,255,0.35)"/><circle cx="166" cy="277" r="1.27" fill="rgba(180,240,255,0.22)"/><circle cx="575" cy="259" r="1.87" fill="rgba(180,240,255,0.34)"/><circle cx="186" cy="489" r="1.46" fill="rgba(180,240,255,0.31)"/><circle cx="391" cy="269" r="2.18" fill="rgba(180,240,255,0.21)"/><circle cx="279" cy="212" r="2.23" fill="rgba(180,240,255,0.20)"/><circle cx="685" cy="425" r="1.43" fill="rgba(180,240,255,0.17)"/><circle cx="579" cy="400" r="2.40" fill="rgba(180,240,255,0.21)"/><circle cx="1137" cy="185" r="1.64" fill="rgba(180,240,255,0.18)"/></g>
  <rect width="1200" height="675" fill="rgba(190,220,255,0.06)"/>
  <rect width="1200" height="675" filter="url(#grain-53)"/>
  <rect width="1200" height="675" fill="url(#vignette-53)"/>
  <rect x="20" y="20" width="1160" height="635" rx="32" fill="none" stroke="rgba(155,220,255,0.24)"/>
</svg>