<?xml version="1.0" encoding="UTF-8"?>
<svg xmlns="http://www.w3.org/2000/svg" width="1200" height="675" viewBox="0 0 1200 675" role="img" aria-label="AIGC fallback cover 91" data-scene="scene-1">
  <defs>
    <linearGradient id="bg-91" x1="0" y1="0" x2="1" y2="1">
      <stop offset="0%" stop-color="hsl(148, 82%, 16%)"/>
      <stop offset="52%" stop-color="hsl(193, 84%, 23%)"/>
      <stop offset="100%" stop-color="hsl(281, 78%, 12%)"/>
    </linearGradient>
    <filter id="blur-91" x="-25%" y="-25%" width="150%" height="150%">
      <feGaussianBlur stdDeviation="26"/>
    </filter>
    <filter id="soft-91" x="-25%" y="-25%" width="150%" height="150%">
      <feGaussianBlur stdDeviation="10"/>
    </filter>
    <filter id="grain-91" x="0%" y="0%" width="100%" height="100%">
      <feTurbulence type="fractalNoise" baseFrequency="0.9" numOctaves="2" seed="1183" stitchTiles="stitch"/>
      <feColorMatrix type="saturate" values="0"/>
      <feComponentTransfer>
        <feFuncA type="table" tableValues="0 0.05"/>
      </feComponentTransfer>
    </filter>
    <radialGradient id="vignette-91" cx="50%" cy="45%" r="70%">
      <stop offset="60%" stop-color="rgba(0,0,0,0)"/>
      <stop offset="100%" stop-color="rgba(0,0,0,0.45)"/>
    </radialGradient>
  </defs>

  <rect width="1200" height="675" fill="url(#bg-91)"/>
  <circle cx="959" cy="604" r="211" fill="hsl(148, 92%, 62%)" opacity="0.13" filter="url(#blur-91)"/><circle cx="1053" cy="421" r="95" fill="hsl(174, 92%, 62%)" opacity="0.10" filter="url(#blur-91)"/><circle cx="765" cy="575" r="195" fill="hsl(200, 92%, 62%)" opacity="0.10" filter="url(#blur-91)"/>
  <circle cx="1138" cy="339" r="20" fill="rgba(210,240,255,0.12)" filter="url(#soft-91)"/><circle cx="1113" cy="245" r="58" fill="rgba(210,240,255,0.15)" filter="url(#soft-91)"/><circle cx="275" cy="62" r="47" fill="rgba(210,240,255,0.11)" filter="url(#soft-91)"/><circle cx="641" cy="121" r="35" fill="rgba(210,240,255,0.15)" filter="url(#soft-91)"/><circle cx="434" cy="82" r="41" fill="rgba(210,240,255,0.15)" filter="url(#soft-91)"/><circle cx="250" cy="146" r="25" fill="rgba(210,240,255,0.13)" filter="url(#soft-91)"/><circle cx="609" cy="452" r="34" fill="rgba(210,240,255,0.11)" filter="url(#soft-91)"/><circle cx="219" cy="184" r="63" fill="rgba(210,240,255,0.15)" filter="url(#soft-91)"/><circle cx="999" cy="110" r="35" fill="rgba(210,240,255,0.08)" filter="url(#soft-91)"/><circle cx="951" cy="338" r="49" fill="rgba(210,240,255,0.15)" filter="url(#soft-91)"/>
  <polygon points="0,675 1200,675 1268,370 -68,370" fill="rgba(8,16,28,0.35)"/>
  <g id="scene-nodes"><line x1="1035" y1="90" x2="944" y2="256" stroke="rgba(145,245,255,0.64)" stroke-width="3"/><line x1="1035" y1="90" x2="811" y2="294" stroke="rgba(145,245,255,0.64)" stroke-width="2"/><line x1="944" y1="256" x2="967" y2="213" stroke="rgba(145,245,255,0.64)" stroke-width="4"/><line x1="811" y1="294" x2="707" y2="208" stroke="rgba(145,245,255,0.64)" stroke-width="3"/><line x1="707" y1="208" x2="797" y2="206" stroke="rgba(145,245,255,0.64)" stroke-width="3"/><line x1="1035" y1="90" x2="687" y2="120" stroke="rgba(145,245,255,0.64)" stroke-width="4"/><line x1="797" y1="206" x2="706" y2="256" stroke="rgba(145,245,255,0.64)" stroke-width="4"/><circle cx="1035" cy="90" r="9" fill="hsl(148, 88%, 72%)" opacity="0.86"/><circle cx="944" cy="256" r="11" fill="hsl(157, 88%, 72%)" opacity="0.86"/><circle cx="811" cy="294" r="14" fill="hsl(166, 88%, 72%)" opacity="0.86"/><circle cx="967" cy="213" r="10" fill="hsl(175, 88%, 72%)" opacity="0.86"/><circle cx="707" cy="208" r="12" fill="hsl(184, 88%, 72%)" opacity="0.86"/><circle cx="797" cy="206" r="9" fill="hsl(193, 88%, 72%)" opacity="0.86"/><circle cx="687" cy="120" r="8" fill="hsl(202, 88%, 72%)" opacity="0.86"/><circle cx="706" cy="256" r="13" fill="hsl(211, 88%, 72%)" opacity="0.86"/></g>
  <g id="scene-sparkles"><circle cx="279" cy="483" r="3.17" fill="rgba(180,240,255,0.44)"/><circle cx="59" cy="562" r="1.77" fill="rgba(180,240,255,0.18)"/><circle cx="1037" cy="359" r="1.41" fill="rgba(180,240,255,0.40)"/><circle cx="94" cy="363" r="2.57" fill="rgba(180,240,255,0.30)"/><circle cx="684" cy="650" r="2.44" fill="rgba(180,240,255,0.23)"/><circle cx="496" cy="541" r="1.78" fill="rgba(180,240,255,0.22)"/><circle cx="533" cy="54" r="2.70" fill="rgba(180,240,255,0.41)"/><circle cx="606" cy="391" r="1.99" fill="rgba(180,240,255,0.30)"/><circle cx="105" cy="630" r="2.97" fill="rgba(180,240,255,0.24)"/><circle cx="118" cy="148" r="2.43" fill="rgba(180,240,255,0.32)"/><circle cx="1166" cy="331" r="1.95" fill="rgba(180,240,255,0.35)"/><circle cx="1130" cy="494" r="2.60" fill="rgba(180,240,255,0.24)"/><circle cx="969" cy="455" r="1.24" fill="rgba(180,240,255,0.36)"/><circle cx="246" cy="62" r="2.34" fill="rgba(180,240,255,0.31)"/><circle cx="816" cy="651" r="2.27" fill="rgba(180,240,255,0.30)"/><circle cx="770" cy="257" r="1.63" fill="rgba(180,240,255,0.25)"/><circle cx="544" cy="295" r="2.16" fill="rgba(180,240,255,0.25)"/><circle cx="381" cy="391" r="2.65" fill="rgba(180,240,255,0.24)"/><circle cx="251" cy="84" r="2.95" fill="rgba(180,240,255,0.26)"/><circle cx="850" cy="223" r="2.69" fill="rgba(180,240,255,0.25)"/><circle cx="883" cy="399" r="3.12" fill="rgba(180,240,255,0.43)"/><circle cx="275" cy="192" r="1.38" fill="rgba(180,240,255,0.26)"/><circle cx="301" cy="385" r="2.51" fill="rgba(180,240,255,0.22)"/></g>
  <rect width="1200" height="675" fill="rgba(190,220,255,0.06)"/>
  <rect width="1200" height="675" filter="url(#grain-91)"/>
  <rect width="1200" height="675" fill="url(#vignette-91)"/>
  <rect x="20" y="20" width="1160" height="635" rx="32" fill="none" stroke="rgba(155,220,255,0.24)"/>
</svg>