<?xml version="1.0" encoding="UTF-8"?>
<svg xmlns="http://www.w3.org/2000/svg" width="1200" height="675" viewBox="0 0 1200 675" role="img" aria-label="AIGC fallback cover 8" data-scene="scene-8">
  <defs>
    <linearGradient id="bg-8" x1="0" y1="0" x2="1" y2="1">
      <stop offset="0%" stop-color="hsl(333, 82%, 16%)"/>
      <stop offset="52%" stop-color="hsl(50, 84%, 23%)"/>
      <stop offset="100%" stop-color="hsl(163, 78%, 12%)"/>
    </linearGradient>
    <filter id="blur-8" x="-25%" y="-25%" width="150%" height="150%">
      <feGaussianBlur stdDeviation="26"/>
    </filter>
    <filter id="soft-8" x="-25%" y="-25%" width="150%" height="150%">
      <feGaussianBlur stdDeviation="10"/>
    </filter>
    <filter id="grain-8" x="0%" y="0%" width="100%" height="100%">
      <feTurbulence type="fractalNoise" baseFrequency="0.9" numOctaves="2" seed="104" stitchTiles="stitch"/>
      <feColorMatrix type="saturate" values="0"/>
      <feComponentTransfer>
        <feFuncA type="table" tableValues="0 0.05"/>
      </feComponentTransfer>
    </filter>
    <radialGradient id="vignette-8" cx="50%" cy="45%" r="70%">
      <stop offset="60%" stop-color="rgba(0,0,0,0)"/>
      <stop offset="100%" stop-color="rgba(0,0,0,0.45)"/>
    </radialGradient>
  </defs>

  <rect width="1200" height="675" fill="url(#bg-8)"/>
  <circle cx="967" cy="224" r="181" fill="hsl(333, 92%, 62%)" opacity="0.09" filter="url(#blur-8)"/><circle cx="375" cy="600" r="156" fill="hsl(359, 92%, 62%)" opacity="0.15" filter="url(#blur-8)"/><circle cx="817" cy="195" r="168" fill="hsl(385, 92%, 62%)" opacity="0.12" filter="url(#blur-8)"/>
  <circle cx="483" cy="158" r="41" fill="rgba(210,240,255,0.16)" filter="url(#soft-8)"/><circle cx="135" cy="50" r="23" fill="rgba(210,240,255,0.15)" filter="url(#soft-8)"/><circle cx="393" cy="276" r="31" fill="rgba(210,240,255,0.15)" filter="url(#soft-8)"/><circle cx="1126" cy="334" r="25" fill="rgba(210,240,255,0.07)" filter="url(#soft-8)"/><circle cx="531" cy="153" r="39" fill="rgba(210,240,255,0.16)" filter="url(#soft-8)"/><circle cx="923" cy="204" r="35" fill="rgba(210,240,255,0.15)" filter="url(#soft-8)"/><circle cx="524" cy="448" r="65" fill="rgba(210,240,255,0.12)" filter="url(#soft-8)"/><circle cx="289" cy="397" r="29" fill="rgba(210,240,255,0.09)" filter="url(#soft-8)"/>
  <polygon points="0,675 1200,675 1167,372 33,372" fill="rgba(8,16,28,0.35)"/>
  <g id="scene-code-panels"><g><rect x="488" y="118" width="271" height="159" rx="14" fill="rgba(11,24,48,0.55)" stroke="rgba(120,190,255,0.45)"/><rect x="508" y="136" width="114" height="8" rx="4" fill="rgba(120,220,255,0.25)"/><rect x="508" y="158" width="201" height="8" rx="4" fill="rgba(120,220,255,0.34)"/><rect x="508" y="180" width="100" height="8" rx="4" fill="rgba(120,220,255,0.43)"/><rect x="508" y="202" width="208" height="8" rx="4" fill="rgba(120,220,255,0.52)"/><circle cx="741" cy="136" r="4" fill="rgba(160,240,255,0.7)"/></g><g><rect x="290" y="164" width="233" height="139" rx="14" fill="rgba(11,24,48,0.55)" stroke="rgba(120,190,255,0.45)"/><rect x="310" y="182" width="180" height="8" rx="4" fill="rgba(120,220,255,0.25)"/><rect x="310" y="204" width="181" height="8" rx="4" fill="rgba(120,220,255,0.34)"/><rect x="310" y="226" width="95" height="8" rx="4" fill="rgba(120,220,255,0.43)"/><rect x="310" y="248" width="156" height="8" rx="4" fill="rgba(120,220,255,0.52)"/><rect x="310" y="270" width="97" height="8" rx="4" fill="rgba(120,220,255,0.61)"/><rect x="310" y="292" width="86" height="8" rx="4" fill="rgba(120,220,255,0.70)"/><circle cx="505" cy="182" r="4" fill="rgba(160,240,255,0.7)"/></g><g><rect x="78" y="402" width="274" height="120" rx="14" fill="rgba(11,24,48,0.55)" stroke="rgba(120,190,255,0.45)"/><rect x="98" y="420" width="199" height="8" rx="4" fill="rgba(120,220,255,0.25)"/><rect x="98" y="442" width="149" height="8" rx="4" fill="rgba(120,220,255,0.34)"/><rect x="98" y="464" width="196" height="8" rx="4" fill="rgba(120,220,255,0.43)"/><circle cx="334" cy="420" r="4" fill="rgba(160,240,255,0.7)"/></g><g><rect x="972" y="139" width="192" height="145" rx="14" fill="rgba(11,24,48,0.55)" stroke="rgba(120,190,255,0.45)"/><rect x="992" y="157" width="77" height="8" rx="4" fill="rgba(120,220,255,0.25)"/><rect x="992" y="179" width="85" height="8" rx="4" fill="rgba(120,220,255,0.34)"/><rect x="992" y="201" width="142" height="8" rx="4" fill="rgba(120,220,255,0.43)"/><rect x="992" y="223" width="78" height="8" rx="4" fill="rgba(120,220,255,0.52)"/><rect x="992" y="245" width="159" height="8" rx="4" fill="rgba(120,220,255,0.61)"/><circle cx="1146" cy="157" r="4" fill="rgba(160,240,255,0.7)"/></g><g><rect x="783" y="302" width="266" height="189" rx="14" fill="rgba(11,24,48,0.55)" stroke="rgba(120,190,255,0.45)"/><rect x="803" y="320" width="144" height="8" rx="4" fill="rgba(120,220,255,0.25)"/><rect x="803" y="342" width="103" height="8" rx="4" fill="rgba(120,220,255,0.34)"/><rect x="803" y="364" width="188" height="8" rx="4" fill="rgba(120,220,255,0.43)"/><rect x="803" y="386" width="132" height="8" rx="4" fill="rgba(120,220,255,0.52)"/><rect x="803" y="408" width="93" height="8" rx="4" fill="rgba(120,220,255,0.61)"/><rect x="803" y="430" width="143" height="8" rx="4" fill="rgba(120,220,255,0.70)"/><circle cx="1031" cy="320" r="4" fill="rgba(160,240,255,0.7)"/></g><g><rect x="787" y="81" width="202" height="189" rx="14" fill="rgba(11,24,48,0.55)" stroke="rgba(120,190,255,0.45)"/><rect x="807" y="99" width="90" height="8" rx="4" fill="rgba(120,220,255,0.25)"/><rect x="807" y="121" width="92" height="8" rx="4" fill="rgba(120,220,255,0.34)"/><rect x="807" y="143" width="151" height="8" rx="4" fill="rgba(120,220,255,0.43)"/><rect x="807" y="165" width="130" height="8" rx="4" fill="rgba(120,220,255,0.52)"/><rect x="807" y="187" width="148" height="8" rx="4" fill="rgba(120,220,255,0.61)"/><circle cx="971" cy="99" r="4" fill="rgba(160,240,255,0.7)"/></g><g><rect x="212" y="424" width="302" height="166" rx="14" fill="rgba(11,24,48,0.55)" stroke="rgba(120,190,255,0.45)"/><rect x="232" y="442" width="140" height="8" rx="4" fill="rgba(120,220,255,0.25)"/><rect x="232" y="464" width="146" height="8" rx="4" fill="rgba(120,220,255,0.34)"/><rect x="232" y="486" width="214" height="8" rx="4" fill="rgba(120,220,255,0.43)"/><rect x="232" y="508" width="153" height="8" rx="4" fill="rgba(120,220,255,0.52)"/><rect x="232" y="530" width="255" height="8" rx="4" fill="rgba(120,220,255,0.61)"/><rect x="232" y="552" width="233" height="8" rx="4" fill="rgba(120,220,255,0.70)"/><circle cx="496" cy="442" r="4" fill="rgba(160,240,255,0.7)"/></g></g>
  <g id="scene-sparkles"><circle cx="699" cy="611" r="1.38" fill="rgba(180,240,255,0.20)"/><circle cx="737" cy="338" r="2.37" fill="rgba(180,240,255,0.27)"/><circle cx="943" cy="28" r="1.75" fill="rgba(180,240,255,0.34)"/><circle cx="786" cy="140" r="3.12" fill="rgba(180,240,255,0.17)"/><circle cx="359" cy="272" r="1.50" fill="rgba(180,240,255,0.16)"/><circle cx="574" cy="201" r="3.20" fill="rgba(180,240,255,0.28)"/><circle cx="817" cy="458" r="2.76" fill="rgba(180,240,255,0.15)"/><circle cx="587" cy="491" r="1.61" fill="rgba(180,240,255,0.19)"/><circle cx="396" cy="303" r="3.37" fill="rgba(180,240,255,0.15)"/><circle cx="988" cy="334" r="2.27" fill="rgba(180,240,255,0.35)"/><circle cx="850" cy="287" r="2.16" fill="rgba(180,240,255,0.37)"/><circle cx="242" cy="520" r="1.99" fill="rgba(180,240,255,0.39)"/><circle cx="233" cy="111" r="2.39" fill="rgba(180,240,255,0.30)"/><circle cx="647" cy="196" r="2.19" fill="rgba(180,240,255,0.36)"/><circle cx="627" cy="218" r="1.10" fill="rgba(180,240,255,0.32)"/><circle cx="895" cy="48" r="1.92" fill="rgba(180,240,255,0.20)"/><circle cx="416" cy="412" r="1.15" fill="rgba(180,240,255,0.41)"/><circle cx="655" cy="310" r="1.52" fill="rgba(180,240,255,0.16)"/><circle cx="683" cy="443" r="1.34" fill="rgba(180,240,255,0.29)"/><circle cx="93" cy="174" r="2.54" fill="rgba(180,240,255,0.29)"/><circle cx="1174" cy="94" r="2.48" fill="rgba(180,240,255,0.24)"/><circle cx="423" cy="421" r="1.98" fill="rgba(180,240,255,0.21)"/></g>
  <rect width="1200" height="675" fill="rgba(190,220,255,0.06)"/>
  <rect width="1200" height="675" filter="url(#grain-8)"/>
  <rect width="1200" height="675" fill="url(#vignette-8)"/>
  <rect x="20" y="20" width="1160" height="635" rx="32" fill="none" stroke="rgba(155,220,255,0.24)"/>
</svg>