<?xml version="1.0" encoding="UTF-8"?>
<svg xmlns="http://www.w3.org/2000/svg" width="1200" height="675" viewBox="0 0 1200 675" role="img" aria-label="AIGC fallback cover 49" data-scene="scene-9">
  <defs>
    <linearGradient id="bg-49" x1="0" y1="0" x2="1" y2="1">
      <stop offset="0%" stop-color="hsl(242, 82%, 16%)"/>
      <stop offset="52%" stop-color="hsl(279, 84%, 23%)"/>
      <stop offset="100%" stop-color="hsl(352, 78%, 12%)"/>
    </linearGradient>
    <filter id="blur-49" x="-25%" y="-25%" width="150%" height="150%">
      <feGaussianBlur stdDeviation="26"/>
    </filter>
    <filter id="soft-49" x="-25%" y="-25%" width="150%" height="150%">
      <feGaussianBlur stdDeviation="10"/>
    </filter>
    <filter id="grain-49" x="0%" y="0%" width="100%" height="100%">
      <feTurbulence type="fractalNoise" baseFrequency="0.9" numOctaves="2" seed="637" stitchTiles="stitch"/>
      <feColorMatrix type="saturate" values="0"/>
      <feComponentTransfer>
        <feFuncA type="table" tableValues="0 0.05"/>
      </feComponentTransfer>
    </filter>
    <radialGradient id="vignette-49" cx="50%" cy="45%" r="70%">
      <stop offset="60%" stop-color="rgba(0,0,0,0)"/>
      <stop offset="100%" stop-color="rgba(0,0,0,0.45)"/>
    </radialGradient>
  </defs>

  <rect width="1200" height="675" fill="url(#bg-49)"/>
  <circle cx="115" cy="231" r="103" fill="hsl(242, 92%, 62%)" opacity="0.12" filter="url(#blur-49)"/><circle cx="487" cy="444" r="180" fill="hsl(268, 92%, 62%)" opacity="0.15" filter="url(#blur-49)"/><circle cx="646" cy="405" r="138" fill="hsl(294, 92%, 62%)" opacity="0.17" filter="url(#blur-49)"/>
  <circle cx="915" cy="415" r="57" fill="rgba(210,240,255,0.12)" filter="url(#soft-49)"/><circle cx="1121" cy="257" r="42" fill="rgba(210,240,255,0.09)" filter="url(#soft-49)"/><circle cx="77" cy="270" r="47" fill="rgba(210,240,255,0.15)" filter="url(#soft-49)"/><circle cx="415" cy="456" r="36" fill="rgba(210,240,255,0.16)" filter="url(#soft-49)"/><circle cx="886" cy="39" r="70" fill="rgba(210,240,255,0.12)" filter="url(#soft-49)"/><circle cx="68" cy="297" r="66" fill="rgba(210,240,255,0.08)" filter="url(#soft-49)"/><circle cx="169" cy="321" r="55" fill="rgba(210,240,255,0.08)" filter="url(#soft-49)"/><circle cx="683" cy="358" r="55" fill="rgba(210,240,255,0.09)" filter="url(#soft-49)"/><circle cx="590" cy="96" r="64" fill="rgba(210,240,255,0.12)" filter="url(#soft-49)"/>
  <polygon points="0,675 1200,675 1268,431 -68,431" fill="rgba(8,16,28,0.35)"/>
  <g id="scene-drone-swarm"><g transform="translate(528,107) scale(0.82)"><rect x="-10" y="-5" width="20" height="10" rx="3" fill="rgba(180,240,255,0.58)"/><line x1="-20" y1="0" x2="20" y2="0" stroke="rgba(150,230,255,0.6)" stroke-width="2"/><line x1="0" y1="-16" x2="0" y2="16" stroke="rgba(150,230,255,0.6)" stroke-width="2"/></g><g transform="translate(664,339) scale(1.29)"><rect x="-10" y="-5" width="20" height="10" rx="3" fill="rgba(180,240,255,0.58)"/><line x1="-20" y1="0" x2="20" y2="0" stroke="rgba(150,230,255,0.6)" stroke-width="2"/><line x1="0" y1="-16" x2="0" y2="16" stroke="rgba(150,230,255,0.6)" stroke-width="2"/></g><g transform="translate(284,226) scale(1.38)"><rect x="-10" y="-5" width="20" height="10" rx="3" fill="rgba(180,240,255,0.58)"/><line x1="-20" y1="0" x2="20" y2="0" stroke="rgba(150,230,255,0.6)" stroke-width="2"/><line x1="0" y1="-16" x2="0" y2="16" stroke="rgba(150,230,255,0.6)" stroke-width="2"/></g><g transform="translate(727,279) scale(1.04)"><rect x="-10" y="-5" width="20" height="10" rx="3" fill="rgba(180,240,255,0.58)"/><line x1="-20" y1="0" x2="20" y2="0" stroke="rgba(150,230,255,0.6)" stroke-width="2"/><line x1="0" y1="-16" x2="0" y2="16" stroke="rgba(150,230,255,0.6)" stroke-width="2"/></g><g transform="translate(472,207) scale(0.88)"><rect x="-10" y="-5" width="20" height="10" rx="3" fill="rgba(180,240,255,0.58)"/><line x1="-20" y1="0" x2="20" y2="0" stroke="rgba(150,230,255,0.6)" stroke-width="2"/><line x1="0" y1="-16" x2="0" y2="16" stroke="rgba(150,230,255,0.6)" stroke-width="2"/></g><g transform="translate(214,267) scale(1.36)"><rect x="-10" y="-5" width="20" height="10" rx="3" fill="rgba(180,240,255,0.58)"/><line x1="-20" y1="0" x2="20" y2="0" stroke="rgba(150,230,255,0.6)" stroke-width="2"/><line x1="0" y1="-16" x2="0" y2="16" stroke="rgba(150,230,255,0.6)" stroke-width="2"/></g><g transform="translate(721,341) scale(1.17)"><rect x="-10" y="-5" width="20" height="10" rx="3" fill="rgba(180,240,255,0.58)"/><line x1="-20" y1="0" x2="20" y2="0" stroke="rgba(150,230,255,0.6)" stroke-width="2"/><line x1="0" y1="-16" x2="0" y2="16" stroke="rgba(150,230,255,0.6)" stroke-width="2"/></g><g transform="translate(720,240) scale(0.84)"><rect x="-10" y="-5" width="20" height="10" rx="3" fill="rgba(180,240,255,0.58)"/><line x1="-20" y1="0" x2="20" y2="0" stroke="rgba(150,230,255,0.6)" stroke-width="2"/><line x1="0" y1="-16" x2="0" y2="16" stroke="rgba(150,230,255,0.6)" stroke-width="2"/></g></g>
  <g id="scene-sparkles"><circle cx="340" cy="507" r="2.14" fill="rgba(180,240,255,0.37)"/><circle cx="1171" cy="25" r="1.95" fill="rgba(180,240,255,0.27)"/><circle cx="400" cy="501" r="2.00" fill="rgba(180,240,255,0.27)"/><circle cx="361" cy="579" r="2.44" fill="rgba(180,240,255,0.18)"/><circle cx="309" cy="74" r="3.07" fill="rgba(180,240,255,0.22)"/><circle cx="219" cy="579" r="1.78" fill="rgba(180,240,255,0.15)"/><circle cx="868" cy="185" r="3.03" fill="rgba(180,240,255,0.35)"/><circle cx="753" cy="464" r="1.37" fill="rgba(180,240,255,0.22)"/><circle cx="270" cy="55" r="1.68" fill="rgba(180,240,255,0.25)"/><circle cx="308" cy="366" r="1.36" fill="rgba(180,240,255,0.41)"/><circle cx="983" cy="86" r="1.17" fill="rgba(180,240,255,0.39)"/><circle cx="372" cy="513" r="1.25" fill="rgba(180,240,255,0.40)"/><circle cx="47" cy="534" r="2.65" fill="rgba(180,240,255,0.31)"/><circle cx="981" cy="252" r="2.16" fill="rgba(180,240,255,0.31)"/><circle cx="755" cy="620" r="3.12" fill="rgba(180,240,255,0.30)"/><circle cx="482" cy="92" r="2.40" fill="rgba(180,240,255,0.22)"/><circle cx="759" cy="53" r="1.38" fill="rgba(180,240,255,0.25)"/><circle cx="63" cy="42" r="2.48" fill="rgba(180,240,255,0.43)"/><circle cx="1025" cy="199" r="2.60" fill="rgba(180,240,255,0.35)"/></g>
  <rect width="1200" height="675" fill="rgba(190,220,255,0.06)"/>
  <rect width="1200" height="675" filter="url(#grain-49)"/>
  <rect width="1200" height="675" fill="url(#vignette-49)"/>
  <rect x="20" y="20" width="1160" height="635" rx="32" fill="none" stroke="rgba(155,220,255,0.24)"/>
</svg>