<?xml version="1.0" encoding="UTF-8"?>
<svg xmlns="http://www.w3.org/2000/svg" width="1200" height="675" viewBox="0 0 1200 675" role="img" aria-label="AIGC fallback cover 58" data-scene="scene-8">
  <defs>
    <linearGradient id="bg-58" x1="0" y1="0" x2="1" y2="1">
      <stop offset="0%" stop-color="hsl(236, 82%, 16%)"/>
      <stop offset="52%" stop-color="hsl(316, 84%, 23%)"/>
      <stop offset="100%" stop-color="hsl(1, 78%, 12%)"/>
    </linearGradient>
    <filter id="blur-58" x="-25%" y="-25%" width="150%" height="150%">
      <feGaussianBlur stdDeviation="26"/>
    </filter>
    <filter id="soft-58" x="-25%" y="-25%" width="150%" height="150%">
      <feGaussianBlur stdDeviation="10"/>
    </filter>
    <filter id="grain-58" x="0%" y="0%" width="100%" height="100%">
      <feTurbulence type="fractalNoise" baseFrequency="0.9" numOctaves="2" seed="754" stitchTiles="stitch"/>
      <feColorMatrix type="saturate" values="0"/>
      <feComponentTransfer>
        <feFuncA type="table" tableValues="0 0.05"/>
      </feComponentTransfer>
    </filter>
    <radialGradient id="vignette-58" cx="50%" cy="45%" r="70%">
      <stop offset="60%" stop-color="rgba(0,0,0,0)"/>
      <stop offset="100%" stop-color="rgba(0,0,0,0.45)"/>
    </radialGradient>
  </defs>

  <rect width="1200" height="675" fill="url(#bg-58)"/>
  <circle cx="135" cy="120" r="187" fill="hsl(236, 92%, 62%)" opacity="0.13" filter="url(#blur-58)"/><circle cx="116" cy="594" r="124" fill="hsl(262, 92%, 62%)" opacity="0.10" filter="url(#blur-58)"/><circle cx="914" cy="439" r="101" fill="hsl(288, 92%, 62%)" opacity="0.16" filter="url(#blur-58)"/>
  <circle cx="510" cy="130" r="43" fill="rgba(210,240,255,0.08)" filter="url(#soft-58)"/><circle cx="898" cy="447" r="51" fill="rgba(210,240,255,0.16)" filter="url(#soft-58)"/><circle cx="360" cy="207" r="53" fill="rgba(210,240,255,0.14)" filter="url(#soft-58)"/><circle cx="865" cy="258" r="53" fill="rgba(210,240,255,0.08)" filter="url(#soft-58)"/><circle cx="842" cy="457" r="32" fill="rgba(210,240,255,0.09)" filter="url(#soft-58)"/><circle cx="905" cy="400" r="47" fill="rgba(210,240,255,0.15)" filter="url(#soft-58)"/><circle cx="696" cy="308" r="36" fill="rgba(210,240,255,0.08)" filter="url(#soft-58)"/><circle cx="240" cy="338" r="35" fill="rgba(210,240,255,0.09)" filter="url(#soft-58)"/><circle cx="295" cy="438" r="66" fill="rgba(210,240,255,0.12)" filter="url(#soft-58)"/><circle cx="1159" cy="280" r="63" fill="rgba(210,240,255,0.09)" filter="url(#soft-58)"/>
  <polygon points="0,675 1200,675 1218,409 -18,409" fill="rgba(8,16,28,0.35)"/>
  <g id="scene-code-panels"><g><rect x="111" y="402" width="333" height="152" rx="14" fill="rgba(11,24,48,0.55)" stroke="rgba(120,190,255,0.45)"/><rect x="131" y="420" width="169" height="8" rx="4" fill="rgba(120,220,255,0.25)"/><rect x="131" y="442" width="224" height="8" rx="4" fill="rgba(120,220,255,0.34)"/><rect x="131" y="464" width="185" height="8" rx="4" fill="rgba(120,220,255,0.43)"/><rect x="131" y="486" width="203" height="8" rx="4" fill="rgba(120,220,255,0.52)"/><rect x="131" y="508" width="143" height="8" rx="4" fill="rgba(120,220,255,0.61)"/><circle cx="426" cy="420" r="4" fill="rgba(160,240,255,0.7)"/></g><g><rect x="34" y="431" width="267" height="185" rx="14" fill="rgba(11,24,48,0.55)" stroke="rgba(120,190,255,0.45)"/><rect x="54" y="449" width="105" height="8" rx="4" fill="rgba(120,220,255,0.25)"/><rect x="54" y="471" width="166" height="8" rx="4" fill="rgba(120,220,255,0.34)"/><rect x="54" y="493" width="177" height="8" rx="4" fill="rgba(120,220,255,0.43)"/><rect x="54" y="515" width="133" height="8" rx="4" fill="rgba(120,220,255,0.52)"/><rect x="54" y="537" width="155" height="8" rx="4" fill="rgba(120,220,255,0.61)"/><circle cx="283" cy="449" r="4" fill="rgba(160,240,255,0.7)"/></g><g><rect x="400" y="177" width="209" height="121" rx="14" fill="rgba(11,24,48,0.55)" stroke="rgba(120,190,255,0.45)"/><rect x="420" y="195" width="108" height="8" rx="4" fill="rgba(120,220,255,0.25)"/><rect x="420" y="217" width="80" height="8" rx="4" fill="rgba(120,220,255,0.34)"/><rect x="420" y="239" width="139" height="8" rx="4" fill="rgba(120,220,255,0.43)"/><rect x="420" y="261" width="93" height="8" rx="4" fill="rgba(120,220,255,0.52)"/><circle cx="591" cy="195" r="4" fill="rgba(160,240,255,0.7)"/></g><g><rect x="346" y="231" width="290" height="183" rx="14" fill="rgba(11,24,48,0.55)" stroke="rgba(120,190,255,0.45)"/><rect x="366" y="249" width="200" height="8" rx="4" fill="rgba(120,220,255,0.25)"/><rect x="366" y="271" width="215" height="8" rx="4" fill="rgba(120,220,255,0.34)"/><rect x="366" y="293" width="110" height="8" rx="4" fill="rgba(120,220,255,0.43)"/><rect x="366" y="315" width="103" height="8" rx="4" fill="rgba(120,220,255,0.52)"/><rect x="366" y="337" width="144" height="8" rx="4" fill="rgba(120,220,255,0.61)"/><rect x="366" y="359" width="232" height="8" rx="4" fill="rgba(120,220,255,0.70)"/><circle cx="618" cy="249" r="4" fill="rgba(160,240,255,0.7)"/></g><g><rect x="728" y="186" width="328" height="166" rx="14" fill="rgba(11,24,48,0.55)" stroke="rgba(120,190,255,0.45)"/><rect x="748" y="204" width="223" height="8" rx="4" fill="rgba(120,220,255,0.25)"/><rect x="748" y="226" width="134" height="8" rx="4" fill="rgba(120,220,255,0.34)"/><rect x="748" y="248" width="236" height="8" rx="4" fill="rgba(120,220,255,0.43)"/><rect x="748" y="270" width="221" height="8" rx="4" fill="rgba(120,220,255,0.52)"/><circle cx="1038" cy="204" r="4" fill="rgba(160,240,255,0.7)"/></g><g><rect x="67" y="123" width="249" height="185" rx="14" fill="rgba(11,24,48,0.55)" stroke="rgba(120,190,255,0.45)"/><rect x="87" y="141" width="124" height="8" rx="4" fill="rgba(120,220,255,0.25)"/><rect x="87" y="163" width="122" height="8" rx="4" fill="rgba(120,220,255,0.34)"/><rect x="87" y="185" width="167" height="8" rx="4" fill="rgba(120,220,255,0.43)"/><circle cx="298" cy="141" r="4" fill="rgba(160,240,255,0.7)"/></g><g><rect x="651" y="423" width="310" height="103" rx="14" fill="rgba(11,24,48,0.55)" stroke="rgba(120,190,255,0.45)"/><rect x="671" y="441" width="155" height="8" rx="4" fill="rgba(120,220,255,0.25)"/><rect x="671" y="463" width="140" height="8" rx="4" fill="rgba(120,220,255,0.34)"/><rect x="671" y="485" width="237" height="8" rx="4" fill="rgba(120,220,255,0.43)"/><rect x="671" y="507" width="237" height="8" rx="4" fill="rgba(120,220,255,0.52)"/><rect x="671" y="529" width="111" height="8" rx="4" fill="rgba(120,220,255,0.61)"/><rect x="671" y="551" width="240" height="8" rx="4" fill="rgba(120,220,255,0.70)"/><circle cx="943" cy="441" r="4" fill="rgba(160,240,255,0.7)"/></g><g><rect x="556" y="132" width="303" height="116" rx="14" fill="rgba(11,24,48,0.55)" stroke="rgba(120,190,255,0.45)"/><rect x="576" y="150" width="122" height="8" rx="4" fill="rgba(120,220,255,0.25)"/><rect x="576" y="172" width="229" height="8" rx="4" fill="rgba(120,220,255,0.34)"/><rect x="576" y="194" width="160" height="8" rx="4" fill="rgba(120,220,255,0.43)"/><rect x="576" y="216" width="251" height="8" rx="4" fill="rgba(120,220,255,0.52)"/><circle cx="841" cy="150" r="4" fill="rgba(160,240,255,0.7)"/></g></g>
  <g id="scene-sparkles"><circle cx="311" cy="653" r="1.91" fill="rgba(180,240,255,0.22)"/><circle cx="634" cy="452" r="3.30" fill="rgba(180,240,255,0.20)"/><circle cx="536" cy="595" r="2.00" fill="rgba(180,240,255,0.21)"/><circle cx="393" cy="327" r="1.50" fill="rgba(180,240,255,0.38)"/><circle cx="813" cy="359" r="2.42" fill="rgba(180,240,255,0.39)"/><circle cx="796" cy="538" r="2.81" fill="rgba(180,240,255,0.40)"/><circle cx="23" cy="541" r="2.16" fill="rgba(180,240,255,0.39)"/><circle cx="259" cy="44" r="3.23" fill="rgba(180,240,255,0.19)"/><circle cx="573" cy="454" r="2.04" fill="rgba(180,240,255,0.28)"/><circle cx="479" cy="558" r="2.68" fill="rgba(180,240,255,0.21)"/><circle cx="503" cy="80" r="2.52" fill="rgba(180,240,255,0.20)"/><circle cx="746" cy="421" r="1.67" fill="rgba(180,240,255,0.25)"/><circle cx="666" cy="573" r="2.12" fill="rgba(180,240,255,0.15)"/><circle cx="1065" cy="313" r="2.74" fill="rgba(180,240,255,0.34)"/><circle cx="746" cy="447" r="3.23" fill="rgba(180,240,255,0.19)"/><circle cx="135" cy="180" r="2.21" fill="rgba(180,240,255,0.37)"/></g>
  <rect width="1200" height="675" fill="rgba(190,220,255,0.06)"/>
  <rect width="1200" height="675" filter="url(#grain-58)"/>
  <rect width="1200" height="675" fill="url(#vignette-58)"/>
  <rect x="20" y="20" width="1160" height="635" rx="32" fill="none" stroke="rgba(155,220,255,0.24)"/>
</svg>