<?xml version="1.0" encoding="UTF-8"?>
<svg xmlns="http://www.w3.org/2000/svg" width="1200" height="675" viewBox="0 0 1200 675" role="img" aria-label="AIGC fallback cover 10" data-scene="scene-10">
  <defs>
    <linearGradient id="bg-10" x1="0" y1="0" x2="1" y2="1">
      <stop offset="0%" stop-color="hsl(88, 82%, 16%)"/>
      <stop offset="52%" stop-color="hsl(128, 84%, 23%)"/>
      <stop offset="100%" stop-color="hsl(229, 78%, 12%)"/>
    </linearGradient>
    <filter id="blur-10" x="-25%" y="-25%" width="150%" height="150%">
      <feGaussianBlur stdDeviation="26"/>
    </filter>
    <filter id="soft-10" x="-25%" y="-25%" width="150%" height="150%">
      <feGaussianBlur stdDeviation="10"/>
    </filter>
    <filter id="grain-10" x="0%" y="0%" width="100%" height="100%">
      <feTurbulence type="fractalNoise" baseFrequency="0.9" numOctaves="2" seed="130" stitchTiles="stitch"/>
      <feColorMatrix type="saturate" values="0"/>
      <feComponentTransfer>
        <feFuncA type="table" tableValues="0 0.05"/>
      </feComponentTransfer>
    </filter>
    <radialGradient id="vignette-10" cx="50%" cy="45%" r="70%">
      <stop offset="60%" stop-color="rgba(0,0,0,0)"/>
      <stop offset="100%" stop-color="rgba(0,0,0,0.45)"/>
    </radialGradient>
  </defs>

  <rect width="1200" height="675" fill="url(#bg-10)"/>
  <circle cx="392" cy="346" r="94" fill="hsl(88, 92%, 62%)" opacity="0.14" filter="url(#blur-10)"/><circle cx="520" cy="275" r="147" fill="hsl(114, 92%, 62%)" opacity="0.13" filter="url(#blur-10)"/><circle cx="528" cy="176" r="103" fill="hsl(140, 92%, 62%)" opacity="0.16" filter="url(#blur-10)"/>
  <circle cx="110" cy="256" r="41" fill="rgba(210,240,255,0.11)" filter="url(#soft-10)"/><circle cx="1150" cy="422" r="46" fill="rgba(210,240,255,0.07)" filter="url(#soft-10)"/><circle cx="1005" cy="391" r="24" fill="rgba(210,240,255,0.14)" filter="url(#soft-10)"/><circle cx="242" cy="154" r="59" fill="rgba(210,240,255,0.07)" filter="url(#soft-10)"/><circle cx="287" cy="372" r="67" fill="rgba(210,240,255,0.10)" filter="url(#soft-10)"/><circle cx="236" cy="240" r="68" fill="rgba(210,240,255,0.08)" filter="url(#soft-10)"/><circle cx="235" cy="138" r="53" fill="rgba(210,240,255,0.12)" filter="url(#soft-10)"/><circle cx="187" cy="59" r="22" fill="rgba(210,240,255,0.10)" filter="url(#soft-10)"/><circle cx="538" cy="307" r="53" fill="rgba(210,240,255,0.12)" filter="url(#soft-10)"/>
  <polygon points="0,675 1200,675 1033,454 167,454" fill="rgba(8,16,28,0.35)"/>
  <g id="scene-robot-arms"><g><circle cx="675" cy="514" r="16" fill="rgba(120,215,255,0.75)"/><line x1="675" y1="514" x2="522" y2="357" stroke="rgba(145,235,255,0.62)" stroke-width="8" stroke-linecap="round"/><line x1="522" y1="357" x2="522" y2="258" stroke="rgba(120,255,220,0.6)" stroke-width="7" stroke-linecap="round"/><circle cx="522" cy="357" r="10" fill="rgba(150,245,255,0.8)"/><circle cx="522" cy="258" r="8" fill="rgba(120,255,220,0.86)"/></g><g><circle cx="483" cy="563" r="16" fill="rgba(120,215,255,0.75)"/><line x1="483" y1="563" x2="552" y2="368" stroke="rgba(145,235,255,0.62)" stroke-width="12" stroke-linecap="round"/><line x1="552" y1="368" x2="621" y2="295" stroke="rgba(120,255,220,0.6)" stroke-width="6" stroke-linecap="round"/><circle cx="552" cy="368" r="10" fill="rgba(150,245,255,0.8)"/><circle cx="621" cy="295" r="8" fill="rgba(120,255,220,0.86)"/></g><g><circle cx="288" cy="386" r="16" fill="rgba(120,215,255,0.75)"/><line x1="288" y1="386" x2="380" y2="249" stroke="rgba(145,235,255,0.62)" stroke-width="10" stroke-linecap="round"/><line x1="380" y1="249" x2="498" y2="93" stroke="rgba(120,255,220,0.6)" stroke-width="7" stroke-linecap="round"/><circle cx="380" cy="249" r="10" fill="rgba(150,245,255,0.8)"/><circle cx="498" cy="93" r="8" fill="rgba(120,255,220,0.86)"/></g></g>
  <g id="scene-sparkles"><circle cx="845" cy="276" r="3.01" fill="rgba(180,240,255,0.27)"/><circle cx="291" cy="385" r="1.51" fill="rgba(180,240,255,0.39)"/><circle cx="648" cy="186" r="3.14" fill="rgba(180,240,255,0.36)"/><circle cx="53" cy="342" r="1.49" fill="rgba(180,240,255,0.20)"/><circle cx="966" cy="350" r="2.67" fill="rgba(180,240,255,0.38)"/><circle cx="917" cy="75" r="3.12" fill="rgba(180,240,255,0.43)"/><circle cx="969" cy="32" r="1.23" fill="rgba(180,240,255,0.16)"/><circle cx="1165" cy="321" r="1.58" fill="rgba(180,240,255,0.30)"/><circle cx="226" cy="546" r="1.19" fill="rgba(180,240,255,0.27)"/><circle cx="81" cy="456" r="3.30" fill="rgba(180,240,255,0.34)"/><circle cx="619" cy="437" r="3.27" fill="rgba(180,240,255,0.35)"/><circle cx="394" cy="242" r="2.53" fill="rgba(180,240,255,0.24)"/><circle cx="916" cy="298" r="3.20" fill="rgba(180,240,255,0.32)"/><circle cx="1119" cy="393" r="1.74" fill="rgba(180,240,255,0.30)"/><circle cx="471" cy="365" r="2.25" fill="rgba(180,240,255,0.41)"/><circle cx="790" cy="249" r="1.60" fill="rgba(180,240,255,0.39)"/><circle cx="1026" cy="473" r="3.03" fill="rgba(180,240,255,0.20)"/><circle cx="753" cy="258" r="1.64" fill="rgba(180,240,255,0.31)"/><circle cx="791" cy="446" r="3.19" fill="rgba(180,240,255,0.43)"/><circle cx="1048" cy="81" r="2.11" fill="rgba(180,240,255,0.29)"/><circle cx="56" cy="456" r="2.91" fill="rgba(180,240,255,0.33)"/><circle cx="636" cy="449" r="1.70" fill="rgba(180,240,255,0.43)"/><circle cx="234" cy="499" r="1.27" fill="rgba(180,240,255,0.32)"/><circle cx="314" cy="308" r="1.47" fill="rgba(180,240,255,0.26)"/><circle cx="1055" cy="97" r="2.09" fill="rgba(180,240,255,0.17)"/><circle cx="1010" cy="196" r="3.09" fill="rgba(180,240,255,0.39)"/></g>
  <rect width="1200" height="675" fill="rgba(190,220,255,0.06)"/>
  <rect width="1200" height="675" filter="url(#grain-10)"/>
  <rect width="1200" height="675" fill="url(#vignette-10)"/>
  <rect x="20" y="20" width="1160" height="635" rx="32" fill="none" stroke="rgba(155,220,255,0.24)"/>
</svg>