<?xml version="1.0" encoding="UTF-8"?>
<svg xmlns="http://www.w3.org/2000/svg" width="1200" height="675" viewBox="0 0 1200 675" role="img" aria-label="AIGC fallback cover 85" data-scene="scene-5">
  <defs>
    <linearGradient id="bg-85" x1="0" y1="0" x2="1" y2="1">
      <stop offset="0%" stop-color="hsl(283, 82%, 16%)"/>
      <stop offset="52%" stop-color="hsl(349, 84%, 23%)"/>
      <stop offset="100%" stop-color="hsl(104, 78%, 12%)"/>
    </linearGradient>
    <filter id="blur-85" x="-25%" y="-25%" width="150%" height="150%">
      <feGaussianBlur stdDeviation="26"/>
    </filter>
    <filter id="soft-85" x="-25%" y="-25%" width="150%" height="150%">
      <feGaussianBlur stdDeviation="10"/>
    </filter>
    <filter id="grain-85" x="0%" y="0%" width="100%" height="100%">
      <feTurbulence type="fractalNoise" baseFrequency="0.9" numOctaves="2" seed="1105" stitchTiles="stitch"/>
      <feColorMatrix type="saturate" values="0"/>
      <feComponentTransfer>
        <feFuncA type="table" tableValues="0 0.05"/>
      </feComponentTransfer>
    </filter>
    <radialGradient id="vignette-85" cx="50%" cy="45%" r="70%">
      <stop offset="60%" stop-color="rgba(0,0,0,0)"/>
      <stop offset="100%" stop-color="rgba(0,0,0,0.45)"/>
    </radialGradient>
  </defs>

  <rect width="1200" height="675" fill="url(#bg-85)"/>
  <circle cx="978" cy="360" r="97" fill="hsl(283, 92%, 62%)" opacity="0.12" filter="url(#blur-85)"/><circle cx="921" cy="565" r="103" fill="hsl(309, 92%, 62%)" opacity="0.11" filter="url(#blur-85)"/><circle cx="967" cy="486" r="134" fill="hsl(335, 92%, 62%)" opacity="0.09" filter="url(#blur-85)"/>
  <circle cx="946" cy="268" r="61" fill="rgba(210,240,255,0.06)" filter="url(#soft-85)"/><circle cx="337" cy="413" r="37" fill="rgba(210,240,255,0.06)" filter="url(#soft-85)"/><circle cx="813" cy="403" r="68" fill="rgba(210,240,255,0.12)" filter="url(#soft-85)"/><circle cx="1080" cy="271" r="55" fill="rgba(210,240,255,0.10)" filter="url(#soft-85)"/><circle cx="512" cy="243" r="61" fill="rgba(210,240,255,0.12)" filter="url(#soft-85)"/><circle cx="523" cy="126" r="64" fill="rgba(210,240,255,0.14)" filter="url(#soft-85)"/>
  <polygon points="0,675 1200,675 1317,452 -117,452" fill="rgba(8,16,28,0.35)"/>
  <g id="scene-wave"><path d="M 0 217 C 89.5 192, 268.5 242, 358 217 S 626.5 192, 716 217" transform="translate(9,0) scale(1.6636585597181692,1)" fill="none" stroke="rgba(132,236,255,0.22)" stroke-width="7"/><path d="M 0 186 C 96.75 123, 290.25 249, 387 186 S 677.25 123, 774 186" transform="translate(182,0) scale(1.3464554046513513,1)" fill="none" stroke="rgba(132,236,255,0.37)" stroke-width="6"/><path d="M 0 286 C 117 216, 351 356, 468 286 S 819 216, 936 286" transform="translate(2,0) scale(2.2311895983992143,1)" fill="none" stroke="rgba(132,236,255,0.24)" stroke-width="5"/><path d="M 0 212 C 80.25 145, 240.75 279, 321 212 S 561.75 145, 642 212" transform="translate(137,0) scale(2.2229650898603723,1)" fill="none" stroke="rgba(132,236,255,0.25)" stroke-width="4"/><path d="M 0 350 C 81.75 317, 245.25 383, 327 350 S 572.25 317, 654 350" transform="translate(187,0) scale(1.605712813208811,1)" fill="none" stroke="rgba(132,236,255,0.39)" stroke-width="5"/><path d="M 0 151 C 82 118, 246 184, 328 151 S 574 118, 656 151" transform="translate(134,0) scale(1.5379750767489895,1)" fill="none" stroke="rgba(132,236,255,0.32)" stroke-width="3"/><path d="M 0 465 C 80 435, 240 495, 320 465 S 560 435, 640 465" transform="translate(5,0) scale(2.261249595019035,1)" fill="none" stroke="rgba(132,236,255,0.37)" stroke-width="4"/></g>
  <g id="scene-sparkles"><circle cx="705" cy="597" r="1.42" fill="rgba(180,240,255,0.39)"/><circle cx="820" cy="291" r="2.07" fill="rgba(180,240,255,0.19)"/><circle cx="523" cy="135" r="1.39" fill="rgba(180,240,255,0.18)"/><circle cx="342" cy="207" r="3.08" fill="rgba(180,240,255,0.39)"/><circle cx="707" cy="244" r="3.38" fill="rgba(180,240,255,0.23)"/><circle cx="246" cy="285" r="1.84" fill="rgba(180,240,255,0.41)"/><circle cx="450" cy="26" r="1.13" fill="rgba(180,240,255,0.23)"/><circle cx="709" cy="258" r="1.80" fill="rgba(180,240,255,0.32)"/><circle cx="69" cy="294" r="2.17" fill="rgba(180,240,255,0.33)"/><circle cx="895" cy="47" r="2.17" fill="rgba(180,240,255,0.23)"/><circle cx="550" cy="306" r="1.52" fill="rgba(180,240,255,0.19)"/><circle cx="634" cy="505" r="1.59" fill="rgba(180,240,255,0.25)"/><circle cx="892" cy="353" r="1.52" fill="rgba(180,240,255,0.16)"/><circle cx="577" cy="563" r="2.03" fill="rgba(180,240,255,0.29)"/><circle cx="1103" cy="561" r="2.34" fill="rgba(180,240,255,0.17)"/><circle cx="464" cy="649" r="3.27" fill="rgba(180,240,255,0.31)"/><circle cx="265" cy="315" r="2.59" fill="rgba(180,240,255,0.39)"/><circle cx="1164" cy="356" r="1.27" fill="rgba(180,240,255,0.16)"/><circle cx="1020" cy="573" r="2.30" fill="rgba(180,240,255,0.21)"/><circle cx="253" cy="374" r="3.27" fill="rgba(180,240,255,0.17)"/><circle cx="1000" cy="406" r="2.82" fill="rgba(180,240,255,0.17)"/><circle cx="201" cy="391" r="2.45" fill="rgba(180,240,255,0.32)"/><circle cx="669" cy="175" r="2.98" fill="rgba(180,240,255,0.25)"/></g>
  <rect width="1200" height="675" fill="rgba(190,220,255,0.06)"/>
  <rect width="1200" height="675" filter="url(#grain-85)"/>
  <rect width="1200" height="675" fill="url(#vignette-85)"/>
  <rect x="20" y="20" width="1160" height="635" rx="32" fill="none" stroke="rgba(155,220,255,0.24)"/>
</svg>