<?xml version="1.0" encoding="UTF-8"?>
<svg xmlns="http://www.w3.org/2000/svg" width="1200" height="675" viewBox="0 0 1200 675" role="img" aria-label="AIGC fallback cover 32" data-scene="scene-2">
  <defs>
    <linearGradient id="bg-32" x1="0" y1="0" x2="1" y2="1">
      <stop offset="0%" stop-color="hsl(257, 82%, 16%)"/>
      <stop offset="52%" stop-color="hsl(325, 84%, 23%)"/>
      <stop offset="100%" stop-color="hsl(16, 78%, 12%)"/>
    </linearGradient>
    <filter id="blur-32" x="-25%" y="-25%" width="150%" height="150%">
      <feGaussianBlur stdDeviation="26"/>
    </filter>
    <filter id="soft-32" x="-25%" y="-25%" width="150%" height="150%">
      <feGaussianBlur stdDeviation="10"/>
    </filter>
    <filter id="grain-32" x="0%" y="0%" width="100%" height="100%">
      <feTurbulence type="fractalNoise" baseFrequency="0.9" numOctaves="2" seed="416" stitchTiles="stitch"/>
      <feColorMatrix type="saturate" values="0"/>
      <feComponentTransfer>
        <feFuncA type="table" tableValues="0 0.05"/>
      </feComponentTransfer>
    </filter>
    <radialGradient id="vignette-32" cx="50%" cy="45%" r="70%">
      <stop offset="60%" stop-color="rgba(0,0,0,0)"/>
      <stop offset="100%" stop-color="rgba(0,0,0,0.45)"/>
    </radialGradient>
  </defs>

  <rect width="1200" height="675" fill="url(#bg-32)"/>
  <circle cx="893" cy="501" r="159" fill="hsl(257, 92%, 62%)" opacity="0.14" filter="url(#blur-32)"/><circle cx="811" cy="539" r="173" fill="hsl(283, 92%, 62%)" opacity="0.14" filter="url(#blur-32)"/><circle cx="708" cy="118" r="93" fill="hsl(309, 92%, 62%)" opacity="0.16" filter="url(#blur-32)"/>
  <circle cx="1038" cy="376" r="31" fill="rgba(210,240,255,0.14)" filter="url(#soft-32)"/><circle cx="698" cy="403" r="51" fill="rgba(210,240,255,0.15)" filter="url(#soft-32)"/><circle cx="124" cy="322" r="68" fill="rgba(210,240,255,0.09)" filter="url(#soft-32)"/><circle cx="414" cy="283" r="31" fill="rgba(210,240,255,0.10)" filter="url(#soft-32)"/><circle cx="538" cy="379" r="30" fill="rgba(210,240,255,0.15)" filter="url(#soft-32)"/><circle cx="693" cy="246" r="41" fill="rgba(210,240,255,0.08)" filter="url(#soft-32)"/><circle cx="537" cy="445" r="58" fill="rgba(210,240,255,0.09)" filter="url(#soft-32)"/><circle cx="735" cy="35" r="57" fill="rgba(210,240,255,0.15)" filter="url(#soft-32)"/>
  <polygon points="0,675 1200,675 1386,361 -186,361" fill="rgba(8,16,28,0.35)"/>
  <g id="scene-circuit"><line x1="1062" y1="86" x2="1140" y2="86" stroke="rgba(135,220,255,0.28)" stroke-width="3" stroke-linecap="round"/><line x1="577" y1="610" x2="723" y2="610" stroke="rgba(135,220,255,0.28)" stroke-width="2" stroke-linecap="round"/><line x1="1032" y1="455" x2="1140" y2="455" stroke="rgba(135,220,255,0.28)" stroke-width="4" stroke-linecap="round"/><line x1="687" y1="287" x2="687" y2="374" stroke="rgba(135,220,255,0.28)" stroke-width="4" stroke-linecap="round"/><line x1="366" y1="451" x2="508" y2="451" stroke="rgba(135,220,255,0.28)" stroke-width="6" stroke-linecap="round"/><line x1="619" y1="419" x2="740" y2="419" stroke="rgba(135,220,255,0.28)" stroke-width="5" stroke-linecap="round"/><line x1="578" y1="366" x2="745" y2="366" stroke="rgba(135,220,255,0.28)" stroke-width="2" stroke-linecap="round"/><line x1="513" y1="571" x2="513" y2="640" stroke="rgba(135,220,255,0.28)" stroke-width="3" stroke-linecap="round"/><line x1="187" y1="464" x2="187" y2="578" stroke="rgba(135,220,255,0.28)" stroke-width="6" stroke-linecap="round"/><line x1="1061" y1="435" x2="1061" y2="552" stroke="rgba(135,220,255,0.28)" stroke-width="2" stroke-linecap="round"/><line x1="251" y1="389" x2="340" y2="389" stroke="rgba(135,220,255,0.28)" stroke-width="6" stroke-linecap="round"/><line x1="884" y1="463" x2="884" y2="599" stroke="rgba(135,220,255,0.28)" stroke-width="2" stroke-linecap="round"/><line x1="805" y1="206" x2="973" y2="206" stroke="rgba(135,220,255,0.28)" stroke-width="4" stroke-linecap="round"/><line x1="930" y1="607" x2="1073" y2="607" stroke="rgba(135,220,255,0.28)" stroke-width="2" stroke-linecap="round"/><line x1="190" y1="182" x2="300" y2="182" stroke="rgba(135,220,255,0.28)" stroke-width="5" stroke-linecap="round"/><line x1="86" y1="599" x2="86" y2="640" stroke="rgba(135,220,255,0.28)" stroke-width="3" stroke-linecap="round"/><line x1="719" y1="90" x2="719" y2="230" stroke="rgba(135,220,255,0.28)" stroke-width="2" stroke-linecap="round"/><rect x="741" y="90" width="164" height="77" rx="12" fill="rgba(12,28,60,0.48)" stroke="hsl(257, 90%, 70%)" opacity="0.78"/><rect x="775" y="497" width="111" height="80" rx="12" fill="rgba(12,28,60,0.48)" stroke="hsl(268, 90%, 70%)" opacity="0.78"/><rect x="571" y="332" width="118" height="77" rx="12" fill="rgba(12,28,60,0.48)" stroke="hsl(279, 90%, 70%)" opacity="0.78"/><rect x="185" y="455" width="133" height="53" rx="12" fill="rgba(12,28,60,0.48)" stroke="hsl(290, 90%, 70%)" opacity="0.78"/><rect x="449" y="492" width="119" height="81" rx="12" fill="rgba(12,28,60,0.48)" stroke="hsl(301, 90%, 70%)" opacity="0.78"/></g>
  <g id="scene-sparkles"><circle cx="791" cy="452" r="2.09" fill="rgba(180,240,255,0.37)"/><circle cx="787" cy="106" r="1.69" fill="rgba(180,240,255,0.24)"/><circle cx="385" cy="389" r="2.51" fill="rgba(180,240,255,0.45)"/><circle cx="121" cy="51" r="2.41" fill="rgba(180,240,255,0.24)"/><circle cx="686" cy="609" r="1.71" fill="rgba(180,240,255,0.27)"/><circle cx="938" cy="649" r="1.26" fill="rgba(180,240,255,0.22)"/><circle cx="87" cy="634" r="1.44" fill="rgba(180,240,255,0.45)"/><circle cx="46" cy="186" r="1.86" fill="rgba(180,240,255,0.39)"/><circle cx="255" cy="325" r="2.79" fill="rgba(180,240,255,0.18)"/><circle cx="901" cy="189" r="2.92" fill="rgba(180,240,255,0.25)"/><circle cx="380" cy="565" r="2.02" fill="rgba(180,240,255,0.34)"/><circle cx="332" cy="606" r="2.22" fill="rgba(180,240,255,0.20)"/><circle cx="912" cy="579" r="1.17" fill="rgba(180,240,255,0.24)"/><circle cx="237" cy="76" r="3.26" fill="rgba(180,240,255,0.45)"/><circle cx="274" cy="416" r="1.70" fill="rgba(180,240,255,0.34)"/><circle cx="972" cy="263" r="2.67" fill="rgba(180,240,255,0.16)"/><circle cx="651" cy="625" r="2.72" fill="rgba(180,240,255,0.37)"/></g>
  <rect width="1200" height="675" fill="rgba(190,220,255,0.06)"/>
  <rect width="1200" height="675" filter="url(#grain-32)"/>
  <rect width="1200" height="675" fill="url(#vignette-32)"/>
  <rect x="20" y="20" width="1160" height="635" rx="32" fill="none" stroke="rgba(155,220,255,0.24)"/>
</svg>