<?xml version="1.0" encoding="UTF-8"?>
<svg xmlns="http://www.w3.org/2000/svg" width="1200" height="675" viewBox="0 0 1200 675" role="img" aria-label="AIGC fallback cover 36" data-scene="scene-6">
  <defs>
    <linearGradient id="bg-36" x1="0" y1="0" x2="1" y2="1">
      <stop offset="0%" stop-color="hsl(62, 82%, 16%)"/>
      <stop offset="52%" stop-color="hsl(128, 84%, 23%)"/>
      <stop offset="100%" stop-color="hsl(194, 78%, 12%)"/>
    </linearGradient>
    <filter id="blur-36" x="-25%" y="-25%" width="150%" height="150%">
      <feGaussianBlur stdDeviation="26"/>
    </filter>
    <filter id="soft-36" x="-25%" y="-25%" width="150%" height="150%">
      <feGaussianBlur stdDeviation="10"/>
    </filter>
    <filter id="grain-36" x="0%" y="0%" width="100%" height="100%">
      <feTurbulence type="fractalNoise" baseFrequency="0.9" numOctaves="2" seed="468" stitchTiles="stitch"/>
      <feColorMatrix type="saturate" values="0"/>
      <feComponentTransfer>
        <feFuncA type="table" tableValues="0 0.05"/>
      </feComponentTransfer>
    </filter>
    <radialGradient id="vignette-36" cx="50%" cy="45%" r="70%">
      <stop offset="60%" stop-color="rgba(0,0,0,0)"/>
      <stop offset="100%" stop-color="rgba(0,0,0,0.45)"/>
    </radialGradient>
  </defs>

  <rect width="1200" height="675" fill="url(#bg-36)"/>
  <circle cx="412" cy="427" r="177" fill="hsl(62, 92%, 62%)" opacity="0.18" filter="url(#blur-36)"/><circle cx="986" cy="164" r="121" fill="hsl(88, 92%, 62%)" opacity="0.13" filter="url(#blur-36)"/><circle cx="1106" cy="504" r="107" fill="hsl(114, 92%, 62%)" opacity="0.10" filter="url(#blur-36)"/>
  <circle cx="662" cy="406" r="29" fill="rgba(210,240,255,0.12)" filter="url(#soft-36)"/><circle cx="971" cy="372" r="46" fill="rgba(210,240,255,0.13)" filter="url(#soft-36)"/><circle cx="807" cy="261" r="38" fill="rgba(210,240,255,0.11)" filter="url(#soft-36)"/><circle cx="898" cy="449" r="57" fill="rgba(210,240,255,0.07)" filter="url(#soft-36)"/><circle cx="187" cy="272" r="45" fill="rgba(210,240,255,0.09)" filter="url(#soft-36)"/><circle cx="175" cy="203" r="52" fill="rgba(210,240,255,0.11)" filter="url(#soft-36)"/><circle cx="815" cy="254" r="68" fill="rgba(210,240,255,0.12)" filter="url(#soft-36)"/><circle cx="1135" cy="380" r="38" fill="rgba(210,240,255,0.11)" filter="url(#soft-36)"/><circle cx="686" cy="74" r="24" fill="rgba(210,240,255,0.07)" filter="url(#soft-36)"/>
  <polygon points="0,675 1200,675 1380,390 -180,390" fill="rgba(8,16,28,0.35)"/>
  <g id="scene-cloud-pipeline"><g><circle cx="349" cy="201" r="30" fill="rgba(180,220,255,0.42)"/><circle cx="399" cy="193" r="32" fill="rgba(180,220,255,0.36)"/><rect x="327" y="209" width="70" height="22" rx="11" fill="rgba(170,220,255,0.3)"/></g><g><circle cx="660" cy="109" r="34" fill="rgba(180,220,255,0.42)"/><circle cx="701" cy="112" r="21" fill="rgba(180,220,255,0.36)"/><rect x="638" y="117" width="96" height="22" rx="11" fill="rgba(170,220,255,0.3)"/></g><g><circle cx="905" cy="259" r="30" fill="rgba(180,220,255,0.42)"/><circle cx="934" cy="252" r="29" fill="rgba(180,220,255,0.36)"/><rect x="883" y="267" width="90" height="22" rx="11" fill="rgba(170,220,255,0.3)"/></g><g><circle cx="877" cy="167" r="26" fill="rgba(180,220,255,0.42)"/><circle cx="907" cy="165" r="34" fill="rgba(180,220,255,0.36)"/><rect x="855" y="175" width="98" height="22" rx="11" fill="rgba(170,220,255,0.3)"/></g><g><circle cx="423" cy="140" r="38" fill="rgba(180,220,255,0.42)"/><circle cx="466" cy="144" r="21" fill="rgba(180,220,255,0.36)"/><rect x="401" y="148" width="106" height="22" rx="11" fill="rgba(170,220,255,0.3)"/></g><path d="M 1041 438 h 81 v 81 h -99" fill="none" stroke="rgba(120,255,210,0.34)" stroke-width="7" stroke-linecap="round"/><path d="M 719 484 h 119 v 30 h 19" fill="none" stroke="rgba(120,255,210,0.34)" stroke-width="6" stroke-linecap="round"/><path d="M 136 517 h 44 v 74 h -45" fill="none" stroke="rgba(120,255,210,0.34)" stroke-width="8" stroke-linecap="round"/><path d="M 703 188 h 138 v 36 h 104" fill="none" stroke="rgba(120,255,210,0.34)" stroke-width="8" stroke-linecap="round"/><path d="M 545 462 h 131 v 88 h 91" fill="none" stroke="rgba(120,255,210,0.34)" stroke-width="6" stroke-linecap="round"/><path d="M 757 485 h 78 v 78 h 44" fill="none" stroke="rgba(120,255,210,0.34)" stroke-width="5" stroke-linecap="round"/><path d="M 414 514 h 93 v 34 h 80" fill="none" stroke="rgba(120,255,210,0.34)" stroke-width="4" stroke-linecap="round"/></g>
  <g id="scene-sparkles"><circle cx="684" cy="497" r="3.18" fill="rgba(180,240,255,0.36)"/><circle cx="717" cy="484" r="2.46" fill="rgba(180,240,255,0.29)"/><circle cx="1103" cy="480" r="2.49" fill="rgba(180,240,255,0.22)"/><circle cx="433" cy="352" r="3.13" fill="rgba(180,240,255,0.22)"/><circle cx="409" cy="395" r="1.89" fill="rgba(180,240,255,0.20)"/><circle cx="121" cy="542" r="3.24" fill="rgba(180,240,255,0.22)"/><circle cx="229" cy="471" r="1.60" fill="rgba(180,240,255,0.16)"/><circle cx="493" cy="314" r="1.20" fill="rgba(180,240,255,0.35)"/><circle cx="257" cy="209" r="2.33" fill="rgba(180,240,255,0.34)"/><circle cx="132" cy="619" r="2.15" fill="rgba(180,240,255,0.35)"/><circle cx="578" cy="348" r="2.28" fill="rgba(180,240,255,0.41)"/><circle cx="880" cy="424" r="2.91" fill="rgba(180,240,255,0.39)"/><circle cx="240" cy="487" r="3.01" fill="rgba(180,240,255,0.21)"/><circle cx="1083" cy="231" r="3.38" fill="rgba(180,240,255,0.19)"/><circle cx="166" cy="417" r="1.28" fill="rgba(180,240,255,0.19)"/><circle cx="1022" cy="280" r="3.33" fill="rgba(180,240,255,0.44)"/><circle cx="213" cy="103" r="2.14" fill="rgba(180,240,255,0.17)"/><circle cx="343" cy="564" r="3.06" fill="rgba(180,240,255,0.34)"/><circle cx="816" cy="43" r="1.95" fill="rgba(180,240,255,0.31)"/><circle cx="462" cy="378" r="2.29" fill="rgba(180,240,255,0.39)"/><circle cx="175" cy="447" r="2.50" fill="rgba(180,240,255,0.23)"/></g>
  <rect width="1200" height="675" fill="rgba(190,220,255,0.06)"/>
  <rect width="1200" height="675" filter="url(#grain-36)"/>
  <rect width="1200" height="675" fill="url(#vignette-36)"/>
  <rect x="20" y="20" width="1160" height="635" rx="32" fill="none" stroke="rgba(155,220,255,0.24)"/>
</svg>