<?xml version="1.0" encoding="UTF-8"?>
<svg xmlns="http://www.w3.org/2000/svg" width="1200" height="675" viewBox="0 0 1200 675" role="img" aria-label="Fallback cover 2" data-scene="landscape-2">
  
  <defs>
    <linearGradient id="sky-2" x1="0" y1="0" x2="0" y2="1">
      <stop offset="0%" stop-color="hsl(50, 70%, 74%)"/>
      <stop offset="55%" stop-color="hsl(98, 64%, 56%)"/>
      <stop offset="100%" stop-color="hsl(124, 46%, 34%)"/>
    </linearGradient>
    <filter id="grain-2" x="0%" y="0%" width="100%" height="100%">
      <feTurbulence type="fractalNoise" baseFrequency="0.85" numOctaves="2" seed="34" stitchTiles="stitch"/>
      <feColorMatrix type="saturate" values="0"/>
      <feComponentTransfer><feFuncA type="table" tableValues="0 0.05"/></feComponentTransfer>
    </filter>
    <filter id="soft-2" x="-30%" y="-30%" width="160%" height="160%">
      <feGaussianBlur stdDeviation="12"/>
    </filter>
    <radialGradient id="vignette-2" cx="50%" cy="45%" r="72%">
      <stop offset="60%" stop-color="rgba(0,0,0,0)"/>
      <stop offset="100%" stop-color="rgba(0,0,0,0.42)"/>
    </radialGradient>
  </defs>
  <rect width="1200" height="675" fill="url(#sky-2)"/>
  <path d="M -40 466 C 260 487, 460 604, 1240 517 L 1240 700 L -40 700 Z" fill="rgba(135,205,240,0.42)"/><g><rect x="1120" y="254" width="8" height="158" fill="rgba(55,35,20,0.55)"/><circle cx="1124" cy="254" r="20" fill="hsl(53, 42%, 35%)" opacity="0.85"/></g><g><rect x="499" y="238" width="8" height="162" fill="rgba(55,35,20,0.55)"/><circle cx="503" cy="238" r="21" fill="hsl(32, 42%, 40%)" opacity="0.85"/></g><g><rect x="1194" y="231" width="8" height="170" fill="rgba(55,35,20,0.55)"/><circle cx="1198" cy="231" r="21" fill="hsl(30, 42%, 37%)" opacity="0.85"/></g><g><rect x="949" y="401" width="8" height="97" fill="rgba(55,35,20,0.55)"/><circle cx="953" cy="401" r="27" fill="hsl(59, 42%, 28%)" opacity="0.85"/></g><g><rect x="895" y="487" width="8" height="100" fill="rgba(55,35,20,0.55)"/><circle cx="899" cy="487" r="26" fill="hsl(70, 42%, 39%)" opacity="0.85"/></g><g><rect x="24" y="351" width="8" height="171" fill="rgba(55,35,20,0.55)"/><circle cx="28" cy="351" r="27" fill="hsl(70, 42%, 41%)" opacity="0.85"/></g><g><rect x="68" y="446" width="8" height="169" fill="rgba(55,35,20,0.55)"/><circle cx="72" cy="446" r="39" fill="hsl(46, 42%, 38%)" opacity="0.85"/></g><g><rect x="331" y="402" width="8" height="70" fill="rgba(55,35,20,0.55)"/><circle cx="335" cy="402" r="32" fill="hsl(32, 42%, 43%)" opacity="0.85"/></g><g><rect x="324" y="453" width="8" height="116" fill="rgba(55,35,20,0.55)"/><circle cx="328" cy="453" r="36" fill="hsl(55, 42%, 41%)" opacity="0.85"/></g><g><rect x="826" y="220" width="8" height="107" fill="rgba(55,35,20,0.55)"/><circle cx="830" cy="220" r="35" fill="hsl(63, 42%, 40%)" opacity="0.85"/></g><g><rect x="1196" y="479" width="8" height="142" fill="rgba(55,35,20,0.55)"/><circle cx="1200" cy="479" r="25" fill="hsl(61, 42%, 39%)" opacity="0.85"/></g><g><rect x="670" y="452" width="8" height="72" fill="rgba(55,35,20,0.55)"/><circle cx="674" cy="452" r="30" fill="hsl(32, 42%, 39%)" opacity="0.85"/></g><g><rect x="1116" y="467" width="8" height="99" fill="rgba(55,35,20,0.55)"/><circle cx="1120" cy="467" r="39" fill="hsl(49, 42%, 44%)" opacity="0.85"/></g><g><rect x="297" y="482" width="8" height="158" fill="rgba(55,35,20,0.55)"/><circle cx="301" cy="482" r="26" fill="hsl(30, 42%, 28%)" opacity="0.85"/></g><g><rect x="228" y="276" width="8" height="153" fill="rgba(55,35,20,0.55)"/><circle cx="232" cy="276" r="25" fill="hsl(59, 42%, 32%)" opacity="0.85"/></g><g><rect x="671" y="478" width="8" height="170" fill="rgba(55,35,20,0.55)"/><circle cx="675" cy="478" r="32" fill="hsl(49, 42%, 37%)" opacity="0.85"/></g><g><rect x="129" y="491" width="8" height="179" fill="rgba(55,35,20,0.55)"/><circle cx="133" cy="491" r="29" fill="hsl(52, 42%, 33%)" opacity="0.85"/></g><g><rect x="59" y="397" width="8" height="118" fill="rgba(55,35,20,0.55)"/><circle cx="63" cy="397" r="34" fill="hsl(57, 42%, 43%)" opacity="0.85"/></g><g><rect x="702" y="368" width="8" height="112" fill="rgba(55,35,20,0.55)"/><circle cx="706" cy="368" r="30" fill="hsl(35, 42%, 36%)" opacity="0.85"/></g><g><rect x="46" y="443" width="8" height="118" fill="rgba(55,35,20,0.55)"/><circle cx="50" cy="443" r="35" fill="hsl(31, 42%, 36%)" opacity="0.85"/></g><g><rect x="181" y="466" width="8" height="104" fill="rgba(55,35,20,0.55)"/><circle cx="185" cy="466" r="23" fill="hsl(64, 42%, 31%)" opacity="0.85"/></g><g><rect x="503" y="325" width="8" height="154" fill="rgba(55,35,20,0.55)"/><circle cx="507" cy="325" r="42" fill="hsl(59, 42%, 40%)" opacity="0.85"/></g><g><rect x="739" y="489" width="8" height="101" fill="rgba(55,35,20,0.55)"/><circle cx="743" cy="489" r="31" fill="hsl(52, 42%, 44%)" opacity="0.85"/></g><g><rect x="466" y="292" width="8" height="119" fill="rgba(55,35,20,0.55)"/><circle cx="470" cy="292" r="19" fill="hsl(58, 42%, 32%)" opacity="0.85"/></g><g><rect x="1076" y="327" width="8" height="168" fill="rgba(55,35,20,0.55)"/><circle cx="1080" cy="327" r="32" fill="hsl(32, 42%, 34%)" opacity="0.85"/></g><g><rect x="435" y="438" width="8" height="145" fill="rgba(55,35,20,0.55)"/><circle cx="439" cy="438" r="32" fill="hsl(43, 42%, 40%)" opacity="0.85"/></g><g><rect x="7" y="419" width="8" height="166" fill="rgba(55,35,20,0.55)"/><circle cx="11" cy="419" r="37" fill="hsl(64, 42%, 33%)" opacity="0.85"/></g><g><rect x="708" y="431" width="8" height="155" fill="rgba(55,35,20,0.55)"/><circle cx="712" cy="431" r="42" fill="hsl(40, 42%, 42%)" opacity="0.85"/></g>
  <g id="scene-sparkles"><circle cx="781" cy="517" r="2.33" fill="rgba(245,250,255,0.30)"/><circle cx="450" cy="268" r="1.46" fill="rgba(245,250,255,0.23)"/><circle cx="963" cy="178" r="2.62" fill="rgba(245,250,255,0.38)"/><circle cx="52" cy="59" r="2.75" fill="rgba(245,250,255,0.27)"/><circle cx="794" cy="203" r="1.96" fill="rgba(245,250,255,0.28)"/><circle cx="1159" cy="310" r="2.09" fill="rgba(245,250,255,0.17)"/><circle cx="261" cy="148" r="2.03" fill="rgba(245,250,255,0.20)"/><circle cx="746" cy="508" r="2.04" fill="rgba(245,250,255,0.31)"/><circle cx="96" cy="318" r="2.04" fill="rgba(245,250,255,0.40)"/><circle cx="936" cy="280" r="1.50" fill="rgba(245,250,255,0.27)"/><circle cx="340" cy="491" r="2.05" fill="rgba(245,250,255,0.32)"/><circle cx="678" cy="226" r="2.52" fill="rgba(245,250,255,0.19)"/><circle cx="36" cy="123" r="2.60" fill="rgba(245,250,255,0.34)"/><circle cx="843" cy="572" r="1.60" fill="rgba(245,250,255,0.20)"/><circle cx="658" cy="625" r="1.67" fill="rgba(245,250,255,0.20)"/><circle cx="642" cy="282" r="1.79" fill="rgba(245,250,255,0.36)"/><circle cx="692" cy="57" r="1.89" fill="rgba(245,250,255,0.32)"/><circle cx="359" cy="543" r="1.47" fill="rgba(245,250,255,0.33)"/><circle cx="323" cy="67" r="2.50" fill="rgba(245,250,255,0.35)"/><circle cx="709" cy="579" r="1.38" fill="rgba(245,250,255,0.31)"/><circle cx="908" cy="308" r="1.47" fill="rgba(245,250,255,0.35)"/><circle cx="145" cy="267" r="2.09" fill="rgba(245,250,255,0.32)"/><circle cx="762" cy="272" r="1.65" fill="rgba(245,250,255,0.24)"/><circle cx="599" cy="340" r="2.01" fill="rgba(245,250,255,0.32)"/><circle cx="1058" cy="635" r="1.03" fill="rgba(245,250,255,0.23)"/><circle cx="367" cy="114" r="1.30" fill="rgba(245,250,255,0.19)"/><circle cx="263" cy="86" r="0.84" fill="rgba(245,250,255,0.22)"/><circle cx="365" cy="455" r="2.57" fill="rgba(245,250,255,0.16)"/><circle cx="893" cy="35" r="2.06" fill="rgba(245,250,255,0.26)"/><circle cx="227" cy="627" r="1.59" fill="rgba(245,250,255,0.15)"/><circle cx="130" cy="303" r="2.76" fill="rgba(245,250,255,0.35)"/></g>
  <rect width="1200" height="675" filter="url(#grain-2)"/>
  <rect width="1200" height="675" fill="url(#vignette-2)"/>
</svg>