<?xml version="1.0" encoding="UTF-8"?>
<svg xmlns="http://www.w3.org/2000/svg" width="1200" height="675" viewBox="0 0 1200 675" role="img" aria-label="AIGC fallback cover 12" data-scene="scene-2">
  <defs>
    <linearGradient id="bg-12" x1="0" y1="0" x2="1" y2="1">
      <stop offset="0%" stop-color="hsl(154, 82%, 16%)"/>
      <stop offset="52%" stop-color="hsl(205, 84%, 23%)"/>
      <stop offset="100%" stop-color="hsl(323, 78%, 12%)"/>
    </linearGradient>
    <filter id="blur-12" x="-25%" y="-25%" width="150%" height="150%">
      <feGaussianBlur stdDeviation="26"/>
    </filter>
    <filter id="soft-12" x="-25%" y="-25%" width="150%" height="150%">
      <feGaussianBlur stdDeviation="10"/>
    </filter>
    <filter id="grain-12" x="0%" y="0%" width="100%" height="100%">
      <feTurbulence type="fractalNoise" baseFrequency="0.9" numOctaves="2" seed="156" stitchTiles="stitch"/>
      <feColorMatrix type="saturate" values="0"/>
      <feComponentTransfer>
        <feFuncA type="table" tableValues="0 0.05"/>
      </feComponentTransfer>
    </filter>
    <radialGradient id="vignette-12" cx="50%" cy="45%" r="70%">
      <stop offset="60%" stop-color="rgba(0,0,0,0)"/>
      <stop offset="100%" stop-color="rgba(0,0,0,0.45)"/>
    </radialGradient>
  </defs>

  <rect width="1200" height="675" fill="url(#bg-12)"/>
  <circle cx="256" cy="604" r="122" fill="hsl(154, 92%, 62%)" opacity="0.08" filter="url(#blur-12)"/><circle cx="411" cy="498" r="216" fill="hsl(180, 92%, 62%)" opacity="0.10" filter="url(#blur-12)"/><circle cx="1055" cy="330" r="215" fill="hsl(206, 92%, 62%)" opacity="0.18" filter="url(#blur-12)"/>
  <circle cx="1145" cy="383" r="49" fill="rgba(210,240,255,0.11)" filter="url(#soft-12)"/><circle cx="901" cy="380" r="21" fill="rgba(210,240,255,0.10)" filter="url(#soft-12)"/><circle cx="707" cy="36" r="21" fill="rgba(210,240,255,0.12)" filter="url(#soft-12)"/><circle cx="251" cy="191" r="60" fill="rgba(210,240,255,0.15)" filter="url(#soft-12)"/><circle cx="1127" cy="404" r="66" fill="rgba(210,240,255,0.10)" filter="url(#soft-12)"/><circle cx="348" cy="406" r="69" fill="rgba(210,240,255,0.11)" filter="url(#soft-12)"/><circle cx="1152" cy="344" r="31" fill="rgba(210,240,255,0.09)" filter="url(#soft-12)"/>
  <polygon points="0,675 1200,675 1001,394 199,394" fill="rgba(8,16,28,0.35)"/>
  <g id="scene-circuit"><line x1="347" y1="185" x2="347" y2="397" stroke="rgba(135,220,255,0.28)" stroke-width="3" stroke-linecap="round"/><line x1="1120" y1="284" x2="1140" y2="284" stroke="rgba(135,220,255,0.28)" stroke-width="5" stroke-linecap="round"/><line x1="147" y1="196" x2="333" y2="196" stroke="rgba(135,220,255,0.28)" stroke-width="3" stroke-linecap="round"/><line x1="353" y1="325" x2="566" y2="325" stroke="rgba(135,220,255,0.28)" stroke-width="6" stroke-linecap="round"/><line x1="539" y1="75" x2="539" y2="159" stroke="rgba(135,220,255,0.28)" stroke-width="5" stroke-linecap="round"/><line x1="720" y1="172" x2="883" y2="172" stroke="rgba(135,220,255,0.28)" stroke-width="5" stroke-linecap="round"/><line x1="1084" y1="516" x2="1140" y2="516" stroke="rgba(135,220,255,0.28)" stroke-width="3" stroke-linecap="round"/><line x1="582" y1="572" x2="582" y2="640" stroke="rgba(135,220,255,0.28)" stroke-width="3" stroke-linecap="round"/><line x1="1068" y1="265" x2="1068" y2="335" stroke="rgba(135,220,255,0.28)" stroke-width="2" stroke-linecap="round"/><line x1="1073" y1="199" x2="1140" y2="199" stroke="rgba(135,220,255,0.28)" stroke-width="5" stroke-linecap="round"/><line x1="155" y1="592" x2="155" y2="640" stroke="rgba(135,220,255,0.28)" stroke-width="5" stroke-linecap="round"/><line x1="812" y1="112" x2="918" y2="112" stroke="rgba(135,220,255,0.28)" stroke-width="4" stroke-linecap="round"/><line x1="928" y1="552" x2="1043" y2="552" stroke="rgba(135,220,255,0.28)" stroke-width="6" stroke-linecap="round"/><line x1="335" y1="99" x2="431" y2="99" stroke="rgba(135,220,255,0.28)" stroke-width="2" stroke-linecap="round"/><line x1="96" y1="109" x2="96" y2="240" stroke="rgba(135,220,255,0.28)" stroke-width="5" stroke-linecap="round"/><line x1="995" y1="346" x2="1140" y2="346" stroke="rgba(135,220,255,0.28)" stroke-width="3" stroke-linecap="round"/><line x1="721" y1="312" x2="721" y2="461" stroke="rgba(135,220,255,0.28)" stroke-width="3" stroke-linecap="round"/><line x1="445" y1="618" x2="445" y2="640" stroke="rgba(135,220,255,0.28)" stroke-width="5" stroke-linecap="round"/><line x1="1094" y1="606" x2="1140" y2="606" stroke="rgba(135,220,255,0.28)" stroke-width="5" stroke-linecap="round"/><line x1="176" y1="522" x2="395" y2="522" stroke="rgba(135,220,255,0.28)" stroke-width="6" stroke-linecap="round"/><line x1="737" y1="256" x2="859" y2="256" stroke="rgba(135,220,255,0.28)" stroke-width="3" stroke-linecap="round"/><line x1="433" y1="428" x2="433" y2="565" stroke="rgba(135,220,255,0.28)" stroke-width="5" stroke-linecap="round"/><line x1="450" y1="348" x2="450" y2="532" stroke="rgba(135,220,255,0.28)" stroke-width="6" stroke-linecap="round"/><rect x="491" y="308" width="129" height="86" rx="12" fill="rgba(12,28,60,0.48)" stroke="hsl(154, 90%, 70%)" opacity="0.78"/><rect x="453" y="266" width="128" height="67" rx="12" fill="rgba(12,28,60,0.48)" stroke="hsl(165, 90%, 70%)" opacity="0.78"/><rect x="618" y="96" width="82" height="89" rx="12" fill="rgba(12,28,60,0.48)" stroke="hsl(176, 90%, 70%)" opacity="0.78"/><rect x="675" y="369" width="152" height="64" rx="12" fill="rgba(12,28,60,0.48)" stroke="hsl(187, 90%, 70%)" opacity="0.78"/></g>
  <g id="scene-sparkles"><circle cx="382" cy="549" r="2.96" fill="rgba(180,240,255,0.28)"/><circle cx="399" cy="69" r="2.94" fill="rgba(180,240,255,0.31)"/><circle cx="301" cy="486" r="1.94" fill="rgba(180,240,255,0.17)"/><circle cx="1005" cy="601" r="1.89" fill="rgba(180,240,255,0.30)"/><circle cx="534" cy="402" r="2.56" fill="rgba(180,240,255,0.44)"/><circle cx="314" cy="527" r="3.28" fill="rgba(180,240,255,0.32)"/><circle cx="27" cy="398" r="3.16" fill="rgba(180,240,255,0.18)"/><circle cx="108" cy="273" r="2.91" fill="rgba(180,240,255,0.42)"/><circle cx="991" cy="178" r="1.30" fill="rgba(180,240,255,0.28)"/><circle cx="550" cy="475" r="1.47" fill="rgba(180,240,255,0.41)"/><circle cx="476" cy="233" r="3.21" fill="rgba(180,240,255,0.31)"/><circle cx="487" cy="62" r="2.84" fill="rgba(180,240,255,0.24)"/><circle cx="140" cy="94" r="2.99" fill="rgba(180,240,255,0.17)"/><circle cx="927" cy="443" r="1.32" fill="rgba(180,240,255,0.35)"/><circle cx="1044" cy="488" r="2.45" fill="rgba(180,240,255,0.29)"/><circle cx="890" cy="180" r="1.91" fill="rgba(180,240,255,0.28)"/><circle cx="562" cy="171" r="1.28" fill="rgba(180,240,255,0.29)"/><circle cx="538" cy="138" r="1.36" fill="rgba(180,240,255,0.40)"/><circle cx="708" cy="561" r="1.14" fill="rgba(180,240,255,0.30)"/><circle cx="814" cy="424" r="2.75" fill="rgba(180,240,255,0.40)"/></g>
  <rect width="1200" height="675" fill="rgba(190,220,255,0.06)"/>
  <rect width="1200" height="675" filter="url(#grain-12)"/>
  <rect width="1200" height="675" fill="url(#vignette-12)"/>
  <rect x="20" y="20" width="1160" height="635" rx="32" fill="none" stroke="rgba(155,220,255,0.24)"/>
</svg>