<?xml version="1.0" encoding="UTF-8"?>
<svg xmlns="http://www.w3.org/2000/svg" width="1200" height="675" viewBox="0 0 1200 675" role="img" aria-label="AIGC fallback cover 21" data-scene="scene-1">
  <defs>
    <linearGradient id="bg-21" x1="0" y1="0" x2="1" y2="1">
      <stop offset="0%" stop-color="hsl(151, 82%, 16%)"/>
      <stop offset="52%" stop-color="hsl(222, 84%, 23%)"/>
      <stop offset="100%" stop-color="hsl(266, 78%, 12%)"/>
    </linearGradient>
    <filter id="blur-21" x="-25%" y="-25%" width="150%" height="150%">
      <feGaussianBlur stdDeviation="26"/>
    </filter>
    <filter id="soft-21" x="-25%" y="-25%" width="150%" height="150%">
      <feGaussianBlur stdDeviation="10"/>
    </filter>
    <filter id="grain-21" x="0%" y="0%" width="100%" height="100%">
      <feTurbulence type="fractalNoise" baseFrequency="0.9" numOctaves="2" seed="273" stitchTiles="stitch"/>
      <feColorMatrix type="saturate" values="0"/>
      <feComponentTransfer>
        <feFuncA type="table" tableValues="0 0.05"/>
      </feComponentTransfer>
    </filter>
    <radialGradient id="vignette-21" cx="50%" cy="45%" r="70%">
      <stop offset="60%" stop-color="rgba(0,0,0,0)"/>
      <stop offset="100%" stop-color="rgba(0,0,0,0.45)"/>
    </radialGradient>
  </defs>

  <rect width="1200" height="675" fill="url(#bg-21)"/>
  <circle cx="299" cy="109" r="105" fill="hsl(151, 92%, 62%)" opacity="0.14" filter="url(#blur-21)"/><circle cx="292" cy="570" r="140" fill="hsl(177, 92%, 62%)" opacity="0.14" filter="url(#blur-21)"/><circle cx="152" cy="216" r="143" fill="hsl(203, 92%, 62%)" opacity="0.14" filter="url(#blur-21)"/>
  <circle cx="355" cy="452" r="53" fill="rgba(210,240,255,0.08)" filter="url(#soft-21)"/><circle cx="503" cy="355" r="23" fill="rgba(210,240,255,0.11)" filter="url(#soft-21)"/><circle cx="191" cy="157" r="26" fill="rgba(210,240,255,0.16)" filter="url(#soft-21)"/><circle cx="110" cy="44" r="32" fill="rgba(210,240,255,0.15)" filter="url(#soft-21)"/><circle cx="93" cy="187" r="33" fill="rgba(210,240,255,0.15)" filter="url(#soft-21)"/><circle cx="867" cy="318" r="38" fill="rgba(210,240,255,0.16)" filter="url(#soft-21)"/><circle cx="356" cy="134" r="66" fill="rgba(210,240,255,0.06)" filter="url(#soft-21)"/><circle cx="1033" cy="383" r="52" fill="rgba(210,240,255,0.11)" filter="url(#soft-21)"/><circle cx="919" cy="203" r="60" fill="rgba(210,240,255,0.14)" filter="url(#soft-21)"/><circle cx="477" cy="333" r="50" fill="rgba(210,240,255,0.13)" filter="url(#soft-21)"/>
  <polygon points="0,675 1200,675 1078,376 122,376" fill="rgba(8,16,28,0.35)"/>
  <g id="scene-nodes"><line x1="694" y1="192" x2="1075" y2="238" stroke="rgba(145,245,255,0.64)" stroke-width="3"/><line x1="1075" y1="238" x2="895" y2="196" stroke="rgba(145,245,255,0.64)" stroke-width="3"/><line x1="895" y1="196" x2="861" y2="282" stroke="rgba(145,245,255,0.64)" stroke-width="2"/><line x1="895" y1="196" x2="869" y2="131" stroke="rgba(145,245,255,0.64)" stroke-width="3"/><circle cx="694" cy="192" r="18" fill="hsl(151, 88%, 72%)" opacity="0.86"/><circle cx="1075" cy="238" r="12" fill="hsl(160, 88%, 72%)" opacity="0.86"/><circle cx="895" cy="196" r="16" fill="hsl(169, 88%, 72%)" opacity="0.86"/><circle cx="861" cy="282" r="10" fill="hsl(178, 88%, 72%)" opacity="0.86"/><circle cx="869" cy="131" r="17" fill="hsl(187, 88%, 72%)" opacity="0.86"/></g>
  <g id="scene-sparkles"><circle cx="76" cy="149" r="1.79" fill="rgba(180,240,255,0.22)"/><circle cx="1101" cy="65" r="2.05" fill="rgba(180,240,255,0.33)"/><circle cx="213" cy="114" r="2.89" fill="rgba(180,240,255,0.37)"/><circle cx="199" cy="363" r="1.28" fill="rgba(180,240,255,0.24)"/><circle cx="318" cy="489" r="2.77" fill="rgba(180,240,255,0.24)"/><circle cx="1076" cy="68" r="2.29" fill="rgba(180,240,255,0.31)"/><circle cx="80" cy="450" r="2.97" fill="rgba(180,240,255,0.18)"/><circle cx="282" cy="202" r="2.86" fill="rgba(180,240,255,0.16)"/><circle cx="978" cy="67" r="1.66" fill="rgba(180,240,255,0.20)"/><circle cx="551" cy="178" r="2.91" fill="rgba(180,240,255,0.38)"/><circle cx="281" cy="437" r="2.53" fill="rgba(180,240,255,0.21)"/><circle cx="1141" cy="605" r="1.28" fill="rgba(180,240,255,0.41)"/><circle cx="586" cy="615" r="1.65" fill="rgba(180,240,255,0.37)"/><circle cx="814" cy="433" r="1.99" fill="rgba(180,240,255,0.20)"/><circle cx="200" cy="384" r="1.98" fill="rgba(180,240,255,0.21)"/><circle cx="590" cy="551" r="2.25" fill="rgba(180,240,255,0.23)"/><circle cx="210" cy="119" r="1.97" fill="rgba(180,240,255,0.28)"/><circle cx="983" cy="306" r="2.23" fill="rgba(180,240,255,0.20)"/><circle cx="1048" cy="302" r="1.74" fill="rgba(180,240,255,0.30)"/><circle cx="1053" cy="99" r="2.54" fill="rgba(180,240,255,0.40)"/><circle cx="1148" cy="643" r="2.32" fill="rgba(180,240,255,0.35)"/><circle cx="1120" cy="345" r="2.63" fill="rgba(180,240,255,0.40)"/><circle cx="518" cy="252" r="2.02" fill="rgba(180,240,255,0.41)"/><circle cx="510" cy="206" r="2.13" fill="rgba(180,240,255,0.26)"/><circle cx="82" cy="324" r="2.35" fill="rgba(180,240,255,0.28)"/><circle cx="22" cy="335" r="3.35" fill="rgba(180,240,255,0.36)"/></g>
  <rect width="1200" height="675" fill="rgba(190,220,255,0.06)"/>
  <rect width="1200" height="675" filter="url(#grain-21)"/>
  <rect width="1200" height="675" fill="url(#vignette-21)"/>
  <rect x="20" y="20" width="1160" height="635" rx="32" fill="none" stroke="rgba(155,220,255,0.24)"/>
</svg>