<?xml version="1.0" encoding="UTF-8"?>
<svg xmlns="http://www.w3.org/2000/svg" width="1200" height="675" viewBox="0 0 1200 675" role="img" aria-label="AIGC fallback cover 66" data-scene="scene-6">
  <defs>
    <linearGradient id="bg-66" x1="0" y1="0" x2="1" y2="1">
      <stop offset="0%" stop-color="hsl(209, 82%, 16%)"/>
      <stop offset="52%" stop-color="hsl(276, 84%, 23%)"/>
      <stop offset="100%" stop-color="hsl(19, 78%, 12%)"/>
    </linearGradient>
    <filter id="blur-66" x="-25%" y="-25%" width="150%" height="150%">
      <feGaussianBlur stdDeviation="26"/>
    </filter>
    <filter id="soft-66" x="-25%" y="-25%" width="150%" height="150%">
      <feGaussianBlur stdDeviation="10"/>
    </filter>
    <filter id="grain-66" x="0%" y="0%" width="100%" height="100%">
      <feTurbulence type="fractalNoise" baseFrequency="0.9" numOctaves="2" seed="858" stitchTiles="stitch"/>
      <feColorMatrix type="saturate" values="0"/>
      <feComponentTransfer>
        <feFuncA type="table" tableValues="0 0.05"/>
      </feComponentTransfer>
    </filter>
    <radialGradient id="vignette-66" cx="50%" cy="45%" r="70%">
      <stop offset="60%" stop-color="rgba(0,0,0,0)"/>
      <stop offset="100%" stop-color="rgba(0,0,0,0.45)"/>
    </radialGradient>
  </defs>

  <rect width="1200" height="675" fill="url(#bg-66)"/>
  <circle cx="726" cy="586" r="112" fill="hsl(209, 92%, 62%)" opacity="0.09" filter="url(#blur-66)"/><circle cx="462" cy="183" r="174" fill="hsl(235, 92%, 62%)" opacity="0.09" filter="url(#blur-66)"/><circle cx="177" cy="542" r="219" fill="hsl(261, 92%, 62%)" opacity="0.08" filter="url(#blur-66)"/>
  <circle cx="897" cy="341" r="47" fill="rgba(210,240,255,0.08)" filter="url(#soft-66)"/><circle cx="857" cy="356" r="48" fill="rgba(210,240,255,0.15)" filter="url(#soft-66)"/><circle cx="975" cy="325" r="53" fill="rgba(210,240,255,0.13)" filter="url(#soft-66)"/><circle cx="1138" cy="94" r="31" fill="rgba(210,240,255,0.09)" filter="url(#soft-66)"/><circle cx="180" cy="428" r="63" fill="rgba(210,240,255,0.10)" filter="url(#soft-66)"/><circle cx="1119" cy="176" r="21" fill="rgba(210,240,255,0.15)" filter="url(#soft-66)"/><circle cx="190" cy="94" r="63" fill="rgba(210,240,255,0.10)" filter="url(#soft-66)"/><circle cx="666" cy="217" r="64" fill="rgba(210,240,255,0.10)" filter="url(#soft-66)"/><circle cx="743" cy="196" r="65" fill="rgba(210,240,255,0.11)" filter="url(#soft-66)"/><circle cx="481" cy="76" r="56" fill="rgba(210,240,255,0.14)" filter="url(#soft-66)"/>
  <polygon points="0,675 1200,675 1391,425 -191,425" fill="rgba(8,16,28,0.35)"/>
  <g id="scene-cloud-pipeline"><g><circle cx="917" cy="226" r="30" fill="rgba(180,220,255,0.42)"/><circle cx="961" cy="228" r="24" fill="rgba(180,220,255,0.36)"/><rect x="895" y="234" width="96" height="22" rx="11" fill="rgba(170,220,255,0.3)"/></g><g><circle cx="300" cy="158" r="35" fill="rgba(180,220,255,0.42)"/><circle cx="328" cy="153" r="28" fill="rgba(180,220,255,0.36)"/><rect x="278" y="166" width="77" height="22" rx="11" fill="rgba(170,220,255,0.3)"/></g><g><circle cx="674" cy="232" r="37" fill="rgba(180,220,255,0.42)"/><circle cx="720" cy="225" r="22" fill="rgba(180,220,255,0.36)"/><rect x="652" y="240" width="71" height="22" rx="11" fill="rgba(170,220,255,0.3)"/></g><g><circle cx="239" cy="208" r="36" fill="rgba(180,220,255,0.42)"/><circle cx="282" cy="213" r="20" fill="rgba(180,220,255,0.36)"/><rect x="217" y="216" width="98" height="22" rx="11" fill="rgba(170,220,255,0.3)"/></g><path d="M 264 522 h 84 v 72 h 90" fill="none" stroke="rgba(120,255,210,0.34)" stroke-width="8" stroke-linecap="round"/><path d="M 337 333 h 134 v 99 h 71" fill="none" stroke="rgba(120,255,210,0.34)" stroke-width="5" stroke-linecap="round"/><path d="M 279 284 h 96 v 29 h 72" fill="none" stroke="rgba(120,255,210,0.34)" stroke-width="8" stroke-linecap="round"/><path d="M 500 370 h 75 v 86 h 93" fill="none" stroke="rgba(120,255,210,0.34)" stroke-width="6" stroke-linecap="round"/><path d="M 246 418 h 42 v 75 h -69" fill="none" stroke="rgba(120,255,210,0.34)" stroke-width="6" stroke-linecap="round"/><path d="M 947 253 h 123 v 20 h 68" fill="none" stroke="rgba(120,255,210,0.34)" stroke-width="8" stroke-linecap="round"/><path d="M 308 295 h 115 v 46 h 94" fill="none" stroke="rgba(120,255,210,0.34)" stroke-width="6" stroke-linecap="round"/><path d="M 678 125 h 140 v 22 h -138" fill="none" stroke="rgba(120,255,210,0.34)" stroke-width="5" stroke-linecap="round"/><path d="M 541 374 h 95 v 86 h 108" fill="none" stroke="rgba(120,255,210,0.34)" stroke-width="5" stroke-linecap="round"/><path d="M 729 549 h 115 v 55 h -93" fill="none" stroke="rgba(120,255,210,0.34)" stroke-width="5" stroke-linecap="round"/></g>
  <g id="scene-sparkles"><circle cx="557" cy="553" r="3.00" fill="rgba(180,240,255,0.34)"/><circle cx="412" cy="480" r="2.25" fill="rgba(180,240,255,0.24)"/><circle cx="598" cy="408" r="2.38" fill="rgba(180,240,255,0.23)"/><circle cx="57" cy="412" r="3.07" fill="rgba(180,240,255,0.29)"/><circle cx="971" cy="422" r="2.61" fill="rgba(180,240,255,0.29)"/><circle cx="964" cy="148" r="1.86" fill="rgba(180,240,255,0.30)"/><circle cx="644" cy="52" r="1.13" fill="rgba(180,240,255,0.20)"/><circle cx="1127" cy="176" r="2.29" fill="rgba(180,240,255,0.33)"/><circle cx="534" cy="139" r="1.29" fill="rgba(180,240,255,0.25)"/><circle cx="531" cy="117" r="2.71" fill="rgba(180,240,255,0.35)"/><circle cx="146" cy="145" r="2.90" fill="rgba(180,240,255,0.28)"/><circle cx="1040" cy="569" r="3.33" fill="rgba(180,240,255,0.34)"/><circle cx="1065" cy="635" r="1.38" fill="rgba(180,240,255,0.43)"/><circle cx="552" cy="289" r="2.52" fill="rgba(180,240,255,0.29)"/><circle cx="950" cy="594" r="1.59" fill="rgba(180,240,255,0.42)"/><circle cx="1034" cy="402" r="2.37" fill="rgba(180,240,255,0.37)"/><circle cx="817" cy="203" r="3.06" fill="rgba(180,240,255,0.26)"/><circle cx="798" cy="612" r="2.64" fill="rgba(180,240,255,0.22)"/><circle cx="40" cy="603" r="1.51" fill="rgba(180,240,255,0.18)"/><circle cx="654" cy="294" r="2.04" fill="rgba(180,240,255,0.27)"/><circle cx="454" cy="532" r="2.28" fill="rgba(180,240,255,0.18)"/><circle cx="279" cy="54" r="2.65" fill="rgba(180,240,255,0.34)"/><circle cx="1159" cy="280" r="3.13" fill="rgba(180,240,255,0.42)"/><circle cx="199" cy="636" r="3.15" fill="rgba(180,240,255,0.40)"/><circle cx="646" cy="68" r="3.14" fill="rgba(180,240,255,0.40)"/><circle cx="223" cy="494" r="2.73" fill="rgba(180,240,255,0.30)"/><circle cx="720" cy="172" r="3.06" fill="rgba(180,240,255,0.21)"/></g>
  <rect width="1200" height="675" fill="rgba(190,220,255,0.06)"/>
  <rect width="1200" height="675" filter="url(#grain-66)"/>
  <rect width="1200" height="675" fill="url(#vignette-66)"/>
  <rect x="20" y="20" width="1160" height="635" rx="32" fill="none" stroke="rgba(155,220,255,0.24)"/>
</svg>