<?xml version="1.0" encoding="UTF-8"?>
<svg xmlns="http://www.w3.org/2000/svg" width="1200" height="675" viewBox="0 0 1200 675" role="img" aria-label="AIGC fallback cover 20" data-scene="scene-10">
  <defs>
    <linearGradient id="bg-20" x1="0" y1="0" x2="1" y2="1">
      <stop offset="0%" stop-color="hsl(131, 82%, 16%)"/>
      <stop offset="52%" stop-color="hsl(211, 84%, 23%)"/>
      <stop offset="100%" stop-color="hsl(306, 78%, 12%)"/>
    </linearGradient>
    <filter id="blur-20" x="-25%" y="-25%" width="150%" height="150%">
      <feGaussianBlur stdDeviation="26"/>
    </filter>
    <filter id="soft-20" x="-25%" y="-25%" width="150%" height="150%">
      <feGaussianBlur stdDeviation="10"/>
    </filter>
    <filter id="grain-20" x="0%" y="0%" width="100%" height="100%">
      <feTurbulence type="fractalNoise" baseFrequency="0.9" numOctaves="2" seed="260" stitchTiles="stitch"/>
      <feColorMatrix type="saturate" values="0"/>
      <feComponentTransfer>
        <feFuncA type="table" tableValues="0 0.05"/>
      </feComponentTransfer>
    </filter>
    <radialGradient id="vignette-20" cx="50%" cy="45%" r="70%">
      <stop offset="60%" stop-color="rgba(0,0,0,0)"/>
      <stop offset="100%" stop-color="rgba(0,0,0,0.45)"/>
    </radialGradient>
  </defs>

  <rect width="1200" height="675" fill="url(#bg-20)"/>
  <circle cx="100" cy="387" r="184" fill="hsl(131, 92%, 62%)" opacity="0.13" filter="url(#blur-20)"/><circle cx="281" cy="186" r="181" fill="hsl(157, 92%, 62%)" opacity="0.09" filter="url(#blur-20)"/><circle cx="211" cy="517" r="192" fill="hsl(183, 92%, 62%)" opacity="0.16" filter="url(#blur-20)"/>
  <circle cx="1036" cy="59" r="40" fill="rgba(210,240,255,0.12)" filter="url(#soft-20)"/><circle cx="632" cy="295" r="30" fill="rgba(210,240,255,0.15)" filter="url(#soft-20)"/><circle cx="1094" cy="215" r="63" fill="rgba(210,240,255,0.13)" filter="url(#soft-20)"/><circle cx="142" cy="57" r="69" fill="rgba(210,240,255,0.13)" filter="url(#soft-20)"/><circle cx="174" cy="451" r="25" fill="rgba(210,240,255,0.07)" filter="url(#soft-20)"/><circle cx="535" cy="391" r="24" fill="rgba(210,240,255,0.12)" filter="url(#soft-20)"/><circle cx="885" cy="226" r="30" fill="rgba(210,240,255,0.14)" filter="url(#soft-20)"/><circle cx="638" cy="351" r="35" fill="rgba(210,240,255,0.11)" filter="url(#soft-20)"/><circle cx="982" cy="117" r="54" fill="rgba(210,240,255,0.15)" filter="url(#soft-20)"/><circle cx="1143" cy="225" r="62" fill="rgba(210,240,255,0.08)" filter="url(#soft-20)"/>
  <polygon points="0,675 1200,675 1198,429 2,429" fill="rgba(8,16,28,0.35)"/>
  <g id="scene-robot-arms"><g><circle cx="750" cy="583" r="16" fill="rgba(120,215,255,0.75)"/><line x1="750" y1="583" x2="637" y2="439" stroke="rgba(145,235,255,0.62)" stroke-width="11" stroke-linecap="round"/><line x1="637" y1="439" x2="544" y2="298" stroke="rgba(120,255,220,0.6)" stroke-width="9" stroke-linecap="round"/><circle cx="637" cy="439" r="10" fill="rgba(150,245,255,0.8)"/><circle cx="544" cy="298" r="8" fill="rgba(120,255,220,0.86)"/></g><g><circle cx="401" cy="427" r="16" fill="rgba(120,215,255,0.75)"/><line x1="401" y1="427" x2="538" y2="317" stroke="rgba(145,235,255,0.62)" stroke-width="8" stroke-linecap="round"/><line x1="538" y1="317" x2="518" y2="229" stroke="rgba(120,255,220,0.6)" stroke-width="9" stroke-linecap="round"/><circle cx="538" cy="317" r="10" fill="rgba(150,245,255,0.8)"/><circle cx="518" cy="229" r="8" fill="rgba(120,255,220,0.86)"/></g><g><circle cx="305" cy="541" r="16" fill="rgba(120,215,255,0.75)"/><line x1="305" y1="541" x2="222" y2="353" stroke="rgba(145,235,255,0.62)" stroke-width="8" stroke-linecap="round"/><line x1="222" y1="353" x2="182" y2="256" stroke="rgba(120,255,220,0.6)" stroke-width="6" stroke-linecap="round"/><circle cx="222" cy="353" r="10" fill="rgba(150,245,255,0.8)"/><circle cx="182" cy="256" r="8" fill="rgba(120,255,220,0.86)"/></g></g>
  <g id="scene-sparkles"><circle cx="145" cy="606" r="1.39" fill="rgba(180,240,255,0.33)"/><circle cx="809" cy="575" r="3.11" fill="rgba(180,240,255,0.20)"/><circle cx="884" cy="350" r="3.34" fill="rgba(180,240,255,0.38)"/><circle cx="23" cy="206" r="2.32" fill="rgba(180,240,255,0.43)"/><circle cx="941" cy="608" r="1.35" fill="rgba(180,240,255,0.29)"/><circle cx="300" cy="635" r="1.92" fill="rgba(180,240,255,0.24)"/><circle cx="470" cy="192" r="1.17" fill="rgba(180,240,255,0.41)"/><circle cx="678" cy="204" r="1.91" fill="rgba(180,240,255,0.44)"/><circle cx="367" cy="502" r="3.40" fill="rgba(180,240,255,0.17)"/><circle cx="830" cy="611" r="1.89" fill="rgba(180,240,255,0.34)"/><circle cx="552" cy="70" r="1.34" fill="rgba(180,240,255,0.22)"/><circle cx="457" cy="362" r="2.31" fill="rgba(180,240,255,0.40)"/><circle cx="344" cy="541" r="1.43" fill="rgba(180,240,255,0.38)"/><circle cx="167" cy="270" r="2.57" fill="rgba(180,240,255,0.27)"/><circle cx="571" cy="472" r="1.41" fill="rgba(180,240,255,0.29)"/><circle cx="846" cy="56" r="1.17" fill="rgba(180,240,255,0.23)"/><circle cx="694" cy="219" r="2.29" fill="rgba(180,240,255,0.37)"/><circle cx="311" cy="461" r="2.75" fill="rgba(180,240,255,0.23)"/><circle cx="104" cy="369" r="1.69" fill="rgba(180,240,255,0.16)"/><circle cx="1068" cy="415" r="2.84" fill="rgba(180,240,255,0.39)"/><circle cx="36" cy="423" r="3.14" fill="rgba(180,240,255,0.36)"/><circle cx="755" cy="432" r="1.30" fill="rgba(180,240,255,0.23)"/><circle cx="79" cy="410" r="2.69" fill="rgba(180,240,255,0.40)"/><circle cx="716" cy="458" r="3.39" fill="rgba(180,240,255,0.26)"/><circle cx="429" cy="112" r="1.89" fill="rgba(180,240,255,0.30)"/><circle cx="1148" cy="178" r="2.09" fill="rgba(180,240,255,0.31)"/><circle cx="1139" cy="329" r="1.15" fill="rgba(180,240,255,0.30)"/><circle cx="81" cy="269" r="1.55" fill="rgba(180,240,255,0.43)"/></g>
  <rect width="1200" height="675" fill="rgba(190,220,255,0.06)"/>
  <rect width="1200" height="675" filter="url(#grain-20)"/>
  <rect width="1200" height="675" fill="url(#vignette-20)"/>
  <rect x="20" y="20" width="1160" height="635" rx="32" fill="none" stroke="rgba(155,220,255,0.24)"/>
</svg>