<?xml version="1.0" encoding="UTF-8"?>
<svg xmlns="http://www.w3.org/2000/svg" width="1200" height="675" viewBox="0 0 1200 675" role="img" aria-label="AIGC fallback cover 59" data-scene="scene-9">
  <defs>
    <linearGradient id="bg-59" x1="0" y1="0" x2="1" y2="1">
      <stop offset="0%" stop-color="hsl(299, 82%, 16%)"/>
      <stop offset="52%" stop-color="hsl(338, 84%, 23%)"/>
      <stop offset="100%" stop-color="hsl(58, 78%, 12%)"/>
    </linearGradient>
    <filter id="blur-59" x="-25%" y="-25%" width="150%" height="150%">
      <feGaussianBlur stdDeviation="26"/>
    </filter>
    <filter id="soft-59" x="-25%" y="-25%" width="150%" height="150%">
      <feGaussianBlur stdDeviation="10"/>
    </filter>
    <filter id="grain-59" x="0%" y="0%" width="100%" height="100%">
      <feTurbulence type="fractalNoise" baseFrequency="0.9" numOctaves="2" seed="767" stitchTiles="stitch"/>
      <feColorMatrix type="saturate" values="0"/>
      <feComponentTransfer>
        <feFuncA type="table" tableValues="0 0.05"/>
      </feComponentTransfer>
    </filter>
    <radialGradient id="vignette-59" cx="50%" cy="45%" r="70%">
      <stop offset="60%" stop-color="rgba(0,0,0,0)"/>
      <stop offset="100%" stop-color="rgba(0,0,0,0.45)"/>
    </radialGradient>
  </defs>

  <rect width="1200" height="675" fill="url(#bg-59)"/>
  <circle cx="107" cy="570" r="148" fill="hsl(299, 92%, 62%)" opacity="0.09" filter="url(#blur-59)"/><circle cx="729" cy="216" r="178" fill="hsl(325, 92%, 62%)" opacity="0.15" filter="url(#blur-59)"/><circle cx="662" cy="571" r="98" fill="hsl(351, 92%, 62%)" opacity="0.11" filter="url(#blur-59)"/>
  <circle cx="986" cy="100" r="33" fill="rgba(210,240,255,0.14)" filter="url(#soft-59)"/><circle cx="416" cy="304" r="30" fill="rgba(210,240,255,0.14)" filter="url(#soft-59)"/><circle cx="205" cy="210" r="54" fill="rgba(210,240,255,0.07)" filter="url(#soft-59)"/><circle cx="709" cy="82" r="51" fill="rgba(210,240,255,0.10)" filter="url(#soft-59)"/><circle cx="949" cy="449" r="24" fill="rgba(210,240,255,0.12)" filter="url(#soft-59)"/><circle cx="415" cy="238" r="42" fill="rgba(210,240,255,0.09)" filter="url(#soft-59)"/><circle cx="583" cy="126" r="20" fill="rgba(210,240,255,0.15)" filter="url(#soft-59)"/><circle cx="1050" cy="237" r="67" fill="rgba(210,240,255,0.09)" filter="url(#soft-59)"/><circle cx="1035" cy="401" r="62" fill="rgba(210,240,255,0.07)" filter="url(#soft-59)"/><circle cx="263" cy="67" r="28" fill="rgba(210,240,255,0.12)" filter="url(#soft-59)"/>
  <polygon points="0,675 1200,675 1071,375 129,375" fill="rgba(8,16,28,0.35)"/>
  <g id="scene-drone-swarm"><g transform="translate(178,191) scale(1.13)"><rect x="-10" y="-5" width="20" height="10" rx="3" fill="rgba(180,240,255,0.58)"/><line x1="-20" y1="0" x2="20" y2="0" stroke="rgba(150,230,255,0.6)" stroke-width="2"/><line x1="0" y1="-16" x2="0" y2="16" stroke="rgba(150,230,255,0.6)" stroke-width="2"/></g><g transform="translate(662,322) scale(1.22)"><rect x="-10" y="-5" width="20" height="10" rx="3" fill="rgba(180,240,255,0.58)"/><line x1="-20" y1="0" x2="20" y2="0" stroke="rgba(150,230,255,0.6)" stroke-width="2"/><line x1="0" y1="-16" x2="0" y2="16" stroke="rgba(150,230,255,0.6)" stroke-width="2"/></g><g transform="translate(166,332) scale(1.39)"><rect x="-10" y="-5" width="20" height="10" rx="3" fill="rgba(180,240,255,0.58)"/><line x1="-20" y1="0" x2="20" y2="0" stroke="rgba(150,230,255,0.6)" stroke-width="2"/><line x1="0" y1="-16" x2="0" y2="16" stroke="rgba(150,230,255,0.6)" stroke-width="2"/></g><g transform="translate(231,161) scale(0.97)"><rect x="-10" y="-5" width="20" height="10" rx="3" fill="rgba(180,240,255,0.58)"/><line x1="-20" y1="0" x2="20" y2="0" stroke="rgba(150,230,255,0.6)" stroke-width="2"/><line x1="0" y1="-16" x2="0" y2="16" stroke="rgba(150,230,255,0.6)" stroke-width="2"/></g><g transform="translate(181,152) scale(0.96)"><rect x="-10" y="-5" width="20" height="10" rx="3" fill="rgba(180,240,255,0.58)"/><line x1="-20" y1="0" x2="20" y2="0" stroke="rgba(150,230,255,0.6)" stroke-width="2"/><line x1="0" y1="-16" x2="0" y2="16" stroke="rgba(150,230,255,0.6)" stroke-width="2"/></g><g transform="translate(253,111) scale(1.39)"><rect x="-10" y="-5" width="20" height="10" rx="3" fill="rgba(180,240,255,0.58)"/><line x1="-20" y1="0" x2="20" y2="0" stroke="rgba(150,230,255,0.6)" stroke-width="2"/><line x1="0" y1="-16" x2="0" y2="16" stroke="rgba(150,230,255,0.6)" stroke-width="2"/></g><g transform="translate(458,293) scale(1.35)"><rect x="-10" y="-5" width="20" height="10" rx="3" fill="rgba(180,240,255,0.58)"/><line x1="-20" y1="0" x2="20" y2="0" stroke="rgba(150,230,255,0.6)" stroke-width="2"/><line x1="0" y1="-16" x2="0" y2="16" stroke="rgba(150,230,255,0.6)" stroke-width="2"/></g><g transform="translate(628,259) scale(1.23)"><rect x="-10" y="-5" width="20" height="10" rx="3" fill="rgba(180,240,255,0.58)"/><line x1="-20" y1="0" x2="20" y2="0" stroke="rgba(150,230,255,0.6)" stroke-width="2"/><line x1="0" y1="-16" x2="0" y2="16" stroke="rgba(150,230,255,0.6)" stroke-width="2"/></g><g transform="translate(793,103) scale(1.18)"><rect x="-10" y="-5" width="20" height="10" rx="3" fill="rgba(180,240,255,0.58)"/><line x1="-20" y1="0" x2="20" y2="0" stroke="rgba(150,230,255,0.6)" stroke-width="2"/><line x1="0" y1="-16" x2="0" y2="16" stroke="rgba(150,230,255,0.6)" stroke-width="2"/></g><g transform="translate(1015,156) scale(1.27)"><rect x="-10" y="-5" width="20" height="10" rx="3" fill="rgba(180,240,255,0.58)"/><line x1="-20" y1="0" x2="20" y2="0" stroke="rgba(150,230,255,0.6)" stroke-width="2"/><line x1="0" y1="-16" x2="0" y2="16" stroke="rgba(150,230,255,0.6)" stroke-width="2"/></g><g transform="translate(1038,315) scale(1.12)"><rect x="-10" y="-5" width="20" height="10" rx="3" fill="rgba(180,240,255,0.58)"/><line x1="-20" y1="0" x2="20" y2="0" stroke="rgba(150,230,255,0.6)" stroke-width="2"/><line x1="0" y1="-16" x2="0" y2="16" stroke="rgba(150,230,255,0.6)" stroke-width="2"/></g><g transform="translate(1012,152) scale(0.91)"><rect x="-10" y="-5" width="20" height="10" rx="3" fill="rgba(180,240,255,0.58)"/><line x1="-20" y1="0" x2="20" y2="0" stroke="rgba(150,230,255,0.6)" stroke-width="2"/><line x1="0" y1="-16" x2="0" y2="16" stroke="rgba(150,230,255,0.6)" stroke-width="2"/></g><g transform="translate(132,246) scale(0.94)"><rect x="-10" y="-5" width="20" height="10" rx="3" fill="rgba(180,240,255,0.58)"/><line x1="-20" y1="0" x2="20" y2="0" stroke="rgba(150,230,255,0.6)" stroke-width="2"/><line x1="0" y1="-16" x2="0" y2="16" stroke="rgba(150,230,255,0.6)" stroke-width="2"/></g><g transform="translate(597,195) scale(0.91)"><rect x="-10" y="-5" width="20" height="10" rx="3" fill="rgba(180,240,255,0.58)"/><line x1="-20" y1="0" x2="20" y2="0" stroke="rgba(150,230,255,0.6)" stroke-width="2"/><line x1="0" y1="-16" x2="0" y2="16" stroke="rgba(150,230,255,0.6)" stroke-width="2"/></g></g>
  <g id="scene-sparkles"><circle cx="995" cy="357" r="1.57" fill="rgba(180,240,255,0.22)"/><circle cx="581" cy="597" r="1.79" fill="rgba(180,240,255,0.26)"/><circle cx="552" cy="280" r="2.98" fill="rgba(180,240,255,0.36)"/><circle cx="595" cy="381" r="2.81" fill="rgba(180,240,255,0.39)"/><circle cx="984" cy="389" r="2.53" fill="rgba(180,240,255,0.35)"/><circle cx="613" cy="355" r="2.59" fill="rgba(180,240,255,0.42)"/><circle cx="1129" cy="533" r="3.24" fill="rgba(180,240,255,0.38)"/><circle cx="486" cy="112" r="2.69" fill="rgba(180,240,255,0.42)"/><circle cx="202" cy="45" r="1.93" fill="rgba(180,240,255,0.23)"/><circle cx="861" cy="364" r="1.50" fill="rgba(180,240,255,0.23)"/><circle cx="260" cy="128" r="3.09" fill="rgba(180,240,255,0.25)"/><circle cx="909" cy="95" r="2.02" fill="rgba(180,240,255,0.36)"/><circle cx="56" cy="384" r="3.00" fill="rgba(180,240,255,0.35)"/><circle cx="1160" cy="333" r="2.37" fill="rgba(180,240,255,0.30)"/><circle cx="1167" cy="407" r="1.73" fill="rgba(180,240,255,0.38)"/><circle cx="975" cy="72" r="2.62" fill="rgba(180,240,255,0.39)"/><circle cx="337" cy="423" r="1.12" fill="rgba(180,240,255,0.24)"/><circle cx="658" cy="373" r="2.25" fill="rgba(180,240,255,0.35)"/><circle cx="475" cy="316" r="1.31" fill="rgba(180,240,255,0.24)"/><circle cx="1043" cy="349" r="2.40" fill="rgba(180,240,255,0.34)"/><circle cx="40" cy="603" r="2.47" fill="rgba(180,240,255,0.32)"/><circle cx="89" cy="30" r="3.16" fill="rgba(180,240,255,0.23)"/><circle cx="845" cy="44" r="2.13" fill="rgba(180,240,255,0.32)"/></g>
  <rect width="1200" height="675" fill="rgba(190,220,255,0.06)"/>
  <rect width="1200" height="675" filter="url(#grain-59)"/>
  <rect width="1200" height="675" fill="url(#vignette-59)"/>
  <rect x="20" y="20" width="1160" height="635" rx="32" fill="none" stroke="rgba(155,220,255,0.24)"/>
</svg>