<?xml version="1.0" encoding="UTF-8"?>
<svg xmlns="http://www.w3.org/2000/svg" width="1200" height="675" viewBox="0 0 1200 675" role="img" aria-label="AIGC fallback cover 46" data-scene="scene-6">
  <defs>
    <linearGradient id="bg-46" x1="0" y1="0" x2="1" y2="1">
      <stop offset="0%" stop-color="hsl(112, 82%, 16%)"/>
      <stop offset="52%" stop-color="hsl(180, 84%, 23%)"/>
      <stop offset="100%" stop-color="hsl(293, 78%, 12%)"/>
    </linearGradient>
    <filter id="blur-46" x="-25%" y="-25%" width="150%" height="150%">
      <feGaussianBlur stdDeviation="26"/>
    </filter>
    <filter id="soft-46" x="-25%" y="-25%" width="150%" height="150%">
      <feGaussianBlur stdDeviation="10"/>
    </filter>
    <filter id="grain-46" x="0%" y="0%" width="100%" height="100%">
      <feTurbulence type="fractalNoise" baseFrequency="0.9" numOctaves="2" seed="598" stitchTiles="stitch"/>
      <feColorMatrix type="saturate" values="0"/>
      <feComponentTransfer>
        <feFuncA type="table" tableValues="0 0.05"/>
      </feComponentTransfer>
    </filter>
    <radialGradient id="vignette-46" cx="50%" cy="45%" r="70%">
      <stop offset="60%" stop-color="rgba(0,0,0,0)"/>
      <stop offset="100%" stop-color="rgba(0,0,0,0.45)"/>
    </radialGradient>
  </defs>

  <rect width="1200" height="675" fill="url(#bg-46)"/>
  <circle cx="1051" cy="470" r="177" fill="hsl(112, 92%, 62%)" opacity="0.08" filter="url(#blur-46)"/><circle cx="718" cy="571" r="105" fill="hsl(138, 92%, 62%)" opacity="0.17" filter="url(#blur-46)"/><circle cx="912" cy="138" r="186" fill="hsl(164, 92%, 62%)" opacity="0.13" filter="url(#blur-46)"/>
  <circle cx="753" cy="429" r="29" fill="rgba(210,240,255,0.13)" filter="url(#soft-46)"/><circle cx="51" cy="53" r="65" fill="rgba(210,240,255,0.13)" filter="url(#soft-46)"/><circle cx="1030" cy="376" r="32" fill="rgba(210,240,255,0.08)" filter="url(#soft-46)"/><circle cx="357" cy="101" r="59" fill="rgba(210,240,255,0.16)" filter="url(#soft-46)"/><circle cx="232" cy="135" r="65" fill="rgba(210,240,255,0.12)" filter="url(#soft-46)"/><circle cx="835" cy="118" r="50" fill="rgba(210,240,255,0.09)" filter="url(#soft-46)"/><circle cx="1113" cy="379" r="70" fill="rgba(210,240,255,0.11)" filter="url(#soft-46)"/><circle cx="72" cy="434" r="45" fill="rgba(210,240,255,0.07)" filter="url(#soft-46)"/>
  <polygon points="0,675 1200,675 1267,438 -67,438" fill="rgba(8,16,28,0.35)"/>
  <g id="scene-cloud-pipeline"><g><circle cx="436" cy="209" r="28" fill="rgba(180,220,255,0.42)"/><circle cx="466" cy="217" r="28" fill="rgba(180,220,255,0.36)"/><rect x="414" y="217" width="96" height="22" rx="11" fill="rgba(170,220,255,0.3)"/></g><g><circle cx="348" cy="139" r="28" fill="rgba(180,220,255,0.42)"/><circle cx="383" cy="134" r="33" fill="rgba(180,220,255,0.36)"/><rect x="326" y="147" width="87" height="22" rx="11" fill="rgba(170,220,255,0.3)"/></g><g><circle cx="839" cy="88" r="29" fill="rgba(180,220,255,0.42)"/><circle cx="871" cy="90" r="20" fill="rgba(180,220,255,0.36)"/><rect x="817" y="96" width="106" height="22" rx="11" fill="rgba(170,220,255,0.3)"/></g><path d="M 436 478 h 119 v 21 h 46" fill="none" stroke="rgba(120,255,210,0.34)" stroke-width="4" stroke-linecap="round"/><path d="M 327 264 h 120 v 68 h 23" fill="none" stroke="rgba(120,255,210,0.34)" stroke-width="5" stroke-linecap="round"/><path d="M 728 294 h 62 v 21 h 23" fill="none" stroke="rgba(120,255,210,0.34)" stroke-width="8" stroke-linecap="round"/><path d="M 986 456 h 96 v 64 h -26" fill="none" stroke="rgba(120,255,210,0.34)" stroke-width="4" stroke-linecap="round"/><path d="M 247 559 h 86 v 56 h 34" fill="none" stroke="rgba(120,255,210,0.34)" stroke-width="4" stroke-linecap="round"/><path d="M 664 124 h 39 v 98 h -118" fill="none" stroke="rgba(120,255,210,0.34)" stroke-width="5" stroke-linecap="round"/><path d="M 166 210 h 123 v 76 h 51" fill="none" stroke="rgba(120,255,210,0.34)" stroke-width="4" stroke-linecap="round"/><path d="M 344 260 h 100 v 59 h -64" fill="none" stroke="rgba(120,255,210,0.34)" stroke-width="5" stroke-linecap="round"/></g>
  <g id="scene-sparkles"><circle cx="1110" cy="230" r="1.87" fill="rgba(180,240,255,0.18)"/><circle cx="731" cy="421" r="1.11" fill="rgba(180,240,255,0.28)"/><circle cx="243" cy="378" r="2.79" fill="rgba(180,240,255,0.25)"/><circle cx="53" cy="52" r="1.60" fill="rgba(180,240,255,0.16)"/><circle cx="78" cy="298" r="1.54" fill="rgba(180,240,255,0.28)"/><circle cx="467" cy="46" r="2.99" fill="rgba(180,240,255,0.30)"/><circle cx="422" cy="39" r="3.02" fill="rgba(180,240,255,0.15)"/><circle cx="400" cy="362" r="1.51" fill="rgba(180,240,255,0.43)"/><circle cx="1029" cy="406" r="1.85" fill="rgba(180,240,255,0.34)"/><circle cx="1158" cy="188" r="2.13" fill="rgba(180,240,255,0.18)"/><circle cx="1043" cy="335" r="2.13" fill="rgba(180,240,255,0.34)"/><circle cx="639" cy="190" r="2.33" fill="rgba(180,240,255,0.32)"/><circle cx="115" cy="38" r="2.07" fill="rgba(180,240,255,0.35)"/><circle cx="974" cy="379" r="2.87" fill="rgba(180,240,255,0.22)"/><circle cx="399" cy="256" r="2.82" fill="rgba(180,240,255,0.25)"/><circle cx="67" cy="188" r="2.55" fill="rgba(180,240,255,0.43)"/><circle cx="994" cy="489" r="1.76" fill="rgba(180,240,255,0.42)"/><circle cx="1054" cy="492" r="2.23" fill="rgba(180,240,255,0.43)"/><circle cx="641" cy="414" r="2.29" fill="rgba(180,240,255,0.39)"/><circle cx="504" cy="433" r="2.77" fill="rgba(180,240,255,0.31)"/><circle cx="547" cy="540" r="2.07" fill="rgba(180,240,255,0.31)"/><circle cx="1054" cy="280" r="3.32" fill="rgba(180,240,255,0.38)"/><circle cx="454" cy="160" r="1.34" fill="rgba(180,240,255,0.45)"/><circle cx="709" cy="400" r="2.33" fill="rgba(180,240,255,0.33)"/><circle cx="731" cy="396" r="3.39" fill="rgba(180,240,255,0.16)"/><circle cx="802" cy="272" r="1.85" fill="rgba(180,240,255,0.29)"/></g>
  <rect width="1200" height="675" fill="rgba(190,220,255,0.06)"/>
  <rect width="1200" height="675" filter="url(#grain-46)"/>
  <rect width="1200" height="675" fill="url(#vignette-46)"/>
  <rect x="20" y="20" width="1160" height="635" rx="32" fill="none" stroke="rgba(155,220,255,0.24)"/>
</svg>