<?xml version="1.0" encoding="UTF-8"?>
<svg xmlns="http://www.w3.org/2000/svg" width="1200" height="675" viewBox="0 0 1200 675" role="img" aria-label="AIGC fallback cover 3" data-scene="scene-3">
  <defs>
    <linearGradient id="bg-3" x1="0" y1="0" x2="1" y2="1">
      <stop offset="0%" stop-color="hsl(155, 82%, 16%)"/>
      <stop offset="52%" stop-color="hsl(230, 84%, 23%)"/>
      <stop offset="100%" stop-color="hsl(270, 78%, 12%)"/>
    </linearGradient>
    <filter id="blur-3" x="-25%" y="-25%" width="150%" height="150%">
      <feGaussianBlur stdDeviation="26"/>
    </filter>
    <filter id="soft-3" x="-25%" y="-25%" width="150%" height="150%">
      <feGaussianBlur stdDeviation="10"/>
    </filter>
    <filter id="grain-3" x="0%" y="0%" width="100%" height="100%">
      <feTurbulence type="fractalNoise" baseFrequency="0.9" numOctaves="2" seed="39" stitchTiles="stitch"/>
      <feColorMatrix type="saturate" values="0"/>
      <feComponentTransfer>
        <feFuncA type="table" tableValues="0 0.05"/>
      </feComponentTransfer>
    </filter>
    <radialGradient id="vignette-3" cx="50%" cy="45%" r="70%">
      <stop offset="60%" stop-color="rgba(0,0,0,0)"/>
      <stop offset="100%" stop-color="rgba(0,0,0,0.45)"/>
    </radialGradient>
  </defs>

  <rect width="1200" height="675" fill="url(#bg-3)"/>
  <circle cx="133" cy="364" r="142" fill="hsl(155, 92%, 62%)" opacity="0.16" filter="url(#blur-3)"/><circle cx="979" cy="325" r="118" fill="hsl(181, 92%, 62%)" opacity="0.10" filter="url(#blur-3)"/><circle cx="1047" cy="98" r="156" fill="hsl(207, 92%, 62%)" opacity="0.16" filter="url(#blur-3)"/>
  <circle cx="807" cy="131" r="35" fill="rgba(210,240,255,0.14)" filter="url(#soft-3)"/><circle cx="740" cy="429" r="23" fill="rgba(210,240,255,0.12)" filter="url(#soft-3)"/><circle cx="128" cy="281" r="63" fill="rgba(210,240,255,0.14)" filter="url(#soft-3)"/><circle cx="596" cy="65" r="53" fill="rgba(210,240,255,0.15)" filter="url(#soft-3)"/><circle cx="1016" cy="224" r="43" fill="rgba(210,240,255,0.13)" filter="url(#soft-3)"/><circle cx="765" cy="402" r="30" fill="rgba(210,240,255,0.08)" filter="url(#soft-3)"/><circle cx="626" cy="311" r="50" fill="rgba(210,240,255,0.15)" filter="url(#soft-3)"/><circle cx="1067" cy="146" r="56" fill="rgba(210,240,255,0.06)" filter="url(#soft-3)"/><circle cx="76" cy="246" r="37" fill="rgba(210,240,255,0.10)" filter="url(#soft-3)"/><circle cx="182" cy="303" r="48" fill="rgba(210,240,255,0.16)" filter="url(#soft-3)"/>
  <polygon points="0,675 1200,675 1179,448 21,448" fill="rgba(8,16,28,0.35)"/>
  <g id="scene-datacenter"><g><rect x="70" y="247" width="91" height="395" rx="10" fill="rgba(10,20,42,0.58)" stroke="rgba(130,190,255,0.45)"/><rect x="133" y="401" width="32" height="6" rx="3" fill="rgba(102,245,220,0.8)"/><rect x="105" y="602" width="23" height="6" rx="3" fill="rgba(102,245,220,0.8)"/><rect x="103" y="412" width="31" height="6" rx="3" fill="rgba(102,245,220,0.8)"/><rect x="101" y="376" width="26" height="6" rx="3" fill="rgba(102,245,220,0.8)"/><rect x="137" y="464" width="19" height="6" rx="3" fill="rgba(102,245,220,0.8)"/><rect x="136" y="564" width="16" height="6" rx="3" fill="rgba(102,245,220,0.8)"/><rect x="128" y="544" width="28" height="6" rx="3" fill="rgba(102,245,220,0.8)"/><rect x="118" y="413" width="21" height="6" rx="3" fill="rgba(102,245,220,0.8)"/></g><g><rect x="235" y="339" width="88" height="300" rx="10" fill="rgba(10,20,42,0.58)" stroke="rgba(130,190,255,0.45)"/><rect x="288" y="451" width="24" height="6" rx="3" fill="rgba(102,245,220,0.8)"/><rect x="272" y="433" width="32" height="6" rx="3" fill="rgba(102,245,220,0.8)"/><rect x="279" y="433" width="32" height="6" rx="3" fill="rgba(102,245,220,0.8)"/><rect x="294" y="468" width="30" height="6" rx="3" fill="rgba(102,245,220,0.8)"/><rect x="259" y="556" width="24" height="6" rx="3" fill="rgba(102,245,220,0.8)"/><rect x="285" y="527" width="17" height="6" rx="3" fill="rgba(102,245,220,0.8)"/><rect x="290" y="557" width="21" height="6" rx="3" fill="rgba(102,245,220,0.8)"/></g><g><rect x="332" y="242" width="111" height="408" rx="10" fill="rgba(10,20,42,0.58)" stroke="rgba(130,190,255,0.45)"/><rect x="361" y="351" width="23" height="6" rx="3" fill="rgba(102,245,220,0.8)"/><rect x="420" y="309" width="25" height="6" rx="3" fill="rgba(102,245,220,0.8)"/><rect x="382" y="440" width="20" height="6" rx="3" fill="rgba(102,245,220,0.8)"/><rect x="413" y="345" width="28" height="6" rx="3" fill="rgba(102,245,220,0.8)"/><rect x="368" y="422" width="21" height="6" rx="3" fill="rgba(102,245,220,0.8)"/><rect x="399" y="487" width="29" height="6" rx="3" fill="rgba(102,245,220,0.8)"/></g><g><rect x="439" y="298" width="117" height="329" rx="10" fill="rgba(10,20,42,0.58)" stroke="rgba(130,190,255,0.45)"/><rect x="459" y="573" width="22" height="6" rx="3" fill="rgba(102,245,220,0.8)"/><rect x="523" y="328" width="18" height="6" rx="3" fill="rgba(102,245,220,0.8)"/><rect x="508" y="506" width="32" height="6" rx="3" fill="rgba(102,245,220,0.8)"/><rect x="510" y="598" width="31" height="6" rx="3" fill="rgba(102,245,220,0.8)"/><rect x="503" y="427" width="16" height="6" rx="3" fill="rgba(102,245,220,0.8)"/><rect x="494" y="373" width="29" height="6" rx="3" fill="rgba(102,245,220,0.8)"/><rect x="481" y="600" width="16" height="6" rx="3" fill="rgba(102,245,220,0.8)"/><rect x="526" y="421" width="29" height="6" rx="3" fill="rgba(102,245,220,0.8)"/><rect x="489" y="557" width="17" height="6" rx="3" fill="rgba(102,245,220,0.8)"/><rect x="457" y="495" width="20" height="6" rx="3" fill="rgba(102,245,220,0.8)"/></g><g><rect x="714" y="202" width="99" height="444" rx="10" fill="rgba(10,20,42,0.58)" stroke="rgba(130,190,255,0.45)"/><rect x="783" y="416" width="34" height="6" rx="3" fill="rgba(102,245,220,0.8)"/><rect x="788" y="556" width="33" height="6" rx="3" fill="rgba(102,245,220,0.8)"/><rect x="781" y="346" width="20" height="6" rx="3" fill="rgba(102,245,220,0.8)"/><rect x="776" y="389" width="26" height="6" rx="3" fill="rgba(102,245,220,0.8)"/><rect x="785" y="396" width="20" height="6" rx="3" fill="rgba(102,245,220,0.8)"/><rect x="733" y="479" width="32" height="6" rx="3" fill="rgba(102,245,220,0.8)"/><rect x="748" y="485" width="16" height="6" rx="3" fill="rgba(102,245,220,0.8)"/><rect x="755" y="612" width="20" height="6" rx="3" fill="rgba(102,245,220,0.8)"/></g><g><rect x="710" y="316" width="98" height="310" rx="10" fill="rgba(10,20,42,0.58)" stroke="rgba(130,190,255,0.45)"/><rect x="770" y="405" width="18" height="6" rx="3" fill="rgba(102,245,220,0.8)"/><rect x="735" y="358" width="32" height="6" rx="3" fill="rgba(102,245,220,0.8)"/><rect x="766" y="516" width="30" height="6" rx="3" fill="rgba(102,245,220,0.8)"/><rect x="749" y="555" width="28" height="6" rx="3" fill="rgba(102,245,220,0.8)"/><rect x="756" y="498" width="29" height="6" rx="3" fill="rgba(102,245,220,0.8)"/><rect x="740" y="379" width="22" height="6" rx="3" fill="rgba(102,245,220,0.8)"/><rect x="788" y="474" width="18" height="6" rx="3" fill="rgba(102,245,220,0.8)"/><rect x="775" y="523" width="33" height="6" rx="3" fill="rgba(102,245,220,0.8)"/></g><g><rect x="952" y="260" width="99" height="388" rx="10" fill="rgba(10,20,42,0.58)" stroke="rgba(130,190,255,0.45)"/><rect x="994" y="536" width="31" height="6" rx="3" fill="rgba(102,245,220,0.8)"/><rect x="974" y="354" width="34" height="6" rx="3" fill="rgba(102,245,220,0.8)"/><rect x="1012" y="431" width="24" height="6" rx="3" fill="rgba(102,245,220,0.8)"/><rect x="1029" y="562" width="32" height="6" rx="3" fill="rgba(102,245,220,0.8)"/><rect x="1033" y="435" width="22" height="6" rx="3" fill="rgba(102,245,220,0.8)"/></g><g><rect x="1120" y="216" width="92" height="432" rx="10" fill="rgba(10,20,42,0.58)" stroke="rgba(130,190,255,0.45)"/><rect x="1149" y="376" width="24" height="6" rx="3" fill="rgba(102,245,220,0.8)"/><rect x="1173" y="498" width="23" height="6" rx="3" fill="rgba(102,245,220,0.8)"/><rect x="1143" y="347" width="32" height="6" rx="3" fill="rgba(102,245,220,0.8)"/><rect x="1156" y="501" width="30" height="6" rx="3" fill="rgba(102,245,220,0.8)"/><rect x="1147" y="366" width="27" height="6" rx="3" fill="rgba(102,245,220,0.8)"/></g></g>
  <g id="scene-sparkles"><circle cx="977" cy="309" r="1.69" fill="rgba(180,240,255,0.26)"/><circle cx="905" cy="611" r="3.05" fill="rgba(180,240,255,0.19)"/><circle cx="864" cy="504" r="2.82" fill="rgba(180,240,255,0.35)"/><circle cx="427" cy="555" r="1.22" fill="rgba(180,240,255,0.25)"/><circle cx="470" cy="365" r="2.74" fill="rgba(180,240,255,0.24)"/><circle cx="898" cy="291" r="2.91" fill="rgba(180,240,255,0.45)"/><circle cx="227" cy="243" r="1.63" fill="rgba(180,240,255,0.31)"/><circle cx="369" cy="202" r="2.63" fill="rgba(180,240,255,0.20)"/><circle cx="588" cy="409" r="2.49" fill="rgba(180,240,255,0.20)"/><circle cx="1026" cy="307" r="1.35" fill="rgba(180,240,255,0.44)"/><circle cx="866" cy="95" r="3.11" fill="rgba(180,240,255,0.41)"/><circle cx="775" cy="652" r="1.53" fill="rgba(180,240,255,0.36)"/><circle cx="712" cy="308" r="1.51" fill="rgba(180,240,255,0.28)"/><circle cx="1067" cy="360" r="1.12" fill="rgba(180,240,255,0.20)"/><circle cx="351" cy="574" r="1.90" fill="rgba(180,240,255,0.35)"/><circle cx="151" cy="436" r="3.27" fill="rgba(180,240,255,0.45)"/><circle cx="604" cy="52" r="1.27" fill="rgba(180,240,255,0.36)"/><circle cx="118" cy="133" r="1.58" fill="rgba(180,240,255,0.30)"/><circle cx="941" cy="146" r="2.14" fill="rgba(180,240,255,0.30)"/><circle cx="298" cy="248" r="2.75" fill="rgba(180,240,255,0.17)"/><circle cx="837" cy="509" r="1.71" fill="rgba(180,240,255,0.44)"/><circle cx="940" cy="176" r="2.01" fill="rgba(180,240,255,0.23)"/><circle cx="957" cy="119" r="3.07" fill="rgba(180,240,255,0.42)"/><circle cx="579" cy="367" r="2.65" fill="rgba(180,240,255,0.40)"/><circle cx="20" cy="499" r="1.33" fill="rgba(180,240,255,0.31)"/></g>
  <rect width="1200" height="675" fill="rgba(190,220,255,0.06)"/>
  <rect width="1200" height="675" filter="url(#grain-3)"/>
  <rect width="1200" height="675" fill="url(#vignette-3)"/>
  <rect x="20" y="20" width="1160" height="635" rx="32" fill="none" stroke="rgba(155,220,255,0.24)"/>
</svg>