<?xml version="1.0" encoding="UTF-8"?>
<svg xmlns="http://www.w3.org/2000/svg" width="1200" height="675" viewBox="0 0 1200 675" role="img" aria-label="AIGC fallback cover 1" data-scene="scene-1">
  <defs>
    <linearGradient id="bg-1" x1="0" y1="0" x2="1" y2="1">
      <stop offset="0%" stop-color="hsl(43, 82%, 16%)"/>
      <stop offset="52%" stop-color="hsl(120, 84%, 23%)"/>
      <stop offset="100%" stop-color="hsl(159, 78%, 12%)"/>
    </linearGradient>
    <filter id="blur-1" x="-25%" y="-25%" width="150%" height="150%">
      <feGaussianBlur stdDeviation="26"/>
    </filter>
    <filter id="soft-1" x="-25%" y="-25%" width="150%" height="150%">
      <feGaussianBlur stdDeviation="10"/>
    </filter>
    <filter id="grain-1" x="0%" y="0%" width="100%" height="100%">
      <feTurbulence type="fractalNoise" baseFrequency="0.9" numOctaves="2" seed="13" stitchTiles="stitch"/>
      <feColorMatrix type="saturate" values="0"/>
      <feComponentTransfer>
        <feFuncA type="table" tableValues="0 0.05"/>
      </feComponentTransfer>
    </filter>
    <radialGradient id="vignette-1" cx="50%" cy="45%" r="70%">
      <stop offset="60%" stop-color="rgba(0,0,0,0)"/>
      <stop offset="100%" stop-color="rgba(0,0,0,0.45)"/>
    </radialGradient>
  </defs>

  <rect width="1200" height="675" fill="url(#bg-1)"/>
  <circle cx="387" cy="354" r="162" fill="hsl(43, 92%, 62%)" opacity="0.13" filter="url(#blur-1)"/><circle cx="918" cy="174" r="112" fill="hsl(69, 92%, 62%)" opacity="0.10" filter="url(#blur-1)"/><circle cx="1042" cy="230" r="156" fill="hsl(95, 92%, 62%)" opacity="0.12" filter="url(#blur-1)"/>
  <circle cx="273" cy="344" r="53" fill="rgba(210,240,255,0.08)" filter="url(#soft-1)"/><circle cx="905" cy="65" r="69" fill="rgba(210,240,255,0.12)" filter="url(#soft-1)"/><circle cx="709" cy="101" r="23" fill="rgba(210,240,255,0.12)" filter="url(#soft-1)"/><circle cx="176" cy="301" r="25" fill="rgba(210,240,255,0.15)" filter="url(#soft-1)"/><circle cx="552" cy="124" r="58" fill="rgba(210,240,255,0.09)" filter="url(#soft-1)"/><circle cx="1011" cy="347" r="63" fill="rgba(210,240,255,0.07)" filter="url(#soft-1)"/><circle cx="334" cy="161" r="29" fill="rgba(210,240,255,0.15)" filter="url(#soft-1)"/><circle cx="826" cy="336" r="56" fill="rgba(210,240,255,0.08)" filter="url(#soft-1)"/>
  <polygon points="0,675 1200,675 1298,426 -98,426" fill="rgba(8,16,28,0.35)"/>
  <g id="scene-nodes"><line x1="688" y1="98" x2="805" y2="80" stroke="rgba(145,245,255,0.64)" stroke-width="2"/><line x1="688" y1="98" x2="854" y2="226" stroke="rgba(145,245,255,0.64)" stroke-width="3"/><line x1="688" y1="98" x2="713" y2="236" stroke="rgba(145,245,255,0.64)" stroke-width="3"/><line x1="805" y1="80" x2="1003" y2="173" stroke="rgba(145,245,255,0.64)" stroke-width="4"/><circle cx="688" cy="98" r="9" fill="hsl(43, 88%, 72%)" opacity="0.86"/><circle cx="805" cy="80" r="13" fill="hsl(52, 88%, 72%)" opacity="0.86"/><circle cx="854" cy="226" r="10" fill="hsl(61, 88%, 72%)" opacity="0.86"/><circle cx="713" cy="236" r="16" fill="hsl(70, 88%, 72%)" opacity="0.86"/><circle cx="1003" cy="173" r="13" fill="hsl(79, 88%, 72%)" opacity="0.86"/></g>
  <g id="scene-sparkles"><circle cx="527" cy="64" r="2.61" fill="rgba(180,240,255,0.15)"/><circle cx="711" cy="532" r="3.09" fill="rgba(180,240,255,0.36)"/><circle cx="85" cy="313" r="1.72" fill="rgba(180,240,255,0.31)"/><circle cx="943" cy="636" r="1.67" fill="rgba(180,240,255,0.28)"/><circle cx="763" cy="608" r="1.15" fill="rgba(180,240,255,0.22)"/><circle cx="1122" cy="593" r="2.64" fill="rgba(180,240,255,0.39)"/><circle cx="387" cy="625" r="3.07" fill="rgba(180,240,255,0.26)"/><circle cx="92" cy="291" r="2.87" fill="rgba(180,240,255,0.21)"/><circle cx="652" cy="428" r="1.36" fill="rgba(180,240,255,0.34)"/><circle cx="56" cy="207" r="1.98" fill="rgba(180,240,255,0.31)"/><circle cx="577" cy="572" r="1.80" fill="rgba(180,240,255,0.20)"/><circle cx="100" cy="632" r="2.85" fill="rgba(180,240,255,0.28)"/><circle cx="202" cy="331" r="2.16" fill="rgba(180,240,255,0.17)"/><circle cx="1080" cy="437" r="2.96" fill="rgba(180,240,255,0.17)"/><circle cx="884" cy="166" r="2.77" fill="rgba(180,240,255,0.18)"/><circle cx="916" cy="439" r="2.68" fill="rgba(180,240,255,0.43)"/><circle cx="532" cy="36" r="1.39" fill="rgba(180,240,255,0.19)"/><circle cx="63" cy="549" r="3.20" fill="rgba(180,240,255,0.22)"/><circle cx="587" cy="603" r="1.91" fill="rgba(180,240,255,0.38)"/><circle cx="798" cy="39" r="2.28" fill="rgba(180,240,255,0.32)"/><circle cx="1057" cy="413" r="1.76" fill="rgba(180,240,255,0.20)"/><circle cx="665" cy="398" r="1.83" fill="rgba(180,240,255,0.29)"/><circle cx="528" cy="43" r="1.82" fill="rgba(180,240,255,0.26)"/><circle cx="408" cy="141" r="1.71" fill="rgba(180,240,255,0.27)"/><circle cx="804" cy="235" r="2.05" fill="rgba(180,240,255,0.42)"/><circle cx="181" cy="96" r="2.55" fill="rgba(180,240,255,0.22)"/></g>
  <rect width="1200" height="675" fill="rgba(190,220,255,0.06)"/>
  <rect width="1200" height="675" filter="url(#grain-1)"/>
  <rect width="1200" height="675" fill="url(#vignette-1)"/>
  <rect x="20" y="20" width="1160" height="635" rx="32" fill="none" stroke="rgba(155,220,255,0.24)"/>
</svg>