<?xml version="1.0" encoding="UTF-8"?>
<svg xmlns="http://www.w3.org/2000/svg" width="1200" height="675" viewBox="0 0 1200 675" role="img" aria-label="AIGC fallback cover 94" data-scene="scene-4">
  <defs>
    <linearGradient id="bg-94" x1="0" y1="0" x2="1" y2="1">
      <stop offset="0%" stop-color="hsl(290, 82%, 16%)"/>
      <stop offset="52%" stop-color="hsl(339, 84%, 23%)"/>
      <stop offset="100%" stop-color="hsl(97, 78%, 12%)"/>
    </linearGradient>
    <filter id="blur-94" x="-25%" y="-25%" width="150%" height="150%">
      <feGaussianBlur stdDeviation="26"/>
    </filter>
    <filter id="soft-94" x="-25%" y="-25%" width="150%" height="150%">
      <feGaussianBlur stdDeviation="10"/>
    </filter>
    <filter id="grain-94" x="0%" y="0%" width="100%" height="100%">
      <feTurbulence type="fractalNoise" baseFrequency="0.9" numOctaves="2" seed="1222" stitchTiles="stitch"/>
      <feColorMatrix type="saturate" values="0"/>
      <feComponentTransfer>
        <feFuncA type="table" tableValues="0 0.05"/>
      </feComponentTransfer>
    </filter>
    <radialGradient id="vignette-94" cx="50%" cy="45%" r="70%">
      <stop offset="60%" stop-color="rgba(0,0,0,0)"/>
      <stop offset="100%" stop-color="rgba(0,0,0,0.45)"/>
    </radialGradient>
  </defs>

  <rect width="1200" height="675" fill="url(#bg-94)"/>
  <circle cx="365" cy="539" r="102" fill="hsl(290, 92%, 62%)" opacity="0.17" filter="url(#blur-94)"/><circle cx="1005" cy="328" r="109" fill="hsl(316, 92%, 62%)" opacity="0.15" filter="url(#blur-94)"/><circle cx="119" cy="248" r="112" fill="hsl(342, 92%, 62%)" opacity="0.12" filter="url(#blur-94)"/>
  <circle cx="934" cy="458" r="50" fill="rgba(210,240,255,0.13)" filter="url(#soft-94)"/><circle cx="277" cy="53" r="23" fill="rgba(210,240,255,0.11)" filter="url(#soft-94)"/><circle cx="849" cy="158" r="34" fill="rgba(210,240,255,0.11)" filter="url(#soft-94)"/><circle cx="511" cy="164" r="26" fill="rgba(210,240,255,0.10)" filter="url(#soft-94)"/><circle cx="47" cy="183" r="22" fill="rgba(210,240,255,0.13)" filter="url(#soft-94)"/><circle cx="662" cy="428" r="67" fill="rgba(210,240,255,0.14)" filter="url(#soft-94)"/><circle cx="521" cy="176" r="59" fill="rgba(210,240,255,0.13)" filter="url(#soft-94)"/><circle cx="967" cy="253" r="60" fill="rgba(210,240,255,0.15)" filter="url(#soft-94)"/><circle cx="396" cy="214" r="36" fill="rgba(210,240,255,0.09)" filter="url(#soft-94)"/><circle cx="882" cy="90" r="60" fill="rgba(210,240,255,0.12)" filter="url(#soft-94)"/>
  <polygon points="0,675 1200,675 1271,416 -71,416" fill="rgba(8,16,28,0.35)"/>
  <g id="scene-city"><g><rect x="318" y="477" width="119" height="198" rx="8" fill="rgba(8,18,38,0.58)" stroke="hsl(290, 70%, 52%)" opacity="0.72"/><rect x="326" y="497" width="103" height="5" rx="2" fill="rgba(120,240,255,0.22)"/><rect x="327" y="522" width="102" height="5" rx="2" fill="rgba(120,240,255,0.22)"/><rect x="328" y="533" width="97" height="5" rx="2" fill="rgba(120,240,255,0.22)"/><rect x="332" y="581" width="92" height="5" rx="2" fill="rgba(120,240,255,0.22)"/><rect x="334" y="597" width="101" height="5" rx="2" fill="rgba(120,240,255,0.22)"/><rect x="327" y="637" width="94" height="5" rx="2" fill="rgba(120,240,255,0.22)"/><rect x="332" y="653" width="94" height="5" rx="2" fill="rgba(120,240,255,0.22)"/><rect x="334" y="665" width="101" height="5" rx="2" fill="rgba(120,240,255,0.22)"/><rect x="328" y="713" width="102" height="5" rx="2" fill="rgba(120,240,255,0.22)"/><rect x="327" y="740" width="102" height="5" rx="2" fill="rgba(120,240,255,0.22)"/></g><g><rect x="497" y="340" width="56" height="335" rx="8" fill="rgba(8,18,38,0.58)" stroke="hsl(295, 70%, 52%)" opacity="0.72"/><rect x="509" y="360" width="38" height="5" rx="2" fill="rgba(120,240,255,0.22)"/><rect x="513" y="385" width="38" height="5" rx="2" fill="rgba(120,240,255,0.22)"/><rect x="512" y="412" width="39" height="5" rx="2" fill="rgba(120,240,255,0.22)"/><rect x="505" y="432" width="32" height="5" rx="2" fill="rgba(120,240,255,0.22)"/><rect x="505" y="436" width="31" height="5" rx="2" fill="rgba(120,240,255,0.22)"/><rect x="508" y="480" width="31" height="5" rx="2" fill="rgba(120,240,255,0.22)"/><rect x="506" y="468" width="37" height="5" rx="2" fill="rgba(120,240,255,0.22)"/><rect x="508" y="549" width="31" height="5" rx="2" fill="rgba(120,240,255,0.22)"/><rect x="512" y="568" width="28" height="5" rx="2" fill="rgba(120,240,255,0.22)"/><rect x="511" y="531" width="32" height="5" rx="2" fill="rgba(120,240,255,0.22)"/></g><g><rect x="533" y="448" width="97" height="227" rx="8" fill="rgba(8,18,38,0.58)" stroke="hsl(300, 70%, 52%)" opacity="0.72"/><rect x="548" y="468" width="69" height="5" rx="2" fill="rgba(120,240,255,0.22)"/><rect x="547" y="486" width="73" height="5" rx="2" fill="rgba(120,240,255,0.22)"/><rect x="545" y="518" width="70" height="5" rx="2" fill="rgba(120,240,255,0.22)"/><rect x="542" y="537" width="81" height="5" rx="2" fill="rgba(120,240,255,0.22)"/><rect x="548" y="548" width="73" height="5" rx="2" fill="rgba(120,240,255,0.22)"/><rect x="542" y="588" width="74" height="5" rx="2" fill="rgba(120,240,255,0.22)"/><rect x="545" y="606" width="78" height="5" rx="2" fill="rgba(120,240,255,0.22)"/><rect x="548" y="664" width="75" height="5" rx="2" fill="rgba(120,240,255,0.22)"/><rect x="549" y="636" width="78" height="5" rx="2" fill="rgba(120,240,255,0.22)"/><rect x="544" y="657" width="77" height="5" rx="2" fill="rgba(120,240,255,0.22)"/></g><g><rect x="959" y="374" width="120" height="301" rx="8" fill="rgba(8,18,38,0.58)" stroke="hsl(305, 70%, 52%)" opacity="0.72"/><rect x="973" y="394" width="102" height="5" rx="2" fill="rgba(120,240,255,0.22)"/><rect x="969" y="412" width="103" height="5" rx="2" fill="rgba(120,240,255,0.22)"/><rect x="974" y="450" width="101" height="5" rx="2" fill="rgba(120,240,255,0.22)"/><rect x="970" y="463" width="100" height="5" rx="2" fill="rgba(120,240,255,0.22)"/><rect x="974" y="502" width="95" height="5" rx="2" fill="rgba(120,240,255,0.22)"/></g><g><rect x="757" y="526" width="67" height="149" rx="8" fill="rgba(8,18,38,0.58)" stroke="hsl(310, 70%, 52%)" opacity="0.72"/><rect x="767" y="546" width="47" height="5" rx="2" fill="rgba(120,240,255,0.22)"/><rect x="773" y="567" width="49" height="5" rx="2" fill="rgba(120,240,255,0.22)"/><rect x="771" y="592" width="42" height="5" rx="2" fill="rgba(120,240,255,0.22)"/><rect x="767" y="603" width="48" height="5" rx="2" fill="rgba(120,240,255,0.22)"/><rect x="767" y="654" width="48" height="5" rx="2" fill="rgba(120,240,255,0.22)"/><rect x="766" y="641" width="50" height="5" rx="2" fill="rgba(120,240,255,0.22)"/></g><g><rect x="743" y="455" width="43" height="220" rx="8" fill="rgba(8,18,38,0.58)" stroke="hsl(315, 70%, 52%)" opacity="0.72"/><rect x="757" y="475" width="27" height="5" rx="2" fill="rgba(120,240,255,0.22)"/><rect x="754" y="501" width="22" height="5" rx="2" fill="rgba(120,240,255,0.22)"/><rect x="757" y="529" width="24" height="5" rx="2" fill="rgba(120,240,255,0.22)"/><rect x="756" y="553" width="24" height="5" rx="2" fill="rgba(120,240,255,0.22)"/><rect x="754" y="547" width="16" height="5" rx="2" fill="rgba(120,240,255,0.22)"/><rect x="759" y="615" width="26" height="5" rx="2" fill="rgba(120,240,255,0.22)"/><rect x="751" y="637" width="21" height="5" rx="2" fill="rgba(120,240,255,0.22)"/><rect x="757" y="615" width="19" height="5" rx="2" fill="rgba(120,240,255,0.22)"/><rect x="751" y="699" width="24" height="5" rx="2" fill="rgba(120,240,255,0.22)"/><rect x="753" y="682" width="21" height="5" rx="2" fill="rgba(120,240,255,0.22)"/></g><g><rect x="772" y="547" width="118" height="128" rx="8" fill="rgba(8,18,38,0.58)" stroke="hsl(320, 70%, 52%)" opacity="0.72"/><rect x="785" y="567" width="94" height="5" rx="2" fill="rgba(120,240,255,0.22)"/><rect x="781" y="589" width="101" height="5" rx="2" fill="rgba(120,240,255,0.22)"/><rect x="787" y="609" width="100" height="5" rx="2" fill="rgba(120,240,255,0.22)"/><rect x="787" y="621" width="102" height="5" rx="2" fill="rgba(120,240,255,0.22)"/><rect x="784" y="675" width="95" height="5" rx="2" fill="rgba(120,240,255,0.22)"/><rect x="783" y="672" width="98" height="5" rx="2" fill="rgba(120,240,255,0.22)"/><rect x="782" y="699" width="92" height="5" rx="2" fill="rgba(120,240,255,0.22)"/></g><g><rect x="24" y="548" width="108" height="127" rx="8" fill="rgba(8,18,38,0.58)" stroke="hsl(325, 70%, 52%)" opacity="0.72"/><rect x="37" y="568" width="81" height="5" rx="2" fill="rgba(120,240,255,0.22)"/><rect x="35" y="596" width="80" height="5" rx="2" fill="rgba(120,240,255,0.22)"/><rect x="39" y="610" width="86" height="5" rx="2" fill="rgba(120,240,255,0.22)"/><rect x="35" y="628" width="89" height="5" rx="2" fill="rgba(120,240,255,0.22)"/><rect x="40" y="640" width="83" height="5" rx="2" fill="rgba(120,240,255,0.22)"/><rect x="37" y="658" width="80" height="5" rx="2" fill="rgba(120,240,255,0.22)"/><rect x="38" y="688" width="85" height="5" rx="2" fill="rgba(120,240,255,0.22)"/><rect x="37" y="715" width="92" height="5" rx="2" fill="rgba(120,240,255,0.22)"/><rect x="35" y="736" width="84" height="5" rx="2" fill="rgba(120,240,255,0.22)"/><rect x="34" y="820" width="91" height="5" rx="2" fill="rgba(120,240,255,0.22)"/></g><g><rect x="218" y="317" width="92" height="358" rx="8" fill="rgba(8,18,38,0.58)" stroke="hsl(330, 70%, 52%)" opacity="0.72"/><rect x="227" y="337" width="65" height="5" rx="2" fill="rgba(120,240,255,0.22)"/><rect x="231" y="361" width="75" height="5" rx="2" fill="rgba(120,240,255,0.22)"/><rect x="229" y="377" width="75" height="5" rx="2" fill="rgba(120,240,255,0.22)"/><rect x="227" y="391" width="65" height="5" rx="2" fill="rgba(120,240,255,0.22)"/></g><g><rect x="561" y="426" width="117" height="249" rx="8" fill="rgba(8,18,38,0.58)" stroke="hsl(335, 70%, 52%)" opacity="0.72"/><rect x="570" y="446" width="101" height="5" rx="2" fill="rgba(120,240,255,0.22)"/><rect x="570" y="464" width="96" height="5" rx="2" fill="rgba(120,240,255,0.22)"/><rect x="569" y="490" width="101" height="5" rx="2" fill="rgba(120,240,255,0.22)"/><rect x="570" y="503" width="99" height="5" rx="2" fill="rgba(120,240,255,0.22)"/><rect x="575" y="538" width="93" height="5" rx="2" fill="rgba(120,240,255,0.22)"/><rect x="576" y="561" width="97" height="5" rx="2" fill="rgba(120,240,255,0.22)"/></g><g><rect x="965" y="398" width="100" height="277" rx="8" fill="rgba(8,18,38,0.58)" stroke="hsl(340, 70%, 52%)" opacity="0.72"/><rect x="976" y="418" width="77" height="5" rx="2" fill="rgba(120,240,255,0.22)"/><rect x="977" y="438" width="84" height="5" rx="2" fill="rgba(120,240,255,0.22)"/><rect x="974" y="472" width="79" height="5" rx="2" fill="rgba(120,240,255,0.22)"/><rect x="981" y="493" width="83" height="5" rx="2" fill="rgba(120,240,255,0.22)"/><rect x="979" y="526" width="77" height="5" rx="2" fill="rgba(120,240,255,0.22)"/><rect x="975" y="528" width="77" height="5" rx="2" fill="rgba(120,240,255,0.22)"/><rect x="977" y="580" width="75" height="5" rx="2" fill="rgba(120,240,255,0.22)"/><rect x="980" y="579" width="75" height="5" rx="2" fill="rgba(120,240,255,0.22)"/></g><g><rect x="550" y="362" width="47" height="313" rx="8" fill="rgba(8,18,38,0.58)" stroke="hsl(345, 70%, 52%)" opacity="0.72"/><rect x="562" y="382" width="23" height="5" rx="2" fill="rgba(120,240,255,0.22)"/><rect x="564" y="401" width="25" height="5" rx="2" fill="rgba(120,240,255,0.22)"/><rect x="558" y="418" width="20" height="5" rx="2" fill="rgba(120,240,255,0.22)"/><rect x="565" y="451" width="20" height="5" rx="2" fill="rgba(120,240,255,0.22)"/><rect x="558" y="482" width="30" height="5" rx="2" fill="rgba(120,240,255,0.22)"/></g><g><rect x="1057" y="371" width="61" height="304" rx="8" fill="rgba(8,18,38,0.58)" stroke="hsl(350, 70%, 52%)" opacity="0.72"/><rect x="1072" y="391" width="35" height="5" rx="2" fill="rgba(120,240,255,0.22)"/><rect x="1069" y="411" width="34" height="5" rx="2" fill="rgba(120,240,255,0.22)"/><rect x="1072" y="427" width="37" height="5" rx="2" fill="rgba(120,240,255,0.22)"/><rect x="1072" y="466" width="38" height="5" rx="2" fill="rgba(120,240,255,0.22)"/><rect x="1066" y="499" width="34" height="5" rx="2" fill="rgba(120,240,255,0.22)"/><rect x="1065" y="516" width="33" height="5" rx="2" fill="rgba(120,240,255,0.22)"/><rect x="1066" y="499" width="34" height="5" rx="2" fill="rgba(120,240,255,0.22)"/><rect x="1072" y="538" width="44" height="5" rx="2" fill="rgba(120,240,255,0.22)"/><rect x="1069" y="575" width="36" height="5" rx="2" fill="rgba(120,240,255,0.22)"/><rect x="1072" y="571" width="43" height="5" rx="2" fill="rgba(120,240,255,0.22)"/></g><g><rect x="243" y="413" width="81" height="262" rx="8" fill="rgba(8,18,38,0.58)" stroke="hsl(355, 70%, 52%)" opacity="0.72"/><rect x="257" y="433" width="56" height="5" rx="2" fill="rgba(120,240,255,0.22)"/><rect x="256" y="455" width="61" height="5" rx="2" fill="rgba(120,240,255,0.22)"/><rect x="252" y="473" width="63" height="5" rx="2" fill="rgba(120,240,255,0.22)"/><rect x="258" y="496" width="57" height="5" rx="2" fill="rgba(120,240,255,0.22)"/><rect x="253" y="517" width="57" height="5" rx="2" fill="rgba(120,240,255,0.22)"/><rect x="252" y="558" width="53" height="5" rx="2" fill="rgba(120,240,255,0.22)"/><rect x="253" y="559" width="57" height="5" rx="2" fill="rgba(120,240,255,0.22)"/><rect x="258" y="587" width="53" height="5" rx="2" fill="rgba(120,240,255,0.22)"/><rect x="255" y="617" width="62" height="5" rx="2" fill="rgba(120,240,255,0.22)"/></g><g><rect x="1032" y="465" width="65" height="210" rx="8" fill="rgba(8,18,38,0.58)" stroke="hsl(360, 70%, 52%)" opacity="0.72"/><rect x="1046" y="485" width="42" height="5" rx="2" fill="rgba(120,240,255,0.22)"/><rect x="1040" y="505" width="39" height="5" rx="2" fill="rgba(120,240,255,0.22)"/><rect x="1043" y="523" width="39" height="5" rx="2" fill="rgba(120,240,255,0.22)"/><rect x="1047" y="548" width="47" height="5" rx="2" fill="rgba(120,240,255,0.22)"/><rect x="1046" y="561" width="48" height="5" rx="2" fill="rgba(120,240,255,0.22)"/><rect x="1042" y="610" width="41" height="5" rx="2" fill="rgba(120,240,255,0.22)"/><rect x="1043" y="641" width="40" height="5" rx="2" fill="rgba(120,240,255,0.22)"/></g><g><rect x="677" y="414" width="67" height="261" rx="8" fill="rgba(8,18,38,0.58)" stroke="hsl(365, 70%, 52%)" opacity="0.72"/><rect x="689" y="434" width="51" height="5" rx="2" fill="rgba(120,240,255,0.22)"/><rect x="689" y="461" width="46" height="5" rx="2" fill="rgba(120,240,255,0.22)"/><rect x="689" y="480" width="49" height="5" rx="2" fill="rgba(120,240,255,0.22)"/><rect x="686" y="506" width="51" height="5" rx="2" fill="rgba(120,240,255,0.22)"/><rect x="685" y="510" width="41" height="5" rx="2" fill="rgba(120,240,255,0.22)"/><rect x="685" y="534" width="51" height="5" rx="2" fill="rgba(120,240,255,0.22)"/><rect x="686" y="584" width="45" height="5" rx="2" fill="rgba(120,240,255,0.22)"/><rect x="688" y="588" width="47" height="5" rx="2" fill="rgba(120,240,255,0.22)"/><rect x="692" y="658" width="50" height="5" rx="2" fill="rgba(120,240,255,0.22)"/></g></g>
  <g id="scene-sparkles"><circle cx="171" cy="101" r="3.31" fill="rgba(180,240,255,0.36)"/><circle cx="977" cy="21" r="2.82" fill="rgba(180,240,255,0.23)"/><circle cx="468" cy="61" r="1.26" fill="rgba(180,240,255,0.33)"/><circle cx="954" cy="539" r="1.41" fill="rgba(180,240,255,0.15)"/><circle cx="201" cy="134" r="3.30" fill="rgba(180,240,255,0.17)"/><circle cx="296" cy="453" r="3.08" fill="rgba(180,240,255,0.41)"/><circle cx="623" cy="256" r="3.37" fill="rgba(180,240,255,0.28)"/><circle cx="212" cy="450" r="2.95" fill="rgba(180,240,255,0.18)"/><circle cx="92" cy="212" r="1.99" fill="rgba(180,240,255,0.37)"/><circle cx="76" cy="84" r="1.91" fill="rgba(180,240,255,0.32)"/><circle cx="686" cy="195" r="2.72" fill="rgba(180,240,255,0.42)"/><circle cx="873" cy="116" r="2.81" fill="rgba(180,240,255,0.39)"/><circle cx="996" cy="241" r="1.65" fill="rgba(180,240,255,0.34)"/><circle cx="368" cy="391" r="2.85" fill="rgba(180,240,255,0.31)"/><circle cx="407" cy="363" r="2.54" fill="rgba(180,240,255,0.32)"/><circle cx="791" cy="197" r="2.93" fill="rgba(180,240,255,0.20)"/></g>
  <rect width="1200" height="675" fill="rgba(190,220,255,0.06)"/>
  <rect width="1200" height="675" filter="url(#grain-94)"/>
  <rect width="1200" height="675" fill="url(#vignette-94)"/>
  <rect x="20" y="20" width="1160" height="635" rx="32" fill="none" stroke="rgba(155,220,255,0.24)"/>
</svg>