<?xml version="1.0" encoding="UTF-8"?>
<svg xmlns="http://www.w3.org/2000/svg" width="1200" height="675" viewBox="0 0 1200 675" role="img" aria-label="AIGC fallback cover 60" data-scene="scene-10">
  <defs>
    <linearGradient id="bg-60" x1="0" y1="0" x2="1" y2="1">
      <stop offset="0%" stop-color="hsl(306, 82%, 16%)"/>
      <stop offset="52%" stop-color="hsl(7, 84%, 23%)"/>
      <stop offset="100%" stop-color="hsl(57, 78%, 12%)"/>
    </linearGradient>
    <filter id="blur-60" x="-25%" y="-25%" width="150%" height="150%">
      <feGaussianBlur stdDeviation="26"/>
    </filter>
    <filter id="soft-60" x="-25%" y="-25%" width="150%" height="150%">
      <feGaussianBlur stdDeviation="10"/>
    </filter>
    <filter id="grain-60" x="0%" y="0%" width="100%" height="100%">
      <feTurbulence type="fractalNoise" baseFrequency="0.9" numOctaves="2" seed="780" stitchTiles="stitch"/>
      <feColorMatrix type="saturate" values="0"/>
      <feComponentTransfer>
        <feFuncA type="table" tableValues="0 0.05"/>
      </feComponentTransfer>
    </filter>
    <radialGradient id="vignette-60" cx="50%" cy="45%" r="70%">
      <stop offset="60%" stop-color="rgba(0,0,0,0)"/>
      <stop offset="100%" stop-color="rgba(0,0,0,0.45)"/>
    </radialGradient>
  </defs>

  <rect width="1200" height="675" fill="url(#bg-60)"/>
  <circle cx="326" cy="602" r="122" fill="hsl(306, 92%, 62%)" opacity="0.17" filter="url(#blur-60)"/><circle cx="906" cy="110" r="126" fill="hsl(332, 92%, 62%)" opacity="0.13" filter="url(#blur-60)"/><circle cx="861" cy="556" r="219" fill="hsl(358, 92%, 62%)" opacity="0.09" filter="url(#blur-60)"/>
  <circle cx="383" cy="190" r="41" fill="rgba(210,240,255,0.11)" filter="url(#soft-60)"/><circle cx="275" cy="324" r="24" fill="rgba(210,240,255,0.08)" filter="url(#soft-60)"/><circle cx="344" cy="394" r="53" fill="rgba(210,240,255,0.11)" filter="url(#soft-60)"/><circle cx="171" cy="139" r="48" fill="rgba(210,240,255,0.14)" filter="url(#soft-60)"/><circle cx="1119" cy="458" r="61" fill="rgba(210,240,255,0.11)" filter="url(#soft-60)"/><circle cx="777" cy="350" r="41" fill="rgba(210,240,255,0.10)" filter="url(#soft-60)"/><circle cx="532" cy="382" r="20" fill="rgba(210,240,255,0.10)" filter="url(#soft-60)"/><circle cx="557" cy="68" r="30" fill="rgba(210,240,255,0.14)" filter="url(#soft-60)"/><circle cx="748" cy="397" r="69" fill="rgba(210,240,255,0.11)" filter="url(#soft-60)"/><circle cx="258" cy="361" r="44" fill="rgba(210,240,255,0.10)" filter="url(#soft-60)"/>
  <polygon points="0,675 1200,675 1186,397 14,397" fill="rgba(8,16,28,0.35)"/>
  <g id="scene-robot-arms"><g><circle cx="171" cy="418" r="16" fill="rgba(120,215,255,0.75)"/><line x1="171" y1="418" x2="62" y2="274" stroke="rgba(145,235,255,0.62)" stroke-width="12" stroke-linecap="round"/><line x1="62" y1="274" x2="-9" y2="114" stroke="rgba(120,255,220,0.6)" stroke-width="9" stroke-linecap="round"/><circle cx="62" cy="274" r="10" fill="rgba(150,245,255,0.8)"/><circle cx="-9" cy="114" r="8" fill="rgba(120,255,220,0.86)"/></g><g><circle cx="350" cy="384" r="16" fill="rgba(120,215,255,0.75)"/><line x1="350" y1="384" x2="296" y2="223" stroke="rgba(145,235,255,0.62)" stroke-width="13" stroke-linecap="round"/><line x1="296" y1="223" x2="380" y2="134" stroke="rgba(120,255,220,0.6)" stroke-width="8" stroke-linecap="round"/><circle cx="296" cy="223" r="10" fill="rgba(150,245,255,0.8)"/><circle cx="380" cy="134" r="8" fill="rgba(120,255,220,0.86)"/></g><g><circle cx="285" cy="406" r="16" fill="rgba(120,215,255,0.75)"/><line x1="285" y1="406" x2="344" y2="204" stroke="rgba(145,235,255,0.62)" stroke-width="12" stroke-linecap="round"/><line x1="344" y1="204" x2="275" y2="129" stroke="rgba(120,255,220,0.6)" stroke-width="10" stroke-linecap="round"/><circle cx="344" cy="204" r="10" fill="rgba(150,245,255,0.8)"/><circle cx="275" cy="129" r="8" fill="rgba(120,255,220,0.86)"/></g></g>
  <g id="scene-sparkles"><circle cx="56" cy="92" r="3.16" fill="rgba(180,240,255,0.18)"/><circle cx="976" cy="265" r="1.26" fill="rgba(180,240,255,0.30)"/><circle cx="221" cy="382" r="3.05" fill="rgba(180,240,255,0.21)"/><circle cx="606" cy="133" r="1.39" fill="rgba(180,240,255,0.18)"/><circle cx="324" cy="72" r="2.42" fill="rgba(180,240,255,0.18)"/><circle cx="247" cy="31" r="1.79" fill="rgba(180,240,255,0.21)"/><circle cx="533" cy="596" r="2.67" fill="rgba(180,240,255,0.25)"/><circle cx="175" cy="562" r="1.60" fill="rgba(180,240,255,0.34)"/><circle cx="159" cy="366" r="1.49" fill="rgba(180,240,255,0.16)"/><circle cx="360" cy="71" r="1.93" fill="rgba(180,240,255,0.24)"/><circle cx="446" cy="372" r="3.26" fill="rgba(180,240,255,0.30)"/><circle cx="965" cy="426" r="3.34" fill="rgba(180,240,255,0.39)"/><circle cx="917" cy="482" r="1.77" fill="rgba(180,240,255,0.17)"/><circle cx="358" cy="334" r="2.92" fill="rgba(180,240,255,0.28)"/><circle cx="1004" cy="391" r="1.54" fill="rgba(180,240,255,0.40)"/><circle cx="407" cy="149" r="3.28" fill="rgba(180,240,255,0.33)"/><circle cx="1081" cy="398" r="1.30" fill="rgba(180,240,255,0.38)"/><circle cx="749" cy="245" r="2.72" fill="rgba(180,240,255,0.32)"/><circle cx="1056" cy="295" r="2.89" fill="rgba(180,240,255,0.37)"/><circle cx="407" cy="325" r="2.97" fill="rgba(180,240,255,0.27)"/><circle cx="459" cy="422" r="3.03" fill="rgba(180,240,255,0.30)"/><circle cx="160" cy="323" r="3.34" fill="rgba(180,240,255,0.32)"/><circle cx="417" cy="444" r="2.40" fill="rgba(180,240,255,0.45)"/><circle cx="886" cy="526" r="1.52" fill="rgba(180,240,255,0.37)"/></g>
  <rect width="1200" height="675" fill="rgba(190,220,255,0.06)"/>
  <rect width="1200" height="675" filter="url(#grain-60)"/>
  <rect width="1200" height="675" fill="url(#vignette-60)"/>
  <rect x="20" y="20" width="1160" height="635" rx="32" fill="none" stroke="rgba(155,220,255,0.24)"/>
</svg>