<?xml version="1.0" encoding="UTF-8"?>
<svg xmlns="http://www.w3.org/2000/svg" width="1200" height="675" viewBox="0 0 1200 675" role="img" aria-label="Fallback cover 7" data-scene="landscape-7">
  
  <defs>
    <linearGradient id="sky-7" x1="0" y1="0" x2="0" y2="1">
      <stop offset="0%" stop-color="hsl(165, 70%, 74%)"/>
      <stop offset="55%" stop-color="hsl(207, 64%, 56%)"/>
      <stop offset="100%" stop-color="hsl(293, 46%, 34%)"/>
    </linearGradient>
    <filter id="grain-7" x="0%" y="0%" width="100%" height="100%">
      <feTurbulence type="fractalNoise" baseFrequency="0.85" numOctaves="2" seed="119" stitchTiles="stitch"/>
      <feColorMatrix type="saturate" values="0"/>
      <feComponentTransfer><feFuncA type="table" tableValues="0 0.05"/></feComponentTransfer>
    </filter>
    <filter id="soft-7" x="-30%" y="-30%" width="160%" height="160%">
      <feGaussianBlur stdDeviation="12"/>
    </filter>
    <radialGradient id="vignette-7" cx="50%" cy="45%" r="72%">
      <stop offset="60%" stop-color="rgba(0,0,0,0)"/>
      <stop offset="100%" stop-color="rgba(0,0,0,0.42)"/>
    </radialGradient>
  </defs>
  <rect width="1200" height="675" fill="url(#sky-7)"/>
  <path d="M 0 250 C 180 260, 210 440, 240 675 L 0 675 Z" fill="hsl(173, 44%, 36%)"/><path d="M 1200 220 C 1020 280, 980 470, 940 675 L 1200 675 Z" fill="hsl(167, 42%, 34%)"/><path d="M 320 675 C 520 520, 760 520, 900 675 Z" fill="rgba(70,120,155,0.38)"/>
  <g id="scene-sparkles"><circle cx="758" cy="416" r="1.79" fill="rgba(245,250,255,0.19)"/><circle cx="266" cy="66" r="2.12" fill="rgba(245,250,255,0.30)"/><circle cx="161" cy="271" r="2.43" fill="rgba(245,250,255,0.19)"/><circle cx="184" cy="103" r="2.54" fill="rgba(245,250,255,0.36)"/><circle cx="378" cy="426" r="2.66" fill="rgba(245,250,255,0.33)"/><circle cx="446" cy="167" r="1.66" fill="rgba(245,250,255,0.18)"/><circle cx="1076" cy="640" r="1.87" fill="rgba(245,250,255,0.15)"/><circle cx="593" cy="238" r="2.55" fill="rgba(245,250,255,0.16)"/><circle cx="750" cy="25" r="2.32" fill="rgba(245,250,255,0.20)"/><circle cx="51" cy="355" r="1.23" fill="rgba(245,250,255,0.32)"/><circle cx="781" cy="462" r="2.45" fill="rgba(245,250,255,0.35)"/><circle cx="575" cy="541" r="2.65" fill="rgba(245,250,255,0.22)"/><circle cx="1095" cy="353" r="1.50" fill="rgba(245,250,255,0.23)"/><circle cx="646" cy="618" r="1.82" fill="rgba(245,250,255,0.31)"/><circle cx="529" cy="96" r="1.11" fill="rgba(245,250,255,0.20)"/><circle cx="624" cy="572" r="1.35" fill="rgba(245,250,255,0.19)"/><circle cx="540" cy="635" r="1.63" fill="rgba(245,250,255,0.16)"/><circle cx="561" cy="27" r="1.89" fill="rgba(245,250,255,0.29)"/><circle cx="685" cy="370" r="2.00" fill="rgba(245,250,255,0.36)"/><circle cx="116" cy="564" r="2.26" fill="rgba(245,250,255,0.37)"/><circle cx="387" cy="552" r="2.43" fill="rgba(245,250,255,0.28)"/><circle cx="570" cy="347" r="1.77" fill="rgba(245,250,255,0.31)"/><circle cx="893" cy="565" r="1.74" fill="rgba(245,250,255,0.30)"/><circle cx="429" cy="451" r="1.11" fill="rgba(245,250,255,0.20)"/></g>
  <rect width="1200" height="675" filter="url(#grain-7)"/>
  <rect width="1200" height="675" fill="url(#vignette-7)"/>
</svg>