<?xml version="1.0" encoding="UTF-8"?>
<svg xmlns="http://www.w3.org/2000/svg" width="1200" height="675" viewBox="0 0 1200 675" role="img" aria-label="AIGC fallback cover 25" data-scene="scene-5">
  <defs>
    <linearGradient id="bg-25" x1="0" y1="0" x2="1" y2="1">
      <stop offset="0%" stop-color="hsl(307, 82%, 16%)"/>
      <stop offset="52%" stop-color="hsl(346, 84%, 23%)"/>
      <stop offset="100%" stop-color="hsl(85, 78%, 12%)"/>
    </linearGradient>
    <filter id="blur-25" x="-25%" y="-25%" width="150%" height="150%">
      <feGaussianBlur stdDeviation="26"/>
    </filter>
    <filter id="soft-25" x="-25%" y="-25%" width="150%" height="150%">
      <feGaussianBlur stdDeviation="10"/>
    </filter>
    <filter id="grain-25" x="0%" y="0%" width="100%" height="100%">
      <feTurbulence type="fractalNoise" baseFrequency="0.9" numOctaves="2" seed="325" stitchTiles="stitch"/>
      <feColorMatrix type="saturate" values="0"/>
      <feComponentTransfer>
        <feFuncA type="table" tableValues="0 0.05"/>
      </feComponentTransfer>
    </filter>
    <radialGradient id="vignette-25" cx="50%" cy="45%" r="70%">
      <stop offset="60%" stop-color="rgba(0,0,0,0)"/>
      <stop offset="100%" stop-color="rgba(0,0,0,0.45)"/>
    </radialGradient>
  </defs>

  <rect width="1200" height="675" fill="url(#bg-25)"/>
  <circle cx="400" cy="500" r="124" fill="hsl(307, 92%, 62%)" opacity="0.10" filter="url(#blur-25)"/><circle cx="880" cy="425" r="219" fill="hsl(333, 92%, 62%)" opacity="0.13" filter="url(#blur-25)"/><circle cx="513" cy="130" r="146" fill="hsl(359, 92%, 62%)" opacity="0.09" filter="url(#blur-25)"/>
  <circle cx="113" cy="330" r="52" fill="rgba(210,240,255,0.16)" filter="url(#soft-25)"/><circle cx="420" cy="255" r="23" fill="rgba(210,240,255,0.16)" filter="url(#soft-25)"/><circle cx="760" cy="236" r="52" fill="rgba(210,240,255,0.07)" filter="url(#soft-25)"/><circle cx="337" cy="370" r="57" fill="rgba(210,240,255,0.13)" filter="url(#soft-25)"/><circle cx="1139" cy="448" r="44" fill="rgba(210,240,255,0.13)" filter="url(#soft-25)"/><circle cx="133" cy="47" r="48" fill="rgba(210,240,255,0.16)" filter="url(#soft-25)"/><circle cx="703" cy="418" r="36" fill="rgba(210,240,255,0.10)" filter="url(#soft-25)"/><circle cx="547" cy="304" r="59" fill="rgba(210,240,255,0.12)" filter="url(#soft-25)"/><circle cx="124" cy="289" r="30" fill="rgba(210,240,255,0.10)" filter="url(#soft-25)"/><circle cx="880" cy="116" r="43" fill="rgba(210,240,255,0.12)" filter="url(#soft-25)"/>
  <polygon points="0,675 1200,675 1021,427 179,427" fill="rgba(8,16,28,0.35)"/>
  <g id="scene-wave"><path d="M 0 222 C 54.25 163, 162.75 281, 217 222 S 379.75 163, 434 222" transform="translate(93,0) scale(1.7445971690583972,1)" fill="none" stroke="rgba(132,236,255,0.20)" stroke-width="4"/><path d="M 0 384 C 129.25 343, 387.75 425, 517 384 S 904.75 343, 1034 384" transform="translate(31,0) scale(1.2130890850443392,1)" fill="none" stroke="rgba(132,236,255,0.40)" stroke-width="7"/><path d="M 0 505 C 78.25 471, 234.75 539, 313 505 S 547.75 471, 626 505" transform="translate(178,0) scale(2.0302257176022978,1)" fill="none" stroke="rgba(132,236,255,0.31)" stroke-width="3"/><path d="M 0 449 C 103.25 412, 309.75 486, 413 449 S 722.75 412, 826 449" transform="translate(47,0) scale(1.3289900906849652,1)" fill="none" stroke="rgba(132,236,255,0.25)" stroke-width="3"/></g>
  <g id="scene-sparkles"><circle cx="65" cy="221" r="2.98" fill="rgba(180,240,255,0.42)"/><circle cx="659" cy="377" r="1.17" fill="rgba(180,240,255,0.25)"/><circle cx="42" cy="547" r="3.07" fill="rgba(180,240,255,0.18)"/><circle cx="996" cy="370" r="3.05" fill="rgba(180,240,255,0.15)"/><circle cx="589" cy="141" r="1.76" fill="rgba(180,240,255,0.17)"/><circle cx="645" cy="527" r="2.79" fill="rgba(180,240,255,0.37)"/><circle cx="606" cy="592" r="2.20" fill="rgba(180,240,255,0.23)"/><circle cx="906" cy="619" r="2.81" fill="rgba(180,240,255,0.17)"/><circle cx="90" cy="625" r="1.77" fill="rgba(180,240,255,0.19)"/><circle cx="851" cy="139" r="1.47" fill="rgba(180,240,255,0.43)"/><circle cx="90" cy="196" r="2.26" fill="rgba(180,240,255,0.18)"/><circle cx="21" cy="464" r="1.18" fill="rgba(180,240,255,0.35)"/><circle cx="1076" cy="337" r="2.32" fill="rgba(180,240,255,0.19)"/><circle cx="166" cy="249" r="1.44" fill="rgba(180,240,255,0.36)"/><circle cx="409" cy="507" r="1.80" fill="rgba(180,240,255,0.37)"/><circle cx="658" cy="142" r="3.10" fill="rgba(180,240,255,0.17)"/><circle cx="940" cy="222" r="3.00" fill="rgba(180,240,255,0.21)"/><circle cx="459" cy="483" r="1.48" fill="rgba(180,240,255,0.22)"/><circle cx="605" cy="373" r="2.47" fill="rgba(180,240,255,0.24)"/><circle cx="227" cy="147" r="3.01" fill="rgba(180,240,255,0.31)"/><circle cx="1174" cy="282" r="1.69" fill="rgba(180,240,255,0.25)"/><circle cx="293" cy="533" r="1.65" fill="rgba(180,240,255,0.45)"/><circle cx="516" cy="218" r="2.83" fill="rgba(180,240,255,0.17)"/></g>
  <rect width="1200" height="675" fill="rgba(190,220,255,0.06)"/>
  <rect width="1200" height="675" filter="url(#grain-25)"/>
  <rect width="1200" height="675" fill="url(#vignette-25)"/>
  <rect x="20" y="20" width="1160" height="635" rx="32" fill="none" stroke="rgba(155,220,255,0.24)"/>
</svg>