<?xml version="1.0" encoding="UTF-8"?>
<svg xmlns="http://www.w3.org/2000/svg" width="1200" height="675" viewBox="0 0 1200 675" role="img" aria-label="AIGC fallback cover 69" data-scene="scene-9">
  <defs>
    <linearGradient id="bg-69" x1="0" y1="0" x2="1" y2="1">
      <stop offset="0%" stop-color="hsl(334, 82%, 16%)"/>
      <stop offset="52%" stop-color="hsl(13, 84%, 23%)"/>
      <stop offset="100%" stop-color="hsl(108, 78%, 12%)"/>
    </linearGradient>
    <filter id="blur-69" x="-25%" y="-25%" width="150%" height="150%">
      <feGaussianBlur stdDeviation="26"/>
    </filter>
    <filter id="soft-69" x="-25%" y="-25%" width="150%" height="150%">
      <feGaussianBlur stdDeviation="10"/>
    </filter>
    <filter id="grain-69" x="0%" y="0%" width="100%" height="100%">
      <feTurbulence type="fractalNoise" baseFrequency="0.9" numOctaves="2" seed="897" stitchTiles="stitch"/>
      <feColorMatrix type="saturate" values="0"/>
      <feComponentTransfer>
        <feFuncA type="table" tableValues="0 0.05"/>
      </feComponentTransfer>
    </filter>
    <radialGradient id="vignette-69" cx="50%" cy="45%" r="70%">
      <stop offset="60%" stop-color="rgba(0,0,0,0)"/>
      <stop offset="100%" stop-color="rgba(0,0,0,0.45)"/>
    </radialGradient>
  </defs>

  <rect width="1200" height="675" fill="url(#bg-69)"/>
  <circle cx="761" cy="170" r="98" fill="hsl(334, 92%, 62%)" opacity="0.08" filter="url(#blur-69)"/><circle cx="997" cy="189" r="151" fill="hsl(360, 92%, 62%)" opacity="0.12" filter="url(#blur-69)"/><circle cx="1027" cy="86" r="215" fill="hsl(386, 92%, 62%)" opacity="0.15" filter="url(#blur-69)"/>
  <circle cx="450" cy="397" r="36" fill="rgba(210,240,255,0.13)" filter="url(#soft-69)"/><circle cx="342" cy="127" r="22" fill="rgba(210,240,255,0.14)" filter="url(#soft-69)"/><circle cx="746" cy="127" r="58" fill="rgba(210,240,255,0.07)" filter="url(#soft-69)"/><circle cx="597" cy="311" r="36" fill="rgba(210,240,255,0.08)" filter="url(#soft-69)"/><circle cx="1050" cy="64" r="50" fill="rgba(210,240,255,0.07)" filter="url(#soft-69)"/><circle cx="728" cy="442" r="43" fill="rgba(210,240,255,0.10)" filter="url(#soft-69)"/><circle cx="305" cy="303" r="54" fill="rgba(210,240,255,0.11)" filter="url(#soft-69)"/><circle cx="409" cy="241" r="64" fill="rgba(210,240,255,0.12)" filter="url(#soft-69)"/><circle cx="955" cy="314" r="45" fill="rgba(210,240,255,0.06)" filter="url(#soft-69)"/><circle cx="87" cy="155" r="62" fill="rgba(210,240,255,0.12)" filter="url(#soft-69)"/>
  <polygon points="0,675 1200,675 1047,433 153,433" fill="rgba(8,16,28,0.35)"/>
  <g id="scene-drone-swarm"><g transform="translate(194,314) scale(1.39)"><rect x="-10" y="-5" width="20" height="10" rx="3" fill="rgba(180,240,255,0.58)"/><line x1="-20" y1="0" x2="20" y2="0" stroke="rgba(150,230,255,0.6)" stroke-width="2"/><line x1="0" y1="-16" x2="0" y2="16" stroke="rgba(150,230,255,0.6)" stroke-width="2"/></g><g transform="translate(814,266) scale(1.00)"><rect x="-10" y="-5" width="20" height="10" rx="3" fill="rgba(180,240,255,0.58)"/><line x1="-20" y1="0" x2="20" y2="0" stroke="rgba(150,230,255,0.6)" stroke-width="2"/><line x1="0" y1="-16" x2="0" y2="16" stroke="rgba(150,230,255,0.6)" stroke-width="2"/></g><g transform="translate(620,300) scale(1.40)"><rect x="-10" y="-5" width="20" height="10" rx="3" fill="rgba(180,240,255,0.58)"/><line x1="-20" y1="0" x2="20" y2="0" stroke="rgba(150,230,255,0.6)" stroke-width="2"/><line x1="0" y1="-16" x2="0" y2="16" stroke="rgba(150,230,255,0.6)" stroke-width="2"/></g><g transform="translate(916,190) scale(0.88)"><rect x="-10" y="-5" width="20" height="10" rx="3" fill="rgba(180,240,255,0.58)"/><line x1="-20" y1="0" x2="20" y2="0" stroke="rgba(150,230,255,0.6)" stroke-width="2"/><line x1="0" y1="-16" x2="0" y2="16" stroke="rgba(150,230,255,0.6)" stroke-width="2"/></g><g transform="translate(736,142) scale(0.90)"><rect x="-10" y="-5" width="20" height="10" rx="3" fill="rgba(180,240,255,0.58)"/><line x1="-20" y1="0" x2="20" y2="0" stroke="rgba(150,230,255,0.6)" stroke-width="2"/><line x1="0" y1="-16" x2="0" y2="16" stroke="rgba(150,230,255,0.6)" stroke-width="2"/></g><g transform="translate(436,236) scale(1.01)"><rect x="-10" y="-5" width="20" height="10" rx="3" fill="rgba(180,240,255,0.58)"/><line x1="-20" y1="0" x2="20" y2="0" stroke="rgba(150,230,255,0.6)" stroke-width="2"/><line x1="0" y1="-16" x2="0" y2="16" stroke="rgba(150,230,255,0.6)" stroke-width="2"/></g><g transform="translate(851,253) scale(0.96)"><rect x="-10" y="-5" width="20" height="10" rx="3" fill="rgba(180,240,255,0.58)"/><line x1="-20" y1="0" x2="20" y2="0" stroke="rgba(150,230,255,0.6)" stroke-width="2"/><line x1="0" y1="-16" x2="0" y2="16" stroke="rgba(150,230,255,0.6)" stroke-width="2"/></g><g transform="translate(132,169) scale(0.85)"><rect x="-10" y="-5" width="20" height="10" rx="3" fill="rgba(180,240,255,0.58)"/><line x1="-20" y1="0" x2="20" y2="0" stroke="rgba(150,230,255,0.6)" stroke-width="2"/><line x1="0" y1="-16" x2="0" y2="16" stroke="rgba(150,230,255,0.6)" stroke-width="2"/></g><g transform="translate(765,131) scale(1.31)"><rect x="-10" y="-5" width="20" height="10" rx="3" fill="rgba(180,240,255,0.58)"/><line x1="-20" y1="0" x2="20" y2="0" stroke="rgba(150,230,255,0.6)" stroke-width="2"/><line x1="0" y1="-16" x2="0" y2="16" stroke="rgba(150,230,255,0.6)" stroke-width="2"/></g></g>
  <g id="scene-sparkles"><circle cx="837" cy="514" r="1.42" fill="rgba(180,240,255,0.31)"/><circle cx="883" cy="60" r="2.41" fill="rgba(180,240,255,0.17)"/><circle cx="1053" cy="527" r="2.98" fill="rgba(180,240,255,0.16)"/><circle cx="1039" cy="539" r="2.95" fill="rgba(180,240,255,0.19)"/><circle cx="276" cy="188" r="1.86" fill="rgba(180,240,255,0.32)"/><circle cx="286" cy="653" r="3.38" fill="rgba(180,240,255,0.31)"/><circle cx="989" cy="317" r="2.97" fill="rgba(180,240,255,0.24)"/><circle cx="526" cy="541" r="2.00" fill="rgba(180,240,255,0.21)"/><circle cx="1117" cy="336" r="2.97" fill="rgba(180,240,255,0.36)"/><circle cx="84" cy="544" r="2.30" fill="rgba(180,240,255,0.27)"/><circle cx="715" cy="80" r="2.31" fill="rgba(180,240,255,0.43)"/><circle cx="519" cy="496" r="1.32" fill="rgba(180,240,255,0.42)"/><circle cx="64" cy="114" r="3.36" fill="rgba(180,240,255,0.20)"/><circle cx="24" cy="249" r="1.27" fill="rgba(180,240,255,0.40)"/><circle cx="1027" cy="578" r="3.27" fill="rgba(180,240,255,0.26)"/><circle cx="797" cy="353" r="1.55" fill="rgba(180,240,255,0.35)"/><circle cx="47" cy="276" r="2.07" fill="rgba(180,240,255,0.32)"/><circle cx="61" cy="54" r="2.84" fill="rgba(180,240,255,0.44)"/><circle cx="62" cy="414" r="3.32" fill="rgba(180,240,255,0.20)"/><circle cx="729" cy="68" r="1.66" fill="rgba(180,240,255,0.29)"/><circle cx="59" cy="627" r="1.27" fill="rgba(180,240,255,0.39)"/><circle cx="208" cy="196" r="2.18" fill="rgba(180,240,255,0.40)"/></g>
  <rect width="1200" height="675" fill="rgba(190,220,255,0.06)"/>
  <rect width="1200" height="675" filter="url(#grain-69)"/>
  <rect width="1200" height="675" fill="url(#vignette-69)"/>
  <rect x="20" y="20" width="1160" height="635" rx="32" fill="none" stroke="rgba(155,220,255,0.24)"/>
</svg>