<?xml version="1.0" encoding="UTF-8"?>
<svg xmlns="http://www.w3.org/2000/svg" width="1200" height="675" viewBox="0 0 1200 675" role="img" aria-label="AIGC fallback cover 92" data-scene="scene-2">
  <defs>
    <linearGradient id="bg-92" x1="0" y1="0" x2="1" y2="1">
      <stop offset="0%" stop-color="hsl(183, 82%, 16%)"/>
      <stop offset="52%" stop-color="hsl(249, 84%, 23%)"/>
      <stop offset="100%" stop-color="hsl(314, 78%, 12%)"/>
    </linearGradient>
    <filter id="blur-92" x="-25%" y="-25%" width="150%" height="150%">
      <feGaussianBlur stdDeviation="26"/>
    </filter>
  </defs>

  <rect width="1200" height="675" fill="url(#bg-92)"/>
  <circle cx="1066" cy="497" r="166" fill="hsl(183, 92%, 62%)" opacity="0.11" filter="url(#blur-92)"/><circle cx="868" cy="255" r="134" fill="hsl(209, 92%, 62%)" opacity="0.10" filter="url(#blur-92)"/><circle cx="371" cy="71" r="155" fill="hsl(235, 92%, 62%)" opacity="0.12" filter="url(#blur-92)"/>
  <g id="scene-circuit"><line x1="532" y1="372" x2="532" y2="518" stroke="rgba(135,220,255,0.28)" stroke-width="4" stroke-linecap="round"/><line x1="875" y1="131" x2="981" y2="131" stroke="rgba(135,220,255,0.28)" stroke-width="2" stroke-linecap="round"/><line x1="437" y1="254" x2="437" y2="343" stroke="rgba(135,220,255,0.28)" stroke-width="3" stroke-linecap="round"/><line x1="522" y1="566" x2="522" y2="640" stroke="rgba(135,220,255,0.28)" stroke-width="6" stroke-linecap="round"/><line x1="684" y1="118" x2="684" y2="273" stroke="rgba(135,220,255,0.28)" stroke-width="3" stroke-linecap="round"/><line x1="1041" y1="282" x2="1041" y2="380" stroke="rgba(135,220,255,0.28)" stroke-width="4" stroke-linecap="round"/><line x1="560" y1="557" x2="774" y2="557" stroke="rgba(135,220,255,0.28)" stroke-width="4" stroke-linecap="round"/><line x1="196" y1="601" x2="355" y2="601" stroke="rgba(135,220,255,0.28)" stroke-width="3" stroke-linecap="round"/><line x1="842" y1="586" x2="1010" y2="586" stroke="rgba(135,220,255,0.28)" stroke-width="6" stroke-linecap="round"/><line x1="286" y1="445" x2="403" y2="445" stroke="rgba(135,220,255,0.28)" stroke-width="5" stroke-linecap="round"/><line x1="502" y1="190" x2="502" y2="338" stroke="rgba(135,220,255,0.28)" stroke-width="3" stroke-linecap="round"/><line x1="434" y1="508" x2="434" y2="640" stroke="rgba(135,220,255,0.28)" stroke-width="3" stroke-linecap="round"/><line x1="802" y1="265" x2="802" y2="381" stroke="rgba(135,220,255,0.28)" stroke-width="6" stroke-linecap="round"/><line x1="533" y1="380" x2="748" y2="380" stroke="rgba(135,220,255,0.28)" stroke-width="2" stroke-linecap="round"/><line x1="692" y1="550" x2="774" y2="550" stroke="rgba(135,220,255,0.28)" stroke-width="2" stroke-linecap="round"/><line x1="759" y1="233" x2="959" y2="233" stroke="rgba(135,220,255,0.28)" stroke-width="4" stroke-linecap="round"/><line x1="752" y1="232" x2="752" y2="384" stroke="rgba(135,220,255,0.28)" stroke-width="4" stroke-linecap="round"/><line x1="684" y1="583" x2="782" y2="583" stroke="rgba(135,220,255,0.28)" stroke-width="6" stroke-linecap="round"/><line x1="110" y1="463" x2="110" y2="640" stroke="rgba(135,220,255,0.28)" stroke-width="4" stroke-linecap="round"/><line x1="519" y1="156" x2="519" y2="245" stroke="rgba(135,220,255,0.28)" stroke-width="3" stroke-linecap="round"/><line x1="399" y1="116" x2="514" y2="116" stroke="rgba(135,220,255,0.28)" stroke-width="4" stroke-linecap="round"/><line x1="581" y1="254" x2="581" y2="369" stroke="rgba(135,220,255,0.28)" stroke-width="6" stroke-linecap="round"/><line x1="385" y1="415" x2="534" y2="415" stroke="rgba(135,220,255,0.28)" stroke-width="4" stroke-linecap="round"/><line x1="834" y1="409" x2="997" y2="409" stroke="rgba(135,220,255,0.28)" stroke-width="3" stroke-linecap="round"/><rect x="886" y="441" width="149" height="99" rx="12" fill="rgba(12,28,60,0.48)" stroke="hsl(183, 90%, 70%)" opacity="0.78"/><rect x="501" y="432" width="127" height="118" rx="12" fill="rgba(12,28,60,0.48)" stroke="hsl(194, 90%, 70%)" opacity="0.78"/><rect x="770" y="84" width="192" height="55" rx="12" fill="rgba(12,28,60,0.48)" stroke="hsl(205, 90%, 70%)" opacity="0.78"/><rect x="828" y="406" width="173" height="96" rx="12" fill="rgba(12,28,60,0.48)" stroke="hsl(216, 90%, 70%)" opacity="0.78"/></g>
  <g id="scene-sparkles"><circle cx="880" cy="170" r="2.51" fill="rgba(180,240,255,0.36)"/><circle cx="994" cy="47" r="2.76" fill="rgba(180,240,255,0.25)"/><circle cx="447" cy="92" r="1.32" fill="rgba(180,240,255,0.30)"/><circle cx="845" cy="37" r="2.43" fill="rgba(180,240,255,0.17)"/><circle cx="220" cy="37" r="2.93" fill="rgba(180,240,255,0.26)"/><circle cx="696" cy="267" r="2.60" fill="rgba(180,240,255,0.33)"/><circle cx="898" cy="312" r="2.59" fill="rgba(180,240,255,0.25)"/><circle cx="210" cy="105" r="3.19" fill="rgba(180,240,255,0.32)"/><circle cx="1063" cy="458" r="1.78" fill="rgba(180,240,255,0.34)"/><circle cx="807" cy="365" r="2.05" fill="rgba(180,240,255,0.33)"/><circle cx="280" cy="206" r="2.18" fill="rgba(180,240,255,0.17)"/><circle cx="123" cy="335" r="2.57" fill="rgba(180,240,255,0.41)"/><circle cx="340" cy="140" r="1.64" fill="rgba(180,240,255,0.45)"/><circle cx="1006" cy="341" r="2.31" fill="rgba(180,240,255,0.21)"/><circle cx="1091" cy="424" r="1.44" fill="rgba(180,240,255,0.34)"/><circle cx="111" cy="67" r="3.38" fill="rgba(180,240,255,0.44)"/></g>
  <rect x="20" y="20" width="1160" height="635" rx="32" fill="none" stroke="rgba(155,220,255,0.24)"/>
</svg>