<?xml version="1.0" encoding="UTF-8"?>
<svg xmlns="http://www.w3.org/2000/svg" width="1200" height="675" viewBox="0 0 1200 675" role="img" aria-label="AIGC fallback cover 95" data-scene="scene-5">
  <defs>
    <linearGradient id="bg-95" x1="0" y1="0" x2="1" y2="1">
      <stop offset="0%" stop-color="hsl(314, 82%, 16%)"/>
      <stop offset="52%" stop-color="hsl(34, 84%, 23%)"/>
      <stop offset="100%" stop-color="hsl(74, 78%, 12%)"/>
    </linearGradient>
    <filter id="blur-95" x="-25%" y="-25%" width="150%" height="150%">
      <feGaussianBlur stdDeviation="26"/>
    </filter>
    <filter id="soft-95" x="-25%" y="-25%" width="150%" height="150%">
      <feGaussianBlur stdDeviation="10"/>
    </filter>
    <filter id="grain-95" x="0%" y="0%" width="100%" height="100%">
      <feTurbulence type="fractalNoise" baseFrequency="0.9" numOctaves="2" seed="1235" stitchTiles="stitch"/>
      <feColorMatrix type="saturate" values="0"/>
      <feComponentTransfer>
        <feFuncA type="table" tableValues="0 0.05"/>
      </feComponentTransfer>
    </filter>
    <radialGradient id="vignette-95" cx="50%" cy="45%" r="70%">
      <stop offset="60%" stop-color="rgba(0,0,0,0)"/>
      <stop offset="100%" stop-color="rgba(0,0,0,0.45)"/>
    </radialGradient>
  </defs>

  <rect width="1200" height="675" fill="url(#bg-95)"/>
  <circle cx="603" cy="76" r="126" fill="hsl(314, 92%, 62%)" opacity="0.13" filter="url(#blur-95)"/><circle cx="167" cy="467" r="133" fill="hsl(340, 92%, 62%)" opacity="0.18" filter="url(#blur-95)"/><circle cx="679" cy="159" r="134" fill="hsl(366, 92%, 62%)" opacity="0.16" filter="url(#blur-95)"/>
  <circle cx="324" cy="429" r="25" fill="rgba(210,240,255,0.09)" filter="url(#soft-95)"/><circle cx="167" cy="132" r="65" fill="rgba(210,240,255,0.09)" filter="url(#soft-95)"/><circle cx="489" cy="346" r="51" fill="rgba(210,240,255,0.13)" filter="url(#soft-95)"/><circle cx="131" cy="226" r="58" fill="rgba(210,240,255,0.07)" filter="url(#soft-95)"/><circle cx="748" cy="362" r="35" fill="rgba(210,240,255,0.13)" filter="url(#soft-95)"/><circle cx="1003" cy="405" r="63" fill="rgba(210,240,255,0.10)" filter="url(#soft-95)"/><circle cx="826" cy="346" r="60" fill="rgba(210,240,255,0.11)" filter="url(#soft-95)"/>
  <polygon points="0,675 1200,675 1414,443 -214,443" fill="rgba(8,16,28,0.35)"/>
  <g id="scene-wave"><path d="M 0 326 C 98 290, 294 362, 392 326 S 686 290, 784 326" transform="translate(167,0) scale(1.9872856956906615,1)" fill="none" stroke="rgba(132,236,255,0.31)" stroke-width="5"/><path d="M 0 205 C 77.75 185, 233.25 225, 311 205 S 544.25 185, 622 205" transform="translate(40,0) scale(1.6806336609879509,1)" fill="none" stroke="rgba(132,236,255,0.38)" stroke-width="7"/><path d="M 0 173 C 51.25 125, 153.75 221, 205 173 S 358.75 125, 410 173" transform="translate(73,0) scale(1.2749668024480343,1)" fill="none" stroke="rgba(132,236,255,0.24)" stroke-width="5"/><path d="M 0 152 C 57.25 95, 171.75 209, 229 152 S 400.75 95, 458 152" transform="translate(120,0) scale(2.3804515555268155,1)" fill="none" stroke="rgba(132,236,255,0.28)" stroke-width="5"/></g>
  <g id="scene-sparkles"><circle cx="244" cy="528" r="1.34" fill="rgba(180,240,255,0.27)"/><circle cx="732" cy="476" r="1.27" fill="rgba(180,240,255,0.42)"/><circle cx="740" cy="519" r="1.72" fill="rgba(180,240,255,0.39)"/><circle cx="212" cy="252" r="3.24" fill="rgba(180,240,255,0.35)"/><circle cx="794" cy="157" r="2.70" fill="rgba(180,240,255,0.22)"/><circle cx="288" cy="196" r="1.44" fill="rgba(180,240,255,0.25)"/><circle cx="462" cy="239" r="1.55" fill="rgba(180,240,255,0.34)"/><circle cx="931" cy="82" r="3.21" fill="rgba(180,240,255,0.43)"/><circle cx="1005" cy="356" r="2.05" fill="rgba(180,240,255,0.44)"/><circle cx="608" cy="402" r="1.96" fill="rgba(180,240,255,0.30)"/><circle cx="23" cy="609" r="1.41" fill="rgba(180,240,255,0.36)"/><circle cx="1039" cy="431" r="1.49" fill="rgba(180,240,255,0.37)"/><circle cx="1103" cy="525" r="2.71" fill="rgba(180,240,255,0.17)"/><circle cx="481" cy="249" r="1.30" fill="rgba(180,240,255,0.31)"/><circle cx="1001" cy="463" r="1.92" fill="rgba(180,240,255,0.43)"/><circle cx="812" cy="443" r="2.59" fill="rgba(180,240,255,0.19)"/><circle cx="1165" cy="607" r="1.80" fill="rgba(180,240,255,0.15)"/><circle cx="368" cy="507" r="2.44" fill="rgba(180,240,255,0.17)"/><circle cx="537" cy="343" r="2.43" fill="rgba(180,240,255,0.17)"/><circle cx="400" cy="594" r="1.86" fill="rgba(180,240,255,0.29)"/><circle cx="54" cy="136" r="1.47" fill="rgba(180,240,255,0.29)"/><circle cx="998" cy="583" r="2.38" fill="rgba(180,240,255,0.24)"/><circle cx="408" cy="221" r="2.49" fill="rgba(180,240,255,0.42)"/></g>
  <rect width="1200" height="675" fill="rgba(190,220,255,0.06)"/>
  <rect width="1200" height="675" filter="url(#grain-95)"/>
  <rect width="1200" height="675" fill="url(#vignette-95)"/>
  <rect x="20" y="20" width="1160" height="635" rx="32" fill="none" stroke="rgba(155,220,255,0.24)"/>
</svg>