<?xml version="1.0" encoding="UTF-8"?>
<svg xmlns="http://www.w3.org/2000/svg" width="1200" height="675" viewBox="0 0 1200 675" role="img" aria-label="AIGC fallback cover 11" data-scene="scene-1">
  <defs>
    <linearGradient id="bg-11" x1="0" y1="0" x2="1" y2="1">
      <stop offset="0%" stop-color="hsl(92, 82%, 16%)"/>
      <stop offset="52%" stop-color="hsl(149, 84%, 23%)"/>
      <stop offset="100%" stop-color="hsl(205, 78%, 12%)"/>
    </linearGradient>
    <filter id="blur-11" x="-25%" y="-25%" width="150%" height="150%">
      <feGaussianBlur stdDeviation="26"/>
    </filter>
    <filter id="soft-11" x="-25%" y="-25%" width="150%" height="150%">
      <feGaussianBlur stdDeviation="10"/>
    </filter>
    <filter id="grain-11" x="0%" y="0%" width="100%" height="100%">
      <feTurbulence type="fractalNoise" baseFrequency="0.9" numOctaves="2" seed="143" stitchTiles="stitch"/>
      <feColorMatrix type="saturate" values="0"/>
      <feComponentTransfer>
        <feFuncA type="table" tableValues="0 0.05"/>
      </feComponentTransfer>
    </filter>
    <radialGradient id="vignette-11" cx="50%" cy="45%" r="70%">
      <stop offset="60%" stop-color="rgba(0,0,0,0)"/>
      <stop offset="100%" stop-color="rgba(0,0,0,0.45)"/>
    </radialGradient>
  </defs>

  <rect width="1200" height="675" fill="url(#bg-11)"/>
  <circle cx="635" cy="179" r="108" fill="hsl(92, 92%, 62%)" opacity="0.17" filter="url(#blur-11)"/><circle cx="1014" cy="199" r="200" fill="hsl(118, 92%, 62%)" opacity="0.13" filter="url(#blur-11)"/><circle cx="449" cy="596" r="214" fill="hsl(144, 92%, 62%)" opacity="0.10" filter="url(#blur-11)"/>
  <circle cx="79" cy="167" r="42" fill="rgba(210,240,255,0.08)" filter="url(#soft-11)"/><circle cx="485" cy="376" r="49" fill="rgba(210,240,255,0.07)" filter="url(#soft-11)"/><circle cx="526" cy="105" r="30" fill="rgba(210,240,255,0.15)" filter="url(#soft-11)"/><circle cx="365" cy="122" r="20" fill="rgba(210,240,255,0.15)" filter="url(#soft-11)"/><circle cx="846" cy="276" r="27" fill="rgba(210,240,255,0.14)" filter="url(#soft-11)"/><circle cx="1021" cy="272" r="54" fill="rgba(210,240,255,0.06)" filter="url(#soft-11)"/><circle cx="598" cy="403" r="47" fill="rgba(210,240,255,0.07)" filter="url(#soft-11)"/><circle cx="195" cy="430" r="25" fill="rgba(210,240,255,0.10)" filter="url(#soft-11)"/>
  <polygon points="0,675 1200,675 1320,375 -120,375" fill="rgba(8,16,28,0.35)"/>
  <g id="scene-nodes"><line x1="1047" y1="205" x2="776" y2="163" stroke="rgba(145,245,255,0.64)" stroke-width="3"/><line x1="776" y1="163" x2="1002" y2="127" stroke="rgba(145,245,255,0.64)" stroke-width="4"/><line x1="1047" y1="205" x2="831" y2="239" stroke="rgba(145,245,255,0.64)" stroke-width="3"/><line x1="1047" y1="205" x2="876" y2="206" stroke="rgba(145,245,255,0.64)" stroke-width="4"/><line x1="776" y1="163" x2="742" y2="266" stroke="rgba(145,245,255,0.64)" stroke-width="4"/><circle cx="1047" cy="205" r="12" fill="hsl(92, 88%, 72%)" opacity="0.86"/><circle cx="776" cy="163" r="8" fill="hsl(101, 88%, 72%)" opacity="0.86"/><circle cx="1002" cy="127" r="16" fill="hsl(110, 88%, 72%)" opacity="0.86"/><circle cx="831" cy="239" r="17" fill="hsl(119, 88%, 72%)" opacity="0.86"/><circle cx="876" cy="206" r="16" fill="hsl(128, 88%, 72%)" opacity="0.86"/><circle cx="742" cy="266" r="17" fill="hsl(137, 88%, 72%)" opacity="0.86"/></g>
  <g id="scene-sparkles"><circle cx="972" cy="141" r="2.09" fill="rgba(180,240,255,0.22)"/><circle cx="1106" cy="586" r="3.24" fill="rgba(180,240,255,0.18)"/><circle cx="538" cy="522" r="1.62" fill="rgba(180,240,255,0.17)"/><circle cx="1065" cy="29" r="2.06" fill="rgba(180,240,255,0.27)"/><circle cx="679" cy="208" r="1.84" fill="rgba(180,240,255,0.42)"/><circle cx="982" cy="115" r="1.10" fill="rgba(180,240,255,0.36)"/><circle cx="754" cy="368" r="2.40" fill="rgba(180,240,255,0.23)"/><circle cx="324" cy="176" r="2.84" fill="rgba(180,240,255,0.29)"/><circle cx="50" cy="109" r="2.18" fill="rgba(180,240,255,0.45)"/><circle cx="865" cy="315" r="1.52" fill="rgba(180,240,255,0.16)"/><circle cx="547" cy="299" r="1.91" fill="rgba(180,240,255,0.22)"/><circle cx="320" cy="543" r="2.02" fill="rgba(180,240,255,0.23)"/><circle cx="164" cy="220" r="2.46" fill="rgba(180,240,255,0.35)"/><circle cx="427" cy="102" r="3.07" fill="rgba(180,240,255,0.39)"/><circle cx="375" cy="173" r="1.46" fill="rgba(180,240,255,0.22)"/><circle cx="425" cy="139" r="2.23" fill="rgba(180,240,255,0.23)"/><circle cx="444" cy="253" r="1.24" fill="rgba(180,240,255,0.19)"/><circle cx="630" cy="440" r="1.39" fill="rgba(180,240,255,0.18)"/><circle cx="853" cy="209" r="1.63" fill="rgba(180,240,255,0.35)"/><circle cx="620" cy="498" r="2.67" fill="rgba(180,240,255,0.28)"/><circle cx="695" cy="528" r="1.27" fill="rgba(180,240,255,0.20)"/></g>
  <rect width="1200" height="675" fill="rgba(190,220,255,0.06)"/>
  <rect width="1200" height="675" filter="url(#grain-11)"/>
  <rect width="1200" height="675" fill="url(#vignette-11)"/>
  <rect x="20" y="20" width="1160" height="635" rx="32" fill="none" stroke="rgba(155,220,255,0.24)"/>
</svg>