<?xml version="1.0" encoding="UTF-8"?>
<svg xmlns="http://www.w3.org/2000/svg" width="1200" height="675" viewBox="0 0 1200 675" role="img" aria-label="AIGC fallback cover 57" data-scene="scene-7">
  <defs>
    <linearGradient id="bg-57" x1="0" y1="0" x2="1" y2="1">
      <stop offset="0%" stop-color="hsl(191, 82%, 16%)"/>
      <stop offset="52%" stop-color="hsl(249, 84%, 23%)"/>
      <stop offset="100%" stop-color="hsl(315, 78%, 12%)"/>
    </linearGradient>
    <filter id="blur-57" x="-25%" y="-25%" width="150%" height="150%">
      <feGaussianBlur stdDeviation="26"/>
    </filter>
    <filter id="soft-57" x="-25%" y="-25%" width="150%" height="150%">
      <feGaussianBlur stdDeviation="10"/>
    </filter>
    <filter id="grain-57" x="0%" y="0%" width="100%" height="100%">
      <feTurbulence type="fractalNoise" baseFrequency="0.9" numOctaves="2" seed="741" stitchTiles="stitch"/>
      <feColorMatrix type="saturate" values="0"/>
      <feComponentTransfer>
        <feFuncA type="table" tableValues="0 0.05"/>
      </feComponentTransfer>
    </filter>
    <radialGradient id="vignette-57" cx="50%" cy="45%" r="70%">
      <stop offset="60%" stop-color="rgba(0,0,0,0)"/>
      <stop offset="100%" stop-color="rgba(0,0,0,0.45)"/>
    </radialGradient>
  </defs>

  <rect width="1200" height="675" fill="url(#bg-57)"/>
  <circle cx="511" cy="80" r="184" fill="hsl(191, 92%, 62%)" opacity="0.14" filter="url(#blur-57)"/><circle cx="723" cy="288" r="149" fill="hsl(217, 92%, 62%)" opacity="0.17" filter="url(#blur-57)"/><circle cx="440" cy="553" r="191" fill="hsl(243, 92%, 62%)" opacity="0.17" filter="url(#blur-57)"/>
  <circle cx="1110" cy="163" r="33" fill="rgba(210,240,255,0.10)" filter="url(#soft-57)"/><circle cx="794" cy="454" r="27" fill="rgba(210,240,255,0.13)" filter="url(#soft-57)"/><circle cx="1119" cy="389" r="22" fill="rgba(210,240,255,0.15)" filter="url(#soft-57)"/><circle cx="371" cy="67" r="58" fill="rgba(210,240,255,0.10)" filter="url(#soft-57)"/><circle cx="740" cy="274" r="28" fill="rgba(210,240,255,0.10)" filter="url(#soft-57)"/><circle cx="281" cy="364" r="59" fill="rgba(210,240,255,0.16)" filter="url(#soft-57)"/><circle cx="550" cy="70" r="22" fill="rgba(210,240,255,0.10)" filter="url(#soft-57)"/><circle cx="456" cy="167" r="58" fill="rgba(210,240,255,0.12)" filter="url(#soft-57)"/><circle cx="220" cy="411" r="24" fill="rgba(210,240,255,0.07)" filter="url(#soft-57)"/><circle cx="64" cy="294" r="44" fill="rgba(210,240,255,0.13)" filter="url(#soft-57)"/>
  <polygon points="0,675 1200,675 1012,437 188,437" fill="rgba(8,16,28,0.35)"/>
  <g id="scene-orbits"><ellipse cx="655" cy="348" rx="158" ry="76" fill="none" stroke="rgba(140,230,255,0.28)" stroke-width="2" transform="rotate(-12 655 348)"/><ellipse cx="655" cy="348" rx="193" ry="97" fill="none" stroke="rgba(140,230,255,0.28)" stroke-width="2" transform="rotate(3 655 348)"/><ellipse cx="655" cy="348" rx="229" ry="128" fill="none" stroke="rgba(140,230,255,0.28)" stroke-width="2" transform="rotate(17 655 348)"/><ellipse cx="655" cy="348" rx="290" ry="146" fill="none" stroke="rgba(140,230,255,0.28)" stroke-width="2" transform="rotate(-28 655 348)"/><circle cx="622" cy="474" r="11" fill="hsl(191, 88%, 72%)" opacity="0.85"/><circle cx="644" cy="221" r="11" fill="hsl(203, 88%, 72%)" opacity="0.85"/><circle cx="709" cy="198" r="11" fill="hsl(215, 88%, 72%)" opacity="0.85"/><circle cx="784" cy="302" r="11" fill="hsl(227, 88%, 72%)" opacity="0.85"/><circle cx="401" cy="354" r="8" fill="hsl(239, 88%, 72%)" opacity="0.85"/><circle cx="893" cy="293" r="9" fill="hsl(251, 88%, 72%)" opacity="0.85"/><circle cx="673" cy="245" r="12" fill="hsl(263, 88%, 72%)" opacity="0.85"/><circle cx="825" cy="345" r="10" fill="hsl(275, 88%, 72%)" opacity="0.85"/></g>
  <g id="scene-sparkles"><circle cx="123" cy="526" r="1.15" fill="rgba(180,240,255,0.32)"/><circle cx="867" cy="565" r="2.68" fill="rgba(180,240,255,0.20)"/><circle cx="126" cy="640" r="3.34" fill="rgba(180,240,255,0.23)"/><circle cx="944" cy="272" r="2.42" fill="rgba(180,240,255,0.37)"/><circle cx="876" cy="209" r="1.76" fill="rgba(180,240,255,0.44)"/><circle cx="828" cy="577" r="3.31" fill="rgba(180,240,255,0.24)"/><circle cx="558" cy="485" r="1.33" fill="rgba(180,240,255,0.18)"/><circle cx="462" cy="149" r="1.19" fill="rgba(180,240,255,0.21)"/><circle cx="914" cy="488" r="3.28" fill="rgba(180,240,255,0.16)"/><circle cx="165" cy="325" r="3.20" fill="rgba(180,240,255,0.24)"/><circle cx="769" cy="228" r="3.38" fill="rgba(180,240,255,0.32)"/><circle cx="889" cy="246" r="2.38" fill="rgba(180,240,255,0.34)"/><circle cx="780" cy="290" r="2.55" fill="rgba(180,240,255,0.41)"/><circle cx="797" cy="168" r="1.65" fill="rgba(180,240,255,0.22)"/><circle cx="262" cy="598" r="3.14" fill="rgba(180,240,255,0.40)"/><circle cx="567" cy="397" r="1.67" fill="rgba(180,240,255,0.38)"/></g>
  <rect width="1200" height="675" fill="rgba(190,220,255,0.06)"/>
  <rect width="1200" height="675" filter="url(#grain-57)"/>
  <rect width="1200" height="675" fill="url(#vignette-57)"/>
  <rect x="20" y="20" width="1160" height="635" rx="32" fill="none" stroke="rgba(155,220,255,0.24)"/>
</svg>