<?xml version="1.0" encoding="UTF-8"?>
<svg xmlns="http://www.w3.org/2000/svg" width="1200" height="675" viewBox="0 0 1200 675" role="img" aria-label="AIGC fallback cover 22" data-scene="scene-2">
  <defs>
    <linearGradient id="bg-22" x1="0" y1="0" x2="1" y2="1">
      <stop offset="0%" stop-color="hsl(196, 82%, 16%)"/>
      <stop offset="52%" stop-color="hsl(234, 84%, 23%)"/>
      <stop offset="100%" stop-color="hsl(318, 78%, 12%)"/>
    </linearGradient>
    <filter id="blur-22" x="-25%" y="-25%" width="150%" height="150%">
      <feGaussianBlur stdDeviation="26"/>
    </filter>
    <filter id="soft-22" x="-25%" y="-25%" width="150%" height="150%">
      <feGaussianBlur stdDeviation="10"/>
    </filter>
    <filter id="grain-22" x="0%" y="0%" width="100%" height="100%">
      <feTurbulence type="fractalNoise" baseFrequency="0.9" numOctaves="2" seed="286" stitchTiles="stitch"/>
      <feColorMatrix type="saturate" values="0"/>
      <feComponentTransfer>
        <feFuncA type="table" tableValues="0 0.05"/>
      </feComponentTransfer>
    </filter>
    <radialGradient id="vignette-22" cx="50%" cy="45%" r="70%">
      <stop offset="60%" stop-color="rgba(0,0,0,0)"/>
      <stop offset="100%" stop-color="rgba(0,0,0,0.45)"/>
    </radialGradient>
  </defs>

  <rect width="1200" height="675" fill="url(#bg-22)"/>
  <circle cx="630" cy="177" r="106" fill="hsl(196, 92%, 62%)" opacity="0.17" filter="url(#blur-22)"/><circle cx="412" cy="493" r="97" fill="hsl(222, 92%, 62%)" opacity="0.11" filter="url(#blur-22)"/><circle cx="1026" cy="207" r="205" fill="hsl(248, 92%, 62%)" opacity="0.10" filter="url(#blur-22)"/>
  <circle cx="1031" cy="229" r="55" fill="rgba(210,240,255,0.07)" filter="url(#soft-22)"/><circle cx="1134" cy="32" r="43" fill="rgba(210,240,255,0.08)" filter="url(#soft-22)"/><circle cx="288" cy="111" r="34" fill="rgba(210,240,255,0.06)" filter="url(#soft-22)"/><circle cx="470" cy="362" r="41" fill="rgba(210,240,255,0.07)" filter="url(#soft-22)"/><circle cx="445" cy="304" r="70" fill="rgba(210,240,255,0.06)" filter="url(#soft-22)"/><circle cx="100" cy="182" r="65" fill="rgba(210,240,255,0.15)" filter="url(#soft-22)"/>
  <polygon points="0,675 1200,675 1233,424 -33,424" fill="rgba(8,16,28,0.35)"/>
  <g id="scene-circuit"><line x1="830" y1="80" x2="1034" y2="80" stroke="rgba(135,220,255,0.28)" stroke-width="2" stroke-linecap="round"/><line x1="906" y1="400" x2="906" y2="481" stroke="rgba(135,220,255,0.28)" stroke-width="2" stroke-linecap="round"/><line x1="1062" y1="346" x2="1062" y2="453" stroke="rgba(135,220,255,0.28)" stroke-width="6" stroke-linecap="round"/><line x1="576" y1="313" x2="576" y2="528" stroke="rgba(135,220,255,0.28)" stroke-width="3" stroke-linecap="round"/><line x1="872" y1="599" x2="1053" y2="599" stroke="rgba(135,220,255,0.28)" stroke-width="2" stroke-linecap="round"/><line x1="439" y1="212" x2="652" y2="212" stroke="rgba(135,220,255,0.28)" stroke-width="2" stroke-linecap="round"/><line x1="1017" y1="410" x2="1140" y2="410" stroke="rgba(135,220,255,0.28)" stroke-width="5" stroke-linecap="round"/><line x1="427" y1="378" x2="427" y2="510" stroke="rgba(135,220,255,0.28)" stroke-width="6" stroke-linecap="round"/><line x1="972" y1="580" x2="1053" y2="580" stroke="rgba(135,220,255,0.28)" stroke-width="2" stroke-linecap="round"/><line x1="799" y1="262" x2="799" y2="479" stroke="rgba(135,220,255,0.28)" stroke-width="3" stroke-linecap="round"/><line x1="204" y1="472" x2="310" y2="472" stroke="rgba(135,220,255,0.28)" stroke-width="2" stroke-linecap="round"/><line x1="1040" y1="474" x2="1040" y2="640" stroke="rgba(135,220,255,0.28)" stroke-width="2" stroke-linecap="round"/><line x1="140" y1="168" x2="319" y2="168" stroke="rgba(135,220,255,0.28)" stroke-width="5" stroke-linecap="round"/><line x1="1017" y1="524" x2="1140" y2="524" stroke="rgba(135,220,255,0.28)" stroke-width="3" stroke-linecap="round"/><line x1="717" y1="303" x2="788" y2="303" stroke="rgba(135,220,255,0.28)" stroke-width="3" stroke-linecap="round"/><line x1="296" y1="244" x2="296" y2="375" stroke="rgba(135,220,255,0.28)" stroke-width="4" stroke-linecap="round"/><line x1="594" y1="316" x2="719" y2="316" stroke="rgba(135,220,255,0.28)" stroke-width="6" stroke-linecap="round"/><line x1="551" y1="369" x2="765" y2="369" stroke="rgba(135,220,255,0.28)" stroke-width="2" stroke-linecap="round"/><line x1="192" y1="429" x2="192" y2="626" stroke="rgba(135,220,255,0.28)" stroke-width="2" stroke-linecap="round"/><line x1="627" y1="146" x2="627" y2="281" stroke="rgba(135,220,255,0.28)" stroke-width="4" stroke-linecap="round"/><line x1="402" y1="311" x2="402" y2="382" stroke="rgba(135,220,255,0.28)" stroke-width="5" stroke-linecap="round"/><rect x="189" y="99" width="89" height="100" rx="12" fill="rgba(12,28,60,0.48)" stroke="hsl(196, 90%, 70%)" opacity="0.78"/><rect x="193" y="113" width="84" height="65" rx="12" fill="rgba(12,28,60,0.48)" stroke="hsl(207, 90%, 70%)" opacity="0.78"/><rect x="341" y="462" width="196" height="81" rx="12" fill="rgba(12,28,60,0.48)" stroke="hsl(218, 90%, 70%)" opacity="0.78"/><rect x="286" y="201" width="114" height="60" rx="12" fill="rgba(12,28,60,0.48)" stroke="hsl(229, 90%, 70%)" opacity="0.78"/><rect x="711" y="414" width="197" height="99" rx="12" fill="rgba(12,28,60,0.48)" stroke="hsl(240, 90%, 70%)" opacity="0.78"/><rect x="345" y="230" width="154" height="79" rx="12" fill="rgba(12,28,60,0.48)" stroke="hsl(251, 90%, 70%)" opacity="0.78"/></g>
  <g id="scene-sparkles"><circle cx="986" cy="604" r="3.37" fill="rgba(180,240,255,0.42)"/><circle cx="777" cy="647" r="3.12" fill="rgba(180,240,255,0.37)"/><circle cx="966" cy="79" r="1.36" fill="rgba(180,240,255,0.30)"/><circle cx="304" cy="586" r="3.36" fill="rgba(180,240,255,0.33)"/><circle cx="416" cy="122" r="1.86" fill="rgba(180,240,255,0.37)"/><circle cx="166" cy="429" r="2.99" fill="rgba(180,240,255,0.38)"/><circle cx="387" cy="443" r="2.51" fill="rgba(180,240,255,0.17)"/><circle cx="1021" cy="238" r="2.59" fill="rgba(180,240,255,0.22)"/><circle cx="805" cy="26" r="1.42" fill="rgba(180,240,255,0.42)"/><circle cx="923" cy="438" r="2.43" fill="rgba(180,240,255,0.35)"/><circle cx="1153" cy="474" r="1.59" fill="rgba(180,240,255,0.28)"/><circle cx="510" cy="609" r="2.18" fill="rgba(180,240,255,0.28)"/><circle cx="665" cy="454" r="1.42" fill="rgba(180,240,255,0.36)"/><circle cx="958" cy="161" r="1.14" fill="rgba(180,240,255,0.37)"/><circle cx="291" cy="316" r="2.74" fill="rgba(180,240,255,0.34)"/><circle cx="1161" cy="183" r="1.82" fill="rgba(180,240,255,0.15)"/><circle cx="629" cy="219" r="2.20" fill="rgba(180,240,255,0.35)"/><circle cx="52" cy="624" r="2.70" fill="rgba(180,240,255,0.40)"/><circle cx="130" cy="552" r="2.56" fill="rgba(180,240,255,0.38)"/><circle cx="987" cy="216" r="1.22" fill="rgba(180,240,255,0.28)"/><circle cx="1087" cy="155" r="2.79" fill="rgba(180,240,255,0.17)"/><circle cx="815" cy="190" r="1.35" fill="rgba(180,240,255,0.18)"/><circle cx="1178" cy="448" r="2.50" fill="rgba(180,240,255,0.19)"/><circle cx="410" cy="404" r="1.62" fill="rgba(180,240,255,0.44)"/><circle cx="41" cy="240" r="2.77" fill="rgba(180,240,255,0.30)"/><circle cx="160" cy="133" r="1.70" fill="rgba(180,240,255,0.29)"/></g>
  <rect width="1200" height="675" fill="rgba(190,220,255,0.06)"/>
  <rect width="1200" height="675" filter="url(#grain-22)"/>
  <rect width="1200" height="675" fill="url(#vignette-22)"/>
  <rect x="20" y="20" width="1160" height="635" rx="32" fill="none" stroke="rgba(155,220,255,0.24)"/>
</svg>