<?xml version="1.0" encoding="UTF-8"?>
<svg xmlns="http://www.w3.org/2000/svg" width="1200" height="675" viewBox="0 0 1200 675" role="img" aria-label="AIGC fallback cover 31" data-scene="scene-1">
  <defs>
    <linearGradient id="bg-31" x1="0" y1="0" x2="1" y2="1">
      <stop offset="0%" stop-color="hsl(191, 82%, 16%)"/>
      <stop offset="52%" stop-color="hsl(234, 84%, 23%)"/>
      <stop offset="100%" stop-color="hsl(341, 78%, 12%)"/>
    </linearGradient>
    <filter id="blur-31" x="-25%" y="-25%" width="150%" height="150%">
      <feGaussianBlur stdDeviation="26"/>
    </filter>
    <filter id="soft-31" x="-25%" y="-25%" width="150%" height="150%">
      <feGaussianBlur stdDeviation="10"/>
    </filter>
    <filter id="grain-31" x="0%" y="0%" width="100%" height="100%">
      <feTurbulence type="fractalNoise" baseFrequency="0.9" numOctaves="2" seed="403" stitchTiles="stitch"/>
      <feColorMatrix type="saturate" values="0"/>
      <feComponentTransfer>
        <feFuncA type="table" tableValues="0 0.05"/>
      </feComponentTransfer>
    </filter>
    <radialGradient id="vignette-31" cx="50%" cy="45%" r="70%">
      <stop offset="60%" stop-color="rgba(0,0,0,0)"/>
      <stop offset="100%" stop-color="rgba(0,0,0,0.45)"/>
    </radialGradient>
  </defs>

  <rect width="1200" height="675" fill="url(#bg-31)"/>
  <circle cx="871" cy="203" r="91" fill="hsl(191, 92%, 62%)" opacity="0.18" filter="url(#blur-31)"/><circle cx="203" cy="599" r="91" fill="hsl(217, 92%, 62%)" opacity="0.16" filter="url(#blur-31)"/><circle cx="1069" cy="307" r="114" fill="hsl(243, 92%, 62%)" opacity="0.11" filter="url(#blur-31)"/>
  <circle cx="897" cy="441" r="50" fill="rgba(210,240,255,0.15)" filter="url(#soft-31)"/><circle cx="325" cy="330" r="24" fill="rgba(210,240,255,0.14)" filter="url(#soft-31)"/><circle cx="911" cy="148" r="53" fill="rgba(210,240,255,0.11)" filter="url(#soft-31)"/><circle cx="753" cy="284" r="64" fill="rgba(210,240,255,0.14)" filter="url(#soft-31)"/><circle cx="477" cy="444" r="32" fill="rgba(210,240,255,0.10)" filter="url(#soft-31)"/><circle cx="926" cy="70" r="29" fill="rgba(210,240,255,0.15)" filter="url(#soft-31)"/><circle cx="327" cy="281" r="51" fill="rgba(210,240,255,0.13)" filter="url(#soft-31)"/><circle cx="256" cy="226" r="64" fill="rgba(210,240,255,0.15)" filter="url(#soft-31)"/>
  <polygon points="0,675 1200,675 1045,449 155,449" fill="rgba(8,16,28,0.35)"/>
  <g id="scene-nodes"><line x1="750" y1="134" x2="1040" y2="123" stroke="rgba(145,245,255,0.64)" stroke-width="3"/><line x1="750" y1="134" x2="758" y2="212" stroke="rgba(145,245,255,0.64)" stroke-width="2"/><line x1="758" y1="212" x2="702" y2="173" stroke="rgba(145,245,255,0.64)" stroke-width="3"/><line x1="1040" y1="123" x2="717" y2="187" stroke="rgba(145,245,255,0.64)" stroke-width="2"/><line x1="1040" y1="123" x2="931" y2="85" stroke="rgba(145,245,255,0.64)" stroke-width="3"/><line x1="1040" y1="123" x2="1007" y2="89" stroke="rgba(145,245,255,0.64)" stroke-width="4"/><circle cx="750" cy="134" r="9" fill="hsl(191, 88%, 72%)" opacity="0.86"/><circle cx="1040" cy="123" r="18" fill="hsl(200, 88%, 72%)" opacity="0.86"/><circle cx="758" cy="212" r="15" fill="hsl(209, 88%, 72%)" opacity="0.86"/><circle cx="702" cy="173" r="13" fill="hsl(218, 88%, 72%)" opacity="0.86"/><circle cx="717" cy="187" r="10" fill="hsl(227, 88%, 72%)" opacity="0.86"/><circle cx="931" cy="85" r="17" fill="hsl(236, 88%, 72%)" opacity="0.86"/><circle cx="1007" cy="89" r="15" fill="hsl(245, 88%, 72%)" opacity="0.86"/></g>
  <g id="scene-sparkles"><circle cx="743" cy="478" r="2.89" fill="rgba(180,240,255,0.25)"/><circle cx="286" cy="407" r="3.26" fill="rgba(180,240,255,0.44)"/><circle cx="912" cy="311" r="3.11" fill="rgba(180,240,255,0.23)"/><circle cx="497" cy="610" r="2.95" fill="rgba(180,240,255,0.33)"/><circle cx="1057" cy="399" r="2.03" fill="rgba(180,240,255,0.37)"/><circle cx="186" cy="457" r="2.69" fill="rgba(180,240,255,0.45)"/><circle cx="1156" cy="66" r="2.24" fill="rgba(180,240,255,0.16)"/><circle cx="502" cy="244" r="3.32" fill="rgba(180,240,255,0.39)"/><circle cx="866" cy="455" r="1.60" fill="rgba(180,240,255,0.18)"/><circle cx="979" cy="339" r="1.68" fill="rgba(180,240,255,0.34)"/><circle cx="538" cy="66" r="2.42" fill="rgba(180,240,255,0.34)"/><circle cx="770" cy="570" r="1.56" fill="rgba(180,240,255,0.39)"/><circle cx="154" cy="139" r="2.30" fill="rgba(180,240,255,0.40)"/><circle cx="746" cy="178" r="2.12" fill="rgba(180,240,255,0.24)"/><circle cx="148" cy="244" r="1.92" fill="rgba(180,240,255,0.22)"/><circle cx="1078" cy="528" r="1.44" fill="rgba(180,240,255,0.24)"/><circle cx="738" cy="37" r="2.02" fill="rgba(180,240,255,0.23)"/><circle cx="411" cy="447" r="2.15" fill="rgba(180,240,255,0.39)"/><circle cx="875" cy="462" r="1.27" fill="rgba(180,240,255,0.44)"/><circle cx="141" cy="73" r="2.74" fill="rgba(180,240,255,0.36)"/><circle cx="990" cy="174" r="2.03" fill="rgba(180,240,255,0.40)"/><circle cx="782" cy="389" r="1.56" fill="rgba(180,240,255,0.21)"/><circle cx="311" cy="618" r="2.21" fill="rgba(180,240,255,0.32)"/><circle cx="670" cy="454" r="1.97" fill="rgba(180,240,255,0.17)"/><circle cx="214" cy="446" r="3.21" fill="rgba(180,240,255,0.32)"/></g>
  <rect width="1200" height="675" fill="rgba(190,220,255,0.06)"/>
  <rect width="1200" height="675" filter="url(#grain-31)"/>
  <rect width="1200" height="675" fill="url(#vignette-31)"/>
  <rect x="20" y="20" width="1160" height="635" rx="32" fill="none" stroke="rgba(155,220,255,0.24)"/>
</svg>