<?xml version="1.0" encoding="UTF-8"?>
<svg xmlns="http://www.w3.org/2000/svg" width="1200" height="675" viewBox="0 0 1200 675" role="img" aria-label="AIGC fallback cover 82" data-scene="scene-2">
  <defs>
    <linearGradient id="bg-82" x1="0" y1="0" x2="1" y2="1">
      <stop offset="0%" stop-color="hsl(160, 82%, 16%)"/>
      <stop offset="52%" stop-color="hsl(236, 84%, 23%)"/>
      <stop offset="100%" stop-color="hsl(330, 78%, 12%)"/>
    </linearGradient>
    <filter id="blur-82" x="-25%" y="-25%" width="150%" height="150%">
      <feGaussianBlur stdDeviation="26"/>
    </filter>
    <filter id="soft-82" x="-25%" y="-25%" width="150%" height="150%">
      <feGaussianBlur stdDeviation="10"/>
    </filter>
    <filter id="grain-82" x="0%" y="0%" width="100%" height="100%">
      <feTurbulence type="fractalNoise" baseFrequency="0.9" numOctaves="2" seed="1066" stitchTiles="stitch"/>
      <feColorMatrix type="saturate" values="0"/>
      <feComponentTransfer>
        <feFuncA type="table" tableValues="0 0.05"/>
      </feComponentTransfer>
    </filter>
    <radialGradient id="vignette-82" cx="50%" cy="45%" r="70%">
      <stop offset="60%" stop-color="rgba(0,0,0,0)"/>
      <stop offset="100%" stop-color="rgba(0,0,0,0.45)"/>
    </radialGradient>
  </defs>

  <rect width="1200" height="675" fill="url(#bg-82)"/>
  <circle cx="568" cy="255" r="169" fill="hsl(160, 92%, 62%)" opacity="0.15" filter="url(#blur-82)"/><circle cx="927" cy="368" r="153" fill="hsl(186, 92%, 62%)" opacity="0.13" filter="url(#blur-82)"/><circle cx="446" cy="591" r="108" fill="hsl(212, 92%, 62%)" opacity="0.11" filter="url(#blur-82)"/>
  <circle cx="587" cy="242" r="44" fill="rgba(210,240,255,0.10)" filter="url(#soft-82)"/><circle cx="884" cy="141" r="63" fill="rgba(210,240,255,0.12)" filter="url(#soft-82)"/><circle cx="1082" cy="55" r="59" fill="rgba(210,240,255,0.07)" filter="url(#soft-82)"/><circle cx="236" cy="406" r="68" fill="rgba(210,240,255,0.10)" filter="url(#soft-82)"/><circle cx="433" cy="186" r="24" fill="rgba(210,240,255,0.08)" filter="url(#soft-82)"/><circle cx="838" cy="171" r="68" fill="rgba(210,240,255,0.11)" filter="url(#soft-82)"/>
  <polygon points="0,675 1200,675 1080,425 120,425" fill="rgba(8,16,28,0.35)"/>
  <g id="scene-circuit"><line x1="1008" y1="515" x2="1008" y2="640" stroke="rgba(135,220,255,0.28)" stroke-width="4" stroke-linecap="round"/><line x1="594" y1="321" x2="800" y2="321" stroke="rgba(135,220,255,0.28)" stroke-width="2" stroke-linecap="round"/><line x1="266" y1="275" x2="266" y2="480" stroke="rgba(135,220,255,0.28)" stroke-width="2" stroke-linecap="round"/><line x1="90" y1="424" x2="287" y2="424" stroke="rgba(135,220,255,0.28)" stroke-width="6" stroke-linecap="round"/><line x1="344" y1="550" x2="344" y2="640" stroke="rgba(135,220,255,0.28)" stroke-width="3" stroke-linecap="round"/><line x1="664" y1="105" x2="664" y2="224" stroke="rgba(135,220,255,0.28)" stroke-width="3" stroke-linecap="round"/><line x1="698" y1="601" x2="829" y2="601" stroke="rgba(135,220,255,0.28)" stroke-width="5" stroke-linecap="round"/><line x1="1045" y1="280" x2="1140" y2="280" stroke="rgba(135,220,255,0.28)" stroke-width="2" stroke-linecap="round"/><line x1="1092" y1="551" x2="1140" y2="551" stroke="rgba(135,220,255,0.28)" stroke-width="4" stroke-linecap="round"/><line x1="1120" y1="401" x2="1140" y2="401" stroke="rgba(135,220,255,0.28)" stroke-width="4" stroke-linecap="round"/><line x1="545" y1="568" x2="747" y2="568" stroke="rgba(135,220,255,0.28)" stroke-width="4" stroke-linecap="round"/><line x1="829" y1="531" x2="922" y2="531" stroke="rgba(135,220,255,0.28)" stroke-width="5" stroke-linecap="round"/><line x1="842" y1="355" x2="842" y2="574" stroke="rgba(135,220,255,0.28)" stroke-width="6" stroke-linecap="round"/><line x1="647" y1="469" x2="825" y2="469" stroke="rgba(135,220,255,0.28)" stroke-width="2" stroke-linecap="round"/><line x1="785" y1="294" x2="885" y2="294" stroke="rgba(135,220,255,0.28)" stroke-width="5" stroke-linecap="round"/><line x1="652" y1="394" x2="857" y2="394" stroke="rgba(135,220,255,0.28)" stroke-width="4" stroke-linecap="round"/><line x1="283" y1="611" x2="473" y2="611" stroke="rgba(135,220,255,0.28)" stroke-width="4" stroke-linecap="round"/><line x1="219" y1="549" x2="219" y2="620" stroke="rgba(135,220,255,0.28)" stroke-width="2" stroke-linecap="round"/><line x1="409" y1="256" x2="506" y2="256" stroke="rgba(135,220,255,0.28)" stroke-width="6" stroke-linecap="round"/><line x1="184" y1="134" x2="331" y2="134" stroke="rgba(135,220,255,0.28)" stroke-width="4" stroke-linecap="round"/><line x1="492" y1="492" x2="590" y2="492" stroke="rgba(135,220,255,0.28)" stroke-width="3" stroke-linecap="round"/><line x1="161" y1="447" x2="294" y2="447" stroke="rgba(135,220,255,0.28)" stroke-width="6" stroke-linecap="round"/><rect x="159" y="186" width="122" height="83" rx="12" fill="rgba(12,28,60,0.48)" stroke="hsl(160, 90%, 70%)" opacity="0.78"/><rect x="645" y="264" width="90" height="116" rx="12" fill="rgba(12,28,60,0.48)" stroke="hsl(171, 90%, 70%)" opacity="0.78"/><rect x="451" y="352" width="164" height="63" rx="12" fill="rgba(12,28,60,0.48)" stroke="hsl(182, 90%, 70%)" opacity="0.78"/><rect x="751" y="147" width="172" height="81" rx="12" fill="rgba(12,28,60,0.48)" stroke="hsl(193, 90%, 70%)" opacity="0.78"/><rect x="768" y="100" width="175" height="118" rx="12" fill="rgba(12,28,60,0.48)" stroke="hsl(204, 90%, 70%)" opacity="0.78"/><rect x="96" y="360" width="158" height="71" rx="12" fill="rgba(12,28,60,0.48)" stroke="hsl(215, 90%, 70%)" opacity="0.78"/><rect x="357" y="187" width="191" height="76" rx="12" fill="rgba(12,28,60,0.48)" stroke="hsl(226, 90%, 70%)" opacity="0.78"/></g>
  <g id="scene-sparkles"><circle cx="762" cy="288" r="3.28" fill="rgba(180,240,255,0.41)"/><circle cx="227" cy="22" r="2.51" fill="rgba(180,240,255,0.18)"/><circle cx="392" cy="471" r="3.27" fill="rgba(180,240,255,0.31)"/><circle cx="197" cy="326" r="1.66" fill="rgba(180,240,255,0.24)"/><circle cx="968" cy="170" r="3.28" fill="rgba(180,240,255,0.25)"/><circle cx="951" cy="615" r="3.35" fill="rgba(180,240,255,0.22)"/><circle cx="740" cy="311" r="2.76" fill="rgba(180,240,255,0.30)"/><circle cx="1041" cy="554" r="2.80" fill="rgba(180,240,255,0.26)"/><circle cx="644" cy="317" r="2.01" fill="rgba(180,240,255,0.20)"/><circle cx="918" cy="367" r="2.92" fill="rgba(180,240,255,0.38)"/><circle cx="913" cy="65" r="2.62" fill="rgba(180,240,255,0.16)"/><circle cx="430" cy="325" r="1.15" fill="rgba(180,240,255,0.35)"/><circle cx="561" cy="436" r="2.61" fill="rgba(180,240,255,0.20)"/><circle cx="696" cy="447" r="2.84" fill="rgba(180,240,255,0.18)"/><circle cx="117" cy="385" r="1.65" fill="rgba(180,240,255,0.44)"/><circle cx="738" cy="562" r="2.38" fill="rgba(180,240,255,0.20)"/><circle cx="1082" cy="229" r="1.21" fill="rgba(180,240,255,0.34)"/><circle cx="933" cy="112" r="2.98" fill="rgba(180,240,255,0.31)"/><circle cx="25" cy="96" r="1.92" fill="rgba(180,240,255,0.23)"/><circle cx="419" cy="239" r="3.13" fill="rgba(180,240,255,0.40)"/><circle cx="545" cy="129" r="2.47" fill="rgba(180,240,255,0.31)"/><circle cx="319" cy="201" r="2.64" fill="rgba(180,240,255,0.19)"/><circle cx="723" cy="115" r="2.82" fill="rgba(180,240,255,0.35)"/><circle cx="657" cy="629" r="3.33" fill="rgba(180,240,255,0.22)"/></g>
  <rect width="1200" height="675" fill="rgba(190,220,255,0.06)"/>
  <rect width="1200" height="675" filter="url(#grain-82)"/>
  <rect width="1200" height="675" fill="url(#vignette-82)"/>
  <rect x="20" y="20" width="1160" height="635" rx="32" fill="none" stroke="rgba(155,220,255,0.24)"/>
</svg>