<?xml version="1.0" encoding="UTF-8"?>
<svg xmlns="http://www.w3.org/2000/svg" width="1200" height="675" viewBox="0 0 1200 675" role="img" aria-label="AIGC fallback cover 84" data-scene="scene-4">
  <defs>
    <linearGradient id="bg-84" x1="0" y1="0" x2="1" y2="1">
      <stop offset="0%" stop-color="hsl(217, 82%, 16%)"/>
      <stop offset="52%" stop-color="hsl(267, 84%, 23%)"/>
      <stop offset="100%" stop-color="hsl(39, 78%, 12%)"/>
    </linearGradient>
    <filter id="blur-84" x="-25%" y="-25%" width="150%" height="150%">
      <feGaussianBlur stdDeviation="26"/>
    </filter>
    <filter id="soft-84" x="-25%" y="-25%" width="150%" height="150%">
      <feGaussianBlur stdDeviation="10"/>
    </filter>
    <filter id="grain-84" x="0%" y="0%" width="100%" height="100%">
      <feTurbulence type="fractalNoise" baseFrequency="0.9" numOctaves="2" seed="1092" stitchTiles="stitch"/>
      <feColorMatrix type="saturate" values="0"/>
      <feComponentTransfer>
        <feFuncA type="table" tableValues="0 0.05"/>
      </feComponentTransfer>
    </filter>
    <radialGradient id="vignette-84" cx="50%" cy="45%" r="70%">
      <stop offset="60%" stop-color="rgba(0,0,0,0)"/>
      <stop offset="100%" stop-color="rgba(0,0,0,0.45)"/>
    </radialGradient>
  </defs>

  <rect width="1200" height="675" fill="url(#bg-84)"/>
  <circle cx="143" cy="219" r="157" fill="hsl(217, 92%, 62%)" opacity="0.09" filter="url(#blur-84)"/><circle cx="843" cy="511" r="137" fill="hsl(243, 92%, 62%)" opacity="0.16" filter="url(#blur-84)"/><circle cx="903" cy="500" r="139" fill="hsl(269, 92%, 62%)" opacity="0.14" filter="url(#blur-84)"/>
  <circle cx="801" cy="178" r="57" fill="rgba(210,240,255,0.13)" filter="url(#soft-84)"/><circle cx="169" cy="141" r="54" fill="rgba(210,240,255,0.14)" filter="url(#soft-84)"/><circle cx="171" cy="361" r="48" fill="rgba(210,240,255,0.09)" filter="url(#soft-84)"/><circle cx="333" cy="189" r="47" fill="rgba(210,240,255,0.15)" filter="url(#soft-84)"/><circle cx="1007" cy="349" r="30" fill="rgba(210,240,255,0.12)" filter="url(#soft-84)"/><circle cx="328" cy="120" r="41" fill="rgba(210,240,255,0.06)" filter="url(#soft-84)"/><circle cx="472" cy="60" r="57" fill="rgba(210,240,255,0.11)" filter="url(#soft-84)"/><circle cx="1127" cy="228" r="59" fill="rgba(210,240,255,0.07)" filter="url(#soft-84)"/>
  <polygon points="0,675 1200,675 1184,377 16,377" fill="rgba(8,16,28,0.35)"/>
  <g id="scene-city"><g><rect x="1080" y="412" width="56" height="263" rx="8" fill="rgba(8,18,38,0.58)" stroke="hsl(217, 70%, 52%)" opacity="0.72"/><rect x="1091" y="432" width="32" height="5" rx="2" fill="rgba(120,240,255,0.22)"/><rect x="1090" y="452" width="37" height="5" rx="2" fill="rgba(120,240,255,0.22)"/><rect x="1089" y="480" width="33" height="5" rx="2" fill="rgba(120,240,255,0.22)"/><rect x="1095" y="492" width="34" height="5" rx="2" fill="rgba(120,240,255,0.22)"/><rect x="1092" y="524" width="29" height="5" rx="2" fill="rgba(120,240,255,0.22)"/><rect x="1093" y="572" width="38" height="5" rx="2" fill="rgba(120,240,255,0.22)"/><rect x="1095" y="552" width="31" height="5" rx="2" fill="rgba(120,240,255,0.22)"/><rect x="1095" y="600" width="39" height="5" rx="2" fill="rgba(120,240,255,0.22)"/><rect x="1091" y="576" width="37" height="5" rx="2" fill="rgba(120,240,255,0.22)"/></g><g><rect x="836" y="315" width="41" height="360" rx="8" fill="rgba(8,18,38,0.58)" stroke="hsl(222, 70%, 52%)" opacity="0.72"/><rect x="845" y="335" width="25" height="5" rx="2" fill="rgba(120,240,255,0.22)"/><rect x="847" y="361" width="14" height="5" rx="2" fill="rgba(120,240,255,0.22)"/><rect x="848" y="373" width="23" height="5" rx="2" fill="rgba(120,240,255,0.22)"/><rect x="849" y="410" width="17" height="5" rx="2" fill="rgba(120,240,255,0.22)"/></g><g><rect x="577" y="509" width="61" height="166" rx="8" fill="rgba(8,18,38,0.58)" stroke="hsl(227, 70%, 52%)" opacity="0.72"/><rect x="585" y="529" width="35" height="5" rx="2" fill="rgba(120,240,255,0.22)"/><rect x="592" y="552" width="41" height="5" rx="2" fill="rgba(120,240,255,0.22)"/><rect x="592" y="573" width="35" height="5" rx="2" fill="rgba(120,240,255,0.22)"/><rect x="590" y="583" width="44" height="5" rx="2" fill="rgba(120,240,255,0.22)"/><rect x="585" y="621" width="33" height="5" rx="2" fill="rgba(120,240,255,0.22)"/><rect x="585" y="669" width="45" height="5" rx="2" fill="rgba(120,240,255,0.22)"/><rect x="593" y="661" width="36" height="5" rx="2" fill="rgba(120,240,255,0.22)"/><rect x="591" y="655" width="37" height="5" rx="2" fill="rgba(120,240,255,0.22)"/><rect x="587" y="673" width="37" height="5" rx="2" fill="rgba(120,240,255,0.22)"/></g><g><rect x="1070" y="503" width="41" height="172" rx="8" fill="rgba(8,18,38,0.58)" stroke="hsl(232, 70%, 52%)" opacity="0.72"/><rect x="1086" y="523" width="25" height="5" rx="2" fill="rgba(120,240,255,0.22)"/><rect x="1085" y="549" width="13" height="5" rx="2" fill="rgba(120,240,255,0.22)"/><rect x="1083" y="561" width="13" height="5" rx="2" fill="rgba(120,240,255,0.22)"/><rect x="1085" y="595" width="21" height="5" rx="2" fill="rgba(120,240,255,0.22)"/><rect x="1083" y="603" width="23" height="5" rx="2" fill="rgba(120,240,255,0.22)"/><rect x="1084" y="658" width="18" height="5" rx="2" fill="rgba(120,240,255,0.22)"/><rect x="1082" y="655" width="24" height="5" rx="2" fill="rgba(120,240,255,0.22)"/><rect x="1082" y="691" width="21" height="5" rx="2" fill="rgba(120,240,255,0.22)"/></g><g><rect x="859" y="510" width="109" height="165" rx="8" fill="rgba(8,18,38,0.58)" stroke="hsl(237, 70%, 52%)" opacity="0.72"/><rect x="875" y="530" width="83" height="5" rx="2" fill="rgba(120,240,255,0.22)"/><rect x="868" y="548" width="82" height="5" rx="2" fill="rgba(120,240,255,0.22)"/><rect x="870" y="580" width="88" height="5" rx="2" fill="rgba(120,240,255,0.22)"/><rect x="873" y="590" width="92" height="5" rx="2" fill="rgba(120,240,255,0.22)"/></g><g><rect x="758" y="473" width="102" height="202" rx="8" fill="rgba(8,18,38,0.58)" stroke="hsl(242, 70%, 52%)" opacity="0.72"/><rect x="769" y="493" width="77" height="5" rx="2" fill="rgba(120,240,255,0.22)"/><rect x="774" y="518" width="83" height="5" rx="2" fill="rgba(120,240,255,0.22)"/><rect x="770" y="535" width="80" height="5" rx="2" fill="rgba(120,240,255,0.22)"/><rect x="770" y="571" width="86" height="5" rx="2" fill="rgba(120,240,255,0.22)"/><rect x="773" y="565" width="86" height="5" rx="2" fill="rgba(120,240,255,0.22)"/></g><g><rect x="947" y="347" width="77" height="328" rx="8" fill="rgba(8,18,38,0.58)" stroke="hsl(247, 70%, 52%)" opacity="0.72"/><rect x="961" y="367" width="53" height="5" rx="2" fill="rgba(120,240,255,0.22)"/><rect x="955" y="394" width="53" height="5" rx="2" fill="rgba(120,240,255,0.22)"/><rect x="957" y="411" width="60" height="5" rx="2" fill="rgba(120,240,255,0.22)"/><rect x="959" y="439" width="50" height="5" rx="2" fill="rgba(120,240,255,0.22)"/><rect x="956" y="467" width="55" height="5" rx="2" fill="rgba(120,240,255,0.22)"/><rect x="960" y="462" width="49" height="5" rx="2" fill="rgba(120,240,255,0.22)"/><rect x="960" y="535" width="50" height="5" rx="2" fill="rgba(120,240,255,0.22)"/><rect x="961" y="514" width="60" height="5" rx="2" fill="rgba(120,240,255,0.22)"/></g><g><rect x="746" y="379" width="61" height="296" rx="8" fill="rgba(8,18,38,0.58)" stroke="hsl(252, 70%, 52%)" opacity="0.72"/><rect x="757" y="399" width="35" height="5" rx="2" fill="rgba(120,240,255,0.22)"/><rect x="757" y="423" width="38" height="5" rx="2" fill="rgba(120,240,255,0.22)"/><rect x="762" y="447" width="43" height="5" rx="2" fill="rgba(120,240,255,0.22)"/><rect x="757" y="483" width="34" height="5" rx="2" fill="rgba(120,240,255,0.22)"/><rect x="756" y="511" width="38" height="5" rx="2" fill="rgba(120,240,255,0.22)"/><rect x="761" y="539" width="41" height="5" rx="2" fill="rgba(120,240,255,0.22)"/><rect x="759" y="531" width="34" height="5" rx="2" fill="rgba(120,240,255,0.22)"/></g><g><rect x="1034" y="337" width="47" height="338" rx="8" fill="rgba(8,18,38,0.58)" stroke="hsl(257, 70%, 52%)" opacity="0.72"/><rect x="1050" y="357" width="27" height="5" rx="2" fill="rgba(120,240,255,0.22)"/><rect x="1042" y="384" width="23" height="5" rx="2" fill="rgba(120,240,255,0.22)"/><rect x="1049" y="405" width="26" height="5" rx="2" fill="rgba(120,240,255,0.22)"/><rect x="1043" y="423" width="30" height="5" rx="2" fill="rgba(120,240,255,0.22)"/></g><g><rect x="974" y="448" width="116" height="227" rx="8" fill="rgba(8,18,38,0.58)" stroke="hsl(262, 70%, 52%)" opacity="0.72"/><rect x="984" y="468" width="92" height="5" rx="2" fill="rgba(120,240,255,0.22)"/><rect x="987" y="490" width="93" height="5" rx="2" fill="rgba(120,240,255,0.22)"/><rect x="989" y="518" width="97" height="5" rx="2" fill="rgba(120,240,255,0.22)"/><rect x="984" y="534" width="92" height="5" rx="2" fill="rgba(120,240,255,0.22)"/><rect x="983" y="560" width="94" height="5" rx="2" fill="rgba(120,240,255,0.22)"/></g><g><rect x="1038" y="440" width="60" height="235" rx="8" fill="rgba(8,18,38,0.58)" stroke="hsl(267, 70%, 52%)" opacity="0.72"/><rect x="1054" y="460" width="39" height="5" rx="2" fill="rgba(120,240,255,0.22)"/><rect x="1049" y="484" width="44" height="5" rx="2" fill="rgba(120,240,255,0.22)"/><rect x="1049" y="514" width="33" height="5" rx="2" fill="rgba(120,240,255,0.22)"/><rect x="1048" y="517" width="43" height="5" rx="2" fill="rgba(120,240,255,0.22)"/><rect x="1048" y="560" width="40" height="5" rx="2" fill="rgba(120,240,255,0.22)"/><rect x="1046" y="550" width="42" height="5" rx="2" fill="rgba(120,240,255,0.22)"/><rect x="1052" y="586" width="44" height="5" rx="2" fill="rgba(120,240,255,0.22)"/></g><g><rect x="161" y="434" width="42" height="241" rx="8" fill="rgba(8,18,38,0.58)" stroke="hsl(272, 70%, 52%)" opacity="0.72"/><rect x="177" y="454" width="24" height="5" rx="2" fill="rgba(120,240,255,0.22)"/><rect x="176" y="478" width="14" height="5" rx="2" fill="rgba(120,240,255,0.22)"/><rect x="170" y="502" width="20" height="5" rx="2" fill="rgba(120,240,255,0.22)"/><rect x="169" y="514" width="14" height="5" rx="2" fill="rgba(120,240,255,0.22)"/><rect x="171" y="546" width="19" height="5" rx="2" fill="rgba(120,240,255,0.22)"/><rect x="175" y="574" width="14" height="5" rx="2" fill="rgba(120,240,255,0.22)"/><rect x="175" y="604" width="19" height="5" rx="2" fill="rgba(120,240,255,0.22)"/><rect x="173" y="594" width="14" height="5" rx="2" fill="rgba(120,240,255,0.22)"/><rect x="169" y="670" width="26" height="5" rx="2" fill="rgba(120,240,255,0.22)"/><rect x="169" y="679" width="26" height="5" rx="2" fill="rgba(120,240,255,0.22)"/></g></g>
  <g id="scene-sparkles"><circle cx="165" cy="214" r="3.32" fill="rgba(180,240,255,0.38)"/><circle cx="261" cy="417" r="2.74" fill="rgba(180,240,255,0.21)"/><circle cx="979" cy="398" r="2.28" fill="rgba(180,240,255,0.37)"/><circle cx="762" cy="605" r="2.26" fill="rgba(180,240,255,0.22)"/><circle cx="490" cy="575" r="1.97" fill="rgba(180,240,255,0.36)"/><circle cx="756" cy="119" r="2.72" fill="rgba(180,240,255,0.27)"/><circle cx="337" cy="55" r="2.80" fill="rgba(180,240,255,0.17)"/><circle cx="568" cy="296" r="2.82" fill="rgba(180,240,255,0.21)"/><circle cx="388" cy="366" r="1.45" fill="rgba(180,240,255,0.26)"/><circle cx="112" cy="456" r="2.47" fill="rgba(180,240,255,0.26)"/><circle cx="949" cy="489" r="3.20" fill="rgba(180,240,255,0.40)"/><circle cx="623" cy="460" r="2.37" fill="rgba(180,240,255,0.30)"/><circle cx="1053" cy="334" r="2.83" fill="rgba(180,240,255,0.30)"/><circle cx="574" cy="210" r="2.05" fill="rgba(180,240,255,0.27)"/><circle cx="950" cy="55" r="1.78" fill="rgba(180,240,255,0.34)"/><circle cx="31" cy="48" r="1.36" fill="rgba(180,240,255,0.43)"/><circle cx="731" cy="396" r="1.40" fill="rgba(180,240,255,0.16)"/><circle cx="903" cy="257" r="1.53" fill="rgba(180,240,255,0.34)"/><circle cx="1107" cy="136" r="2.17" fill="rgba(180,240,255,0.19)"/></g>
  <rect width="1200" height="675" fill="rgba(190,220,255,0.06)"/>
  <rect width="1200" height="675" filter="url(#grain-84)"/>
  <rect width="1200" height="675" fill="url(#vignette-84)"/>
  <rect x="20" y="20" width="1160" height="635" rx="32" fill="none" stroke="rgba(155,220,255,0.24)"/>
</svg>