<?xml version="1.0" encoding="UTF-8"?>
<svg xmlns="http://www.w3.org/2000/svg" width="1200" height="675" viewBox="0 0 1200 675" role="img" aria-label="AIGC fallback cover 80" data-scene="scene-10">
  <defs>
    <linearGradient id="bg-80" x1="0" y1="0" x2="1" y2="1">
      <stop offset="0%" stop-color="hsl(56, 82%, 16%)"/>
      <stop offset="52%" stop-color="hsl(122, 84%, 23%)"/>
      <stop offset="100%" stop-color="hsl(201, 78%, 12%)"/>
    </linearGradient>
    <filter id="blur-80" x="-25%" y="-25%" width="150%" height="150%">
      <feGaussianBlur stdDeviation="26"/>
    </filter>
    <filter id="soft-80" x="-25%" y="-25%" width="150%" height="150%">
      <feGaussianBlur stdDeviation="10"/>
    </filter>
    <filter id="grain-80" x="0%" y="0%" width="100%" height="100%">
      <feTurbulence type="fractalNoise" baseFrequency="0.9" numOctaves="2" seed="1040" stitchTiles="stitch"/>
      <feColorMatrix type="saturate" values="0"/>
      <feComponentTransfer>
        <feFuncA type="table" tableValues="0 0.05"/>
      </feComponentTransfer>
    </filter>
    <radialGradient id="vignette-80" cx="50%" cy="45%" r="70%">
      <stop offset="60%" stop-color="rgba(0,0,0,0)"/>
      <stop offset="100%" stop-color="rgba(0,0,0,0.45)"/>
    </radialGradient>
  </defs>

  <rect width="1200" height="675" fill="url(#bg-80)"/>
  <circle cx="553" cy="448" r="112" fill="hsl(56, 92%, 62%)" opacity="0.17" filter="url(#blur-80)"/><circle cx="798" cy="220" r="146" fill="hsl(82, 92%, 62%)" opacity="0.15" filter="url(#blur-80)"/><circle cx="561" cy="150" r="128" fill="hsl(108, 92%, 62%)" opacity="0.09" filter="url(#blur-80)"/>
  <circle cx="610" cy="102" r="51" fill="rgba(210,240,255,0.10)" filter="url(#soft-80)"/><circle cx="72" cy="144" r="69" fill="rgba(210,240,255,0.08)" filter="url(#soft-80)"/><circle cx="956" cy="202" r="37" fill="rgba(210,240,255,0.08)" filter="url(#soft-80)"/><circle cx="331" cy="300" r="27" fill="rgba(210,240,255,0.12)" filter="url(#soft-80)"/><circle cx="335" cy="36" r="53" fill="rgba(210,240,255,0.08)" filter="url(#soft-80)"/><circle cx="855" cy="202" r="70" fill="rgba(210,240,255,0.09)" filter="url(#soft-80)"/><circle cx="998" cy="101" r="62" fill="rgba(210,240,255,0.07)" filter="url(#soft-80)"/>
  <polygon points="0,675 1200,675 1024,370 176,370" fill="rgba(8,16,28,0.35)"/>
  <g id="scene-robot-arms"><g><circle cx="360" cy="525" r="16" fill="rgba(120,215,255,0.75)"/><line x1="360" y1="525" x2="540" y2="408" stroke="rgba(145,235,255,0.62)" stroke-width="10" stroke-linecap="round"/><line x1="540" y1="408" x2="538" y2="277" stroke="rgba(120,255,220,0.6)" stroke-width="9" stroke-linecap="round"/><circle cx="540" cy="408" r="10" fill="rgba(150,245,255,0.8)"/><circle cx="538" cy="277" r="8" fill="rgba(120,255,220,0.86)"/></g><g><circle cx="655" cy="540" r="16" fill="rgba(120,215,255,0.75)"/><line x1="655" y1="540" x2="653" y2="376" stroke="rgba(145,235,255,0.62)" stroke-width="8" stroke-linecap="round"/><line x1="653" y1="376" x2="658" y2="299" stroke="rgba(120,255,220,0.6)" stroke-width="8" stroke-linecap="round"/><circle cx="653" cy="376" r="10" fill="rgba(150,245,255,0.8)"/><circle cx="658" cy="299" r="8" fill="rgba(120,255,220,0.86)"/></g><g><circle cx="190" cy="590" r="16" fill="rgba(120,215,255,0.75)"/><line x1="190" y1="590" x2="103" y2="480" stroke="rgba(145,235,255,0.62)" stroke-width="9" stroke-linecap="round"/><line x1="103" y1="480" x2="58" y2="420" stroke="rgba(120,255,220,0.6)" stroke-width="10" stroke-linecap="round"/><circle cx="103" cy="480" r="10" fill="rgba(150,245,255,0.8)"/><circle cx="58" cy="420" r="8" fill="rgba(120,255,220,0.86)"/></g></g>
  <g id="scene-sparkles"><circle cx="425" cy="507" r="1.55" fill="rgba(180,240,255,0.18)"/><circle cx="472" cy="144" r="2.84" fill="rgba(180,240,255,0.30)"/><circle cx="714" cy="455" r="1.84" fill="rgba(180,240,255,0.28)"/><circle cx="392" cy="498" r="2.74" fill="rgba(180,240,255,0.17)"/><circle cx="269" cy="379" r="1.19" fill="rgba(180,240,255,0.33)"/><circle cx="393" cy="24" r="2.50" fill="rgba(180,240,255,0.34)"/><circle cx="225" cy="44" r="1.31" fill="rgba(180,240,255,0.40)"/><circle cx="635" cy="245" r="2.99" fill="rgba(180,240,255,0.24)"/><circle cx="1151" cy="639" r="2.33" fill="rgba(180,240,255,0.26)"/><circle cx="852" cy="102" r="1.92" fill="rgba(180,240,255,0.29)"/><circle cx="1044" cy="523" r="1.55" fill="rgba(180,240,255,0.39)"/><circle cx="486" cy="520" r="1.61" fill="rgba(180,240,255,0.41)"/><circle cx="392" cy="36" r="1.86" fill="rgba(180,240,255,0.26)"/><circle cx="976" cy="390" r="2.44" fill="rgba(180,240,255,0.33)"/><circle cx="761" cy="359" r="2.73" fill="rgba(180,240,255,0.27)"/><circle cx="731" cy="121" r="1.92" fill="rgba(180,240,255,0.36)"/><circle cx="1067" cy="575" r="3.30" fill="rgba(180,240,255,0.20)"/><circle cx="101" cy="135" r="1.14" fill="rgba(180,240,255,0.29)"/><circle cx="788" cy="536" r="1.88" fill="rgba(180,240,255,0.24)"/></g>
  <rect width="1200" height="675" fill="rgba(190,220,255,0.06)"/>
  <rect width="1200" height="675" filter="url(#grain-80)"/>
  <rect width="1200" height="675" fill="url(#vignette-80)"/>
  <rect x="20" y="20" width="1160" height="635" rx="32" fill="none" stroke="rgba(155,220,255,0.24)"/>
</svg>