<?xml version="1.0" encoding="UTF-8"?>
<svg xmlns="http://www.w3.org/2000/svg" width="1200" height="675" viewBox="0 0 1200 675" role="img" aria-label="AIGC fallback cover 93" data-scene="scene-3">
  <defs>
    <linearGradient id="bg-93" x1="0" y1="0" x2="1" y2="1">
      <stop offset="0%" stop-color="hsl(235, 82%, 16%)"/>
      <stop offset="52%" stop-color="hsl(272, 84%, 23%)"/>
      <stop offset="100%" stop-color="hsl(12, 78%, 12%)"/>
    </linearGradient>
    <filter id="blur-93" x="-25%" y="-25%" width="150%" height="150%">
      <feGaussianBlur stdDeviation="26"/>
    </filter>
    <filter id="soft-93" x="-25%" y="-25%" width="150%" height="150%">
      <feGaussianBlur stdDeviation="10"/>
    </filter>
    <filter id="grain-93" x="0%" y="0%" width="100%" height="100%">
      <feTurbulence type="fractalNoise" baseFrequency="0.9" numOctaves="2" seed="1209" stitchTiles="stitch"/>
      <feColorMatrix type="saturate" values="0"/>
      <feComponentTransfer>
        <feFuncA type="table" tableValues="0 0.05"/>
      </feComponentTransfer>
    </filter>
    <radialGradient id="vignette-93" cx="50%" cy="45%" r="70%">
      <stop offset="60%" stop-color="rgba(0,0,0,0)"/>
      <stop offset="100%" stop-color="rgba(0,0,0,0.45)"/>
    </radialGradient>
  </defs>

  <rect width="1200" height="675" fill="url(#bg-93)"/>
  <circle cx="865" cy="78" r="193" fill="hsl(235, 92%, 62%)" opacity="0.14" filter="url(#blur-93)"/><circle cx="962" cy="160" r="118" fill="hsl(261, 92%, 62%)" opacity="0.12" filter="url(#blur-93)"/><circle cx="1067" cy="598" r="112" fill="hsl(287, 92%, 62%)" opacity="0.12" filter="url(#blur-93)"/>
  <circle cx="876" cy="270" r="67" fill="rgba(210,240,255,0.12)" filter="url(#soft-93)"/><circle cx="476" cy="139" r="32" fill="rgba(210,240,255,0.07)" filter="url(#soft-93)"/><circle cx="195" cy="196" r="22" fill="rgba(210,240,255,0.09)" filter="url(#soft-93)"/><circle cx="676" cy="304" r="26" fill="rgba(210,240,255,0.15)" filter="url(#soft-93)"/><circle cx="671" cy="425" r="23" fill="rgba(210,240,255,0.07)" filter="url(#soft-93)"/><circle cx="1082" cy="289" r="49" fill="rgba(210,240,255,0.15)" filter="url(#soft-93)"/><circle cx="246" cy="391" r="31" fill="rgba(210,240,255,0.07)" filter="url(#soft-93)"/><circle cx="963" cy="100" r="69" fill="rgba(210,240,255,0.12)" filter="url(#soft-93)"/><circle cx="353" cy="390" r="21" fill="rgba(210,240,255,0.14)" filter="url(#soft-93)"/><circle cx="635" cy="365" r="53" fill="rgba(210,240,255,0.15)" filter="url(#soft-93)"/>
  <polygon points="0,675 1200,675 1355,410 -155,410" fill="rgba(8,16,28,0.35)"/>
  <g id="scene-datacenter"><g><rect x="70" y="219" width="107" height="415" rx="10" fill="rgba(10,20,42,0.58)" stroke="rgba(130,190,255,0.45)"/><rect x="102" y="447" width="25" height="6" rx="3" fill="rgba(102,245,220,0.8)"/><rect x="123" y="464" width="24" height="6" rx="3" fill="rgba(102,245,220,0.8)"/><rect x="94" y="333" width="26" height="6" rx="3" fill="rgba(102,245,220,0.8)"/><rect x="116" y="363" width="28" height="6" rx="3" fill="rgba(102,245,220,0.8)"/><rect x="149" y="377" width="18" height="6" rx="3" fill="rgba(102,245,220,0.8)"/><rect x="96" y="520" width="21" height="6" rx="3" fill="rgba(102,245,220,0.8)"/><rect x="122" y="485" width="25" height="6" rx="3" fill="rgba(102,245,220,0.8)"/><rect x="116" y="358" width="16" height="6" rx="3" fill="rgba(102,245,220,0.8)"/><rect x="145" y="480" width="21" height="6" rx="3" fill="rgba(102,245,220,0.8)"/><rect x="143" y="524" width="24" height="6" rx="3" fill="rgba(102,245,220,0.8)"/><rect x="154" y="552" width="23" height="6" rx="3" fill="rgba(102,245,220,0.8)"/></g><g><rect x="230" y="190" width="119" height="445" rx="10" fill="rgba(10,20,42,0.58)" stroke="rgba(130,190,255,0.45)"/><rect x="249" y="237" width="29" height="6" rx="3" fill="rgba(102,245,220,0.8)"/><rect x="298" y="221" width="19" height="6" rx="3" fill="rgba(102,245,220,0.8)"/><rect x="296" y="528" width="19" height="6" rx="3" fill="rgba(102,245,220,0.8)"/><rect x="273" y="455" width="21" height="6" rx="3" fill="rgba(102,245,220,0.8)"/><rect x="264" y="541" width="17" height="6" rx="3" fill="rgba(102,245,220,0.8)"/><rect x="290" y="223" width="30" height="6" rx="3" fill="rgba(102,245,220,0.8)"/></g><g><rect x="350" y="288" width="117" height="353" rx="10" fill="rgba(10,20,42,0.58)" stroke="rgba(130,190,255,0.45)"/><rect x="384" y="491" width="27" height="6" rx="3" fill="rgba(102,245,220,0.8)"/><rect x="419" y="556" width="16" height="6" rx="3" fill="rgba(102,245,220,0.8)"/><rect x="391" y="338" width="26" height="6" rx="3" fill="rgba(102,245,220,0.8)"/><rect x="379" y="342" width="29" height="6" rx="3" fill="rgba(102,245,220,0.8)"/><rect x="382" y="542" width="19" height="6" rx="3" fill="rgba(102,245,220,0.8)"/></g><g><rect x="541" y="179" width="125" height="450" rx="10" fill="rgba(10,20,42,0.58)" stroke="rgba(130,190,255,0.45)"/><rect x="566" y="353" width="28" height="6" rx="3" fill="rgba(102,245,220,0.8)"/><rect x="605" y="448" width="28" height="6" rx="3" fill="rgba(102,245,220,0.8)"/><rect x="570" y="553" width="25" height="6" rx="3" fill="rgba(102,245,220,0.8)"/><rect x="609" y="320" width="18" height="6" rx="3" fill="rgba(102,245,220,0.8)"/><rect x="633" y="601" width="33" height="6" rx="3" fill="rgba(102,245,220,0.8)"/><rect x="573" y="464" width="21" height="6" rx="3" fill="rgba(102,245,220,0.8)"/></g><g><rect x="654" y="329" width="106" height="313" rx="10" fill="rgba(10,20,42,0.58)" stroke="rgba(130,190,255,0.45)"/><rect x="716" y="525" width="20" height="6" rx="3" fill="rgba(102,245,220,0.8)"/><rect x="727" y="513" width="29" height="6" rx="3" fill="rgba(102,245,220,0.8)"/><rect x="680" y="421" width="31" height="6" rx="3" fill="rgba(102,245,220,0.8)"/><rect x="736" y="482" width="16" height="6" rx="3" fill="rgba(102,245,220,0.8)"/><rect x="734" y="465" width="21" height="6" rx="3" fill="rgba(102,245,220,0.8)"/><rect x="716" y="440" width="22" height="6" rx="3" fill="rgba(102,245,220,0.8)"/><rect x="741" y="603" width="33" height="6" rx="3" fill="rgba(102,245,220,0.8)"/><rect x="692" y="598" width="18" height="6" rx="3" fill="rgba(102,245,220,0.8)"/></g><g><rect x="780" y="189" width="92" height="445" rx="10" fill="rgba(10,20,42,0.58)" stroke="rgba(130,190,255,0.45)"/><rect x="802" y="509" width="24" height="6" rx="3" fill="rgba(102,245,220,0.8)"/><rect x="805" y="294" width="25" height="6" rx="3" fill="rgba(102,245,220,0.8)"/><rect x="816" y="593" width="22" height="6" rx="3" fill="rgba(102,245,220,0.8)"/><rect x="835" y="231" width="27" height="6" rx="3" fill="rgba(102,245,220,0.8)"/><rect x="820" y="258" width="16" height="6" rx="3" fill="rgba(102,245,220,0.8)"/><rect x="829" y="261" width="25" height="6" rx="3" fill="rgba(102,245,220,0.8)"/><rect x="841" y="378" width="24" height="6" rx="3" fill="rgba(102,245,220,0.8)"/><rect x="810" y="222" width="22" height="6" rx="3" fill="rgba(102,245,220,0.8)"/><rect x="848" y="572" width="28" height="6" rx="3" fill="rgba(102,245,220,0.8)"/><rect x="804" y="238" width="17" height="6" rx="3" fill="rgba(102,245,220,0.8)"/></g><g><rect x="796" y="190" width="102" height="441" rx="10" fill="rgba(10,20,42,0.58)" stroke="rgba(130,190,255,0.45)"/><rect x="868" y="535" width="31" height="6" rx="3" fill="rgba(102,245,220,0.8)"/><rect x="851" y="367" width="16" height="6" rx="3" fill="rgba(102,245,220,0.8)"/><rect x="873" y="533" width="33" height="6" rx="3" fill="rgba(102,245,220,0.8)"/><rect x="824" y="351" width="16" height="6" rx="3" fill="rgba(102,245,220,0.8)"/><rect x="841" y="410" width="30" height="6" rx="3" fill="rgba(102,245,220,0.8)"/><rect x="861" y="358" width="27" height="6" rx="3" fill="rgba(102,245,220,0.8)"/></g><g><rect x="1225" y="310" width="88" height="316" rx="10" fill="rgba(10,20,42,0.58)" stroke="rgba(130,190,255,0.45)"/><rect x="1257" y="444" width="23" height="6" rx="3" fill="rgba(102,245,220,0.8)"/><rect x="1271" y="358" width="21" height="6" rx="3" fill="rgba(102,245,220,0.8)"/><rect x="1255" y="545" width="24" height="6" rx="3" fill="rgba(102,245,220,0.8)"/><rect x="1270" y="537" width="31" height="6" rx="3" fill="rgba(102,245,220,0.8)"/><rect x="1254" y="354" width="21" height="6" rx="3" fill="rgba(102,245,220,0.8)"/></g></g>
  <g id="scene-sparkles"><circle cx="554" cy="280" r="2.64" fill="rgba(180,240,255,0.28)"/><circle cx="303" cy="632" r="2.24" fill="rgba(180,240,255,0.30)"/><circle cx="284" cy="525" r="1.24" fill="rgba(180,240,255,0.17)"/><circle cx="322" cy="531" r="1.37" fill="rgba(180,240,255,0.45)"/><circle cx="300" cy="118" r="3.22" fill="rgba(180,240,255,0.26)"/><circle cx="362" cy="434" r="2.72" fill="rgba(180,240,255,0.29)"/><circle cx="490" cy="291" r="3.39" fill="rgba(180,240,255,0.40)"/><circle cx="267" cy="271" r="1.35" fill="rgba(180,240,255,0.15)"/><circle cx="284" cy="140" r="3.01" fill="rgba(180,240,255,0.40)"/><circle cx="371" cy="248" r="2.38" fill="rgba(180,240,255,0.43)"/><circle cx="438" cy="298" r="2.56" fill="rgba(180,240,255,0.21)"/><circle cx="744" cy="470" r="1.38" fill="rgba(180,240,255,0.20)"/><circle cx="673" cy="577" r="3.19" fill="rgba(180,240,255,0.26)"/><circle cx="897" cy="594" r="1.83" fill="rgba(180,240,255,0.25)"/><circle cx="24" cy="34" r="3.30" fill="rgba(180,240,255,0.37)"/><circle cx="56" cy="574" r="1.69" fill="rgba(180,240,255,0.29)"/><circle cx="857" cy="463" r="2.97" fill="rgba(180,240,255,0.20)"/><circle cx="689" cy="375" r="1.14" fill="rgba(180,240,255,0.44)"/><circle cx="585" cy="230" r="1.16" fill="rgba(180,240,255,0.35)"/><circle cx="600" cy="180" r="2.57" fill="rgba(180,240,255,0.23)"/><circle cx="800" cy="61" r="2.32" fill="rgba(180,240,255,0.30)"/><circle cx="259" cy="255" r="2.32" fill="rgba(180,240,255,0.33)"/></g>
  <rect width="1200" height="675" fill="rgba(190,220,255,0.06)"/>
  <rect width="1200" height="675" filter="url(#grain-93)"/>
  <rect width="1200" height="675" fill="url(#vignette-93)"/>
  <rect x="20" y="20" width="1160" height="635" rx="32" fill="none" stroke="rgba(155,220,255,0.24)"/>
</svg>