<?xml version="1.0" encoding="UTF-8"?>
<svg xmlns="http://www.w3.org/2000/svg" width="1200" height="675" viewBox="0 0 1200 675" role="img" aria-label="AIGC fallback cover 89" data-scene="scene-9">
  <defs>
    <linearGradient id="bg-89" x1="0" y1="0" x2="1" y2="1">
      <stop offset="0%" stop-color="hsl(66, 82%, 16%)"/>
      <stop offset="52%" stop-color="hsl(140, 84%, 23%)"/>
      <stop offset="100%" stop-color="hsl(191, 78%, 12%)"/>
    </linearGradient>
    <filter id="blur-89" x="-25%" y="-25%" width="150%" height="150%">
      <feGaussianBlur stdDeviation="26"/>
    </filter>
    <filter id="soft-89" x="-25%" y="-25%" width="150%" height="150%">
      <feGaussianBlur stdDeviation="10"/>
    </filter>
    <filter id="grain-89" x="0%" y="0%" width="100%" height="100%">
      <feTurbulence type="fractalNoise" baseFrequency="0.9" numOctaves="2" seed="1157" stitchTiles="stitch"/>
      <feColorMatrix type="saturate" values="0"/>
      <feComponentTransfer>
        <feFuncA type="table" tableValues="0 0.05"/>
      </feComponentTransfer>
    </filter>
    <radialGradient id="vignette-89" cx="50%" cy="45%" r="70%">
      <stop offset="60%" stop-color="rgba(0,0,0,0)"/>
      <stop offset="100%" stop-color="rgba(0,0,0,0.45)"/>
    </radialGradient>
  </defs>

  <rect width="1200" height="675" fill="url(#bg-89)"/>
  <circle cx="787" cy="158" r="118" fill="hsl(66, 92%, 62%)" opacity="0.10" filter="url(#blur-89)"/><circle cx="565" cy="146" r="209" fill="hsl(92, 92%, 62%)" opacity="0.10" filter="url(#blur-89)"/><circle cx="1038" cy="558" r="107" fill="hsl(118, 92%, 62%)" opacity="0.16" filter="url(#blur-89)"/>
  <circle cx="713" cy="273" r="46" fill="rgba(210,240,255,0.07)" filter="url(#soft-89)"/><circle cx="911" cy="337" r="56" fill="rgba(210,240,255,0.06)" filter="url(#soft-89)"/><circle cx="682" cy="55" r="22" fill="rgba(210,240,255,0.11)" filter="url(#soft-89)"/><circle cx="255" cy="264" r="33" fill="rgba(210,240,255,0.08)" filter="url(#soft-89)"/><circle cx="92" cy="180" r="27" fill="rgba(210,240,255,0.16)" filter="url(#soft-89)"/><circle cx="457" cy="45" r="48" fill="rgba(210,240,255,0.09)" filter="url(#soft-89)"/><circle cx="689" cy="124" r="40" fill="rgba(210,240,255,0.13)" filter="url(#soft-89)"/><circle cx="56" cy="300" r="34" fill="rgba(210,240,255,0.14)" filter="url(#soft-89)"/><circle cx="92" cy="358" r="22" fill="rgba(210,240,255,0.10)" filter="url(#soft-89)"/>
  <polygon points="0,675 1200,675 1259,424 -59,424" fill="rgba(8,16,28,0.35)"/>
  <g id="scene-drone-swarm"><g transform="translate(417,118) scale(1.34)"><rect x="-10" y="-5" width="20" height="10" rx="3" fill="rgba(180,240,255,0.58)"/><line x1="-20" y1="0" x2="20" y2="0" stroke="rgba(150,230,255,0.6)" stroke-width="2"/><line x1="0" y1="-16" x2="0" y2="16" stroke="rgba(150,230,255,0.6)" stroke-width="2"/></g><g transform="translate(635,309) scale(1.09)"><rect x="-10" y="-5" width="20" height="10" rx="3" fill="rgba(180,240,255,0.58)"/><line x1="-20" y1="0" x2="20" y2="0" stroke="rgba(150,230,255,0.6)" stroke-width="2"/><line x1="0" y1="-16" x2="0" y2="16" stroke="rgba(150,230,255,0.6)" stroke-width="2"/></g><g transform="translate(534,110) scale(1.30)"><rect x="-10" y="-5" width="20" height="10" rx="3" fill="rgba(180,240,255,0.58)"/><line x1="-20" y1="0" x2="20" y2="0" stroke="rgba(150,230,255,0.6)" stroke-width="2"/><line x1="0" y1="-16" x2="0" y2="16" stroke="rgba(150,230,255,0.6)" stroke-width="2"/></g><g transform="translate(753,201) scale(1.28)"><rect x="-10" y="-5" width="20" height="10" rx="3" fill="rgba(180,240,255,0.58)"/><line x1="-20" y1="0" x2="20" y2="0" stroke="rgba(150,230,255,0.6)" stroke-width="2"/><line x1="0" y1="-16" x2="0" y2="16" stroke="rgba(150,230,255,0.6)" stroke-width="2"/></g><g transform="translate(755,158) scale(1.29)"><rect x="-10" y="-5" width="20" height="10" rx="3" fill="rgba(180,240,255,0.58)"/><line x1="-20" y1="0" x2="20" y2="0" stroke="rgba(150,230,255,0.6)" stroke-width="2"/><line x1="0" y1="-16" x2="0" y2="16" stroke="rgba(150,230,255,0.6)" stroke-width="2"/></g><g transform="translate(334,352) scale(1.11)"><rect x="-10" y="-5" width="20" height="10" rx="3" fill="rgba(180,240,255,0.58)"/><line x1="-20" y1="0" x2="20" y2="0" stroke="rgba(150,230,255,0.6)" stroke-width="2"/><line x1="0" y1="-16" x2="0" y2="16" stroke="rgba(150,230,255,0.6)" stroke-width="2"/></g><g transform="translate(688,203) scale(1.24)"><rect x="-10" y="-5" width="20" height="10" rx="3" fill="rgba(180,240,255,0.58)"/><line x1="-20" y1="0" x2="20" y2="0" stroke="rgba(150,230,255,0.6)" stroke-width="2"/><line x1="0" y1="-16" x2="0" y2="16" stroke="rgba(150,230,255,0.6)" stroke-width="2"/></g><g transform="translate(705,323) scale(0.86)"><rect x="-10" y="-5" width="20" height="10" rx="3" fill="rgba(180,240,255,0.58)"/><line x1="-20" y1="0" x2="20" y2="0" stroke="rgba(150,230,255,0.6)" stroke-width="2"/><line x1="0" y1="-16" x2="0" y2="16" stroke="rgba(150,230,255,0.6)" stroke-width="2"/></g><g transform="translate(604,195) scale(0.83)"><rect x="-10" y="-5" width="20" height="10" rx="3" fill="rgba(180,240,255,0.58)"/><line x1="-20" y1="0" x2="20" y2="0" stroke="rgba(150,230,255,0.6)" stroke-width="2"/><line x1="0" y1="-16" x2="0" y2="16" stroke="rgba(150,230,255,0.6)" stroke-width="2"/></g><g transform="translate(998,157) scale(1.33)"><rect x="-10" y="-5" width="20" height="10" rx="3" fill="rgba(180,240,255,0.58)"/><line x1="-20" y1="0" x2="20" y2="0" stroke="rgba(150,230,255,0.6)" stroke-width="2"/><line x1="0" y1="-16" x2="0" y2="16" stroke="rgba(150,230,255,0.6)" stroke-width="2"/></g><g transform="translate(712,339) scale(1.33)"><rect x="-10" y="-5" width="20" height="10" rx="3" fill="rgba(180,240,255,0.58)"/><line x1="-20" y1="0" x2="20" y2="0" stroke="rgba(150,230,255,0.6)" stroke-width="2"/><line x1="0" y1="-16" x2="0" y2="16" stroke="rgba(150,230,255,0.6)" stroke-width="2"/></g><g transform="translate(802,304) scale(0.86)"><rect x="-10" y="-5" width="20" height="10" rx="3" fill="rgba(180,240,255,0.58)"/><line x1="-20" y1="0" x2="20" y2="0" stroke="rgba(150,230,255,0.6)" stroke-width="2"/><line x1="0" y1="-16" x2="0" y2="16" stroke="rgba(150,230,255,0.6)" stroke-width="2"/></g><g transform="translate(385,183) scale(1.37)"><rect x="-10" y="-5" width="20" height="10" rx="3" fill="rgba(180,240,255,0.58)"/><line x1="-20" y1="0" x2="20" y2="0" stroke="rgba(150,230,255,0.6)" stroke-width="2"/><line x1="0" y1="-16" x2="0" y2="16" stroke="rgba(150,230,255,0.6)" stroke-width="2"/></g></g>
  <g id="scene-sparkles"><circle cx="248" cy="576" r="2.31" fill="rgba(180,240,255,0.28)"/><circle cx="315" cy="633" r="1.20" fill="rgba(180,240,255,0.18)"/><circle cx="236" cy="338" r="2.75" fill="rgba(180,240,255,0.19)"/><circle cx="816" cy="381" r="2.25" fill="rgba(180,240,255,0.44)"/><circle cx="463" cy="275" r="2.43" fill="rgba(180,240,255,0.42)"/><circle cx="1164" cy="88" r="3.28" fill="rgba(180,240,255,0.44)"/><circle cx="1123" cy="203" r="2.25" fill="rgba(180,240,255,0.22)"/><circle cx="216" cy="218" r="2.74" fill="rgba(180,240,255,0.38)"/><circle cx="804" cy="649" r="3.40" fill="rgba(180,240,255,0.44)"/><circle cx="161" cy="268" r="2.22" fill="rgba(180,240,255,0.32)"/><circle cx="391" cy="488" r="2.48" fill="rgba(180,240,255,0.29)"/><circle cx="419" cy="366" r="2.79" fill="rgba(180,240,255,0.21)"/><circle cx="285" cy="380" r="3.35" fill="rgba(180,240,255,0.20)"/><circle cx="121" cy="492" r="1.65" fill="rgba(180,240,255,0.21)"/><circle cx="197" cy="398" r="3.07" fill="rgba(180,240,255,0.38)"/><circle cx="535" cy="579" r="2.76" fill="rgba(180,240,255,0.15)"/><circle cx="850" cy="157" r="1.26" fill="rgba(180,240,255,0.33)"/><circle cx="963" cy="213" r="2.41" fill="rgba(180,240,255,0.21)"/><circle cx="830" cy="169" r="2.16" fill="rgba(180,240,255,0.16)"/><circle cx="1151" cy="512" r="1.91" fill="rgba(180,240,255,0.25)"/><circle cx="886" cy="351" r="2.58" fill="rgba(180,240,255,0.31)"/><circle cx="813" cy="515" r="2.30" fill="rgba(180,240,255,0.24)"/><circle cx="896" cy="322" r="2.52" fill="rgba(180,240,255,0.24)"/><circle cx="962" cy="160" r="3.28" fill="rgba(180,240,255,0.25)"/><circle cx="514" cy="64" r="3.39" fill="rgba(180,240,255,0.25)"/><circle cx="810" cy="354" r="2.45" fill="rgba(180,240,255,0.19)"/><circle cx="1114" cy="75" r="2.59" fill="rgba(180,240,255,0.28)"/></g>
  <rect width="1200" height="675" fill="rgba(190,220,255,0.06)"/>
  <rect width="1200" height="675" filter="url(#grain-89)"/>
  <rect width="1200" height="675" fill="url(#vignette-89)"/>
  <rect x="20" y="20" width="1160" height="635" rx="32" fill="none" stroke="rgba(155,220,255,0.24)"/>
</svg>