<?xml version="1.0" encoding="UTF-8"?>
<svg xmlns="http://www.w3.org/2000/svg" width="1200" height="675" viewBox="0 0 1200 675" role="img" aria-label="AIGC fallback cover 45" data-scene="scene-5">
  <defs>
    <linearGradient id="bg-45" x1="0" y1="0" x2="1" y2="1">
      <stop offset="0%" stop-color="hsl(70, 82%, 16%)"/>
      <stop offset="52%" stop-color="hsl(110, 84%, 23%)"/>
      <stop offset="100%" stop-color="hsl(243, 78%, 12%)"/>
    </linearGradient>
    <filter id="blur-45" x="-25%" y="-25%" width="150%" height="150%">
      <feGaussianBlur stdDeviation="26"/>
    </filter>
    <filter id="soft-45" x="-25%" y="-25%" width="150%" height="150%">
      <feGaussianBlur stdDeviation="10"/>
    </filter>
    <filter id="grain-45" x="0%" y="0%" width="100%" height="100%">
      <feTurbulence type="fractalNoise" baseFrequency="0.9" numOctaves="2" seed="585" stitchTiles="stitch"/>
      <feColorMatrix type="saturate" values="0"/>
      <feComponentTransfer>
        <feFuncA type="table" tableValues="0 0.05"/>
      </feComponentTransfer>
    </filter>
    <radialGradient id="vignette-45" cx="50%" cy="45%" r="70%">
      <stop offset="60%" stop-color="rgba(0,0,0,0)"/>
      <stop offset="100%" stop-color="rgba(0,0,0,0.45)"/>
    </radialGradient>
  </defs>

  <rect width="1200" height="675" fill="url(#bg-45)"/>
  <circle cx="420" cy="417" r="169" fill="hsl(70, 92%, 62%)" opacity="0.15" filter="url(#blur-45)"/><circle cx="311" cy="418" r="177" fill="hsl(96, 92%, 62%)" opacity="0.13" filter="url(#blur-45)"/><circle cx="641" cy="198" r="172" fill="hsl(122, 92%, 62%)" opacity="0.09" filter="url(#blur-45)"/>
  <circle cx="763" cy="346" r="55" fill="rgba(210,240,255,0.08)" filter="url(#soft-45)"/><circle cx="832" cy="258" r="65" fill="rgba(210,240,255,0.11)" filter="url(#soft-45)"/><circle cx="807" cy="250" r="68" fill="rgba(210,240,255,0.06)" filter="url(#soft-45)"/><circle cx="269" cy="298" r="23" fill="rgba(210,240,255,0.15)" filter="url(#soft-45)"/><circle cx="491" cy="221" r="39" fill="rgba(210,240,255,0.10)" filter="url(#soft-45)"/><circle cx="705" cy="283" r="63" fill="rgba(210,240,255,0.10)" filter="url(#soft-45)"/><circle cx="164" cy="98" r="57" fill="rgba(210,240,255,0.10)" filter="url(#soft-45)"/><circle cx="324" cy="159" r="20" fill="rgba(210,240,255,0.14)" filter="url(#soft-45)"/><circle cx="139" cy="353" r="40" fill="rgba(210,240,255,0.15)" filter="url(#soft-45)"/><circle cx="953" cy="247" r="60" fill="rgba(210,240,255,0.07)" filter="url(#soft-45)"/>
  <polygon points="0,675 1200,675 1342,429 -142,429" fill="rgba(8,16,28,0.35)"/>
  <g id="scene-wave"><path d="M 0 226 C 51.75 195, 155.25 257, 207 226 S 362.25 195, 414 226" transform="translate(9,0) scale(1.6424628659849987,1)" fill="none" stroke="rgba(132,236,255,0.21)" stroke-width="6"/><path d="M 0 443 C 65.5 394, 196.5 492, 262 443 S 458.5 394, 524 443" transform="translate(131,0) scale(1.8696016246220095,1)" fill="none" stroke="rgba(132,236,255,0.19)" stroke-width="5"/><path d="M 0 452 C 111.25 430, 333.75 474, 445 452 S 778.75 430, 890 452" transform="translate(69,0) scale(1.4367617548676208,1)" fill="none" stroke="rgba(132,236,255,0.24)" stroke-width="7"/><path d="M 0 278 C 67 235, 201 321, 268 278 S 469 235, 536 278" transform="translate(91,0) scale(2.4175553105771543,1)" fill="none" stroke="rgba(132,236,255,0.37)" stroke-width="7"/></g>
  <g id="scene-sparkles"><circle cx="182" cy="265" r="3.29" fill="rgba(180,240,255,0.16)"/><circle cx="1161" cy="221" r="2.18" fill="rgba(180,240,255,0.29)"/><circle cx="604" cy="352" r="3.32" fill="rgba(180,240,255,0.44)"/><circle cx="345" cy="276" r="1.40" fill="rgba(180,240,255,0.38)"/><circle cx="578" cy="302" r="2.67" fill="rgba(180,240,255,0.33)"/><circle cx="694" cy="422" r="3.21" fill="rgba(180,240,255,0.36)"/><circle cx="1130" cy="151" r="2.89" fill="rgba(180,240,255,0.37)"/><circle cx="895" cy="497" r="2.32" fill="rgba(180,240,255,0.33)"/><circle cx="1148" cy="650" r="2.11" fill="rgba(180,240,255,0.19)"/><circle cx="680" cy="170" r="2.00" fill="rgba(180,240,255,0.25)"/><circle cx="135" cy="480" r="2.51" fill="rgba(180,240,255,0.26)"/><circle cx="256" cy="481" r="2.30" fill="rgba(180,240,255,0.39)"/><circle cx="385" cy="118" r="3.24" fill="rgba(180,240,255,0.17)"/><circle cx="355" cy="315" r="1.42" fill="rgba(180,240,255,0.40)"/><circle cx="413" cy="436" r="3.08" fill="rgba(180,240,255,0.16)"/><circle cx="531" cy="260" r="2.96" fill="rgba(180,240,255,0.37)"/><circle cx="921" cy="522" r="1.59" fill="rgba(180,240,255,0.25)"/><circle cx="240" cy="269" r="1.92" fill="rgba(180,240,255,0.41)"/><circle cx="345" cy="289" r="3.22" fill="rgba(180,240,255,0.40)"/><circle cx="459" cy="645" r="2.41" fill="rgba(180,240,255,0.30)"/><circle cx="482" cy="407" r="2.44" fill="rgba(180,240,255,0.23)"/><circle cx="865" cy="150" r="1.54" fill="rgba(180,240,255,0.18)"/><circle cx="297" cy="53" r="3.36" fill="rgba(180,240,255,0.37)"/><circle cx="1137" cy="295" r="2.25" fill="rgba(180,240,255,0.17)"/><circle cx="804" cy="447" r="1.60" fill="rgba(180,240,255,0.29)"/><circle cx="1125" cy="22" r="2.44" fill="rgba(180,240,255,0.23)"/><circle cx="194" cy="92" r="2.41" fill="rgba(180,240,255,0.35)"/></g>
  <rect width="1200" height="675" fill="rgba(190,220,255,0.06)"/>
  <rect width="1200" height="675" filter="url(#grain-45)"/>
  <rect width="1200" height="675" fill="url(#vignette-45)"/>
  <rect x="20" y="20" width="1160" height="635" rx="32" fill="none" stroke="rgba(155,220,255,0.24)"/>
</svg>