<?xml version="1.0" encoding="UTF-8"?>
<svg xmlns="http://www.w3.org/2000/svg" width="1200" height="675" viewBox="0 0 1200 675" role="img" aria-label="Fallback cover 6" data-scene="landscape-6">
  
  <defs>
    <linearGradient id="sky-6" x1="0" y1="0" x2="0" y2="1">
      <stop offset="0%" stop-color="hsl(153, 70%, 74%)"/>
      <stop offset="55%" stop-color="hsl(183, 64%, 56%)"/>
      <stop offset="100%" stop-color="hsl(232, 46%, 34%)"/>
    </linearGradient>
    <filter id="grain-6" x="0%" y="0%" width="100%" height="100%">
      <feTurbulence type="fractalNoise" baseFrequency="0.85" numOctaves="2" seed="102" stitchTiles="stitch"/>
      <feColorMatrix type="saturate" values="0"/>
      <feComponentTransfer><feFuncA type="table" tableValues="0 0.05"/></feComponentTransfer>
    </filter>
    <filter id="soft-6" x="-30%" y="-30%" width="160%" height="160%">
      <feGaussianBlur stdDeviation="12"/>
    </filter>
    <radialGradient id="vignette-6" cx="50%" cy="45%" r="72%">
      <stop offset="60%" stop-color="rgba(0,0,0,0)"/>
      <stop offset="100%" stop-color="rgba(0,0,0,0.42)"/>
    </radialGradient>
  </defs>
  <rect width="1200" height="675" fill="url(#sky-6)"/>
  <path d="M -20 350 C 260 274, 640 404, 1220 282 L 1220 700 L -20 700 Z" fill="hsl(153, 40%, 42%)"/><path d="M -20 395 C 260 345, 640 443, 1220 339 L 1220 700 L -20 700 Z" fill="hsl(160, 40%, 38%)"/><path d="M -20 440 C 260 376, 640 511, 1220 400 L 1220 700 L -20 700 Z" fill="hsl(167, 40%, 34%)"/><path d="M -20 485 C 260 418, 640 512, 1220 444 L 1220 700 L -20 700 Z" fill="hsl(174, 40%, 30%)"/>
  <g id="scene-sparkles"><circle cx="999" cy="389" r="1.38" fill="rgba(245,250,255,0.34)"/><circle cx="94" cy="590" r="2.19" fill="rgba(245,250,255,0.33)"/><circle cx="318" cy="60" r="2.50" fill="rgba(245,250,255,0.25)"/><circle cx="1008" cy="389" r="2.54" fill="rgba(245,250,255,0.18)"/><circle cx="1088" cy="586" r="2.24" fill="rgba(245,250,255,0.16)"/><circle cx="645" cy="654" r="1.81" fill="rgba(245,250,255,0.30)"/><circle cx="387" cy="265" r="1.23" fill="rgba(245,250,255,0.33)"/><circle cx="778" cy="31" r="1.66" fill="rgba(245,250,255,0.17)"/><circle cx="446" cy="376" r="1.05" fill="rgba(245,250,255,0.24)"/><circle cx="797" cy="611" r="0.89" fill="rgba(245,250,255,0.23)"/><circle cx="708" cy="427" r="2.09" fill="rgba(245,250,255,0.28)"/><circle cx="807" cy="586" r="1.59" fill="rgba(245,250,255,0.38)"/><circle cx="993" cy="245" r="2.40" fill="rgba(245,250,255,0.33)"/><circle cx="597" cy="207" r="2.48" fill="rgba(245,250,255,0.39)"/><circle cx="568" cy="328" r="1.62" fill="rgba(245,250,255,0.34)"/><circle cx="502" cy="239" r="2.31" fill="rgba(245,250,255,0.27)"/><circle cx="1178" cy="80" r="2.62" fill="rgba(245,250,255,0.26)"/><circle cx="177" cy="474" r="2.13" fill="rgba(245,250,255,0.15)"/><circle cx="302" cy="347" r="1.64" fill="rgba(245,250,255,0.38)"/><circle cx="966" cy="416" r="2.70" fill="rgba(245,250,255,0.31)"/><circle cx="820" cy="548" r="1.11" fill="rgba(245,250,255,0.16)"/><circle cx="509" cy="637" r="2.37" fill="rgba(245,250,255,0.39)"/><circle cx="225" cy="31" r="1.01" fill="rgba(245,250,255,0.28)"/><circle cx="276" cy="340" r="0.98" fill="rgba(245,250,255,0.24)"/></g>
  <rect width="1200" height="675" filter="url(#grain-6)"/>
  <rect width="1200" height="675" fill="url(#vignette-6)"/>
</svg>