<?xml version="1.0" encoding="UTF-8"?>
<svg xmlns="http://www.w3.org/2000/svg" width="1200" height="675" viewBox="0 0 1200 675" role="img" aria-label="AIGC fallback cover 77" data-scene="scene-7">
  <defs>
    <linearGradient id="bg-77" x1="0" y1="0" x2="1" y2="1">
      <stop offset="0%" stop-color="hsl(306, 82%, 16%)"/>
      <stop offset="52%" stop-color="hsl(351, 84%, 23%)"/>
      <stop offset="100%" stop-color="hsl(72, 78%, 12%)"/>
    </linearGradient>
    <filter id="blur-77" x="-25%" y="-25%" width="150%" height="150%">
      <feGaussianBlur stdDeviation="26"/>
    </filter>
    <filter id="soft-77" x="-25%" y="-25%" width="150%" height="150%">
      <feGaussianBlur stdDeviation="10"/>
    </filter>
    <filter id="grain-77" x="0%" y="0%" width="100%" height="100%">
      <feTurbulence type="fractalNoise" baseFrequency="0.9" numOctaves="2" seed="1001" stitchTiles="stitch"/>
      <feColorMatrix type="saturate" values="0"/>
      <feComponentTransfer>
        <feFuncA type="table" tableValues="0 0.05"/>
      </feComponentTransfer>
    </filter>
    <radialGradient id="vignette-77" cx="50%" cy="45%" r="70%">
      <stop offset="60%" stop-color="rgba(0,0,0,0)"/>
      <stop offset="100%" stop-color="rgba(0,0,0,0.45)"/>
    </radialGradient>
  </defs>

  <rect width="1200" height="675" fill="url(#bg-77)"/>
  <circle cx="474" cy="516" r="93" fill="hsl(306, 92%, 62%)" opacity="0.09" filter="url(#blur-77)"/><circle cx="551" cy="544" r="172" fill="hsl(332, 92%, 62%)" opacity="0.09" filter="url(#blur-77)"/><circle cx="430" cy="478" r="204" fill="hsl(358, 92%, 62%)" opacity="0.11" filter="url(#blur-77)"/>
  <circle cx="285" cy="444" r="67" fill="rgba(210,240,255,0.11)" filter="url(#soft-77)"/><circle cx="919" cy="373" r="21" fill="rgba(210,240,255,0.15)" filter="url(#soft-77)"/><circle cx="382" cy="106" r="67" fill="rgba(210,240,255,0.12)" filter="url(#soft-77)"/><circle cx="585" cy="125" r="32" fill="rgba(210,240,255,0.08)" filter="url(#soft-77)"/><circle cx="875" cy="71" r="24" fill="rgba(210,240,255,0.09)" filter="url(#soft-77)"/><circle cx="498" cy="118" r="51" fill="rgba(210,240,255,0.07)" filter="url(#soft-77)"/><circle cx="501" cy="139" r="24" fill="rgba(210,240,255,0.10)" filter="url(#soft-77)"/>
  <polygon points="0,675 1200,675 1334,374 -134,374" fill="rgba(8,16,28,0.35)"/>
  <g id="scene-orbits"><ellipse cx="588" cy="273" rx="145" ry="84" fill="none" stroke="rgba(140,230,255,0.28)" stroke-width="2" transform="rotate(14 588 273)"/><ellipse cx="588" cy="273" rx="172" ry="105" fill="none" stroke="rgba(140,230,255,0.28)" stroke-width="2" transform="rotate(3 588 273)"/><ellipse cx="588" cy="273" rx="230" ry="126" fill="none" stroke="rgba(140,230,255,0.28)" stroke-width="2" transform="rotate(24 588 273)"/><ellipse cx="588" cy="273" rx="308" ry="145" fill="none" stroke="rgba(140,230,255,0.28)" stroke-width="2" transform="rotate(-26 588 273)"/><circle cx="740" cy="263" r="7" fill="hsl(306, 88%, 72%)" opacity="0.85"/><circle cx="336" cy="236" r="11" fill="hsl(318, 88%, 72%)" opacity="0.85"/><circle cx="338" cy="276" r="6" fill="hsl(330, 88%, 72%)" opacity="0.85"/><circle cx="841" cy="271" r="10" fill="hsl(342, 88%, 72%)" opacity="0.85"/><circle cx="739" cy="217" r="12" fill="hsl(354, 88%, 72%)" opacity="0.85"/><circle cx="312" cy="238" r="6" fill="hsl(366, 88%, 72%)" opacity="0.85"/><circle cx="460" cy="231" r="7" fill="hsl(378, 88%, 72%)" opacity="0.85"/><circle cx="402" cy="261" r="12" fill="hsl(390, 88%, 72%)" opacity="0.85"/></g>
  <g id="scene-sparkles"><circle cx="434" cy="609" r="3.10" fill="rgba(180,240,255,0.18)"/><circle cx="999" cy="293" r="2.51" fill="rgba(180,240,255,0.26)"/><circle cx="651" cy="106" r="2.35" fill="rgba(180,240,255,0.40)"/><circle cx="1115" cy="80" r="3.15" fill="rgba(180,240,255,0.17)"/><circle cx="154" cy="30" r="2.19" fill="rgba(180,240,255,0.22)"/><circle cx="852" cy="182" r="1.11" fill="rgba(180,240,255,0.17)"/><circle cx="349" cy="474" r="3.32" fill="rgba(180,240,255,0.32)"/><circle cx="372" cy="151" r="2.11" fill="rgba(180,240,255,0.31)"/><circle cx="104" cy="163" r="3.26" fill="rgba(180,240,255,0.41)"/><circle cx="1060" cy="531" r="3.27" fill="rgba(180,240,255,0.18)"/><circle cx="328" cy="646" r="2.60" fill="rgba(180,240,255,0.15)"/><circle cx="413" cy="605" r="2.82" fill="rgba(180,240,255,0.22)"/><circle cx="1116" cy="38" r="2.91" fill="rgba(180,240,255,0.37)"/><circle cx="981" cy="444" r="2.65" fill="rgba(180,240,255,0.23)"/><circle cx="743" cy="490" r="1.48" fill="rgba(180,240,255,0.42)"/><circle cx="506" cy="104" r="2.45" fill="rgba(180,240,255,0.15)"/><circle cx="853" cy="373" r="1.24" fill="rgba(180,240,255,0.41)"/><circle cx="671" cy="284" r="1.57" fill="rgba(180,240,255,0.32)"/><circle cx="1177" cy="649" r="3.11" fill="rgba(180,240,255,0.31)"/><circle cx="730" cy="469" r="2.93" fill="rgba(180,240,255,0.26)"/></g>
  <rect width="1200" height="675" fill="rgba(190,220,255,0.06)"/>
  <rect width="1200" height="675" filter="url(#grain-77)"/>
  <rect width="1200" height="675" fill="url(#vignette-77)"/>
  <rect x="20" y="20" width="1160" height="635" rx="32" fill="none" stroke="rgba(155,220,255,0.24)"/>
</svg>