<?xml version="1.0" encoding="UTF-8"?>
<svg xmlns="http://www.w3.org/2000/svg" width="1200" height="675" viewBox="0 0 1200 675" role="img" aria-label="AIGC fallback cover 74" data-scene="scene-4">
  <defs>
    <linearGradient id="bg-74" x1="0" y1="0" x2="1" y2="1">
      <stop offset="0%" stop-color="hsl(168, 82%, 16%)"/>
      <stop offset="52%" stop-color="hsl(227, 84%, 23%)"/>
      <stop offset="100%" stop-color="hsl(302, 78%, 12%)"/>
    </linearGradient>
    <filter id="blur-74" x="-25%" y="-25%" width="150%" height="150%">
      <feGaussianBlur stdDeviation="26"/>
    </filter>
    <filter id="soft-74" x="-25%" y="-25%" width="150%" height="150%">
      <feGaussianBlur stdDeviation="10"/>
    </filter>
    <filter id="grain-74" x="0%" y="0%" width="100%" height="100%">
      <feTurbulence type="fractalNoise" baseFrequency="0.9" numOctaves="2" seed="962" stitchTiles="stitch"/>
      <feColorMatrix type="saturate" values="0"/>
      <feComponentTransfer>
        <feFuncA type="table" tableValues="0 0.05"/>
      </feComponentTransfer>
    </filter>
    <radialGradient id="vignette-74" cx="50%" cy="45%" r="70%">
      <stop offset="60%" stop-color="rgba(0,0,0,0)"/>
      <stop offset="100%" stop-color="rgba(0,0,0,0.45)"/>
    </radialGradient>
  </defs>

  <rect width="1200" height="675" fill="url(#bg-74)"/>
  <circle cx="874" cy="267" r="118" fill="hsl(168, 92%, 62%)" opacity="0.11" filter="url(#blur-74)"/><circle cx="645" cy="405" r="144" fill="hsl(194, 92%, 62%)" opacity="0.13" filter="url(#blur-74)"/><circle cx="957" cy="517" r="115" fill="hsl(220, 92%, 62%)" opacity="0.14" filter="url(#blur-74)"/>
  <circle cx="208" cy="255" r="52" fill="rgba(210,240,255,0.07)" filter="url(#soft-74)"/><circle cx="590" cy="217" r="21" fill="rgba(210,240,255,0.13)" filter="url(#soft-74)"/><circle cx="564" cy="117" r="69" fill="rgba(210,240,255,0.09)" filter="url(#soft-74)"/><circle cx="46" cy="258" r="57" fill="rgba(210,240,255,0.06)" filter="url(#soft-74)"/><circle cx="1121" cy="428" r="31" fill="rgba(210,240,255,0.14)" filter="url(#soft-74)"/><circle cx="824" cy="100" r="43" fill="rgba(210,240,255,0.14)" filter="url(#soft-74)"/><circle cx="508" cy="316" r="57" fill="rgba(210,240,255,0.11)" filter="url(#soft-74)"/><circle cx="649" cy="242" r="41" fill="rgba(210,240,255,0.16)" filter="url(#soft-74)"/>
  <polygon points="0,675 1200,675 1107,386 93,386" fill="rgba(8,16,28,0.35)"/>
  <g id="scene-city"><g><rect x="280" y="528" width="62" height="147" rx="8" fill="rgba(8,18,38,0.58)" stroke="hsl(168, 70%, 52%)" opacity="0.72"/><rect x="291" y="548" width="45" height="5" rx="2" fill="rgba(120,240,255,0.22)"/><rect x="289" y="573" width="35" height="5" rx="2" fill="rgba(120,240,255,0.22)"/><rect x="296" y="598" width="45" height="5" rx="2" fill="rgba(120,240,255,0.22)"/><rect x="295" y="626" width="43" height="5" rx="2" fill="rgba(120,240,255,0.22)"/><rect x="295" y="632" width="42" height="5" rx="2" fill="rgba(120,240,255,0.22)"/></g><g><rect x="898" y="447" width="40" height="228" rx="8" fill="rgba(8,18,38,0.58)" stroke="hsl(173, 70%, 52%)" opacity="0.72"/><rect x="911" y="467" width="12" height="5" rx="2" fill="rgba(120,240,255,0.22)"/><rect x="911" y="493" width="20" height="5" rx="2" fill="rgba(120,240,255,0.22)"/><rect x="909" y="521" width="22" height="5" rx="2" fill="rgba(120,240,255,0.22)"/><rect x="906" y="530" width="16" height="5" rx="2" fill="rgba(120,240,255,0.22)"/></g><g><rect x="782" y="441" width="56" height="234" rx="8" fill="rgba(8,18,38,0.58)" stroke="hsl(178, 70%, 52%)" opacity="0.72"/><rect x="798" y="461" width="36" height="5" rx="2" fill="rgba(120,240,255,0.22)"/><rect x="797" y="481" width="36" height="5" rx="2" fill="rgba(120,240,255,0.22)"/><rect x="791" y="511" width="32" height="5" rx="2" fill="rgba(120,240,255,0.22)"/><rect x="793" y="515" width="34" height="5" rx="2" fill="rgba(120,240,255,0.22)"/><rect x="795" y="557" width="32" height="5" rx="2" fill="rgba(120,240,255,0.22)"/><rect x="795" y="576" width="36" height="5" rx="2" fill="rgba(120,240,255,0.22)"/><rect x="790" y="599" width="37" height="5" rx="2" fill="rgba(120,240,255,0.22)"/><rect x="793" y="615" width="30" height="5" rx="2" fill="rgba(120,240,255,0.22)"/></g><g><rect x="905" y="391" width="116" height="284" rx="8" fill="rgba(8,18,38,0.58)" stroke="hsl(183, 70%, 52%)" opacity="0.72"/><rect x="918" y="411" width="100" height="5" rx="2" fill="rgba(120,240,255,0.22)"/><rect x="921" y="431" width="97" height="5" rx="2" fill="rgba(120,240,255,0.22)"/><rect x="917" y="447" width="95" height="5" rx="2" fill="rgba(120,240,255,0.22)"/><rect x="914" y="480" width="97" height="5" rx="2" fill="rgba(120,240,255,0.22)"/><rect x="913" y="499" width="93" height="5" rx="2" fill="rgba(120,240,255,0.22)"/><rect x="916" y="531" width="98" height="5" rx="2" fill="rgba(120,240,255,0.22)"/><rect x="916" y="555" width="99" height="5" rx="2" fill="rgba(120,240,255,0.22)"/><rect x="919" y="544" width="99" height="5" rx="2" fill="rgba(120,240,255,0.22)"/></g><g><rect x="161" y="380" width="89" height="295" rx="8" fill="rgba(8,18,38,0.58)" stroke="hsl(188, 70%, 52%)" opacity="0.72"/><rect x="169" y="400" width="63" height="5" rx="2" fill="rgba(120,240,255,0.22)"/><rect x="171" y="420" width="61" height="5" rx="2" fill="rgba(120,240,255,0.22)"/><rect x="171" y="452" width="68" height="5" rx="2" fill="rgba(120,240,255,0.22)"/><rect x="172" y="481" width="68" height="5" rx="2" fill="rgba(120,240,255,0.22)"/><rect x="173" y="512" width="73" height="5" rx="2" fill="rgba(120,240,255,0.22)"/><rect x="170" y="495" width="73" height="5" rx="2" fill="rgba(120,240,255,0.22)"/><rect x="169" y="532" width="67" height="5" rx="2" fill="rgba(120,240,255,0.22)"/><rect x="169" y="589" width="69" height="5" rx="2" fill="rgba(120,240,255,0.22)"/><rect x="174" y="560" width="70" height="5" rx="2" fill="rgba(120,240,255,0.22)"/><rect x="177" y="571" width="64" height="5" rx="2" fill="rgba(120,240,255,0.22)"/></g><g><rect x="530" y="488" width="97" height="187" rx="8" fill="rgba(8,18,38,0.58)" stroke="hsl(193, 70%, 52%)" opacity="0.72"/><rect x="540" y="508" width="77" height="5" rx="2" fill="rgba(120,240,255,0.22)"/><rect x="546" y="536" width="74" height="5" rx="2" fill="rgba(120,240,255,0.22)"/><rect x="543" y="564" width="75" height="5" rx="2" fill="rgba(120,240,255,0.22)"/><rect x="541" y="568" width="72" height="5" rx="2" fill="rgba(120,240,255,0.22)"/><rect x="544" y="612" width="72" height="5" rx="2" fill="rgba(120,240,255,0.22)"/><rect x="542" y="638" width="75" height="5" rx="2" fill="rgba(120,240,255,0.22)"/><rect x="545" y="628" width="73" height="5" rx="2" fill="rgba(120,240,255,0.22)"/></g><g><rect x="319" y="481" width="76" height="194" rx="8" fill="rgba(8,18,38,0.58)" stroke="hsl(198, 70%, 52%)" opacity="0.72"/><rect x="329" y="501" width="59" height="5" rx="2" fill="rgba(120,240,255,0.22)"/><rect x="332" y="525" width="56" height="5" rx="2" fill="rgba(120,240,255,0.22)"/><rect x="329" y="553" width="51" height="5" rx="2" fill="rgba(120,240,255,0.22)"/><rect x="331" y="567" width="51" height="5" rx="2" fill="rgba(120,240,255,0.22)"/><rect x="334" y="597" width="55" height="5" rx="2" fill="rgba(120,240,255,0.22)"/><rect x="328" y="596" width="54" height="5" rx="2" fill="rgba(120,240,255,0.22)"/><rect x="327" y="651" width="59" height="5" rx="2" fill="rgba(120,240,255,0.22)"/><rect x="329" y="641" width="57" height="5" rx="2" fill="rgba(120,240,255,0.22)"/><rect x="331" y="645" width="52" height="5" rx="2" fill="rgba(120,240,255,0.22)"/><rect x="328" y="663" width="58" height="5" rx="2" fill="rgba(120,240,255,0.22)"/></g><g><rect x="1074" y="366" width="102" height="309" rx="8" fill="rgba(8,18,38,0.58)" stroke="hsl(203, 70%, 52%)" opacity="0.72"/><rect x="1083" y="386" width="74" height="5" rx="2" fill="rgba(120,240,255,0.22)"/><rect x="1088" y="406" width="80" height="5" rx="2" fill="rgba(120,240,255,0.22)"/><rect x="1086" y="442" width="85" height="5" rx="2" fill="rgba(120,240,255,0.22)"/><rect x="1089" y="455" width="86" height="5" rx="2" fill="rgba(120,240,255,0.22)"/><rect x="1083" y="462" width="81" height="5" rx="2" fill="rgba(120,240,255,0.22)"/></g><g><rect x="762" y="325" width="105" height="350" rx="8" fill="rgba(8,18,38,0.58)" stroke="hsl(208, 70%, 52%)" opacity="0.72"/><rect x="777" y="345" width="87" height="5" rx="2" fill="rgba(120,240,255,0.22)"/><rect x="774" y="365" width="77" height="5" rx="2" fill="rgba(120,240,255,0.22)"/><rect x="770" y="401" width="80" height="5" rx="2" fill="rgba(120,240,255,0.22)"/><rect x="772" y="399" width="84" height="5" rx="2" fill="rgba(120,240,255,0.22)"/><rect x="774" y="449" width="83" height="5" rx="2" fill="rgba(120,240,255,0.22)"/><rect x="771" y="470" width="79" height="5" rx="2" fill="rgba(120,240,255,0.22)"/><rect x="777" y="489" width="86" height="5" rx="2" fill="rgba(120,240,255,0.22)"/><rect x="770" y="478" width="85" height="5" rx="2" fill="rgba(120,240,255,0.22)"/></g><g><rect x="210" y="549" width="73" height="126" rx="8" fill="rgba(8,18,38,0.58)" stroke="hsl(213, 70%, 52%)" opacity="0.72"/><rect x="222" y="569" width="50" height="5" rx="2" fill="rgba(120,240,255,0.22)"/><rect x="223" y="594" width="49" height="5" rx="2" fill="rgba(120,240,255,0.22)"/><rect x="226" y="615" width="46" height="5" rx="2" fill="rgba(120,240,255,0.22)"/><rect x="224" y="644" width="45" height="5" rx="2" fill="rgba(120,240,255,0.22)"/><rect x="219" y="645" width="51" height="5" rx="2" fill="rgba(120,240,255,0.22)"/><rect x="224" y="704" width="49" height="5" rx="2" fill="rgba(120,240,255,0.22)"/></g><g><rect x="44" y="319" width="103" height="356" rx="8" fill="rgba(8,18,38,0.58)" stroke="hsl(218, 70%, 52%)" opacity="0.72"/><rect x="54" y="339" width="77" height="5" rx="2" fill="rgba(120,240,255,0.22)"/><rect x="52" y="362" width="75" height="5" rx="2" fill="rgba(120,240,255,0.22)"/><rect x="59" y="377" width="78" height="5" rx="2" fill="rgba(120,240,255,0.22)"/><rect x="56" y="393" width="75" height="5" rx="2" fill="rgba(120,240,255,0.22)"/><rect x="58" y="435" width="83" height="5" rx="2" fill="rgba(120,240,255,0.22)"/><rect x="58" y="454" width="83" height="5" rx="2" fill="rgba(120,240,255,0.22)"/><rect x="60" y="483" width="77" height="5" rx="2" fill="rgba(120,240,255,0.22)"/><rect x="60" y="493" width="84" height="5" rx="2" fill="rgba(120,240,255,0.22)"/><rect x="57" y="539" width="78" height="5" rx="2" fill="rgba(120,240,255,0.22)"/><rect x="57" y="519" width="85" height="5" rx="2" fill="rgba(120,240,255,0.22)"/></g><g><rect x="593" y="462" width="51" height="213" rx="8" fill="rgba(8,18,38,0.58)" stroke="hsl(223, 70%, 52%)" opacity="0.72"/><rect x="609" y="482" width="28" height="5" rx="2" fill="rgba(120,240,255,0.22)"/><rect x="608" y="501" width="33" height="5" rx="2" fill="rgba(120,240,255,0.22)"/><rect x="608" y="536" width="26" height="5" rx="2" fill="rgba(120,240,255,0.22)"/><rect x="609" y="566" width="32" height="5" rx="2" fill="rgba(120,240,255,0.22)"/><rect x="608" y="570" width="31" height="5" rx="2" fill="rgba(120,240,255,0.22)"/><rect x="601" y="597" width="24" height="5" rx="2" fill="rgba(120,240,255,0.22)"/><rect x="601" y="638" width="27" height="5" rx="2" fill="rgba(120,240,255,0.22)"/><rect x="606" y="671" width="25" height="5" rx="2" fill="rgba(120,240,255,0.22)"/><rect x="601" y="642" width="35" height="5" rx="2" fill="rgba(120,240,255,0.22)"/><rect x="606" y="689" width="28" height="5" rx="2" fill="rgba(120,240,255,0.22)"/></g></g>
  <g id="scene-sparkles"><circle cx="276" cy="193" r="2.96" fill="rgba(180,240,255,0.25)"/><circle cx="392" cy="282" r="3.02" fill="rgba(180,240,255,0.39)"/><circle cx="334" cy="454" r="1.89" fill="rgba(180,240,255,0.24)"/><circle cx="907" cy="242" r="3.34" fill="rgba(180,240,255,0.33)"/><circle cx="896" cy="369" r="2.59" fill="rgba(180,240,255,0.40)"/><circle cx="829" cy="304" r="2.69" fill="rgba(180,240,255,0.21)"/><circle cx="399" cy="541" r="2.43" fill="rgba(180,240,255,0.24)"/><circle cx="818" cy="425" r="1.27" fill="rgba(180,240,255,0.26)"/><circle cx="516" cy="198" r="1.91" fill="rgba(180,240,255,0.16)"/><circle cx="593" cy="185" r="2.66" fill="rgba(180,240,255,0.36)"/><circle cx="972" cy="101" r="3.09" fill="rgba(180,240,255,0.24)"/><circle cx="418" cy="366" r="2.03" fill="rgba(180,240,255,0.22)"/><circle cx="1028" cy="419" r="2.32" fill="rgba(180,240,255,0.33)"/><circle cx="593" cy="270" r="2.10" fill="rgba(180,240,255,0.22)"/><circle cx="99" cy="614" r="2.27" fill="rgba(180,240,255,0.15)"/><circle cx="288" cy="374" r="2.18" fill="rgba(180,240,255,0.27)"/><circle cx="1127" cy="601" r="2.95" fill="rgba(180,240,255,0.37)"/><circle cx="70" cy="523" r="3.00" fill="rgba(180,240,255,0.20)"/><circle cx="210" cy="88" r="2.17" fill="rgba(180,240,255,0.34)"/><circle cx="277" cy="497" r="3.36" fill="rgba(180,240,255,0.40)"/><circle cx="254" cy="600" r="3.18" fill="rgba(180,240,255,0.36)"/><circle cx="1164" cy="372" r="1.63" fill="rgba(180,240,255,0.30)"/></g>
  <rect width="1200" height="675" fill="rgba(190,220,255,0.06)"/>
  <rect width="1200" height="675" filter="url(#grain-74)"/>
  <rect width="1200" height="675" fill="url(#vignette-74)"/>
  <rect x="20" y="20" width="1160" height="635" rx="32" fill="none" stroke="rgba(155,220,255,0.24)"/>
</svg>