<?xml version="1.0" encoding="UTF-8"?>
<svg xmlns="http://www.w3.org/2000/svg" width="1200" height="675" viewBox="0 0 1200 675" role="img" aria-label="AIGC fallback cover 70" data-scene="scene-10">
  <defs>
    <linearGradient id="bg-70" x1="0" y1="0" x2="1" y2="1">
      <stop offset="0%" stop-color="hsl(29, 82%, 16%)"/>
      <stop offset="52%" stop-color="hsl(66, 84%, 23%)"/>
      <stop offset="100%" stop-color="hsl(216, 78%, 12%)"/>
    </linearGradient>
    <filter id="blur-70" x="-25%" y="-25%" width="150%" height="150%">
      <feGaussianBlur stdDeviation="26"/>
    </filter>
    <filter id="soft-70" x="-25%" y="-25%" width="150%" height="150%">
      <feGaussianBlur stdDeviation="10"/>
    </filter>
    <filter id="grain-70" x="0%" y="0%" width="100%" height="100%">
      <feTurbulence type="fractalNoise" baseFrequency="0.9" numOctaves="2" seed="910" stitchTiles="stitch"/>
      <feColorMatrix type="saturate" values="0"/>
      <feComponentTransfer>
        <feFuncA type="table" tableValues="0 0.05"/>
      </feComponentTransfer>
    </filter>
    <radialGradient id="vignette-70" cx="50%" cy="45%" r="70%">
      <stop offset="60%" stop-color="rgba(0,0,0,0)"/>
      <stop offset="100%" stop-color="rgba(0,0,0,0.45)"/>
    </radialGradient>
  </defs>

  <rect width="1200" height="675" fill="url(#bg-70)"/>
  <circle cx="439" cy="384" r="175" fill="hsl(29, 92%, 62%)" opacity="0.11" filter="url(#blur-70)"/><circle cx="403" cy="374" r="146" fill="hsl(55, 92%, 62%)" opacity="0.12" filter="url(#blur-70)"/><circle cx="453" cy="498" r="134" fill="hsl(81, 92%, 62%)" opacity="0.10" filter="url(#blur-70)"/>
  <circle cx="233" cy="374" r="63" fill="rgba(210,240,255,0.14)" filter="url(#soft-70)"/><circle cx="253" cy="125" r="58" fill="rgba(210,240,255,0.10)" filter="url(#soft-70)"/><circle cx="1053" cy="439" r="68" fill="rgba(210,240,255,0.14)" filter="url(#soft-70)"/><circle cx="329" cy="98" r="41" fill="rgba(210,240,255,0.06)" filter="url(#soft-70)"/><circle cx="786" cy="372" r="61" fill="rgba(210,240,255,0.13)" filter="url(#soft-70)"/><circle cx="394" cy="211" r="42" fill="rgba(210,240,255,0.13)" filter="url(#soft-70)"/><circle cx="713" cy="425" r="32" fill="rgba(210,240,255,0.09)" filter="url(#soft-70)"/><circle cx="200" cy="97" r="44" fill="rgba(210,240,255,0.10)" filter="url(#soft-70)"/><circle cx="706" cy="222" r="57" fill="rgba(210,240,255,0.10)" filter="url(#soft-70)"/><circle cx="500" cy="451" r="67" fill="rgba(210,240,255,0.13)" filter="url(#soft-70)"/>
  <polygon points="0,675 1200,675 1098,382 102,382" fill="rgba(8,16,28,0.35)"/>
  <g id="scene-robot-arms"><g><circle cx="506" cy="460" r="16" fill="rgba(120,215,255,0.75)"/><line x1="506" y1="460" x2="569" y2="332" stroke="rgba(145,235,255,0.62)" stroke-width="9" stroke-linecap="round"/><line x1="569" y1="332" x2="664" y2="211" stroke="rgba(120,255,220,0.6)" stroke-width="9" stroke-linecap="round"/><circle cx="569" cy="332" r="10" fill="rgba(150,245,255,0.8)"/><circle cx="664" cy="211" r="8" fill="rgba(120,255,220,0.86)"/></g><g><circle cx="781" cy="401" r="16" fill="rgba(120,215,255,0.75)"/><line x1="781" y1="401" x2="925" y2="200" stroke="rgba(145,235,255,0.62)" stroke-width="14" stroke-linecap="round"/><line x1="925" y1="200" x2="871" y2="92" stroke="rgba(120,255,220,0.6)" stroke-width="6" stroke-linecap="round"/><circle cx="925" cy="200" r="10" fill="rgba(150,245,255,0.8)"/><circle cx="871" cy="92" r="8" fill="rgba(120,255,220,0.86)"/></g><g><circle cx="991" cy="484" r="16" fill="rgba(120,215,255,0.75)"/><line x1="991" y1="484" x2="942" y2="294" stroke="rgba(145,235,255,0.62)" stroke-width="13" stroke-linecap="round"/><line x1="942" y1="294" x2="861" y2="209" stroke="rgba(120,255,220,0.6)" stroke-width="7" stroke-linecap="round"/><circle cx="942" cy="294" r="10" fill="rgba(150,245,255,0.8)"/><circle cx="861" cy="209" r="8" fill="rgba(120,255,220,0.86)"/></g><g><circle cx="218" cy="474" r="16" fill="rgba(120,215,255,0.75)"/><line x1="218" y1="474" x2="198" y2="262" stroke="rgba(145,235,255,0.62)" stroke-width="11" stroke-linecap="round"/><line x1="198" y1="262" x2="234" y2="170" stroke="rgba(120,255,220,0.6)" stroke-width="10" stroke-linecap="round"/><circle cx="198" cy="262" r="10" fill="rgba(150,245,255,0.8)"/><circle cx="234" cy="170" r="8" fill="rgba(120,255,220,0.86)"/></g><g><circle cx="989" cy="442" r="16" fill="rgba(120,215,255,0.75)"/><line x1="989" y1="442" x2="991" y2="304" stroke="rgba(145,235,255,0.62)" stroke-width="13" stroke-linecap="round"/><line x1="991" y1="304" x2="874" y2="161" stroke="rgba(120,255,220,0.6)" stroke-width="6" stroke-linecap="round"/><circle cx="991" cy="304" r="10" fill="rgba(150,245,255,0.8)"/><circle cx="874" cy="161" r="8" fill="rgba(120,255,220,0.86)"/></g></g>
  <g id="scene-sparkles"><circle cx="885" cy="111" r="2.75" fill="rgba(180,240,255,0.37)"/><circle cx="1003" cy="85" r="3.17" fill="rgba(180,240,255,0.30)"/><circle cx="683" cy="114" r="2.88" fill="rgba(180,240,255,0.34)"/><circle cx="570" cy="528" r="1.74" fill="rgba(180,240,255,0.23)"/><circle cx="820" cy="616" r="1.40" fill="rgba(180,240,255,0.35)"/><circle cx="139" cy="353" r="1.83" fill="rgba(180,240,255,0.23)"/><circle cx="857" cy="465" r="1.90" fill="rgba(180,240,255,0.45)"/><circle cx="1085" cy="591" r="2.88" fill="rgba(180,240,255,0.37)"/><circle cx="32" cy="642" r="1.38" fill="rgba(180,240,255,0.26)"/><circle cx="402" cy="72" r="1.35" fill="rgba(180,240,255,0.43)"/><circle cx="971" cy="113" r="2.01" fill="rgba(180,240,255,0.39)"/><circle cx="829" cy="199" r="2.53" fill="rgba(180,240,255,0.44)"/><circle cx="1055" cy="478" r="2.48" fill="rgba(180,240,255,0.45)"/><circle cx="1112" cy="561" r="2.03" fill="rgba(180,240,255,0.15)"/><circle cx="455" cy="525" r="1.60" fill="rgba(180,240,255,0.31)"/><circle cx="367" cy="581" r="1.95" fill="rgba(180,240,255,0.41)"/><circle cx="620" cy="586" r="1.78" fill="rgba(180,240,255,0.30)"/><circle cx="63" cy="329" r="2.34" fill="rgba(180,240,255,0.20)"/><circle cx="349" cy="42" r="1.86" fill="rgba(180,240,255,0.34)"/><circle cx="539" cy="93" r="2.11" fill="rgba(180,240,255,0.18)"/><circle cx="348" cy="286" r="2.31" fill="rgba(180,240,255,0.17)"/><circle cx="308" cy="355" r="1.92" fill="rgba(180,240,255,0.20)"/><circle cx="187" cy="435" r="3.12" fill="rgba(180,240,255,0.31)"/><circle cx="839" cy="393" r="2.60" fill="rgba(180,240,255,0.38)"/></g>
  <rect width="1200" height="675" fill="rgba(190,220,255,0.06)"/>
  <rect width="1200" height="675" filter="url(#grain-70)"/>
  <rect width="1200" height="675" fill="url(#vignette-70)"/>
  <rect x="20" y="20" width="1160" height="635" rx="32" fill="none" stroke="rgba(155,220,255,0.24)"/>
</svg>